<?xml version="1.0" encoding="UTF-8" standalone="no"?><svg xmlns="http://www.w3.org/2000/svg" xmlns:xlink="http://www.w3.org/1999/xlink" contentStyleType="text/css" height="345px" preserveAspectRatio="none" style="width:511px;height:345px;background:#FFFFFF;" version="1.1" viewBox="0 0 511 345" width="511px" zoomAndPan="magnify"><defs/><g><rect fill="#FFFFFF" height="141.125" style="stroke:#181818;stroke-width:1.0;" width="10" x="43" y="98.2813"/><rect fill="#FFFFFF" height="37.2813" style="stroke:#181818;stroke-width:1.0;" width="10" x="453" y="127.5625"/><rect fill="#FFFFFF" height="46.2813" style="stroke:#181818;stroke-width:1.0;" width="10" x="453" y="202.125"/><line style="stroke:#181818;stroke-width:0.5;stroke-dasharray:5.0,5.0;" x1="48" x2="48" y1="88.2813" y2="257.4063"/><line style="stroke:#181818;stroke-width:0.5;stroke-dasharray:5.0,5.0;" x1="457.5" x2="457.5" y1="88.2813" y2="257.4063"/><text fill="#000000" font-family="sans-serif" font-size="20" lengthAdjust="spacing" textLength="80" x="5" y="83.5645">Student</text><ellipse cx="48" cy="13.5" fill="#E2E2F0" rx="8" ry="8" style="stroke:#181818;stroke-width:0.5;"/><path d="M48,21.5 L48,48.5 M35,29.5 L61,29.5 M48,48.5 L35,63.5 M48,48.5 L61,63.5 " fill="none" style="stroke:#181818;stroke-width:0.5;"/><text fill="#000000" font-family="sans-serif" font-size="20" lengthAdjust="spacing" textLength="80" x="5" y="274.9707">Student</text><ellipse cx="48" cy="288.1875" fill="#E2E2F0" rx="8" ry="8" style="stroke:#181818;stroke-width:0.5;"/><path d="M48,296.1875 L48,323.1875 M35,304.1875 L61,304.1875 M48,323.1875 L35,338.1875 M48,323.1875 L61,338.1875 " fill="none" style="stroke:#181818;stroke-width:0.5;"/><rect fill="#E2E2F0" height="37.2813" rx="2.5" ry="2.5" style="stroke:#181818;stroke-width:0.5;" width="95" x="410.5" y="50"/><text fill="#000000" font-family="sans-serif" font-size="20" lengthAdjust="spacing" textLength="81" x="417.5" y="75.5645">:System</text><rect fill="#E2E2F0" height="37.2813" rx="2.5" ry="2.5" style="stroke:#181818;stroke-width:0.5;" width="95" x="410.5" y="256.4063"/><text fill="#000000" font-family="sans-serif" font-size="20" lengthAdjust="spacing" textLength="81" x="417.5" y="281.9707">:System</text><rect fill="#FFFFFF" height="141.125" style="stroke:#181818;stroke-width:1.0;" width="10" x="43" y="98.2813"/><rect fill="#FFFFFF" height="37.2813" style="stroke:#181818;stroke-width:1.0;" width="10" x="453" y="127.5625"/><rect fill="#FFFFFF" height="46.2813" style="stroke:#181818;stroke-width:1.0;" width="10" x="453" y="202.125"/><polygon fill="#181818" points="441,123.5625,451,127.5625,441,131.5625,445,127.5625" style="stroke:#181818;stroke-width:1.0;"/><line style="stroke:#181818;stroke-width:1.0;" x1="53" x2="447" y1="127.5625" y2="127.5625"/><text fill="#000000" font-family="sans-serif" font-size="20" font-weight="bold" lengthAdjust="spacing" textLength="14" x="60" y="120.8457">1</text><text fill="#000000" font-family="sans-serif" font-size="20" lengthAdjust="spacing" textLength="363" x="78" y="120.8457">selects option "Request enrollment"</text><polygon fill="#181818" points="64,160.8438,54,164.8438,64,168.8438,60,164.8438" style="stroke:#181818;stroke-width:1.0;"/><line style="stroke:#181818;stroke-width:1.0;stroke-dasharray:2.0,2.0;" x1="58" x2="457" y1="164.8438" y2="164.8438"/><text fill="#000000" font-family="sans-serif" font-size="20" font-weight="bold" lengthAdjust="spacing" textLength="14" x="70" y="158.127">2</text><text fill="#000000" font-family="sans-serif" font-size="20" lengthAdjust="spacing" textLength="240" x="88" y="158.127">shows available courses</text><polygon fill="#181818" points="441,198.125,451,202.125,441,206.125,445,202.125" style="stroke:#181818;stroke-width:1.0;"/><line style="stroke:#181818;stroke-width:1.0;" x1="53" x2="447" y1="202.125" y2="202.125"/><text fill="#000000" font-family="sans-serif" font-size="20" font-weight="bold" lengthAdjust="spacing" textLength="14" x="60" y="195.4082">3</text><text fill="#000000" font-family="sans-serif" font-size="20" lengthAdjust="spacing" textLength="141" x="78" y="195.4082">selects course</text><polygon fill="#181818" points="59,235.4063,49,239.4063,59,243.4063,55,239.4063" style="stroke:#181818;stroke-width:1.0;"/><line style="stroke:#181818;stroke-width:1.0;stroke-dasharray:2.0,2.0;" x1="53" x2="452" y1="239.4063" y2="239.4063"/><text fill="#000000" font-family="sans-serif" font-size="20" font-weight="bold" lengthAdjust="spacing" textLength="14" x="65" y="232.6895">4</text><text fill="#000000" font-family="sans-serif" font-size="20" lengthAdjust="spacing" textLength="271" x="83" y="232.6895">informs operations success</text><!--SRC=[VOz1RW8n34NtEOMLFH9YoQBB7e1m0PFvgD4aCSGELNjw9a9YLAcmz9V- -yywfthXnYLBd37HX3FtR9zIBQHVq6xhk9lKNaveZgD98n-iJwZcYPN2qOqutTWmZd2apGVvVVXHG_6q9qL6D2MvM99A_e1hXngXDicv3D1AU1RTYjWim0MxaBxaMubld3AVCYXARmfr4_xflnPvrDvkFYTJFKihGnwDXx-IzXYXVrQNl-y0]--></g></svg>