<?xml version="1.0" encoding="UTF-8" standalone="no"?><svg xmlns="http://www.w3.org/2000/svg" xmlns:xlink="http://www.w3.org/1999/xlink" contentStyleType="text/css" height="1013px" preserveAspectRatio="none" style="width:1509px;height:1013px;background:#FFFFFF;" version="1.1" viewBox="0 0 1509 1013" width="1509px" zoomAndPan="magnify"><defs/><g><text fill="#000000" font-family="sans-serif" font-size="14" font-weight="bold" lengthAdjust="spacing" textLength="362" x="566.5" y="22.9951">Class Diagram - Request Enrollment in Course</text><!--cluster presentation--><g id="cluster_presentation"><path d="M131.5,44.5137 L279.5,44.5137 A3.75,3.75 0 0 1 282,47.0137 L289,73.7949 L706.5,73.7949 A2.5,2.5 0 0 1 709,76.2949 L709,220.0137 A2.5,2.5 0 0 1 706.5,222.5137 L131.5,222.5137 A2.5,2.5 0 0 1 129,220.0137 L129,47.0137 A2.5,2.5 0 0 1 131.5,44.5137 " fill="none" style="stroke:#000000;stroke-width:1.5;"/><line style="stroke:#000000;stroke-width:1.5;" x1="129" x2="289" y1="73.7949" y2="73.7949"/><text fill="#000000" font-family="sans-serif" font-size="20" font-weight="bold" lengthAdjust="spacing" textLength="147" x="133" y="65.0781">presentation</text></g><!--cluster application--><g id="cluster_application"><path d="M92.5,246.5137 L220.5,246.5137 A3.75,3.75 0 0 1 223,249.0137 L230,275.7949 L745.5,275.7949 A2.5,2.5 0 0 1 748,278.2949 L748,468.0137 A2.5,2.5 0 0 1 745.5,470.5137 L92.5,470.5137 A2.5,2.5 0 0 1 90,468.0137 L90,249.0137 A2.5,2.5 0 0 1 92.5,246.5137 " fill="none" style="stroke:#000000;stroke-width:1.5;"/><line style="stroke:#000000;stroke-width:1.5;" x1="90" x2="230" y1="275.7949" y2="275.7949"/><text fill="#000000" font-family="sans-serif" font-size="20" font-weight="bold" lengthAdjust="spacing" textLength="127" x="94" y="267.0781">application</text></g><!--cluster domain--><g id="cluster_domain"><path d="M8.5,673.5137 L93.5,673.5137 A3.75,3.75 0 0 1 96,676.0137 L103,702.7949 L455.5,702.7949 A2.5,2.5 0 0 1 458,705.2949 L458,980.5137 A2.5,2.5 0 0 1 455.5,983.0137 L8.5,983.0137 A2.5,2.5 0 0 1 6,980.5137 L6,676.0137 A2.5,2.5 0 0 1 8.5,673.5137 " fill="none" style="stroke:#000000;stroke-width:1.5;"/><line style="stroke:#000000;stroke-width:1.5;" x1="6" x2="103" y1="702.7949" y2="702.7949"/><text fill="#000000" font-family="sans-serif" font-size="20" font-weight="bold" lengthAdjust="spacing" textLength="84" x="10" y="694.0781">domain</text></g><!--cluster persistence--><g id="cluster_persistence"><path d="M652.5,673.5137 L786.5,673.5137 A3.75,3.75 0 0 1 789,676.0137 L796,702.7949 L1033.5,702.7949 A2.5,2.5 0 0 1 1036,705.2949 L1036,802.0137 A2.5,2.5 0 0 1 1033.5,804.5137 L652.5,804.5137 A2.5,2.5 0 0 1 650,802.0137 L650,676.0137 A2.5,2.5 0 0 1 652.5,673.5137 " fill="none" style="stroke:#000000;stroke-width:1.5;"/><line style="stroke:#000000;stroke-width:1.5;" x1="650" x2="796" y1="702.7949" y2="702.7949"/><text fill="#000000" font-family="sans-serif" font-size="20" font-weight="bold" lengthAdjust="spacing" textLength="133" x="654" y="694.0781">persistence</text></g><!--cluster factory--><g id="cluster_factory"><path d="M552.5,828.5137 L635.5,828.5137 A3.75,3.75 0 0 1 638,831.0137 L645,857.7949 L1133.5,857.7949 A2.5,2.5 0 0 1 1136,860.2949 L1136,1004.0137 A2.5,2.5 0 0 1 1133.5,1006.5137 L552.5,1006.5137 A2.5,2.5 0 0 1 550,1004.0137 L550,831.0137 A2.5,2.5 0 0 1 552.5,828.5137 " fill="none" style="stroke:#000000;stroke-width:1.5;"/><line style="stroke:#000000;stroke-width:1.5;" x1="550" x2="645" y1="857.7949" y2="857.7949"/><text fill="#000000" font-family="sans-serif" font-size="20" font-weight="bold" lengthAdjust="spacing" textLength="82" x="554" y="849.0781">factory</text></g><!--cluster repositories--><g id="cluster_repositories"><path d="M93.5,494.5137 L232.5,494.5137 A3.75,3.75 0 0 1 235,497.0137 L242,523.7949 L1499.5,523.7949 A2.5,2.5 0 0 1 1502,526.2949 L1502,647.0137 A2.5,2.5 0 0 1 1499.5,649.5137 L93.5,649.5137 A2.5,2.5 0 0 1 91,647.0137 L91,497.0137 A2.5,2.5 0 0 1 93.5,494.5137 " fill="none" style="stroke:#000000;stroke-width:1.5;"/><line style="stroke:#000000;stroke-width:1.5;" x1="91" x2="242" y1="523.7949" y2="523.7949"/><text fill="#000000" font-family="sans-serif" font-size="20" font-weight="bold" lengthAdjust="spacing" textLength="138" x="95" y="515.0781">repositories</text></g><!--class EnrollmentUI--><g id="elem_EnrollmentUI"><rect codeLine="4" fill="#F1F1F1" height="119.8438" id="EnrollmentUI" rx="2.5" ry="2.5" style="stroke:#181818;stroke-width:0.5;" width="548" x="145" y="86.5137"/><ellipse cx="348.5" cy="103.5137" fill="#ADD1B2" rx="12" ry="12" style="stroke:#181818;stroke-width:1.0;"/><path d="M351.5625,110.5918 Q350.875,110.9512 350.125,111.123 Q349.375,111.2949 348.5469,111.2949 Q345.5938,111.2949 344.0313,109.3574 Q342.4844,107.4043 342.4844,103.7324 Q342.4844,100.0605 344.0313,98.123 Q345.5938,96.1699 348.5469,96.1699 Q349.375,96.1699 350.125,96.3418 Q350.8906,96.5137 351.5625,96.873 L351.5625,100.0762 Q350.8125,99.3887 350.1094,99.0762 Q349.4219,98.7637 348.6719,98.7637 Q347.0938,98.7637 346.2813,100.0137 Q345.4844,101.2637 345.4844,103.7324 Q345.4844,106.2012 346.2813,107.4512 Q347.0938,108.7012 348.6719,108.7012 Q349.4219,108.7012 350.1094,108.3887 Q350.8125,108.0762 351.5625,107.3887 L351.5625,110.5918 Z " fill="#000000"/><text fill="#000000" font-family="sans-serif" font-size="20" lengthAdjust="spacing" textLength="132" x="370.5" y="110.4375">EnrollmentUI</text><line style="stroke:#181818;stroke-width:0.5;" x1="146" x2="692" y1="120.5137" y2="120.5137"/><line style="stroke:#181818;stroke-width:0.5;" x1="146" x2="692" y1="128.5137" y2="128.5137"/><ellipse cx="156" cy="145.6543" fill="#84BE84" rx="3" ry="3" style="stroke:#038048;stroke-width:1.0;"/><text fill="#000000" font-family="sans-serif" font-size="20" lengthAdjust="spacing" textLength="134" x="166" y="151.0781">create(): void</text><ellipse cx="156" cy="168.9355" fill="#84BE84" rx="3" ry="3" style="stroke:#038048;stroke-width:1.0;"/><text fill="#000000" font-family="sans-serif" font-size="20" lengthAdjust="spacing" textLength="521" x="166" y="174.3594">showAvailableCourses(courses: List&lt;Course&gt;): void</text><ellipse cx="156" cy="192.2168" fill="#84BE84" rx="3" ry="3" style="stroke:#038048;stroke-width:1.0;"/><text fill="#000000" font-family="sans-serif" font-size="20" lengthAdjust="spacing" textLength="365" x="166" y="197.6406">showEnrollmentConfirmation(): void</text></g><!--class EnrollmentController--><g id="elem_EnrollmentController"><rect codeLine="12" fill="#F1F1F1" height="166.4063" id="EnrollmentController" rx="2.5" ry="2.5" style="stroke:#181818;stroke-width:0.5;" width="626" x="106" y="288.5137"/><ellipse cx="309.5" cy="305.5137" fill="#ADD1B2" rx="12" ry="12" style="stroke:#181818;stroke-width:1.0;"/><path d="M312.5625,312.5918 Q311.875,312.9512 311.125,313.123 Q310.375,313.2949 309.5469,313.2949 Q306.5938,313.2949 305.0313,311.3574 Q303.4844,309.4043 303.4844,305.7324 Q303.4844,302.0605 305.0313,300.123 Q306.5938,298.1699 309.5469,298.1699 Q310.375,298.1699 311.125,298.3418 Q311.8906,298.5137 312.5625,298.873 L312.5625,302.0762 Q311.8125,301.3887 311.1094,301.0762 Q310.4219,300.7637 309.6719,300.7637 Q308.0938,300.7637 307.2813,302.0137 Q306.4844,303.2637 306.4844,305.7324 Q306.4844,308.2012 307.2813,309.4512 Q308.0938,310.7012 309.6719,310.7012 Q310.4219,310.7012 311.1094,310.3887 Q311.8125,310.0762 312.5625,309.3887 L312.5625,312.5918 Z " fill="#000000"/><text fill="#000000" font-family="sans-serif" font-size="20" lengthAdjust="spacing" textLength="210" x="331.5" y="312.4375">EnrollmentController</text><line style="stroke:#181818;stroke-width:0.5;" x1="107" x2="731" y1="322.5137" y2="322.5137"/><rect fill="none" height="6" style="stroke:#C82930;stroke-width:1.0;" width="6" x="114" y="336.6543"/><text fill="#000000" font-family="sans-serif" font-size="20" lengthAdjust="spacing" textLength="360" x="127" y="345.0781">courseRepository: CourseRepository</text><rect fill="none" height="6" style="stroke:#C82930;stroke-width:1.0;" width="6" x="114" y="359.9355"/><text fill="#000000" font-family="sans-serif" font-size="20" lengthAdjust="spacing" textLength="382" x="127" y="368.3594">studentRepository: StudentRepository</text><rect fill="none" height="6" style="stroke:#C82930;stroke-width:1.0;" width="6" x="114" y="383.2168"/><text fill="#000000" font-family="sans-serif" font-size="20" lengthAdjust="spacing" textLength="446" x="127" y="391.6406">enrollmentRepository: EnrollmentRepository</text><line style="stroke:#181818;stroke-width:0.5;" x1="107" x2="731" y1="400.3574" y2="400.3574"/><ellipse cx="117" cy="417.498" fill="#84BE84" rx="3" ry="3" style="stroke:#038048;stroke-width:1.0;"/><text fill="#000000" font-family="sans-serif" font-size="20" lengthAdjust="spacing" textLength="134" x="127" y="422.9219">create(): void</text><ellipse cx="117" cy="440.7793" fill="#84BE84" rx="3" ry="3" style="stroke:#038048;stroke-width:1.0;"/><text fill="#000000" font-family="sans-serif" font-size="20" lengthAdjust="spacing" textLength="599" x="127" y="446.2031">requestEnrollment(courseId: String, studentId: String): void</text></g><!--class Course--><g id="elem_Course"><rect codeLine="23" fill="#F1F1F1" height="73.2813" id="Course" rx="2.5" ry="2.5" style="stroke:#181818;stroke-width:0.5;" width="169" x="45.5" y="894.0137"/><ellipse cx="91.2" cy="911.0137" fill="#ADD1B2" rx="12" ry="12" style="stroke:#181818;stroke-width:1.0;"/><path d="M94.2625,918.0918 Q93.575,918.4512 92.825,918.623 Q92.075,918.7949 91.2469,918.7949 Q88.2938,918.7949 86.7313,916.8574 Q85.1844,914.9043 85.1844,911.2324 Q85.1844,907.5605 86.7313,905.623 Q88.2938,903.6699 91.2469,903.6699 Q92.075,903.6699 92.825,903.8418 Q93.5906,904.0137 94.2625,904.373 L94.2625,907.5762 Q93.5125,906.8887 92.8094,906.5762 Q92.1219,906.2637 91.3719,906.2637 Q89.7938,906.2637 88.9813,907.5137 Q88.1844,908.7637 88.1844,911.2324 Q88.1844,913.7012 88.9813,914.9512 Q89.7938,916.2012 91.3719,916.2012 Q92.1219,916.2012 92.8094,915.8887 Q93.5125,915.5762 94.2625,914.8887 L94.2625,918.0918 Z " fill="#000000"/><text fill="#000000" font-family="sans-serif" font-size="20" lengthAdjust="spacing" textLength="69" x="112.8" y="917.9375">Course</text><line style="stroke:#181818;stroke-width:0.5;" x1="46.5" x2="213.5" y1="928.0137" y2="928.0137"/><line style="stroke:#181818;stroke-width:0.5;" x1="46.5" x2="213.5" y1="936.0137" y2="936.0137"/><ellipse cx="56.5" cy="953.1543" fill="#84BE84" rx="3" ry="3" style="stroke:#038048;stroke-width:1.0;"/><text fill="#000000" font-family="sans-serif" font-size="20" lengthAdjust="spacing" textLength="142" x="66.5" y="958.5781">getId(): String</text></g><!--class Student--><g id="elem_Student"><rect codeLine="27" fill="#F1F1F1" height="73.2813" id="Student" rx="2.5" ry="2.5" style="stroke:#181818;stroke-width:0.5;" width="169" x="249.5" y="894.0137"/><ellipse cx="290.25" cy="911.0137" fill="#ADD1B2" rx="12" ry="12" style="stroke:#181818;stroke-width:1.0;"/><path d="M293.3125,918.0918 Q292.625,918.4512 291.875,918.623 Q291.125,918.7949 290.2969,918.7949 Q287.3438,918.7949 285.7813,916.8574 Q284.2344,914.9043 284.2344,911.2324 Q284.2344,907.5605 285.7813,905.623 Q287.3438,903.6699 290.2969,903.6699 Q291.125,903.6699 291.875,903.8418 Q292.6406,904.0137 293.3125,904.373 L293.3125,907.5762 Q292.5625,906.8887 291.8594,906.5762 Q291.1719,906.2637 290.4219,906.2637 Q288.8438,906.2637 288.0313,907.5137 Q287.2344,908.7637 287.2344,911.2324 Q287.2344,913.7012 288.0313,914.9512 Q288.8438,916.2012 290.4219,916.2012 Q291.1719,916.2012 291.8594,915.8887 Q292.5625,915.5762 293.3125,914.8887 L293.3125,918.0918 Z " fill="#000000"/><text fill="#000000" font-family="sans-serif" font-size="20" lengthAdjust="spacing" textLength="80" x="310.75" y="917.9375">Student</text><line style="stroke:#181818;stroke-width:0.5;" x1="250.5" x2="417.5" y1="928.0137" y2="928.0137"/><line style="stroke:#181818;stroke-width:0.5;" x1="250.5" x2="417.5" y1="936.0137" y2="936.0137"/><ellipse cx="260.5" cy="953.1543" fill="#84BE84" rx="3" ry="3" style="stroke:#038048;stroke-width:1.0;"/><text fill="#000000" font-family="sans-serif" font-size="20" lengthAdjust="spacing" textLength="142" x="270.5" y="958.5781">getId(): String</text></g><!--class CourseEnrollment--><g id="elem_CourseEnrollment"><rect codeLine="31" fill="#F1F1F1" height="73.2813" id="CourseEnrollment" rx="2.5" ry="2.5" style="stroke:#181818;stroke-width:0.5;" width="420" x="22" y="715.5137"/><ellipse cx="137.5" cy="732.5137" fill="#ADD1B2" rx="12" ry="12" style="stroke:#181818;stroke-width:1.0;"/><path d="M140.5625,739.5918 Q139.875,739.9512 139.125,740.123 Q138.375,740.2949 137.5469,740.2949 Q134.5938,740.2949 133.0313,738.3574 Q131.4844,736.4043 131.4844,732.7324 Q131.4844,729.0605 133.0313,727.123 Q134.5938,725.1699 137.5469,725.1699 Q138.375,725.1699 139.125,725.3418 Q139.8906,725.5137 140.5625,725.873 L140.5625,729.0762 Q139.8125,728.3887 139.1094,728.0762 Q138.4219,727.7637 137.6719,727.7637 Q136.0938,727.7637 135.2813,729.0137 Q134.4844,730.2637 134.4844,732.7324 Q134.4844,735.2012 135.2813,736.4512 Q136.0938,737.7012 137.6719,737.7012 Q138.4219,737.7012 139.1094,737.3887 Q139.8125,737.0762 140.5625,736.3887 L140.5625,739.5918 Z " fill="#000000"/><text fill="#000000" font-family="sans-serif" font-size="20" lengthAdjust="spacing" textLength="180" x="159.5" y="739.4375">CourseEnrollment</text><line style="stroke:#181818;stroke-width:0.5;" x1="23" x2="441" y1="749.5137" y2="749.5137"/><line style="stroke:#181818;stroke-width:0.5;" x1="23" x2="441" y1="757.5137" y2="757.5137"/><ellipse cx="33" cy="774.6543" fill="#84BE84" rx="3" ry="3" style="stroke:#038048;stroke-width:1.0;"/><text fill="#000000" font-family="sans-serif" font-size="20" lengthAdjust="spacing" textLength="393" x="43" y="780.0781">addApplication(student: Student): void</text></g><!--class PersistenceContext--><g id="elem_PersistenceContext"><rect codeLine="37" fill="#F1F1F1" height="73.2813" id="PersistenceContext" rx="2.5" ry="2.5" style="stroke:#181818;stroke-width:0.5;" width="353" x="666.5" y="715.5137"/><ellipse cx="742.5" cy="732.5137" fill="#ADD1B2" rx="12" ry="12" style="stroke:#181818;stroke-width:1.0;"/><path d="M745.5625,739.5918 Q744.875,739.9512 744.125,740.123 Q743.375,740.2949 742.5469,740.2949 Q739.5938,740.2949 738.0313,738.3574 Q736.4844,736.4043 736.4844,732.7324 Q736.4844,729.0605 738.0313,727.123 Q739.5938,725.1699 742.5469,725.1699 Q743.375,725.1699 744.125,725.3418 Q744.8906,725.5137 745.5625,725.873 L745.5625,729.0762 Q744.8125,728.3887 744.1094,728.0762 Q743.4219,727.7637 742.6719,727.7637 Q741.0938,727.7637 740.2813,729.0137 Q739.4844,730.2637 739.4844,732.7324 Q739.4844,735.2012 740.2813,736.4512 Q741.0938,737.7012 742.6719,737.7012 Q743.4219,737.7012 744.1094,737.3887 Q744.8125,737.0762 745.5625,736.3887 L745.5625,739.5918 Z " fill="#000000"/><text fill="#000000" font-family="sans-serif" font-size="20" lengthAdjust="spacing" textLength="192" x="764.5" y="739.4375">PersistenceContext</text><line style="stroke:#181818;stroke-width:0.5;" x1="667.5" x2="1018.5" y1="749.5137" y2="749.5137"/><line style="stroke:#181818;stroke-width:0.5;" x1="667.5" x2="1018.5" y1="757.5137" y2="757.5137"/><ellipse cx="677.5" cy="774.6543" fill="#84BE84" rx="3" ry="3" style="stroke:#038048;stroke-width:1.0;"/><text fill="#000000" font-family="sans-serif" font-size="20" lengthAdjust="spacing" textLength="326" x="687.5" y="780.0781">repositories(): RepositoryFactory</text></g><!--class RepositoryFactory--><g id="elem_RepositoryFactory"><rect codeLine="43" fill="#F1F1F1" height="119.8438" id="RepositoryFactory" rx="2.5" ry="2.5" style="stroke:#181818;stroke-width:0.5;" width="553" x="566.5" y="870.5137"/><ellipse cx="748.5" cy="887.5137" fill="#ADD1B2" rx="12" ry="12" style="stroke:#181818;stroke-width:1.0;"/><path d="M751.5625,894.5918 Q750.875,894.9512 750.125,895.123 Q749.375,895.2949 748.5469,895.2949 Q745.5938,895.2949 744.0313,893.3574 Q742.4844,891.4043 742.4844,887.7324 Q742.4844,884.0605 744.0313,882.123 Q745.5938,880.1699 748.5469,880.1699 Q749.375,880.1699 750.125,880.3418 Q750.8906,880.5137 751.5625,880.873 L751.5625,884.0762 Q750.8125,883.3887 750.1094,883.0762 Q749.4219,882.7637 748.6719,882.7637 Q747.0938,882.7637 746.2813,884.0137 Q745.4844,885.2637 745.4844,887.7324 Q745.4844,890.2012 746.2813,891.4512 Q747.0938,892.7012 748.6719,892.7012 Q749.4219,892.7012 750.1094,892.3887 Q750.8125,892.0762 751.5625,891.3887 L751.5625,894.5918 Z " fill="#000000"/><text fill="#000000" font-family="sans-serif" font-size="20" lengthAdjust="spacing" textLength="180" x="770.5" y="894.4375">RepositoryFactory</text><line style="stroke:#181818;stroke-width:0.5;" x1="567.5" x2="1118.5" y1="904.5137" y2="904.5137"/><line style="stroke:#181818;stroke-width:0.5;" x1="567.5" x2="1118.5" y1="912.5137" y2="912.5137"/><ellipse cx="577.5" cy="929.6543" fill="#84BE84" rx="3" ry="3" style="stroke:#038048;stroke-width:1.0;"/><text fill="#000000" font-family="sans-serif" font-size="20" lengthAdjust="spacing" textLength="442" x="587.5" y="935.0781">createCourseRepository(): CourseRepository</text><ellipse cx="577.5" cy="952.9355" fill="#84BE84" rx="3" ry="3" style="stroke:#038048;stroke-width:1.0;"/><text fill="#000000" font-family="sans-serif" font-size="20" lengthAdjust="spacing" textLength="464" x="587.5" y="958.3594">createStudentRepository(): StudentRepository</text><ellipse cx="577.5" cy="976.2168" fill="#84BE84" rx="3" ry="3" style="stroke:#038048;stroke-width:1.0;"/><text fill="#000000" font-family="sans-serif" font-size="20" lengthAdjust="spacing" textLength="526" x="587.5" y="981.6406">createEnrollmentRepository(): EnrollmentRepository</text></g><!--class CourseRepository--><g id="elem_CourseRepository"><rect codeLine="52" fill="#F1F1F1" height="96.5625" id="CourseRepository" rx="2.5" ry="2.5" style="stroke:#181818;stroke-width:0.5;" width="395" x="1090.5" y="536.5137"/><ellipse cx="1195.5" cy="553.5137" fill="#B4A7E5" rx="12" ry="12" style="stroke:#181818;stroke-width:1.0;"/><path d="M1190.6875,548.9668 L1190.6875,546.4355 L1199.3594,546.4355 L1199.3594,548.9668 L1196.4688,548.9668 L1196.4688,558.4668 L1199.3594,558.4668 L1199.3594,561.0137 L1190.6875,561.0137 L1190.6875,558.4668 L1193.5781,558.4668 L1193.5781,548.9668 L1190.6875,548.9668 Z " fill="#000000"/><text fill="#000000" font-family="sans-serif" font-size="20" font-style="italic" lengthAdjust="spacing" textLength="176" x="1217.5" y="560.4375">CourseRepository</text><line style="stroke:#181818;stroke-width:0.5;" x1="1091.5" x2="1484.5" y1="570.5137" y2="570.5137"/><line style="stroke:#181818;stroke-width:0.5;" x1="1091.5" x2="1484.5" y1="578.5137" y2="578.5137"/><ellipse cx="1101.5" cy="595.6543" fill="#84BE84" rx="3" ry="3" style="stroke:#038048;stroke-width:1.0;"/><text fill="#000000" font-family="sans-serif" font-size="20" lengthAdjust="spacing" textLength="368" x="1111.5" y="601.0781">listAvailableCourses(): List&lt;Course&gt;</text><ellipse cx="1101.5" cy="618.9355" fill="#84BE84" rx="3" ry="3" style="stroke:#038048;stroke-width:1.0;"/><text fill="#000000" font-family="sans-serif" font-size="20" lengthAdjust="spacing" textLength="365" x="1111.5" y="624.3594">findCourse(courseId: String): Course</text></g><!--class StudentRepository--><g id="elem_StudentRepository"><rect codeLine="57" fill="#F1F1F1" height="73.2813" id="StudentRepository" rx="2.5" ry="2.5" style="stroke:#181818;stroke-width:0.5;" width="425" x="630.5" y="548.5137"/><ellipse cx="745" cy="565.5137" fill="#B4A7E5" rx="12" ry="12" style="stroke:#181818;stroke-width:1.0;"/><path d="M740.1875,560.9668 L740.1875,558.4355 L748.8594,558.4355 L748.8594,560.9668 L745.9688,560.9668 L745.9688,570.4668 L748.8594,570.4668 L748.8594,573.0137 L740.1875,573.0137 L740.1875,570.4668 L743.0781,570.4668 L743.0781,560.9668 L740.1875,560.9668 Z " fill="#000000"/><text fill="#000000" font-family="sans-serif" font-size="20" font-style="italic" lengthAdjust="spacing" textLength="187" x="767" y="572.4375">StudentRepository</text><line style="stroke:#181818;stroke-width:0.5;" x1="631.5" x2="1054.5" y1="582.5137" y2="582.5137"/><line style="stroke:#181818;stroke-width:0.5;" x1="631.5" x2="1054.5" y1="590.5137" y2="590.5137"/><ellipse cx="641.5" cy="607.6543" fill="#84BE84" rx="3" ry="3" style="stroke:#038048;stroke-width:1.0;"/><text fill="#000000" font-family="sans-serif" font-size="20" lengthAdjust="spacing" textLength="398" x="651.5" y="613.0781">findStudent(studentId: String): Student</text></g><!--class EnrollmentRepository--><g id="elem_EnrollmentRepository"><rect codeLine="61" fill="#F1F1F1" height="73.2813" id="EnrollmentRepository" rx="2.5" ry="2.5" style="stroke:#181818;stroke-width:0.5;" width="488" x="107" y="548.5137"/><ellipse cx="237.5" cy="565.5137" fill="#B4A7E5" rx="12" ry="12" style="stroke:#181818;stroke-width:1.0;"/><path d="M232.6875,560.9668 L232.6875,558.4355 L241.3594,558.4355 L241.3594,560.9668 L238.4688,560.9668 L238.4688,570.4668 L241.3594,570.4668 L241.3594,573.0137 L232.6875,573.0137 L232.6875,570.4668 L235.5781,570.4668 L235.5781,560.9668 L232.6875,560.9668 Z " fill="#000000"/><text fill="#000000" font-family="sans-serif" font-size="20" font-style="italic" lengthAdjust="spacing" textLength="218" x="259.5" y="572.4375">EnrollmentRepository</text><line style="stroke:#181818;stroke-width:0.5;" x1="108" x2="594" y1="582.5137" y2="582.5137"/><line style="stroke:#181818;stroke-width:0.5;" x1="108" x2="594" y1="590.5137" y2="590.5137"/><ellipse cx="118" cy="607.6543" fill="#84BE84" rx="3" ry="3" style="stroke:#038048;stroke-width:1.0;"/><text fill="#000000" font-family="sans-serif" font-size="20" lengthAdjust="spacing" textLength="461" x="128" y="613.0781">saveEnrollment(enrollment: Enrollment): void</text></g><!--link EnrollmentUI to EnrollmentController--><g id="link_EnrollmentUI_EnrollmentController"><path codeLine="66" d="M419,206.6837 C419,230.1537 419,257.6237 419,283.2837 " fill="none" id="EnrollmentUI-to-EnrollmentController" style="stroke:#181818;stroke-width:1.0;"/><polygon fill="#181818" points="419,288.3937,423,279.3937,419,283.3937,415,279.3937,419,288.3937" style="stroke:#181818;stroke-width:1.0;"/></g><!--link EnrollmentController to CourseRepository--><g id="link_EnrollmentController_CourseRepository"><path codeLine="67" d="M732.2,410.6137 C841.46,428.2137 963.97,452.8837 1073,486.5137 C1113.11,498.8837 1155.53,516.9537 1192,534.1937 " fill="none" id="EnrollmentController-to-CourseRepository" style="stroke:#181818;stroke-width:1.0;"/><polygon fill="#181818" points="1196.87,536.5137,1190.4741,529.0242,1192.3586,534.3579,1187.0249,536.2424,1196.87,536.5137" style="stroke:#181818;stroke-width:1.0;"/></g><!--link EnrollmentController to StudentRepository--><g id="link_EnrollmentController_StudentRepository"><path codeLine="68" d="M583.54,454.5837 C646.81,486.1437 716.02,520.6737 767.04,546.1237 " fill="none" id="EnrollmentController-to-StudentRepository" style="stroke:#181818;stroke-width:1.0;"/><polygon fill="#181818" points="771.61,548.4037,765.3393,540.8091,767.135,546.1733,761.7707,547.969,771.61,548.4037" style="stroke:#181818;stroke-width:1.0;"/></g><!--link EnrollmentController to EnrollmentRepository--><g id="link_EnrollmentController_EnrollmentRepository"><path codeLine="69" d="M392.61,454.5837 C382.81,485.0637 372.12,518.3137 364.03,543.4837 " fill="none" id="EnrollmentController-to-EnrollmentRepository" style="stroke:#181818;stroke-width:1.0;"/><polygon fill="#181818" points="362.45,548.4037,369.0051,541.0531,363.9754,543.642,361.3865,538.6124,362.45,548.4037" style="stroke:#181818;stroke-width:1.0;"/></g><!--link EnrollmentController to CourseEnrollment--><g id="link_EnrollmentController_CourseEnrollment"><path codeLine="70" d="M119.77,454.6437 C109.08,464.1437 99.38,474.7237 91,486.5137 C46.96,548.4537 55.06,590.5537 91,657.5137 C103.24,680.3237 123.76,698.5037 145.41,712.5437 " fill="none" id="EnrollmentController-to-CourseEnrollment" style="stroke:#181818;stroke-width:1.0;"/><polygon fill="#181818" points="149.76,715.3037,144.2876,707.1151,145.5329,712.6332,140.0148,713.8785,149.76,715.3037" style="stroke:#181818;stroke-width:1.0;"/></g><!--link CourseEnrollment to Student--><g id="link_CourseEnrollment_Student"><path codeLine="72" d="M252.64,788.7337 C269.51,817.9137 293.34,859.1537 310.85,889.4637 " fill="none" id="CourseEnrollment-to-Student" style="stroke:#181818;stroke-width:1.0;"/><polygon fill="#181818" points="313.39,893.8537,312.3526,884.0596,310.8893,889.5239,305.425,888.0607,313.39,893.8537" style="stroke:#181818;stroke-width:1.0;"/></g><!--link CourseEnrollment to Course--><g id="link_CourseEnrollment_Course"><path codeLine="73" d="M211.36,788.7337 C194.49,817.9137 170.66,859.1537 153.15,889.4637 " fill="none" id="CourseEnrollment-to-Course" style="stroke:#181818;stroke-width:1.0;"/><polygon fill="#181818" points="150.61,893.8537,158.575,888.0607,153.1107,889.5239,151.6474,884.0596,150.61,893.8537" style="stroke:#181818;stroke-width:1.0;"/></g><!--link CourseRepository to PersistenceContext--><g id="link_CourseRepository_PersistenceContext"><path codeLine="74" d="M1159.88,633.5137 C1091.19,658.9837 1007.77,689.9237 943.76,713.6537 " fill="none" id="CourseRepository-to-PersistenceContext" style="stroke:#181818;stroke-width:1.0;"/><polygon fill="#181818" points="938.8,715.4937,948.6299,716.1052,943.4863,713.7506,945.8409,708.6071,938.8,715.4937" style="stroke:#181818;stroke-width:1.0;"/></g><!--link StudentRepository to PersistenceContext--><g id="link_StudentRepository_PersistenceContext"><path codeLine="75" d="M843,621.8137 C843,647.7637 843,682.8937 843,709.9737 " fill="none" id="StudentRepository-to-PersistenceContext" style="stroke:#181818;stroke-width:1.0;"/><polygon fill="#181818" points="843,715.2837,847,706.2837,843,710.2837,839,706.2837,843,715.2837" style="stroke:#181818;stroke-width:1.0;"/></g><!--link EnrollmentRepository to PersistenceContext--><g id="link_EnrollmentRepository_PersistenceContext"><path codeLine="76" d="M457.15,621.6137 C538.3,648.8337 649.86,686.2437 732.16,713.8437 " fill="none" id="EnrollmentRepository-to-PersistenceContext" style="stroke:#181818;stroke-width:1.0;"/><polygon fill="#181818" points="737.04,715.4737,729.7969,708.8,732.3038,713.8711,727.2327,716.378,737.04,715.4737" style="stroke:#181818;stroke-width:1.0;"/></g><!--link PersistenceContext to RepositoryFactory--><g id="link_PersistenceContext_RepositoryFactory"><path codeLine="77" d="M843,788.7337 C843,810.6437 843,839.3437 843,865.1037 " fill="none" id="PersistenceContext-to-RepositoryFactory" style="stroke:#181818;stroke-width:1.0;"/><polygon fill="#181818" points="843,870.2237,847,861.2237,843,865.2237,839,861.2237,843,870.2237" style="stroke:#181818;stroke-width:1.0;"/></g><!--link EnrollmentRepository to CourseEnrollment--><g id="link_EnrollmentRepository_CourseEnrollment"><path codeLine="78" d="M325.18,621.8137 C306.23,648.0837 280.49,683.7737 260.87,710.9937 " fill="none" id="EnrollmentRepository-to-CourseEnrollment" style="stroke:#181818;stroke-width:1.0;stroke-dasharray:7.0,7.0;"/><polygon fill="#181818" points="257.77,715.2837,266.2809,710.3273,260.6964,711.2295,259.7942,705.6451,257.77,715.2837" style="stroke:#181818;stroke-width:1.0;"/></g><!--SRC=[ZLHDRoCX3BtpAtoSQfjgjSUegbHbMwdI7bQj-WFeuAHM2Cm2oNvK_U-5m0maCEgU4jdFp_RpO-oMrC0DtqdTRr60m3NVItUlbNkYVmZVlZ97JYAi9BSMlXFVU30iu15_xT4wk5D6Ixb3vO0KhFJUM6HiuFsMRn06WzQdk2Eju8q1z4UQNFJyS0m3VEaDSeVTnH8EcaICsLVz-_R0IV8NYP7RTdtyNS8FikuwHc-gijnYfTMQpEuuGq7_pjxpd7mO9FNpOteE5_wZIUCkuXIFE6XBJfk_oxHxZaISTNlX2KhWqtae8d7gLeBl6b4shvY9PybLIQu74VeQKfjBI2Fbq8meGkyubNh43SU3RT1JXEwHv5WzGTEE_uMDj8MHKX4NuZRVfKjZJ_hDJ3sWiTuOg7eiHl-Pe-6M-6VgOaPPoNlBSsQPxtcVhdFIO1t31NbLSkhfSsE4Basp97pbZoXSopIfecMIKDGqpzawvVv-Rfychu_nMs8rvRYNz59Mx_BYz4L6v9gKY87AY9CAenjotshPiN6WIyckPUEKgnbRIeoabXyA1Rly3ai1pznsyWLRB6wQtmhM_804T7N-MMHzzrbeyzgVZ93JZ5NliEZVJgRxLJO9kVh5iVgiCy3cjMQmZPSTaFKpRf9UNTLAV000]--></g></svg>