<?xml version="1.0" encoding="us-ascii" standalone="no"?><svg xmlns="http://www.w3.org/2000/svg" xmlns:xlink="http://www.w3.org/1999/xlink" contentStyleType="text/css" height="955px" preserveAspectRatio="none" style="width:640px;height:955px;background:#FFFFFF;" version="1.1" viewBox="0 0 640 955" width="640px" zoomAndPan="magnify"><defs/><g><text fill="#000000" font-family="sans-serif" font-size="14" font-weight="bold" lengthAdjust="spacing" textLength="275" x="175.5" y="35.1074">Domain Model Extract of Class Shedule</text><!--cluster Teacher--><g id="cluster_Teacher"><path d="M8.5,65.6211 L86.5,65.6211 A3.75,3.75 0 0 1 89,68.1211 L96,110.2422 L139.5,110.2422 A2.5,2.5 0 0 1 142,112.7422 L142,479.6211 A2.5,2.5 0 0 1 139.5,482.1211 L8.5,482.1211 A2.5,2.5 0 0 1 6,479.6211 L6,68.1211 A2.5,2.5 0 0 1 8.5,65.6211 " fill="#D3D3D3" style="stroke:#000000;stroke-width:1.5;"/><line style="stroke:#000000;stroke-width:1.5;" x1="6" x2="96" y1="110.2422" y2="110.2422"/><text fill="#000000" font-family="sans-serif" font-size="14" font-weight="bold" lengthAdjust="spacing" textLength="57" x="20" y="92.7285">Teacher</text></g><!--cluster Course--><g id="cluster_Course"><path d="M168.5,258.6211 L240.5,258.6211 A3.75,3.75 0 0 1 243,261.1211 L250,303.2422 L630.5,303.2422 A2.5,2.5 0 0 1 633,305.7422 L633,946.1211 A2.5,2.5 0 0 1 630.5,948.6211 L168.5,948.6211 A2.5,2.5 0 0 1 166,946.1211 L166,261.1211 A2.5,2.5 0 0 1 168.5,258.6211 " fill="#D3D3D3" style="stroke:#000000;stroke-width:1.5;"/><line style="stroke:#000000;stroke-width:1.5;" x1="166" x2="250" y1="303.2422" y2="303.2422"/><text fill="#000000" font-family="sans-serif" font-size="14" font-weight="bold" lengthAdjust="spacing" textLength="51" x="180" y="285.7285">Course</text></g><!--cluster Manager--><g id="cluster_Manager"><path d="M283.5,83.6211 L366.5,83.6211 A3.75,3.75 0 0 1 369,86.1211 L376,128.2422 L392.5,128.2422 A2.5,2.5 0 0 1 395,130.7422 L395,211.1211 A2.5,2.5 0 0 1 392.5,213.6211 L283.5,213.6211 A2.5,2.5 0 0 1 281,211.1211 L281,86.1211 A2.5,2.5 0 0 1 283.5,83.6211 " fill="#D3D3D3" style="stroke:#000000;stroke-width:1.5;"/><line style="stroke:#000000;stroke-width:1.5;" x1="281" x2="376" y1="128.2422" y2="128.2422"/><text fill="#000000" font-family="sans-serif" font-size="14" font-weight="bold" lengthAdjust="spacing" textLength="62" x="295" y="110.7285">Manager</text></g><!--class Teacher--><g id="elem_Teacher"><rect codeLine="22" fill="#F1F1F1" height="92.582" id="Teacher" rx="2.5" ry="2.5" style="stroke:#181818;stroke-width:0.5;" width="79" x="40.5" y="122.6211"/><text fill="#000000" font-family="sans-serif" font-size="12" font-style="italic" lengthAdjust="spacing" textLength="35" x="62.5" y="150.5703">&#171;root&#187;</text><text fill="#000000" font-family="sans-serif" font-size="14" lengthAdjust="spacing" textLength="53" x="53.5" y="188.6895">Teacher</text><line style="stroke:#181818;stroke-width:0.5;" x1="41.5" x2="118.5" y1="207.2031" y2="207.2031"/></g><!--class Acronym--><g id="elem_Acronym"><rect codeLine="25" fill="#F1F1F1" height="92.582" id="Acronym" rx="2.5" ry="2.5" style="stroke:#181818;stroke-width:0.5;" width="103" x="22.5" y="373.1211"/><text fill="#000000" font-family="sans-serif" font-size="12" font-style="italic" lengthAdjust="spacing" textLength="81" x="33.5" y="401.0703">&#171;value object&#187;</text><text fill="#000000" font-family="sans-serif" font-size="14" lengthAdjust="spacing" textLength="55" x="46.5" y="439.1895">Acronym</text><line style="stroke:#181818;stroke-width:0.5;" x1="23.5" x2="124.5" y1="457.7031" y2="457.7031"/></g><!--class Course--><g id="elem_Course"><rect codeLine="30" fill="#F1F1F1" height="208.4453" id="Course" rx="2.5" ry="2.5" style="stroke:#181818;stroke-width:0.5;" width="179" x="248.5" y="315.6211"/><text fill="#000000" font-family="sans-serif" font-size="12" font-style="italic" lengthAdjust="spacing" textLength="35" x="320.5" y="343.5703">&#171;root&#187;</text><text fill="#000000" font-family="sans-serif" font-size="14" lengthAdjust="spacing" textLength="46" x="315" y="381.6895">Course</text><line style="stroke:#181818;stroke-width:0.5;" x1="249.5" x2="426.5" y1="400.2031" y2="400.2031"/><rect fill="none" height="6" style="stroke:#C82930;stroke-width:1.0;" width="6" x="256.5" y="422.0137"/><text fill="#000000" font-family="sans-serif" font-size="14" lengthAdjust="spacing" textLength="56" x="278.5" y="429.3105">courseID</text><rect fill="none" height="6" style="stroke:#C82930;stroke-width:1.0;" width="6" x="256.5" y="460.6348"/><text fill="#000000" font-family="sans-serif" font-size="14" lengthAdjust="spacing" textLength="130" x="278.5" y="467.9316">minEnrolledStudents</text><rect fill="none" height="6" style="stroke:#C82930;stroke-width:1.0;" width="6" x="256.5" y="499.2559"/><text fill="#000000" font-family="sans-serif" font-size="14" lengthAdjust="spacing" textLength="133" x="278.5" y="506.5527">maxEnrolledStudents</text></g><!--class State--><g id="elem_State"><rect codeLine="36" fill="#F1F1F1" height="92.582" id="State" rx="2.5" ry="2.5" style="stroke:#181818;stroke-width:0.5;" width="68" x="182" y="623.6211"/><text fill="#000000" font-family="sans-serif" font-size="12" font-style="italic" lengthAdjust="spacing" textLength="46" x="193" y="651.5703">&#171;enum&#187;</text><text fill="#000000" font-family="sans-serif" font-size="14" lengthAdjust="spacing" textLength="33" x="199.5" y="689.6895">State</text><line style="stroke:#181818;stroke-width:0.5;" x1="183" x2="249" y1="708.2031" y2="708.2031"/></g><g id="elem_GMN8"><path d="M182,816.6211 L182,933.0762 A0,0 0 0 0 182,933.0762 L290,933.0762 A0,0 0 0 0 290,933.0762 L290,826.6211 L280,816.6211 L220,816.6211 L216,716.7811 L212,816.6211 L182,816.6211 A0,0 0 0 0 182,816.6211 " fill="#A9A9A9" style="stroke:#181818;stroke-width:0.5;"/><path d="M280,816.6211 L280,826.6211 L290,826.6211 L280,816.6211 " fill="#A9A9A9" style="stroke:#181818;stroke-width:0.5;"/><text fill="#000000" font-family="sans-serif" font-size="13" lengthAdjust="spacing" textLength="28" x="198" y="845.6494">open</text><text fill="#000000" font-family="sans-serif" font-size="13" lengthAdjust="spacing" textLength="31" x="198" y="862.9404">close</text><text fill="#000000" font-family="sans-serif" font-size="13" lengthAdjust="spacing" textLength="31" x="198" y="880.2314">enroll</text><text fill="#000000" font-family="sans-serif" font-size="13" lengthAdjust="spacing" textLength="67" x="198" y="897.5225">in_progress</text><text fill="#000000" font-family="sans-serif" font-size="13" lengthAdjust="spacing" textLength="38" x="198" y="914.8135">closed</text></g><!--class title--><g id="elem_title"><rect codeLine="46" fill="#F1F1F1" height="92.582" id="title" rx="2.5" ry="2.5" style="stroke:#181818;stroke-width:0.5;" width="103" x="330.5" y="623.6211"/><text fill="#000000" font-family="sans-serif" font-size="12" font-style="italic" lengthAdjust="spacing" textLength="81" x="341.5" y="651.5703">&#171;value object&#187;</text><text fill="#000000" font-family="sans-serif" font-size="14" lengthAdjust="spacing" textLength="22" x="371" y="689.6895">title</text><line style="stroke:#181818;stroke-width:0.5;" x1="331.5" x2="432.5" y1="708.2031" y2="708.2031"/></g><!--class description--><g id="elem_description"><rect codeLine="47" fill="#F1F1F1" height="92.582" id="description" rx="2.5" ry="2.5" style="stroke:#181818;stroke-width:0.5;" width="103" x="513.5" y="623.6211"/><text fill="#000000" font-family="sans-serif" font-size="12" font-style="italic" lengthAdjust="spacing" textLength="81" x="524.5" y="651.5703">&#171;value object&#187;</text><text fill="#000000" font-family="sans-serif" font-size="14" lengthAdjust="spacing" textLength="69" x="530.5" y="689.6895">description</text><line style="stroke:#181818;stroke-width:0.5;" x1="514.5" x2="615.5" y1="708.2031" y2="708.2031"/></g><!--class Manager--><g id="elem_Manager"><rect fill="#F1F1F1" height="56.6211" id="Manager" rx="2.5" ry="2.5" style="stroke:#181818;stroke-width:0.5;" width="82" x="297" y="140.6211"/><text fill="#000000" font-family="sans-serif" font-size="14" lengthAdjust="spacing" textLength="56" x="310" y="170.7285">Manager</text><line style="stroke:#181818;stroke-width:0.5;" x1="298" x2="378" y1="189.2422" y2="189.2422"/></g><!--link Course to description--><g id="link_Course_description"><path codeLine="50" d="M427.72,419.6211 C491.17,419.6211 565,419.6211 565,419.6211 C565,419.6211 565,618.5911 565,618.5911 " fill="none" id="Course-to-description" style="stroke:#181818;stroke-width:1.0;"/><polygon fill="#181818" points="565,623.5911,569,614.5911,565,618.5911,561,614.5911,565,623.5911" style="stroke:#181818;stroke-width:1.0;"/><text fill="#000000" font-family="sans-serif" font-size="13" lengthAdjust="spacing" textLength="21" x="533" y="436.4894">has</text></g><!--link Course to title--><g id="link_Course_title"><path codeLine="51" d="M379,523.6811 C379,523.6811 379,618.3611 379,618.3611 " fill="none" id="Course-to-title" style="stroke:#181818;stroke-width:1.0;"/><polygon fill="#181818" points="379,623.3611,383,614.3611,379,618.3611,375,614.3611,379,623.3611" style="stroke:#181818;stroke-width:1.0;"/><text fill="#000000" font-family="sans-serif" font-size="13" lengthAdjust="spacing" textLength="21" x="347" y="557.0494">has</text></g><!--link Course to State--><g id="link_Course_State"><path codeLine="52" d="M248.47,495.6211 C229.59,495.6211 215.25,495.6211 215.25,495.6211 C215.25,495.6211 215.25,618.3611 215.25,618.3611 " fill="none" id="Course-to-State" style="stroke:#181818;stroke-width:1.0;"/><polygon fill="#181818" points="215.25,623.3611,219.25,614.3611,215.25,618.3611,211.25,614.3611,215.25,623.3611" style="stroke:#181818;stroke-width:1.0;"/><text fill="#000000" font-family="sans-serif" font-size="13" lengthAdjust="spacing" textLength="21" x="183.25" y="526.4094">has</text></g><!--link Teacher to Acronym--><g id="link_Teacher_Acronym"><path codeLine="54" d="M80,215.6511 C80,215.6511 80,367.9111 80,367.9111 " fill="none" id="Teacher-to-Acronym" style="stroke:#181818;stroke-width:1.0;"/><polygon fill="#181818" points="80,372.9111,84,363.9111,80,367.9111,76,363.9111,80,372.9111" style="stroke:#181818;stroke-width:1.0;"/><text fill="#000000" font-family="sans-serif" font-size="13" lengthAdjust="spacing" textLength="21" x="48" y="277.8094">has</text></g><!--link Teacher to Course--><g id="link_Teacher_Course"><path codeLine="56" d="M119.94,206.6211 C176.4,206.6211 272.75,206.6211 272.75,206.6211 C272.75,206.6211 272.75,310.6211 272.75,310.6211 " fill="none" id="Teacher-to-Course" style="stroke:#181818;stroke-width:1.0;"/><polygon fill="#181818" points="272.75,315.6211,276.75,306.6211,272.75,310.6211,268.75,306.6211,272.75,315.6211" style="stroke:#181818;stroke-width:1.0;"/><text fill="#000000" font-family="sans-serif" font-size="13" lengthAdjust="spacing" textLength="60" x="177.34" y="192.6494">teaches in</text><text fill="#000000" font-family="sans-serif" font-size="13" lengthAdjust="spacing" textLength="9" x="137.5956" y="196.3711">N</text><text fill="#000000" font-family="sans-serif" font-size="13" lengthAdjust="spacing" textLength="9" x="248.3918" y="294.4138">N</text></g><!--link Manager to Course--><g id="link_Manager_Course"><path codeLine="58" d="M338,197.8611 C338,197.8611 338,310.3811 338,310.3811 " fill="none" id="Manager-to-Course" style="stroke:#181818;stroke-width:1.0;stroke-dasharray:7.0,7.0;"/><polygon fill="#181818" points="338,315.3811,342,306.3811,338,310.3811,334,306.3811,338,315.3811" style="stroke:#181818;stroke-width:1.0;"/><text fill="#000000" font-family="sans-serif" font-size="13" lengthAdjust="spacing" textLength="36" x="291" y="240.1494">create</text></g><!--SRC=[TLB1Rjim3BthAuZii5ES1hjiGM2WJJgWX_QItGTLOcqjiYX8zD2WwBzFaktLGL8RiAJtdXyfabzRPXytgvMtqd7VsKfHjwBdFwXugOriWko4OCCMOR6dJXe7ZwJHmlqh1waOw0LsLiO8XnPrRt4XBBumC44mJSkWJKXUXfnWyXb-9cRgPdWy6kTb2WHUQcrS0-kR6UXIk8WUli_18DqnW-kRETe4wls3Qp4ObauXh6UaDGxvv14eS4ip8lcaDQUIxUP-JyHu9zKn-pgz8qi1ljp-oEzPrkee6uGt0UcvqE-_vRTmFydnWK-fbizajNWNeZKQGPcWB0xx3bDoEWenkVv2gTA5ihagTHu1s6u34TTrYPki9lvM1NAdBl5_fUtJTKipw_hjFGVyxxkZFaJyi1tEvwu0Ir05VzYFnywuUnV8MjG7xZKwZXCZNwym9J5qVGS7bfpzyo7x5yQb2ayJaIPfq0oXoQCh6sKfOjbXyIzRutxxG4t063z4-hmImzXkjt1HY4cH9ai5uqllh-cIsL2NQYpFSbdFVzf0A-CLIOdy6JaYvQw3HemzhQRUPjdKnqyaYwT5KgKld4VO01T5J2KIub6wrEnGZIjKLNsXLm5J9aBy0m00]--></g></svg>