<?xml version="1.0" encoding="UTF-8" standalone="no"?><svg xmlns="http://www.w3.org/2000/svg" xmlns:xlink="http://www.w3.org/1999/xlink" contentStyleType="text/css" height="491px" preserveAspectRatio="none" style="width:1639px;height:491px;background:#FFFFFF;" version="1.1" viewBox="0 0 1639 491" width="1639px" zoomAndPan="magnify"><defs/><g><text fill="#000000" font-family="sans-serif" font-size="14" font-weight="bold" lengthAdjust="spacing" textLength="165" x="736" y="27.9951">SD - Register Course</text><line style="stroke:#181818;stroke-width:0.5;stroke-dasharray:5.0,5.0;" x1="102" x2="102" y1="80.5781" y2="449.1094"/><line style="stroke:#181818;stroke-width:0.5;stroke-dasharray:5.0,5.0;" x1="756" x2="756" y1="80.5781" y2="449.1094"/><line style="stroke:#181818;stroke-width:0.5;stroke-dasharray:5.0,5.0;" x1="1009" x2="1009" y1="80.5781" y2="449.1094"/><line style="stroke:#181818;stroke-width:0.5;stroke-dasharray:5.0,5.0;" x1="1226" x2="1226" y1="80.5781" y2="449.1094"/><line style="stroke:#181818;stroke-width:0.5;stroke-dasharray:5.0,5.0;" x1="1435" x2="1435" y1="80.5781" y2="449.1094"/><line style="stroke:#181818;stroke-width:0.5;stroke-dasharray:5.0,5.0;" x1="1588" x2="1588" y1="80.5781" y2="449.1094"/><rect fill="#E2E2F0" height="37.2813" rx="2.5" ry="2.5" style="stroke:#181818;stroke-width:0.5;" width="194" x="5" y="42.2969"/><text fill="#000000" font-family="sans-serif" font-size="20" lengthAdjust="spacing" textLength="180" x="12" y="67.8613">:RegisterCourseUI</text><rect fill="#E2E2F0" height="37.2813" rx="2.5" ry="2.5" style="stroke:#181818;stroke-width:0.5;" width="194" x="5" y="448.1094"/><text fill="#000000" font-family="sans-serif" font-size="20" lengthAdjust="spacing" textLength="180" x="12" y="473.6738">:RegisterCourseUI</text><rect fill="#E2E2F0" height="37.2813" rx="2.5" ry="2.5" style="stroke:#181818;stroke-width:0.5;" width="272" x="620" y="42.2969"/><text fill="#000000" font-family="sans-serif" font-size="20" lengthAdjust="spacing" textLength="258" x="627" y="67.8613">:RegisterCourseController</text><rect fill="#E2E2F0" height="37.2813" rx="2.5" ry="2.5" style="stroke:#181818;stroke-width:0.5;" width="272" x="620" y="448.1094"/><text fill="#000000" font-family="sans-serif" font-size="20" lengthAdjust="spacing" textLength="258" x="627" y="473.6738">:RegisterCourseController</text><rect fill="#E2E2F0" height="37.2813" rx="2.5" ry="2.5" style="stroke:#181818;stroke-width:0.5;" width="214" x="902" y="42.2969"/><text fill="#000000" font-family="sans-serif" font-size="20" lengthAdjust="spacing" textLength="200" x="909" y="67.8613">:PercistenceContext</text><rect fill="#E2E2F0" height="37.2813" rx="2.5" ry="2.5" style="stroke:#181818;stroke-width:0.5;" width="214" x="902" y="448.1094"/><text fill="#000000" font-family="sans-serif" font-size="20" lengthAdjust="spacing" textLength="200" x="909" y="473.6738">:PercistenceContext</text><rect fill="#E2E2F0" height="37.2813" rx="2.5" ry="2.5" style="stroke:#181818;stroke-width:0.5;" width="201" x="1126" y="42.2969"/><text fill="#000000" font-family="sans-serif" font-size="20" lengthAdjust="spacing" textLength="187" x="1133" y="67.8613">:RepositoryFactory</text><rect fill="#E2E2F0" height="37.2813" rx="2.5" ry="2.5" style="stroke:#181818;stroke-width:0.5;" width="201" x="1126" y="448.1094"/><text fill="#000000" font-family="sans-serif" font-size="20" lengthAdjust="spacing" textLength="187" x="1133" y="473.6738">:RepositoryFactory</text><rect fill="#E2E2F0" height="37.2813" rx="2.5" ry="2.5" style="stroke:#181818;stroke-width:0.5;" width="196" x="1337" y="42.2969"/><text fill="#000000" font-family="sans-serif" font-size="20" lengthAdjust="spacing" textLength="182" x="1344" y="67.8613">:CourseRepository</text><rect fill="#E2E2F0" height="37.2813" rx="2.5" ry="2.5" style="stroke:#181818;stroke-width:0.5;" width="196" x="1337" y="448.1094"/><text fill="#000000" font-family="sans-serif" font-size="20" lengthAdjust="spacing" textLength="182" x="1344" y="473.6738">:CourseRepository</text><rect fill="#E2E2F0" height="37.2813" rx="2.5" ry="2.5" style="stroke:#181818;stroke-width:0.5;" width="90" x="1543" y="42.2969"/><text fill="#000000" font-family="sans-serif" font-size="20" lengthAdjust="spacing" textLength="76" x="1550" y="67.8613">:Course</text><rect fill="#E2E2F0" height="37.2813" rx="2.5" ry="2.5" style="stroke:#181818;stroke-width:0.5;" width="90" x="1543" y="448.1094"/><text fill="#000000" font-family="sans-serif" font-size="20" lengthAdjust="spacing" textLength="76" x="1550" y="473.6738">:Course</text><polygon fill="#181818" points="744,115.8594,754,119.8594,744,123.8594,748,119.8594" style="stroke:#181818;stroke-width:1.0;"/><line style="stroke:#181818;stroke-width:1.0;" x1="102" x2="750" y1="119.8594" y2="119.8594"/><text fill="#000000" font-family="sans-serif" font-size="20" font-weight="bold" lengthAdjust="spacing" textLength="14" x="109" y="113.1426">1</text><text fill="#000000" font-family="sans-serif" font-size="20" lengthAdjust="spacing" textLength="63" x="127" y="113.1426">create</text><polygon fill="#181818" points="997,153.1406,1007,157.1406,997,161.1406,1001,157.1406" style="stroke:#181818;stroke-width:1.0;"/><line style="stroke:#181818;stroke-width:1.0;" x1="756" x2="1003" y1="157.1406" y2="157.1406"/><text fill="#000000" font-family="sans-serif" font-size="20" font-weight="bold" lengthAdjust="spacing" textLength="14" x="763" y="150.4238">2</text><text fill="#000000" font-family="sans-serif" font-size="20" lengthAdjust="spacing" textLength="133" x="781" y="150.4238">repositories()</text><polygon fill="#181818" points="1214.5,190.4219,1224.5,194.4219,1214.5,198.4219,1218.5,194.4219" style="stroke:#181818;stroke-width:1.0;"/><line style="stroke:#181818;stroke-width:1.0;" x1="1009" x2="1220.5" y1="194.4219" y2="194.4219"/><text fill="#000000" font-family="sans-serif" font-size="20" font-weight="bold" lengthAdjust="spacing" textLength="14" x="1016" y="187.7051">3</text><text fill="#000000" font-family="sans-serif" font-size="20" lengthAdjust="spacing" textLength="63" x="1034" y="187.7051">create</text><polygon fill="#181818" points="1423,227.7031,1433,231.7031,1423,235.7031,1427,231.7031" style="stroke:#181818;stroke-width:1.0;"/><line style="stroke:#181818;stroke-width:1.0;" x1="1226.5" x2="1429" y1="231.7031" y2="231.7031"/><text fill="#000000" font-family="sans-serif" font-size="20" font-weight="bold" lengthAdjust="spacing" textLength="14" x="1233.5" y="224.9863">4</text><text fill="#000000" font-family="sans-serif" font-size="20" lengthAdjust="spacing" textLength="63" x="1251.5" y="224.9863">create</text><polygon fill="#181818" points="767,264.9844,757,268.9844,767,272.9844,763,268.9844" style="stroke:#181818;stroke-width:1.0;"/><line style="stroke:#181818;stroke-width:1.0;stroke-dasharray:2.0,2.0;" x1="761" x2="1008" y1="268.9844" y2="268.9844"/><text fill="#000000" font-family="sans-serif" font-size="20" font-weight="bold" lengthAdjust="spacing" textLength="14" x="773" y="262.2676">5</text><text fill="#000000" font-family="sans-serif" font-size="20" lengthAdjust="spacing" textLength="175" x="791" y="262.2676">CourseRepository</text><line style="stroke:#181818;stroke-width:1.0;" x1="102" x2="144" y1="306.2656" y2="306.2656"/><line style="stroke:#181818;stroke-width:1.0;" x1="144" x2="144" y1="306.2656" y2="319.2656"/><line style="stroke:#181818;stroke-width:1.0;" x1="103" x2="144" y1="319.2656" y2="319.2656"/><polygon fill="#181818" points="113,315.2656,103,319.2656,113,323.2656,109,319.2656" style="stroke:#181818;stroke-width:1.0;"/><text fill="#000000" font-family="sans-serif" font-size="20" font-weight="bold" lengthAdjust="spacing" textLength="14" x="109" y="299.5488">6</text><text fill="#000000" font-family="sans-serif" font-size="20" lengthAdjust="spacing" textLength="93" x="127" y="299.5488">doshow()</text><polygon fill="#181818" points="744,352.5469,754,356.5469,744,360.5469,748,356.5469" style="stroke:#181818;stroke-width:1.0;"/><line style="stroke:#181818;stroke-width:1.0;" x1="102" x2="750" y1="356.5469" y2="356.5469"/><text fill="#000000" font-family="sans-serif" font-size="20" font-weight="bold" lengthAdjust="spacing" textLength="14" x="109" y="349.8301">7</text><text fill="#000000" font-family="sans-serif" font-size="20" lengthAdjust="spacing" textLength="612" x="127" y="349.8301">registerCourse(title, minStudents, maxStudents, description)</text><polygon fill="#181818" points="1576,389.8281,1586,393.8281,1576,397.8281,1580,393.8281" style="stroke:#181818;stroke-width:1.0;"/><line style="stroke:#181818;stroke-width:1.0;" x1="756" x2="1582" y1="393.8281" y2="393.8281"/><text fill="#000000" font-family="sans-serif" font-size="20" font-weight="bold" lengthAdjust="spacing" textLength="14" x="763" y="387.1113">8</text><text fill="#000000" font-family="sans-serif" font-size="20" lengthAdjust="spacing" textLength="529" x="781" y="387.1113">create(title, minStudents, maxStudents, description)</text><polygon fill="#181818" points="1423,427.1094,1433,431.1094,1423,435.1094,1427,431.1094" style="stroke:#181818;stroke-width:1.0;"/><line style="stroke:#181818;stroke-width:1.0;" x1="756" x2="1429" y1="431.1094" y2="431.1094"/><text fill="#000000" font-family="sans-serif" font-size="20" font-weight="bold" lengthAdjust="spacing" textLength="14" x="763" y="424.3926">9</text><text fill="#000000" font-family="sans-serif" font-size="20" lengthAdjust="spacing" textLength="172" x="781" y="424.3926">save(newCourse)</text><!--SRC=[bP6nJWCn38RtF8NLXLQY537Um59KYGrHyG0XvxPMSqbm75fuUf8STuM2a9WIsvz__qxYdbpGh3lhpHvRQ76ZavMLTxAcTuIRQtMn4mcnMIo2rKvIPw-CxnOHNn8wW_EMz3RtAwMJU9UwPsGb91PXVGTpUCGjHK66fKySKQayJSXGo5emQOPoNtswdu2EaEXFQfdDiRSMkT96s9xn3yYcD6H_1SQZL3AO7xh1HnBFRojjob4ntfnX_TWJt5Cv_9NhJNrkcmZcjzLY0uPH2weIb6GmJHMfceHnEbF1b09lO8JplMGoDgOAD6gUMnic9cgWzN7d3rdsgmd-zfJJ-bENq95RIshHISo1Ffw25gDX2aBUpTJelLzliFHFbK6atohgLvmwFFI6Pke3]--></g></svg>