<?xml version="1.0" encoding="UTF-8" standalone="no"?><svg xmlns="http://www.w3.org/2000/svg" xmlns:xlink="http://www.w3.org/1999/xlink" contentStyleType="text/css" height="873px" preserveAspectRatio="none" style="width:739px;height:873px;background:#FFFFFF;" version="1.1" viewBox="0 0 739 873" width="739px" zoomAndPan="magnify"><defs/><g><text fill="#000000" font-family="sans-serif" font-size="14" font-weight="bold" lengthAdjust="spacing" textLength="255" x="235" y="22.9951">Class Diagram - Register Course</text><!--cluster presentation--><g id="cluster_presentation"><path d="M247.5,44.5137 L395.5,44.5137 A3.75,3.75 0 0 1 398,47.0137 L405,73.7949 L490.5,73.7949 A2.5,2.5 0 0 1 493,76.2949 L493,173.0137 A2.5,2.5 0 0 1 490.5,175.5137 L247.5,175.5137 A2.5,2.5 0 0 1 245,173.0137 L245,47.0137 A2.5,2.5 0 0 1 247.5,44.5137 " fill="none" style="stroke:#000000;stroke-width:1.5;"/><line style="stroke:#000000;stroke-width:1.5;" x1="245" x2="405" y1="73.7949" y2="73.7949"/><text fill="#000000" font-family="sans-serif" font-size="20" font-weight="bold" lengthAdjust="spacing" textLength="147" x="249" y="65.0781">presentation</text></g><!--cluster application--><g id="cluster_application"><path d="M8.5,199.5137 L136.5,199.5137 A3.75,3.75 0 0 1 139,202.0137 L146,228.7949 L729.5,228.7949 A2.5,2.5 0 0 1 732,231.2949 L732,375.0137 A2.5,2.5 0 0 1 729.5,377.5137 L8.5,377.5137 A2.5,2.5 0 0 1 6,375.0137 L6,202.0137 A2.5,2.5 0 0 1 8.5,199.5137 " fill="none" style="stroke:#000000;stroke-width:1.5;"/><line style="stroke:#000000;stroke-width:1.5;" x1="6" x2="146" y1="228.7949" y2="228.7949"/><text fill="#000000" font-family="sans-serif" font-size="20" font-weight="bold" lengthAdjust="spacing" textLength="127" x="10" y="220.0781">application</text></g><!--cluster domain--><g id="cluster_domain"><path d="M8.5,413.5137 L93.5,413.5137 A3.75,3.75 0 0 1 96,416.0137 L103,442.7949 L203.5,442.7949 A2.5,2.5 0 0 1 206,445.2949 L206,542.0137 A2.5,2.5 0 0 1 203.5,544.5137 L8.5,544.5137 A2.5,2.5 0 0 1 6,542.0137 L6,416.0137 A2.5,2.5 0 0 1 8.5,413.5137 " fill="none" style="stroke:#000000;stroke-width:1.5;"/><line style="stroke:#000000;stroke-width:1.5;" x1="6" x2="103" y1="442.7949" y2="442.7949"/><text fill="#000000" font-family="sans-serif" font-size="20" font-weight="bold" lengthAdjust="spacing" textLength="84" x="10" y="434.0781">domain</text></g><!--cluster persistence--><g id="cluster_persistence"><path d="M253.5,580.5137 L387.5,580.5137 A3.75,3.75 0 0 1 390,583.0137 L397,609.7949 L634.5,609.7949 A2.5,2.5 0 0 1 637,612.2949 L637,709.0137 A2.5,2.5 0 0 1 634.5,711.5137 L253.5,711.5137 A2.5,2.5 0 0 1 251,709.0137 L251,583.0137 A2.5,2.5 0 0 1 253.5,580.5137 " fill="none" style="stroke:#000000;stroke-width:1.5;"/><line style="stroke:#000000;stroke-width:1.5;" x1="251" x2="397" y1="609.7949" y2="609.7949"/><text fill="#000000" font-family="sans-serif" font-size="20" font-weight="bold" lengthAdjust="spacing" textLength="133" x="255" y="601.0781">persistence</text></g><!--cluster factory--><g id="cluster_factory"><path d="M196.5,735.5137 L279.5,735.5137 A3.75,3.75 0 0 1 282,738.0137 L289,764.7949 L691.5,764.7949 A2.5,2.5 0 0 1 694,767.2949 L694,864.0137 A2.5,2.5 0 0 1 691.5,866.5137 L196.5,866.5137 A2.5,2.5 0 0 1 194,864.0137 L194,738.0137 A2.5,2.5 0 0 1 196.5,735.5137 " fill="none" style="stroke:#000000;stroke-width:1.5;"/><line style="stroke:#000000;stroke-width:1.5;" x1="194" x2="289" y1="764.7949" y2="764.7949"/><text fill="#000000" font-family="sans-serif" font-size="20" font-weight="bold" lengthAdjust="spacing" textLength="82" x="198" y="756.0781">factory</text></g><!--cluster repositories--><g id="cluster_repositories"><path d="M232.5,401.5137 L371.5,401.5137 A3.75,3.75 0 0 1 374,404.0137 L381,430.7949 L655.5,430.7949 A2.5,2.5 0 0 1 658,433.2949 L658,554.0137 A2.5,2.5 0 0 1 655.5,556.5137 L232.5,556.5137 A2.5,2.5 0 0 1 230,554.0137 L230,404.0137 A2.5,2.5 0 0 1 232.5,401.5137 " fill="none" style="stroke:#000000;stroke-width:1.5;"/><line style="stroke:#000000;stroke-width:1.5;" x1="230" x2="381" y1="430.7949" y2="430.7949"/><text fill="#000000" font-family="sans-serif" font-size="20" font-weight="bold" lengthAdjust="spacing" textLength="138" x="234" y="422.0781">repositories</text></g><!--class RegisterCoursetUI--><g id="elem_RegisterCoursetUI"><rect codeLine="4" fill="#F1F1F1" height="73.2813" id="RegisterCoursetUI" rx="2.5" ry="2.5" style="stroke:#181818;stroke-width:0.5;" width="215" x="261.5" y="86.5137"/><ellipse cx="277.5" cy="103.5137" fill="#ADD1B2" rx="12" ry="12" style="stroke:#181818;stroke-width:1.0;"/><path d="M280.5625,110.5918 Q279.875,110.9512 279.125,111.123 Q278.375,111.2949 277.5469,111.2949 Q274.5938,111.2949 273.0313,109.3574 Q271.4844,107.4043 271.4844,103.7324 Q271.4844,100.0605 273.0313,98.123 Q274.5938,96.1699 277.5469,96.1699 Q278.375,96.1699 279.125,96.3418 Q279.8906,96.5137 280.5625,96.873 L280.5625,100.0762 Q279.8125,99.3887 279.1094,99.0762 Q278.4219,98.7637 277.6719,98.7637 Q276.0938,98.7637 275.2813,100.0137 Q274.4844,101.2637 274.4844,103.7324 Q274.4844,106.2012 275.2813,107.4512 Q276.0938,108.7012 277.6719,108.7012 Q278.4219,108.7012 279.1094,108.3887 Q279.8125,108.0762 280.5625,107.3887 L280.5625,110.5918 Z " fill="#000000"/><text fill="#000000" font-family="sans-serif" font-size="20" lengthAdjust="spacing" textLength="181" x="292.5" y="110.4375">RegisterCoursetUI</text><line style="stroke:#181818;stroke-width:0.5;" x1="262.5" x2="475.5" y1="120.5137" y2="120.5137"/><line style="stroke:#181818;stroke-width:0.5;" x1="262.5" x2="475.5" y1="128.5137" y2="128.5137"/><ellipse cx="272.5" cy="145.6543" fill="#84BE84" rx="3" ry="3" style="stroke:#038048;stroke-width:1.0;"/><text fill="#000000" font-family="sans-serif" font-size="20" lengthAdjust="spacing" textLength="96" x="282.5" y="151.0781">doShow()</text></g><!--class RegisterCourseController--><g id="elem_RegisterCourseController"><rect codeLine="10" fill="#F1F1F1" height="119.8438" id="RegisterCourseController" rx="2.5" ry="2.5" style="stroke:#181818;stroke-width:0.5;" width="694" x="22" y="241.5137"/><ellipse cx="239" cy="258.5137" fill="#ADD1B2" rx="12" ry="12" style="stroke:#181818;stroke-width:1.0;"/><path d="M242.0625,265.5918 Q241.375,265.9512 240.625,266.123 Q239.875,266.2949 239.0469,266.2949 Q236.0938,266.2949 234.5313,264.3574 Q232.9844,262.4043 232.9844,258.7324 Q232.9844,255.0605 234.5313,253.123 Q236.0938,251.1699 239.0469,251.1699 Q239.875,251.1699 240.625,251.3418 Q241.3906,251.5137 242.0625,251.873 L242.0625,255.0762 Q241.3125,254.3887 240.6094,254.0762 Q239.9219,253.7637 239.1719,253.7637 Q237.5938,253.7637 236.7813,255.0137 Q235.9844,256.2637 235.9844,258.7324 Q235.9844,261.2012 236.7813,262.4512 Q237.5938,263.7012 239.1719,263.7012 Q239.9219,263.7012 240.6094,263.3887 Q241.3125,263.0762 242.0625,262.3887 L242.0625,265.5918 Z " fill="#000000"/><text fill="#000000" font-family="sans-serif" font-size="20" lengthAdjust="spacing" textLength="251" x="261" y="265.4375">RegisterCourseController</text><line style="stroke:#181818;stroke-width:0.5;" x1="23" x2="715" y1="275.5137" y2="275.5137"/><rect fill="none" height="6" style="stroke:#C82930;stroke-width:1.0;" width="6" x="30" y="289.6543"/><text fill="#000000" font-family="sans-serif" font-size="20" lengthAdjust="spacing" textLength="360" x="43" y="298.0781">courseRepository: CourseRepository</text><line style="stroke:#181818;stroke-width:0.5;" x1="23" x2="715" y1="306.7949" y2="306.7949"/><ellipse cx="33" cy="323.9355" fill="#84BE84" rx="3" ry="3" style="stroke:#038048;stroke-width:1.0;"/><text fill="#000000" font-family="sans-serif" font-size="20" lengthAdjust="spacing" textLength="134" x="43" y="329.3594">create(): void</text><ellipse cx="33" cy="347.2168" fill="#84BE84" rx="3" ry="3" style="stroke:#038048;stroke-width:1.0;"/><text fill="#000000" font-family="sans-serif" font-size="20" lengthAdjust="spacing" textLength="667" x="43" y="352.6406">registerCourse(title, minStudents, maxStudents, description): void</text></g><!--class Course--><g id="elem_Course"><rect codeLine="19" fill="#F1F1F1" height="73.2813" id="Course" rx="2.5" ry="2.5" style="stroke:#181818;stroke-width:0.5;" width="169" x="21.5" y="455.5137"/><ellipse cx="67.2" cy="472.5137" fill="#ADD1B2" rx="12" ry="12" style="stroke:#181818;stroke-width:1.0;"/><path d="M70.2625,479.5918 Q69.575,479.9512 68.825,480.123 Q68.075,480.2949 67.2469,480.2949 Q64.2938,480.2949 62.7313,478.3574 Q61.1844,476.4043 61.1844,472.7324 Q61.1844,469.0605 62.7313,467.123 Q64.2938,465.1699 67.2469,465.1699 Q68.075,465.1699 68.825,465.3418 Q69.5906,465.5137 70.2625,465.873 L70.2625,469.0762 Q69.5125,468.3887 68.8094,468.0762 Q68.1219,467.7637 67.3719,467.7637 Q65.7938,467.7637 64.9813,469.0137 Q64.1844,470.2637 64.1844,472.7324 Q64.1844,475.2012 64.9813,476.4512 Q65.7938,477.7012 67.3719,477.7012 Q68.1219,477.7012 68.8094,477.3887 Q69.5125,477.0762 70.2625,476.3887 L70.2625,479.5918 Z " fill="#000000"/><text fill="#000000" font-family="sans-serif" font-size="20" lengthAdjust="spacing" textLength="69" x="88.8" y="479.4375">Course</text><line style="stroke:#181818;stroke-width:0.5;" x1="22.5" x2="189.5" y1="489.5137" y2="489.5137"/><line style="stroke:#181818;stroke-width:0.5;" x1="22.5" x2="189.5" y1="497.5137" y2="497.5137"/><ellipse cx="32.5" cy="514.6543" fill="#84BE84" rx="3" ry="3" style="stroke:#038048;stroke-width:1.0;"/><text fill="#000000" font-family="sans-serif" font-size="20" lengthAdjust="spacing" textLength="142" x="42.5" y="520.0781">getId(): String</text></g><!--class PersistenceContext--><g id="elem_PersistenceContext"><rect codeLine="26" fill="#F1F1F1" height="73.2813" id="PersistenceContext" rx="2.5" ry="2.5" style="stroke:#181818;stroke-width:0.5;" width="353" x="267.5" y="622.5137"/><ellipse cx="343.5" cy="639.5137" fill="#ADD1B2" rx="12" ry="12" style="stroke:#181818;stroke-width:1.0;"/><path d="M346.5625,646.5918 Q345.875,646.9512 345.125,647.123 Q344.375,647.2949 343.5469,647.2949 Q340.5938,647.2949 339.0313,645.3574 Q337.4844,643.4043 337.4844,639.7324 Q337.4844,636.0605 339.0313,634.123 Q340.5938,632.1699 343.5469,632.1699 Q344.375,632.1699 345.125,632.3418 Q345.8906,632.5137 346.5625,632.873 L346.5625,636.0762 Q345.8125,635.3887 345.1094,635.0762 Q344.4219,634.7637 343.6719,634.7637 Q342.0938,634.7637 341.2813,636.0137 Q340.4844,637.2637 340.4844,639.7324 Q340.4844,642.2012 341.2813,643.4512 Q342.0938,644.7012 343.6719,644.7012 Q344.4219,644.7012 345.1094,644.3887 Q345.8125,644.0762 346.5625,643.3887 L346.5625,646.5918 Z " fill="#000000"/><text fill="#000000" font-family="sans-serif" font-size="20" lengthAdjust="spacing" textLength="192" x="365.5" y="646.4375">PersistenceContext</text><line style="stroke:#181818;stroke-width:0.5;" x1="268.5" x2="619.5" y1="656.5137" y2="656.5137"/><line style="stroke:#181818;stroke-width:0.5;" x1="268.5" x2="619.5" y1="664.5137" y2="664.5137"/><ellipse cx="278.5" cy="681.6543" fill="#84BE84" rx="3" ry="3" style="stroke:#038048;stroke-width:1.0;"/><text fill="#000000" font-family="sans-serif" font-size="20" lengthAdjust="spacing" textLength="326" x="288.5" y="687.0781">repositories(): RepositoryFactory</text></g><!--class RepositoryFactory--><g id="elem_RepositoryFactory"><rect codeLine="32" fill="#F1F1F1" height="73.2813" id="RepositoryFactory" rx="2.5" ry="2.5" style="stroke:#181818;stroke-width:0.5;" width="469" x="209.5" y="777.5137"/><ellipse cx="349.5" cy="794.5137" fill="#ADD1B2" rx="12" ry="12" style="stroke:#181818;stroke-width:1.0;"/><path d="M352.5625,801.5918 Q351.875,801.9512 351.125,802.123 Q350.375,802.2949 349.5469,802.2949 Q346.5938,802.2949 345.0313,800.3574 Q343.4844,798.4043 343.4844,794.7324 Q343.4844,791.0605 345.0313,789.123 Q346.5938,787.1699 349.5469,787.1699 Q350.375,787.1699 351.125,787.3418 Q351.8906,787.5137 352.5625,787.873 L352.5625,791.0762 Q351.8125,790.3887 351.1094,790.0762 Q350.4219,789.7637 349.6719,789.7637 Q348.0938,789.7637 347.2813,791.0137 Q346.4844,792.2637 346.4844,794.7324 Q346.4844,797.2012 347.2813,798.4512 Q348.0938,799.7012 349.6719,799.7012 Q350.4219,799.7012 351.1094,799.3887 Q351.8125,799.0762 352.5625,798.3887 L352.5625,801.5918 Z " fill="#000000"/><text fill="#000000" font-family="sans-serif" font-size="20" lengthAdjust="spacing" textLength="180" x="371.5" y="801.4375">RepositoryFactory</text><line style="stroke:#181818;stroke-width:0.5;" x1="210.5" x2="677.5" y1="811.5137" y2="811.5137"/><line style="stroke:#181818;stroke-width:0.5;" x1="210.5" x2="677.5" y1="819.5137" y2="819.5137"/><ellipse cx="220.5" cy="836.6543" fill="#84BE84" rx="3" ry="3" style="stroke:#038048;stroke-width:1.0;"/><text fill="#000000" font-family="sans-serif" font-size="20" lengthAdjust="spacing" textLength="442" x="230.5" y="842.0781">createCourseRepository(): CourseRepository</text></g><!--class CourseRepository--><g id="elem_CourseRepository"><rect codeLine="40" fill="#F1F1F1" height="96.5625" id="CourseRepository" rx="2.5" ry="2.5" style="stroke:#181818;stroke-width:0.5;" width="395" x="246.5" y="443.5137"/><ellipse cx="351.5" cy="460.5137" fill="#B4A7E5" rx="12" ry="12" style="stroke:#181818;stroke-width:1.0;"/><path d="M346.6875,455.9668 L346.6875,453.4355 L355.3594,453.4355 L355.3594,455.9668 L352.4688,455.9668 L352.4688,465.4668 L355.3594,465.4668 L355.3594,468.0137 L346.6875,468.0137 L346.6875,465.4668 L349.5781,465.4668 L349.5781,455.9668 L346.6875,455.9668 Z " fill="#000000"/><text fill="#000000" font-family="sans-serif" font-size="20" font-style="italic" lengthAdjust="spacing" textLength="176" x="373.5" y="467.4375">CourseRepository</text><line style="stroke:#181818;stroke-width:0.5;" x1="247.5" x2="640.5" y1="477.5137" y2="477.5137"/><line style="stroke:#181818;stroke-width:0.5;" x1="247.5" x2="640.5" y1="485.5137" y2="485.5137"/><ellipse cx="257.5" cy="502.6543" fill="#84BE84" rx="3" ry="3" style="stroke:#038048;stroke-width:1.0;"/><text fill="#000000" font-family="sans-serif" font-size="20" lengthAdjust="spacing" textLength="368" x="267.5" y="508.0781">listAvailableCourses(): List&lt;Course&gt;</text><ellipse cx="257.5" cy="525.9355" fill="#84BE84" rx="3" ry="3" style="stroke:#038048;stroke-width:1.0;"/><text fill="#000000" font-family="sans-serif" font-size="20" lengthAdjust="spacing" textLength="365" x="267.5" y="531.3594">findCourse(courseId: String): Course</text></g><!--link RegisterCoursetUI to RegisterCourseController--><g id="link_RegisterCoursetUI_RegisterCourseController"><path codeLine="46" d="M369,159.7337 C369,181.6437 369,210.3437 369,236.1037 " fill="none" id="RegisterCoursetUI-to-RegisterCourseController" style="stroke:#181818;stroke-width:1.0;"/><polygon fill="#181818" points="369,241.2237,373,232.2237,369,236.2237,365,232.2237,369,241.2237" style="stroke:#181818;stroke-width:1.0;"/></g><!--link RegisterCourseController to CourseRepository--><g id="link_RegisterCourseController_CourseRepository"><path codeLine="47" d="M392.52,361.6437 C402.35,386.3337 413.67,414.7937 423.19,438.7137 " fill="none" id="RegisterCourseController-to-CourseRepository" style="stroke:#181818;stroke-width:1.0;"/><polygon fill="#181818" points="425.07,443.4337,425.4675,433.5928,423.2254,438.7864,418.0318,436.5442,425.07,443.4337" style="stroke:#181818;stroke-width:1.0;"/></g><!--link RegisterCourseController to Course--><g id="link_RegisterCourseController_Course"><path codeLine="48" d="M276.27,361.6137 C260.67,372.0137 244.76,382.9137 230,393.5137 C204.14,412.0937 176.19,433.9037 153.38,452.1837 " fill="none" id="RegisterCourseController-to-Course" style="stroke:#181818;stroke-width:1.0;"/><polygon fill="#181818" points="149.48,455.3237,159.0032,452.8121,153.3802,452.195,153.9973,446.5719,149.48,455.3237" style="stroke:#181818;stroke-width:1.0;"/></g><!--link CourseRepository to PersistenceContext--><g id="link_CourseRepository_PersistenceContext"><path codeLine="50" d="M444,540.7337 C444,564.9837 444,594.1337 444,617.3037 " fill="none" id="CourseRepository-to-PersistenceContext" style="stroke:#181818;stroke-width:1.0;"/><polygon fill="#181818" points="444,622.4537,448,613.4537,444,617.4537,440,613.4537,444,622.4537" style="stroke:#181818;stroke-width:1.0;"/></g><!--link PersistenceContext to RepositoryFactory--><g id="link_PersistenceContext_RepositoryFactory"><path codeLine="52" d="M444,695.8837 C444,718.7137 444,748.3437 444,772.0837 " fill="none" id="PersistenceContext-to-RepositoryFactory" style="stroke:#181818;stroke-width:1.0;"/><polygon fill="#181818" points="444,777.3637,448,768.3637,444,772.3637,440,768.3637,444,777.3637" style="stroke:#181818;stroke-width:1.0;"/></g><!--SRC=[ZPBBIaCn48RtUOeiM_I0k2nIa4gXu49wy05YCZqEJPEGfBKgVNTpQJotLbpEPEQVxv-9sw8opBATr7mBWWhOiBtqIwryZLz0x- -8Ho-1BYHpZZuXQq8nhUWQ6dGUB5telNL0Y65yongWne83vPb7hUWtePIdpbAVo_thAhrHUYDq_Qu_9jCGdSYfrM76IEH_oom2fjLI1eoiLl6KNuFH3hssdxCpNviXUIotm3nCfZDwq2XoplR49yduBTsXglrU14yk1EpO1W8SjsWYOglJCo7qZc6NFqiNxmtubOWCjRUecjJTRJTWNIHI73eQBsqsBW2ElkZPuXB1HTdMzPBnP7x0jydfte87BKKxBsoupJZbqePxKxfOGIuyOy2sOJYCciiu6Hm-7XXAzYRFKvEbvv1_oF4yLsvGYVF5ylLNeYpq5wuGZNzXLSslVYfozRV5hf7jVrGJCl8R7ySN9UJ2bJFhyAG_]--></g></svg>