<?xml version="1.0" encoding="UTF-8" standalone="no"?><svg xmlns="http://www.w3.org/2000/svg" xmlns:xlink="http://www.w3.org/1999/xlink" contentStyleType="text/css" height="1038px" preserveAspectRatio="none" style="width:871px;height:1038px;background:#FFFFFF;" version="1.1" viewBox="0 0 871 1038" width="871px" zoomAndPan="magnify"><defs/><g><text fill="#000000" font-family="sans-serif" font-size="14" font-weight="bold" lengthAdjust="spacing" textLength="307" x="275" y="32.9951">Domain Model Extract of Class Shedule</text><!--cluster Teacher--><g id="cluster_Teacher"><path d="M8.5,63.2969 L121.5,63.2969 A3.75,3.75 0 0 1 124,65.7969 L131,112.5781 L203.5,112.5781 A2.5,2.5 0 0 1 206,115.0781 L206,513.2969 A2.5,2.5 0 0 1 203.5,515.7969 L8.5,515.7969 A2.5,2.5 0 0 1 6,513.2969 L6,65.7969 A2.5,2.5 0 0 1 8.5,63.2969 " fill="#D3D3D3" style="stroke:#000000;stroke-width:1.5;"/><line style="stroke:#000000;stroke-width:1.5;" x1="6" x2="131" y1="112.5781" y2="112.5781"/><text fill="#000000" font-family="sans-serif" font-size="20" font-weight="bold" lengthAdjust="spacing" textLength="92" x="20" y="93.8613">Teacher</text></g><!--cluster Course--><g id="cluster_Course"><path d="M232.5,268.2969 L332.5,268.2969 A3.75,3.75 0 0 1 335,270.7969 L342,317.5781 L861.5,317.5781 A2.5,2.5 0 0 1 864,320.0781 L864,1028.7969 A2.5,2.5 0 0 1 861.5,1031.2969 L232.5,1031.2969 A2.5,2.5 0 0 1 230,1028.7969 L230,270.7969 A2.5,2.5 0 0 1 232.5,268.2969 " fill="#D3D3D3" style="stroke:#000000;stroke-width:1.5;"/><line style="stroke:#000000;stroke-width:1.5;" x1="230" x2="342" y1="317.5781" y2="317.5781"/><text fill="#000000" font-family="sans-serif" font-size="20" font-weight="bold" lengthAdjust="spacing" textLength="79" x="244" y="298.8613">Course</text></g><!--cluster Manager--><g id="cluster_Manager"><path d="M387.5,85.2969 L508.5,85.2969 A3.75,3.75 0 0 1 511,87.7969 L518,134.5781 L528.5,134.5781 A2.5,2.5 0 0 1 531,137.0781 L531,221.7969 A2.5,2.5 0 0 1 528.5,224.2969 L387.5,224.2969 A2.5,2.5 0 0 1 385,221.7969 L385,87.7969 A2.5,2.5 0 0 1 387.5,85.2969 " fill="#D3D3D3" style="stroke:#000000;stroke-width:1.5;"/><line style="stroke:#000000;stroke-width:1.5;" x1="385" x2="518" y1="134.5781" y2="134.5781"/><text fill="#000000" font-family="sans-serif" font-size="20" font-weight="bold" lengthAdjust="spacing" textLength="100" x="399" y="115.8613">Manager</text></g><!--class Teacher--><g id="elem_Teacher"><rect codeLine="22" fill="#F1F1F1" height="104.5625" id="Teacher" rx="2.5" ry="2.5" style="stroke:#181818;stroke-width:0.5;" width="106" x="68" y="125.2969"/><text fill="#000000" font-family="sans-serif" font-size="20" font-style="italic" lengthAdjust="spacing" textLength="64" x="89" y="158.8613">«root»</text><text fill="#000000" font-family="sans-serif" font-size="20" lengthAdjust="spacing" textLength="80" x="81" y="202.1426">Teacher</text><line style="stroke:#181818;stroke-width:0.5;" x1="69" x2="173" y1="221.8594" y2="221.8594"/></g><!--class Acronym--><g id="elem_Acronym"><rect codeLine="25" fill="#F1F1F1" height="104.5625" id="Acronym" rx="2.5" ry="2.5" style="stroke:#181818;stroke-width:0.5;" width="169" x="21.5" y="394.7969"/><text fill="#000000" font-family="sans-serif" font-size="20" font-style="italic" lengthAdjust="spacing" textLength="147" x="32.5" y="428.3613">«value object»</text><text fill="#000000" font-family="sans-serif" font-size="20" lengthAdjust="spacing" textLength="89" x="61.5" y="471.6426">Acronym</text><line style="stroke:#181818;stroke-width:0.5;" x1="22.5" x2="189.5" y1="491.3594" y2="491.3594"/></g><!--class Course--><g id="elem_Course"><rect codeLine="30" fill="#F1F1F1" height="234.4063" id="Course" rx="2.5" ry="2.5" style="stroke:#181818;stroke-width:0.5;" width="263" x="326.5" y="330.2969"/><text fill="#000000" font-family="sans-serif" font-size="20" font-style="italic" lengthAdjust="spacing" textLength="64" x="426" y="363.8613">«root»</text><text fill="#000000" font-family="sans-serif" font-size="20" lengthAdjust="spacing" textLength="69" x="423.5" y="407.1426">Course</text><line style="stroke:#181818;stroke-width:0.5;" x1="327.5" x2="588.5" y1="426.8594" y2="426.8594"/><rect fill="none" height="6" style="stroke:#C82930;stroke-width:1.0;" width="6" x="334.5" y="451"/><text fill="#000000" font-family="sans-serif" font-size="20" lengthAdjust="spacing" textLength="87" x="357.5" y="459.4238">courseID</text><rect fill="none" height="6" style="stroke:#C82930;stroke-width:1.0;" width="6" x="334.5" y="494.2813"/><text fill="#000000" font-family="sans-serif" font-size="20" lengthAdjust="spacing" textLength="212" x="357.5" y="502.7051">minEnrolledStudents</text><rect fill="none" height="6" style="stroke:#C82930;stroke-width:1.0;" width="6" x="334.5" y="537.5625"/><text fill="#000000" font-family="sans-serif" font-size="20" lengthAdjust="spacing" textLength="216" x="357.5" y="545.9863">maxEnrolledStudents</text></g><!--class State--><g id="elem_State"><rect codeLine="36" fill="#F1F1F1" height="104.5625" id="State" rx="2.5" ry="2.5" style="stroke:#181818;stroke-width:0.5;" width="104" x="246" y="664.2969"/><text fill="#000000" font-family="sans-serif" font-size="20" font-style="italic" lengthAdjust="spacing" textLength="82" x="257" y="697.8613">«enum»</text><text fill="#000000" font-family="sans-serif" font-size="20" lengthAdjust="spacing" textLength="53" x="271.5" y="741.1426">State</text><line style="stroke:#181818;stroke-width:0.5;" x1="247" x2="349" y1="760.8594" y2="760.8594"/></g><g id="elem_GMN8"><path d="M246,869.2969 L246,1015.7031 A0,0 0 0 0 246,1015.7031 L402,1015.7031 A0,0 0 0 0 402,1015.7031 L402,879.2969 L392,869.2969 L302,869.2969 L298,769.3869 L294,869.2969 L246,869.2969 A0,0 0 0 0 246,869.2969 " fill="#A9A9A9" style="stroke:#181818;stroke-width:0.5;"/><path d="M392,869.2969 L392,879.2969 L402,879.2969 L392,869.2969 " fill="#A9A9A9" style="stroke:#181818;stroke-width:0.5;"/><text fill="#000000" font-family="sans-serif" font-size="20" lengthAdjust="spacing" textLength="50" x="262" y="902.8613">open</text><text fill="#000000" font-family="sans-serif" font-size="20" lengthAdjust="spacing" textLength="51" x="262" y="926.1426">close</text><text fill="#000000" font-family="sans-serif" font-size="20" lengthAdjust="spacing" textLength="57" x="262" y="949.4238">enroll</text><text fill="#000000" font-family="sans-serif" font-size="20" lengthAdjust="spacing" textLength="115" x="262" y="972.7051">in_progress</text><text fill="#000000" font-family="sans-serif" font-size="20" lengthAdjust="spacing" textLength="64" x="262" y="995.9863">closed</text></g><!--class title--><g id="elem_title"><rect codeLine="46" fill="#F1F1F1" height="104.5625" id="title" rx="2.5" ry="2.5" style="stroke:#181818;stroke-width:0.5;" width="169" x="430.5" y="664.2969"/><text fill="#000000" font-family="sans-serif" font-size="20" font-style="italic" lengthAdjust="spacing" textLength="147" x="441.5" y="697.8613">«value object»</text><text fill="#000000" font-family="sans-serif" font-size="20" lengthAdjust="spacing" textLength="40" x="495" y="741.1426">title</text><line style="stroke:#181818;stroke-width:0.5;" x1="431.5" x2="598.5" y1="760.8594" y2="760.8594"/></g><!--class description--><g id="elem_description"><rect codeLine="47" fill="#F1F1F1" height="104.5625" id="description" rx="2.5" ry="2.5" style="stroke:#181818;stroke-width:0.5;" width="169" x="679.5" y="664.2969"/><text fill="#000000" font-family="sans-serif" font-size="20" font-style="italic" lengthAdjust="spacing" textLength="147" x="690.5" y="697.8613">«value object»</text><text fill="#000000" font-family="sans-serif" font-size="20" lengthAdjust="spacing" textLength="112" x="708" y="741.1426">description</text><line style="stroke:#181818;stroke-width:0.5;" x1="680.5" x2="847.5" y1="760.8594" y2="760.8594"/></g><!--class Manager.Manager--><g id="elem_Manager.Manager"><rect fill="#F1F1F1" height="61.2813" id="Manager.Manager" rx="2.5" ry="2.5" style="stroke:#181818;stroke-width:0.5;" width="113" x="401.5" y="147.2969"/><text fill="#000000" font-family="sans-serif" font-size="20" lengthAdjust="spacing" textLength="87" x="414.5" y="180.8613">Manager</text><line style="stroke:#181818;stroke-width:0.5;" x1="402.5" x2="513.5" y1="200.5781" y2="200.5781"/></g><!--link Course to description--><g id="link_Course_description"><path codeLine="50" d="M589.55,447.2969 C672.48,447.2969 764,447.2969 764,447.2969 C764,447.2969 764,659.1969 764,659.1969 " fill="none" id="Course-to-description" style="stroke:#181818;stroke-width:1.0;"/><polygon fill="#181818" points="764,664.1969,768,655.1969,764,659.1969,760,655.1969,764,664.1969" style="stroke:#181818;stroke-width:1.0;"/><text fill="#000000" font-family="sans-serif" font-size="20" lengthAdjust="spacing" textLength="35" x="718" y="450.5813">has</text></g><!--link Course to title--><g id="link_Course_title"><path codeLine="51" d="M510,564.3269 C510,564.3269 510,659.0469 510,659.0469 " fill="none" id="Course-to-title" style="stroke:#181818;stroke-width:1.0;"/><polygon fill="#181818" points="510,664.0469,514,655.0469,510,659.0469,506,655.0469,510,664.0469" style="stroke:#181818;stroke-width:1.0;"/><text fill="#000000" font-family="sans-serif" font-size="20" lengthAdjust="spacing" textLength="35" x="464" y="596.2513">has</text></g><!--link Course to State--><g id="link_Course_State"><path codeLine="52" d="M338.25,564.3269 C338.25,564.3269 338.25,659.0469 338.25,659.0469 " fill="none" id="Course-to-State" style="stroke:#181818;stroke-width:1.0;"/><polygon fill="#181818" points="338.25,664.0469,342.25,655.0469,338.25,659.0469,334.25,655.0469,338.25,664.0469" style="stroke:#181818;stroke-width:1.0;"/><text fill="#000000" font-family="sans-serif" font-size="20" lengthAdjust="spacing" textLength="35" x="292.25" y="596.2513">has</text></g><!--link Teacher to Acronym--><g id="link_Teacher_Acronym"><path codeLine="54" d="M121,230.3969 C121,230.3969 121,389.3669 121,389.3669 " fill="none" id="Teacher-to-Acronym" style="stroke:#181818;stroke-width:1.0;"/><polygon fill="#181818" points="121,394.3669,125,385.3669,121,389.3669,117,385.3669,121,394.3669" style="stroke:#181818;stroke-width:1.0;"/><text fill="#000000" font-family="sans-serif" font-size="20" lengthAdjust="spacing" textLength="35" x="75" y="294.4513">has</text></g><!--link Teacher to Course--><g id="link_Teacher_Course"><path codeLine="56" d="M174.03,219.2969 C245.53,219.2969 364,219.2969 364,219.2969 C364,219.2969 364,325.2869 364,325.2869 " fill="none" id="Teacher-to-Course" style="stroke:#181818;stroke-width:1.0;"/><polygon fill="#181818" points="364,330.2869,368,321.2869,364,325.2869,360,321.2869,364,330.2869" style="stroke:#181818;stroke-width:1.0;"/><text fill="#000000" font-family="sans-serif" font-size="20" lengthAdjust="spacing" textLength="103" x="208.01" y="248.8613">teaches in</text><text fill="#000000" font-family="sans-serif" font-size="20" lengthAdjust="spacing" textLength="15" x="192.185" y="207.2154">N</text><text fill="#000000" font-family="sans-serif" font-size="20" lengthAdjust="spacing" textLength="15" x="332.2055" y="307.4071">N</text></g><!--link Manager.Manager to Course--><g id="link_Manager.Manager_Course"><path codeLine="58" d="M458,208.4469 C458,208.4469 458,324.9869 458,324.9869 " fill="none" id="Manager.Manager-to-Course" style="stroke:#181818;stroke-width:1.0;stroke-dasharray:7.0,7.0;"/><polygon fill="#181818" points="458,329.9869,462,320.9869,458,324.9869,454,320.9869,458,329.9869" style="stroke:#181818;stroke-width:1.0;"/><text fill="#000000" font-family="sans-serif" font-size="20" lengthAdjust="spacing" textLength="63" x="384" y="251.2813">create</text></g><!--SRC=[TLB1Zjem4BtxAqRqq1C1sakBKAGjRAKzx5xelJBsa7XnF94zgPQkzjzhEqat29P8n7xlvStuZSF9k5PwsLXI9zIWyIWxop_9yTxyHVYo59zhvZQi5ulMIiTTOmj5pO8EpwXuhesiujT2i66BCDjH8us3Hz9euVw5lLGCT8IjbI70laRTMPm9YqS69l2cgXcqyT7Ba1DCRO8Fn4pD10zZcz1AhOshOBMSW2wM2zZ2jodefJibSBMSefMdhdrmDNh3qYc4rOIqnY6VMmJoNDE4Y3xndLf9TbE_9sBy8TKf-Jgz9KiUFjrzJyz5r-eaAuHN0V5tfTzzJK_cSl9yZbaUo6hn9aHjD88oNbdirmt6vdGGOdJzXLB50oLpbNCU0DXiF16NPQuRhKR-JdbovoRoVwJjud7pCClozIqL_E-xfSu7VBVjzvUk07DG6N_O3Tl6k7ldoLhKU-uqEWuZ8rzkCBanT5q3UvQS_DCc-MV6nOJ76n5lKg_fIrEBBY-KfO1vXTa_ButxtNggF8RmBjANIVJNThE1go16HRnPofisp_wMBfhrkHH3FFDvEVre3RKCDoIvyaVaWEIpzXenpBGOPvjaunm_aCoUPb4L_-6omXeuAqACI8X7wUAmVJ6yeIZAAxto63iHuXy0]--></g></svg>