<?xml version="1.0" encoding="UTF-8" standalone="no"?><svg xmlns="http://www.w3.org/2000/svg" xmlns:xlink="http://www.w3.org/1999/xlink" contentStyleType="text/css" height="779px" preserveAspectRatio="none" style="width:2795px;height:779px;background:#FFFFFF;" version="1.1" viewBox="0 0 2795 779" width="2795px" zoomAndPan="magnify"><defs/><g><!--cluster infrastructure--><g id="cluster_infrastructure"><path d="M8.5,365.2168 L169.5,365.2168 A3.75,3.75 0 0 1 172,367.7168 L179,394.498 L437.5,394.498 A2.5,2.5 0 0 1 440,396.998 L440,567.7168 A2.5,2.5 0 0 1 437.5,570.2168 L8.5,570.2168 A2.5,2.5 0 0 1 6,567.7168 L6,367.7168 A2.5,2.5 0 0 1 8.5,365.2168 " fill="none" style="stroke:#000000;stroke-width:1.5;"/><line style="stroke:#000000;stroke-width:1.5;" x1="6" x2="179" y1="394.498" y2="394.498"/><text fill="#000000" font-family="sans-serif" font-size="20" font-weight="bold" lengthAdjust="spacing" textLength="160" x="10" y="385.7813">infrastructure</text></g><!--cluster persistence--><g id="cluster_persistence"><path d="M32.5,415.2168 L166.5,415.2168 A3.75,3.75 0 0 1 169,417.7168 L176,444.498 L413.5,444.498 A2.5,2.5 0 0 1 416,446.998 L416,543.7168 A2.5,2.5 0 0 1 413.5,546.2168 L32.5,546.2168 A2.5,2.5 0 0 1 30,543.7168 L30,417.7168 A2.5,2.5 0 0 1 32.5,415.2168 " fill="none" style="stroke:#000000;stroke-width:1.5;"/><line style="stroke:#000000;stroke-width:1.5;" x1="30" x2="176" y1="444.498" y2="444.498"/><text fill="#000000" font-family="sans-serif" font-size="20" font-weight="bold" lengthAdjust="spacing" textLength="133" x="34" y="435.7813">persistence</text></g><!--cluster repositories--><g id="cluster_repositories"><path d="M513.5,415.2168 L652.5,415.2168 A3.75,3.75 0 0 1 655,417.7168 L662,444.498 L2785.5,444.498 A2.5,2.5 0 0 1 2788,446.998 L2788,543.7168 A2.5,2.5 0 0 1 2785.5,546.2168 L513.5,546.2168 A2.5,2.5 0 0 1 511,543.7168 L511,417.7168 A2.5,2.5 0 0 1 513.5,415.2168 " fill="none" style="stroke:#000000;stroke-width:1.5;"/><line style="stroke:#000000;stroke-width:1.5;" x1="511" x2="662" y1="444.498" y2="444.498"/><text fill="#000000" font-family="sans-serif" font-size="20" font-weight="bold" lengthAdjust="spacing" textLength="138" x="515" y="435.7813">repositories</text></g><!--cluster domain--><g id="cluster_domain"><path d="M1397.5,617.7168 L1482.5,617.7168 A3.75,3.75 0 0 1 1485,620.2168 L1492,646.998 L2576.5,646.998 A2.5,2.5 0 0 1 2579,649.498 L2579,746.2168 A2.5,2.5 0 0 1 2576.5,748.7168 L1397.5,748.7168 A2.5,2.5 0 0 1 1395,746.2168 L1395,620.2168 A2.5,2.5 0 0 1 1397.5,617.7168 " fill="none" style="stroke:#000000;stroke-width:1.5;"/><line style="stroke:#000000;stroke-width:1.5;" x1="1395" x2="1492" y1="646.998" y2="646.998"/><text fill="#000000" font-family="sans-serif" font-size="20" font-weight="bold" lengthAdjust="spacing" textLength="84" x="1399" y="638.2813">domain</text></g><!--cluster presentation--><g id="cluster_presentation"><path d="M1084.5,7.2168 L1232.5,7.2168 A3.75,3.75 0 0 1 1235,9.7168 L1242,36.498 L1573.5,36.498 A2.5,2.5 0 0 1 1576,38.998 L1576,159.7168 A2.5,2.5 0 0 1 1573.5,162.2168 L1084.5,162.2168 A2.5,2.5 0 0 1 1082,159.7168 L1082,9.7168 A2.5,2.5 0 0 1 1084.5,7.2168 " fill="none" style="stroke:#000000;stroke-width:1.5;"/><line style="stroke:#000000;stroke-width:1.5;" x1="1082" x2="1242" y1="36.498" y2="36.498"/><text fill="#000000" font-family="sans-serif" font-size="20" font-weight="bold" lengthAdjust="spacing" textLength="147" x="1086" y="27.7813">presentation</text></g><!--cluster application--><g id="cluster_application"><path d="M1082.5,186.2168 L1210.5,186.2168 A3.75,3.75 0 0 1 1213,188.7168 L1220,215.498 L1575.5,215.498 A2.5,2.5 0 0 1 1578,217.998 L1578,338.7168 A2.5,2.5 0 0 1 1575.5,341.2168 L1082.5,341.2168 A2.5,2.5 0 0 1 1080,338.7168 L1080,188.7168 A2.5,2.5 0 0 1 1082.5,186.2168 " fill="none" style="stroke:#000000;stroke-width:1.5;"/><line style="stroke:#000000;stroke-width:1.5;" x1="1080" x2="1220" y1="215.498" y2="215.498"/><text fill="#000000" font-family="sans-serif" font-size="20" font-weight="bold" lengthAdjust="spacing" textLength="127" x="1084" y="206.7813">application</text></g><!--cluster factory--><g id="cluster_factory"><path d="M71.5,594.2168 L154.5,594.2168 A3.75,3.75 0 0 1 157,596.7168 L164,623.498 L750.5,623.498 A2.5,2.5 0 0 1 753,625.998 L753,769.7168 A2.5,2.5 0 0 1 750.5,772.2168 L71.5,772.2168 A2.5,2.5 0 0 1 69,769.7168 L69,596.7168 A2.5,2.5 0 0 1 71.5,594.2168 " fill="none" style="stroke:#000000;stroke-width:1.5;"/><line style="stroke:#000000;stroke-width:1.5;" x1="69" x2="164" y1="623.498" y2="623.498"/><text fill="#000000" font-family="sans-serif" font-size="20" font-weight="bold" lengthAdjust="spacing" textLength="82" x="73" y="614.7813">factory</text></g><!--class PersistenceContext--><g id="elem_PersistenceContext"><rect codeLine="4" fill="#F1F1F1" height="73.2813" id="PersistenceContext" rx="2.5" ry="2.5" style="stroke:#181818;stroke-width:0.5;" width="353" x="46.5" y="457.2168"/><ellipse cx="122.5" cy="474.2168" fill="#ADD1B2" rx="12" ry="12" style="stroke:#181818;stroke-width:1.0;"/><path d="M125.5625,481.2949 Q124.875,481.6543 124.125,481.8262 Q123.375,481.998 122.5469,481.998 Q119.5938,481.998 118.0313,480.0605 Q116.4844,478.1074 116.4844,474.4355 Q116.4844,470.7637 118.0313,468.8262 Q119.5938,466.873 122.5469,466.873 Q123.375,466.873 124.125,467.0449 Q124.8906,467.2168 125.5625,467.5762 L125.5625,470.7793 Q124.8125,470.0918 124.1094,469.7793 Q123.4219,469.4668 122.6719,469.4668 Q121.0938,469.4668 120.2813,470.7168 Q119.4844,471.9668 119.4844,474.4355 Q119.4844,476.9043 120.2813,478.1543 Q121.0938,479.4043 122.6719,479.4043 Q123.4219,479.4043 124.1094,479.0918 Q124.8125,478.7793 125.5625,478.0918 L125.5625,481.2949 Z " fill="#000000"/><text fill="#000000" font-family="sans-serif" font-size="20" lengthAdjust="spacing" textLength="192" x="144.5" y="481.1406">PersistenceContext</text><line style="stroke:#181818;stroke-width:0.5;" x1="47.5" x2="398.5" y1="491.2168" y2="491.2168"/><line style="stroke:#181818;stroke-width:0.5;" x1="47.5" x2="398.5" y1="499.2168" y2="499.2168"/><ellipse cx="57.5" cy="516.3574" fill="#84BE84" rx="3" ry="3" style="stroke:#038048;stroke-width:1.0;"/><text fill="#000000" font-family="sans-serif" font-size="20" lengthAdjust="spacing" textLength="326" x="67.5" y="521.7813">repositories(): RepositoryFactory</text></g><!--class StudentRepository--><g id="elem_StudentRepository"><rect codeLine="11" fill="#F1F1F1" height="73.2813" id="StudentRepository" rx="2.5" ry="2.5" style="stroke:#181818;stroke-width:0.5;" width="389" x="2382.5" y="457.2168"/><ellipse cx="2479" cy="474.2168" fill="#B4A7E5" rx="12" ry="12" style="stroke:#181818;stroke-width:1.0;"/><path d="M2474.1875,469.6699 L2474.1875,467.1387 L2482.8594,467.1387 L2482.8594,469.6699 L2479.9688,469.6699 L2479.9688,479.1699 L2482.8594,479.1699 L2482.8594,481.7168 L2474.1875,481.7168 L2474.1875,479.1699 L2477.0781,479.1699 L2477.0781,469.6699 L2474.1875,469.6699 Z " fill="#000000"/><text fill="#000000" font-family="sans-serif" font-size="20" font-style="italic" lengthAdjust="spacing" textLength="187" x="2501" y="481.1406">StudentRepository</text><line style="stroke:#181818;stroke-width:0.5;" x1="2383.5" x2="2770.5" y1="491.2168" y2="491.2168"/><line style="stroke:#181818;stroke-width:0.5;" x1="2383.5" x2="2770.5" y1="499.2168" y2="499.2168"/><ellipse cx="2393.5" cy="516.3574" fill="#84BE84" rx="3" ry="3" style="stroke:#038048;stroke-width:1.0;"/><text fill="#000000" font-family="sans-serif" font-size="20" lengthAdjust="spacing" textLength="362" x="2403.5" y="521.7813">findById(studentId: String): Student</text></g><!--class CourseRepository--><g id="elem_CourseRepository"><rect codeLine="15" fill="#F1F1F1" height="73.2813" id="CourseRepository" rx="2.5" ry="2.5" style="stroke:#181818;stroke-width:0.5;" width="367" x="1980.5" y="457.2168"/><ellipse cx="2071.5" cy="474.2168" fill="#B4A7E5" rx="12" ry="12" style="stroke:#181818;stroke-width:1.0;"/><path d="M2066.6875,469.6699 L2066.6875,467.1387 L2075.3594,467.1387 L2075.3594,469.6699 L2072.4688,469.6699 L2072.4688,479.1699 L2075.3594,479.1699 L2075.3594,481.7168 L2066.6875,481.7168 L2066.6875,479.1699 L2069.5781,479.1699 L2069.5781,469.6699 L2066.6875,469.6699 Z " fill="#000000"/><text fill="#000000" font-family="sans-serif" font-size="20" font-style="italic" lengthAdjust="spacing" textLength="176" x="2093.5" y="481.1406">CourseRepository</text><line style="stroke:#181818;stroke-width:0.5;" x1="1981.5" x2="2346.5" y1="491.2168" y2="491.2168"/><line style="stroke:#181818;stroke-width:0.5;" x1="1981.5" x2="2346.5" y1="499.2168" y2="499.2168"/><ellipse cx="1991.5" cy="516.3574" fill="#84BE84" rx="3" ry="3" style="stroke:#038048;stroke-width:1.0;"/><text fill="#000000" font-family="sans-serif" font-size="20" lengthAdjust="spacing" textLength="340" x="2001.5" y="521.7813">findById(courseId: String): Course</text></g><!--class ExamRepository--><g id="elem_ExamRepository"><rect codeLine="19" fill="#F1F1F1" height="73.2813" id="ExamRepository" rx="2.5" ry="2.5" style="stroke:#181818;stroke-width:0.5;" width="504" x="1441" y="457.2168"/><ellipse cx="1606.5" cy="474.2168" fill="#B4A7E5" rx="12" ry="12" style="stroke:#181818;stroke-width:1.0;"/><path d="M1601.6875,469.6699 L1601.6875,467.1387 L1610.3594,467.1387 L1610.3594,469.6699 L1607.4688,469.6699 L1607.4688,479.1699 L1610.3594,479.1699 L1610.3594,481.7168 L1601.6875,481.7168 L1601.6875,479.1699 L1604.5781,479.1699 L1604.5781,469.6699 L1601.6875,469.6699 Z " fill="#000000"/><text fill="#000000" font-family="sans-serif" font-size="20" font-style="italic" lengthAdjust="spacing" textLength="164" x="1628.5" y="481.1406">ExamRepository</text><line style="stroke:#181818;stroke-width:0.5;" x1="1442" x2="1944" y1="491.2168" y2="491.2168"/><line style="stroke:#181818;stroke-width:0.5;" x1="1442" x2="1944" y1="499.2168" y2="499.2168"/><ellipse cx="1452" cy="516.3574" fill="#84BE84" rx="3" ry="3" style="stroke:#038048;stroke-width:1.0;"/><text fill="#000000" font-family="sans-serif" font-size="20" lengthAdjust="spacing" textLength="477" x="1462" y="521.7813">findByCourse(course: Course): Iterable&lt;Exam&gt;</text></g><!--class CourseEnrollmentRepository--><g id="elem_CourseEnrollmentRepository"><rect codeLine="23" fill="#F1F1F1" height="73.2813" id="CourseEnrollmentRepository" rx="2.5" ry="2.5" style="stroke:#181818;stroke-width:0.5;" width="879" x="526.5" y="457.2168"/><ellipse cx="818" cy="474.2168" fill="#B4A7E5" rx="12" ry="12" style="stroke:#181818;stroke-width:1.0;"/><path d="M813.1875,469.6699 L813.1875,467.1387 L821.8594,467.1387 L821.8594,469.6699 L818.9688,469.6699 L818.9688,479.1699 L821.8594,479.1699 L821.8594,481.7168 L813.1875,481.7168 L813.1875,479.1699 L816.0781,479.1699 L816.0781,469.6699 L813.1875,469.6699 Z " fill="#000000"/><text fill="#000000" font-family="sans-serif" font-size="20" font-style="italic" lengthAdjust="spacing" textLength="287" x="840" y="481.1406">CourseEnrollmentRepository</text><line style="stroke:#181818;stroke-width:0.5;" x1="527.5" x2="1404.5" y1="491.2168" y2="491.2168"/><line style="stroke:#181818;stroke-width:0.5;" x1="527.5" x2="1404.5" y1="499.2168" y2="499.2168"/><ellipse cx="537.5" cy="516.3574" fill="#84BE84" rx="3" ry="3" style="stroke:#038048;stroke-width:1.0;"/><text fill="#000000" font-family="sans-serif" font-size="20" lengthAdjust="spacing" textLength="852" x="547.5" y="521.7813">findAcceptedApplicationByStudent(student: Student): Iterable&lt;CourseEnrollments&gt;</text></g><!--class Student--><g id="elem_Student"><rect codeLine="29" fill="#F1F1F1" height="73.2813" id="Student" rx="2.5" ry="2.5" style="stroke:#181818;stroke-width:0.5;" width="389" x="2173.5" y="659.7168"/><ellipse cx="2323.5" cy="676.7168" fill="#ADD1B2" rx="12" ry="12" style="stroke:#181818;stroke-width:1.0;"/><path d="M2326.5625,683.7949 Q2325.875,684.1543 2325.125,684.3262 Q2324.375,684.498 2323.5469,684.498 Q2320.5938,684.498 2319.0313,682.5605 Q2317.4844,680.6074 2317.4844,676.9355 Q2317.4844,673.2637 2319.0313,671.3262 Q2320.5938,669.373 2323.5469,669.373 Q2324.375,669.373 2325.125,669.5449 Q2325.8906,669.7168 2326.5625,670.0762 L2326.5625,673.2793 Q2325.8125,672.5918 2325.1094,672.2793 Q2324.4219,671.9668 2323.6719,671.9668 Q2322.0938,671.9668 2321.2813,673.2168 Q2320.4844,674.4668 2320.4844,676.9355 Q2320.4844,679.4043 2321.2813,680.6543 Q2322.0938,681.9043 2323.6719,681.9043 Q2324.4219,681.9043 2325.1094,681.5918 Q2325.8125,681.2793 2326.5625,680.5918 L2326.5625,683.7949 Z " fill="#000000"/><text fill="#000000" font-family="sans-serif" font-size="20" lengthAdjust="spacing" textLength="80" x="2345.5" y="683.6406">Student</text><line style="stroke:#181818;stroke-width:0.5;" x1="2174.5" x2="2561.5" y1="693.7168" y2="693.7168"/><line style="stroke:#181818;stroke-width:0.5;" x1="2174.5" x2="2561.5" y1="701.7168" y2="701.7168"/><ellipse cx="2184.5" cy="718.8574" fill="#84BE84" rx="3" ry="3" style="stroke:#038048;stroke-width:1.0;"/><text fill="#000000" font-family="sans-serif" font-size="20" lengthAdjust="spacing" textLength="362" x="2194.5" y="724.2813">findById(studentId: String): Student</text></g><!--class Course--><g id="elem_Course"><rect codeLine="33" fill="#F1F1F1" height="73.2813" id="Course" rx="2.5" ry="2.5" style="stroke:#181818;stroke-width:0.5;" width="169" x="1969.5" y="659.7168"/><ellipse cx="2015.2" cy="676.7168" fill="#ADD1B2" rx="12" ry="12" style="stroke:#181818;stroke-width:1.0;"/><path d="M2018.2625,683.7949 Q2017.575,684.1543 2016.825,684.3262 Q2016.075,684.498 2015.2469,684.498 Q2012.2938,684.498 2010.7313,682.5605 Q2009.1844,680.6074 2009.1844,676.9355 Q2009.1844,673.2637 2010.7313,671.3262 Q2012.2938,669.373 2015.2469,669.373 Q2016.075,669.373 2016.825,669.5449 Q2017.5906,669.7168 2018.2625,670.0762 L2018.2625,673.2793 Q2017.5125,672.5918 2016.8094,672.2793 Q2016.1219,671.9668 2015.3719,671.9668 Q2013.7938,671.9668 2012.9813,673.2168 Q2012.1844,674.4668 2012.1844,676.9355 Q2012.1844,679.4043 2012.9813,680.6543 Q2013.7938,681.9043 2015.3719,681.9043 Q2016.1219,681.9043 2016.8094,681.5918 Q2017.5125,681.2793 2018.2625,680.5918 L2018.2625,683.7949 Z " fill="#000000"/><text fill="#000000" font-family="sans-serif" font-size="20" lengthAdjust="spacing" textLength="69" x="2036.8" y="683.6406">Course</text><line style="stroke:#181818;stroke-width:0.5;" x1="1970.5" x2="2137.5" y1="693.7168" y2="693.7168"/><line style="stroke:#181818;stroke-width:0.5;" x1="1970.5" x2="2137.5" y1="701.7168" y2="701.7168"/><ellipse cx="1980.5" cy="718.8574" fill="#84BE84" rx="3" ry="3" style="stroke:#038048;stroke-width:1.0;"/><text fill="#000000" font-family="sans-serif" font-size="20" lengthAdjust="spacing" textLength="142" x="1990.5" y="724.2813">getId(): String</text></g><!--class Exam--><g id="elem_Exam"><rect codeLine="37" fill="#F1F1F1" height="73.2813" id="Exam" rx="2.5" ry="2.5" style="stroke:#181818;stroke-width:0.5;" width="264" x="1670" y="659.7168"/><ellipse cx="1769.5" cy="676.7168" fill="#ADD1B2" rx="12" ry="12" style="stroke:#181818;stroke-width:1.0;"/><path d="M1772.5625,683.7949 Q1771.875,684.1543 1771.125,684.3262 Q1770.375,684.498 1769.5469,684.498 Q1766.5938,684.498 1765.0313,682.5605 Q1763.4844,680.6074 1763.4844,676.9355 Q1763.4844,673.2637 1765.0313,671.3262 Q1766.5938,669.373 1769.5469,669.373 Q1770.375,669.373 1771.125,669.5449 Q1771.8906,669.7168 1772.5625,670.0762 L1772.5625,673.2793 Q1771.8125,672.5918 1771.1094,672.2793 Q1770.4219,671.9668 1769.6719,671.9668 Q1768.0938,671.9668 1767.2813,673.2168 Q1766.4844,674.4668 1766.4844,676.9355 Q1766.4844,679.4043 1767.2813,680.6543 Q1768.0938,681.9043 1769.6719,681.9043 Q1770.4219,681.9043 1771.1094,681.5918 Q1771.8125,681.2793 1772.5625,680.5918 L1772.5625,683.7949 Z " fill="#000000"/><text fill="#000000" font-family="sans-serif" font-size="20" lengthAdjust="spacing" textLength="56" x="1791.5" y="683.6406">Exam</text><line style="stroke:#181818;stroke-width:0.5;" x1="1671" x2="1933" y1="693.7168" y2="693.7168"/><line style="stroke:#181818;stroke-width:0.5;" x1="1671" x2="1933" y1="701.7168" y2="701.7168"/><ellipse cx="1681" cy="718.8574" fill="#84BE84" rx="3" ry="3" style="stroke:#038048;stroke-width:1.0;"/><text fill="#000000" font-family="sans-serif" font-size="20" lengthAdjust="spacing" textLength="237" x="1691" y="724.2813">getDescription(): String</text></g><!--class CourseEnrollments--><g id="elem_CourseEnrollments"><rect codeLine="41" fill="#F1F1F1" height="50" id="CourseEnrollments" rx="2.5" ry="2.5" style="stroke:#181818;stroke-width:0.5;" width="224" x="1411" y="671.2168"/><ellipse cx="1427" cy="688.2168" fill="#ADD1B2" rx="12" ry="12" style="stroke:#181818;stroke-width:1.0;"/><path d="M1430.0625,695.2949 Q1429.375,695.6543 1428.625,695.8262 Q1427.875,695.998 1427.0469,695.998 Q1424.0938,695.998 1422.5313,694.0605 Q1420.9844,692.1074 1420.9844,688.4355 Q1420.9844,684.7637 1422.5313,682.8262 Q1424.0938,680.873 1427.0469,680.873 Q1427.875,680.873 1428.625,681.0449 Q1429.3906,681.2168 1430.0625,681.5762 L1430.0625,684.7793 Q1429.3125,684.0918 1428.6094,683.7793 Q1427.9219,683.4668 1427.1719,683.4668 Q1425.5938,683.4668 1424.7813,684.7168 Q1423.9844,685.9668 1423.9844,688.4355 Q1423.9844,690.9043 1424.7813,692.1543 Q1425.5938,693.4043 1427.1719,693.4043 Q1427.9219,693.4043 1428.6094,693.0918 Q1429.3125,692.7793 1430.0625,692.0918 L1430.0625,695.2949 Z " fill="#000000"/><text fill="#000000" font-family="sans-serif" font-size="20" lengthAdjust="spacing" textLength="190" x="1442" y="695.1406">CourseEnrollments</text><line style="stroke:#181818;stroke-width:0.5;" x1="1412" x2="1634" y1="705.2168" y2="705.2168"/><line style="stroke:#181818;stroke-width:0.5;" x1="1412" x2="1634" y1="713.2168" y2="713.2168"/></g><!--class ListFutureExamsUI--><g id="elem_ListFutureExamsUI"><rect codeLine="46" fill="#F1F1F1" height="96.5625" id="ListFutureExamsUI" rx="2.5" ry="2.5" style="stroke:#181818;stroke-width:0.5;" width="461" x="1098.5" y="49.2168"/><ellipse cx="1230.5" cy="66.2168" fill="#ADD1B2" rx="12" ry="12" style="stroke:#181818;stroke-width:1.0;"/><path d="M1233.5625,73.2949 Q1232.875,73.6543 1232.125,73.8262 Q1231.375,73.998 1230.5469,73.998 Q1227.5938,73.998 1226.0313,72.0605 Q1224.4844,70.1074 1224.4844,66.4355 Q1224.4844,62.7637 1226.0313,60.8262 Q1227.5938,58.873 1230.5469,58.873 Q1231.375,58.873 1232.125,59.0449 Q1232.8906,59.2168 1233.5625,59.5762 L1233.5625,62.7793 Q1232.8125,62.0918 1232.1094,61.7793 Q1231.4219,61.4668 1230.6719,61.4668 Q1229.0938,61.4668 1228.2813,62.7168 Q1227.4844,63.9668 1227.4844,66.4355 Q1227.4844,68.9043 1228.2813,70.1543 Q1229.0938,71.4043 1230.6719,71.4043 Q1231.4219,71.4043 1232.1094,71.0918 Q1232.8125,70.7793 1233.5625,70.0918 L1233.5625,73.2949 Z " fill="#000000"/><text fill="#000000" font-family="sans-serif" font-size="20" lengthAdjust="spacing" textLength="188" x="1252.5" y="73.1406">ListFutureExamsUI</text><line style="stroke:#181818;stroke-width:0.5;" x1="1099.5" x2="1558.5" y1="83.2168" y2="83.2168"/><line style="stroke:#181818;stroke-width:0.5;" x1="1099.5" x2="1558.5" y1="91.2168" y2="91.2168"/><ellipse cx="1109.5" cy="108.3574" fill="#84BE84" rx="3" ry="3" style="stroke:#038048;stroke-width:1.0;"/><text fill="#000000" font-family="sans-serif" font-size="20" lengthAdjust="spacing" textLength="134" x="1119.5" y="113.7813">create(): void</text><ellipse cx="1109.5" cy="131.6387" fill="#84BE84" rx="3" ry="3" style="stroke:#038048;stroke-width:1.0;"/><text fill="#000000" font-family="sans-serif" font-size="20" lengthAdjust="spacing" textLength="434" x="1119.5" y="137.0625">showExams(exams: Iterable&lt;Exam&gt;): void</text></g><!--class ListFutureExamsController--><g id="elem_ListFutureExamsController"><rect codeLine="53" fill="#F1F1F1" height="96.5625" id="ListFutureExamsController" rx="2.5" ry="2.5" style="stroke:#181818;stroke-width:0.5;" width="466" x="1096" y="228.2168"/><ellipse cx="1191.5" cy="245.2168" fill="#ADD1B2" rx="12" ry="12" style="stroke:#181818;stroke-width:1.0;"/><path d="M1194.5625,252.2949 Q1193.875,252.6543 1193.125,252.8262 Q1192.375,252.998 1191.5469,252.998 Q1188.5938,252.998 1187.0313,251.0605 Q1185.4844,249.1074 1185.4844,245.4355 Q1185.4844,241.7637 1187.0313,239.8262 Q1188.5938,237.873 1191.5469,237.873 Q1192.375,237.873 1193.125,238.0449 Q1193.8906,238.2168 1194.5625,238.5762 L1194.5625,241.7793 Q1193.8125,241.0918 1193.1094,240.7793 Q1192.4219,240.4668 1191.6719,240.4668 Q1190.0938,240.4668 1189.2813,241.7168 Q1188.4844,242.9668 1188.4844,245.4355 Q1188.4844,247.9043 1189.2813,249.1543 Q1190.0938,250.4043 1191.6719,250.4043 Q1192.4219,250.4043 1193.1094,250.0918 Q1193.8125,249.7793 1194.5625,249.0918 L1194.5625,252.2949 Z " fill="#000000"/><text fill="#000000" font-family="sans-serif" font-size="20" lengthAdjust="spacing" textLength="266" x="1213.5" y="252.1406">ListFutureExamsController</text><line style="stroke:#181818;stroke-width:0.5;" x1="1097" x2="1561" y1="262.2168" y2="262.2168"/><line style="stroke:#181818;stroke-width:0.5;" x1="1097" x2="1561" y1="270.2168" y2="270.2168"/><ellipse cx="1107" cy="287.3574" fill="#84BE84" rx="3" ry="3" style="stroke:#038048;stroke-width:1.0;"/><text fill="#000000" font-family="sans-serif" font-size="20" lengthAdjust="spacing" textLength="326" x="1117" y="292.7813">repositories(): RepositoryFactory</text><ellipse cx="1107" cy="310.6387" fill="#84BE84" rx="3" ry="3" style="stroke:#038048;stroke-width:1.0;"/><text fill="#000000" font-family="sans-serif" font-size="20" lengthAdjust="spacing" textLength="439" x="1117" y="316.0625">findStudentCourses(studentId: String): void</text></g><!--class RepositoryFactory--><g id="elem_RepositoryFactory"><rect codeLine="60" fill="#F1F1F1" height="119.8438" id="RepositoryFactory" rx="2.5" ry="2.5" style="stroke:#181818;stroke-width:0.5;" width="652" x="85" y="636.2168"/><ellipse cx="316.5" cy="653.2168" fill="#ADD1B2" rx="12" ry="12" style="stroke:#181818;stroke-width:1.0;"/><path d="M319.5625,660.2949 Q318.875,660.6543 318.125,660.8262 Q317.375,660.998 316.5469,660.998 Q313.5938,660.998 312.0313,659.0605 Q310.4844,657.1074 310.4844,653.4355 Q310.4844,649.7637 312.0313,647.8262 Q313.5938,645.873 316.5469,645.873 Q317.375,645.873 318.125,646.0449 Q318.8906,646.2168 319.5625,646.5762 L319.5625,649.7793 Q318.8125,649.0918 318.1094,648.7793 Q317.4219,648.4668 316.6719,648.4668 Q315.0938,648.4668 314.2813,649.7168 Q313.4844,650.9668 313.4844,653.4355 Q313.4844,655.9043 314.2813,657.1543 Q315.0938,658.4043 316.6719,658.4043 Q317.4219,658.4043 318.1094,658.0918 Q318.8125,657.7793 319.5625,657.0918 L319.5625,660.2949 Z " fill="#000000"/><text fill="#000000" font-family="sans-serif" font-size="20" lengthAdjust="spacing" textLength="180" x="338.5" y="660.1406">RepositoryFactory</text><line style="stroke:#181818;stroke-width:0.5;" x1="86" x2="736" y1="670.2168" y2="670.2168"/><line style="stroke:#181818;stroke-width:0.5;" x1="86" x2="736" y1="678.2168" y2="678.2168"/><ellipse cx="96" cy="695.3574" fill="#84BE84" rx="3" ry="3" style="stroke:#038048;stroke-width:1.0;"/><text fill="#000000" font-family="sans-serif" font-size="20" lengthAdjust="spacing" textLength="425" x="106" y="700.7813">students(): repositories.StudentRepository</text><ellipse cx="96" cy="718.6387" fill="#84BE84" rx="3" ry="3" style="stroke:#038048;stroke-width:1.0;"/><text fill="#000000" font-family="sans-serif" font-size="20" lengthAdjust="spacing" textLength="379" x="106" y="724.0625">exams(): repositories.ExamRepository</text><ellipse cx="96" cy="741.9199" fill="#84BE84" rx="3" ry="3" style="stroke:#038048;stroke-width:1.0;"/><text fill="#000000" font-family="sans-serif" font-size="20" lengthAdjust="spacing" textLength="625" x="106" y="747.3438">courseEnrollments(): repositories.CourseEnrollmentRepository</text></g><!--link PersistenceContext to RepositoryFactory--><g id="link_PersistenceContext_RepositoryFactory"><path codeLine="67" d="M256.61,530.5668 C283,558.7068 320.4,598.5868 351.78,632.0568 " fill="none" id="PersistenceContext-to-RepositoryFactory" style="stroke:#181818;stroke-width:1.0;"/><polygon fill="#181818" points="355.57,636.1068,352.3327,626.8052,352.1503,632.4591,346.4964,632.2767,355.57,636.1068" style="stroke:#181818;stroke-width:1.0;"/></g><!--reverse link StudentRepository to Student--><g id="link_StudentRepository_Student"><path codeLine="68" d="M2524.98,544.6168 C2487.7,580.3868 2438.37,627.7068 2405.04,659.6768 " fill="none" id="StudentRepository-backto-Student" style="stroke:#181818;stroke-width:1.0;stroke-dasharray:7.0,7.0;"/><polygon fill="none" points="2520.36,539.3568,2539.63,530.5668,2530.05,549.4568,2520.36,539.3568" style="stroke:#181818;stroke-width:1.0;"/></g><!--reverse link CourseRepository to Course--><g id="link_CourseRepository_Course"><path codeLine="69" d="M2134.51,548.4768 C2115.16,583.7368 2090.42,628.8468 2073.5,659.6768 " fill="none" id="CourseRepository-backto-Course" style="stroke:#181818;stroke-width:1.0;stroke-dasharray:7.0,7.0;"/><polygon fill="none" points="2128.58,544.7268,2144.33,530.5668,2140.85,551.4668,2128.58,544.7268" style="stroke:#181818;stroke-width:1.0;"/></g><!--reverse link ExamRepository to Exam--><g id="link_ExamRepository_Exam"><path codeLine="70" d="M1722.23,548.4768 C1741.39,583.7368 1765.92,628.8468 1782.68,659.6768 " fill="none" id="ExamRepository-backto-Exam" style="stroke:#181818;stroke-width:1.0;stroke-dasharray:7.0,7.0;"/><polygon fill="none" points="1715.89,551.4768,1712.49,530.5668,1728.19,544.7868,1715.89,551.4768" style="stroke:#181818;stroke-width:1.0;"/></g><!--reverse link CourseEnrollmentRepository to CourseEnrollments--><g id="link_CourseEnrollmentRepository_CourseEnrollments"><path codeLine="71" d="M1084.02,537.1968 C1197.19,577.9368 1364.04,637.9968 1456.02,671.1068 " fill="none" id="CourseEnrollmentRepository-backto-CourseEnrollments" style="stroke:#181818;stroke-width:1.0;stroke-dasharray:7.0,7.0;"/><polygon fill="none" points="1081.39,543.6868,1064.94,530.3268,1086.13,530.5168,1081.39,543.6868" style="stroke:#181818;stroke-width:1.0;"/></g><!--link ListFutureExamsController to PersistenceContext--><g id="link_ListFutureExamsController_PersistenceContext"><path codeLine="72" d="M1095.9,286.9368 C876.28,297.7568 564.14,319.2468 448,357.2168 C382.5,378.6368 315.92,421.9868 272.37,453.9068 " fill="none" id="ListFutureExamsController-to-PersistenceContext" style="stroke:#181818;stroke-width:1.0;"/><polygon fill="#181818" points="268.22,456.9668,277.8373,454.8436,272.2438,453.9989,273.0886,448.4054,268.22,456.9668" style="stroke:#181818;stroke-width:1.0;"/></g><!--link ListFutureExamsController to RepositoryFactory--><g id="link_ListFutureExamsController_RepositoryFactory"><path codeLine="73" d="M1095.85,287.1868 C870.08,298.4568 555.48,320.5068 511,357.2168 C468.83,392.0168 436.81,542.9168 421.31,630.8768 " fill="none" id="ListFutureExamsController-to-RepositoryFactory" style="stroke:#181818;stroke-width:1.0;"/><polygon fill="#181818" points="420.41,636.0668,425.8969,627.8879,421.2691,631.1412,418.0159,626.5134,420.41,636.0668" style="stroke:#181818;stroke-width:1.0;"/></g><!--link ListFutureExamsController to StudentRepository--><g id="link_ListFutureExamsController_StudentRepository"><path codeLine="74" d="M1562.02,282.4368 C1820.93,289.9868 2221.45,309.2268 2365,357.2168 C2427.55,378.1268 2490.07,421.5168 2530.83,453.5868 " fill="none" id="ListFutureExamsController-to-StudentRepository" style="stroke:#181818;stroke-width:1.0;"/><polygon fill="#181818" points="2535.2,457.0468,2530.6476,448.3132,2531.2873,453.9338,2525.6667,454.5735,2535.2,457.0468" style="stroke:#181818;stroke-width:1.0;"/></g><!--link ListFutureExamsController to CourseEnrollmentRepository--><g id="link_ListFutureExamsController_CourseEnrollmentRepository"><path codeLine="75" d="M1248.44,325.4368 C1182.76,364.3368 1091.22,418.5468 1030.36,454.5968 " fill="none" id="ListFutureExamsController-to-CourseEnrollmentRepository" style="stroke:#181818;stroke-width:1.0;"/><polygon fill="#181818" points="1026.03,457.1568,1035.8129,456.0187,1030.3338,454.6117,1031.7407,449.1326,1026.03,457.1568" style="stroke:#181818;stroke-width:1.0;"/></g><!--link ListFutureExamsController to CourseRepository--><g id="link_ListFutureExamsController_CourseRepository"><path codeLine="76" d="M1562.03,295.5668 C1711.73,309.2168 1891.14,330.2568 1963,357.2168 C2022.12,379.3968 2080.98,422.1168 2119.58,453.6868 " fill="none" id="ListFutureExamsController-to-CourseRepository" style="stroke:#181818;stroke-width:1.0;"/><polygon fill="#181818" points="2123.72,457.0968,2119.3086,448.2911,2119.8579,453.9213,2114.2277,454.4706,2123.72,457.0968" style="stroke:#181818;stroke-width:1.0;"/></g><!--link ListFutureExamsController to ExamRepository--><g id="link_ListFutureExamsController_ExamRepository"><path codeLine="77" d="M1409.78,325.4368 C1475.64,364.3368 1567.44,418.5468 1628.46,454.5968 " fill="none" id="ListFutureExamsController-to-ExamRepository" style="stroke:#181818;stroke-width:1.0;"/><polygon fill="#181818" points="1632.8,457.1568,1627.0776,449.1409,1628.4925,454.618,1623.0155,456.0329,1632.8,457.1568" style="stroke:#181818;stroke-width:1.0;"/></g><!--link ListFutureExamsUI to ListFutureExamsController--><g id="link_ListFutureExamsUI_ListFutureExamsController"><path codeLine="78" d="M1329,146.6168 C1329,170.2268 1329,198.7568 1329,222.9868 " fill="none" id="ListFutureExamsUI-to-ListFutureExamsController" style="stroke:#181818;stroke-width:1.0;"/><polygon fill="#181818" points="1329,228.0868,1333,219.0868,1329,223.0868,1325,219.0868,1329,228.0868" style="stroke:#181818;stroke-width:1.0;"/></g><!--SRC=[fLJRQXin47tVhz2ZJSXI-cY28JU3eGybeH-WIhEEy5eIahQDq-RVgsjNUv7Z90-siJJdd9apcj5xnYLM-D0AiWUAA3IuQyr6SFF8NW1z_L9L4fCztW5Yl55O6zKHqob0Vog4qfK4fPasm4auHuYqM6lqlJ-_jPJmRE8rGXSAfD3C2CL0BvOhz93-7pUOk1yV-5gvpskVHGxpPCpogWPRvKVJKU2c9ufY5mtZzEQufGiT8hPqPOCLuxlbAg6ype3kLdHAmmasuWC6P04pvRf_neSIKy14jaHXkROMZ7-sSEN0wr9-zro9jZqKwxuc1AG1UYrbomWsJF2ROwmv-V7VX5nrJA_NurPGSS2CUx7GxiZo4Ti3GT1C-1rOo6APGCDGPqeMU0UQA2PTUIN4f20F7rGa5MXxurtAwlfct_2cSw_UgUeVsoHC5603Jl2NO3ISwIVnsuSjm7sF-zZ73fHntvwoi9iXbpsebC1vG-Gx4GqFBkZPdimbrWIUBAc9HaecKlf4yiJgoM26UE_F97WuAj7dSUicgF8mf8A6wwlELbOziwOkBzUfz7fgwkdgqDNVkexJaMwhcMmBYBX3JfWo27TNrPbUpEXafbRP8wpBJyzPyoupty5RjlnyZZUUtWU9JZomJp5-dcSqCFaEgwURoy7F4gh-0G00]--></g></svg>