<?xml version="1.0" encoding="UTF-8" standalone="no"?><svg xmlns="http://www.w3.org/2000/svg" xmlns:xlink="http://www.w3.org/1999/xlink" contentStyleType="text/css" height="1093px" preserveAspectRatio="none" style="width:2267px;height:1093px;background:#FFFFFF;" version="1.1" viewBox="0 0 2267 1093" width="2267px" zoomAndPan="magnify"><defs/><g><text fill="#000000" font-family="sans-serif" font-size="14" font-weight="bold" lengthAdjust="spacing" textLength="140" x="1065" y="27.9951">List Future Exams</text><rect fill="#FFFFFF" height="793.1875" style="stroke:#181818;stroke-width:1.0;" width="10" x="429" y="174.1406"/><rect fill="#FFFFFF" height="298.25" style="stroke:#181818;stroke-width:1.0;" width="10" x="704" y="211.4219"/><rect fill="#FFFFFF" height="391.0938" style="stroke:#181818;stroke-width:1.0;" width="10" x="704" y="546.9531"/><rect fill="#FFFFFF" height="37.2813" style="stroke:#181818;stroke-width:1.0;" width="10" x="957" y="248.7031"/><rect fill="#FFFFFF" height="37.2813" style="stroke:#181818;stroke-width:1.0;" width="10" x="1167" y="323.2656"/><rect fill="#FFFFFF" height="37.2813" style="stroke:#181818;stroke-width:1.0;" width="10" x="1167" y="397.8281"/><rect fill="#FFFFFF" height="37.2813" style="stroke:#181818;stroke-width:1.0;" width="10" x="1167" y="472.3906"/><rect fill="#FFFFFF" height="37.2813" style="stroke:#181818;stroke-width:1.0;" width="10" x="1370" y="584.2344"/><rect fill="#FFFFFF" height="37.2813" style="stroke:#181818;stroke-width:1.0;" width="10" x="1566.5" y="773.9219"/><rect fill="#FFFFFF" height="37.2813" style="stroke:#181818;stroke-width:1.0;" width="10" x="1875" y="848.4844"/><rect fill="#FFFFFF" height="37.2813" style="stroke:#181818;stroke-width:1.0;" width="10" x="2115" y="658.7969"/><rect fill="none" height="219.9688" style="stroke:#000000;stroke-width:1.5;" width="1651" x="323" y="711.0781"/><line style="stroke:#181818;stroke-width:0.5;stroke-dasharray:5.0,5.0;" x1="48" x2="48" y1="134.8594" y2="985.3281"/><line style="stroke:#181818;stroke-width:0.5;stroke-dasharray:5.0,5.0;" x1="434" x2="434" y1="134.8594" y2="985.3281"/><line style="stroke:#181818;stroke-width:0.5;stroke-dasharray:5.0,5.0;" x1="709" x2="709" y1="134.8594" y2="985.3281"/><line style="stroke:#181818;stroke-width:0.5;stroke-dasharray:5.0,5.0;" x1="962" x2="962" y1="134.8594" y2="985.3281"/><line style="stroke:#181818;stroke-width:0.5;stroke-dasharray:5.0,5.0;" x1="1172" x2="1172" y1="134.8594" y2="985.3281"/><line style="stroke:#181818;stroke-width:0.5;stroke-dasharray:5.0,5.0;" x1="1375" x2="1375" y1="134.8594" y2="985.3281"/><line style="stroke:#181818;stroke-width:0.5;stroke-dasharray:5.0,5.0;" x1="1571" x2="1571" y1="134.8594" y2="985.3281"/><line style="stroke:#181818;stroke-width:0.5;stroke-dasharray:5.0,5.0;" x1="1729" x2="1729" y1="134.8594" y2="985.3281"/><line style="stroke:#181818;stroke-width:0.5;stroke-dasharray:5.0,5.0;" x1="1880" x2="1880" y1="134.8594" y2="985.3281"/><line style="stroke:#181818;stroke-width:0.5;stroke-dasharray:5.0,5.0;" x1="2120" x2="2120" y1="134.8594" y2="985.3281"/><text fill="#000000" font-family="sans-serif" font-size="20" lengthAdjust="spacing" textLength="80" x="5" y="130.1426">Student</text><ellipse cx="48" cy="60.0781" fill="#E2E2F0" rx="8" ry="8" style="stroke:#181818;stroke-width:0.5;"/><path d="M48,68.0781 L48,95.0781 M35,76.0781 L61,76.0781 M48,95.0781 L35,110.0781 M48,95.0781 L61,110.0781 " fill="none" style="stroke:#181818;stroke-width:0.5;"/><text fill="#000000" font-family="sans-serif" font-size="20" lengthAdjust="spacing" textLength="80" x="5" y="1002.8926">Student</text><ellipse cx="48" cy="1016.1094" fill="#E2E2F0" rx="8" ry="8" style="stroke:#181818;stroke-width:0.5;"/><path d="M48,1024.1094 L48,1051.1094 M35,1032.1094 L61,1032.1094 M48,1051.1094 L35,1066.1094 M48,1051.1094 L61,1066.1094 " fill="none" style="stroke:#181818;stroke-width:0.5;"/><rect fill="#E2E2F0" height="60.5625" rx="2.5" ry="2.5" style="stroke:#181818;stroke-width:0.5;" width="202" x="333" y="73.2969"/><text fill="#000000" font-family="sans-serif" font-size="20" font-style="italic" lengthAdjust="spacing" textLength="151" x="358.5" y="98.8613">«presentation»</text><text fill="#000000" font-family="sans-serif" font-size="20" lengthAdjust="spacing" textLength="188" x="340" y="122.1426">ListFutureExamsUI</text><rect fill="#E2E2F0" height="60.5625" rx="2.5" ry="2.5" style="stroke:#181818;stroke-width:0.5;" width="202" x="333" y="984.3281"/><text fill="#000000" font-family="sans-serif" font-size="20" font-style="italic" lengthAdjust="spacing" textLength="151" x="358.5" y="1009.8926">«presentation»</text><text fill="#000000" font-family="sans-serif" font-size="20" lengthAdjust="spacing" textLength="188" x="340" y="1033.1738">ListFutureExamsUI</text><rect fill="#E2E2F0" height="60.5625" rx="2.5" ry="2.5" style="stroke:#181818;stroke-width:0.5;" width="280" x="569" y="73.2969"/><text fill="#000000" font-family="sans-serif" font-size="20" font-style="italic" lengthAdjust="spacing" textLength="136" x="641" y="98.8613">«application»</text><text fill="#000000" font-family="sans-serif" font-size="20" lengthAdjust="spacing" textLength="266" x="576" y="122.1426">ListFutureExamsController</text><rect fill="#E2E2F0" height="60.5625" rx="2.5" ry="2.5" style="stroke:#181818;stroke-width:0.5;" width="280" x="569" y="984.3281"/><text fill="#000000" font-family="sans-serif" font-size="20" font-style="italic" lengthAdjust="spacing" textLength="136" x="641" y="1009.8926">«application»</text><text fill="#000000" font-family="sans-serif" font-size="20" lengthAdjust="spacing" textLength="266" x="576" y="1033.1738">ListFutureExamsController</text><rect fill="#E2E2F0" height="60.5625" rx="2.5" ry="2.5" style="stroke:#181818;stroke-width:0.5;" width="206" x="859" y="73.2969"/><text fill="#000000" font-family="sans-serif" font-size="20" font-style="italic" lengthAdjust="spacing" textLength="139" x="892.5" y="98.8613">«persistence»</text><text fill="#000000" font-family="sans-serif" font-size="20" lengthAdjust="spacing" textLength="192" x="866" y="122.1426">PersistenceContext</text><rect fill="#E2E2F0" height="60.5625" rx="2.5" ry="2.5" style="stroke:#181818;stroke-width:0.5;" width="206" x="859" y="984.3281"/><text fill="#000000" font-family="sans-serif" font-size="20" font-style="italic" lengthAdjust="spacing" textLength="139" x="892.5" y="1009.8926">«persistence»</text><text fill="#000000" font-family="sans-serif" font-size="20" lengthAdjust="spacing" textLength="192" x="866" y="1033.1738">PersistenceContext</text><rect fill="#E2E2F0" height="60.5625" rx="2.5" ry="2.5" style="stroke:#181818;stroke-width:0.5;" width="194" x="1075" y="73.2969"/><text fill="#000000" font-family="sans-serif" font-size="20" font-style="italic" lengthAdjust="spacing" textLength="94" x="1125" y="98.8613">«factory»</text><text fill="#000000" font-family="sans-serif" font-size="20" lengthAdjust="spacing" textLength="180" x="1082" y="122.1426">RepositoryFactory</text><rect fill="#E2E2F0" height="60.5625" rx="2.5" ry="2.5" style="stroke:#181818;stroke-width:0.5;" width="194" x="1075" y="984.3281"/><text fill="#000000" font-family="sans-serif" font-size="20" font-style="italic" lengthAdjust="spacing" textLength="94" x="1125" y="1009.8926">«factory»</text><text fill="#000000" font-family="sans-serif" font-size="20" lengthAdjust="spacing" textLength="180" x="1082" y="1033.1738">RepositoryFactory</text><text fill="#000000" font-family="sans-serif" font-size="20" font-style="italic" lengthAdjust="spacing" textLength="125" x="1309.5" y="106.8613">«repository»</text><text fill="#000000" font-family="sans-serif" font-size="20" lengthAdjust="spacing" textLength="186" x="1279" y="130.1426">StudentRepository</text><path d="M1357,52.2969 C1357,42.2969 1375,42.2969 1375,42.2969 C1375,42.2969 1393,42.2969 1393,52.2969 L1393,78.2969 C1393,88.2969 1375,88.2969 1375,88.2969 C1375,88.2969 1357,88.2969 1357,78.2969 L1357,52.2969 " fill="#E2E2F0" style="stroke:#181818;stroke-width:1.5;"/><path d="M1357,52.2969 C1357,62.2969 1375,62.2969 1375,62.2969 C1375,62.2969 1393,62.2969 1393,52.2969 " fill="none" style="stroke:#181818;stroke-width:1.5;"/><text fill="#000000" font-family="sans-serif" font-size="20" font-style="italic" lengthAdjust="spacing" textLength="125" x="1309.5" y="1002.8926">«repository»</text><text fill="#000000" font-family="sans-serif" font-size="20" lengthAdjust="spacing" textLength="186" x="1279" y="1026.1738">StudentRepository</text><path d="M1357,1040.8906 C1357,1030.8906 1375,1030.8906 1375,1030.8906 C1375,1030.8906 1393,1030.8906 1393,1040.8906 L1393,1066.8906 C1393,1076.8906 1375,1076.8906 1375,1076.8906 C1375,1076.8906 1357,1076.8906 1357,1066.8906 L1357,1040.8906 " fill="#E2E2F0" style="stroke:#181818;stroke-width:1.5;"/><path d="M1357,1040.8906 C1357,1050.8906 1375,1050.8906 1375,1050.8906 C1375,1050.8906 1393,1050.8906 1393,1040.8906 " fill="none" style="stroke:#181818;stroke-width:1.5;"/><text fill="#000000" font-family="sans-serif" font-size="20" font-style="italic" lengthAdjust="spacing" textLength="125" x="1506" y="106.8613">«repository»</text><text fill="#000000" font-family="sans-serif" font-size="20" lengthAdjust="spacing" textLength="175" x="1481" y="130.1426">CourseRepository</text><path d="M1553.5,52.2969 C1553.5,42.2969 1571.5,42.2969 1571.5,42.2969 C1571.5,42.2969 1589.5,42.2969 1589.5,52.2969 L1589.5,78.2969 C1589.5,88.2969 1571.5,88.2969 1571.5,88.2969 C1571.5,88.2969 1553.5,88.2969 1553.5,78.2969 L1553.5,52.2969 " fill="#E2E2F0" style="stroke:#181818;stroke-width:1.5;"/><path d="M1553.5,52.2969 C1553.5,62.2969 1571.5,62.2969 1571.5,62.2969 C1571.5,62.2969 1589.5,62.2969 1589.5,52.2969 " fill="none" style="stroke:#181818;stroke-width:1.5;"/><text fill="#000000" font-family="sans-serif" font-size="20" font-style="italic" lengthAdjust="spacing" textLength="125" x="1506" y="1002.8926">«repository»</text><text fill="#000000" font-family="sans-serif" font-size="20" lengthAdjust="spacing" textLength="175" x="1481" y="1026.1738">CourseRepository</text><path d="M1553.5,1040.8906 C1553.5,1030.8906 1571.5,1030.8906 1571.5,1030.8906 C1571.5,1030.8906 1589.5,1030.8906 1589.5,1040.8906 L1589.5,1066.8906 C1589.5,1076.8906 1571.5,1076.8906 1571.5,1076.8906 C1571.5,1076.8906 1553.5,1076.8906 1553.5,1066.8906 L1553.5,1040.8906 " fill="#E2E2F0" style="stroke:#181818;stroke-width:1.5;"/><path d="M1553.5,1040.8906 C1553.5,1050.8906 1571.5,1050.8906 1571.5,1050.8906 C1571.5,1050.8906 1589.5,1050.8906 1589.5,1040.8906 " fill="none" style="stroke:#181818;stroke-width:1.5;"/><rect fill="#E2E2F0" height="60.5625" rx="2.5" ry="2.5" style="stroke:#181818;stroke-width:0.5;" width="114" x="1672" y="73.2969"/><text fill="#000000" font-family="sans-serif" font-size="20" font-style="italic" lengthAdjust="spacing" textLength="100" x="1679" y="98.8613">«domain»</text><text fill="#000000" font-family="sans-serif" font-size="20" lengthAdjust="spacing" textLength="80" x="1689" y="122.1426">Student</text><rect fill="#E2E2F0" height="60.5625" rx="2.5" ry="2.5" style="stroke:#181818;stroke-width:0.5;" width="114" x="1672" y="984.3281"/><text fill="#000000" font-family="sans-serif" font-size="20" font-style="italic" lengthAdjust="spacing" textLength="100" x="1679" y="1009.8926">«domain»</text><text fill="#000000" font-family="sans-serif" font-size="20" lengthAdjust="spacing" textLength="80" x="1689" y="1033.1738">Student</text><text fill="#000000" font-family="sans-serif" font-size="20" font-style="italic" lengthAdjust="spacing" textLength="125" x="1814.5" y="106.8613">«repository»</text><text fill="#000000" font-family="sans-serif" font-size="20" lengthAdjust="spacing" textLength="162" x="1796" y="130.1426">ExamRepository</text><path d="M1862,52.2969 C1862,42.2969 1880,42.2969 1880,42.2969 C1880,42.2969 1898,42.2969 1898,52.2969 L1898,78.2969 C1898,88.2969 1880,88.2969 1880,88.2969 C1880,88.2969 1862,88.2969 1862,78.2969 L1862,52.2969 " fill="#E2E2F0" style="stroke:#181818;stroke-width:1.5;"/><path d="M1862,52.2969 C1862,62.2969 1880,62.2969 1880,62.2969 C1880,62.2969 1898,62.2969 1898,52.2969 " fill="none" style="stroke:#181818;stroke-width:1.5;"/><text fill="#000000" font-family="sans-serif" font-size="20" font-style="italic" lengthAdjust="spacing" textLength="125" x="1814.5" y="1002.8926">«repository»</text><text fill="#000000" font-family="sans-serif" font-size="20" lengthAdjust="spacing" textLength="162" x="1796" y="1026.1738">ExamRepository</text><path d="M1862,1040.8906 C1862,1030.8906 1880,1030.8906 1880,1030.8906 C1880,1030.8906 1898,1030.8906 1898,1040.8906 L1898,1066.8906 C1898,1076.8906 1880,1076.8906 1880,1076.8906 C1880,1076.8906 1862,1076.8906 1862,1066.8906 L1862,1040.8906 " fill="#E2E2F0" style="stroke:#181818;stroke-width:1.5;"/><path d="M1862,1040.8906 C1862,1050.8906 1880,1050.8906 1880,1050.8906 C1880,1050.8906 1898,1050.8906 1898,1040.8906 " fill="none" style="stroke:#181818;stroke-width:1.5;"/><text fill="#000000" font-family="sans-serif" font-size="20" font-style="italic" lengthAdjust="spacing" textLength="125" x="2054.5" y="106.8613">«repository»</text><text fill="#000000" font-family="sans-serif" font-size="20" lengthAdjust="spacing" textLength="286" x="1974" y="130.1426">CourseEnrollmentRepository</text><path d="M2102,52.2969 C2102,42.2969 2120,42.2969 2120,42.2969 C2120,42.2969 2138,42.2969 2138,52.2969 L2138,78.2969 C2138,88.2969 2120,88.2969 2120,88.2969 C2120,88.2969 2102,88.2969 2102,78.2969 L2102,52.2969 " fill="#E2E2F0" style="stroke:#181818;stroke-width:1.5;"/><path d="M2102,52.2969 C2102,62.2969 2120,62.2969 2120,62.2969 C2120,62.2969 2138,62.2969 2138,52.2969 " fill="none" style="stroke:#181818;stroke-width:1.5;"/><text fill="#000000" font-family="sans-serif" font-size="20" font-style="italic" lengthAdjust="spacing" textLength="125" x="2054.5" y="1002.8926">«repository»</text><text fill="#000000" font-family="sans-serif" font-size="20" lengthAdjust="spacing" textLength="286" x="1974" y="1026.1738">CourseEnrollmentRepository</text><path d="M2102,1040.8906 C2102,1030.8906 2120,1030.8906 2120,1030.8906 C2120,1030.8906 2138,1030.8906 2138,1040.8906 L2138,1066.8906 C2138,1076.8906 2120,1076.8906 2120,1076.8906 C2120,1076.8906 2102,1076.8906 2102,1066.8906 L2102,1040.8906 " fill="#E2E2F0" style="stroke:#181818;stroke-width:1.5;"/><path d="M2102,1040.8906 C2102,1050.8906 2120,1050.8906 2120,1050.8906 C2120,1050.8906 2138,1050.8906 2138,1040.8906 " fill="none" style="stroke:#181818;stroke-width:1.5;"/><rect fill="#FFFFFF" height="793.1875" style="stroke:#181818;stroke-width:1.0;" width="10" x="429" y="174.1406"/><rect fill="#FFFFFF" height="298.25" style="stroke:#181818;stroke-width:1.0;" width="10" x="704" y="211.4219"/><rect fill="#FFFFFF" height="391.0938" style="stroke:#181818;stroke-width:1.0;" width="10" x="704" y="546.9531"/><rect fill="#FFFFFF" height="37.2813" style="stroke:#181818;stroke-width:1.0;" width="10" x="957" y="248.7031"/><rect fill="#FFFFFF" height="37.2813" style="stroke:#181818;stroke-width:1.0;" width="10" x="1167" y="323.2656"/><rect fill="#FFFFFF" height="37.2813" style="stroke:#181818;stroke-width:1.0;" width="10" x="1167" y="397.8281"/><rect fill="#FFFFFF" height="37.2813" style="stroke:#181818;stroke-width:1.0;" width="10" x="1167" y="472.3906"/><rect fill="#FFFFFF" height="37.2813" style="stroke:#181818;stroke-width:1.0;" width="10" x="1370" y="584.2344"/><rect fill="#FFFFFF" height="37.2813" style="stroke:#181818;stroke-width:1.0;" width="10" x="1566.5" y="773.9219"/><rect fill="#FFFFFF" height="37.2813" style="stroke:#181818;stroke-width:1.0;" width="10" x="1875" y="848.4844"/><rect fill="#FFFFFF" height="37.2813" style="stroke:#181818;stroke-width:1.0;" width="10" x="2115" y="658.7969"/><polygon fill="#181818" points="417,170.1406,427,174.1406,417,178.1406,421,174.1406" style="stroke:#181818;stroke-width:1.0;"/><line style="stroke:#181818;stroke-width:1.0;stroke-dasharray:2.0,2.0;" x1="48" x2="423" y1="174.1406" y2="174.1406"/><text fill="#000000" font-family="sans-serif" font-size="20" font-weight="bold" lengthAdjust="spacing" textLength="14" x="55" y="167.4238">1</text><text fill="#000000" font-family="sans-serif" font-size="20" lengthAdjust="spacing" textLength="344" x="73" y="167.4238">selects option "List Future Exams"</text><polygon fill="#181818" points="692,207.4219,702,211.4219,692,215.4219,696,211.4219" style="stroke:#181818;stroke-width:1.0;"/><line style="stroke:#181818;stroke-width:1.0;" x1="439" x2="698" y1="211.4219" y2="211.4219"/><text fill="#000000" font-family="sans-serif" font-size="20" font-weight="bold" lengthAdjust="spacing" textLength="14" x="446" y="204.7051">2</text><text fill="#000000" font-family="sans-serif" font-size="20" lengthAdjust="spacing" textLength="79" x="464" y="204.7051">create()</text><polygon fill="#181818" points="945,244.7031,955,248.7031,945,252.7031,949,248.7031" style="stroke:#181818;stroke-width:1.0;"/><line style="stroke:#181818;stroke-width:1.0;" x1="714" x2="951" y1="248.7031" y2="248.7031"/><text fill="#000000" font-family="sans-serif" font-size="20" font-weight="bold" lengthAdjust="spacing" textLength="14" x="721" y="241.9863">3</text><text fill="#000000" font-family="sans-serif" font-size="20" lengthAdjust="spacing" textLength="133" x="739" y="241.9863">repositories()</text><polygon fill="#181818" points="725,281.9844,715,285.9844,725,289.9844,721,285.9844" style="stroke:#181818;stroke-width:1.0;"/><line style="stroke:#181818;stroke-width:1.0;stroke-dasharray:2.0,2.0;" x1="719" x2="961" y1="285.9844" y2="285.9844"/><text fill="#000000" font-family="sans-serif" font-size="20" font-weight="bold" lengthAdjust="spacing" textLength="14" x="731" y="279.2676">4</text><text fill="#000000" font-family="sans-serif" font-size="20" lengthAdjust="spacing" textLength="180" x="749" y="279.2676">RepositoryFactory</text><polygon fill="#181818" points="1155,319.2656,1165,323.2656,1155,327.2656,1159,323.2656" style="stroke:#181818;stroke-width:1.0;"/><line style="stroke:#181818;stroke-width:1.0;" x1="714" x2="1161" y1="323.2656" y2="323.2656"/><text fill="#000000" font-family="sans-serif" font-size="20" font-weight="bold" lengthAdjust="spacing" textLength="14" x="721" y="316.5488">5</text><text fill="#000000" font-family="sans-serif" font-size="20" lengthAdjust="spacing" textLength="103" x="739" y="316.5488">students()</text><polygon fill="#181818" points="725,356.5469,715,360.5469,725,364.5469,721,360.5469" style="stroke:#181818;stroke-width:1.0;"/><line style="stroke:#181818;stroke-width:1.0;stroke-dasharray:2.0,2.0;" x1="719" x2="1171" y1="360.5469" y2="360.5469"/><text fill="#000000" font-family="sans-serif" font-size="20" font-weight="bold" lengthAdjust="spacing" textLength="14" x="731" y="353.8301">6</text><text fill="#000000" font-family="sans-serif" font-size="20" lengthAdjust="spacing" textLength="186" x="749" y="353.8301">StudentRepository</text><polygon fill="#181818" points="1155,393.8281,1165,397.8281,1155,401.8281,1159,397.8281" style="stroke:#181818;stroke-width:1.0;"/><line style="stroke:#181818;stroke-width:1.0;" x1="714" x2="1161" y1="397.8281" y2="397.8281"/><text fill="#000000" font-family="sans-serif" font-size="20" font-weight="bold" lengthAdjust="spacing" textLength="14" x="721" y="391.1113">7</text><text fill="#000000" font-family="sans-serif" font-size="20" lengthAdjust="spacing" textLength="81" x="739" y="391.1113">exams()</text><polygon fill="#181818" points="725,431.1094,715,435.1094,725,439.1094,721,435.1094" style="stroke:#181818;stroke-width:1.0;"/><line style="stroke:#181818;stroke-width:1.0;stroke-dasharray:2.0,2.0;" x1="719" x2="1171" y1="435.1094" y2="435.1094"/><text fill="#000000" font-family="sans-serif" font-size="20" font-weight="bold" lengthAdjust="spacing" textLength="14" x="731" y="428.3926">8</text><text fill="#000000" font-family="sans-serif" font-size="20" lengthAdjust="spacing" textLength="162" x="749" y="428.3926">ExamRepository</text><polygon fill="#181818" points="1155,468.3906,1165,472.3906,1155,476.3906,1159,472.3906" style="stroke:#181818;stroke-width:1.0;"/><line style="stroke:#181818;stroke-width:1.0;" x1="714" x2="1161" y1="472.3906" y2="472.3906"/><text fill="#000000" font-family="sans-serif" font-size="20" font-weight="bold" lengthAdjust="spacing" textLength="14" x="721" y="465.6738">9</text><text fill="#000000" font-family="sans-serif" font-size="20" lengthAdjust="spacing" textLength="203" x="739" y="465.6738">courseEnrollments()</text><polygon fill="#181818" points="720,505.6719,710,509.6719,720,513.6719,716,509.6719" style="stroke:#181818;stroke-width:1.0;"/><line style="stroke:#181818;stroke-width:1.0;stroke-dasharray:2.0,2.0;" x1="714" x2="1171" y1="509.6719" y2="509.6719"/><text fill="#000000" font-family="sans-serif" font-size="20" font-weight="bold" lengthAdjust="spacing" textLength="28" x="726" y="502.9551">10</text><text fill="#000000" font-family="sans-serif" font-size="20" lengthAdjust="spacing" textLength="286" x="758" y="502.9551">CourseEnrollmentRepository</text><polygon fill="#181818" points="692,542.9531,702,546.9531,692,550.9531,696,546.9531" style="stroke:#181818;stroke-width:1.0;"/><line style="stroke:#181818;stroke-width:1.0;" x1="439" x2="698" y1="546.9531" y2="546.9531"/><text fill="#000000" font-family="sans-serif" font-size="20" font-weight="bold" lengthAdjust="spacing" textLength="28" x="446" y="540.2363">11</text><text fill="#000000" font-family="sans-serif" font-size="20" lengthAdjust="spacing" textLength="214" x="478" y="540.2363">findStudentCourses()</text><polygon fill="#181818" points="1358,580.2344,1368,584.2344,1358,588.2344,1362,584.2344" style="stroke:#181818;stroke-width:1.0;"/><line style="stroke:#181818;stroke-width:1.0;" x1="714" x2="1364" y1="584.2344" y2="584.2344"/><text fill="#000000" font-family="sans-serif" font-size="20" font-weight="bold" lengthAdjust="spacing" textLength="28" x="721" y="577.5176">12</text><text fill="#000000" font-family="sans-serif" font-size="20" lengthAdjust="spacing" textLength="99" x="753" y="577.5176">findById()</text><polygon fill="#181818" points="725,617.5156,715,621.5156,725,625.5156,721,621.5156" style="stroke:#181818;stroke-width:1.0;"/><line style="stroke:#181818;stroke-width:1.0;stroke-dasharray:2.0,2.0;" x1="719" x2="1374" y1="621.5156" y2="621.5156"/><text fill="#000000" font-family="sans-serif" font-size="20" font-weight="bold" lengthAdjust="spacing" textLength="28" x="731" y="614.7988">13</text><text fill="#000000" font-family="sans-serif" font-size="20" lengthAdjust="spacing" textLength="77" x="763" y="614.7988">student</text><polygon fill="#181818" points="2103,654.7969,2113,658.7969,2103,662.7969,2107,658.7969" style="stroke:#181818;stroke-width:1.0;"/><line style="stroke:#181818;stroke-width:1.0;" x1="714" x2="2109" y1="658.7969" y2="658.7969"/><text fill="#000000" font-family="sans-serif" font-size="20" font-weight="bold" lengthAdjust="spacing" textLength="28" x="721" y="652.0801">14</text><text fill="#000000" font-family="sans-serif" font-size="20" lengthAdjust="spacing" textLength="445" x="753" y="652.0801">findAcceptedApplicationByStudent(student)</text><polygon fill="#181818" points="725,692.0781,715,696.0781,725,700.0781,721,696.0781" style="stroke:#181818;stroke-width:1.0;"/><line style="stroke:#181818;stroke-width:1.0;stroke-dasharray:2.0,2.0;" x1="719" x2="2119" y1="696.0781" y2="696.0781"/><text fill="#000000" font-family="sans-serif" font-size="20" font-weight="bold" lengthAdjust="spacing" textLength="28" x="731" y="689.3613">15</text><text fill="#000000" font-family="sans-serif" font-size="20" lengthAdjust="spacing" textLength="301" x="763" y="689.3613">Iterable&lt;CourseEnrollments&gt;</text><path d="M323,711.0781 L417,711.0781 L417,726.3594 L407,736.3594 L323,736.3594 L323,711.0781 " fill="#EEEEEE" style="stroke:#000000;stroke-width:1.5;"/><rect fill="none" height="219.9688" style="stroke:#000000;stroke-width:1.5;" width="1651" x="323" y="711.0781"/><text fill="#000000" font-family="sans-serif" font-size="20" font-weight="bold" lengthAdjust="spacing" textLength="49" x="338" y="730.6426">loop</text><text fill="#000000" font-family="sans-serif" font-size="20" font-weight="bold" lengthAdjust="spacing" textLength="320" x="432" y="731.6426">[for each courseEnrollment]</text><polygon fill="#181818" points="1554.5,769.9219,1564.5,773.9219,1554.5,777.9219,1558.5,773.9219" style="stroke:#181818;stroke-width:1.0;"/><line style="stroke:#181818;stroke-width:1.0;" x1="714" x2="1560.5" y1="773.9219" y2="773.9219"/><text fill="#000000" font-family="sans-serif" font-size="20" font-weight="bold" lengthAdjust="spacing" textLength="28" x="721" y="767.2051">16</text><text fill="#000000" font-family="sans-serif" font-size="20" lengthAdjust="spacing" textLength="367" x="753" y="767.2051">findById(courseEnrollment.courseId)</text><polygon fill="#181818" points="725,807.2031,715,811.2031,725,815.2031,721,811.2031" style="stroke:#181818;stroke-width:1.0;"/><line style="stroke:#181818;stroke-width:1.0;stroke-dasharray:2.0,2.0;" x1="719" x2="1570.5" y1="811.2031" y2="811.2031"/><text fill="#000000" font-family="sans-serif" font-size="20" font-weight="bold" lengthAdjust="spacing" textLength="28" x="731" y="804.4863">17</text><text fill="#000000" font-family="sans-serif" font-size="20" lengthAdjust="spacing" textLength="66" x="763" y="804.4863">course</text><polygon fill="#181818" points="1863,844.4844,1873,848.4844,1863,852.4844,1867,848.4844" style="stroke:#181818;stroke-width:1.0;"/><line style="stroke:#181818;stroke-width:1.0;" x1="714" x2="1869" y1="848.4844" y2="848.4844"/><text fill="#000000" font-family="sans-serif" font-size="20" font-weight="bold" lengthAdjust="spacing" textLength="28" x="721" y="841.7676">18</text><text fill="#000000" font-family="sans-serif" font-size="20" lengthAdjust="spacing" textLength="215" x="753" y="841.7676">findByCourse(course)</text><polygon fill="#181818" points="725,881.7656,715,885.7656,725,889.7656,721,885.7656" style="stroke:#181818;stroke-width:1.0;"/><line style="stroke:#181818;stroke-width:1.0;stroke-dasharray:2.0,2.0;" x1="719" x2="1879" y1="885.7656" y2="885.7656"/><text fill="#000000" font-family="sans-serif" font-size="20" font-weight="bold" lengthAdjust="spacing" textLength="28" x="731" y="879.0488">19</text><text fill="#000000" font-family="sans-serif" font-size="20" lengthAdjust="spacing" textLength="177" x="763" y="879.0488">Iterable&lt;Exams&gt;</text><polygon fill="#181818" points="450,919.0469,440,923.0469,450,927.0469,446,923.0469" style="stroke:#181818;stroke-width:1.0;"/><line style="stroke:#181818;stroke-width:1.0;stroke-dasharray:2.0,2.0;" x1="444" x2="703" y1="923.0469" y2="923.0469"/><text fill="#000000" font-family="sans-serif" font-size="20" font-weight="bold" lengthAdjust="spacing" textLength="28" x="456" y="916.3301">20</text><text fill="#000000" font-family="sans-serif" font-size="20" lengthAdjust="spacing" textLength="177" x="488" y="916.3301">Iterable&lt;Exams&gt;</text><polygon fill="#181818" points="59,963.3281,49,967.3281,59,971.3281,55,967.3281" style="stroke:#181818;stroke-width:1.0;"/><line style="stroke:#181818;stroke-width:1.0;stroke-dasharray:2.0,2.0;" x1="53" x2="433" y1="967.3281" y2="967.3281"/><text fill="#000000" font-family="sans-serif" font-size="20" font-weight="bold" lengthAdjust="spacing" textLength="28" x="65" y="960.6113">21</text><text fill="#000000" font-family="sans-serif" font-size="20" lengthAdjust="spacing" textLength="269" x="97" y="960.6113">List exams for that student</text><!--SRC=[fLR1Yjim4BthAyIUTWyffSTW3BlB1W8zb2xz04MQi69boqZZikdNTsJPQrcoqq9o2B4rxysRUICf_bstdN2YCLQ-W-8Apg8tUB0jlke_mBzzPQZH0F-kFV93Zxq3_l8X6iz4ZxRjcnCuneH4w_WhzWfQvCBpteVNn8nQwaxGoq0GyGFyrp64qJUlgiw19vn0RTkwlePw9btE6WCke9EdgX9TPxHSu_W1pXCDj1820Zvm0eUVb7vUpv0_eRDUKscNmr3XXQBFyHT5Ae7Y93nCTS_H5EO-7zB8Pzix3zk1QVAfcrMbR2Dqg6ec2jtuxtmlRUXISrKY2uxntQuEdkov1mCIFRTTQ2Y_A-o_2vxhtmA108mmX4pys7FfW1Rl7-QuUPcn97G41Y_s_5EJ1fzZAO9DaRiyNM4LKx2AdhEMxbBTiUcBt2LrYIpq53EHwYaP_wqCGjTlbhMScriroMoyRjUtFR3NjMPcJsEsCfTdtQhHd9ZCRypeilnoZqUgfyjHfGIbxoMog7gSkhIAaYVVCfixEmfxb18w1FKudujFbv7rVaouA7opyLTI5PKS4Pmu6QXoaA-N7crcCzPs_4ot2KM_5HF6E7tMEh5kJ0x_4bySrSD0bEb9LCGq6N5HRMGRWelY4h8LqTdvFKcEq55sfZ7Rkc4jOzbsOpYowrnenbZ8d2w3d0PQnODD6xikR3g23XVAFlvn60wlmLLy4xWsxtI9_0K0]--></g></svg>