<?xml version="1.0" encoding="UTF-8" standalone="no"?><svg xmlns="http://www.w3.org/2000/svg" xmlns:xlink="http://www.w3.org/1999/xlink" contentStyleType="text/css" height="1350px" preserveAspectRatio="none" style="width:3637px;height:1350px;background:#FFFFFF;" version="1.1" viewBox="0 0 3637 1350" width="3637px" zoomAndPan="magnify"><defs/><g><text fill="#000000" font-family="sans-serif" font-size="14" font-weight="bold" lengthAdjust="spacing" textLength="235" x="1700" y="27.9951">SD - List Course Exam Grades</text><rect fill="#FFFFFF" height="1079.1563" style="stroke:#181818;stroke-width:1.0;" width="10" x="43" y="144.8594"/><rect fill="#FFFFFF" height="1049.875" style="stroke:#181818;stroke-width:1.0;" width="10" x="693" y="174.1406"/><rect fill="#FFFFFF" height="527.9375" style="stroke:#181818;stroke-width:1.0;" width="10" x="1195" y="211.4219"/><rect fill="#FFFFFF" height="111.8438" style="stroke:#181818;stroke-width:1.0;" width="10" x="1195" y="776.6406"/><rect fill="#FFFFFF" height="186.4063" style="stroke:#181818;stroke-width:1.0;" width="10" x="1195" y="1000.3281"/><rect fill="#FFFFFF" height="111.8438" style="stroke:#181818;stroke-width:1.0;" width="10" x="1697" y="1037.6094"/><rect fill="#FFFFFF" height="37.2813" style="stroke:#181818;stroke-width:1.0;" width="10" x="1891.5" y="813.9219"/><rect fill="#FFFFFF" height="37.2813" style="stroke:#181818;stroke-width:1.0;" width="10" x="2545" y="248.7031"/><rect fill="#FFFFFF" height="37.2813" style="stroke:#181818;stroke-width:1.0;" width="10" x="2755" y="323.2656"/><rect fill="#FFFFFF" height="37.2813" style="stroke:#181818;stroke-width:1.0;" width="10" x="2755" y="397.8281"/><rect fill="#FFFFFF" height="37.2813" style="stroke:#181818;stroke-width:1.0;" width="10" x="2755" y="472.3906"/><rect fill="#FFFFFF" height="37.2813" style="stroke:#181818;stroke-width:1.0;" width="10" x="2755" y="546.9531"/><rect fill="#FFFFFF" height="37.2813" style="stroke:#181818;stroke-width:1.0;" width="10" x="2755" y="621.5156"/><rect fill="#FFFFFF" height="37.2813" style="stroke:#181818;stroke-width:1.0;" width="10" x="3488.5" y="1074.8906"/><line style="stroke:#181818;stroke-width:0.5;stroke-dasharray:5.0,5.0;" x1="48" x2="48" y1="134.8594" y2="1242.0156"/><line style="stroke:#181818;stroke-width:0.5;stroke-dasharray:5.0,5.0;" x1="697.5" x2="697.5" y1="134.8594" y2="1242.0156"/><line style="stroke:#181818;stroke-width:0.5;stroke-dasharray:5.0,5.0;" x1="1199.5" x2="1199.5" y1="134.8594" y2="1242.0156"/><line style="stroke:#181818;stroke-width:0.5;stroke-dasharray:5.0,5.0;" x1="1702" x2="1702" y1="134.8594" y2="1242.0156"/><line style="stroke:#181818;stroke-width:0.5;stroke-dasharray:5.0,5.0;" x1="1896" x2="1896" y1="134.8594" y2="1242.0156"/><line style="stroke:#181818;stroke-width:0.5;stroke-dasharray:5.0,5.0;" x1="2054" x2="2054" y1="134.8594" y2="1242.0156"/><line style="stroke:#181818;stroke-width:0.5;stroke-dasharray:5.0,5.0;" x1="2217" x2="2217" y1="134.8594" y2="1242.0156"/><line style="stroke:#181818;stroke-width:0.5;stroke-dasharray:5.0,5.0;" x1="2380" x2="2380" y1="134.8594" y2="1242.0156"/><line style="stroke:#181818;stroke-width:0.5;stroke-dasharray:5.0,5.0;" x1="2550" x2="2550" y1="134.8594" y2="1242.0156"/><line style="stroke:#181818;stroke-width:0.5;stroke-dasharray:5.0,5.0;" x1="2760" x2="2760" y1="134.8594" y2="1242.0156"/><line style="stroke:#181818;stroke-width:0.5;stroke-dasharray:5.0,5.0;" x1="2924" x2="2924" y1="134.8594" y2="1242.0156"/><line style="stroke:#181818;stroke-width:0.5;stroke-dasharray:5.0,5.0;" x1="3079" x2="3079" y1="134.8594" y2="1242.0156"/><line style="stroke:#181818;stroke-width:0.5;stroke-dasharray:5.0,5.0;" x1="3261" x2="3261" y1="134.8594" y2="1242.0156"/><line style="stroke:#181818;stroke-width:0.5;stroke-dasharray:5.0,5.0;" x1="3493" x2="3493" y1="134.8594" y2="1242.0156"/><text fill="#000000" font-family="sans-serif" font-size="20" lengthAdjust="spacing" textLength="80" x="5" y="130.1426">Teacher</text><ellipse cx="48" cy="60.0781" fill="#E2E2F0" rx="8" ry="8" style="stroke:#181818;stroke-width:0.5;"/><path d="M48,68.0781 L48,95.0781 M35,76.0781 L61,76.0781 M48,95.0781 L35,110.0781 M48,95.0781 L61,110.0781 " fill="none" style="stroke:#181818;stroke-width:0.5;"/><text fill="#000000" font-family="sans-serif" font-size="20" lengthAdjust="spacing" textLength="80" x="5" y="1259.5801">Teacher</text><ellipse cx="48" cy="1272.7969" fill="#E2E2F0" rx="8" ry="8" style="stroke:#181818;stroke-width:0.5;"/><path d="M48,1280.7969 L48,1307.7969 M35,1288.7969 L61,1288.7969 M48,1307.7969 L35,1322.7969 M48,1307.7969 L61,1322.7969 " fill="none" style="stroke:#181818;stroke-width:0.5;"/><rect fill="#E2E2F0" height="60.5625" rx="2.5" ry="2.5" style="stroke:#181818;stroke-width:0.5;" width="197" x="599.5" y="73.2969"/><text fill="#000000" font-family="sans-serif" font-size="20" font-style="italic" lengthAdjust="spacing" textLength="151" x="622.5" y="98.8613">«presentation»</text><text fill="#000000" font-family="sans-serif" font-size="20" lengthAdjust="spacing" textLength="183" x="606.5" y="122.1426">ListExamGradesUI</text><rect fill="#E2E2F0" height="60.5625" rx="2.5" ry="2.5" style="stroke:#181818;stroke-width:0.5;" width="197" x="599.5" y="1241.0156"/><text fill="#000000" font-family="sans-serif" font-size="20" font-style="italic" lengthAdjust="spacing" textLength="151" x="622.5" y="1266.5801">«presentation»</text><text fill="#000000" font-family="sans-serif" font-size="20" lengthAdjust="spacing" textLength="183" x="606.5" y="1289.8613">ListExamGradesUI</text><rect fill="#E2E2F0" height="60.5625" rx="2.5" ry="2.5" style="stroke:#181818;stroke-width:0.5;" width="275" x="1062.5" y="73.2969"/><text fill="#000000" font-family="sans-serif" font-size="20" font-style="italic" lengthAdjust="spacing" textLength="136" x="1132" y="98.8613">«application»</text><text fill="#000000" font-family="sans-serif" font-size="20" lengthAdjust="spacing" textLength="261" x="1069.5" y="122.1426">ListExamGradesController</text><rect fill="#E2E2F0" height="60.5625" rx="2.5" ry="2.5" style="stroke:#181818;stroke-width:0.5;" width="275" x="1062.5" y="1241.0156"/><text fill="#000000" font-family="sans-serif" font-size="20" font-style="italic" lengthAdjust="spacing" textLength="136" x="1132" y="1266.5801">«application»</text><text fill="#000000" font-family="sans-serif" font-size="20" lengthAdjust="spacing" textLength="261" x="1069.5" y="1289.8613">ListExamGradesController</text><rect fill="#E2E2F0" height="60.5625" rx="2.5" ry="2.5" style="stroke:#181818;stroke-width:0.5;" width="188" x="1608" y="73.2969"/><text fill="#000000" font-family="sans-serif" font-size="20" font-style="italic" lengthAdjust="spacing" textLength="95" x="1654.5" y="98.8613">«service»</text><text fill="#000000" font-family="sans-serif" font-size="20" lengthAdjust="spacing" textLength="174" x="1615" y="122.1426">ListExamsService</text><rect fill="#E2E2F0" height="60.5625" rx="2.5" ry="2.5" style="stroke:#181818;stroke-width:0.5;" width="188" x="1608" y="1241.0156"/><text fill="#000000" font-family="sans-serif" font-size="20" font-style="italic" lengthAdjust="spacing" textLength="95" x="1654.5" y="1266.5801">«service»</text><text fill="#000000" font-family="sans-serif" font-size="20" lengthAdjust="spacing" textLength="174" x="1615" y="1289.8613">ListExamsService</text><text fill="#000000" font-family="sans-serif" font-size="20" font-style="italic" lengthAdjust="spacing" textLength="116" x="1835.5" y="106.8613">«database»</text><text fill="#000000" font-family="sans-serif" font-size="20" lengthAdjust="spacing" textLength="175" x="1806" y="130.1426">CourseRepository</text><path d="M1878.5,52.2969 C1878.5,42.2969 1896.5,42.2969 1896.5,42.2969 C1896.5,42.2969 1914.5,42.2969 1914.5,52.2969 L1914.5,78.2969 C1914.5,88.2969 1896.5,88.2969 1896.5,88.2969 C1896.5,88.2969 1878.5,88.2969 1878.5,78.2969 L1878.5,52.2969 " fill="#E2E2F0" style="stroke:#181818;stroke-width:1.5;"/><path d="M1878.5,52.2969 C1878.5,62.2969 1896.5,62.2969 1896.5,62.2969 C1896.5,62.2969 1914.5,62.2969 1914.5,52.2969 " fill="none" style="stroke:#181818;stroke-width:1.5;"/><text fill="#000000" font-family="sans-serif" font-size="20" font-style="italic" lengthAdjust="spacing" textLength="116" x="1835.5" y="1259.5801">«database»</text><text fill="#000000" font-family="sans-serif" font-size="20" lengthAdjust="spacing" textLength="175" x="1806" y="1282.8613">CourseRepository</text><path d="M1878.5,1297.5781 C1878.5,1287.5781 1896.5,1287.5781 1896.5,1287.5781 C1896.5,1287.5781 1914.5,1287.5781 1914.5,1297.5781 L1914.5,1323.5781 C1914.5,1333.5781 1896.5,1333.5781 1896.5,1333.5781 C1896.5,1333.5781 1878.5,1333.5781 1878.5,1323.5781 L1878.5,1297.5781 " fill="#E2E2F0" style="stroke:#181818;stroke-width:1.5;"/><path d="M1878.5,1297.5781 C1878.5,1307.5781 1896.5,1307.5781 1896.5,1307.5781 C1896.5,1307.5781 1914.5,1307.5781 1914.5,1297.5781 " fill="none" style="stroke:#181818;stroke-width:1.5;"/><rect fill="#E2E2F0" height="60.5625" rx="2.5" ry="2.5" style="stroke:#181818;stroke-width:0.5;" width="114" x="1997" y="73.2969"/><text fill="#000000" font-family="sans-serif" font-size="20" font-style="italic" lengthAdjust="spacing" textLength="100" x="2004" y="98.8613">«domain»</text><text fill="#000000" font-family="sans-serif" font-size="20" lengthAdjust="spacing" textLength="69" x="2019.5" y="122.1426">Course</text><rect fill="#E2E2F0" height="60.5625" rx="2.5" ry="2.5" style="stroke:#181818;stroke-width:0.5;" width="114" x="1997" y="1241.0156"/><text fill="#000000" font-family="sans-serif" font-size="20" font-style="italic" lengthAdjust="spacing" textLength="100" x="2004" y="1266.5801">«domain»</text><text fill="#000000" font-family="sans-serif" font-size="20" lengthAdjust="spacing" textLength="69" x="2019.5" y="1289.8613">Course</text><text fill="#000000" font-family="sans-serif" font-size="20" font-style="italic" lengthAdjust="spacing" textLength="116" x="2156" y="106.8613">«database»</text><text fill="#000000" font-family="sans-serif" font-size="20" lengthAdjust="spacing" textLength="186" x="2121" y="130.1426">StudentRepository</text><path d="M2199,52.2969 C2199,42.2969 2217,42.2969 2217,42.2969 C2217,42.2969 2235,42.2969 2235,52.2969 L2235,78.2969 C2235,88.2969 2217,88.2969 2217,88.2969 C2217,88.2969 2199,88.2969 2199,78.2969 L2199,52.2969 " fill="#E2E2F0" style="stroke:#181818;stroke-width:1.5;"/><path d="M2199,52.2969 C2199,62.2969 2217,62.2969 2217,62.2969 C2217,62.2969 2235,62.2969 2235,52.2969 " fill="none" style="stroke:#181818;stroke-width:1.5;"/><text fill="#000000" font-family="sans-serif" font-size="20" font-style="italic" lengthAdjust="spacing" textLength="116" x="2156" y="1259.5801">«database»</text><text fill="#000000" font-family="sans-serif" font-size="20" lengthAdjust="spacing" textLength="186" x="2121" y="1282.8613">StudentRepository</text><path d="M2199,1297.5781 C2199,1287.5781 2217,1287.5781 2217,1287.5781 C2217,1287.5781 2235,1287.5781 2235,1297.5781 L2235,1323.5781 C2235,1333.5781 2217,1333.5781 2217,1333.5781 C2217,1333.5781 2199,1333.5781 2199,1323.5781 L2199,1297.5781 " fill="#E2E2F0" style="stroke:#181818;stroke-width:1.5;"/><path d="M2199,1297.5781 C2199,1307.5781 2217,1307.5781 2217,1307.5781 C2217,1307.5781 2235,1307.5781 2235,1297.5781 " fill="none" style="stroke:#181818;stroke-width:1.5;"/><rect fill="#E2E2F0" height="60.5625" rx="2.5" ry="2.5" style="stroke:#181818;stroke-width:0.5;" width="114" x="2323" y="73.2969"/><text fill="#000000" font-family="sans-serif" font-size="20" font-style="italic" lengthAdjust="spacing" textLength="100" x="2330" y="98.8613">«domain»</text><text fill="#000000" font-family="sans-serif" font-size="20" lengthAdjust="spacing" textLength="80" x="2340" y="122.1426">Student</text><rect fill="#E2E2F0" height="60.5625" rx="2.5" ry="2.5" style="stroke:#181818;stroke-width:0.5;" width="114" x="2323" y="1241.0156"/><text fill="#000000" font-family="sans-serif" font-size="20" font-style="italic" lengthAdjust="spacing" textLength="100" x="2330" y="1266.5801">«domain»</text><text fill="#000000" font-family="sans-serif" font-size="20" lengthAdjust="spacing" textLength="80" x="2340" y="1289.8613">Student</text><rect fill="#E2E2F0" height="60.5625" rx="2.5" ry="2.5" style="stroke:#181818;stroke-width:0.5;" width="206" x="2447" y="73.2969"/><text fill="#000000" font-family="sans-serif" font-size="20" font-style="italic" lengthAdjust="spacing" textLength="139" x="2480.5" y="98.8613">«persistence»</text><text fill="#000000" font-family="sans-serif" font-size="20" lengthAdjust="spacing" textLength="192" x="2454" y="122.1426">PersistenceContext</text><rect fill="#E2E2F0" height="60.5625" rx="2.5" ry="2.5" style="stroke:#181818;stroke-width:0.5;" width="206" x="2447" y="1241.0156"/><text fill="#000000" font-family="sans-serif" font-size="20" font-style="italic" lengthAdjust="spacing" textLength="139" x="2480.5" y="1266.5801">«persistence»</text><text fill="#000000" font-family="sans-serif" font-size="20" lengthAdjust="spacing" textLength="192" x="2454" y="1289.8613">PersistenceContext</text><rect fill="#E2E2F0" height="60.5625" rx="2.5" ry="2.5" style="stroke:#181818;stroke-width:0.5;" width="194" x="2663" y="73.2969"/><text fill="#000000" font-family="sans-serif" font-size="20" font-style="italic" lengthAdjust="spacing" textLength="94" x="2713" y="98.8613">«factory»</text><text fill="#000000" font-family="sans-serif" font-size="20" lengthAdjust="spacing" textLength="180" x="2670" y="122.1426">RepositoryFactory</text><rect fill="#E2E2F0" height="60.5625" rx="2.5" ry="2.5" style="stroke:#181818;stroke-width:0.5;" width="194" x="2663" y="1241.0156"/><text fill="#000000" font-family="sans-serif" font-size="20" font-style="italic" lengthAdjust="spacing" textLength="94" x="2713" y="1266.5801">«factory»</text><text fill="#000000" font-family="sans-serif" font-size="20" lengthAdjust="spacing" textLength="180" x="2670" y="1289.8613">RepositoryFactory</text><rect fill="#E2E2F0" height="60.5625" rx="2.5" ry="2.5" style="stroke:#181818;stroke-width:0.5;" width="114" x="2867" y="73.2969"/><text fill="#000000" font-family="sans-serif" font-size="20" font-style="italic" lengthAdjust="spacing" textLength="100" x="2874" y="98.8613">«domain»</text><text fill="#000000" font-family="sans-serif" font-size="20" lengthAdjust="spacing" textLength="56" x="2896" y="122.1426">Exam</text><rect fill="#E2E2F0" height="60.5625" rx="2.5" ry="2.5" style="stroke:#181818;stroke-width:0.5;" width="114" x="2867" y="1241.0156"/><text fill="#000000" font-family="sans-serif" font-size="20" font-style="italic" lengthAdjust="spacing" textLength="100" x="2874" y="1266.5801">«domain»</text><text fill="#000000" font-family="sans-serif" font-size="20" lengthAdjust="spacing" textLength="56" x="2896" y="1289.8613">Exam</text><rect fill="#E2E2F0" height="60.5625" rx="2.5" ry="2.5" style="stroke:#181818;stroke-width:0.5;" width="176" x="2991" y="73.2969"/><text fill="#000000" font-family="sans-serif" font-size="20" font-style="italic" lengthAdjust="spacing" textLength="116" x="3021" y="98.8613">«database»</text><text fill="#000000" font-family="sans-serif" font-size="20" lengthAdjust="spacing" textLength="162" x="2998" y="122.1426">ExamRepository</text><rect fill="#E2E2F0" height="60.5625" rx="2.5" ry="2.5" style="stroke:#181818;stroke-width:0.5;" width="176" x="2991" y="1241.0156"/><text fill="#000000" font-family="sans-serif" font-size="20" font-style="italic" lengthAdjust="spacing" textLength="116" x="3021" y="1266.5801">«database»</text><text fill="#000000" font-family="sans-serif" font-size="20" lengthAdjust="spacing" textLength="162" x="2998" y="1289.8613">ExamRepository</text><rect fill="#E2E2F0" height="60.5625" rx="2.5" ry="2.5" style="stroke:#181818;stroke-width:0.5;" width="169" x="3177" y="73.2969"/><text fill="#000000" font-family="sans-serif" font-size="20" font-style="italic" lengthAdjust="spacing" textLength="100" x="3211.5" y="98.8613">«domain»</text><text fill="#000000" font-family="sans-serif" font-size="20" lengthAdjust="spacing" textLength="155" x="3184" y="122.1426">ExamExecution</text><rect fill="#E2E2F0" height="60.5625" rx="2.5" ry="2.5" style="stroke:#181818;stroke-width:0.5;" width="169" x="3177" y="1241.0156"/><text fill="#000000" font-family="sans-serif" font-size="20" font-style="italic" lengthAdjust="spacing" textLength="100" x="3211.5" y="1266.5801">«domain»</text><text fill="#000000" font-family="sans-serif" font-size="20" lengthAdjust="spacing" textLength="155" x="3184" y="1289.8613">ExamExecution</text><rect fill="#E2E2F0" height="60.5625" rx="2.5" ry="2.5" style="stroke:#181818;stroke-width:0.5;" width="275" x="3356" y="73.2969"/><text fill="#000000" font-family="sans-serif" font-size="20" font-style="italic" lengthAdjust="spacing" textLength="116" x="3435.5" y="98.8613">«database»</text><text fill="#000000" font-family="sans-serif" font-size="20" lengthAdjust="spacing" textLength="261" x="3363" y="122.1426">ExamExecutionRepository</text><rect fill="#E2E2F0" height="60.5625" rx="2.5" ry="2.5" style="stroke:#181818;stroke-width:0.5;" width="275" x="3356" y="1241.0156"/><text fill="#000000" font-family="sans-serif" font-size="20" font-style="italic" lengthAdjust="spacing" textLength="116" x="3435.5" y="1266.5801">«database»</text><text fill="#000000" font-family="sans-serif" font-size="20" lengthAdjust="spacing" textLength="261" x="3363" y="1289.8613">ExamExecutionRepository</text><rect fill="#FFFFFF" height="1079.1563" style="stroke:#181818;stroke-width:1.0;" width="10" x="43" y="144.8594"/><rect fill="#FFFFFF" height="1049.875" style="stroke:#181818;stroke-width:1.0;" width="10" x="693" y="174.1406"/><rect fill="#FFFFFF" height="527.9375" style="stroke:#181818;stroke-width:1.0;" width="10" x="1195" y="211.4219"/><rect fill="#FFFFFF" height="111.8438" style="stroke:#181818;stroke-width:1.0;" width="10" x="1195" y="776.6406"/><rect fill="#FFFFFF" height="186.4063" style="stroke:#181818;stroke-width:1.0;" width="10" x="1195" y="1000.3281"/><rect fill="#FFFFFF" height="111.8438" style="stroke:#181818;stroke-width:1.0;" width="10" x="1697" y="1037.6094"/><rect fill="#FFFFFF" height="37.2813" style="stroke:#181818;stroke-width:1.0;" width="10" x="1891.5" y="813.9219"/><rect fill="#FFFFFF" height="37.2813" style="stroke:#181818;stroke-width:1.0;" width="10" x="2545" y="248.7031"/><rect fill="#FFFFFF" height="37.2813" style="stroke:#181818;stroke-width:1.0;" width="10" x="2755" y="323.2656"/><rect fill="#FFFFFF" height="37.2813" style="stroke:#181818;stroke-width:1.0;" width="10" x="2755" y="397.8281"/><rect fill="#FFFFFF" height="37.2813" style="stroke:#181818;stroke-width:1.0;" width="10" x="2755" y="472.3906"/><rect fill="#FFFFFF" height="37.2813" style="stroke:#181818;stroke-width:1.0;" width="10" x="2755" y="546.9531"/><rect fill="#FFFFFF" height="37.2813" style="stroke:#181818;stroke-width:1.0;" width="10" x="2755" y="621.5156"/><rect fill="#FFFFFF" height="37.2813" style="stroke:#181818;stroke-width:1.0;" width="10" x="3488.5" y="1074.8906"/><polygon fill="#181818" points="681,170.1406,691,174.1406,681,178.1406,685,174.1406" style="stroke:#181818;stroke-width:1.0;"/><line style="stroke:#181818;stroke-width:1.0;" x1="53" x2="687" y1="174.1406" y2="174.1406"/><text fill="#000000" font-family="sans-serif" font-size="20" font-weight="bold" lengthAdjust="spacing" textLength="14" x="60" y="167.4238">1</text><text fill="#000000" font-family="sans-serif" font-size="20" lengthAdjust="spacing" textLength="352" x="78" y="167.4238">selects option "List Course Grades"</text><polygon fill="#181818" points="1183,207.4219,1193,211.4219,1183,215.4219,1187,211.4219" style="stroke:#181818;stroke-width:1.0;"/><line style="stroke:#181818;stroke-width:1.0;" x1="703" x2="1189" y1="211.4219" y2="211.4219"/><text fill="#000000" font-family="sans-serif" font-size="20" font-weight="bold" lengthAdjust="spacing" textLength="14" x="710" y="204.7051">2</text><text fill="#000000" font-family="sans-serif" font-size="20" lengthAdjust="spacing" textLength="79" x="728" y="204.7051">create()</text><polygon fill="#181818" points="2533,244.7031,2543,248.7031,2533,252.7031,2537,248.7031" style="stroke:#181818;stroke-width:1.0;"/><line style="stroke:#181818;stroke-width:1.0;" x1="1205" x2="2539" y1="248.7031" y2="248.7031"/><text fill="#000000" font-family="sans-serif" font-size="20" font-weight="bold" lengthAdjust="spacing" textLength="14" x="1212" y="241.9863">3</text><text fill="#000000" font-family="sans-serif" font-size="20" lengthAdjust="spacing" textLength="133" x="1230" y="241.9863">repositories()</text><polygon fill="#181818" points="1216,281.9844,1206,285.9844,1216,289.9844,1212,285.9844" style="stroke:#181818;stroke-width:1.0;"/><line style="stroke:#181818;stroke-width:1.0;stroke-dasharray:2.0,2.0;" x1="1210" x2="2549" y1="285.9844" y2="285.9844"/><text fill="#000000" font-family="sans-serif" font-size="20" font-weight="bold" lengthAdjust="spacing" textLength="14" x="1222" y="279.2676">4</text><text fill="#000000" font-family="sans-serif" font-size="20" lengthAdjust="spacing" textLength="180" x="1240" y="279.2676">RepositoryFactory</text><polygon fill="#181818" points="2743,319.2656,2753,323.2656,2743,327.2656,2747,323.2656" style="stroke:#181818;stroke-width:1.0;"/><line style="stroke:#181818;stroke-width:1.0;" x1="1205" x2="2749" y1="323.2656" y2="323.2656"/><text fill="#000000" font-family="sans-serif" font-size="20" font-weight="bold" lengthAdjust="spacing" textLength="14" x="1212" y="316.5488">5</text><text fill="#000000" font-family="sans-serif" font-size="20" lengthAdjust="spacing" textLength="180" x="1230" y="316.5488">examExecutions()</text><polygon fill="#181818" points="1216,356.5469,1206,360.5469,1216,364.5469,1212,360.5469" style="stroke:#181818;stroke-width:1.0;"/><line style="stroke:#181818;stroke-width:1.0;stroke-dasharray:2.0,2.0;" x1="1210" x2="2759" y1="360.5469" y2="360.5469"/><text fill="#000000" font-family="sans-serif" font-size="20" font-weight="bold" lengthAdjust="spacing" textLength="14" x="1222" y="353.8301">6</text><text fill="#000000" font-family="sans-serif" font-size="20" lengthAdjust="spacing" textLength="261" x="1240" y="353.8301">ExamExecutionRepository</text><polygon fill="#181818" points="2743,393.8281,2753,397.8281,2743,401.8281,2747,397.8281" style="stroke:#181818;stroke-width:1.0;"/><line style="stroke:#181818;stroke-width:1.0;" x1="1205" x2="2749" y1="397.8281" y2="397.8281"/><text fill="#000000" font-family="sans-serif" font-size="20" font-weight="bold" lengthAdjust="spacing" textLength="14" x="1212" y="391.1113">7</text><text fill="#000000" font-family="sans-serif" font-size="20" lengthAdjust="spacing" textLength="81" x="1230" y="391.1113">exams()</text><polygon fill="#181818" points="1216,431.1094,1206,435.1094,1216,439.1094,1212,435.1094" style="stroke:#181818;stroke-width:1.0;"/><line style="stroke:#181818;stroke-width:1.0;stroke-dasharray:2.0,2.0;" x1="1210" x2="2759" y1="435.1094" y2="435.1094"/><text fill="#000000" font-family="sans-serif" font-size="20" font-weight="bold" lengthAdjust="spacing" textLength="14" x="1222" y="428.3926">8</text><text fill="#000000" font-family="sans-serif" font-size="20" lengthAdjust="spacing" textLength="162" x="1240" y="428.3926">ExamRepository</text><polygon fill="#181818" points="2743,468.3906,2753,472.3906,2743,476.3906,2747,472.3906" style="stroke:#181818;stroke-width:1.0;"/><line style="stroke:#181818;stroke-width:1.0;" x1="1205" x2="2749" y1="472.3906" y2="472.3906"/><text fill="#000000" font-family="sans-serif" font-size="20" font-weight="bold" lengthAdjust="spacing" textLength="14" x="1212" y="465.6738">9</text><text fill="#000000" font-family="sans-serif" font-size="20" lengthAdjust="spacing" textLength="92" x="1230" y="465.6738">courses()</text><polygon fill="#181818" points="1216,505.6719,1206,509.6719,1216,513.6719,1212,509.6719" style="stroke:#181818;stroke-width:1.0;"/><line style="stroke:#181818;stroke-width:1.0;stroke-dasharray:2.0,2.0;" x1="1210" x2="2759" y1="509.6719" y2="509.6719"/><text fill="#000000" font-family="sans-serif" font-size="20" font-weight="bold" lengthAdjust="spacing" textLength="28" x="1222" y="502.9551">10</text><text fill="#000000" font-family="sans-serif" font-size="20" lengthAdjust="spacing" textLength="175" x="1254" y="502.9551">CourseRepository</text><polygon fill="#181818" points="2743,542.9531,2753,546.9531,2743,550.9531,2747,546.9531" style="stroke:#181818;stroke-width:1.0;"/><line style="stroke:#181818;stroke-width:1.0;" x1="1205" x2="2749" y1="546.9531" y2="546.9531"/><text fill="#000000" font-family="sans-serif" font-size="20" font-weight="bold" lengthAdjust="spacing" textLength="28" x="1212" y="540.2363">11</text><text fill="#000000" font-family="sans-serif" font-size="20" lengthAdjust="spacing" textLength="136" x="1244" y="540.2363">enrollments()</text><polygon fill="#181818" points="1216,580.2344,1206,584.2344,1216,588.2344,1212,584.2344" style="stroke:#181818;stroke-width:1.0;"/><line style="stroke:#181818;stroke-width:1.0;stroke-dasharray:2.0,2.0;" x1="1210" x2="2759" y1="584.2344" y2="584.2344"/><text fill="#000000" font-family="sans-serif" font-size="20" font-weight="bold" lengthAdjust="spacing" textLength="28" x="1222" y="577.5176">12</text><text fill="#000000" font-family="sans-serif" font-size="20" lengthAdjust="spacing" textLength="217" x="1254" y="577.5176">EnrollmentRepository</text><polygon fill="#181818" points="2743,617.5156,2753,621.5156,2743,625.5156,2747,621.5156" style="stroke:#181818;stroke-width:1.0;"/><line style="stroke:#181818;stroke-width:1.0;" x1="1205" x2="2749" y1="621.5156" y2="621.5156"/><text fill="#000000" font-family="sans-serif" font-size="20" font-weight="bold" lengthAdjust="spacing" textLength="28" x="1212" y="614.7988">13</text><text fill="#000000" font-family="sans-serif" font-size="20" lengthAdjust="spacing" textLength="103" x="1244" y="614.7988">students()</text><polygon fill="#181818" points="1216,654.7969,1206,658.7969,1216,662.7969,1212,658.7969" style="stroke:#181818;stroke-width:1.0;"/><line style="stroke:#181818;stroke-width:1.0;stroke-dasharray:2.0,2.0;" x1="1210" x2="2759" y1="658.7969" y2="658.7969"/><text fill="#000000" font-family="sans-serif" font-size="20" font-weight="bold" lengthAdjust="spacing" textLength="28" x="1222" y="652.0801">14</text><text fill="#000000" font-family="sans-serif" font-size="20" lengthAdjust="spacing" textLength="186" x="1254" y="652.0801">StudentRepository</text><path d="M1210,671.7969 L1210,704.7969 L1522,704.7969 L1522,681.7969 L1512,671.7969 L1210,671.7969 " fill="#FEFFDD" style="stroke:#181818;stroke-width:0.5;"/><path d="M1512,671.7969 L1512,681.7969 L1522,681.7969 L1512,671.7969 " fill="#FEFFDD" style="stroke:#181818;stroke-width:0.5;"/><text fill="#000000" font-family="sans-serif" font-size="20" lengthAdjust="spacing" textLength="291" x="1216" y="695.3613">user is authenticated (authz)</text><polygon fill="#181818" points="1690,735.3594,1700,739.3594,1690,743.3594,1694,739.3594" style="stroke:#181818;stroke-width:1.0;"/><line style="stroke:#181818;stroke-width:1.0;" x1="1200" x2="1696" y1="739.3594" y2="739.3594"/><text fill="#000000" font-family="sans-serif" font-size="20" font-weight="bold" lengthAdjust="spacing" textLength="28" x="1207" y="732.6426">15</text><text fill="#000000" font-family="sans-serif" font-size="20" lengthAdjust="spacing" textLength="412" x="1239" y="732.6426">create(authz, courseEnrollments, exams)</text><polygon fill="#181818" points="1183,772.6406,1193,776.6406,1183,780.6406,1187,776.6406" style="stroke:#181818;stroke-width:1.0;"/><line style="stroke:#181818;stroke-width:1.0;" x1="703" x2="1189" y1="776.6406" y2="776.6406"/><text fill="#000000" font-family="sans-serif" font-size="20" font-weight="bold" lengthAdjust="spacing" textLength="28" x="710" y="769.9238">16</text><text fill="#000000" font-family="sans-serif" font-size="20" lengthAdjust="spacing" textLength="160" x="742" y="769.9238">findByTeacher()</text><polygon fill="#181818" points="1879.5,809.9219,1889.5,813.9219,1879.5,817.9219,1883.5,813.9219" style="stroke:#181818;stroke-width:1.0;"/><line style="stroke:#181818;stroke-width:1.0;" x1="1205" x2="1885.5" y1="813.9219" y2="813.9219"/><text fill="#000000" font-family="sans-serif" font-size="20" font-weight="bold" lengthAdjust="spacing" textLength="28" x="1212" y="807.2051">17</text><text fill="#000000" font-family="sans-serif" font-size="20" lengthAdjust="spacing" textLength="255" x="1244" y="807.2051">findByTeacher(teacherId)</text><polygon fill="#181818" points="1216,847.2031,1206,851.2031,1216,855.2031,1212,851.2031" style="stroke:#181818;stroke-width:1.0;"/><line style="stroke:#181818;stroke-width:1.0;stroke-dasharray:2.0,2.0;" x1="1210" x2="1895.5" y1="851.2031" y2="851.2031"/><text fill="#000000" font-family="sans-serif" font-size="20" font-weight="bold" lengthAdjust="spacing" textLength="28" x="1222" y="844.4863">18</text><text fill="#000000" font-family="sans-serif" font-size="20" lengthAdjust="spacing" textLength="341" x="1254" y="844.4863">Iterable&lt;Course&gt; teacherCourses</text><polygon fill="#181818" points="714,884.4844,704,888.4844,714,892.4844,710,888.4844" style="stroke:#181818;stroke-width:1.0;"/><line style="stroke:#181818;stroke-width:1.0;stroke-dasharray:2.0,2.0;" x1="708" x2="1199" y1="888.4844" y2="888.4844"/><text fill="#000000" font-family="sans-serif" font-size="20" font-weight="bold" lengthAdjust="spacing" textLength="28" x="720" y="881.7676">19</text><text fill="#000000" font-family="sans-serif" font-size="20" lengthAdjust="spacing" textLength="341" x="752" y="881.7676">Iterable&lt;Course&gt; teacherCourses</text><polygon fill="#181818" points="64,921.7656,54,925.7656,64,929.7656,60,925.7656" style="stroke:#181818;stroke-width:1.0;"/><line style="stroke:#181818;stroke-width:1.0;stroke-dasharray:2.0,2.0;" x1="58" x2="692" y1="925.7656" y2="925.7656"/><text fill="#000000" font-family="sans-serif" font-size="20" font-weight="bold" lengthAdjust="spacing" textLength="28" x="70" y="919.0488">20</text><text fill="#000000" font-family="sans-serif" font-size="20" lengthAdjust="spacing" textLength="442" x="102" y="919.0488">shows list of courses the teacher is teaching</text><polygon fill="#181818" points="681,959.0469,691,963.0469,681,967.0469,685,963.0469" style="stroke:#181818;stroke-width:1.0;"/><line style="stroke:#181818;stroke-width:1.0;" x1="53" x2="687" y1="963.0469" y2="963.0469"/><text fill="#000000" font-family="sans-serif" font-size="20" font-weight="bold" lengthAdjust="spacing" textLength="28" x="60" y="956.3301">21</text><text fill="#000000" font-family="sans-serif" font-size="20" lengthAdjust="spacing" textLength="159" x="92" y="956.3301">selects a course</text><polygon fill="#181818" points="1183,996.3281,1193,1000.3281,1183,1004.3281,1187,1000.3281" style="stroke:#181818;stroke-width:1.0;"/><line style="stroke:#181818;stroke-width:1.0;" x1="703" x2="1189" y1="1000.3281" y2="1000.3281"/><text fill="#000000" font-family="sans-serif" font-size="20" font-weight="bold" lengthAdjust="spacing" textLength="28" x="710" y="993.6113">22</text><text fill="#000000" font-family="sans-serif" font-size="20" lengthAdjust="spacing" textLength="149" x="742" y="993.6113">findByCourse()</text><polygon fill="#181818" points="1685,1033.6094,1695,1037.6094,1685,1041.6094,1689,1037.6094" style="stroke:#181818;stroke-width:1.0;"/><line style="stroke:#181818;stroke-width:1.0;" x1="1205" x2="1691" y1="1037.6094" y2="1037.6094"/><text fill="#000000" font-family="sans-serif" font-size="20" font-weight="bold" lengthAdjust="spacing" textLength="28" x="1212" y="1030.8926">23</text><text fill="#000000" font-family="sans-serif" font-size="20" lengthAdjust="spacing" textLength="215" x="1244" y="1030.8926">findByCourse(course)</text><polygon fill="#181818" points="3476.5,1070.8906,3486.5,1074.8906,3476.5,1078.8906,3480.5,1074.8906" style="stroke:#181818;stroke-width:1.0;"/><line style="stroke:#181818;stroke-width:1.0;" x1="1707" x2="3482.5" y1="1074.8906" y2="1074.8906"/><text fill="#000000" font-family="sans-serif" font-size="20" font-weight="bold" lengthAdjust="spacing" textLength="28" x="1714" y="1068.1738">24</text><text fill="#000000" font-family="sans-serif" font-size="20" lengthAdjust="spacing" textLength="234" x="1746" y="1068.1738">findByCourse(courseId)</text><polygon fill="#181818" points="1718,1108.1719,1708,1112.1719,1718,1116.1719,1714,1112.1719" style="stroke:#181818;stroke-width:1.0;"/><line style="stroke:#181818;stroke-width:1.0;stroke-dasharray:2.0,2.0;" x1="1712" x2="3492.5" y1="1112.1719" y2="1112.1719"/><text fill="#000000" font-family="sans-serif" font-size="20" font-weight="bold" lengthAdjust="spacing" textLength="28" x="1724" y="1105.4551">25</text><text fill="#000000" font-family="sans-serif" font-size="20" lengthAdjust="spacing" textLength="436" x="1756" y="1105.4551">Iterable&lt;ExamExecution&gt; examExecutions</text><polygon fill="#181818" points="1216,1145.4531,1206,1149.4531,1216,1153.4531,1212,1149.4531" style="stroke:#181818;stroke-width:1.0;"/><line style="stroke:#181818;stroke-width:1.0;stroke-dasharray:2.0,2.0;" x1="1210" x2="1701" y1="1149.4531" y2="1149.4531"/><text fill="#000000" font-family="sans-serif" font-size="20" font-weight="bold" lengthAdjust="spacing" textLength="28" x="1222" y="1142.7363">26</text><text fill="#000000" font-family="sans-serif" font-size="20" lengthAdjust="spacing" textLength="436" x="1254" y="1142.7363">Iterable&lt;ExamExecution&gt; examExecutions</text><polygon fill="#181818" points="714,1182.7344,704,1186.7344,714,1190.7344,710,1186.7344" style="stroke:#181818;stroke-width:1.0;"/><line style="stroke:#181818;stroke-width:1.0;stroke-dasharray:2.0,2.0;" x1="708" x2="1199" y1="1186.7344" y2="1186.7344"/><text fill="#000000" font-family="sans-serif" font-size="20" font-weight="bold" lengthAdjust="spacing" textLength="28" x="720" y="1180.0176">27</text><text fill="#000000" font-family="sans-serif" font-size="20" lengthAdjust="spacing" textLength="436" x="752" y="1180.0176">Iterable&lt;ExamExecution&gt; examExecutions</text><polygon fill="#181818" points="59,1220.0156,49,1224.0156,59,1228.0156,55,1224.0156" style="stroke:#181818;stroke-width:1.0;"/><line style="stroke:#181818;stroke-width:1.0;stroke-dasharray:2.0,2.0;" x1="53" x2="697" y1="1224.0156" y2="1224.0156"/><text fill="#000000" font-family="sans-serif" font-size="20" font-weight="bold" lengthAdjust="spacing" textLength="28" x="65" y="1217.2988">28</text><text fill="#000000" font-family="sans-serif" font-size="20" lengthAdjust="spacing" textLength="584" x="97" y="1217.2988">shows list of students in the course and their exam grades</text><!--SRC=[dLRBRk8m5DtxAwokYbIaqInHn6AOTeJKnQZG3p39fLWDTcGx7Tgld-jNOYU1WTaKEpxdtAUlgz-vQ9XYnrgMxr3H2lQihSsJ56R3lu1-_qPOQwHeZpjGn71J0ztyf7FwpBMXAzag3VJnn8xqbs8LQ49OQQIYMs3b0HHbccvN12qONlA62UE8bk3nhsiBmRz5qIZG80mpN8hbyW9dXSufMTTUVhLzUKOsQvgQbvV8UWFgWvTWIMzEA7ue2krNoAoOOJk6GVdONg2HccD4dvQcS1TYBeg879WBvuWkEwGyCYvIyOrfAunrh1uEpij70E9rZuq6KkHlK1f31r62pHYS72akCT_z-O3Pk_NagkcyYykYsFlLWEIQ075WVy-uP37Zc1y3OpfWU_fuWhArfOq6-WyNB7MWQPEPHc_RDZ3_O0PiusvNTBwqxRcW6ceeZQQoSPoxz0BulhphgQzhWYIaskvSq581VhsVzG3xdRZMjI1VauLppJdAGMTe3o2nUFDEULGgKi6O5km4o29FOMOfgiHgzvREP3Ir5ycJzcumSwEwlsTNwW-lzNN-2pjlZdZPhesY8zneATpfAysCniYK3I5ne_ZRmL2v3yGM1nxbck9iFw207Pmu_E_jzclMUPLDoQwB7UWXPBqFL3_uCi-o3hHjdjw4FHVLZy_mEfoz4FsS7JAC_rrN2RL7asH0nopXrLqRK6nNG-6FbZIe-ArE7Kwql3Fk-jyaqSMCL9mVMDE3_ADfRUS55Y1qAyN4Hn5R2RVaucrgvB10IZ99OsAy0sSpcJzq0v9NJQWPckJSK9PySauAZegJSSXOPJxXQ9Vm3BeSZAvXwN9BWm0c6k9gyJmpIMlybze_MYGE0Sg5QvFmZmGJbTrovTzOxr8gYwzEiiFdY_m5]--></g></svg>