<?xml version="1.0" encoding="UTF-8" standalone="no"?><svg xmlns="http://www.w3.org/2000/svg" xmlns:xlink="http://www.w3.org/1999/xlink" contentStyleType="text/css" height="1954px" preserveAspectRatio="none" style="width:2678px;height:1954px;background:#FFFFFF;" version="1.1" viewBox="0 0 2678 1954" width="2678px" zoomAndPan="magnify"><defs/><g><text fill="#000000" font-family="sans-serif" font-size="14" font-weight="bold" lengthAdjust="spacing" textLength="382" x="1141.25" y="22.9951">Teacher Lists Grades by Course - Class Diagram</text><!--cluster Domain--><g id="cluster_Domain"><path d="M1067.5,1050.5137 L1155.5,1050.5137 A3.75,3.75 0 0 1 1158,1053.0137 L1165,1079.7949 L2396.5,1079.7949 A2.5,2.5 0 0 1 2399,1082.2949 L2399,1945.0137 A2.5,2.5 0 0 1 2396.5,1947.5137 L1067.5,1947.5137 A2.5,2.5 0 0 1 1065,1945.0137 L1065,1053.0137 A2.5,2.5 0 0 1 1067.5,1050.5137 " fill="#D3D3D3" style="stroke:#000000;stroke-width:1.5;"/><line style="stroke:#000000;stroke-width:1.5;" x1="1065" x2="1165" y1="1079.7949" y2="1079.7949"/><text fill="#000000" font-family="sans-serif" font-size="20" font-weight="bold" lengthAdjust="spacing" textLength="87" x="1069" y="1071.0781">Domain</text></g><!--cluster Repositories--><g id="cluster_Repositories"><path d="M8.5,877.5137 L152.5,877.5137 A3.75,3.75 0 0 1 155,880.0137 L162,906.7949 L2567.5,906.7949 A2.5,2.5 0 0 1 2570,909.2949 L2570,1006.0137 A2.5,2.5 0 0 1 2567.5,1008.5137 L8.5,1008.5137 A2.5,2.5 0 0 1 6,1006.0137 L6,880.0137 A2.5,2.5 0 0 1 8.5,877.5137 " fill="#D3D3D3" style="stroke:#000000;stroke-width:1.5;"/><line style="stroke:#000000;stroke-width:1.5;" x1="6" x2="162" y1="906.7949" y2="906.7949"/><text fill="#000000" font-family="sans-serif" font-size="20" font-weight="bold" lengthAdjust="spacing" textLength="143" x="10" y="898.0781">Repositories</text></g><!--cluster Application--><g id="cluster_Application"><path d="M1499.5,241.5137 L1628.5,241.5137 A3.75,3.75 0 0 1 1631,244.0137 L1638,270.7949 L2130.5,270.7949 A2.5,2.5 0 0 1 2133,273.2949 L2133,394.0137 A2.5,2.5 0 0 1 2130.5,396.5137 L1499.5,396.5137 A2.5,2.5 0 0 1 1497,394.0137 L1497,244.0137 A2.5,2.5 0 0 1 1499.5,241.5137 " fill="#D3D3D3" style="stroke:#000000;stroke-width:1.5;"/><line style="stroke:#000000;stroke-width:1.5;" x1="1497" x2="1638" y1="270.7949" y2="270.7949"/><text fill="#000000" font-family="sans-serif" font-size="20" font-weight="bold" lengthAdjust="spacing" textLength="128" x="1501" y="262.0781">Application</text></g><!--cluster Presentation--><g id="cluster_Presentation"><path d="M2088.5,44.5137 L2237.5,44.5137 A3.75,3.75 0 0 1 2240,47.0137 L2247,73.7949 L2345.5,73.7949 A2.5,2.5 0 0 1 2348,76.2949 L2348,197.0137 A2.5,2.5 0 0 1 2345.5,199.5137 L2088.5,199.5137 A2.5,2.5 0 0 1 2086,197.0137 L2086,47.0137 A2.5,2.5 0 0 1 2088.5,44.5137 " fill="#D3D3D3" style="stroke:#000000;stroke-width:1.5;"/><line style="stroke:#000000;stroke-width:1.5;" x1="2086" x2="2247" y1="73.7949" y2="73.7949"/><text fill="#000000" font-family="sans-serif" font-size="20" font-weight="bold" lengthAdjust="spacing" textLength="148" x="2090" y="65.0781">Presentation</text></g><!--cluster Persistence--><g id="cluster_Persistence"><path d="M1261.5,438.5137 L1396.5,438.5137 A3.75,3.75 0 0 1 1399,441.0137 L1406,467.7949 L1626.5,467.7949 A2.5,2.5 0 0 1 1629,470.2949 L1629,567.0137 A2.5,2.5 0 0 1 1626.5,569.5137 L1261.5,569.5137 A2.5,2.5 0 0 1 1259,567.0137 L1259,441.0137 A2.5,2.5 0 0 1 1261.5,438.5137 " fill="#D3D3D3" style="stroke:#000000;stroke-width:1.5;"/><line style="stroke:#000000;stroke-width:1.5;" x1="1259" x2="1406" y1="467.7949" y2="467.7949"/><text fill="#000000" font-family="sans-serif" font-size="20" font-weight="bold" lengthAdjust="spacing" textLength="134" x="1263" y="459.0781">Persistence</text></g><!--cluster Factory--><g id="cluster_Factory"><path d="M1000.5,611.5137 L1088.5,611.5137 A3.75,3.75 0 0 1 1091,614.0137 L1098,640.7949 L1509.5,640.7949 A2.5,2.5 0 0 1 1512,643.2949 L1512,833.0137 A2.5,2.5 0 0 1 1509.5,835.5137 L1000.5,835.5137 A2.5,2.5 0 0 1 998,833.0137 L998,614.0137 A2.5,2.5 0 0 1 1000.5,611.5137 " fill="#D3D3D3" style="stroke:#000000;stroke-width:1.5;"/><line style="stroke:#000000;stroke-width:1.5;" x1="998" x2="1098" y1="640.7949" y2="640.7949"/><text fill="#000000" font-family="sans-serif" font-size="20" font-weight="bold" lengthAdjust="spacing" textLength="87" x="1002" y="632.0781">Factory</text></g><!--class Teacher--><g id="elem_Teacher"><rect codeLine="17" fill="#F1F1F1" height="212.9688" id="Teacher" rx="2.5" ry="2.5" style="stroke:#181818;stroke-width:0.5;" width="313" x="1081.5" y="1092.5137"/><ellipse cx="1193.5" cy="1109.5137" fill="#ADD1B2" rx="12" ry="12" style="stroke:#181818;stroke-width:1.0;"/><path d="M1196.5625,1116.5918 Q1195.875,1116.9512 1195.125,1117.123 Q1194.375,1117.2949 1193.5469,1117.2949 Q1190.5938,1117.2949 1189.0313,1115.3574 Q1187.4844,1113.4043 1187.4844,1109.7324 Q1187.4844,1106.0605 1189.0313,1104.123 Q1190.5938,1102.1699 1193.5469,1102.1699 Q1194.375,1102.1699 1195.125,1102.3418 Q1195.8906,1102.5137 1196.5625,1102.873 L1196.5625,1106.0762 Q1195.8125,1105.3887 1195.1094,1105.0762 Q1194.4219,1104.7637 1193.6719,1104.7637 Q1192.0938,1104.7637 1191.2813,1106.0137 Q1190.4844,1107.2637 1190.4844,1109.7324 Q1190.4844,1112.2012 1191.2813,1113.4512 Q1192.0938,1114.7012 1193.6719,1114.7012 Q1194.4219,1114.7012 1195.1094,1114.3887 Q1195.8125,1114.0762 1196.5625,1113.3887 L1196.5625,1116.5918 Z " fill="#000000"/><text fill="#000000" font-family="sans-serif" font-size="20" lengthAdjust="spacing" textLength="80" x="1215.5" y="1116.4375">Teacher</text><line style="stroke:#181818;stroke-width:0.5;" x1="1082.5" x2="1393.5" y1="1126.5137" y2="1126.5137"/><rect fill="none" height="6" style="stroke:#C82930;stroke-width:1.0;" width="6" x="1089.5" y="1140.6543"/><text fill="#000000" font-family="sans-serif" font-size="20" lengthAdjust="spacing" textLength="134" x="1102.5" y="1149.0781">version: Long</text><rect fill="none" height="6" style="stroke:#C82930;stroke-width:1.0;" width="6" x="1089.5" y="1163.9355"/><text fill="#000000" font-family="sans-serif" font-size="20" lengthAdjust="spacing" textLength="286" x="1102.5" y="1172.3594">emailAddress: EmailAddress</text><rect fill="none" height="6" style="stroke:#C82930;stroke-width:1.0;" width="6" x="1089.5" y="1187.2168"/><text fill="#000000" font-family="sans-serif" font-size="20" lengthAdjust="spacing" textLength="219" x="1102.5" y="1195.6406">taxPayerNumber: TPN</text><rect fill="none" height="6" style="stroke:#C82930;stroke-width:1.0;" width="6" x="1089.5" y="1210.498"/><text fill="#000000" font-family="sans-serif" font-size="20" lengthAdjust="spacing" textLength="165" x="1102.5" y="1218.9219">fullName: String</text><rect fill="none" height="6" style="stroke:#C82930;stroke-width:1.0;" width="6" x="1089.5" y="1233.7793"/><text fill="#000000" font-family="sans-serif" font-size="20" lengthAdjust="spacing" textLength="184" x="1102.5" y="1242.2031">shortName: String</text><rect fill="none" height="6" style="stroke:#C82930;stroke-width:1.0;" width="6" x="1089.5" y="1257.0605"/><text fill="#000000" font-family="sans-serif" font-size="20" lengthAdjust="spacing" textLength="153" x="1102.5" y="1265.4844">birthdate: Date</text><rect fill="none" height="6" style="stroke:#C82930;stroke-width:1.0;" width="6" x="1089.5" y="1280.3418"/><text fill="#000000" font-family="sans-serif" font-size="20" lengthAdjust="spacing" textLength="189" x="1102.5" y="1288.7656">acronym: Acronym</text><line style="stroke:#181818;stroke-width:0.5;" x1="1082.5" x2="1393.5" y1="1297.4824" y2="1297.4824"/></g><!--class Course--><g id="elem_Course"><rect codeLine="26" fill="#F1F1F1" height="259.5313" id="Course" rx="2.5" ry="2.5" style="stroke:#181818;stroke-width:0.5;" width="298" x="1583" y="1671.5137"/><ellipse cx="1693" cy="1688.5137" fill="#ADD1B2" rx="12" ry="12" style="stroke:#181818;stroke-width:1.0;"/><path d="M1696.0625,1695.5918 Q1695.375,1695.9512 1694.625,1696.123 Q1693.875,1696.2949 1693.0469,1696.2949 Q1690.0938,1696.2949 1688.5313,1694.3574 Q1686.9844,1692.4043 1686.9844,1688.7324 Q1686.9844,1685.0605 1688.5313,1683.123 Q1690.0938,1681.1699 1693.0469,1681.1699 Q1693.875,1681.1699 1694.625,1681.3418 Q1695.3906,1681.5137 1696.0625,1681.873 L1696.0625,1685.0762 Q1695.3125,1684.3887 1694.6094,1684.0762 Q1693.9219,1683.7637 1693.1719,1683.7637 Q1691.5938,1683.7637 1690.7813,1685.0137 Q1689.9844,1686.2637 1689.9844,1688.7324 Q1689.9844,1691.2012 1690.7813,1692.4512 Q1691.5938,1693.7012 1693.1719,1693.7012 Q1693.9219,1693.7012 1694.6094,1693.3887 Q1695.3125,1693.0762 1696.0625,1692.3887 L1696.0625,1695.5918 Z " fill="#000000"/><text fill="#000000" font-family="sans-serif" font-size="20" lengthAdjust="spacing" textLength="69" x="1715" y="1695.4375">Course</text><line style="stroke:#181818;stroke-width:0.5;" x1="1584" x2="1880" y1="1705.5137" y2="1705.5137"/><rect fill="none" height="6" style="stroke:#C82930;stroke-width:1.0;" width="6" x="1591" y="1719.6543"/><text fill="#000000" font-family="sans-serif" font-size="20" lengthAdjust="spacing" textLength="147" x="1604" y="1728.0781">courseId: Long</text><rect fill="none" height="6" style="stroke:#C82930;stroke-width:1.0;" width="6" x="1591" y="1742.9355"/><text fill="#000000" font-family="sans-serif" font-size="20" lengthAdjust="spacing" textLength="191" x="1604" y="1751.3594">courseCode: String</text><rect fill="none" height="6" style="stroke:#C82930;stroke-width:1.0;" width="6" x="1591" y="1766.2168"/><text fill="#000000" font-family="sans-serif" font-size="20" lengthAdjust="spacing" textLength="243" x="1604" y="1774.6406">courseTitle: Designation</text><rect fill="none" height="6" style="stroke:#C82930;stroke-width:1.0;" width="6" x="1591" y="1789.498"/><text fill="#000000" font-family="sans-serif" font-size="20" lengthAdjust="spacing" textLength="116" x="1604" y="1797.9219">state: State</text><rect fill="none" height="6" style="stroke:#C82930;stroke-width:1.0;" width="6" x="1591" y="1812.7793"/><text fill="#000000" font-family="sans-serif" font-size="20" lengthAdjust="spacing" textLength="169" x="1604" y="1821.2031">int: minStudents</text><rect fill="none" height="6" style="stroke:#C82930;stroke-width:1.0;" width="6" x="1591" y="1836.0605"/><text fill="#000000" font-family="sans-serif" font-size="20" lengthAdjust="spacing" textLength="173" x="1604" y="1844.4844">int: maxStudents</text><rect fill="none" height="6" style="stroke:#C82930;stroke-width:1.0;" width="6" x="1591" y="1859.3418"/><text fill="#000000" font-family="sans-serif" font-size="20" lengthAdjust="spacing" textLength="158" x="1604" y="1867.7656">closeDate: Date</text><rect fill="none" height="6" style="stroke:#C82930;stroke-width:1.0;" width="6" x="1591" y="1882.623"/><text fill="#000000" font-family="sans-serif" font-size="20" lengthAdjust="spacing" textLength="239" x="1604" y="1891.0469">description: Description</text><rect fill="none" height="6" style="stroke:#C82930;stroke-width:1.0;" width="6" x="1591" y="1905.9043"/><text fill="#000000" font-family="sans-serif" font-size="20" lengthAdjust="spacing" textLength="271" x="1604" y="1914.3281">teacherList: Set&lt;Teacher&gt;</text><line style="stroke:#181818;stroke-width:0.5;" x1="1584" x2="1880" y1="1923.0449" y2="1923.0449"/></g><!--class CourseEnrollment--><g id="elem_CourseEnrollment"><rect codeLine="38" fill="#F1F1F1" height="119.8438" id="CourseEnrollment" rx="2.5" ry="2.5" style="stroke:#181818;stroke-width:0.5;" width="566" x="1475" y="1139.0137"/><ellipse cx="1663.5" cy="1156.0137" fill="#ADD1B2" rx="12" ry="12" style="stroke:#181818;stroke-width:1.0;"/><path d="M1666.5625,1163.0918 Q1665.875,1163.4512 1665.125,1163.623 Q1664.375,1163.7949 1663.5469,1163.7949 Q1660.5938,1163.7949 1659.0313,1161.8574 Q1657.4844,1159.9043 1657.4844,1156.2324 Q1657.4844,1152.5605 1659.0313,1150.623 Q1660.5938,1148.6699 1663.5469,1148.6699 Q1664.375,1148.6699 1665.125,1148.8418 Q1665.8906,1149.0137 1666.5625,1149.373 L1666.5625,1152.5762 Q1665.8125,1151.8887 1665.1094,1151.5762 Q1664.4219,1151.2637 1663.6719,1151.2637 Q1662.0938,1151.2637 1661.2813,1152.5137 Q1660.4844,1153.7637 1660.4844,1156.2324 Q1660.4844,1158.7012 1661.2813,1159.9512 Q1662.0938,1161.2012 1663.6719,1161.2012 Q1664.4219,1161.2012 1665.1094,1160.8887 Q1665.8125,1160.5762 1666.5625,1159.8887 L1666.5625,1163.0918 Z " fill="#000000"/><text fill="#000000" font-family="sans-serif" font-size="20" lengthAdjust="spacing" textLength="180" x="1685.5" y="1162.9375">CourseEnrollment</text><line style="stroke:#181818;stroke-width:0.5;" x1="1476" x2="2040" y1="1173.0137" y2="1173.0137"/><rect fill="none" height="6" style="stroke:#C82930;stroke-width:1.0;" width="6" x="1483" y="1187.1543"/><text fill="#000000" font-family="sans-serif" font-size="20" lengthAdjust="spacing" textLength="258" x="1496" y="1195.5781">courseEnrollmentId: Long</text><rect fill="none" height="6" style="stroke:#C82930;stroke-width:1.0;" width="6" x="1483" y="1210.4355"/><text fill="#000000" font-family="sans-serif" font-size="20" lengthAdjust="spacing" textLength="539" x="1496" y="1218.8594">enrollmentApplications: Set&lt;EnrollmentApplication&gt;</text><rect fill="none" height="6" style="stroke:#C82930;stroke-width:1.0;" width="6" x="1483" y="1233.7168"/><text fill="#000000" font-family="sans-serif" font-size="20" lengthAdjust="spacing" textLength="148" x="1496" y="1242.1406">course: Course</text><line style="stroke:#181818;stroke-width:0.5;" x1="1476" x2="2040" y1="1250.8574" y2="1250.8574"/></g><!--class Exam--><g id="elem_Exam"><rect codeLine="44" fill="#F1F1F1" height="166.4063" id="Exam" rx="2.5" ry="2.5" style="stroke:#181818;stroke-width:0.5;" width="295" x="1584.5" y="1405.5137"/><ellipse cx="1699.5" cy="1422.5137" fill="#ADD1B2" rx="12" ry="12" style="stroke:#181818;stroke-width:1.0;"/><path d="M1702.5625,1429.5918 Q1701.875,1429.9512 1701.125,1430.123 Q1700.375,1430.2949 1699.5469,1430.2949 Q1696.5938,1430.2949 1695.0313,1428.3574 Q1693.4844,1426.4043 1693.4844,1422.7324 Q1693.4844,1419.0605 1695.0313,1417.123 Q1696.5938,1415.1699 1699.5469,1415.1699 Q1700.375,1415.1699 1701.125,1415.3418 Q1701.8906,1415.5137 1702.5625,1415.873 L1702.5625,1419.0762 Q1701.8125,1418.3887 1701.1094,1418.0762 Q1700.4219,1417.7637 1699.6719,1417.7637 Q1698.0938,1417.7637 1697.2813,1419.0137 Q1696.4844,1420.2637 1696.4844,1422.7324 Q1696.4844,1425.2012 1697.2813,1426.4512 Q1698.0938,1427.7012 1699.6719,1427.7012 Q1700.4219,1427.7012 1701.1094,1427.3887 Q1701.8125,1427.0762 1702.5625,1426.3887 L1702.5625,1429.5918 Z " fill="#000000"/><text fill="#000000" font-family="sans-serif" font-size="20" lengthAdjust="spacing" textLength="56" x="1721.5" y="1429.4375">Exam</text><line style="stroke:#181818;stroke-width:0.5;" x1="1585.5" x2="1878.5" y1="1439.5137" y2="1439.5137"/><rect fill="none" height="6" style="stroke:#C82930;stroke-width:1.0;" width="6" x="1592.5" y="1453.6543"/><text fill="#000000" font-family="sans-serif" font-size="20" lengthAdjust="spacing" textLength="81" x="1605.5" y="1462.0781">id: Long</text><rect fill="none" height="6" style="stroke:#C82930;stroke-width:1.0;" width="6" x="1592.5" y="1476.9355"/><text fill="#000000" font-family="sans-serif" font-size="20" lengthAdjust="spacing" textLength="173" x="1605.5" y="1485.3594">examTitle: String</text><rect fill="none" height="6" style="stroke:#C82930;stroke-width:1.0;" width="6" x="1592.5" y="1500.2168"/><text fill="#000000" font-family="sans-serif" font-size="20" lengthAdjust="spacing" textLength="148" x="1605.5" y="1508.6406">course: Course</text><rect fill="none" height="6" style="stroke:#C82930;stroke-width:1.0;" width="6" x="1592.5" y="1523.498"/><text fill="#000000" font-family="sans-serif" font-size="20" lengthAdjust="spacing" textLength="268" x="1605.5" y="1531.9219">examHeader: ExamHeader</text><rect fill="none" height="6" style="stroke:#C82930;stroke-width:1.0;" width="6" x="1592.5" y="1546.7793"/><text fill="#000000" font-family="sans-serif" font-size="20" lengthAdjust="spacing" textLength="237" x="1605.5" y="1555.2031">sections: Set&lt;Section&gt;</text><line style="stroke:#181818;stroke-width:0.5;" x1="1585.5" x2="1878.5" y1="1563.9199" y2="1563.9199"/></g><!--class ExamExecution--><g id="elem_ExamExecution"><rect codeLine="52" fill="#F1F1F1" height="166.4063" id="ExamExecution" rx="2.5" ry="2.5" style="stroke:#181818;stroke-width:0.5;" width="262" x="2121" y="1116.0137"/><ellipse cx="2170" cy="1133.0137" fill="#ADD1B2" rx="12" ry="12" style="stroke:#181818;stroke-width:1.0;"/><path d="M2173.0625,1140.0918 Q2172.375,1140.4512 2171.625,1140.623 Q2170.875,1140.7949 2170.0469,1140.7949 Q2167.0938,1140.7949 2165.5313,1138.8574 Q2163.9844,1136.9043 2163.9844,1133.2324 Q2163.9844,1129.5605 2165.5313,1127.623 Q2167.0938,1125.6699 2170.0469,1125.6699 Q2170.875,1125.6699 2171.625,1125.8418 Q2172.3906,1126.0137 2173.0625,1126.373 L2173.0625,1129.5762 Q2172.3125,1128.8887 2171.6094,1128.5762 Q2170.9219,1128.2637 2170.1719,1128.2637 Q2168.5938,1128.2637 2167.7813,1129.5137 Q2166.9844,1130.7637 2166.9844,1133.2324 Q2166.9844,1135.7012 2167.7813,1136.9512 Q2168.5938,1138.2012 2170.1719,1138.2012 Q2170.9219,1138.2012 2171.6094,1137.8887 Q2172.3125,1137.5762 2173.0625,1136.8887 L2173.0625,1140.0918 Z " fill="#000000"/><text fill="#000000" font-family="sans-serif" font-size="20" lengthAdjust="spacing" textLength="155" x="2192" y="1139.9375">ExamExecution</text><line style="stroke:#181818;stroke-width:0.5;" x1="2122" x2="2382" y1="1150.0137" y2="1150.0137"/><rect fill="none" height="6" style="stroke:#C82930;stroke-width:1.0;" width="6" x="2129" y="1164.1543"/><text fill="#000000" font-family="sans-serif" font-size="20" lengthAdjust="spacing" textLength="235" x="2142" y="1172.5781">examExecutionId: Long</text><rect fill="none" height="6" style="stroke:#C82930;stroke-width:1.0;" width="6" x="2129" y="1187.4355"/><text fill="#000000" font-family="sans-serif" font-size="20" lengthAdjust="spacing" textLength="207" x="2142" y="1195.8594">beginDate: Calendar</text><rect fill="none" height="6" style="stroke:#C82930;stroke-width:1.0;" width="6" x="2129" y="1210.7168"/><text fill="#000000" font-family="sans-serif" font-size="20" lengthAdjust="spacing" textLength="170" x="2142" y="1219.1406">student: Student</text><rect fill="none" height="6" style="stroke:#C82930;stroke-width:1.0;" width="6" x="2129" y="1233.998"/><text fill="#000000" font-family="sans-serif" font-size="20" lengthAdjust="spacing" textLength="124" x="2142" y="1242.4219">exam: Exam</text><rect fill="none" height="6" style="stroke:#C82930;stroke-width:1.0;" width="6" x="2129" y="1257.2793"/><text fill="#000000" font-family="sans-serif" font-size="20" lengthAdjust="spacing" textLength="121" x="2142" y="1265.7031">grade: Float</text><line style="stroke:#181818;stroke-width:0.5;" x1="2122" x2="2382" y1="1274.4199" y2="1274.4199"/></g><!--class TeacherRepository--><g id="elem_TeacherRepository"><rect codeLine="62" fill="#F1F1F1" height="73.2813" id="TeacherRepository" rx="2.5" ry="2.5" style="stroke:#181818;stroke-width:0.5;" width="463" x="1006.5" y="919.5137"/><ellipse cx="1140" cy="936.5137" fill="#B4A7E5" rx="12" ry="12" style="stroke:#181818;stroke-width:1.0;"/><path d="M1135.1875,931.9668 L1135.1875,929.4355 L1143.8594,929.4355 L1143.8594,931.9668 L1140.9688,931.9668 L1140.9688,941.4668 L1143.8594,941.4668 L1143.8594,944.0137 L1135.1875,944.0137 L1135.1875,941.4668 L1138.0781,941.4668 L1138.0781,931.9668 L1135.1875,931.9668 Z " fill="#000000"/><text fill="#000000" font-family="sans-serif" font-size="20" font-style="italic" lengthAdjust="spacing" textLength="187" x="1162" y="943.4375">TeacherRepository</text><line style="stroke:#181818;stroke-width:0.5;" x1="1007.5" x2="1468.5" y1="953.5137" y2="953.5137"/><line style="stroke:#181818;stroke-width:0.5;" x1="1007.5" x2="1468.5" y1="961.5137" y2="961.5137"/><ellipse cx="1017.5" cy="978.6543" fill="#84BE84" rx="3" ry="3" style="stroke:#038048;stroke-width:1.0;"/><text fill="#000000" font-family="sans-serif" font-size="20" lengthAdjust="spacing" textLength="436" x="1027.5" y="984.0781">findByEmail(email: EmailAddress): Teacher</text></g><!--class CourseEnrollmentRepository--><g id="elem_CourseEnrollmentRepository"><rect codeLine="66" fill="#F1F1F1" height="50" id="CourseEnrollmentRepository" rx="2.5" ry="2.5" style="stroke:#181818;stroke-width:0.5;" width="321" x="1549.5" y="931.0137"/><ellipse cx="1565.5" cy="948.0137" fill="#B4A7E5" rx="12" ry="12" style="stroke:#181818;stroke-width:1.0;"/><path d="M1560.6875,943.4668 L1560.6875,940.9355 L1569.3594,940.9355 L1569.3594,943.4668 L1566.4688,943.4668 L1566.4688,952.9668 L1569.3594,952.9668 L1569.3594,955.5137 L1560.6875,955.5137 L1560.6875,952.9668 L1563.5781,952.9668 L1563.5781,943.4668 L1560.6875,943.4668 Z " fill="#000000"/><text fill="#000000" font-family="sans-serif" font-size="20" font-style="italic" lengthAdjust="spacing" textLength="287" x="1580.5" y="954.9375">CourseEnrollmentRepository</text><line style="stroke:#181818;stroke-width:0.5;" x1="1550.5" x2="1869.5" y1="965.0137" y2="965.0137"/><line style="stroke:#181818;stroke-width:0.5;" x1="1550.5" x2="1869.5" y1="973.0137" y2="973.0137"/></g><!--class CourseRepository--><g id="elem_CourseRepository"><rect codeLine="69" fill="#F1F1F1" height="73.2813" id="CourseRepository" rx="2.5" ry="2.5" style="stroke:#181818;stroke-width:0.5;" width="625" x="22.5" y="919.5137"/><ellipse cx="242.5" cy="936.5137" fill="#B4A7E5" rx="12" ry="12" style="stroke:#181818;stroke-width:1.0;"/><path d="M237.6875,931.9668 L237.6875,929.4355 L246.3594,929.4355 L246.3594,931.9668 L243.4688,931.9668 L243.4688,941.4668 L246.3594,941.4668 L246.3594,944.0137 L237.6875,944.0137 L237.6875,941.4668 L240.5781,941.4668 L240.5781,931.9668 L237.6875,931.9668 Z " fill="#000000"/><text fill="#000000" font-family="sans-serif" font-size="20" font-style="italic" lengthAdjust="spacing" textLength="176" x="264.5" y="943.4375">CourseRepository</text><line style="stroke:#181818;stroke-width:0.5;" x1="23.5" x2="646.5" y1="953.5137" y2="953.5137"/><line style="stroke:#181818;stroke-width:0.5;" x1="23.5" x2="646.5" y1="961.5137" y2="961.5137"/><ellipse cx="33.5" cy="978.6543" fill="#84BE84" rx="3" ry="3" style="stroke:#038048;stroke-width:1.0;"/><text fill="#000000" font-family="sans-serif" font-size="20" lengthAdjust="spacing" textLength="598" x="43.5" y="984.0781">findByTeacher(teacherId: EmailAddress): Iterable&lt;Course&gt;</text></g><!--class ExamRepository--><g id="elem_ExamRepository"><rect codeLine="73" fill="#F1F1F1" height="50" id="ExamRepository" rx="2.5" ry="2.5" style="stroke:#181818;stroke-width:0.5;" width="198" x="728" y="931.0137"/><ellipse cx="744" cy="948.0137" fill="#B4A7E5" rx="12" ry="12" style="stroke:#181818;stroke-width:1.0;"/><path d="M739.1875,943.4668 L739.1875,940.9355 L747.8594,940.9355 L747.8594,943.4668 L744.9688,943.4668 L744.9688,952.9668 L747.8594,952.9668 L747.8594,955.5137 L739.1875,955.5137 L739.1875,952.9668 L742.0781,952.9668 L742.0781,943.4668 L739.1875,943.4668 Z " fill="#000000"/><text fill="#000000" font-family="sans-serif" font-size="20" font-style="italic" lengthAdjust="spacing" textLength="164" x="759" y="954.9375">ExamRepository</text><line style="stroke:#181818;stroke-width:0.5;" x1="729" x2="925" y1="965.0137" y2="965.0137"/><line style="stroke:#181818;stroke-width:0.5;" x1="729" x2="925" y1="973.0137" y2="973.0137"/></g><!--class ExamExecutionRepository--><g id="elem_ExamExecutionRepository"><rect codeLine="76" fill="#F1F1F1" height="73.2813" id="ExamExecutionRepository" rx="2.5" ry="2.5" style="stroke:#181818;stroke-width:0.5;" width="603" x="1950.5" y="919.5137"/><ellipse cx="2115.5" cy="936.5137" fill="#B4A7E5" rx="12" ry="12" style="stroke:#181818;stroke-width:1.0;"/><path d="M2110.6875,931.9668 L2110.6875,929.4355 L2119.3594,929.4355 L2119.3594,931.9668 L2116.4688,931.9668 L2116.4688,941.4668 L2119.3594,941.4668 L2119.3594,944.0137 L2110.6875,944.0137 L2110.6875,941.4668 L2113.5781,941.4668 L2113.5781,931.9668 L2110.6875,931.9668 Z " fill="#000000"/><text fill="#000000" font-family="sans-serif" font-size="20" font-style="italic" lengthAdjust="spacing" textLength="264" x="2137.5" y="943.4375">ExamExecutionRepository</text><line style="stroke:#181818;stroke-width:0.5;" x1="1951.5" x2="2552.5" y1="953.5137" y2="953.5137"/><line style="stroke:#181818;stroke-width:0.5;" x1="1951.5" x2="2552.5" y1="961.5137" y2="961.5137"/><ellipse cx="1961.5" cy="978.6543" fill="#84BE84" rx="3" ry="3" style="stroke:#038048;stroke-width:1.0;"/><text fill="#000000" font-family="sans-serif" font-size="20" lengthAdjust="spacing" textLength="576" x="1971.5" y="984.0781">findByCourse(course: Course): Iterable&lt;ExamExecution&gt;</text></g><!--class ListCourseGradesController--><g id="elem_ListCourseGradesController"><rect codeLine="86" fill="#F1F1F1" height="96.5625" id="ListCourseGradesController" rx="2.5" ry="2.5" style="stroke:#181818;stroke-width:0.5;" width="603" x="1513.5" y="283.5137"/><ellipse cx="1673.5" cy="300.5137" fill="#ADD1B2" rx="12" ry="12" style="stroke:#181818;stroke-width:1.0;"/><path d="M1676.5625,307.5918 Q1675.875,307.9512 1675.125,308.123 Q1674.375,308.2949 1673.5469,308.2949 Q1670.5938,308.2949 1669.0313,306.3574 Q1667.4844,304.4043 1667.4844,300.7324 Q1667.4844,297.0605 1669.0313,295.123 Q1670.5938,293.1699 1673.5469,293.1699 Q1674.375,293.1699 1675.125,293.3418 Q1675.8906,293.5137 1676.5625,293.873 L1676.5625,297.0762 Q1675.8125,296.3887 1675.1094,296.0762 Q1674.4219,295.7637 1673.6719,295.7637 Q1672.0938,295.7637 1671.2813,297.0137 Q1670.4844,298.2637 1670.4844,300.7324 Q1670.4844,303.2012 1671.2813,304.4512 Q1672.0938,305.7012 1673.6719,305.7012 Q1674.4219,305.7012 1675.1094,305.3887 Q1675.8125,305.0762 1676.5625,304.3887 L1676.5625,307.5918 Z " fill="#000000"/><text fill="#000000" font-family="sans-serif" font-size="20" lengthAdjust="spacing" textLength="274" x="1695.5" y="307.4375">ListCourseGradesController</text><line style="stroke:#181818;stroke-width:0.5;" x1="1514.5" x2="2115.5" y1="317.5137" y2="317.5137"/><line style="stroke:#181818;stroke-width:0.5;" x1="1514.5" x2="2115.5" y1="325.5137" y2="325.5137"/><ellipse cx="1524.5" cy="342.6543" fill="#84BE84" rx="3" ry="3" style="stroke:#038048;stroke-width:1.0;"/><text fill="#000000" font-family="sans-serif" font-size="20" lengthAdjust="spacing" textLength="353" x="1534.5" y="348.0781">findByTeacher(): Iterable&lt;Course&gt;</text><ellipse cx="1524.5" cy="365.9355" fill="#84BE84" rx="3" ry="3" style="stroke:#038048;stroke-width:1.0;"/><text fill="#000000" font-family="sans-serif" font-size="20" lengthAdjust="spacing" textLength="576" x="1534.5" y="371.3594">findByCourse(course: Course): Iterable&lt;ExamExecution&gt;</text></g><!--class ListCourseGradesUI--><g id="elem_ListCourseGradesUI"><rect codeLine="92" fill="#F1F1F1" height="96.5625" id="ListCourseGradesUI" rx="2.5" ry="2.5" style="stroke:#181818;stroke-width:0.5;" width="230" x="2102" y="86.5137"/><ellipse cx="2118" cy="103.5137" fill="#ADD1B2" rx="12" ry="12" style="stroke:#181818;stroke-width:1.0;"/><path d="M2121.0625,110.5918 Q2120.375,110.9512 2119.625,111.123 Q2118.875,111.2949 2118.0469,111.2949 Q2115.0938,111.2949 2113.5313,109.3574 Q2111.9844,107.4043 2111.9844,103.7324 Q2111.9844,100.0605 2113.5313,98.123 Q2115.0938,96.1699 2118.0469,96.1699 Q2118.875,96.1699 2119.625,96.3418 Q2120.3906,96.5137 2121.0625,96.873 L2121.0625,100.0762 Q2120.3125,99.3887 2119.6094,99.0762 Q2118.9219,98.7637 2118.1719,98.7637 Q2116.5938,98.7637 2115.7813,100.0137 Q2114.9844,101.2637 2114.9844,103.7324 Q2114.9844,106.2012 2115.7813,107.4512 Q2116.5938,108.7012 2118.1719,108.7012 Q2118.9219,108.7012 2119.6094,108.3887 Q2120.3125,108.0762 2121.0625,107.3887 L2121.0625,110.5918 Z " fill="#000000"/><text fill="#000000" font-family="sans-serif" font-size="20" lengthAdjust="spacing" textLength="196" x="2133" y="110.4375">ListCourseGradesUI</text><line style="stroke:#181818;stroke-width:0.5;" x1="2103" x2="2331" y1="120.5137" y2="120.5137"/><ellipse cx="2113" cy="137.6543" fill="none" rx="3" ry="3" style="stroke:#038048;stroke-width:1.0;"/><text fill="#000000" font-family="sans-serif" font-size="20" lengthAdjust="spacing" textLength="161" x="2123" y="143.0781">headline: String</text><line style="stroke:#181818;stroke-width:0.5;" x1="2103" x2="2331" y1="151.7949" y2="151.7949"/><ellipse cx="2113" cy="168.9355" fill="#84BE84" rx="3" ry="3" style="stroke:#038048;stroke-width:1.0;"/><text fill="#000000" font-family="sans-serif" font-size="20" lengthAdjust="spacing" textLength="189" x="2123" y="174.3594">doShow(): boolean</text></g><!--class PersistenceContext--><g id="elem_PersistenceContext"><rect codeLine="98" fill="#F1F1F1" height="73.2813" id="PersistenceContext" rx="2.5" ry="2.5" style="stroke:#181818;stroke-width:0.5;" width="337" x="1275.5" y="480.5137"/><ellipse cx="1343.5" cy="497.5137" fill="#ADD1B2" rx="12" ry="12" style="stroke:#181818;stroke-width:1.0;"/><path d="M1346.5625,504.5918 Q1345.875,504.9512 1345.125,505.123 Q1344.375,505.2949 1343.5469,505.2949 Q1340.5938,505.2949 1339.0313,503.3574 Q1337.4844,501.4043 1337.4844,497.7324 Q1337.4844,494.0605 1339.0313,492.123 Q1340.5938,490.1699 1343.5469,490.1699 Q1344.375,490.1699 1345.125,490.3418 Q1345.8906,490.5137 1346.5625,490.873 L1346.5625,494.0762 Q1345.8125,493.3887 1345.1094,493.0762 Q1344.4219,492.7637 1343.6719,492.7637 Q1342.0938,492.7637 1341.2813,494.0137 Q1340.4844,495.2637 1340.4844,497.7324 Q1340.4844,500.2012 1341.2813,501.4512 Q1342.0938,502.7012 1343.6719,502.7012 Q1344.4219,502.7012 1345.1094,502.3887 Q1345.8125,502.0762 1346.5625,501.3887 L1346.5625,504.5918 Z " fill="#000000"/><text fill="#000000" font-family="sans-serif" font-size="20" lengthAdjust="spacing" textLength="192" x="1365.5" y="504.4375">PersistenceContext</text><line style="stroke:#181818;stroke-width:0.5;" x1="1276.5" x2="1611.5" y1="514.5137" y2="514.5137"/><ellipse cx="1286.5" cy="531.6543" fill="none" rx="3" ry="3" style="stroke:#038048;stroke-width:1.0;"/><text fill="#000000" font-family="sans-serif" font-size="20" lengthAdjust="spacing" textLength="310" x="1296.5" y="537.0781">repositories: RepositoryFactory</text><line style="stroke:#181818;stroke-width:0.5;" x1="1276.5" x2="1611.5" y1="545.7949" y2="545.7949"/></g><!--class RepositoryFactory--><g id="elem_RepositoryFactory"><rect codeLine="103" fill="#F1F1F1" height="166.4063" id="RepositoryFactory" rx="2.5" ry="2.5" style="stroke:#181818;stroke-width:0.5;" width="481" x="1014.5" y="653.5137"/><ellipse cx="1160.5" cy="670.5137" fill="#ADD1B2" rx="12" ry="12" style="stroke:#181818;stroke-width:1.0;"/><path d="M1163.5625,677.5918 Q1162.875,677.9512 1162.125,678.123 Q1161.375,678.2949 1160.5469,678.2949 Q1157.5938,678.2949 1156.0313,676.3574 Q1154.4844,674.4043 1154.4844,670.7324 Q1154.4844,667.0605 1156.0313,665.123 Q1157.5938,663.1699 1160.5469,663.1699 Q1161.375,663.1699 1162.125,663.3418 Q1162.8906,663.5137 1163.5625,663.873 L1163.5625,667.0762 Q1162.8125,666.3887 1162.1094,666.0762 Q1161.4219,665.7637 1160.6719,665.7637 Q1159.0938,665.7637 1158.2813,667.0137 Q1157.4844,668.2637 1157.4844,670.7324 Q1157.4844,673.2012 1158.2813,674.4512 Q1159.0938,675.7012 1160.6719,675.7012 Q1161.4219,675.7012 1162.1094,675.3887 Q1162.8125,675.0762 1163.5625,674.3887 L1163.5625,677.5918 Z " fill="#000000"/><text fill="#000000" font-family="sans-serif" font-size="20" lengthAdjust="spacing" textLength="180" x="1182.5" y="677.4375">RepositoryFactory</text><line style="stroke:#181818;stroke-width:0.5;" x1="1015.5" x2="1494.5" y1="687.5137" y2="687.5137"/><line style="stroke:#181818;stroke-width:0.5;" x1="1015.5" x2="1494.5" y1="695.5137" y2="695.5137"/><ellipse cx="1025.5" cy="712.6543" fill="#84BE84" rx="3" ry="3" style="stroke:#038048;stroke-width:1.0;"/><text fill="#000000" font-family="sans-serif" font-size="20" lengthAdjust="spacing" textLength="454" x="1035.5" y="718.0781">examExecutions(): ExamExecutionRepository</text><ellipse cx="1025.5" cy="735.9355" fill="#84BE84" rx="3" ry="3" style="stroke:#038048;stroke-width:1.0;"/><text fill="#000000" font-family="sans-serif" font-size="20" lengthAdjust="spacing" textLength="256" x="1035.5" y="741.3594">exams(): ExamRepository</text><ellipse cx="1025.5" cy="759.2168" fill="#84BE84" rx="3" ry="3" style="stroke:#038048;stroke-width:1.0;"/><text fill="#000000" font-family="sans-serif" font-size="20" lengthAdjust="spacing" textLength="280" x="1035.5" y="764.6406">courses(): CourseRepository</text><ellipse cx="1025.5" cy="782.498" fill="#84BE84" rx="3" ry="3" style="stroke:#038048;stroke-width:1.0;"/><text fill="#000000" font-family="sans-serif" font-size="20" lengthAdjust="spacing" textLength="435" x="1035.5" y="787.9219">enrollments(): CourseEnrollmentRepository</text><ellipse cx="1025.5" cy="805.7793" fill="#84BE84" rx="3" ry="3" style="stroke:#038048;stroke-width:1.0;"/><text fill="#000000" font-family="sans-serif" font-size="20" lengthAdjust="spacing" textLength="301" x="1035.5" y="811.2031">teachers(): TeacherRepository</text></g><!--class ListExamsService--><g id="elem_ListExamsService"><rect codeLine="81" fill="#F1F1F1" height="73.2813" id="ListExamsService" rx="2.5" ry="2.5" style="stroke:#181818;stroke-width:0.5;" width="603" x="2050.5" y="700.0137"/><ellipse cx="2260.5" cy="717.0137" fill="#ADD1B2" rx="12" ry="12" style="stroke:#181818;stroke-width:1.0;"/><path d="M2263.5625,724.0918 Q2262.875,724.4512 2262.125,724.623 Q2261.375,724.7949 2260.5469,724.7949 Q2257.5938,724.7949 2256.0313,722.8574 Q2254.4844,720.9043 2254.4844,717.2324 Q2254.4844,713.5605 2256.0313,711.623 Q2257.5938,709.6699 2260.5469,709.6699 Q2261.375,709.6699 2262.125,709.8418 Q2262.8906,710.0137 2263.5625,710.373 L2263.5625,713.5762 Q2262.8125,712.8887 2262.1094,712.5762 Q2261.4219,712.2637 2260.6719,712.2637 Q2259.0938,712.2637 2258.2813,713.5137 Q2257.4844,714.7637 2257.4844,717.2324 Q2257.4844,719.7012 2258.2813,720.9512 Q2259.0938,722.2012 2260.6719,722.2012 Q2261.4219,722.2012 2262.1094,721.8887 Q2262.8125,721.5762 2263.5625,720.8887 L2263.5625,724.0918 Z " fill="#000000"/><text fill="#000000" font-family="sans-serif" font-size="20" lengthAdjust="spacing" textLength="174" x="2282.5" y="723.9375">ListExamsService</text><line style="stroke:#181818;stroke-width:0.5;" x1="2051.5" x2="2652.5" y1="734.0137" y2="734.0137"/><line style="stroke:#181818;stroke-width:0.5;" x1="2051.5" x2="2652.5" y1="742.0137" y2="742.0137"/><ellipse cx="2061.5" cy="759.1543" fill="#84BE84" rx="3" ry="3" style="stroke:#038048;stroke-width:1.0;"/><text fill="#000000" font-family="sans-serif" font-size="20" lengthAdjust="spacing" textLength="576" x="2071.5" y="764.5781">findByCourse(course: Course): Iterable&lt;ExamExecution&gt;</text></g><!--link ListCourseGradesUI to ListCourseGradesController--><g id="link_ListCourseGradesUI_ListCourseGradesController"><path codeLine="112" d="M2109.25,183.7137 C2109.25,183.7137 2109.25,278.1937 2109.25,278.1937 " fill="none" id="ListCourseGradesUI-to-ListCourseGradesController" style="stroke:#181818;stroke-width:1.0;stroke-dasharray:7.0,7.0;"/><polygon fill="#181818" points="2109.25,283.1937,2113.25,274.1937,2109.25,278.1937,2105.25,274.1937,2109.25,283.1937" style="stroke:#181818;stroke-width:1.0;"/></g><!--link ListCourseGradesUI to ExamExecution--><g id="link_ListCourseGradesUI_ExamExecution"><path codeLine="113" d="M2332.28,135.5137 C2466.93,135.5137 2671.5,135.5137 2671.5,135.5137 C2671.5,135.5137 2671.5,1227.5137 2671.5,1227.5137 C2671.5,1227.5137 2388.01,1227.5137 2388.01,1227.5137 " fill="none" id="ListCourseGradesUI-to-ExamExecution" style="stroke:#181818;stroke-width:1.0;stroke-dasharray:7.0,7.0;"/><polygon fill="#181818" points="2383.01,1227.5137,2392.01,1231.5137,2388.01,1227.5137,2392.01,1223.5137,2383.01,1227.5137" style="stroke:#181818;stroke-width:1.0;"/></g><!--link ListCourseGradesController to PersistenceContext--><g id="link_ListCourseGradesController_PersistenceContext"><path codeLine="115" d="M1563,380.6237 C1563,380.6237 1563,475.4237 1563,475.4237 " fill="none" id="ListCourseGradesController-to-PersistenceContext" style="stroke:#181818;stroke-width:1.0;stroke-dasharray:7.0,7.0;"/><polygon fill="#181818" points="1563,480.4237,1567,471.4237,1563,475.4237,1559,471.4237,1563,480.4237" style="stroke:#181818;stroke-width:1.0;"/></g><!--link ListCourseGradesController to RepositoryFactory--><g id="link_ListCourseGradesController_RepositoryFactory"><path codeLine="116" d="M1677,380.7837 C1677,476.0237 1677,677.5137 1677,677.5137 C1677,677.5137 1500.58,677.5137 1500.58,677.5137 " fill="none" id="ListCourseGradesController-to-RepositoryFactory" style="stroke:#181818;stroke-width:1.0;stroke-dasharray:7.0,7.0;"/><polygon fill="#181818" points="1495.58,677.5137,1504.58,681.5137,1500.58,677.5137,1504.58,673.5137,1495.58,677.5137" style="stroke:#181818;stroke-width:1.0;"/></g><!--link ListCourseGradesController to TeacherRepository--><g id="link_ListCourseGradesController_TeacherRepository"><path codeLine="117" d="M1741.5,380.7437 C1741.5,522.9737 1741.5,927.5137 1741.5,927.5137 C1741.5,927.5137 1474.85,927.5137 1474.85,927.5137 " fill="none" id="ListCourseGradesController-to-TeacherRepository" style="stroke:#181818;stroke-width:1.0;stroke-dasharray:7.0,7.0;"/><polygon fill="#181818" points="1469.85,927.5137,1478.85,931.5137,1474.85,927.5137,1478.85,923.5137,1469.85,927.5137" style="stroke:#181818;stroke-width:1.0;"/></g><!--link ListCourseGradesController to CourseEnrollmentRepository--><g id="link_ListCourseGradesController_CourseEnrollmentRepository"><path codeLine="118" d="M1806,380.7137 C1806,380.7137 1806,925.9837 1806,925.9837 " fill="none" id="ListCourseGradesController-to-CourseEnrollmentRepository" style="stroke:#181818;stroke-width:1.0;stroke-dasharray:7.0,7.0;"/><polygon fill="#181818" points="1806,930.9837,1810,921.9837,1806,925.9837,1802,921.9837,1806,930.9837" style="stroke:#181818;stroke-width:1.0;"/></g><!--link ListCourseGradesController to ListExamsService--><g id="link_ListCourseGradesController_ListExamsService"><path codeLine="119" d="M2083.5,380.8037 C2083.5,380.8037 2083.5,694.7937 2083.5,694.7937 " fill="none" id="ListCourseGradesController-to-ListExamsService" style="stroke:#181818;stroke-width:1.0;stroke-dasharray:7.0,7.0;"/><polygon fill="#181818" points="2083.5,699.7937,2087.5,690.7937,2083.5,694.7937,2079.5,690.7937,2083.5,699.7937" style="stroke:#181818;stroke-width:1.0;"/></g><!--link ListExamsService to ExamExecution--><g id="link_ListExamsService_ExamExecution"><path codeLine="121" d="M2586.83,773.2237 C2586.83,878.1037 2586.83,1171.5137 2586.83,1171.5137 C2586.83,1171.5137 2388.37,1171.5137 2388.37,1171.5137 " fill="none" id="ListExamsService-to-ExamExecution" style="stroke:#181818;stroke-width:1.0;stroke-dasharray:7.0,7.0;"/><polygon fill="#181818" points="2383.37,1171.5137,2392.37,1175.5137,2388.37,1171.5137,2392.37,1167.5137,2383.37,1171.5137" style="stroke:#181818;stroke-width:1.0;"/></g><!--link ListExamsService to Course--><g id="link_ListExamsService_Course"><path codeLine="122" d="M2620.17,773.1737 C2620.17,960.4437 2620.17,1801.5137 2620.17,1801.5137 C2620.17,1801.5137 1886.16,1801.5137 1886.16,1801.5137 " fill="none" id="ListExamsService-to-Course" style="stroke:#181818;stroke-width:1.0;stroke-dasharray:7.0,7.0;"/><polygon fill="#181818" points="1881.16,1801.5137,1890.16,1805.5137,1886.16,1801.5137,1890.16,1797.5137,1881.16,1801.5137" style="stroke:#181818;stroke-width:1.0;"/></g><!--link ListExamsService to ExamExecutionRepository--><g id="link_ListExamsService_ExamExecutionRepository"><path codeLine="123" d="M2302,773.2537 C2302,773.2537 2302,914.1537 2302,914.1537 " fill="none" id="ListExamsService-to-ExamExecutionRepository" style="stroke:#181818;stroke-width:1.0;stroke-dasharray:7.0,7.0;"/><polygon fill="#181818" points="2302,919.1537,2306,910.1537,2302,914.1537,2298,910.1537,2302,919.1537" style="stroke:#181818;stroke-width:1.0;"/></g><!--link PersistenceContext to RepositoryFactory--><g id="link_PersistenceContext_RepositoryFactory"><path codeLine="125" d="M1385.5,553.7537 C1385.5,553.7537 1385.5,648.1137 1385.5,648.1137 " fill="none" id="PersistenceContext-to-RepositoryFactory" style="stroke:#181818;stroke-width:1.0;"/><polygon fill="#181818" points="1385.5,653.1137,1389.5,644.1137,1385.5,648.1137,1381.5,644.1137,1385.5,653.1137" style="stroke:#181818;stroke-width:1.0;"/></g><!--link RepositoryFactory to TeacherRepository--><g id="link_RepositoryFactory_TeacherRepository"><path codeLine="126" d="M1242,819.8137 C1242,819.8137 1242,914.2437 1242,914.2437 " fill="none" id="RepositoryFactory-to-TeacherRepository" style="stroke:#181818;stroke-width:1.0;"/><polygon fill="#181818" points="1242,919.2437,1246,910.2437,1242,914.2437,1238,910.2437,1242,919.2437" style="stroke:#181818;stroke-width:1.0;"/></g><!--link RepositoryFactory to ExamExecutionRepository--><g id="link_RepositoryFactory_ExamExecutionRepository"><path codeLine="127" d="M1488.67,819.6237 C1488.67,869.5637 1488.67,923.5137 1488.67,923.5137 C1488.67,923.5137 1945.31,923.5137 1945.31,923.5137 " fill="none" id="RepositoryFactory-to-ExamExecutionRepository" style="stroke:#181818;stroke-width:1.0;"/><polygon fill="#181818" points="1950.31,923.5137,1941.31,919.5137,1945.31,923.5137,1941.31,927.5137,1950.31,923.5137" style="stroke:#181818;stroke-width:1.0;"/></g><!--link RepositoryFactory to ExamRepository--><g id="link_RepositoryFactory_ExamRepository"><path codeLine="128" d="M1014.42,736.5137 C916.97,736.5137 827,736.5137 827,736.5137 C827,736.5137 827,925.8337 827,925.8337 " fill="none" id="RepositoryFactory-to-ExamRepository" style="stroke:#181818;stroke-width:1.0;"/><polygon fill="#181818" points="827,930.8337,831,921.8337,827,925.8337,823,921.8337,827,930.8337" style="stroke:#181818;stroke-width:1.0;"/></g><!--link RepositoryFactory to CourseEnrollmentRepository--><g id="link_RepositoryFactory_CourseEnrollmentRepository"><path codeLine="129" d="M1481.83,819.6837 C1481.83,881.9837 1481.83,956.5137 1481.83,956.5137 C1481.83,956.5137 1544.36,956.5137 1544.36,956.5137 " fill="none" id="RepositoryFactory-to-CourseEnrollmentRepository" style="stroke:#181818;stroke-width:1.0;"/><polygon fill="#181818" points="1549.36,956.5137,1540.36,952.5137,1544.36,956.5137,1540.36,960.5137,1549.36,956.5137" style="stroke:#181818;stroke-width:1.0;"/></g><!--link TeacherRepository to Teacher--><g id="link_TeacherRepository_Teacher"><path codeLine="131" d="M1238,992.6537 C1238,992.6537 1238,1087.3237 1238,1087.3237 " fill="none" id="TeacherRepository-to-Teacher" style="stroke:#181818;stroke-width:1.0;"/><polygon fill="#181818" points="1238,1092.3237,1242,1083.3237,1238,1087.3237,1234,1083.3237,1238,1092.3237" style="stroke:#181818;stroke-width:1.0;"/></g><!--link CourseEnrollmentRepository to CourseEnrollment--><g id="link_CourseEnrollmentRepository_CourseEnrollment"><path codeLine="132" d="M1710,981.1037 C1710,981.1037 1710,1133.5937 1710,1133.5937 " fill="none" id="CourseEnrollmentRepository-to-CourseEnrollment" style="stroke:#181818;stroke-width:1.0;"/><polygon fill="#181818" points="1710,1138.5937,1714,1129.5937,1710,1133.5937,1706,1129.5937,1710,1138.5937" style="stroke:#181818;stroke-width:1.0;"/></g><!--link ExamRepository to Exam--><g id="link_ExamRepository_Exam"><path codeLine="133" d="M827,981.3437 C827,1087.1637 827,1488.5137 827,1488.5137 C827,1488.5137 1579.33,1488.5137 1579.33,1488.5137 " fill="none" id="ExamRepository-to-Exam" style="stroke:#181818;stroke-width:1.0;"/><polygon fill="#181818" points="1584.33,1488.5137,1575.33,1484.5137,1579.33,1488.5137,1575.33,1492.5137,1584.33,1488.5137" style="stroke:#181818;stroke-width:1.0;"/></g><!--link ExamExecutionRepository to ExamExecution--><g id="link_ExamExecutionRepository_ExamExecution"><path codeLine="134" d="M2252,992.6537 C2252,992.6537 2252,1110.9437 2252,1110.9437 " fill="none" id="ExamExecutionRepository-to-ExamExecution" style="stroke:#181818;stroke-width:1.0;"/><polygon fill="#181818" points="2252,1115.9437,2256,1106.9437,2252,1110.9437,2248,1106.9437,2252,1115.9437" style="stroke:#181818;stroke-width:1.0;"/></g><!--link CourseRepository to Course--><g id="link_CourseRepository_Course"><path codeLine="135" d="M335,992.6137 C335,1154.9037 335,1801.5137 335,1801.5137 C335,1801.5137 1577.83,1801.5137 1577.83,1801.5137 " fill="none" id="CourseRepository-to-Course" style="stroke:#181818;stroke-width:1.0;"/><polygon fill="#181818" points="1582.83,1801.5137,1573.83,1797.5137,1577.83,1801.5137,1573.83,1805.5137,1582.83,1801.5137" style="stroke:#181818;stroke-width:1.0;"/></g><!--link ExamExecution to Exam--><g id="link_ExamExecution_Exam"><path codeLine="137" d="M2120.78,1270.5137 C1966.74,1270.5137 1732,1270.5137 1732,1270.5137 C1732,1270.5137 1732,1400.4737 1732,1400.4737 " fill="none" id="ExamExecution-to-Exam" style="stroke:#181818;stroke-width:1.0;"/><polygon fill="#181818" points="1732,1405.4737,1736,1396.4737,1732,1400.4737,1728,1396.4737,1732,1405.4737" style="stroke:#181818;stroke-width:1.0;"/></g><!--link Exam to Course--><g id="link_Exam_Course"><path codeLine="138" d="M1732,1571.5737 C1732,1571.5737 1732,1666.4037 1732,1666.4037 " fill="none" id="Exam-to-Course" style="stroke:#181818;stroke-width:1.0;"/><polygon fill="#181818" points="1732,1671.4037,1736,1662.4037,1732,1666.4037,1728,1662.4037,1732,1671.4037" style="stroke:#181818;stroke-width:1.0;"/></g><!--SRC=[fLLTZ-8s57tthx3KbrcDMCrkNzfeXJGBJ3lIQZGgip_091UmnjYHRRPGjF-zzzf9i9C0gWeI9CVNvznFsxrBNGihTigKxr3n2jPYh_oJqNuf_m7- -O4nBxq2_WQYt8BbtwJpZlzXHGMEhuvyPlRM0P_mcHBEyRaK6wHZ2jQUUyEjt6mzhwI5qakZcJSrmIlZlTabk6iTuTeWCzJyjuS4j4A_4_Zf8KKtrkphPurkIIzq2VnJigYa1d-iWHlhjoPPG1xy9rMYI_bUZ8UledmdNbtDZ3AM__BuEtqJgnejn0RuYN7y3Epdlz8th8Kq-YDcRsLKnNuorkwTcvsG-iJAaBGsjyGu-G7MeMy5_sRqXW10K_LOLHQSA_WYUQDLBmwluWZsPRzRWItus-iBmUkzKYzY1mLVUYiZaTjYAlhWIc9wAk4HdEClGQAqHXzt1N-C3-Xuz3FMEiOzASFBSzKvsc4ph60YqU5lr4We0qvkT2X0N7K-o2zzr4T4Qb_mdTHBlwz0UvUYuf2ZfJ8Evca0268BbLRMFYHoVdw9gpxccrePPS5_QGemfHAbeIwqDKhjK2pMfkoXIVGJwD37kbQo306woByOMvkU6Oj6xwo_E62d1KsPQY3QPF5SmHv5O_Odu8HYFoowvz02STmQjvRnRPhBBWvGxiDud5go3ae3Ni56wfZucL2WAn4bOdN8m_3GSaHNw6r3XqV1dvGHdgH_TcFn5zJ6IM-i17TYM6-mQr5sXq-tV0oktQ-bhhuUmqJSXId9n-D3qMuabJDRlxOPxOXbJxOJRiZlcdQYtFJadv58h1HyYKJJd9toSLaxAyLuv97rBc-0L3RZ8FMkqDJxjEgMO7_84lB8_ZjnLyAamK-9LgI8ryOCZqNAVNFYzR8vbhR_5N7hsIiM1QjzrRNlpz6boYotvc_oPMMC0a47n_qMnuXkbMxuCdOwjfq7l8PQyWIYaE4GJv5xctHvSUxvuvCewI-ZRR2MSc0S6RCPTUJsXUvfZJkRV2dcDIpsMp_ix4OcCHcR8p9kfY9O3kOtjk98zZz-d5xfbqixicY7l4d3aVMmBhTs36jqOyCmu1iRhkJonix-9CVmizaUfcZKfBb0RczFd6CZJJwPZ6LisBfaDqpKkDqb_SlMDuskf9mDBvp4MNRb0XaZPhs3llMGNJhY1m6pmKLqrc4vJSwUslqB]--></g></svg>