<?xml version="1.0" encoding="UTF-8" standalone="no"?><svg xmlns="http://www.w3.org/2000/svg" xmlns:xlink="http://www.w3.org/1999/xlink" contentStyleType="text/css" height="768px" preserveAspectRatio="none" style="width:1419px;height:768px;background:#FFFFFF;" version="1.1" viewBox="0 0 1419 768" width="1419px" zoomAndPan="magnify"><defs/><g><text fill="#000000" font-family="sans-serif" font-size="14" font-weight="bold" lengthAdjust="spacing" textLength="141" x="638.25" y="27.9951">SD - Open Course</text><rect fill="#FFFFFF" height="526.9375" style="stroke:#181818;stroke-width:1.0;" width="10" x="46.5" y="135.5781"/><rect fill="#FFFFFF" height="497.6563" style="stroke:#181818;stroke-width:1.0;" width="10" x="365.5" y="164.8594"/><rect fill="#FFFFFF" height="186.4063" style="stroke:#181818;stroke-width:1.0;" width="10" x="648.5" y="202.1406"/><rect fill="#FFFFFF" height="74.5625" style="stroke:#181818;stroke-width:1.0;" width="10" x="648.5" y="550.6719"/><rect fill="#FFFFFF" height="111.8438" style="stroke:#181818;stroke-width:1.0;" width="10" x="931.5" y="239.4219"/><rect fill="#FFFFFF" height="37.2813" style="stroke:#181818;stroke-width:1.0;" width="10" x="1214.5" y="276.7031"/><line style="stroke:#181818;stroke-width:0.5;stroke-dasharray:5.0,5.0;" x1="51" x2="51" y1="125.5781" y2="680.5156"/><line style="stroke:#181818;stroke-width:0.5;stroke-dasharray:5.0,5.0;" x1="370" x2="370" y1="125.5781" y2="680.5156"/><line style="stroke:#181818;stroke-width:0.5;stroke-dasharray:5.0,5.0;" x1="653" x2="653" y1="125.5781" y2="680.5156"/><line style="stroke:#181818;stroke-width:0.5;stroke-dasharray:5.0,5.0;" x1="936.5" x2="936.5" y1="125.5781" y2="680.5156"/><line style="stroke:#181818;stroke-width:0.5;stroke-dasharray:5.0,5.0;" x1="1219.5" x2="1219.5" y1="125.5781" y2="680.5156"/><line style="stroke:#181818;stroke-width:0.5;stroke-dasharray:5.0,5.0;" x1="1368.5" x2="1368.5" y1="125.5781" y2="680.5156"/><text fill="#000000" font-family="sans-serif" font-size="20" lengthAdjust="spacing" textLength="87" x="5" y="120.8613">Manager</text><ellipse cx="51.5" cy="50.7969" fill="#E2E2F0" rx="8" ry="8" style="stroke:#181818;stroke-width:0.5;"/><path d="M51.5,58.7969 L51.5,85.7969 M38.5,66.7969 L64.5,66.7969 M51.5,85.7969 L38.5,100.7969 M51.5,85.7969 L64.5,100.7969 " fill="none" style="stroke:#181818;stroke-width:0.5;"/><text fill="#000000" font-family="sans-serif" font-size="20" lengthAdjust="spacing" textLength="87" x="5" y="698.0801">Manager</text><ellipse cx="51.5" cy="711.2969" fill="#E2E2F0" rx="8" ry="8" style="stroke:#181818;stroke-width:0.5;"/><path d="M51.5,719.2969 L51.5,746.2969 M38.5,727.2969 L64.5,727.2969 M51.5,746.2969 L38.5,761.2969 M51.5,746.2969 L64.5,761.2969 " fill="none" style="stroke:#181818;stroke-width:0.5;"/><rect fill="#E2E2F0" height="37.2813" rx="2.5" ry="2.5" style="stroke:#181818;stroke-width:0.5;" width="165" x="288" y="87.2969"/><text fill="#000000" font-family="sans-serif" font-size="20" lengthAdjust="spacing" textLength="151" x="295" y="112.8613">:OpenCourseUI</text><rect fill="#E2E2F0" height="37.2813" rx="2.5" ry="2.5" style="stroke:#181818;stroke-width:0.5;" width="165" x="288" y="679.5156"/><text fill="#000000" font-family="sans-serif" font-size="20" lengthAdjust="spacing" textLength="151" x="295" y="705.0801">:OpenCourseUI</text><rect fill="#E2E2F0" height="37.2813" rx="2.5" ry="2.5" style="stroke:#181818;stroke-width:0.5;" width="243" x="532" y="87.2969"/><text fill="#000000" font-family="sans-serif" font-size="20" lengthAdjust="spacing" textLength="229" x="539" y="112.8613">:OpenCourseController</text><rect fill="#E2E2F0" height="37.2813" rx="2.5" ry="2.5" style="stroke:#181818;stroke-width:0.5;" width="243" x="532" y="679.5156"/><text fill="#000000" font-family="sans-serif" font-size="20" lengthAdjust="spacing" textLength="229" x="539" y="705.0801">:OpenCourseController</text><rect fill="#E2E2F0" height="37.2813" rx="2.5" ry="2.5" style="stroke:#181818;stroke-width:0.5;" width="198" x="837.5" y="87.2969"/><text fill="#000000" font-family="sans-serif" font-size="20" lengthAdjust="spacing" textLength="184" x="844.5" y="112.8613">:ListCourseService</text><rect fill="#E2E2F0" height="37.2813" rx="2.5" ry="2.5" style="stroke:#181818;stroke-width:0.5;" width="198" x="837.5" y="679.5156"/><text fill="#000000" font-family="sans-serif" font-size="20" lengthAdjust="spacing" textLength="184" x="844.5" y="705.0801">:ListCourseService</text><text fill="#000000" font-family="sans-serif" font-size="20" lengthAdjust="spacing" textLength="182" x="1125.5" y="120.8613">:CourseRepository</text><path d="M1201.5,66.2969 C1201.5,56.2969 1219.5,56.2969 1219.5,56.2969 C1219.5,56.2969 1237.5,56.2969 1237.5,66.2969 L1237.5,92.2969 C1237.5,102.2969 1219.5,102.2969 1219.5,102.2969 C1219.5,102.2969 1201.5,102.2969 1201.5,92.2969 L1201.5,66.2969 " fill="#E2E2F0" style="stroke:#181818;stroke-width:1.5;"/><path d="M1201.5,66.2969 C1201.5,76.2969 1219.5,76.2969 1219.5,76.2969 C1219.5,76.2969 1237.5,76.2969 1237.5,66.2969 " fill="none" style="stroke:#181818;stroke-width:1.5;"/><text fill="#000000" font-family="sans-serif" font-size="20" lengthAdjust="spacing" textLength="182" x="1125.5" y="698.0801">:CourseRepository</text><path d="M1201.5,712.7969 C1201.5,702.7969 1219.5,702.7969 1219.5,702.7969 C1219.5,702.7969 1237.5,702.7969 1237.5,712.7969 L1237.5,738.7969 C1237.5,748.7969 1219.5,748.7969 1219.5,748.7969 C1219.5,748.7969 1201.5,748.7969 1201.5,738.7969 L1201.5,712.7969 " fill="#E2E2F0" style="stroke:#181818;stroke-width:1.5;"/><path d="M1201.5,712.7969 C1201.5,722.7969 1219.5,722.7969 1219.5,722.7969 C1219.5,722.7969 1237.5,722.7969 1237.5,712.7969 " fill="none" style="stroke:#181818;stroke-width:1.5;"/><rect fill="#E2E2F0" height="37.2813" rx="2.5" ry="2.5" style="stroke:#181818;stroke-width:0.5;" width="90" x="1323.5" y="87.2969"/><text fill="#000000" font-family="sans-serif" font-size="20" lengthAdjust="spacing" textLength="76" x="1330.5" y="112.8613">:Course</text><rect fill="#E2E2F0" height="37.2813" rx="2.5" ry="2.5" style="stroke:#181818;stroke-width:0.5;" width="90" x="1323.5" y="679.5156"/><text fill="#000000" font-family="sans-serif" font-size="20" lengthAdjust="spacing" textLength="76" x="1330.5" y="705.0801">:Course</text><rect fill="#FFFFFF" height="526.9375" style="stroke:#181818;stroke-width:1.0;" width="10" x="46.5" y="135.5781"/><rect fill="#FFFFFF" height="497.6563" style="stroke:#181818;stroke-width:1.0;" width="10" x="365.5" y="164.8594"/><rect fill="#FFFFFF" height="186.4063" style="stroke:#181818;stroke-width:1.0;" width="10" x="648.5" y="202.1406"/><rect fill="#FFFFFF" height="74.5625" style="stroke:#181818;stroke-width:1.0;" width="10" x="648.5" y="550.6719"/><rect fill="#FFFFFF" height="111.8438" style="stroke:#181818;stroke-width:1.0;" width="10" x="931.5" y="239.4219"/><rect fill="#FFFFFF" height="37.2813" style="stroke:#181818;stroke-width:1.0;" width="10" x="1214.5" y="276.7031"/><polygon fill="#181818" points="353.5,160.8594,363.5,164.8594,353.5,168.8594,357.5,164.8594" style="stroke:#181818;stroke-width:1.0;"/><line style="stroke:#181818;stroke-width:1.0;" x1="56.5" x2="359.5" y1="164.8594" y2="164.8594"/><text fill="#000000" font-family="sans-serif" font-size="20" font-weight="bold" lengthAdjust="spacing" textLength="14" x="63.5" y="158.1426">1</text><text fill="#000000" font-family="sans-serif" font-size="20" lengthAdjust="spacing" textLength="257" x="81.5" y="158.1426">select open course option</text><polygon fill="#181818" points="636.5,198.1406,646.5,202.1406,636.5,206.1406,640.5,202.1406" style="stroke:#181818;stroke-width:1.0;"/><line style="stroke:#181818;stroke-width:1.0;" x1="375.5" x2="642.5" y1="202.1406" y2="202.1406"/><text fill="#000000" font-family="sans-serif" font-size="20" font-weight="bold" lengthAdjust="spacing" textLength="14" x="382.5" y="195.4238">2</text><text fill="#000000" font-family="sans-serif" font-size="20" lengthAdjust="spacing" textLength="179" x="400.5" y="195.4238">listCloseCourses()</text><polygon fill="#181818" points="919.5,235.4219,929.5,239.4219,919.5,243.4219,923.5,239.4219" style="stroke:#181818;stroke-width:1.0;"/><line style="stroke:#181818;stroke-width:1.0;" x1="658.5" x2="925.5" y1="239.4219" y2="239.4219"/><text fill="#000000" font-family="sans-serif" font-size="20" font-weight="bold" lengthAdjust="spacing" textLength="14" x="665.5" y="232.7051">3</text><text fill="#000000" font-family="sans-serif" font-size="20" lengthAdjust="spacing" textLength="145" x="683.5" y="232.7051">openCourses()</text><polygon fill="#181818" points="1202.5,272.7031,1212.5,276.7031,1202.5,280.7031,1206.5,276.7031" style="stroke:#181818;stroke-width:1.0;"/><line style="stroke:#181818;stroke-width:1.0;" x1="941.5" x2="1208.5" y1="276.7031" y2="276.7031"/><text fill="#000000" font-family="sans-serif" font-size="20" font-weight="bold" lengthAdjust="spacing" textLength="14" x="948.5" y="269.9863">4</text><text fill="#000000" font-family="sans-serif" font-size="20" lengthAdjust="spacing" textLength="145" x="966.5" y="269.9863">openCourses()</text><polygon fill="#181818" points="952.5,309.9844,942.5,313.9844,952.5,317.9844,948.5,313.9844" style="stroke:#181818;stroke-width:1.0;"/><line style="stroke:#181818;stroke-width:1.0;stroke-dasharray:2.0,2.0;" x1="946.5" x2="1218.5" y1="313.9844" y2="313.9844"/><text fill="#000000" font-family="sans-serif" font-size="20" font-weight="bold" lengthAdjust="spacing" textLength="14" x="958.5" y="307.2676">5</text><text fill="#000000" font-family="sans-serif" font-size="20" lengthAdjust="spacing" textLength="231" x="976.5" y="307.2676">courses that are closed</text><polygon fill="#181818" points="669.5,347.2656,659.5,351.2656,669.5,355.2656,665.5,351.2656" style="stroke:#181818;stroke-width:1.0;"/><line style="stroke:#181818;stroke-width:1.0;stroke-dasharray:2.0,2.0;" x1="663.5" x2="935.5" y1="351.2656" y2="351.2656"/><text fill="#000000" font-family="sans-serif" font-size="20" font-weight="bold" lengthAdjust="spacing" textLength="14" x="675.5" y="344.5488">6</text><text fill="#000000" font-family="sans-serif" font-size="20" lengthAdjust="spacing" textLength="231" x="693.5" y="344.5488">courses that are closed</text><polygon fill="#181818" points="386.5,384.5469,376.5,388.5469,386.5,392.5469,382.5,388.5469" style="stroke:#181818;stroke-width:1.0;"/><line style="stroke:#181818;stroke-width:1.0;stroke-dasharray:2.0,2.0;" x1="380.5" x2="652.5" y1="388.5469" y2="388.5469"/><text fill="#000000" font-family="sans-serif" font-size="20" font-weight="bold" lengthAdjust="spacing" textLength="14" x="392.5" y="381.8301">7</text><text fill="#000000" font-family="sans-serif" font-size="20" lengthAdjust="spacing" textLength="231" x="410.5" y="381.8301">courses that are closed</text><line style="stroke:#181818;stroke-width:1.0;" x1="375.5" x2="417.5" y1="425.8281" y2="425.8281"/><line style="stroke:#181818;stroke-width:1.0;" x1="417.5" x2="417.5" y1="425.8281" y2="438.8281"/><line style="stroke:#181818;stroke-width:1.0;" x1="376.5" x2="417.5" y1="438.8281" y2="438.8281"/><polygon fill="#181818" points="386.5,434.8281,376.5,438.8281,386.5,442.8281,382.5,438.8281" style="stroke:#181818;stroke-width:1.0;"/><text fill="#000000" font-family="sans-serif" font-size="20" font-weight="bold" lengthAdjust="spacing" textLength="14" x="382.5" y="419.1113">8</text><text fill="#000000" font-family="sans-serif" font-size="20" lengthAdjust="spacing" textLength="152" x="400.5" y="419.1113">output Courses</text><polygon fill="#181818" points="67.5,472.1094,57.5,476.1094,67.5,480.1094,63.5,476.1094" style="stroke:#181818;stroke-width:1.0;"/><line style="stroke:#181818;stroke-width:1.0;stroke-dasharray:2.0,2.0;" x1="61.5" x2="364.5" y1="476.1094" y2="476.1094"/><text fill="#000000" font-family="sans-serif" font-size="20" font-weight="bold" lengthAdjust="spacing" textLength="14" x="73.5" y="469.3926">9</text><text fill="#000000" font-family="sans-serif" font-size="20" lengthAdjust="spacing" textLength="267" x="91.5" y="469.3926">ask user to select a Course</text><polygon fill="#181818" points="353.5,509.3906,363.5,513.3906,353.5,517.3906,357.5,513.3906" style="stroke:#181818;stroke-width:1.0;"/><line style="stroke:#181818;stroke-width:1.0;stroke-dasharray:2.0,2.0;" x1="56.5" x2="359.5" y1="513.3906" y2="513.3906"/><text fill="#000000" font-family="sans-serif" font-size="20" font-weight="bold" lengthAdjust="spacing" textLength="28" x="63.5" y="506.6738">10</text><text fill="#000000" font-family="sans-serif" font-size="20" lengthAdjust="spacing" textLength="134" x="95.5" y="506.6738">select Course</text><polygon fill="#181818" points="636.5,546.6719,646.5,550.6719,636.5,554.6719,640.5,550.6719" style="stroke:#181818;stroke-width:1.0;"/><line style="stroke:#181818;stroke-width:1.0;" x1="375.5" x2="642.5" y1="550.6719" y2="550.6719"/><text fill="#000000" font-family="sans-serif" font-size="20" font-weight="bold" lengthAdjust="spacing" textLength="28" x="382.5" y="543.9551">11</text><text fill="#000000" font-family="sans-serif" font-size="20" lengthAdjust="spacing" textLength="201" x="414.5" y="543.9551">openCourse(course)</text><polygon fill="#181818" points="1356.5,583.9531,1366.5,587.9531,1356.5,591.9531,1360.5,587.9531" style="stroke:#181818;stroke-width:1.0;"/><line style="stroke:#181818;stroke-width:1.0;" x1="658.5" x2="1362.5" y1="587.9531" y2="587.9531"/><text fill="#000000" font-family="sans-serif" font-size="20" font-weight="bold" lengthAdjust="spacing" textLength="28" x="665.5" y="581.2363">12</text><text fill="#000000" font-family="sans-serif" font-size="20" lengthAdjust="spacing" textLength="135" x="697.5" y="581.2363">openCourse()</text><polygon fill="#181818" points="1207.5,621.2344,1217.5,625.2344,1207.5,629.2344,1211.5,625.2344" style="stroke:#181818;stroke-width:1.0;"/><line style="stroke:#181818;stroke-width:1.0;" x1="653.5" x2="1213.5" y1="625.2344" y2="625.2344"/><text fill="#000000" font-family="sans-serif" font-size="20" font-weight="bold" lengthAdjust="spacing" textLength="28" x="660.5" y="618.5176">13</text><text fill="#000000" font-family="sans-serif" font-size="20" lengthAdjust="spacing" textLength="127" x="692.5" y="618.5176">save(course)</text><polygon fill="#181818" points="62.5,658.5156,52.5,662.5156,62.5,666.5156,58.5,662.5156" style="stroke:#181818;stroke-width:1.0;"/><line style="stroke:#181818;stroke-width:1.0;stroke-dasharray:2.0,2.0;" x1="56.5" x2="369.5" y1="662.5156" y2="662.5156"/><text fill="#000000" font-family="sans-serif" font-size="20" font-weight="bold" lengthAdjust="spacing" textLength="28" x="68.5" y="655.7988">14</text><text fill="#000000" font-family="sans-serif" font-size="20" lengthAdjust="spacing" textLength="138" x="100.5" y="655.7988">back to menu</text><!--SRC=[bLD1Rjim4Bph5OjSwXnS5pdga4k20WLQ5AYH1wofJKAO8bLoQI1vVNP5MP5arsbuegIPuSvmbFRMTnYnTS7igO667Z4x_XuyR-qhmSstwiipSvVgpQPpw3ctxgi9xIRHtqpUqBgn-2JygiBCmUTsHx5YouvWUmzh-DsHXxkGOw8A3OS8lz3Z4qN016tPLZ81MsCxqOUhMYc5yV3ZIc7P_XDn9uF6u1p57caukWNsfqrSi5kA1ske1wQ3gHfat64Y0HN07-f2iZBZIu-9yhWGAxXoLF6afkm1cKOp0CSjh6zbzXeIEJ8CGQCeDDcp3LwnC0g8JHXMjifLDpKuDU22UbLgMbsFi97Q-uR9qXSg8Jxh_k1Jyan0yu35adSgeJ5SqfZfz9d1cQKVO3rCL498mC_8W57cLt_D2R6XoyBzX6DG_wCwKLnQBf6LA_j8QY8pYxxSczvvoDnb7fgVPW1130MffKXxo4cgmk5O4pp-BaVEsAOYFS06qDdAl5_MgZZvJ6KAOoPoVHPOYf7mS7hAfNoczdTezcgz9P-h1L5-XydJG7a3]--></g></svg>