<?xml version="1.0" encoding="UTF-8" standalone="no"?><svg xmlns="http://www.w3.org/2000/svg" xmlns:xlink="http://www.w3.org/1999/xlink" contentStyleType="text/css" height="768px" preserveAspectRatio="none" style="width:1377px;height:768px;background:#FFFFFF;" version="1.1" viewBox="0 0 1377 768" width="1377px" zoomAndPan="magnify"><defs/><g><text fill="#000000" font-family="sans-serif" font-size="14" font-weight="bold" lengthAdjust="spacing" textLength="143" x="616.25" y="27.9951">SD - Close Course</text><rect fill="#FFFFFF" height="526.9375" style="stroke:#181818;stroke-width:1.0;" width="10" x="46.5" y="135.5781"/><rect fill="#FFFFFF" height="497.6563" style="stroke:#181818;stroke-width:1.0;" width="10" x="365.5" y="164.8594"/><rect fill="#FFFFFF" height="186.4063" style="stroke:#181818;stroke-width:1.0;" width="10" x="634.5" y="202.1406"/><rect fill="#FFFFFF" height="74.5625" style="stroke:#181818;stroke-width:1.0;" width="10" x="634.5" y="550.6719"/><rect fill="#FFFFFF" height="111.8438" style="stroke:#181818;stroke-width:1.0;" width="10" x="903.5" y="239.4219"/><rect fill="#FFFFFF" height="37.2813" style="stroke:#181818;stroke-width:1.0;" width="10" x="1172.5" y="276.7031"/><line style="stroke:#181818;stroke-width:0.5;stroke-dasharray:5.0,5.0;" x1="51" x2="51" y1="125.5781" y2="680.5156"/><line style="stroke:#181818;stroke-width:0.5;stroke-dasharray:5.0,5.0;" x1="370" x2="370" y1="125.5781" y2="680.5156"/><line style="stroke:#181818;stroke-width:0.5;stroke-dasharray:5.0,5.0;" x1="639" x2="639" y1="125.5781" y2="680.5156"/><line style="stroke:#181818;stroke-width:0.5;stroke-dasharray:5.0,5.0;" x1="908.5" x2="908.5" y1="125.5781" y2="680.5156"/><line style="stroke:#181818;stroke-width:0.5;stroke-dasharray:5.0,5.0;" x1="1177.5" x2="1177.5" y1="125.5781" y2="680.5156"/><line style="stroke:#181818;stroke-width:0.5;stroke-dasharray:5.0,5.0;" x1="1326.5" x2="1326.5" y1="125.5781" y2="680.5156"/><text fill="#000000" font-family="sans-serif" font-size="20" lengthAdjust="spacing" textLength="87" x="5" y="120.8613">Manager</text><ellipse cx="51.5" cy="50.7969" fill="#E2E2F0" rx="8" ry="8" style="stroke:#181818;stroke-width:0.5;"/><path d="M51.5,58.7969 L51.5,85.7969 M38.5,66.7969 L64.5,66.7969 M51.5,85.7969 L38.5,100.7969 M51.5,85.7969 L64.5,100.7969 " fill="none" style="stroke:#181818;stroke-width:0.5;"/><text fill="#000000" font-family="sans-serif" font-size="20" lengthAdjust="spacing" textLength="87" x="5" y="698.0801">Manager</text><ellipse cx="51.5" cy="711.2969" fill="#E2E2F0" rx="8" ry="8" style="stroke:#181818;stroke-width:0.5;"/><path d="M51.5,719.2969 L51.5,746.2969 M38.5,727.2969 L64.5,727.2969 M51.5,746.2969 L38.5,761.2969 M51.5,746.2969 L64.5,761.2969 " fill="none" style="stroke:#181818;stroke-width:0.5;"/><rect fill="#E2E2F0" height="37.2813" rx="2.5" ry="2.5" style="stroke:#181818;stroke-width:0.5;" width="165" x="288" y="87.2969"/><text fill="#000000" font-family="sans-serif" font-size="20" lengthAdjust="spacing" textLength="151" x="295" y="112.8613">:CloseCourseUI</text><rect fill="#E2E2F0" height="37.2813" rx="2.5" ry="2.5" style="stroke:#181818;stroke-width:0.5;" width="165" x="288" y="679.5156"/><text fill="#000000" font-family="sans-serif" font-size="20" lengthAdjust="spacing" textLength="151" x="295" y="705.0801">:CloseCourseUI</text><rect fill="#E2E2F0" height="37.2813" rx="2.5" ry="2.5" style="stroke:#181818;stroke-width:0.5;" width="243" x="518" y="87.2969"/><text fill="#000000" font-family="sans-serif" font-size="20" lengthAdjust="spacing" textLength="229" x="525" y="112.8613">:CloseCourseController</text><rect fill="#E2E2F0" height="37.2813" rx="2.5" ry="2.5" style="stroke:#181818;stroke-width:0.5;" width="243" x="518" y="679.5156"/><text fill="#000000" font-family="sans-serif" font-size="20" lengthAdjust="spacing" textLength="229" x="525" y="705.0801">:CloseCourseController</text><rect fill="#E2E2F0" height="37.2813" rx="2.5" ry="2.5" style="stroke:#181818;stroke-width:0.5;" width="198" x="809.5" y="87.2969"/><text fill="#000000" font-family="sans-serif" font-size="20" lengthAdjust="spacing" textLength="184" x="816.5" y="112.8613">:ListCourseService</text><rect fill="#E2E2F0" height="37.2813" rx="2.5" ry="2.5" style="stroke:#181818;stroke-width:0.5;" width="198" x="809.5" y="679.5156"/><text fill="#000000" font-family="sans-serif" font-size="20" lengthAdjust="spacing" textLength="184" x="816.5" y="705.0801">:ListCourseService</text><text fill="#000000" font-family="sans-serif" font-size="20" lengthAdjust="spacing" textLength="182" x="1083.5" y="120.8613">:CourseRepository</text><path d="M1159.5,66.2969 C1159.5,56.2969 1177.5,56.2969 1177.5,56.2969 C1177.5,56.2969 1195.5,56.2969 1195.5,66.2969 L1195.5,92.2969 C1195.5,102.2969 1177.5,102.2969 1177.5,102.2969 C1177.5,102.2969 1159.5,102.2969 1159.5,92.2969 L1159.5,66.2969 " fill="#E2E2F0" style="stroke:#181818;stroke-width:1.5;"/><path d="M1159.5,66.2969 C1159.5,76.2969 1177.5,76.2969 1177.5,76.2969 C1177.5,76.2969 1195.5,76.2969 1195.5,66.2969 " fill="none" style="stroke:#181818;stroke-width:1.5;"/><text fill="#000000" font-family="sans-serif" font-size="20" lengthAdjust="spacing" textLength="182" x="1083.5" y="698.0801">:CourseRepository</text><path d="M1159.5,712.7969 C1159.5,702.7969 1177.5,702.7969 1177.5,702.7969 C1177.5,702.7969 1195.5,702.7969 1195.5,712.7969 L1195.5,738.7969 C1195.5,748.7969 1177.5,748.7969 1177.5,748.7969 C1177.5,748.7969 1159.5,748.7969 1159.5,738.7969 L1159.5,712.7969 " fill="#E2E2F0" style="stroke:#181818;stroke-width:1.5;"/><path d="M1159.5,712.7969 C1159.5,722.7969 1177.5,722.7969 1177.5,722.7969 C1177.5,722.7969 1195.5,722.7969 1195.5,712.7969 " fill="none" style="stroke:#181818;stroke-width:1.5;"/><rect fill="#E2E2F0" height="37.2813" rx="2.5" ry="2.5" style="stroke:#181818;stroke-width:0.5;" width="90" x="1281.5" y="87.2969"/><text fill="#000000" font-family="sans-serif" font-size="20" lengthAdjust="spacing" textLength="76" x="1288.5" y="112.8613">:Course</text><rect fill="#E2E2F0" height="37.2813" rx="2.5" ry="2.5" style="stroke:#181818;stroke-width:0.5;" width="90" x="1281.5" y="679.5156"/><text fill="#000000" font-family="sans-serif" font-size="20" lengthAdjust="spacing" textLength="76" x="1288.5" y="705.0801">:Course</text><rect fill="#FFFFFF" height="526.9375" style="stroke:#181818;stroke-width:1.0;" width="10" x="46.5" y="135.5781"/><rect fill="#FFFFFF" height="497.6563" style="stroke:#181818;stroke-width:1.0;" width="10" x="365.5" y="164.8594"/><rect fill="#FFFFFF" height="186.4063" style="stroke:#181818;stroke-width:1.0;" width="10" x="634.5" y="202.1406"/><rect fill="#FFFFFF" height="74.5625" style="stroke:#181818;stroke-width:1.0;" width="10" x="634.5" y="550.6719"/><rect fill="#FFFFFF" height="111.8438" style="stroke:#181818;stroke-width:1.0;" width="10" x="903.5" y="239.4219"/><rect fill="#FFFFFF" height="37.2813" style="stroke:#181818;stroke-width:1.0;" width="10" x="1172.5" y="276.7031"/><polygon fill="#181818" points="353.5,160.8594,363.5,164.8594,353.5,168.8594,357.5,164.8594" style="stroke:#181818;stroke-width:1.0;"/><line style="stroke:#181818;stroke-width:1.0;" x1="56.5" x2="359.5" y1="164.8594" y2="164.8594"/><text fill="#000000" font-family="sans-serif" font-size="20" font-weight="bold" lengthAdjust="spacing" textLength="14" x="63.5" y="158.1426">1</text><text fill="#000000" font-family="sans-serif" font-size="20" lengthAdjust="spacing" textLength="258" x="81.5" y="158.1426">select close course option</text><polygon fill="#181818" points="622.5,198.1406,632.5,202.1406,622.5,206.1406,626.5,202.1406" style="stroke:#181818;stroke-width:1.0;"/><line style="stroke:#181818;stroke-width:1.0;" x1="375.5" x2="628.5" y1="202.1406" y2="202.1406"/><text fill="#000000" font-family="sans-serif" font-size="20" font-weight="bold" lengthAdjust="spacing" textLength="14" x="382.5" y="195.4238">2</text><text fill="#000000" font-family="sans-serif" font-size="20" lengthAdjust="spacing" textLength="179" x="400.5" y="195.4238">listOpenCourses()</text><polygon fill="#181818" points="891.5,235.4219,901.5,239.4219,891.5,243.4219,895.5,239.4219" style="stroke:#181818;stroke-width:1.0;"/><line style="stroke:#181818;stroke-width:1.0;" x1="644.5" x2="897.5" y1="239.4219" y2="239.4219"/><text fill="#000000" font-family="sans-serif" font-size="20" font-weight="bold" lengthAdjust="spacing" textLength="14" x="651.5" y="232.7051">3</text><text fill="#000000" font-family="sans-serif" font-size="20" lengthAdjust="spacing" textLength="146" x="669.5" y="232.7051">closeCourses()</text><polygon fill="#181818" points="1160.5,272.7031,1170.5,276.7031,1160.5,280.7031,1164.5,276.7031" style="stroke:#181818;stroke-width:1.0;"/><line style="stroke:#181818;stroke-width:1.0;" x1="913.5" x2="1166.5" y1="276.7031" y2="276.7031"/><text fill="#000000" font-family="sans-serif" font-size="20" font-weight="bold" lengthAdjust="spacing" textLength="14" x="920.5" y="269.9863">4</text><text fill="#000000" font-family="sans-serif" font-size="20" lengthAdjust="spacing" textLength="146" x="938.5" y="269.9863">closeCourses()</text><polygon fill="#181818" points="924.5,309.9844,914.5,313.9844,924.5,317.9844,920.5,313.9844" style="stroke:#181818;stroke-width:1.0;"/><line style="stroke:#181818;stroke-width:1.0;stroke-dasharray:2.0,2.0;" x1="918.5" x2="1176.5" y1="313.9844" y2="313.9844"/><text fill="#000000" font-family="sans-serif" font-size="20" font-weight="bold" lengthAdjust="spacing" textLength="14" x="930.5" y="307.2676">5</text><text fill="#000000" font-family="sans-serif" font-size="20" lengthAdjust="spacing" textLength="217" x="948.5" y="307.2676">courses that are open</text><polygon fill="#181818" points="655.5,347.2656,645.5,351.2656,655.5,355.2656,651.5,351.2656" style="stroke:#181818;stroke-width:1.0;"/><line style="stroke:#181818;stroke-width:1.0;stroke-dasharray:2.0,2.0;" x1="649.5" x2="907.5" y1="351.2656" y2="351.2656"/><text fill="#000000" font-family="sans-serif" font-size="20" font-weight="bold" lengthAdjust="spacing" textLength="14" x="661.5" y="344.5488">6</text><text fill="#000000" font-family="sans-serif" font-size="20" lengthAdjust="spacing" textLength="217" x="679.5" y="344.5488">courses that are open</text><polygon fill="#181818" points="386.5,384.5469,376.5,388.5469,386.5,392.5469,382.5,388.5469" style="stroke:#181818;stroke-width:1.0;"/><line style="stroke:#181818;stroke-width:1.0;stroke-dasharray:2.0,2.0;" x1="380.5" x2="638.5" y1="388.5469" y2="388.5469"/><text fill="#000000" font-family="sans-serif" font-size="20" font-weight="bold" lengthAdjust="spacing" textLength="14" x="392.5" y="381.8301">7</text><text fill="#000000" font-family="sans-serif" font-size="20" lengthAdjust="spacing" textLength="217" x="410.5" y="381.8301">courses that are open</text><line style="stroke:#181818;stroke-width:1.0;" x1="375.5" x2="417.5" y1="425.8281" y2="425.8281"/><line style="stroke:#181818;stroke-width:1.0;" x1="417.5" x2="417.5" y1="425.8281" y2="438.8281"/><line style="stroke:#181818;stroke-width:1.0;" x1="376.5" x2="417.5" y1="438.8281" y2="438.8281"/><polygon fill="#181818" points="386.5,434.8281,376.5,438.8281,386.5,442.8281,382.5,438.8281" style="stroke:#181818;stroke-width:1.0;"/><text fill="#000000" font-family="sans-serif" font-size="20" font-weight="bold" lengthAdjust="spacing" textLength="14" x="382.5" y="419.1113">8</text><text fill="#000000" font-family="sans-serif" font-size="20" lengthAdjust="spacing" textLength="152" x="400.5" y="419.1113">output Courses</text><polygon fill="#181818" points="67.5,472.1094,57.5,476.1094,67.5,480.1094,63.5,476.1094" style="stroke:#181818;stroke-width:1.0;"/><line style="stroke:#181818;stroke-width:1.0;stroke-dasharray:2.0,2.0;" x1="61.5" x2="364.5" y1="476.1094" y2="476.1094"/><text fill="#000000" font-family="sans-serif" font-size="20" font-weight="bold" lengthAdjust="spacing" textLength="14" x="73.5" y="469.3926">9</text><text fill="#000000" font-family="sans-serif" font-size="20" lengthAdjust="spacing" textLength="267" x="91.5" y="469.3926">ask user to select a Course</text><polygon fill="#181818" points="353.5,509.3906,363.5,513.3906,353.5,517.3906,357.5,513.3906" style="stroke:#181818;stroke-width:1.0;"/><line style="stroke:#181818;stroke-width:1.0;stroke-dasharray:2.0,2.0;" x1="56.5" x2="359.5" y1="513.3906" y2="513.3906"/><text fill="#000000" font-family="sans-serif" font-size="20" font-weight="bold" lengthAdjust="spacing" textLength="28" x="63.5" y="506.6738">10</text><text fill="#000000" font-family="sans-serif" font-size="20" lengthAdjust="spacing" textLength="134" x="95.5" y="506.6738">select Course</text><polygon fill="#181818" points="622.5,546.6719,632.5,550.6719,622.5,554.6719,626.5,550.6719" style="stroke:#181818;stroke-width:1.0;"/><line style="stroke:#181818;stroke-width:1.0;" x1="375.5" x2="628.5" y1="550.6719" y2="550.6719"/><text fill="#000000" font-family="sans-serif" font-size="20" font-weight="bold" lengthAdjust="spacing" textLength="28" x="382.5" y="543.9551">11</text><text fill="#000000" font-family="sans-serif" font-size="20" lengthAdjust="spacing" textLength="202" x="414.5" y="543.9551">closeCourse(course)</text><polygon fill="#181818" points="1314.5,583.9531,1324.5,587.9531,1314.5,591.9531,1318.5,587.9531" style="stroke:#181818;stroke-width:1.0;"/><line style="stroke:#181818;stroke-width:1.0;" x1="644.5" x2="1320.5" y1="587.9531" y2="587.9531"/><text fill="#000000" font-family="sans-serif" font-size="20" font-weight="bold" lengthAdjust="spacing" textLength="28" x="651.5" y="581.2363">12</text><text fill="#000000" font-family="sans-serif" font-size="20" lengthAdjust="spacing" textLength="136" x="683.5" y="581.2363">closeCourse()</text><polygon fill="#181818" points="1165.5,621.2344,1175.5,625.2344,1165.5,629.2344,1169.5,625.2344" style="stroke:#181818;stroke-width:1.0;"/><line style="stroke:#181818;stroke-width:1.0;" x1="639.5" x2="1171.5" y1="625.2344" y2="625.2344"/><text fill="#000000" font-family="sans-serif" font-size="20" font-weight="bold" lengthAdjust="spacing" textLength="28" x="646.5" y="618.5176">13</text><text fill="#000000" font-family="sans-serif" font-size="20" lengthAdjust="spacing" textLength="127" x="678.5" y="618.5176">save(course)</text><polygon fill="#181818" points="62.5,658.5156,52.5,662.5156,62.5,666.5156,58.5,662.5156" style="stroke:#181818;stroke-width:1.0;"/><line style="stroke:#181818;stroke-width:1.0;stroke-dasharray:2.0,2.0;" x1="56.5" x2="369.5" y1="662.5156" y2="662.5156"/><text fill="#000000" font-family="sans-serif" font-size="20" font-weight="bold" lengthAdjust="spacing" textLength="28" x="68.5" y="655.7988">14</text><text fill="#000000" font-family="sans-serif" font-size="20" lengthAdjust="spacing" textLength="138" x="100.5" y="655.7988">back to menu</text><!--SRC=[bLD1JiCm4Bpd5IikmA4KSSo1In4I4WY9YWTidGMiEdQmrvNWzQpjD4hIKeHFZZCpkpDUXwss7NfiZLDRQg2XDuo6xvtbjVuckBckpZ-Okr0lbvr1ox4rLygroq2VaQoYHQFnNVXLXP6TZUs6VCMQ3S7w3XQmCYuGh5pqWIfKx3myeSLtye01shAjf0NMIdTI0Cxgp2cKruUpX8lwTyXAUlNE6F8PgjYR6VXH1oxODVcTLfI1OQUg1XatA0sAOWQyKEU2bYw_CiRBvxnonfLInLMofNV8DDW1s6zXSIlDrn38a69GEOt20zUnTZQ1OL0Gez2lg1CvsQd1Y8FdZcmf7Yuk1zJ0pBvXjD91KX2VTIbyo9uef41WjkGiQQGSJefCX79gS6Ib7x3eUoef1E0FP42VyY1xG6lej6nkSCZfRysHtjnl2QnSs6cXaSWazd9bwRvTv2voF_TX0X14Fnor3D4MOf0nORSV4Tm_bZrdcAGYtSDwqD5f6TtJHJ7odtafZAdAvL5acOg0kyCofn8Q1x11jKtcMxAncX7bBOo-UieF]--></g></svg>