<?xml version="1.0" encoding="UTF-8" standalone="no"?><svg xmlns="http://www.w3.org/2000/svg" xmlns:xlink="http://www.w3.org/1999/xlink" contentStyleType="text/css" height="1053px" preserveAspectRatio="none" style="width:680px;height:1053px;background:#FFFFFF;" version="1.1" viewBox="0 0 680 1053" width="680px" zoomAndPan="magnify"><defs/><g><text fill="#000000" font-family="sans-serif" font-size="14" font-weight="bold" lengthAdjust="spacing" textLength="233" x="216.66" y="22.9951">Class Diagram - Close Course</text><!--cluster presentation--><g id="cluster_presentation"><path d="M113.5,44.5137 L261.5,44.5137 A3.75,3.75 0 0 1 264,47.0137 L271,73.7949 L318.5,73.7949 A2.5,2.5 0 0 1 321,76.2949 L321,173.0137 A2.5,2.5 0 0 1 318.5,175.5137 L113.5,175.5137 A2.5,2.5 0 0 1 111,173.0137 L111,47.0137 A2.5,2.5 0 0 1 113.5,44.5137 " fill="none" style="stroke:#000000;stroke-width:1.5;"/><line style="stroke:#000000;stroke-width:1.5;" x1="111" x2="271" y1="73.7949" y2="73.7949"/><text fill="#000000" font-family="sans-serif" font-size="20" font-weight="bold" lengthAdjust="spacing" textLength="147" x="115" y="65.0781">presentation</text></g><!--cluster application--><g id="cluster_application"><path d="M8.5,199.5137 L136.5,199.5137 A3.75,3.75 0 0 1 139,202.0137 L146,228.7949 L423.5,228.7949 A2.5,2.5 0 0 1 426,231.2949 L426,555.0137 A2.5,2.5 0 0 1 423.5,557.5137 L8.5,557.5137 A2.5,2.5 0 0 1 6,555.0137 L6,202.0137 A2.5,2.5 0 0 1 8.5,199.5137 " fill="none" style="stroke:#000000;stroke-width:1.5;"/><line style="stroke:#000000;stroke-width:1.5;" x1="6" x2="146" y1="228.7949" y2="228.7949"/><text fill="#000000" font-family="sans-serif" font-size="20" font-weight="bold" lengthAdjust="spacing" textLength="127" x="10" y="220.0781">application</text></g><!--cluster domain--><g id="cluster_domain"><path d="M452.5,403.0137 L537.5,403.0137 A3.75,3.75 0 0 1 540,405.5137 L547,432.2949 L623.5,432.2949 A2.5,2.5 0 0 1 626,434.7949 L626,531.5137 A2.5,2.5 0 0 1 623.5,534.0137 L452.5,534.0137 A2.5,2.5 0 0 1 450,531.5137 L450,405.5137 A2.5,2.5 0 0 1 452.5,403.0137 " fill="none" style="stroke:#000000;stroke-width:1.5;"/><line style="stroke:#000000;stroke-width:1.5;" x1="450" x2="547" y1="432.2949" y2="432.2949"/><text fill="#000000" font-family="sans-serif" font-size="20" font-weight="bold" lengthAdjust="spacing" textLength="84" x="454" y="423.5781">domain</text></g><!--cluster persistence--><g id="cluster_persistence"><path d="M115.5,760.5137 L249.5,760.5137 A3.75,3.75 0 0 1 252,763.0137 L259,789.7949 L496.5,789.7949 A2.5,2.5 0 0 1 499,792.2949 L499,889.0137 A2.5,2.5 0 0 1 496.5,891.5137 L115.5,891.5137 A2.5,2.5 0 0 1 113,889.0137 L113,763.0137 A2.5,2.5 0 0 1 115.5,760.5137 " fill="none" style="stroke:#000000;stroke-width:1.5;"/><line style="stroke:#000000;stroke-width:1.5;" x1="113" x2="259" y1="789.7949" y2="789.7949"/><text fill="#000000" font-family="sans-serif" font-size="20" font-weight="bold" lengthAdjust="spacing" textLength="133" x="117" y="781.0781">persistence</text></g><!--cluster factory--><g id="cluster_factory"><path d="M58.5,915.5137 L141.5,915.5137 A3.75,3.75 0 0 1 144,918.0137 L151,944.7949 L553.5,944.7949 A2.5,2.5 0 0 1 556,947.2949 L556,1044.0137 A2.5,2.5 0 0 1 553.5,1046.5137 L58.5,1046.5137 A2.5,2.5 0 0 1 56,1044.0137 L56,918.0137 A2.5,2.5 0 0 1 58.5,915.5137 " fill="none" style="stroke:#000000;stroke-width:1.5;"/><line style="stroke:#000000;stroke-width:1.5;" x1="56" x2="151" y1="944.7949" y2="944.7949"/><text fill="#000000" font-family="sans-serif" font-size="20" font-weight="bold" lengthAdjust="spacing" textLength="82" x="60" y="936.0781">factory</text></g><!--cluster repositories--><g id="cluster_repositories"><path d="M94.5,581.5137 L233.5,581.5137 A3.75,3.75 0 0 1 236,584.0137 L243,610.7949 L517.5,610.7949 A2.5,2.5 0 0 1 520,613.2949 L520,734.0137 A2.5,2.5 0 0 1 517.5,736.5137 L94.5,736.5137 A2.5,2.5 0 0 1 92,734.0137 L92,584.0137 A2.5,2.5 0 0 1 94.5,581.5137 " fill="none" style="stroke:#000000;stroke-width:1.5;"/><line style="stroke:#000000;stroke-width:1.5;" x1="92" x2="243" y1="610.7949" y2="610.7949"/><text fill="#000000" font-family="sans-serif" font-size="20" font-weight="bold" lengthAdjust="spacing" textLength="138" x="96" y="602.0781">repositories</text></g><!--class CloseCourseUI--><g id="elem_CloseCourseUI"><rect codeLine="4" fill="#F1F1F1" height="73.2813" id="CloseCourseUI" rx="2.5" ry="2.5" style="stroke:#181818;stroke-width:0.5;" width="178" x="127" y="86.5137"/><ellipse cx="143" cy="103.5137" fill="#ADD1B2" rx="12" ry="12" style="stroke:#181818;stroke-width:1.0;"/><path d="M146.0625,110.5918 Q145.375,110.9512 144.625,111.123 Q143.875,111.2949 143.0469,111.2949 Q140.0938,111.2949 138.5313,109.3574 Q136.9844,107.4043 136.9844,103.7324 Q136.9844,100.0605 138.5313,98.123 Q140.0938,96.1699 143.0469,96.1699 Q143.875,96.1699 144.625,96.3418 Q145.3906,96.5137 146.0625,96.873 L146.0625,100.0762 Q145.3125,99.3887 144.6094,99.0762 Q143.9219,98.7637 143.1719,98.7637 Q141.5938,98.7637 140.7813,100.0137 Q139.9844,101.2637 139.9844,103.7324 Q139.9844,106.2012 140.7813,107.4512 Q141.5938,108.7012 143.1719,108.7012 Q143.9219,108.7012 144.6094,108.3887 Q145.3125,108.0762 146.0625,107.3887 L146.0625,110.5918 Z " fill="#000000"/><text fill="#000000" font-family="sans-serif" font-size="20" lengthAdjust="spacing" textLength="144" x="158" y="110.4375">CloseCourseUI</text><line style="stroke:#181818;stroke-width:0.5;" x1="128" x2="304" y1="120.5137" y2="120.5137"/><line style="stroke:#181818;stroke-width:0.5;" x1="128" x2="304" y1="128.5137" y2="128.5137"/><ellipse cx="138" cy="145.6543" fill="#84BE84" rx="3" ry="3" style="stroke:#038048;stroke-width:1.0;"/><text fill="#000000" font-family="sans-serif" font-size="20" lengthAdjust="spacing" textLength="96" x="148" y="151.0781">doShow()</text></g><!--class CloseCourseController--><g id="elem_CloseCourseController"><rect codeLine="10" fill="#F1F1F1" height="119.8438" id="CloseCourseController" rx="2.5" ry="2.5" style="stroke:#181818;stroke-width:0.5;" width="387" x="22.5" y="241.5137"/><ellipse cx="100.5" cy="258.5137" fill="#ADD1B2" rx="12" ry="12" style="stroke:#181818;stroke-width:1.0;"/><path d="M103.5625,265.5918 Q102.875,265.9512 102.125,266.123 Q101.375,266.2949 100.5469,266.2949 Q97.5938,266.2949 96.0313,264.3574 Q94.4844,262.4043 94.4844,258.7324 Q94.4844,255.0605 96.0313,253.123 Q97.5938,251.1699 100.5469,251.1699 Q101.375,251.1699 102.125,251.3418 Q102.8906,251.5137 103.5625,251.873 L103.5625,255.0762 Q102.8125,254.3887 102.1094,254.0762 Q101.4219,253.7637 100.6719,253.7637 Q99.0938,253.7637 98.2813,255.0137 Q97.4844,256.2637 97.4844,258.7324 Q97.4844,261.2012 98.2813,262.4512 Q99.0938,263.7012 100.6719,263.7012 Q101.4219,263.7012 102.1094,263.3887 Q102.8125,263.0762 103.5625,262.3887 L103.5625,265.5918 Z " fill="#000000"/><text fill="#000000" font-family="sans-serif" font-size="20" lengthAdjust="spacing" textLength="222" x="122.5" y="265.4375">CloseCourseController</text><line style="stroke:#181818;stroke-width:0.5;" x1="23.5" x2="408.5" y1="275.5137" y2="275.5137"/><rect fill="none" height="6" style="stroke:#C82930;stroke-width:1.0;" width="6" x="30.5" y="289.6543"/><text fill="#000000" font-family="sans-serif" font-size="20" lengthAdjust="spacing" textLength="360" x="43.5" y="298.0781">courseRepository: CourseRepository</text><line style="stroke:#181818;stroke-width:0.5;" x1="23.5" x2="408.5" y1="306.7949" y2="306.7949"/><ellipse cx="33.5" cy="323.9355" fill="#84BE84" rx="3" ry="3" style="stroke:#038048;stroke-width:1.0;"/><text fill="#000000" font-family="sans-serif" font-size="20" lengthAdjust="spacing" textLength="134" x="43.5" y="329.3594">create(): void</text><ellipse cx="33.5" cy="347.2168" fill="#84BE84" rx="3" ry="3" style="stroke:#038048;stroke-width:1.0;"/><text fill="#000000" font-family="sans-serif" font-size="20" lengthAdjust="spacing" textLength="263" x="43.5" y="352.6406">close(Course course): void</text></g><!--class ListCourseService--><g id="elem_ListCourseService"><rect codeLine="17" fill="#F1F1F1" height="119.8438" id="ListCourseService" rx="2.5" ry="2.5" style="stroke:#181818;stroke-width:0.5;" width="387" x="22.5" y="421.5137"/><ellipse cx="123" cy="438.5137" fill="#ADD1B2" rx="12" ry="12" style="stroke:#181818;stroke-width:1.0;"/><path d="M126.0625,445.5918 Q125.375,445.9512 124.625,446.123 Q123.875,446.2949 123.0469,446.2949 Q120.0938,446.2949 118.5313,444.3574 Q116.9844,442.4043 116.9844,438.7324 Q116.9844,435.0605 118.5313,433.123 Q120.0938,431.1699 123.0469,431.1699 Q123.875,431.1699 124.625,431.3418 Q125.3906,431.5137 126.0625,431.873 L126.0625,435.0762 Q125.3125,434.3887 124.6094,434.0762 Q123.9219,433.7637 123.1719,433.7637 Q121.5938,433.7637 120.7813,435.0137 Q119.9844,436.2637 119.9844,438.7324 Q119.9844,441.2012 120.7813,442.4512 Q121.5938,443.7012 123.1719,443.7012 Q123.9219,443.7012 124.6094,443.3887 Q125.3125,443.0762 126.0625,442.3887 L126.0625,445.5918 Z " fill="#000000"/><text fill="#000000" font-family="sans-serif" font-size="20" lengthAdjust="spacing" textLength="177" x="145" y="445.4375">ListCourseService</text><line style="stroke:#181818;stroke-width:0.5;" x1="23.5" x2="408.5" y1="455.5137" y2="455.5137"/><rect fill="none" height="6" style="stroke:#C82930;stroke-width:1.0;" width="6" x="30.5" y="469.6543"/><text fill="#000000" font-family="sans-serif" font-size="20" lengthAdjust="spacing" textLength="360" x="43.5" y="478.0781">courseRepository: CourseRepository</text><text fill="#000000" font-family="sans-serif" font-size="20" lengthAdjust="spacing" textLength="6" x="43.5" y="501.3594"> </text><ellipse cx="33.5" cy="519.2168" fill="none" rx="3" ry="3" style="stroke:#038048;stroke-width:1.0;"/><text fill="#000000" font-family="sans-serif" font-size="20" lengthAdjust="spacing" textLength="154" x="43.5" y="524.6406">openedCourses</text><line style="stroke:#181818;stroke-width:0.5;" x1="23.5" x2="408.5" y1="533.3574" y2="533.3574"/></g><!--class Course--><g id="elem_Course"><rect codeLine="25" fill="#F1F1F1" height="73.2813" id="Course" rx="2.5" ry="2.5" style="stroke:#181818;stroke-width:0.5;" width="143" x="466.5" y="445.0137"/><ellipse cx="500.5" cy="462.0137" fill="#ADD1B2" rx="12" ry="12" style="stroke:#181818;stroke-width:1.0;"/><path d="M503.5625,469.0918 Q502.875,469.4512 502.125,469.623 Q501.375,469.7949 500.5469,469.7949 Q497.5938,469.7949 496.0313,467.8574 Q494.4844,465.9043 494.4844,462.2324 Q494.4844,458.5605 496.0313,456.623 Q497.5938,454.6699 500.5469,454.6699 Q501.375,454.6699 502.125,454.8418 Q502.8906,455.0137 503.5625,455.373 L503.5625,458.5762 Q502.8125,457.8887 502.1094,457.5762 Q501.4219,457.2637 500.6719,457.2637 Q499.0938,457.2637 498.2813,458.5137 Q497.4844,459.7637 497.4844,462.2324 Q497.4844,464.7012 498.2813,465.9512 Q499.0938,467.2012 500.6719,467.2012 Q501.4219,467.2012 502.1094,466.8887 Q502.8125,466.5762 503.5625,465.8887 L503.5625,469.0918 Z " fill="#000000"/><text fill="#000000" font-family="sans-serif" font-size="20" lengthAdjust="spacing" textLength="69" x="519.5" y="468.9375">Course</text><line style="stroke:#181818;stroke-width:0.5;" x1="467.5" x2="608.5" y1="479.0137" y2="479.0137"/><line style="stroke:#181818;stroke-width:0.5;" x1="467.5" x2="608.5" y1="487.0137" y2="487.0137"/><ellipse cx="477.5" cy="504.1543" fill="#84BE84" rx="3" ry="3" style="stroke:#038048;stroke-width:1.0;"/><text fill="#000000" font-family="sans-serif" font-size="20" lengthAdjust="spacing" textLength="116" x="487.5" y="509.5781">close():void</text></g><!--class PersistenceContext--><g id="elem_PersistenceContext"><rect codeLine="32" fill="#F1F1F1" height="73.2813" id="PersistenceContext" rx="2.5" ry="2.5" style="stroke:#181818;stroke-width:0.5;" width="353" x="129.5" y="802.5137"/><ellipse cx="205.5" cy="819.5137" fill="#ADD1B2" rx="12" ry="12" style="stroke:#181818;stroke-width:1.0;"/><path d="M208.5625,826.5918 Q207.875,826.9512 207.125,827.123 Q206.375,827.2949 205.5469,827.2949 Q202.5938,827.2949 201.0313,825.3574 Q199.4844,823.4043 199.4844,819.7324 Q199.4844,816.0605 201.0313,814.123 Q202.5938,812.1699 205.5469,812.1699 Q206.375,812.1699 207.125,812.3418 Q207.8906,812.5137 208.5625,812.873 L208.5625,816.0762 Q207.8125,815.3887 207.1094,815.0762 Q206.4219,814.7637 205.6719,814.7637 Q204.0938,814.7637 203.2813,816.0137 Q202.4844,817.2637 202.4844,819.7324 Q202.4844,822.2012 203.2813,823.4512 Q204.0938,824.7012 205.6719,824.7012 Q206.4219,824.7012 207.1094,824.3887 Q207.8125,824.0762 208.5625,823.3887 L208.5625,826.5918 Z " fill="#000000"/><text fill="#000000" font-family="sans-serif" font-size="20" lengthAdjust="spacing" textLength="192" x="227.5" y="826.4375">PersistenceContext</text><line style="stroke:#181818;stroke-width:0.5;" x1="130.5" x2="481.5" y1="836.5137" y2="836.5137"/><line style="stroke:#181818;stroke-width:0.5;" x1="130.5" x2="481.5" y1="844.5137" y2="844.5137"/><ellipse cx="140.5" cy="861.6543" fill="#84BE84" rx="3" ry="3" style="stroke:#038048;stroke-width:1.0;"/><text fill="#000000" font-family="sans-serif" font-size="20" lengthAdjust="spacing" textLength="326" x="150.5" y="867.0781">repositories(): RepositoryFactory</text></g><!--class RepositoryFactory--><g id="elem_RepositoryFactory"><rect codeLine="38" fill="#F1F1F1" height="73.2813" id="RepositoryFactory" rx="2.5" ry="2.5" style="stroke:#181818;stroke-width:0.5;" width="469" x="71.5" y="957.5137"/><ellipse cx="211.5" cy="974.5137" fill="#ADD1B2" rx="12" ry="12" style="stroke:#181818;stroke-width:1.0;"/><path d="M214.5625,981.5918 Q213.875,981.9512 213.125,982.123 Q212.375,982.2949 211.5469,982.2949 Q208.5938,982.2949 207.0313,980.3574 Q205.4844,978.4043 205.4844,974.7324 Q205.4844,971.0605 207.0313,969.123 Q208.5938,967.1699 211.5469,967.1699 Q212.375,967.1699 213.125,967.3418 Q213.8906,967.5137 214.5625,967.873 L214.5625,971.0762 Q213.8125,970.3887 213.1094,970.0762 Q212.4219,969.7637 211.6719,969.7637 Q210.0938,969.7637 209.2813,971.0137 Q208.4844,972.2637 208.4844,974.7324 Q208.4844,977.2012 209.2813,978.4512 Q210.0938,979.7012 211.6719,979.7012 Q212.4219,979.7012 213.1094,979.3887 Q213.8125,979.0762 214.5625,978.3887 L214.5625,981.5918 Z " fill="#000000"/><text fill="#000000" font-family="sans-serif" font-size="20" lengthAdjust="spacing" textLength="180" x="233.5" y="981.4375">RepositoryFactory</text><line style="stroke:#181818;stroke-width:0.5;" x1="72.5" x2="539.5" y1="991.5137" y2="991.5137"/><line style="stroke:#181818;stroke-width:0.5;" x1="72.5" x2="539.5" y1="999.5137" y2="999.5137"/><ellipse cx="82.5" cy="1016.6543" fill="#84BE84" rx="3" ry="3" style="stroke:#038048;stroke-width:1.0;"/><text fill="#000000" font-family="sans-serif" font-size="20" lengthAdjust="spacing" textLength="442" x="92.5" y="1022.0781">createCourseRepository(): CourseRepository</text></g><!--class CourseRepository--><g id="elem_CourseRepository"><rect codeLine="46" fill="#F1F1F1" height="96.5625" id="CourseRepository" rx="2.5" ry="2.5" style="stroke:#181818;stroke-width:0.5;" width="395" x="108.5" y="623.5137"/><ellipse cx="213.5" cy="640.5137" fill="#B4A7E5" rx="12" ry="12" style="stroke:#181818;stroke-width:1.0;"/><path d="M208.6875,635.9668 L208.6875,633.4355 L217.3594,633.4355 L217.3594,635.9668 L214.4688,635.9668 L214.4688,645.4668 L217.3594,645.4668 L217.3594,648.0137 L208.6875,648.0137 L208.6875,645.4668 L211.5781,645.4668 L211.5781,635.9668 L208.6875,635.9668 Z " fill="#000000"/><text fill="#000000" font-family="sans-serif" font-size="20" font-style="italic" lengthAdjust="spacing" textLength="176" x="235.5" y="647.4375">CourseRepository</text><line style="stroke:#181818;stroke-width:0.5;" x1="109.5" x2="502.5" y1="657.5137" y2="657.5137"/><line style="stroke:#181818;stroke-width:0.5;" x1="109.5" x2="502.5" y1="665.5137" y2="665.5137"/><ellipse cx="119.5" cy="682.6543" fill="#84BE84" rx="3" ry="3" style="stroke:#038048;stroke-width:1.0;"/><text fill="#000000" font-family="sans-serif" font-size="20" lengthAdjust="spacing" textLength="368" x="129.5" y="688.0781">listAvailableCourses(): List&lt;Course&gt;</text><ellipse cx="119.5" cy="705.9355" fill="#84BE84" rx="3" ry="3" style="stroke:#038048;stroke-width:1.0;"/><text fill="#000000" font-family="sans-serif" font-size="20" lengthAdjust="spacing" textLength="365" x="129.5" y="711.3594">findCourse(courseId: String): Course</text></g><!--link CloseCourseUI to CloseCourseController--><g id="link_CloseCourseUI_CloseCourseController"><path codeLine="52" d="M216,159.7337 C216,181.6437 216,210.3437 216,236.1037 " fill="none" id="CloseCourseUI-to-CloseCourseController" style="stroke:#181818;stroke-width:1.0;"/><polygon fill="#181818" points="216,241.2237,220,232.2237,216,236.2237,212,232.2237,216,241.2237" style="stroke:#181818;stroke-width:1.0;"/></g><!--link CloseCourseController to CourseRepository--><g id="link_CloseCourseController_CourseRepository"><path codeLine="53" d="M409.75,323.0037 C501.84,337.1437 597.92,359.8937 626,395.0137 C673.32,454.2037 670.41,504.1137 626,565.5137 C597.72,604.6137 554.44,629.4737 508.76,645.2037 " fill="none" id="CloseCourseController-to-CourseRepository" style="stroke:#181818;stroke-width:1.0;"/><polygon fill="#181818" points="503.75,646.8837,513.5564,647.797,508.4877,645.2854,510.9992,640.2167,503.75,646.8837" style="stroke:#181818;stroke-width:1.0;"/></g><!--link CloseCourseController to Course--><g id="link_CloseCourseController_Course"><path codeLine="54" d="M362.28,361.5737 C384.07,371.8937 405.93,383.1637 426,395.0137 C448.81,408.4837 472.37,425.8637 491.96,441.4337 " fill="none" id="CloseCourseController-to-Course" style="stroke:#181818;stroke-width:1.0;"/><polygon fill="#181818" points="496.33,444.9237,491.7776,436.1901,492.4173,441.8107,486.7967,442.4504,496.33,444.9237" style="stroke:#181818;stroke-width:1.0;"/></g><!--link CloseCourseController to ListCourseService--><g id="link_CloseCourseController_ListCourseService"><path codeLine="56" d="M216,361.7837 C216,379.2037 216,398.3237 216,416.0537 " fill="none" id="CloseCourseController-to-ListCourseService" style="stroke:#181818;stroke-width:1.0;"/><polygon fill="#181818" points="216,421.5037,220,412.5037,216,416.5037,212,412.5037,216,421.5037" style="stroke:#181818;stroke-width:1.0;"/></g><!--link ListCourseService to CourseRepository--><g id="link_ListCourseService_CourseRepository"><path codeLine="57" d="M244.23,541.6437 C256.02,566.3337 269.61,594.7937 281.03,618.7137 " fill="none" id="ListCourseService-to-CourseRepository" style="stroke:#181818;stroke-width:1.0;"/><polygon fill="#181818" points="283.28,623.4337,283.0341,613.5879,281.1359,618.9167,275.807,617.0185,283.28,623.4337" style="stroke:#181818;stroke-width:1.0;"/></g><!--link CourseRepository to PersistenceContext--><g id="link_CourseRepository_PersistenceContext"><path codeLine="59" d="M306,720.7337 C306,744.9837 306,774.1337 306,797.3037 " fill="none" id="CourseRepository-to-PersistenceContext" style="stroke:#181818;stroke-width:1.0;"/><polygon fill="#181818" points="306,802.4537,310,793.4537,306,797.4537,302,793.4537,306,802.4537" style="stroke:#181818;stroke-width:1.0;"/></g><!--link PersistenceContext to RepositoryFactory--><g id="link_PersistenceContext_RepositoryFactory"><path codeLine="61" d="M306,875.8837 C306,898.7137 306,928.3437 306,952.0837 " fill="none" id="PersistenceContext-to-RepositoryFactory" style="stroke:#181818;stroke-width:1.0;"/><polygon fill="#181818" points="306,957.3637,310,948.3637,306,952.3637,302,948.3637,306,957.3637" style="stroke:#181818;stroke-width:1.0;"/></g><!--SRC=[bLBBQiCm4BphAtHqA8RIeoc1aX88z51g-W6gj4cNA9AGbFGHyk_LmuuTswJakAFPcTdLkYqgmopRISst8AY0DTjBlzJAr_WBzE6UUFGIw48ov-WpiaqWqpBKsWLKxwq3GWpZMxO1QYmuK9vvr8eU2QKyjILovhwl4axfdT3rf_ugPg4waLEdmOoHoAz8B48ugwK4sqYLFE5lOBH3h-rFrGJh498zkGNcePXLzA1HD5XKBd83pKhT-ucS4xoWyvbLWpqWXrlDjG458Z-wuTH2xnXU39m37ViXPrKNgzThmBeG3XI7di1hXyQDmRTlnMoR3C75NNH9buodm8Dmwmptn4Sjvw1fmyCDH9UfhLouz6C5kV2C8RODvZ1gRkracF3fm52o3zcuff7YPptcUfwPQrJDxelyOojHqTfRL9jpk3RHvRsMvNpw_CZqKIR-SDZ_gEGAOtHvP8HCcvBHsY9jV1Y4J1nBf8ulumy0]--></g></svg>