<?xml version="1.0" encoding="UTF-8" standalone="no"?><svg xmlns="http://www.w3.org/2000/svg" xmlns:xlink="http://www.w3.org/1999/xlink" contentStyleType="text/css" height="1372px" preserveAspectRatio="none" style="width:1694px;height:1372px;background:#FFFFFF;" version="1.1" viewBox="0 0 1694 1372" width="1694px" zoomAndPan="magnify"><defs/><g><text fill="#000000" font-family="sans-serif" font-size="14" font-weight="bold" lengthAdjust="spacing" textLength="111" x="784.5" y="22.9951">Share a Board</text><!--cluster Board--><g id="cluster_Board"><path d="M588.5,752.5137 L656.5,752.5137 A3.75,3.75 0 0 1 659,755.0137 L666,781.7949 L1111.5,781.7949 A2.5,2.5 0 0 1 1114,784.2949 L1114,1362.5137 A2.5,2.5 0 0 1 1111.5,1365.0137 L588.5,1365.0137 A2.5,2.5 0 0 1 586,1362.5137 L586,755.0137 A2.5,2.5 0 0 1 588.5,752.5137 " fill="none" style="stroke:#000000;stroke-width:1.5;"/><line style="stroke:#000000;stroke-width:1.5;" x1="586" x2="666" y1="781.7949" y2="781.7949"/><text fill="#000000" font-family="sans-serif" font-size="20" font-weight="bold" lengthAdjust="spacing" textLength="67" x="590" y="773.0781">Board</text></g><!--cluster BoardShared--><g id="cluster_BoardShared"><path d="M8.5,331.5137 L156.5,331.5137 A3.75,3.75 0 0 1 159,334.0137 L166,360.7949 L559.5,360.7949 A2.5,2.5 0 0 1 562,363.2949 L562,904.5137 A2.5,2.5 0 0 1 559.5,907.0137 L8.5,907.0137 A2.5,2.5 0 0 1 6,904.5137 L6,334.0137 A2.5,2.5 0 0 1 8.5,331.5137 " fill="none" style="stroke:#000000;stroke-width:1.5;"/><line style="stroke:#000000;stroke-width:1.5;" x1="6" x2="166" y1="360.7949" y2="360.7949"/><text fill="#000000" font-family="sans-serif" font-size="20" font-weight="bold" lengthAdjust="spacing" textLength="147" x="10" y="352.0781">BoardShared</text></g><!--cluster TCP.common--><g id="cluster_TCP.common"><path d="M596.5,300.5137 L745.5,300.5137 A3.75,3.75 0 0 1 748,303.0137 L755,329.7949 L1170.5,329.7949 A2.5,2.5 0 0 1 1173,332.2949 L1173,718.0137 A2.5,2.5 0 0 1 1170.5,720.5137 L596.5,720.5137 A2.5,2.5 0 0 1 594,718.0137 L594,303.0137 A2.5,2.5 0 0 1 596.5,300.5137 " fill="none" style="stroke:#000000;stroke-width:1.5;"/><line style="stroke:#000000;stroke-width:1.5;" x1="594" x2="755" y1="329.7949" y2="329.7949"/><text fill="#000000" font-family="sans-serif" font-size="20" font-weight="bold" lengthAdjust="spacing" textLength="148" x="598" y="321.0781">TCP.common</text></g><!--cluster TCP.server--><g id="cluster_TCP.server"><path d="M102.5,44.5137 L228.5,44.5137 A3.75,3.75 0 0 1 231,47.0137 L238,73.7949 L566.5,73.7949 A2.5,2.5 0 0 1 569,76.2949 L569,258.0137 A2.5,2.5 0 0 1 566.5,260.5137 L102.5,260.5137 A2.5,2.5 0 0 1 100,258.0137 L100,47.0137 A2.5,2.5 0 0 1 102.5,44.5137 " fill="none" style="stroke:#000000;stroke-width:1.5;"/><line style="stroke:#000000;stroke-width:1.5;" x1="100" x2="238" y1="73.7949" y2="73.7949"/><text fill="#000000" font-family="sans-serif" font-size="20" font-weight="bold" lengthAdjust="spacing" textLength="125" x="104" y="65.0781">TCP.server</text></g><!--cluster TCP.client--><g id="cluster_TCP.client"><path d="M1215.5,79.0137 L1332.5,79.0137 A3.75,3.75 0 0 1 1335,81.5137 L1342,108.2949 L1684.5,108.2949 A2.5,2.5 0 0 1 1687,110.7949 L1687,526.0137 A2.5,2.5 0 0 1 1684.5,528.5137 L1215.5,528.5137 A2.5,2.5 0 0 1 1213,526.0137 L1213,81.5137 A2.5,2.5 0 0 1 1215.5,79.0137 " fill="none" style="stroke:#000000;stroke-width:1.5;"/><line style="stroke:#000000;stroke-width:1.5;" x1="1213" x2="1342" y1="108.2949" y2="108.2949"/><text fill="#000000" font-family="sans-serif" font-size="20" font-weight="bold" lengthAdjust="spacing" textLength="116" x="1217" y="99.5781">TCP.client</text></g><!--class Board--><g id="elem_Board"><rect codeLine="9" fill="#F1F1F1" height="398.5" id="Board" rx="2.5" ry="2.5" style="stroke:#181818;stroke-width:0.5;" width="495" x="602.5" y="951.0137"/><ellipse cx="815.5" cy="979.2949" fill="#ADD1B2" rx="12" ry="12" style="stroke:#181818;stroke-width:1.0;"/><path d="M818.5625,986.373 Q817.875,986.7324 817.125,986.9043 Q816.375,987.0762 815.5469,987.0762 Q812.5938,987.0762 811.0313,985.1387 Q809.4844,983.1855 809.4844,979.5137 Q809.4844,975.8418 811.0313,973.9043 Q812.5938,971.9512 815.5469,971.9512 Q816.375,971.9512 817.125,972.123 Q817.8906,972.2949 818.5625,972.6543 L818.5625,975.8574 Q817.8125,975.1699 817.1094,974.8574 Q816.4219,974.5449 815.6719,974.5449 Q814.0938,974.5449 813.2813,975.7949 Q812.4844,977.0449 812.4844,979.5137 Q812.4844,981.9824 813.2813,983.2324 Q814.0938,984.4824 815.6719,984.4824 Q816.4219,984.4824 817.1094,984.1699 Q817.8125,983.8574 818.5625,983.1699 L818.5625,986.373 Z " fill="#000000"/><text fill="#000000" font-family="sans-serif" font-size="20" font-style="italic" lengthAdjust="spacing" textLength="64" x="835.5" y="974.5781">«root»</text><text fill="#000000" font-family="sans-serif" font-size="20" lengthAdjust="spacing" textLength="59" x="838" y="997.8594">Board</text><line style="stroke:#181818;stroke-width:0.5;" x1="603.5" x2="1096.5" y1="1007.5762" y2="1007.5762"/><rect fill="none" height="6" style="stroke:#C82930;stroke-width:1.0;" width="6" x="610.5" y="1021.7168"/><text fill="#000000" font-family="sans-serif" font-size="20" lengthAdjust="spacing" textLength="76" x="623.5" y="1030.1406">id: long</text><rect fill="none" height="6" style="stroke:#C82930;stroke-width:1.0;" width="6" x="610.5" y="1044.998"/><text fill="#000000" font-family="sans-serif" font-size="20" lengthAdjust="spacing" textLength="114" x="623.5" y="1053.4219">title: String</text><rect fill="none" height="6" style="stroke:#C82930;stroke-width:1.0;" width="6" x="610.5" y="1068.2793"/><text fill="#000000" font-family="sans-serif" font-size="20" lengthAdjust="spacing" textLength="122" x="623.5" y="1076.7031">state : State</text><rect fill="none" height="6" style="stroke:#C82930;stroke-width:1.0;" width="6" x="610.5" y="1091.5605"/><text fill="#000000" font-family="sans-serif" font-size="20" lengthAdjust="spacing" textLength="452" x="623.5" y="1099.9844">postIts: Map&lt;Pair&lt;Integer, Integer&gt;, PostIt&gt;</text><line style="stroke:#181818;stroke-width:0.5;" x1="603.5" x2="1096.5" y1="1108.7012" y2="1108.7012"/><ellipse cx="613.5" cy="1125.8418" fill="#84BE84" rx="3" ry="3" style="stroke:#038048;stroke-width:1.0;"/><text fill="#000000" font-family="sans-serif" font-size="20" lengthAdjust="spacing" textLength="198" x="623.5" y="1131.2656">board_title(): String</text><ellipse cx="613.5" cy="1149.123" fill="#84BE84" rx="3" ry="3" style="stroke:#038048;stroke-width:1.0;"/><text fill="#000000" font-family="sans-serif" font-size="20" lengthAdjust="spacing" textLength="239" x="623.5" y="1154.5469">history(): List&lt;Update&gt;</text><ellipse cx="613.5" cy="1172.4043" fill="#84BE84" rx="3" ry="3" style="stroke:#038048;stroke-width:1.0;"/><text fill="#000000" font-family="sans-serif" font-size="20" lengthAdjust="spacing" textLength="299" x="623.5" y="1177.8281">addPostIt(PostIt, int, int): void</text><ellipse cx="613.5" cy="1195.6855" fill="#84BE84" rx="3" ry="3" style="stroke:#038048;stroke-width:1.0;"/><text fill="#000000" font-family="sans-serif" font-size="20" lengthAdjust="spacing" textLength="282" x="623.5" y="1201.1094">removePostIt(int, int): PostIt</text><ellipse cx="613.5" cy="1218.9668" fill="#84BE84" rx="3" ry="3" style="stroke:#038048;stroke-width:1.0;"/><text fill="#000000" font-family="sans-serif" font-size="20" lengthAdjust="spacing" textLength="468" x="623.5" y="1224.3906">postIts(): Map&lt;Pair&lt;Integer, Integer&gt;, PostIt&gt;</text><ellipse cx="613.5" cy="1242.248" fill="#84BE84" rx="3" ry="3" style="stroke:#038048;stroke-width:1.0;"/><text fill="#000000" font-family="sans-serif" font-size="20" lengthAdjust="spacing" textLength="155" x="623.5" y="1247.6719">identity(): Long</text><ellipse cx="613.5" cy="1265.5293" fill="#84BE84" rx="3" ry="3" style="stroke:#038048;stroke-width:1.0;"/><text fill="#000000" font-family="sans-serif" font-size="20" lengthAdjust="spacing" textLength="97" x="623.5" y="1270.9531">id(): Long</text><ellipse cx="613.5" cy="1288.8105" fill="#84BE84" rx="3" ry="3" style="stroke:#038048;stroke-width:1.0;"/><text fill="#000000" font-family="sans-serif" font-size="20" lengthAdjust="spacing" textLength="187" x="623.5" y="1294.2344">isActive(): boolean</text><ellipse cx="613.5" cy="1312.0918" fill="#84BE84" rx="3" ry="3" style="stroke:#038048;stroke-width:1.0;"/><text fill="#000000" font-family="sans-serif" font-size="20" lengthAdjust="spacing" textLength="240" x="623.5" y="1317.5156">getPostIt(int, int): PostIt</text><ellipse cx="613.5" cy="1335.373" fill="#84BE84" rx="3" ry="3" style="stroke:#038048;stroke-width:1.0;"/><text fill="#000000" font-family="sans-serif" font-size="20" lengthAdjust="spacing" textLength="235" x="623.5" y="1340.7969">isFree(int, int): boolean</text></g><!--class BoardRepository--><g id="elem_BoardRepository"><rect codeLine="25" fill="#F1F1F1" height="95.8438" id="BoardRepository" rx="2.5" ry="2.5" style="stroke:#181818;stroke-width:0.5;" width="488" x="604" y="794.5137"/><ellipse cx="760.5" cy="822.7949" fill="#B4A7E5" rx="12" ry="12" style="stroke:#181818;stroke-width:1.0;"/><path d="M755.6875,818.248 L755.6875,815.7168 L764.3594,815.7168 L764.3594,818.248 L761.4688,818.248 L761.4688,827.748 L764.3594,827.748 L764.3594,830.2949 L755.6875,830.2949 L755.6875,827.748 L758.5781,827.748 L758.5781,818.248 L755.6875,818.248 Z " fill="#000000"/><text fill="#000000" font-family="sans-serif" font-size="20" font-style="italic" lengthAdjust="spacing" textLength="139" x="796" y="818.0781">«persistence»</text><text fill="#000000" font-family="sans-serif" font-size="20" font-style="italic" lengthAdjust="spacing" textLength="166" x="782.5" y="841.3594">BoardRepository</text><line style="stroke:#181818;stroke-width:0.5;" x1="605" x2="1091" y1="851.0762" y2="851.0762"/><line style="stroke:#181818;stroke-width:0.5;" x1="605" x2="1091" y1="859.0762" y2="859.0762"/><ellipse cx="615" cy="876.2168" fill="#84BE84" rx="3" ry="3" style="stroke:#038048;stroke-width:1.0;"/><text fill="#000000" font-family="sans-serif" font-size="20" lengthAdjust="spacing" textLength="461" x="625" y="881.6406">findActiveByOwner(String): Optional&lt;Board&gt;</text></g><!--class ShareBoardController--><g id="elem_ShareBoardController"><rect codeLine="31" fill="#F1F1F1" height="119.8438" id="ShareBoardController" rx="2.5" ry="2.5" style="stroke:#181818;stroke-width:0.5;" width="524" x="22" y="373.5137"/><ellipse cx="171.5" cy="390.5137" fill="#ADD1B2" rx="12" ry="12" style="stroke:#181818;stroke-width:1.0;"/><path d="M174.5625,397.5918 Q173.875,397.9512 173.125,398.123 Q172.375,398.2949 171.5469,398.2949 Q168.5938,398.2949 167.0313,396.3574 Q165.4844,394.4043 165.4844,390.7324 Q165.4844,387.0605 167.0313,385.123 Q168.5938,383.1699 171.5469,383.1699 Q172.375,383.1699 173.125,383.3418 Q173.8906,383.5137 174.5625,383.873 L174.5625,387.0762 Q173.8125,386.3887 173.1094,386.0762 Q172.4219,385.7637 171.6719,385.7637 Q170.0938,385.7637 169.2813,387.0137 Q168.4844,388.2637 168.4844,390.7324 Q168.4844,393.2012 169.2813,394.4512 Q170.0938,395.7012 171.6719,395.7012 Q172.4219,395.7012 173.1094,395.3887 Q173.8125,395.0762 174.5625,394.3887 L174.5625,397.5918 Z " fill="#000000"/><text fill="#000000" font-family="sans-serif" font-size="20" lengthAdjust="spacing" textLength="216" x="193.5" y="397.4375">ShareBoardController</text><line style="stroke:#181818;stroke-width:0.5;" x1="23" x2="545" y1="407.5137" y2="407.5137"/><line style="stroke:#181818;stroke-width:0.5;" x1="23" x2="545" y1="415.5137" y2="415.5137"/><ellipse cx="33" cy="432.6543" fill="#84BE84" rx="3" ry="3" style="stroke:#038048;stroke-width:1.0;"/><text fill="#000000" font-family="sans-serif" font-size="20" lengthAdjust="spacing" textLength="497" x="43" y="438.0781">listActiveBoards(EmailAddress): Iterable&lt;Board&gt;</text><ellipse cx="33" cy="455.9355" fill="#84BE84" rx="3" ry="3" style="stroke:#038048;stroke-width:1.0;"/><text fill="#000000" font-family="sans-serif" font-size="20" lengthAdjust="spacing" textLength="404" x="43" y="461.3594">getPermissions(): List&lt;UserPermission&gt;</text><ellipse cx="33" cy="479.2168" fill="#84BE84" rx="3" ry="3" style="stroke:#038048;stroke-width:1.0;"/><text fill="#000000" font-family="sans-serif" font-size="20" lengthAdjust="spacing" textLength="480" x="43" y="484.6406">shareBoard(String, String, String): SharedBoard</text></g><!--class BoardSharedRepository--><g id="elem_BoardSharedRepository"><rect codeLine="37" fill="#F1F1F1" height="95.8438" id="BoardSharedRepository" rx="2.5" ry="2.5" style="stroke:#181818;stroke-width:0.5;" width="361" x="112.5" y="588.5137"/><ellipse cx="170" cy="616.7949" fill="#B4A7E5" rx="12" ry="12" style="stroke:#181818;stroke-width:1.0;"/><path d="M165.1875,612.248 L165.1875,609.7168 L173.8594,609.7168 L173.8594,612.248 L170.9688,612.248 L170.9688,621.748 L173.8594,621.748 L173.8594,624.2949 L165.1875,624.2949 L165.1875,621.748 L168.0781,621.748 L168.0781,612.248 L165.1875,612.248 Z " fill="#000000"/><text fill="#000000" font-family="sans-serif" font-size="20" font-style="italic" lengthAdjust="spacing" textLength="139" x="241" y="612.0781">«persistence»</text><text fill="#000000" font-family="sans-serif" font-size="20" font-style="italic" lengthAdjust="spacing" textLength="237" x="192" y="635.3594">BoardSharedRepository</text><line style="stroke:#181818;stroke-width:0.5;" x1="113.5" x2="472.5" y1="645.0762" y2="645.0762"/><line style="stroke:#181818;stroke-width:0.5;" x1="113.5" x2="472.5" y1="653.0762" y2="653.0762"/><ellipse cx="123.5" cy="670.2168" fill="#84BE84" rx="3" ry="3" style="stroke:#038048;stroke-width:1.0;"/><text fill="#000000" font-family="sans-serif" font-size="20" lengthAdjust="spacing" textLength="334" x="133.5" y="675.6406">save(BoardShared): BoardShared</text></g><!--class SharedBoard--><g id="elem_SharedBoard"><rect codeLine="40" fill="#F1F1F1" height="96.5625" id="SharedBoard" rx="2.5" ry="2.5" style="stroke:#181818;stroke-width:0.5;" width="236" x="247" y="794.0137"/><ellipse cx="295.5" cy="811.0137" fill="#ADD1B2" rx="12" ry="12" style="stroke:#181818;stroke-width:1.0;"/><path d="M298.5625,818.0918 Q297.875,818.4512 297.125,818.623 Q296.375,818.7949 295.5469,818.7949 Q292.5938,818.7949 291.0313,816.8574 Q289.4844,814.9043 289.4844,811.2324 Q289.4844,807.5605 291.0313,805.623 Q292.5938,803.6699 295.5469,803.6699 Q296.375,803.6699 297.125,803.8418 Q297.8906,804.0137 298.5625,804.373 L298.5625,807.5762 Q297.8125,806.8887 297.1094,806.5762 Q296.4219,806.2637 295.6719,806.2637 Q294.0938,806.2637 293.2813,807.5137 Q292.4844,808.7637 292.4844,811.2324 Q292.4844,813.7012 293.2813,814.9512 Q294.0938,816.2012 295.6719,816.2012 Q296.4219,816.2012 297.1094,815.8887 Q297.8125,815.5762 298.5625,814.8887 L298.5625,818.0918 Z " fill="#000000"/><text fill="#000000" font-family="sans-serif" font-size="20" lengthAdjust="spacing" textLength="130" x="317.5" y="817.9375">SharedBoard</text><line style="stroke:#181818;stroke-width:0.5;" x1="248" x2="482" y1="828.0137" y2="828.0137"/><line style="stroke:#181818;stroke-width:0.5;" x1="248" x2="482" y1="836.0137" y2="836.0137"/><ellipse cx="258" cy="853.1543" fill="#84BE84" rx="3" ry="3" style="stroke:#038048;stroke-width:1.0;"/><text fill="#000000" font-family="sans-serif" font-size="20" lengthAdjust="spacing" textLength="146" x="268" y="858.5781">board(): Board</text><ellipse cx="258" cy="876.4355" fill="#84BE84" rx="3" ry="3" style="stroke:#038048;stroke-width:1.0;"/><text fill="#000000" font-family="sans-serif" font-size="20" lengthAdjust="spacing" textLength="209" x="268" y="881.8594">user(): EmailAddress</text></g><!--class MessageCodesTCP--><g id="elem_MessageCodesTCP"><rect codeLine="47" fill="#F1F1F1" height="119.8438" id="MessageCodesTCP" rx="2.5" ry="2.5" style="stroke:#181818;stroke-width:0.5;" width="294" x="626" y="576.5137"/><ellipse cx="676" cy="593.5137" fill="#ADD1B2" rx="12" ry="12" style="stroke:#181818;stroke-width:1.0;"/><path d="M679.0625,600.5918 Q678.375,600.9512 677.625,601.123 Q676.875,601.2949 676.0469,601.2949 Q673.0938,601.2949 671.5313,599.3574 Q669.9844,597.4043 669.9844,593.7324 Q669.9844,590.0605 671.5313,588.123 Q673.0938,586.1699 676.0469,586.1699 Q676.875,586.1699 677.625,586.3418 Q678.3906,586.5137 679.0625,586.873 L679.0625,590.0762 Q678.3125,589.3887 677.6094,589.0762 Q676.9219,588.7637 676.1719,588.7637 Q674.5938,588.7637 673.7813,590.0137 Q672.9844,591.2637 672.9844,593.7324 Q672.9844,596.2012 673.7813,597.4512 Q674.5938,598.7012 676.1719,598.7012 Q676.9219,598.7012 677.6094,598.3887 Q678.3125,598.0762 679.0625,597.3887 L679.0625,600.5918 Z " fill="#000000"/><text fill="#000000" font-family="sans-serif" font-size="20" lengthAdjust="spacing" textLength="185" x="698" y="600.4375">MessageCodesTCP</text><line style="stroke:#181818;stroke-width:0.5;" x1="627" x2="919" y1="610.5137" y2="610.5137"/><ellipse cx="637" cy="627.6543" fill="none" rx="3" ry="3" style="stroke:#038048;stroke-width:1.0;"/><text fill="#000000" font-family="sans-serif" font-size="20" lengthAdjust="spacing" textLength="198" x="647" y="633.0781">: int SHARE_BOARD</text><ellipse cx="637" cy="650.9355" fill="none" rx="3" ry="3" style="stroke:#038048;stroke-width:1.0;"/><text fill="#000000" font-family="sans-serif" font-size="20" lengthAdjust="spacing" textLength="174" x="647" y="656.3594">: int LISTBOARDS</text><ellipse cx="637" cy="674.2168" fill="none" rx="3" ry="3" style="stroke:#038048;stroke-width:1.0;"/><text fill="#000000" font-family="sans-serif" font-size="20" lengthAdjust="spacing" textLength="267" x="647" y="679.6406">: int BOARD_PERMISSIONS</text><line style="stroke:#181818;stroke-width:0.5;" x1="627" x2="919" y1="688.3574" y2="688.3574"/></g><!--class MessageFormatTCP--><g id="elem_MessageFormatTCP"><rect codeLine="53" fill="#F1F1F1" height="166.4063" id="MessageFormatTCP" rx="2.5" ry="2.5" style="stroke:#181818;stroke-width:0.5;" width="432" x="677" y="350.5137"/><ellipse cx="790.5" cy="367.5137" fill="#ADD1B2" rx="12" ry="12" style="stroke:#181818;stroke-width:1.0;"/><path d="M793.5625,374.5918 Q792.875,374.9512 792.125,375.123 Q791.375,375.2949 790.5469,375.2949 Q787.5938,375.2949 786.0313,373.3574 Q784.4844,371.4043 784.4844,367.7324 Q784.4844,364.0605 786.0313,362.123 Q787.5938,360.1699 790.5469,360.1699 Q791.375,360.1699 792.125,360.3418 Q792.8906,360.5137 793.5625,360.873 L793.5625,364.0762 Q792.8125,363.3887 792.1094,363.0762 Q791.4219,362.7637 790.6719,362.7637 Q789.0938,362.7637 788.2813,364.0137 Q787.4844,365.2637 787.4844,367.7324 Q787.4844,370.2012 788.2813,371.4512 Q789.0938,372.7012 790.6719,372.7012 Q791.4219,372.7012 792.1094,372.3887 Q792.8125,372.0762 793.5625,371.3887 L793.5625,374.5918 Z " fill="#000000"/><text fill="#000000" font-family="sans-serif" font-size="20" lengthAdjust="spacing" textLength="196" x="812.5" y="374.4375">MessageFormatTCP</text><line style="stroke:#181818;stroke-width:0.5;" x1="678" x2="1108" y1="384.5137" y2="384.5137"/><line style="stroke:#181818;stroke-width:0.5;" x1="678" x2="1108" y1="392.5137" y2="392.5137"/><ellipse cx="688" cy="409.6543" fill="#84BE84" rx="3" ry="3" style="stroke:#038048;stroke-width:1.0;"/><text fill="#000000" font-family="sans-serif" font-size="20" lengthAdjust="spacing" textLength="343" x="698" y="415.0781">sendMessage(int, int, byte[]): void</text><ellipse cx="688" cy="432.9355" fill="#84BE84" rx="3" ry="3" style="stroke:#038048;stroke-width:1.0;"/><text fill="#000000" font-family="sans-serif" font-size="20" lengthAdjust="spacing" textLength="404" x="698" y="438.3594">sendMessage(int, int, byte[], Long): void</text><ellipse cx="688" cy="456.2168" fill="#84BE84" rx="3" ry="3" style="stroke:#038048;stroke-width:1.0;"/><text fill="#000000" font-family="sans-serif" font-size="20" lengthAdjust="spacing" textLength="344" x="698" y="461.6406">sendMessage(int, int, String): void</text><ellipse cx="688" cy="479.498" fill="#84BE84" rx="3" ry="3" style="stroke:#038048;stroke-width:1.0;"/><text fill="#000000" font-family="sans-serif" font-size="20" lengthAdjust="spacing" textLength="405" x="698" y="484.9219">sendMessage(int, int, String, Long): void</text><ellipse cx="688" cy="502.7793" fill="#84BE84" rx="3" ry="3" style="stroke:#038048;stroke-width:1.0;"/><text fill="#000000" font-family="sans-serif" font-size="20" lengthAdjust="spacing" textLength="284" x="698" y="508.2031">readMessage(): MessageTCP</text></g><!--class MessageTCP--><g id="elem_MessageTCP"><rect codeLine="61" fill="#F1F1F1" height="119.8438" id="MessageTCP" rx="2.5" ry="2.5" style="stroke:#181818;stroke-width:0.5;" width="194" x="955" y="576.5137"/><ellipse cx="987.2" cy="593.5137" fill="#ADD1B2" rx="12" ry="12" style="stroke:#181818;stroke-width:1.0;"/><path d="M990.2625,600.5918 Q989.575,600.9512 988.825,601.123 Q988.075,601.2949 987.2469,601.2949 Q984.2938,601.2949 982.7313,599.3574 Q981.1844,597.4043 981.1844,593.7324 Q981.1844,590.0605 982.7313,588.123 Q984.2938,586.1699 987.2469,586.1699 Q988.075,586.1699 988.825,586.3418 Q989.5906,586.5137 990.2625,586.873 L990.2625,590.0762 Q989.5125,589.3887 988.8094,589.0762 Q988.1219,588.7637 987.3719,588.7637 Q985.7938,588.7637 984.9813,590.0137 Q984.1844,591.2637 984.1844,593.7324 Q984.1844,596.2012 984.9813,597.4512 Q985.7938,598.7012 987.3719,598.7012 Q988.1219,598.7012 988.8094,598.3887 Q989.5125,598.0762 990.2625,597.3887 L990.2625,600.5918 Z " fill="#000000"/><text fill="#000000" font-family="sans-serif" font-size="20" lengthAdjust="spacing" textLength="124" x="1005.8" y="600.4375">MessageTCP</text><line style="stroke:#181818;stroke-width:0.5;" x1="956" x2="1148" y1="610.5137" y2="610.5137"/><line style="stroke:#181818;stroke-width:0.5;" x1="956" x2="1148" y1="618.5137" y2="618.5137"/><ellipse cx="966" cy="635.6543" fill="#84BE84" rx="3" ry="3" style="stroke:#038048;stroke-width:1.0;"/><text fill="#000000" font-family="sans-serif" font-size="20" lengthAdjust="spacing" textLength="167" x="976" y="641.0781">sessionID(): long</text><ellipse cx="966" cy="658.9355" fill="#84BE84" rx="3" ry="3" style="stroke:#038048;stroke-width:1.0;"/><text fill="#000000" font-family="sans-serif" font-size="20" lengthAdjust="spacing" textLength="134" x="976" y="664.3594">data(): byte[]</text><ellipse cx="966" cy="682.2168" fill="#84BE84" rx="3" ry="3" style="stroke:#038048;stroke-width:1.0;"/><text fill="#000000" font-family="sans-serif" font-size="20" lengthAdjust="spacing" textLength="104" x="976" y="687.6406">code(): int</text></g><!--class ShareBoardTCPServerController--><g id="elem_ShareBoardTCPServerController"><rect codeLine="68" fill="#F1F1F1" height="142.4063" id="ShareBoardTCPServerController" rx="2.5" ry="2.5" style="stroke:#181818;stroke-width:0.5;" width="402" x="124" y="94.5137"/><ellipse cx="162.5" cy="122.7949" fill="#ADD1B2" rx="12" ry="12" style="stroke:#181818;stroke-width:1.0;"/><path d="M165.5625,129.873 Q164.875,130.2324 164.125,130.4043 Q163.375,130.5762 162.5469,130.5762 Q159.5938,130.5762 158.0313,128.6387 Q156.4844,126.6855 156.4844,123.0137 Q156.4844,119.3418 158.0313,117.4043 Q159.5938,115.4512 162.5469,115.4512 Q163.375,115.4512 164.125,115.623 Q164.8906,115.7949 165.5625,116.1543 L165.5625,119.3574 Q164.8125,118.6699 164.1094,118.3574 Q163.4219,118.0449 162.6719,118.0449 Q161.0938,118.0449 160.2813,119.2949 Q159.4844,120.5449 159.4844,123.0137 Q159.4844,125.4824 160.2813,126.7324 Q161.0938,127.9824 162.6719,127.9824 Q163.4219,127.9824 164.1094,127.6699 Q164.8125,127.3574 165.5625,126.6699 L165.5625,129.873 Z " fill="#000000"/><text fill="#000000" font-family="sans-serif" font-size="20" font-style="italic" lengthAdjust="spacing" textLength="238" x="222.5" y="118.0781">«TCP Server Controller»</text><text fill="#000000" font-family="sans-serif" font-size="20" lengthAdjust="spacing" textLength="318" x="182.5" y="141.3594">ShareBoardTCPServerController</text><line style="stroke:#181818;stroke-width:0.5;" x1="125" x2="525" y1="151.0762" y2="151.0762"/><line style="stroke:#181818;stroke-width:0.5;" x1="125" x2="525" y1="159.0762" y2="159.0762"/><ellipse cx="135" cy="176.2168" fill="#84BE84" rx="3" ry="3" style="stroke:#038048;stroke-width:1.0;"/><text fill="#000000" font-family="sans-serif" font-size="20" lengthAdjust="spacing" textLength="375" x="145" y="181.6406">listActiveBoards(MessageTCP): String</text><ellipse cx="135" cy="199.498" fill="#84BE84" rx="3" ry="3" style="stroke:#038048;stroke-width:1.0;"/><text fill="#000000" font-family="sans-serif" font-size="20" lengthAdjust="spacing" textLength="366" x="145" y="204.9219">getPermissions(MessageTCP): String</text><ellipse cx="135" cy="222.7793" fill="#84BE84" rx="3" ry="3" style="stroke:#038048;stroke-width:1.0;"/><text fill="#000000" font-family="sans-serif" font-size="20" lengthAdjust="spacing" textLength="309" x="145" y="228.2031">shareBoard(MessageTCP): void</text></g><!--class ShareBoardTCPClientController--><g id="elem_ShareBoardTCPClientController"><rect codeLine="76" fill="#F1F1F1" height="142.4063" id="ShareBoardTCPClientController" rx="2.5" ry="2.5" style="stroke:#181818;stroke-width:0.5;" width="419" x="1244.5" y="362.5137"/><ellipse cx="1293" cy="390.7949" fill="#ADD1B2" rx="12" ry="12" style="stroke:#181818;stroke-width:1.0;"/><path d="M1296.0625,397.873 Q1295.375,398.2324 1294.625,398.4043 Q1293.875,398.5762 1293.0469,398.5762 Q1290.0938,398.5762 1288.5313,396.6387 Q1286.9844,394.6855 1286.9844,391.0137 Q1286.9844,387.3418 1288.5313,385.4043 Q1290.0938,383.4512 1293.0469,383.4512 Q1293.875,383.4512 1294.625,383.623 Q1295.3906,383.7949 1296.0625,384.1543 L1296.0625,387.3574 Q1295.3125,386.6699 1294.6094,386.3574 Q1293.9219,386.0449 1293.1719,386.0449 Q1291.5938,386.0449 1290.7813,387.2949 Q1289.9844,388.5449 1289.9844,391.0137 Q1289.9844,393.4824 1290.7813,394.7324 Q1291.5938,395.9824 1293.1719,395.9824 Q1293.9219,395.9824 1294.6094,395.6699 Q1295.3125,395.3574 1296.0625,394.6699 L1296.0625,397.873 Z " fill="#000000"/><text fill="#000000" font-family="sans-serif" font-size="20" font-style="italic" lengthAdjust="spacing" textLength="232" x="1355.5" y="386.0781">«TCP Client Controller»</text><text fill="#000000" font-family="sans-serif" font-size="20" lengthAdjust="spacing" textLength="313" x="1315" y="409.3594">ShareBoardTCPClientController</text><line style="stroke:#181818;stroke-width:0.5;" x1="1245.5" x2="1662.5" y1="419.0762" y2="419.0762"/><line style="stroke:#181818;stroke-width:0.5;" x1="1245.5" x2="1662.5" y1="427.0762" y2="427.0762"/><ellipse cx="1255.5" cy="444.2168" fill="#84BE84" rx="3" ry="3" style="stroke:#038048;stroke-width:1.0;"/><text fill="#000000" font-family="sans-serif" font-size="20" lengthAdjust="spacing" textLength="320" x="1265.5" y="449.6406">listActiveBoards(): List&lt;String&gt;</text><ellipse cx="1255.5" cy="467.498" fill="#84BE84" rx="3" ry="3" style="stroke:#038048;stroke-width:1.0;"/><text fill="#000000" font-family="sans-serif" font-size="20" lengthAdjust="spacing" textLength="311" x="1265.5" y="472.9219">getPermissions(): List&lt;String&gt;</text><ellipse cx="1255.5" cy="490.7793" fill="#84BE84" rx="3" ry="3" style="stroke:#038048;stroke-width:1.0;"/><text fill="#000000" font-family="sans-serif" font-size="20" lengthAdjust="spacing" textLength="392" x="1265.5" y="496.2031">shareBoard(String, String, String): void</text></g><!--class ShareBoardUI--><g id="elem_ShareBoardUI"><rect codeLine="82" fill="#F1F1F1" height="72.5625" id="ShareBoardUI" rx="2.5" ry="2.5" style="stroke:#181818;stroke-width:0.5;" width="181" x="1363.5" y="129.0137"/><ellipse cx="1379.5" cy="157.2949" fill="#ADD1B2" rx="12" ry="12" style="stroke:#181818;stroke-width:1.0;"/><path d="M1382.5625,164.373 Q1381.875,164.7324 1381.125,164.9043 Q1380.375,165.0762 1379.5469,165.0762 Q1376.5938,165.0762 1375.0313,163.1387 Q1373.4844,161.1855 1373.4844,157.5137 Q1373.4844,153.8418 1375.0313,151.9043 Q1376.5938,149.9512 1379.5469,149.9512 Q1380.375,149.9512 1381.125,150.123 Q1381.8906,150.2949 1382.5625,150.6543 L1382.5625,153.8574 Q1381.8125,153.1699 1381.1094,152.8574 Q1380.4219,152.5449 1379.6719,152.5449 Q1378.0938,152.5449 1377.2813,153.7949 Q1376.4844,155.0449 1376.4844,157.5137 Q1376.4844,159.9824 1377.2813,161.2324 Q1378.0938,162.4824 1379.6719,162.4824 Q1380.4219,162.4824 1381.1094,162.1699 Q1381.8125,161.8574 1382.5625,161.1699 L1382.5625,164.373 Z " fill="#000000"/><text fill="#000000" font-family="sans-serif" font-size="20" font-style="italic" lengthAdjust="spacing" textLength="151" x="1392.5" y="152.5781">«presentation»</text><text fill="#000000" font-family="sans-serif" font-size="20" lengthAdjust="spacing" textLength="138" x="1399" y="175.8594">ShareBoardUI</text><line style="stroke:#181818;stroke-width:0.5;" x1="1364.5" x2="1543.5" y1="185.5762" y2="185.5762"/><line style="stroke:#181818;stroke-width:0.5;" x1="1364.5" x2="1543.5" y1="193.5762" y2="193.5762"/></g><!--link ShareBoardController to BoardRepository--><g id="link_ShareBoardController_BoardRepository"><path codeLine="86" d="M546.01,464.0137 C586.4,464.0137 615,464.0137 615,464.0137 C615,464.0137 615,789.1937 615,789.1937 " fill="none" id="ShareBoardController-to-BoardRepository" style="stroke:#181818;stroke-width:1.0;stroke-dasharray:7.0,7.0;"/><polygon fill="#181818" points="615,794.1937,619,785.1937,615,789.1937,611,785.1937,615,794.1937" style="stroke:#181818;stroke-width:1.0;"/></g><!--link ShareBoardController to BoardSharedRepository--><g id="link_ShareBoardController_BoardSharedRepository"><path codeLine="87" d="M293,493.5937 C293,493.5937 293,583.4937 293,583.4937 " fill="none" id="ShareBoardController-to-BoardSharedRepository" style="stroke:#181818;stroke-width:1.0;stroke-dasharray:7.0,7.0;"/><polygon fill="#181818" points="293,588.4937,297,579.4937,293,583.4937,289,579.4937,293,588.4937" style="stroke:#181818;stroke-width:1.0;"/></g><!--link ShareBoardUI to ShareBoardTCPClientController--><g id="link_ShareBoardUI_ShareBoardTCPClientController"><path codeLine="88" d="M1454,202.2137 C1454,202.2137 1454,357.3337 1454,357.3337 " fill="none" id="ShareBoardUI-to-ShareBoardTCPClientController" style="stroke:#181818;stroke-width:1.0;"/><polygon fill="#181818" points="1454,362.3337,1458,353.3337,1454,357.3337,1450,353.3337,1454,362.3337" style="stroke:#181818;stroke-width:1.0;"/></g><!--link TCP.client to TCP.common--><g id="link_TCP.client_TCP.common"><path d="M1212.3707,166.0137 C1207.3846,166.0137 1200.3506,166.0137 1191.5638,166.0137 C1173.9902,166.0137 1149.4058,166.0137 1120.1722,166.0137 C1061.705,166.0137 984.6413,166.0137 907.875,166.0137 C754.3425,166.0137 602,166.0137 602,166.0137 C602,166.0137 602,229.7912 602,295.0637 C602,296.0836 602,297.1038 602,298.1242 C602,298.6344 602,299.1446 602,299.6548 " fill="none" id="TCP.client-to-TCP.common" style="stroke:#181818;stroke-width:1.0;stroke-dasharray:7.0,7.0;"/><polygon fill="#181818" points="602,299.6548,606,290.6548,602,294.6548,598,290.6548,602,299.6548" style="stroke:#181818;stroke-width:1.0;"/></g><!--link TCP.server to TCP.common--><g id="link_TCP.server_TCP.common"><path d="M561,261.9285 C561,263.9029 561,265.8891 561,267.8854 C561,271.8778 561,275.9103 561,279.9673 C561,288.0815 561,296.2943 561,304.4837 C561,369.9987 561,434.0137 561,434.0137 C561,434.0137 570.62,434.0137 580.54,434.0137 C583.02,434.0137 585.5188,434.0137 587.8906,434.0137 C589.0766,434.0137 590.2308,434.0137 591.3351,434.0137 C591.8872,434.0137 592.4269,434.0137 592.9518,434.0137 C593.2143,434.0137 593.473,434.0137 593.7278,434.0137 C593.7915,434.0137 593.855,434.0137 593.9182,434.0137 " fill="none" id="TCP.server-to-TCP.common" style="stroke:#181818;stroke-width:1.0;stroke-dasharray:7.0,7.0;"/><polygon fill="#181818" points="593.9182,434.0137,584.9182,430.0137,588.9182,434.0137,584.9182,438.0137,593.9182,434.0137" style="stroke:#181818;stroke-width:1.0;"/></g><!--link MessageFormatTCP to MessageTCP--><g id="link_MessageFormatTCP_MessageTCP"><path codeLine="91" d="M1032,516.6637 C1032,516.6637 1032,571.4737 1032,571.4737 " fill="none" id="MessageFormatTCP-to-MessageTCP" style="stroke:#181818;stroke-width:1.0;stroke-dasharray:7.0,7.0;"/><polygon fill="#181818" points="1032,576.4737,1036,567.4737,1032,571.4737,1028,567.4737,1032,576.4737" style="stroke:#181818;stroke-width:1.0;"/></g><!--link MessageFormatTCP to MessageCodesTCP--><g id="link_MessageFormatTCP_MessageCodesTCP"><path codeLine="92" d="M798.5,516.6637 C798.5,516.6637 798.5,571.4737 798.5,571.4737 " fill="none" id="MessageFormatTCP-to-MessageCodesTCP" style="stroke:#181818;stroke-width:1.0;stroke-dasharray:7.0,7.0;"/><polygon fill="#181818" points="798.5,576.4737,802.5,567.4737,798.5,571.4737,794.5,567.4737,798.5,576.4737" style="stroke:#181818;stroke-width:1.0;"/></g><!--link BoardRepository to Board--><g id="link_BoardRepository_Board"><path codeLine="93" d="M848,890.5637 C848,890.5637 848,945.8137 848,945.8137 " fill="none" id="BoardRepository-to-Board" style="stroke:#181818;stroke-width:1.0;"/><polygon fill="#181818" points="848,950.8137,852,941.8137,848,945.8137,844,941.8137,848,950.8137" style="stroke:#181818;stroke-width:1.0;"/></g><!--link BoardSharedRepository to SharedBoard--><g id="link_BoardSharedRepository_SharedBoard"><path codeLine="94" d="M360.25,684.5537 C360.25,684.5537 360.25,788.6837 360.25,788.6837 " fill="none" id="BoardSharedRepository-to-SharedBoard" style="stroke:#181818;stroke-width:1.0;stroke-dasharray:7.0,7.0;"/><polygon fill="#181818" points="360.25,793.6837,364.25,784.6837,360.25,788.6837,356.25,784.6837,360.25,793.6837" style="stroke:#181818;stroke-width:1.0;"/></g><!--link SharedBoard to Board--><g id="link_SharedBoard_Board"><path codeLine="95" d="M483.18,843.0137 C542.85,843.0137 602.75,843.0137 602.75,843.0137 C602.75,843.0137 602.75,945.8237 602.75,945.8237 " fill="none" id="SharedBoard-to-Board" style="stroke:#181818;stroke-width:1.0;"/><polygon fill="#181818" points="602.75,950.8237,606.7757,941.8351,602.7643,945.8237,598.7757,941.8123,602.75,950.8237" style="stroke:#181818;stroke-width:1.0;"/></g><!--link ShareBoardTCPServerController to ShareBoardController--><g id="link_ShareBoardTCPServerController_ShareBoardController"><path codeLine="96" d="M325,236.6337 C325,236.6337 325,368.4237 325,368.4237 " fill="none" id="ShareBoardTCPServerController-to-ShareBoardController" style="stroke:#181818;stroke-width:1.0;stroke-dasharray:7.0,7.0;"/><polygon fill="#181818" points="325,373.4237,329,364.4237,325,368.4237,321,364.4237,325,373.4237" style="stroke:#181818;stroke-width:1.0;"/></g><!--SRC=[bLNVRzem47xFN-6tCHNej4U48b7QQf7QWPhsQPegWwzWrR4ZssLYLV_tdUsGc0Geuu64ky- - - -x7XtdbigIQ5a8jNu4H1Y_qJTXR9MtE_mBv_YtvihQsDAFBor9GQTyACLogud8fg343nkaA3oUMMm4aNrCDX98hHJLBaiIgabX55ifQLH36DImjLp8nkw14S0bsMm9HsgvLafHq-KfN46uWxmd1ZuzKMSPZefMo94s3Zv01uMn4X9Ahsk2J6P7SQXvPZQKMY3FZixQMojZCcX6vf-LuJhaUPzB22dIVL2zfdymzAAqENI0XpENPX-bzRGMw86jkhD9Rvxd3r_5JoJ1YSveo5YxiXKUVS1c-yCH6SLOZDHHg0nKu0WLB3Qiuk83_mu8paCWX9AeY0fnrJMQ2hTjukWkb151P-rPWFqsHcriD40FYMpxyDzf1lz1brVq7G5xSLT9rlGHji9WWqPscvBs- -OLB5dAxsix-ID2zq0uCCIlTj54nzlUbLQYFrfJveNMp5kRC__IEAUw0LaA03j4kS5gDhM8vWEdT59IB2MCQZC606HAW2m5nm50Vq0Kt1hCnpLWOq8rz1pPr-8f7d-m_tRpvZAibErYxW3YpWePYNwDZ627w5JKeAX2B5pHQYjxkSEHuGwBE7XUhsul7wTpfIg7atjhV8nZTKyN082HAU-H8a_p7vE7c-MesURXkUUwo_D7RyvR36v_dDm_tMPvdivzvbKmtwgtI1RNxOGr8LhdhSUwJnTR2hz_j_Js5xVi5E-z4tVcpiOTlrq3h4quimYloErg1DdS_gzcrEorYVK25eruRFBVQlCIsEJDcLdSyRZXEnWRqNiER_KD0xltD8hevTYa5EuaSUnFTsTE6JLUkM-jv2XejvnwiBd9teWL7aJrESEhzNOB1VZx1dQY4XDDZv8x1pb6TYEH1Da-PLndSRioSEkLjSlPrEQIiP3XCstB_2R2jRSbU2eD1Uhh2ITGMTsUZEqaqaIrFHm-SFrgVK_wTT2NjVpMNghSDWs8ULkuMxs4i_aVidPjFxvIBSAZaIV8F]--></g></svg>