<?xml version="1.0" encoding="UTF-8" standalone="no"?><svg xmlns="http://www.w3.org/2000/svg" xmlns:xlink="http://www.w3.org/1999/xlink" contentStyleType="text/css" height="1040px" preserveAspectRatio="none" style="width:1983px;height:1040px;background:#FFFFFF;" version="1.1" viewBox="0 0 1983 1040" width="1983px" zoomAndPan="magnify"><defs/><g><text fill="#000000" font-family="sans-serif" font-size="14" font-weight="bold" lengthAdjust="spacing" textLength="278" x="845.5" y="32.9951">Domain Model Extract- Share Board</text><!--cluster eCourseUser--><g id="cluster_eCourseUser"><path d="M1047.5,602.2969 L1213.5,602.2969 A3.75,3.75 0 0 1 1216,604.7969 L1223,651.5781 L1973.5,651.5781 A2.5,2.5 0 0 1 1976,654.0781 L1976,1030.7969 A2.5,2.5 0 0 1 1973.5,1033.2969 L1047.5,1033.2969 A2.5,2.5 0 0 1 1045,1030.7969 L1045,604.7969 A2.5,2.5 0 0 1 1047.5,602.2969 " fill="#D3D3D3" style="stroke:#000000;stroke-width:1.5;"/><line style="stroke:#000000;stroke-width:1.5;" x1="1045" x2="1223" y1="651.5781" y2="651.5781"/><text fill="#000000" font-family="sans-serif" font-size="20" font-weight="bold" lengthAdjust="spacing" textLength="145" x="1059" y="632.8613">eCourseUser</text></g><!--cluster Board--><g id="cluster_Board"><path d="M244.5,268.2969 L332.5,268.2969 A3.75,3.75 0 0 1 335,270.7969 L342,317.5781 L994.5,317.5781 A2.5,2.5 0 0 1 997,320.0781 L997,1016.7969 A2.5,2.5 0 0 1 994.5,1019.2969 L244.5,1019.2969 A2.5,2.5 0 0 1 242,1016.7969 L242,270.7969 A2.5,2.5 0 0 1 244.5,268.2969 " fill="#D3D3D3" style="stroke:#000000;stroke-width:1.5;"/><line style="stroke:#000000;stroke-width:1.5;" x1="242" x2="342" y1="317.5781" y2="317.5781"/><text fill="#000000" font-family="sans-serif" font-size="20" font-weight="bold" lengthAdjust="spacing" textLength="67" x="256" y="298.8613">Board</text></g><!--cluster BoardShare--><g id="cluster_BoardShare"><path d="M8.5,63.2969 L162.5,63.2969 A3.75,3.75 0 0 1 165,65.7969 L172,112.5781 L215.5,112.5781 A2.5,2.5 0 0 1 218,115.0781 L218,768.7969 A2.5,2.5 0 0 1 215.5,771.2969 L8.5,771.2969 A2.5,2.5 0 0 1 6,768.7969 L6,65.7969 A2.5,2.5 0 0 1 8.5,63.2969 " fill="#D3D3D3" style="stroke:#000000;stroke-width:1.5;"/><line style="stroke:#000000;stroke-width:1.5;" x1="6" x2="172" y1="112.5781" y2="112.5781"/><text fill="#000000" font-family="sans-serif" font-size="20" font-weight="bold" lengthAdjust="spacing" textLength="133" x="20" y="93.8613">BoardShare</text></g><!--class eCourseUser--><g id="elem_eCourseUser"><rect codeLine="20" fill="#F1F1F1" height="104.5625" id="eCourseUser" rx="2.5" ry="2.5" style="stroke:#181818;stroke-width:0.5;" width="152" x="1061" y="664.2969"/><text fill="#000000" font-family="sans-serif" font-size="20" font-style="italic" lengthAdjust="spacing" textLength="64" x="1105" y="697.8613">«root»</text><text fill="#000000" font-family="sans-serif" font-size="20" lengthAdjust="spacing" textLength="126" x="1074" y="741.1426">eCourseUser</text><line style="stroke:#181818;stroke-width:0.5;" x1="1062" x2="1212" y1="760.8594" y2="760.8594"/></g><!--class ShortName--><g id="elem_ShortName"><rect codeLine="23" fill="#F1F1F1" height="104.5625" id="ShortName" rx="2.5" ry="2.5" style="stroke:#181818;stroke-width:0.5;" width="169" x="1293.5" y="664.2969"/><text fill="#000000" font-family="sans-serif" font-size="20" font-style="italic" lengthAdjust="spacing" textLength="147" x="1304.5" y="697.8613">«value object»</text><text fill="#000000" font-family="sans-serif" font-size="20" lengthAdjust="spacing" textLength="113" x="1321.5" y="741.1426">ShortName</text><line style="stroke:#181818;stroke-width:0.5;" x1="1294.5" x2="1461.5" y1="760.8594" y2="760.8594"/></g><!--class FullName--><g id="elem_FullName"><rect codeLine="24" fill="#F1F1F1" height="104.5625" id="FullName" rx="2.5" ry="2.5" style="stroke:#181818;stroke-width:0.5;" width="169" x="1542.5" y="664.2969"/><text fill="#000000" font-family="sans-serif" font-size="20" font-style="italic" lengthAdjust="spacing" textLength="147" x="1553.5" y="697.8613">«value object»</text><text fill="#000000" font-family="sans-serif" font-size="20" lengthAdjust="spacing" textLength="96" x="1579" y="741.1426">FullName</text><line style="stroke:#181818;stroke-width:0.5;" x1="1543.5" x2="1710.5" y1="760.8594" y2="760.8594"/></g><!--class BirthDate--><g id="elem_BirthDate"><rect codeLine="25" fill="#F1F1F1" height="104.5625" id="BirthDate" rx="2.5" ry="2.5" style="stroke:#181818;stroke-width:0.5;" width="169" x="1791.5" y="664.2969"/><text fill="#000000" font-family="sans-serif" font-size="20" font-style="italic" lengthAdjust="spacing" textLength="147" x="1802.5" y="697.8613">«value object»</text><text fill="#000000" font-family="sans-serif" font-size="20" lengthAdjust="spacing" textLength="96" x="1828" y="741.1426">BirthDate</text><line style="stroke:#181818;stroke-width:0.5;" x1="1792.5" x2="1959.5" y1="760.8594" y2="760.8594"/></g><!--class Email--><g id="elem_Email"><rect codeLine="26" fill="#F1F1F1" height="104.5625" id="Email" rx="2.5" ry="2.5" style="stroke:#181818;stroke-width:0.5;" width="169" x="1293.5" y="912.2969"/><text fill="#000000" font-family="sans-serif" font-size="20" font-style="italic" lengthAdjust="spacing" textLength="147" x="1304.5" y="945.8613">«value object»</text><text fill="#000000" font-family="sans-serif" font-size="20" lengthAdjust="spacing" textLength="57" x="1349.5" y="989.1426">Email</text><line style="stroke:#181818;stroke-width:0.5;" x1="1294.5" x2="1461.5" y1="1008.8594" y2="1008.8594"/></g><!--class TaxPayerNumber--><g id="elem_TaxPayerNumber"><rect codeLine="27" fill="#F1F1F1" height="104.5625" id="TaxPayerNumber" rx="2.5" ry="2.5" style="stroke:#181818;stroke-width:0.5;" width="197" x="1542.5" y="912.2969"/><text fill="#000000" font-family="sans-serif" font-size="20" font-style="italic" lengthAdjust="spacing" textLength="147" x="1567.5" y="945.8613">«value object»</text><text fill="#000000" font-family="sans-serif" font-size="20" lengthAdjust="spacing" textLength="171" x="1555.5" y="989.1426">TaxPayerNumber</text><line style="stroke:#181818;stroke-width:0.5;" x1="1543.5" x2="1738.5" y1="1008.8594" y2="1008.8594"/></g><!--class Board--><g id="elem_Board"><rect codeLine="30" fill="#F1F1F1" height="191.125" id="Board" rx="2.5" ry="2.5" style="stroke:#181818;stroke-width:0.5;" width="178" x="655" y="330.2969"/><text fill="#000000" font-family="sans-serif" font-size="20" font-style="italic" lengthAdjust="spacing" textLength="64" x="712" y="363.8613">«root»</text><text fill="#000000" font-family="sans-serif" font-size="20" lengthAdjust="spacing" textLength="59" x="714.5" y="407.1426">Board</text><line style="stroke:#181818;stroke-width:0.5;" x1="656" x2="832" y1="426.8594" y2="426.8594"/><rect fill="none" height="6" style="stroke:#C82930;stroke-width:1.0;" width="6" x="663" y="451"/><text fill="#000000" font-family="sans-serif" font-size="20" lengthAdjust="spacing" textLength="131" x="686" y="459.4238">maxColumns</text><rect fill="none" height="6" style="stroke:#C82930;stroke-width:1.0;" width="6" x="663" y="494.2813"/><text fill="#000000" font-family="sans-serif" font-size="20" lengthAdjust="spacing" textLength="96" x="686" y="502.7051">maxRows</text></g><!--class Title--><g id="elem_Title"><rect codeLine="35" fill="#F1F1F1" height="104.5625" id="Title" rx="2.5" ry="2.5" style="stroke:#181818;stroke-width:0.5;" width="169" x="257.5" y="664.2969"/><text fill="#000000" font-family="sans-serif" font-size="20" font-style="italic" lengthAdjust="spacing" textLength="147" x="268.5" y="697.8613">«value object»</text><text fill="#000000" font-family="sans-serif" font-size="20" lengthAdjust="spacing" textLength="44" x="320" y="741.1426">Title</text><line style="stroke:#181818;stroke-width:0.5;" x1="258.5" x2="425.5" y1="760.8594" y2="760.8594"/></g><!--class Column--><g id="elem_Column"><rect codeLine="37" fill="#F1F1F1" height="191.125" id="Column" rx="2.5" ry="2.5" style="stroke:#181818;stroke-width:0.5;" width="105" x="506.5" y="621.2969"/><text fill="#000000" font-family="sans-serif" font-size="20" font-style="italic" lengthAdjust="spacing" textLength="83" x="517.5" y="654.8613">«entity»</text><text fill="#000000" font-family="sans-serif" font-size="20" lengthAdjust="spacing" textLength="78" x="520" y="698.1426">Column</text><line style="stroke:#181818;stroke-width:0.5;" x1="507.5" x2="610.5" y1="717.8594" y2="717.8594"/><rect fill="none" height="6" style="stroke:#C82930;stroke-width:1.0;" width="6" x="514.5" y="742"/><text fill="#000000" font-family="sans-serif" font-size="20" lengthAdjust="spacing" textLength="40" x="537.5" y="750.4238">title</text><rect fill="none" height="6" style="stroke:#C82930;stroke-width:1.0;" width="6" x="514.5" y="785.2813"/><text fill="#000000" font-family="sans-serif" font-size="20" lengthAdjust="spacing" textLength="19" x="537.5" y="793.7051">id</text></g><!--class Row--><g id="elem_Row"><rect codeLine="42" fill="#F1F1F1" height="191.125" id="Row" rx="2.5" ry="2.5" style="stroke:#181818;stroke-width:0.5;" width="105" x="691.5" y="621.2969"/><text fill="#000000" font-family="sans-serif" font-size="20" font-style="italic" lengthAdjust="spacing" textLength="83" x="702.5" y="654.8613">«entity»</text><text fill="#000000" font-family="sans-serif" font-size="20" lengthAdjust="spacing" textLength="43" x="722.5" y="698.1426">Row</text><line style="stroke:#181818;stroke-width:0.5;" x1="692.5" x2="795.5" y1="717.8594" y2="717.8594"/><rect fill="none" height="6" style="stroke:#C82930;stroke-width:1.0;" width="6" x="699.5" y="742"/><text fill="#000000" font-family="sans-serif" font-size="20" lengthAdjust="spacing" textLength="40" x="722.5" y="750.4238">title</text><rect fill="none" height="6" style="stroke:#C82930;stroke-width:1.0;" width="6" x="699.5" y="785.2813"/><text fill="#000000" font-family="sans-serif" font-size="20" lengthAdjust="spacing" textLength="19" x="722.5" y="793.7051">id</text></g><!--class State--><g id="elem_State"><rect codeLine="47" fill="#F1F1F1" height="104.5625" id="State" rx="2.5" ry="2.5" style="stroke:#181818;stroke-width:0.5;" width="104" x="877" y="664.2969"/><text fill="#000000" font-family="sans-serif" font-size="20" font-style="italic" lengthAdjust="spacing" textLength="82" x="888" y="697.8613">«enum»</text><text fill="#000000" font-family="sans-serif" font-size="20" lengthAdjust="spacing" textLength="53" x="902.5" y="741.1426">State</text><line style="stroke:#181818;stroke-width:0.5;" x1="878" x2="980" y1="760.8594" y2="760.8594"/></g><g id="elem_GMN15"><path d="M853.5,926.2969 L853.5,1002.8594 A0,0 0 0 0 853.5,1002.8594 L980.5,1002.8594 A0,0 0 0 0 980.5,1002.8594 L980.5,936.2969 L970.5,926.2969 L932.75,926.2969 L928.75,769.3869 L924.75,926.2969 L853.5,926.2969 A0,0 0 0 0 853.5,926.2969 " fill="#A9A9A9" style="stroke:#181818;stroke-width:0.5;"/><path d="M970.5,926.2969 L970.5,936.2969 L980.5,936.2969 L970.5,926.2969 " fill="#A9A9A9" style="stroke:#181818;stroke-width:0.5;"/><text fill="#000000" font-family="sans-serif" font-size="20" lengthAdjust="spacing" textLength="60" x="869.5" y="959.8613">active</text><text fill="#000000" font-family="sans-serif" font-size="20" lengthAdjust="spacing" textLength="86" x="869.5" y="983.1426">archived</text></g><!--class BoardShare--><g id="elem_BoardShare"><rect codeLine="55" fill="#F1F1F1" height="104.5625" id="BoardShare" rx="2.5" ry="2.5" style="stroke:#181818;stroke-width:0.5;" width="143" x="58.5" y="125.2969"/><text fill="#000000" font-family="sans-serif" font-size="20" font-style="italic" lengthAdjust="spacing" textLength="64" x="98" y="158.8613">«root»</text><text fill="#000000" font-family="sans-serif" font-size="20" lengthAdjust="spacing" textLength="117" x="71.5" y="202.1426">BoardShare</text><line style="stroke:#181818;stroke-width:0.5;" x1="59.5" x2="200.5" y1="221.8594" y2="221.8594"/></g><!--class UserPermission--><g id="elem_UserPermission"><rect codeLine="57" fill="#F1F1F1" height="104.5625" id="UserPermission" rx="2.5" ry="2.5" style="stroke:#181818;stroke-width:0.5;" width="180" x="22" y="373.2969"/><text fill="#000000" font-family="sans-serif" font-size="20" font-style="italic" lengthAdjust="spacing" textLength="82" x="71" y="406.8613">«enum»</text><text fill="#000000" font-family="sans-serif" font-size="20" lengthAdjust="spacing" textLength="154" x="35" y="450.1426">UserPermission</text><line style="stroke:#181818;stroke-width:0.5;" x1="23" x2="201" y1="469.8594" y2="469.8594"/></g><g id="elem_GMN21"><path d="M66,678.2969 L66,754.8594 A0,0 0 0 0 66,754.8594 L158,754.8594 A0,0 0 0 0 158,754.8594 L158,688.2969 L148,678.2969 L116,678.2969 L112,478.4969 L108,678.2969 L66,678.2969 A0,0 0 0 0 66,678.2969 " fill="#A9A9A9" style="stroke:#181818;stroke-width:0.5;"/><path d="M148,678.2969 L148,688.2969 L158,688.2969 L148,678.2969 " fill="#A9A9A9" style="stroke:#181818;stroke-width:0.5;"/><text fill="#000000" font-family="sans-serif" font-size="20" lengthAdjust="spacing" textLength="45" x="82" y="711.8613">read</text><text fill="#000000" font-family="sans-serif" font-size="20" lengthAdjust="spacing" textLength="51" x="82" y="735.1426">write</text></g><!--link BoardShare to Board--><g id="link_BoardShare_Board"><path codeLine="65" d="M153.83,230.6269 C153.83,281.9869 153.83,352.2969 153.83,352.2969 C153.83,352.2969 649.69,352.2969 649.69,352.2969 " fill="none" id="BoardShare-to-Board" style="stroke:#181818;stroke-width:1.0;"/><polygon fill="#181818" points="654.69,352.2969,645.69,348.2969,649.69,352.2969,645.69,356.2969,654.69,352.2969" style="stroke:#181818;stroke-width:1.0;"/><text fill="#000000" font-family="sans-serif" font-size="20" lengthAdjust="spacing" textLength="65" x="264.92" y="336.8613">shares</text><text fill="#000000" font-family="sans-serif" font-size="20" lengthAdjust="spacing" textLength="15" x="129.4333" y="266.3102">N</text><text fill="#000000" font-family="sans-serif" font-size="20" lengthAdjust="spacing" textLength="13" x="623.9196" y="377.0483">1</text></g><!--link BoardShare to eCourseUser--><g id="link_BoardShare_eCourseUser"><path codeLine="66" d="M201.83,178.2969 C437.92,178.2969 1175,178.2969 1175,178.2969 C1175,178.2969 1175,659.1869 1175,659.1869 " fill="none" id="BoardShare-to-eCourseUser" style="stroke:#181818;stroke-width:1.0;"/><polygon fill="#181818" points="1175,664.1869,1179,655.1869,1175,659.1869,1171,655.1869,1175,664.1869" style="stroke:#181818;stroke-width:1.0;"/><text fill="#000000" font-family="sans-serif" font-size="20" lengthAdjust="spacing" textLength="35" x="882.86" y="162.8613">has</text></g><!--link BoardShare to UserPermission--><g id="link_BoardShare_UserPermission"><path codeLine="67" d="M106.17,230.3869 C106.17,230.3869 106.17,368.2769 106.17,368.2769 " fill="none" id="BoardShare-to-UserPermission" style="stroke:#181818;stroke-width:1.0;"/><polygon fill="#181818" points="106.17,373.2769,110.17,364.2769,106.17,368.2769,102.17,364.2769,106.17,373.2769" style="stroke:#181818;stroke-width:1.0;"/><text fill="#000000" font-family="sans-serif" font-size="20" lengthAdjust="spacing" textLength="35" x="60.17" y="283.9013">has</text></g><!--link Board to Title--><g id="link_Board_Title"><path codeLine="69" d="M654.78,493.2969 C536.35,493.2969 342,493.2969 342,493.2969 C342,493.2969 342,659.1169 342,659.1169 " fill="none" id="Board-to-Title" style="stroke:#181818;stroke-width:1.0;"/><polygon fill="#181818" points="342,664.1169,346,655.1169,342,659.1169,338,655.1169,342,664.1169" style="stroke:#181818;stroke-width:1.0;"/><text fill="#000000" font-family="sans-serif" font-size="20" lengthAdjust="spacing" textLength="35" x="369.48" y="477.8613">has</text></g><!--link Board to Column--><g id="link_Board_Column"><path codeLine="70" d="M654.75,507.2969 C607.44,507.2969 559,507.2969 559,507.2969 C559,507.2969 559,616.2469 559,616.2469 " fill="none" id="Board-to-Column" style="stroke:#181818;stroke-width:1.0;"/><polygon fill="#181818" points="559,621.2469,563,612.2469,559,616.2469,555,612.2469,559,621.2469" style="stroke:#181818;stroke-width:1.0;"/><text fill="#000000" font-family="sans-serif" font-size="20" lengthAdjust="spacing" textLength="35" x="513" y="498.4613">has</text><text fill="#000000" font-family="sans-serif" font-size="20" lengthAdjust="spacing" textLength="10" x="537.9453" y="598.5867">*</text></g><!--link Board to Row--><g id="link_Board_Row"><path codeLine="71" d="M744,521.4869 C744,521.4869 744,616.0569 744,616.0569 " fill="none" id="Board-to-Row" style="stroke:#181818;stroke-width:1.0;"/><polygon fill="#181818" points="744,621.0569,748,612.0569,744,616.0569,740,612.0569,744,621.0569" style="stroke:#181818;stroke-width:1.0;"/><text fill="#000000" font-family="sans-serif" font-size="20" lengthAdjust="spacing" textLength="35" x="698" y="553.3313">has</text><text fill="#000000" font-family="sans-serif" font-size="20" lengthAdjust="spacing" textLength="10" x="722.9922" y="598.7495">*</text></g><!--link Board to eCourseUser--><g id="link_Board_eCourseUser"><path codeLine="72" d="M833.18,394.2969 C949.13,394.2969 1137,394.2969 1137,394.2969 C1137,394.2969 1137,659.2669 1137,659.2669 " fill="none" id="Board-to-eCourseUser" style="stroke:#181818;stroke-width:1.0;"/><polygon fill="#181818" points="1137,664.2669,1141,655.2669,1137,659.2669,1133,655.2669,1137,664.2669" style="stroke:#181818;stroke-width:1.0;"/><text fill="#000000" font-family="sans-serif" font-size="20" lengthAdjust="spacing" textLength="97" x="1009.57" y="378.8613">owned by</text></g><!--link Board to eCourseUser--><g id="link_Board_eCourseUser"><path codeLine="74" d="M833.12,458.2969 C938.28,458.2969 1099,458.2969 1099,458.2969 C1099,458.2969 1099,659.1769 1099,659.1769 " fill="none" id="Board-to-eCourseUser-1" style="stroke:#181818;stroke-width:1.0;stroke-dasharray:7.0,7.0;"/><polygon fill="#181818" points="1099,664.1769,1103,655.1769,1099,659.1769,1095,655.1769,1099,664.1769" style="stroke:#181818;stroke-width:1.0;"/><text fill="#000000" font-family="sans-serif" font-size="20" lengthAdjust="spacing" textLength="101" x="954.5" y="442.8613">viewed by</text></g><!--link Board to State--><g id="link_Board_State"><path codeLine="73" d="M814.75,521.6469 C814.75,606.6069 814.75,717.2969 814.75,717.2969 C814.75,717.2969 871.89,717.2969 871.89,717.2969 " fill="none" id="Board-to-State" style="stroke:#181818;stroke-width:1.0;"/><polygon fill="#181818" points="876.89,717.2969,867.89,713.2969,871.89,717.2969,867.89,721.2969,876.89,717.2969" style="stroke:#181818;stroke-width:1.0;"/><text fill="#000000" font-family="sans-serif" font-size="20" lengthAdjust="spacing" textLength="35" x="825.75" y="632.6113">has</text></g><!--SRC=[bLJ1Zjem4BtdAqRfhH88sakxMY6LPLVgeMXLjXzWue6uE1vaEx1qnRzt79DWeB1gSi2PUVFcpUWPjr9cBQoeD1Khb21n8MhjdyZucVg3y6cGUUKrGZwXIYW3FqYYXiTNRqNXUp0hXKKOax0oppGkF7W2gvQb1wai5bwHoJojGtXEtbELn5tR7DP2IcMMC1maGSEj7AxXIngqmgn2S3X8eqjBzVgxAT4gBqo1C4oIMXdqkpK2MLzIac0U_WrI0btADoMFOr6i0g-H3wJ9meTlNyDxehfOYIN2MmRyNE0ddyFRv9fz-XtlSKvQPliiAvL4A9GjDCPpXInEkYnhMV61QklmbqCR6XHQE9S6uVxU4ldHA6IPiONCIfvpAYfam4ReckUU_-QDCt3VWPvghT_3Z1NlQoByJT0ZkqBV0ho8rsUnGpkjgtaZ-WAvxqPkV7GSjldinZoikGULUEKDrvLnny1FshhJDRmqjZrl1sy99B8m1WsRV1St6GWRon_EIfxoSgV_h9Zvk4CqTTKfCEomzaRGue29R7onr2QI2LkKV8w4PtkAL-ziMp7OEIDH4IppZBPIpWN3jt8Yv4BF6JeA2uz58RkFBL-tA9HPzjbHGJyHaq_pNc-K3_EeCARW3bp8kYj5N95wlP_w_WvASQikoPoD4IkpL4TNq8-6ISWJHFwnLN_mp7kmu99_OwvFHLl3_y3ptHLzqIANfFt-BTADmcra_Gi0]--></g></svg>