<?xml version="1.0" encoding="UTF-8" standalone="no"?><svg xmlns="http://www.w3.org/2000/svg" xmlns:xlink="http://www.w3.org/1999/xlink" contentStyleType="text/css" height="1555px" preserveAspectRatio="none" style="width:2955px;height:1555px;background:#FFFFFF;" version="1.1" viewBox="0 0 2955 1555" width="2955px" zoomAndPan="magnify"><defs/><g><rect fill="#DDDDDD" height="1536.25" style="stroke:#181818;stroke-width:0.5;" width="650.5" x="510" y="6"/><text fill="#000000" font-family="FG Virgil" font-size="20" font-weight="bold" lengthAdjust="spacing" textLength="268" x="701.25" y="24.5645">ECourse TCP Client App</text><rect fill="#DDDDDD" height="1536.25" style="stroke:#181818;stroke-width:0.5;" width="1727" x="1222.5" y="6"/><text fill="#000000" font-family="FG Virgil" font-size="20" font-weight="bold" lengthAdjust="spacing" textLength="276" x="1948" y="24.5645">ECourse TCP Server App</text><rect fill="#FFFFFF" height="1263.5625" style="stroke:#181818;stroke-width:1.0;" width="10" x="591.5" y="165.125"/><rect fill="#FFFFFF" height="304.25" style="stroke:#181818;stroke-width:1.0;" width="10" x="1028.5" y="239.6875"/><rect fill="#FFFFFF" height="735.625" style="stroke:#181818;stroke-width:1.0;" width="10" x="1028.5" y="655.7813"/><rect fill="#FFFFFF" height="229.6875" style="stroke:#181818;stroke-width:1.0;" width="10" x="1347.5" y="276.9688"/><rect fill="#FFFFFF" height="661.0625" style="stroke:#181818;stroke-width:1.0;" width="10" x="1347.5" y="693.0625"/><rect fill="#FFFFFF" height="111.8438" style="stroke:#181818;stroke-width:1.0;" width="10" x="1860.5" y="357.5313"/><rect fill="#FFFFFF" height="543.2188" style="stroke:#181818;stroke-width:1.0;" width="10" x="1860.5" y="773.625"/><rect fill="#FFFFFF" height="37.2813" style="stroke:#181818;stroke-width:1.0;" width="10" x="2100" y="1242.2813"/><rect fill="#FFFFFF" height="37.2813" style="stroke:#181818;stroke-width:1.0;" width="10" x="2290" y="1167.7188"/><rect fill="#FFFFFF" height="37.2813" style="stroke:#181818;stroke-width:1.0;" width="10" x="2451" y="394.8125"/><rect fill="#FFFFFF" height="37.2813" style="stroke:#181818;stroke-width:1.0;" width="10" x="2451" y="810.9063"/><rect fill="#FFFFFF" height="37.2813" style="stroke:#181818;stroke-width:1.0;" width="10" x="2642.5" y="952.0313"/><rect fill="#FFFFFF" height="37.2813" style="stroke:#181818;stroke-width:1.0;" width="10" x="2844.5" y="1093.1563"/><line style="stroke:#181818;stroke-width:0.5;stroke-dasharray:5.0,5.0;" x1="30" x2="30" y1="125.8438" y2="1446.6875"/><line style="stroke:#181818;stroke-width:0.5;stroke-dasharray:5.0,5.0;" x1="596" x2="596" y1="125.8438" y2="1446.6875"/><line style="stroke:#181818;stroke-width:0.5;stroke-dasharray:5.0,5.0;" x1="1033.5" x2="1033.5" y1="125.8438" y2="1446.6875"/><line style="stroke:#181818;stroke-width:0.5;stroke-dasharray:5.0,5.0;" x1="1352.5" x2="1352.5" y1="125.8438" y2="1446.6875"/><line style="stroke:#181818;stroke-width:0.5;stroke-dasharray:5.0,5.0;" x1="1865.5" x2="1865.5" y1="125.8438" y2="1446.6875"/><line style="stroke:#181818;stroke-width:0.5;stroke-dasharray:5.0,5.0;" x1="2104.5" x2="2104.5" y1="125.8438" y2="1446.6875"/><line style="stroke:#181818;stroke-width:0.5;stroke-dasharray:5.0,5.0;" x1="2294.5" x2="2294.5" y1="125.8438" y2="1446.6875"/><line style="stroke:#181818;stroke-width:0.5;stroke-dasharray:5.0,5.0;" x1="2455.5" x2="2455.5" y1="125.8438" y2="1446.6875"/><line style="stroke:#181818;stroke-width:0.5;stroke-dasharray:5.0,5.0;" x1="2647.5" x2="2647.5" y1="125.8438" y2="1446.6875"/><line style="stroke:#181818;stroke-width:0.5;stroke-dasharray:5.0,5.0;" x1="2849.5" x2="2849.5" y1="125.8438" y2="1446.6875"/><text fill="#000000" font-family="FG Virgil" font-size="20" lengthAdjust="spacing" textLength="45" x="5" y="121.127">User</text><ellipse cx="30.5" cy="51.0625" fill="#E3E3E3" rx="8" ry="8" style="stroke:#181818;stroke-width:0.5;"/><path d="M30.5,59.0625 L30.5,86.0625 M17.5,67.0625 L43.5,67.0625 M30.5,86.0625 L17.5,101.0625 M30.5,86.0625 L43.5,101.0625 " fill="none" style="stroke:#181818;stroke-width:0.5;"/><text fill="#000000" font-family="FG Virgil" font-size="20" lengthAdjust="spacing" textLength="45" x="5" y="1464.252">User</text><ellipse cx="30.5" cy="1477.4688" fill="#E3E3E3" rx="8" ry="8" style="stroke:#181818;stroke-width:0.5;"/><path d="M30.5,1485.4688 L30.5,1512.4688 M17.5,1493.4688 L43.5,1493.4688 M30.5,1512.4688 L17.5,1527.4688 M30.5,1512.4688 L43.5,1527.4688 " fill="none" style="stroke:#181818;stroke-width:0.5;"/><rect fill="#E3E3E3" height="60.5625" rx="2.5" ry="2.5" style="stroke:#181818;stroke-width:0.5;" width="165" x="514" y="64.2813"/><text fill="#000000" font-family="FG Virgil" font-size="20" font-style="italic" lengthAdjust="spacing" textLength="151" x="521" y="89.8457">«presentation»</text><text fill="#000000" font-family="FG Virgil" font-size="20" lengthAdjust="spacing" textLength="138" x="527.5" y="113.127">ShareBoardUI</text><rect fill="#E3E3E3" height="60.5625" rx="2.5" ry="2.5" style="stroke:#181818;stroke-width:0.5;" width="165" x="514" y="1445.6875"/><text fill="#000000" font-family="FG Virgil" font-size="20" font-style="italic" lengthAdjust="spacing" textLength="151" x="521" y="1471.252">«presentation»</text><text fill="#000000" font-family="FG Virgil" font-size="20" lengthAdjust="spacing" textLength="138" x="527.5" y="1494.5332">ShareBoardUI</text><rect fill="#E3E3E3" height="83.8438" rx="2.5" ry="2.5" style="stroke:#181818;stroke-width:0.5;" width="246" x="910.5" y="41"/><text fill="#000000" font-family="FG Virgil" font-size="20" font-style="italic" lengthAdjust="spacing" textLength="232" x="917.5" y="66.5645">«TCP Client Controller»</text><text fill="#000000" font-family="FG Virgil" font-size="20" lengthAdjust="spacing" textLength="117" x="975" y="89.8457">ShareBoard</text><text fill="#000000" font-family="FG Virgil" font-size="20" lengthAdjust="spacing" textLength="196" x="935.5" y="113.127">TCPClientController</text><rect fill="#E3E3E3" height="83.8438" rx="2.5" ry="2.5" style="stroke:#181818;stroke-width:0.5;" width="246" x="910.5" y="1445.6875"/><text fill="#000000" font-family="FG Virgil" font-size="20" font-style="italic" lengthAdjust="spacing" textLength="232" x="917.5" y="1471.252">«TCP Client Controller»</text><text fill="#000000" font-family="FG Virgil" font-size="20" lengthAdjust="spacing" textLength="117" x="975" y="1494.5332">ShareBoard</text><text fill="#000000" font-family="FG Virgil" font-size="20" lengthAdjust="spacing" textLength="196" x="935.5" y="1517.8145">TCPClientController</text><rect fill="#E3E3E3" height="83.8438" rx="2.5" ry="2.5" style="stroke:#181818;stroke-width:0.5;" width="252" x="1226.5" y="41"/><text fill="#000000" font-family="FG Virgil" font-size="20" font-style="italic" lengthAdjust="spacing" textLength="238" x="1233.5" y="66.5645">«TCP Server Controller»</text><text fill="#000000" font-family="FG Virgil" font-size="20" lengthAdjust="spacing" textLength="117" x="1294" y="89.8457">ShareBoard</text><text fill="#000000" font-family="FG Virgil" font-size="20" lengthAdjust="spacing" textLength="201" x="1252" y="113.127">TCPServerController</text><rect fill="#E3E3E3" height="83.8438" rx="2.5" ry="2.5" style="stroke:#181818;stroke-width:0.5;" width="252" x="1226.5" y="1445.6875"/><text fill="#000000" font-family="FG Virgil" font-size="20" font-style="italic" lengthAdjust="spacing" textLength="238" x="1233.5" y="1471.252">«TCP Server Controller»</text><text fill="#000000" font-family="FG Virgil" font-size="20" lengthAdjust="spacing" textLength="117" x="1294" y="1494.5332">ShareBoard</text><text fill="#000000" font-family="FG Virgil" font-size="20" lengthAdjust="spacing" textLength="201" x="1252" y="1517.8145">TCPServerController</text><rect fill="#E3E3E3" height="60.5625" rx="2.5" ry="2.5" style="stroke:#181818;stroke-width:0.5;" width="230" x="1750.5" y="64.2813"/><text fill="#000000" font-family="FG Virgil" font-size="20" font-style="italic" lengthAdjust="spacing" textLength="136" x="1797.5" y="89.8457">«application»</text><text fill="#000000" font-family="FG Virgil" font-size="20" lengthAdjust="spacing" textLength="216" x="1757.5" y="113.127">ShareBoardController</text><rect fill="#E3E3E3" height="60.5625" rx="2.5" ry="2.5" style="stroke:#181818;stroke-width:0.5;" width="230" x="1750.5" y="1445.6875"/><text fill="#000000" font-family="FG Virgil" font-size="20" font-style="italic" lengthAdjust="spacing" textLength="136" x="1797.5" y="1471.252">«application»</text><text fill="#000000" font-family="FG Virgil" font-size="20" lengthAdjust="spacing" textLength="216" x="1757.5" y="1494.5332">ShareBoardController</text><text fill="#000000" font-family="FG Virgil" font-size="20" font-style="italic" lengthAdjust="spacing" textLength="125" x="2039.5" y="97.8457">«repository»</text><text fill="#000000" font-family="FG Virgil" font-size="20" lengthAdjust="spacing" textLength="223" x="1990.5" y="121.127">BoardShareRepository</text><path d="M2087,43.2813 C2087,33.2813 2105,33.2813 2105,33.2813 C2105,33.2813 2123,33.2813 2123,43.2813 L2123,69.2813 C2123,79.2813 2105,79.2813 2105,79.2813 C2105,79.2813 2087,79.2813 2087,69.2813 L2087,43.2813 " fill="#E3E3E3" style="stroke:#181818;stroke-width:1.5;"/><path d="M2087,43.2813 C2087,53.2813 2105,53.2813 2105,53.2813 C2105,53.2813 2123,53.2813 2123,43.2813 " fill="none" style="stroke:#181818;stroke-width:1.5;"/><text fill="#000000" font-family="FG Virgil" font-size="20" font-style="italic" lengthAdjust="spacing" textLength="125" x="2039.5" y="1464.252">«repository»</text><text fill="#000000" font-family="FG Virgil" font-size="20" lengthAdjust="spacing" textLength="223" x="1990.5" y="1487.5332">BoardShareRepository</text><path d="M2087,1502.25 C2087,1492.25 2105,1492.25 2105,1492.25 C2105,1492.25 2123,1492.25 2123,1502.25 L2123,1528.25 C2123,1538.25 2105,1538.25 2105,1538.25 C2105,1538.25 2087,1538.25 2087,1528.25 L2087,1502.25 " fill="#E3E3E3" style="stroke:#181818;stroke-width:1.5;"/><path d="M2087,1502.25 C2087,1512.25 2105,1512.25 2105,1512.25 C2105,1512.25 2123,1512.25 2123,1502.25 " fill="none" style="stroke:#181818;stroke-width:1.5;"/><rect fill="#E3E3E3" height="60.5625" rx="2.5" ry="2.5" style="stroke:#181818;stroke-width:0.5;" width="131" x="2229.5" y="64.2813"/><text fill="#000000" font-family="FG Virgil" font-size="20" font-style="italic" lengthAdjust="spacing" textLength="100" x="2245" y="89.8457">«domain»</text><text fill="#000000" font-family="FG Virgil" font-size="20" lengthAdjust="spacing" textLength="117" x="2236.5" y="113.127">BoardShare</text><rect fill="#E3E3E3" height="60.5625" rx="2.5" ry="2.5" style="stroke:#181818;stroke-width:0.5;" width="131" x="2229.5" y="1445.6875"/><text fill="#000000" font-family="FG Virgil" font-size="20" font-style="italic" lengthAdjust="spacing" textLength="100" x="2245" y="1471.252">«domain»</text><text fill="#000000" font-family="FG Virgil" font-size="20" lengthAdjust="spacing" textLength="117" x="2236.5" y="1494.5332">BoardShare</text><text fill="#000000" font-family="FG Virgil" font-size="20" font-style="italic" lengthAdjust="spacing" textLength="125" x="2390.5" y="97.8457">«repository»</text><text fill="#000000" font-family="FG Virgil" font-size="20" lengthAdjust="spacing" textLength="165" x="2370.5" y="121.127">BoardRepository</text><path d="M2438,43.2813 C2438,33.2813 2456,33.2813 2456,33.2813 C2456,33.2813 2474,33.2813 2474,43.2813 L2474,69.2813 C2474,79.2813 2456,79.2813 2456,79.2813 C2456,79.2813 2438,79.2813 2438,69.2813 L2438,43.2813 " fill="#E3E3E3" style="stroke:#181818;stroke-width:1.5;"/><path d="M2438,43.2813 C2438,53.2813 2456,53.2813 2456,53.2813 C2456,53.2813 2474,53.2813 2474,43.2813 " fill="none" style="stroke:#181818;stroke-width:1.5;"/><text fill="#000000" font-family="FG Virgil" font-size="20" font-style="italic" lengthAdjust="spacing" textLength="125" x="2390.5" y="1464.252">«repository»</text><text fill="#000000" font-family="FG Virgil" font-size="20" lengthAdjust="spacing" textLength="165" x="2370.5" y="1487.5332">BoardRepository</text><path d="M2438,1502.25 C2438,1492.25 2456,1492.25 2456,1492.25 C2456,1492.25 2474,1492.25 2474,1502.25 L2474,1528.25 C2474,1538.25 2456,1538.25 2456,1538.25 C2456,1538.25 2438,1538.25 2438,1528.25 L2438,1502.25 " fill="#E3E3E3" style="stroke:#181818;stroke-width:1.5;"/><path d="M2438,1502.25 C2438,1512.25 2456,1512.25 2456,1512.25 C2456,1512.25 2474,1512.25 2474,1502.25 " fill="none" style="stroke:#181818;stroke-width:1.5;"/><text fill="#000000" font-family="FG Virgil" font-size="20" font-style="italic" lengthAdjust="spacing" textLength="125" x="2582" y="97.8457">«repository»</text><text fill="#000000" font-family="FG Virgil" font-size="20" lengthAdjust="spacing" textLength="186" x="2551.5" y="121.127">StudentRepository</text><path d="M2629.5,43.2813 C2629.5,33.2813 2647.5,33.2813 2647.5,33.2813 C2647.5,33.2813 2665.5,33.2813 2665.5,43.2813 L2665.5,69.2813 C2665.5,79.2813 2647.5,79.2813 2647.5,79.2813 C2647.5,79.2813 2629.5,79.2813 2629.5,69.2813 L2629.5,43.2813 " fill="#E3E3E3" style="stroke:#181818;stroke-width:1.5;"/><path d="M2629.5,43.2813 C2629.5,53.2813 2647.5,53.2813 2647.5,53.2813 C2647.5,53.2813 2665.5,53.2813 2665.5,43.2813 " fill="none" style="stroke:#181818;stroke-width:1.5;"/><text fill="#000000" font-family="FG Virgil" font-size="20" font-style="italic" lengthAdjust="spacing" textLength="125" x="2582" y="1464.252">«repository»</text><text fill="#000000" font-family="FG Virgil" font-size="20" lengthAdjust="spacing" textLength="186" x="2551.5" y="1487.5332">StudentRepository</text><path d="M2629.5,1502.25 C2629.5,1492.25 2647.5,1492.25 2647.5,1492.25 C2647.5,1492.25 2665.5,1492.25 2665.5,1502.25 L2665.5,1528.25 C2665.5,1538.25 2647.5,1538.25 2647.5,1538.25 C2647.5,1538.25 2629.5,1538.25 2629.5,1528.25 L2629.5,1502.25 " fill="#E3E3E3" style="stroke:#181818;stroke-width:1.5;"/><path d="M2629.5,1502.25 C2629.5,1512.25 2647.5,1512.25 2647.5,1512.25 C2647.5,1512.25 2665.5,1512.25 2665.5,1502.25 " fill="none" style="stroke:#181818;stroke-width:1.5;"/><text fill="#000000" font-family="FG Virgil" font-size="20" font-style="italic" lengthAdjust="spacing" textLength="125" x="2784" y="97.8457">«repository»</text><text fill="#000000" font-family="FG Virgil" font-size="20" lengthAdjust="spacing" textLength="186" x="2753.5" y="121.127">TeacherRepository</text><path d="M2831.5,43.2813 C2831.5,33.2813 2849.5,33.2813 2849.5,33.2813 C2849.5,33.2813 2867.5,33.2813 2867.5,43.2813 L2867.5,69.2813 C2867.5,79.2813 2849.5,79.2813 2849.5,79.2813 C2849.5,79.2813 2831.5,79.2813 2831.5,69.2813 L2831.5,43.2813 " fill="#E3E3E3" style="stroke:#181818;stroke-width:1.5;"/><path d="M2831.5,43.2813 C2831.5,53.2813 2849.5,53.2813 2849.5,53.2813 C2849.5,53.2813 2867.5,53.2813 2867.5,43.2813 " fill="none" style="stroke:#181818;stroke-width:1.5;"/><text fill="#000000" font-family="FG Virgil" font-size="20" font-style="italic" lengthAdjust="spacing" textLength="125" x="2784" y="1464.252">«repository»</text><text fill="#000000" font-family="FG Virgil" font-size="20" lengthAdjust="spacing" textLength="186" x="2753.5" y="1487.5332">TeacherRepository</text><path d="M2831.5,1502.25 C2831.5,1492.25 2849.5,1492.25 2849.5,1492.25 C2849.5,1492.25 2867.5,1492.25 2867.5,1502.25 L2867.5,1528.25 C2867.5,1538.25 2849.5,1538.25 2849.5,1538.25 C2849.5,1538.25 2831.5,1538.25 2831.5,1528.25 L2831.5,1502.25 " fill="#E3E3E3" style="stroke:#181818;stroke-width:1.5;"/><path d="M2831.5,1502.25 C2831.5,1512.25 2849.5,1512.25 2849.5,1512.25 C2849.5,1512.25 2867.5,1512.25 2867.5,1502.25 " fill="none" style="stroke:#181818;stroke-width:1.5;"/><rect fill="#FFFFFF" height="1263.5625" style="stroke:#181818;stroke-width:1.0;" width="10" x="591.5" y="165.125"/><rect fill="#FFFFFF" height="304.25" style="stroke:#181818;stroke-width:1.0;" width="10" x="1028.5" y="239.6875"/><rect fill="#FFFFFF" height="735.625" style="stroke:#181818;stroke-width:1.0;" width="10" x="1028.5" y="655.7813"/><rect fill="#FFFFFF" height="229.6875" style="stroke:#181818;stroke-width:1.0;" width="10" x="1347.5" y="276.9688"/><rect fill="#FFFFFF" height="661.0625" style="stroke:#181818;stroke-width:1.0;" width="10" x="1347.5" y="693.0625"/><rect fill="#FFFFFF" height="111.8438" style="stroke:#181818;stroke-width:1.0;" width="10" x="1860.5" y="357.5313"/><rect fill="#FFFFFF" height="543.2188" style="stroke:#181818;stroke-width:1.0;" width="10" x="1860.5" y="773.625"/><rect fill="#FFFFFF" height="37.2813" style="stroke:#181818;stroke-width:1.0;" width="10" x="2100" y="1242.2813"/><rect fill="#FFFFFF" height="37.2813" style="stroke:#181818;stroke-width:1.0;" width="10" x="2290" y="1167.7188"/><rect fill="#FFFFFF" height="37.2813" style="stroke:#181818;stroke-width:1.0;" width="10" x="2451" y="394.8125"/><rect fill="#FFFFFF" height="37.2813" style="stroke:#181818;stroke-width:1.0;" width="10" x="2451" y="810.9063"/><rect fill="#FFFFFF" height="37.2813" style="stroke:#181818;stroke-width:1.0;" width="10" x="2642.5" y="952.0313"/><rect fill="#FFFFFF" height="37.2813" style="stroke:#181818;stroke-width:1.0;" width="10" x="2844.5" y="1093.1563"/><polygon fill="#181818" points="579.5,161.125,589.5,165.125,579.5,169.125,583.5,165.125" style="stroke:#181818;stroke-width:1.0;"/><line style="stroke:#181818;stroke-width:1.0;stroke-dasharray:2.0,2.0;" x1="30.5" x2="585.5" y1="165.125" y2="165.125"/><text fill="#000000" font-family="FG Virgil" font-size="20" font-weight="bold" lengthAdjust="spacing" textLength="14" x="37.5" y="158.4082">1</text><text fill="#000000" font-family="FG Virgil" font-size="20" lengthAdjust="spacing" textLength="295" x="55.5" y="158.4082">select option "Share a board"</text><polygon fill="#181818" points="1021.5,198.4063,1031.5,202.4063,1021.5,206.4063,1025.5,202.4063" style="stroke:#181818;stroke-width:1.0;"/><line style="stroke:#181818;stroke-width:1.0;" x1="601.5" x2="1027.5" y1="202.4063" y2="202.4063"/><text fill="#000000" font-family="FG Virgil" font-size="20" font-weight="bold" lengthAdjust="spacing" textLength="14" x="608.5" y="195.6895">2</text><text fill="#000000" font-family="FG Virgil" font-size="20" lengthAdjust="spacing" textLength="63" x="626.5" y="195.6895">create</text><polygon fill="#181818" points="1016.5,235.6875,1026.5,239.6875,1016.5,243.6875,1020.5,239.6875" style="stroke:#181818;stroke-width:1.0;"/><line style="stroke:#181818;stroke-width:1.0;" x1="601.5" x2="1022.5" y1="239.6875" y2="239.6875"/><text fill="#000000" font-family="FG Virgil" font-size="20" font-weight="bold" lengthAdjust="spacing" textLength="14" x="608.5" y="232.9707">3</text><text fill="#000000" font-family="FG Virgil" font-size="20" lengthAdjust="spacing" textLength="177" x="626.5" y="232.9707">listActiveBoards()</text><polygon fill="#181818" points="1335.5,272.9688,1345.5,276.9688,1335.5,280.9688,1339.5,276.9688" style="stroke:#181818;stroke-width:1.0;"/><line style="stroke:#181818;stroke-width:1.0;stroke-dasharray:2.0,2.0;" x1="1038.5" x2="1341.5" y1="276.9688" y2="276.9688"/><text fill="#000000" font-family="FG Virgil" font-size="20" font-weight="bold" lengthAdjust="spacing" textLength="14" x="1045.5" y="270.252">4</text><text fill="#000000" font-family="FG Virgil" font-size="20" lengthAdjust="spacing" textLength="155" x="1063.5" y="270.252">TCP connection</text><path d="M1362,289.9688 L1362,322.9688 L2167,322.9688 L2167,299.9688 L2157,289.9688 L1362,289.9688 " fill="#FAFAFA" style="stroke:#181818;stroke-width:0.5;"/><path d="M2157,289.9688 L2157,299.9688 L2167,299.9688 L2157,289.9688 " fill="#FAFAFA" style="stroke:#181818;stroke-width:0.5;"/><text fill="#000000" font-family="FG Virgil" font-size="20" lengthAdjust="spacing" textLength="784" x="1368" y="313.5332">verify if the user is logged in and retrieve the email, using the sessionManager</text><polygon fill="#181818" points="1848.5,353.5313,1858.5,357.5313,1848.5,361.5313,1852.5,357.5313" style="stroke:#181818;stroke-width:1.0;"/><line style="stroke:#181818;stroke-width:1.0;" x1="1357.5" x2="1854.5" y1="357.5313" y2="357.5313"/><text fill="#000000" font-family="FG Virgil" font-size="20" font-weight="bold" lengthAdjust="spacing" textLength="14" x="1364.5" y="350.8145">5</text><text fill="#000000" font-family="FG Virgil" font-size="20" lengthAdjust="spacing" textLength="233" x="1382.5" y="350.8145">listActiveBoards(email)</text><polygon fill="#181818" points="2439,390.8125,2449,394.8125,2439,398.8125,2443,394.8125" style="stroke:#181818;stroke-width:1.0;"/><line style="stroke:#181818;stroke-width:1.0;" x1="1870.5" x2="2445" y1="394.8125" y2="394.8125"/><text fill="#000000" font-family="FG Virgil" font-size="20" font-weight="bold" lengthAdjust="spacing" textLength="14" x="1877.5" y="388.0957">6</text><text fill="#000000" font-family="FG Virgil" font-size="20" lengthAdjust="spacing" textLength="264" x="1895.5" y="388.0957">findActiveByOwner(email)</text><polygon fill="#181818" points="1881.5,428.0938,1871.5,432.0938,1881.5,436.0938,1877.5,432.0938" style="stroke:#181818;stroke-width:1.0;"/><line style="stroke:#181818;stroke-width:1.0;stroke-dasharray:2.0,2.0;" x1="1875.5" x2="2455" y1="432.0938" y2="432.0938"/><text fill="#000000" font-family="FG Virgil" font-size="20" font-weight="bold" lengthAdjust="spacing" textLength="14" x="1887.5" y="425.377">7</text><text fill="#000000" font-family="FG Virgil" font-size="20" lengthAdjust="spacing" textLength="170" x="1905.5" y="425.377">Iterable&lt;Board&gt;</text><polygon fill="#181818" points="1368.5,465.375,1358.5,469.375,1368.5,473.375,1364.5,469.375" style="stroke:#181818;stroke-width:1.0;"/><line style="stroke:#181818;stroke-width:1.0;stroke-dasharray:2.0,2.0;" x1="1362.5" x2="1864.5" y1="469.375" y2="469.375"/><text fill="#000000" font-family="FG Virgil" font-size="20" font-weight="bold" lengthAdjust="spacing" textLength="14" x="1374.5" y="462.6582">8</text><text fill="#000000" font-family="FG Virgil" font-size="20" lengthAdjust="spacing" textLength="170" x="1392.5" y="462.6582">Iterable&lt;Board&gt;</text><polygon fill="#181818" points="1049.5,502.6563,1039.5,506.6563,1049.5,510.6563,1045.5,506.6563" style="stroke:#181818;stroke-width:1.0;"/><line style="stroke:#181818;stroke-width:1.0;stroke-dasharray:2.0,2.0;" x1="1043.5" x2="1351.5" y1="506.6563" y2="506.6563"/><text fill="#000000" font-family="FG Virgil" font-size="20" font-weight="bold" lengthAdjust="spacing" textLength="14" x="1055.5" y="499.9395">9</text><text fill="#000000" font-family="FG Virgil" font-size="20" lengthAdjust="spacing" textLength="155" x="1073.5" y="499.9395">TCP connection</text><polygon fill="#181818" points="612.5,539.9375,602.5,543.9375,612.5,547.9375,608.5,543.9375" style="stroke:#181818;stroke-width:1.0;"/><line style="stroke:#181818;stroke-width:1.0;" x1="606.5" x2="1032.5" y1="543.9375" y2="543.9375"/><text fill="#000000" font-family="FG Virgil" font-size="20" font-weight="bold" lengthAdjust="spacing" textLength="28" x="618.5" y="537.2207">10</text><text fill="#000000" font-family="FG Virgil" font-size="20" lengthAdjust="spacing" textLength="134" x="650.5" y="537.2207">active boards</text><polygon fill="#181818" points="41.5,577.2188,31.5,581.2188,41.5,585.2188,37.5,581.2188" style="stroke:#181818;stroke-width:1.0;"/><line style="stroke:#181818;stroke-width:1.0;stroke-dasharray:2.0,2.0;" x1="35.5" x2="590.5" y1="581.2188" y2="581.2188"/><text fill="#000000" font-family="FG Virgil" font-size="20" font-weight="bold" lengthAdjust="spacing" textLength="28" x="47.5" y="574.502">11</text><text fill="#000000" font-family="FG Virgil" font-size="20" lengthAdjust="spacing" textLength="505" x="79.5" y="574.502">ask for board to share, email and user permissions</text><polygon fill="#181818" points="579.5,614.5,589.5,618.5,579.5,622.5,583.5,618.5" style="stroke:#181818;stroke-width:1.0;"/><line style="stroke:#181818;stroke-width:1.0;stroke-dasharray:2.0,2.0;" x1="30.5" x2="585.5" y1="618.5" y2="618.5"/><text fill="#000000" font-family="FG Virgil" font-size="20" font-weight="bold" lengthAdjust="spacing" textLength="28" x="37.5" y="611.7832">12</text><text fill="#000000" font-family="FG Virgil" font-size="20" lengthAdjust="spacing" textLength="391" x="69.5" y="611.7832">selected board,email, user permissions</text><polygon fill="#181818" points="1016.5,651.7813,1026.5,655.7813,1016.5,659.7813,1020.5,655.7813" style="stroke:#181818;stroke-width:1.0;"/><line style="stroke:#181818;stroke-width:1.0;" x1="601.5" x2="1022.5" y1="655.7813" y2="655.7813"/><text fill="#000000" font-family="FG Virgil" font-size="20" font-weight="bold" lengthAdjust="spacing" textLength="28" x="608.5" y="649.0645">13</text><text fill="#000000" font-family="FG Virgil" font-size="20" lengthAdjust="spacing" textLength="376" x="640.5" y="649.0645">shareBoard(board,email,permissions)</text><polygon fill="#181818" points="1335.5,689.0625,1345.5,693.0625,1335.5,697.0625,1339.5,693.0625" style="stroke:#181818;stroke-width:1.0;"/><line style="stroke:#181818;stroke-width:1.0;stroke-dasharray:2.0,2.0;" x1="1038.5" x2="1341.5" y1="693.0625" y2="693.0625"/><text fill="#000000" font-family="FG Virgil" font-size="20" font-weight="bold" lengthAdjust="spacing" textLength="28" x="1045.5" y="686.3457">14</text><text fill="#000000" font-family="FG Virgil" font-size="20" lengthAdjust="spacing" textLength="155" x="1077.5" y="686.3457">TCP connection</text><path d="M1362,706.0625 L1362,739.0625 L2167,739.0625 L2167,716.0625 L2157,706.0625 L1362,706.0625 " fill="#FAFAFA" style="stroke:#181818;stroke-width:0.5;"/><path d="M2157,706.0625 L2157,716.0625 L2167,716.0625 L2157,706.0625 " fill="#FAFAFA" style="stroke:#181818;stroke-width:0.5;"/><text fill="#000000" font-family="FG Virgil" font-size="20" lengthAdjust="spacing" textLength="784" x="1368" y="729.627">verify if the user is logged in and retrieve the email, using the sessionManager</text><polygon fill="#181818" points="1848.5,769.625,1858.5,773.625,1848.5,777.625,1852.5,773.625" style="stroke:#181818;stroke-width:1.0;"/><line style="stroke:#181818;stroke-width:1.0;" x1="1357.5" x2="1854.5" y1="773.625" y2="773.625"/><text fill="#000000" font-family="FG Virgil" font-size="20" font-weight="bold" lengthAdjust="spacing" textLength="28" x="1364.5" y="766.9082">15</text><text fill="#000000" font-family="FG Virgil" font-size="20" lengthAdjust="spacing" textLength="452" x="1396.5" y="766.9082">shareBoard(boardTitle,email,userPermission)</text><polygon fill="#181818" points="2439,806.9063,2449,810.9063,2439,814.9063,2443,810.9063" style="stroke:#181818;stroke-width:1.0;"/><line style="stroke:#181818;stroke-width:1.0;" x1="1870.5" x2="2445" y1="810.9063" y2="810.9063"/><text fill="#000000" font-family="FG Virgil" font-size="20" font-weight="bold" lengthAdjust="spacing" textLength="28" x="1877.5" y="804.1895">16</text><text fill="#000000" font-family="FG Virgil" font-size="20" lengthAdjust="spacing" textLength="226" x="1909.5" y="804.1895">findByTitle(boardTitle)</text><polygon fill="#181818" points="1881.5,844.1875,1871.5,848.1875,1881.5,852.1875,1877.5,848.1875" style="stroke:#181818;stroke-width:1.0;"/><line style="stroke:#181818;stroke-width:1.0;stroke-dasharray:2.0,2.0;" x1="1875.5" x2="2455" y1="848.1875" y2="848.1875"/><text fill="#000000" font-family="FG Virgil" font-size="20" font-weight="bold" lengthAdjust="spacing" textLength="28" x="1887.5" y="841.4707">17</text><text fill="#000000" font-family="FG Virgil" font-size="20" lengthAdjust="spacing" textLength="59" x="1919.5" y="841.4707">Board</text><path d="M1643,861.1875 L1643,917.1875 L2087,917.1875 L2087,871.1875 L2077,861.1875 L1643,861.1875 " fill="#FAFAFA" style="stroke:#181818;stroke-width:0.5;"/><path d="M2077,861.1875 L2077,871.1875 L2087,871.1875 L2077,861.1875 " fill="#FAFAFA" style="stroke:#181818;stroke-width:0.5;"/><text fill="#000000" font-family="FG Virgil" font-size="20" lengthAdjust="spacing" textLength="423" x="1649" y="884.752">Search for the owner in student repository</text><text fill="#000000" font-family="FG Virgil" font-size="20" lengthAdjust="spacing" textLength="6" x="1649" y="908.0332"> </text><polygon fill="#181818" points="2630.5,948.0313,2640.5,952.0313,2630.5,956.0313,2634.5,952.0313" style="stroke:#181818;stroke-width:1.0;"/><line style="stroke:#181818;stroke-width:1.0;" x1="1870.5" x2="2636.5" y1="952.0313" y2="952.0313"/><text fill="#000000" font-family="FG Virgil" font-size="20" font-weight="bold" lengthAdjust="spacing" textLength="28" x="1877.5" y="945.3145">18</text><text fill="#000000" font-family="FG Virgil" font-size="20" lengthAdjust="spacing" textLength="193" x="1909.5" y="945.3145">findByEmail(email)</text><polygon fill="#181818" points="1881.5,985.3125,1871.5,989.3125,1881.5,993.3125,1877.5,989.3125" style="stroke:#181818;stroke-width:1.0;"/><line style="stroke:#181818;stroke-width:1.0;stroke-dasharray:2.0,2.0;" x1="1875.5" x2="2646.5" y1="989.3125" y2="989.3125"/><text fill="#000000" font-family="FG Virgil" font-size="20" font-weight="bold" lengthAdjust="spacing" textLength="28" x="1887.5" y="982.5957">19</text><text fill="#000000" font-family="FG Virgil" font-size="20" lengthAdjust="spacing" textLength="200" x="1919.5" y="982.5957">Optional&lt;Student&gt;</text><path d="M1443,1002.3125 L1443,1058.3125 L2288,1058.3125 L2288,1012.3125 L2278,1002.3125 L1443,1002.3125 " fill="#FAFAFA" style="stroke:#181818;stroke-width:0.5;"/><path d="M2278,1002.3125 L2278,1012.3125 L2288,1012.3125 L2278,1002.3125 " fill="#FAFAFA" style="stroke:#181818;stroke-width:0.5;"/><text fill="#000000" font-family="FG Virgil" font-size="20" lengthAdjust="spacing" textLength="824" x="1449" y="1025.877">If it was no match in student repository, search for the owner in teacher repository</text><text fill="#000000" font-family="FG Virgil" font-size="20" lengthAdjust="spacing" textLength="6" x="1449" y="1049.1582"> </text><polygon fill="#181818" points="2832.5,1089.1563,2842.5,1093.1563,2832.5,1097.1563,2836.5,1093.1563" style="stroke:#181818;stroke-width:1.0;"/><line style="stroke:#181818;stroke-width:1.0;" x1="1870.5" x2="2838.5" y1="1093.1563" y2="1093.1563"/><text fill="#000000" font-family="FG Virgil" font-size="20" font-weight="bold" lengthAdjust="spacing" textLength="28" x="1877.5" y="1086.4395">20</text><text fill="#000000" font-family="FG Virgil" font-size="20" lengthAdjust="spacing" textLength="193" x="1909.5" y="1086.4395">findByEmail(email)</text><polygon fill="#181818" points="1881.5,1126.4375,1871.5,1130.4375,1881.5,1134.4375,1877.5,1130.4375" style="stroke:#181818;stroke-width:1.0;"/><line style="stroke:#181818;stroke-width:1.0;stroke-dasharray:2.0,2.0;" x1="1875.5" x2="2848.5" y1="1130.4375" y2="1130.4375"/><text fill="#000000" font-family="FG Virgil" font-size="20" font-weight="bold" lengthAdjust="spacing" textLength="28" x="1887.5" y="1123.7207">21</text><text fill="#000000" font-family="FG Virgil" font-size="20" lengthAdjust="spacing" textLength="200" x="1919.5" y="1123.7207">Optional&lt;Teacher&gt;</text><polygon fill="#181818" points="2278,1163.7188,2288,1167.7188,2278,1171.7188,2282,1167.7188" style="stroke:#181818;stroke-width:1.0;"/><line style="stroke:#181818;stroke-width:1.0;" x1="1870.5" x2="2284" y1="1167.7188" y2="1167.7188"/><text fill="#000000" font-family="FG Virgil" font-size="20" font-weight="bold" lengthAdjust="spacing" textLength="28" x="1877.5" y="1161.002">22</text><text fill="#000000" font-family="FG Virgil" font-size="20" lengthAdjust="spacing" textLength="357" x="1909.5" y="1161.002">create(userPermission,board,email)</text><polygon fill="#181818" points="1881.5,1201,1871.5,1205,1881.5,1209,1877.5,1205" style="stroke:#181818;stroke-width:1.0;"/><line style="stroke:#181818;stroke-width:1.0;stroke-dasharray:2.0,2.0;" x1="1875.5" x2="2294" y1="1205" y2="1205"/><text fill="#000000" font-family="FG Virgil" font-size="20" font-weight="bold" lengthAdjust="spacing" textLength="28" x="1887.5" y="1198.2832">23</text><text fill="#000000" font-family="FG Virgil" font-size="20" lengthAdjust="spacing" textLength="117" x="1919.5" y="1198.2832">BoardShare</text><polygon fill="#181818" points="2088,1238.2813,2098,1242.2813,2088,1246.2813,2092,1242.2813" style="stroke:#181818;stroke-width:1.0;"/><line style="stroke:#181818;stroke-width:1.0;" x1="1870.5" x2="2094" y1="1242.2813" y2="1242.2813"/><text fill="#000000" font-family="FG Virgil" font-size="20" font-weight="bold" lengthAdjust="spacing" textLength="28" x="1877.5" y="1235.5645">24</text><text fill="#000000" font-family="FG Virgil" font-size="20" lengthAdjust="spacing" textLength="177" x="1909.5" y="1235.5645">save(boardShare)</text><polygon fill="#181818" points="1881.5,1275.5625,1871.5,1279.5625,1881.5,1283.5625,1877.5,1279.5625" style="stroke:#181818;stroke-width:1.0;"/><line style="stroke:#181818;stroke-width:1.0;stroke-dasharray:2.0,2.0;" x1="1875.5" x2="2104" y1="1279.5625" y2="1279.5625"/><text fill="#000000" font-family="FG Virgil" font-size="20" font-weight="bold" lengthAdjust="spacing" textLength="28" x="1887.5" y="1272.8457">25</text><text fill="#000000" font-family="FG Virgil" font-size="20" lengthAdjust="spacing" textLength="117" x="1919.5" y="1272.8457">BoardShare</text><polygon fill="#181818" points="1368.5,1312.8438,1358.5,1316.8438,1368.5,1320.8438,1364.5,1316.8438" style="stroke:#181818;stroke-width:1.0;"/><line style="stroke:#181818;stroke-width:1.0;stroke-dasharray:2.0,2.0;" x1="1362.5" x2="1864.5" y1="1316.8438" y2="1316.8438"/><text fill="#000000" font-family="FG Virgil" font-size="20" font-weight="bold" lengthAdjust="spacing" textLength="28" x="1374.5" y="1310.127">26</text><text fill="#000000" font-family="FG Virgil" font-size="20" lengthAdjust="spacing" textLength="117" x="1406.5" y="1310.127">BoardShare</text><polygon fill="#181818" points="1049.5,1350.125,1039.5,1354.125,1049.5,1358.125,1045.5,1354.125" style="stroke:#181818;stroke-width:1.0;"/><line style="stroke:#181818;stroke-width:1.0;stroke-dasharray:2.0,2.0;" x1="1043.5" x2="1351.5" y1="1354.125" y2="1354.125"/><text fill="#000000" font-family="FG Virgil" font-size="20" font-weight="bold" lengthAdjust="spacing" textLength="28" x="1055.5" y="1347.4082">27</text><text fill="#000000" font-family="FG Virgil" font-size="20" lengthAdjust="spacing" textLength="155" x="1087.5" y="1347.4082">TCP connection</text><polygon fill="#181818" points="612.5,1387.4063,602.5,1391.4063,612.5,1395.4063,608.5,1391.4063" style="stroke:#181818;stroke-width:1.0;"/><line style="stroke:#181818;stroke-width:1.0;stroke-dasharray:2.0,2.0;" x1="606.5" x2="1032.5" y1="1391.4063" y2="1391.4063"/><text fill="#000000" font-family="FG Virgil" font-size="20" font-weight="bold" lengthAdjust="spacing" textLength="28" x="618.5" y="1384.6895">28</text><text fill="#000000" font-family="FG Virgil" font-size="20" lengthAdjust="spacing" textLength="77" x="650.5" y="1384.6895">success</text><polygon fill="#181818" points="41.5,1424.6875,31.5,1428.6875,41.5,1432.6875,37.5,1428.6875" style="stroke:#181818;stroke-width:1.0;"/><line style="stroke:#181818;stroke-width:1.0;" x1="35.5" x2="595.5" y1="1428.6875" y2="1428.6875"/><text fill="#000000" font-family="FG Virgil" font-size="20" font-weight="bold" lengthAdjust="spacing" textLength="28" x="47.5" y="1421.9707">29</text><text fill="#000000" font-family="FG Virgil" font-size="20" lengthAdjust="spacing" textLength="135" x="79.5" y="1421.9707">show success</text><!--SRC=[xLRBRjim4BphAnQvD0MS9h1zCe80YTiK0Ve8wgIdNXXfRH6XI86aahfVtoKbIp95nNqSUgaEGKJjpEuEPqcRHovBfbaXLFg86MIuPfMmrqhQ5V-1C3rBNkNMbelJqr8mQQj2l4bLSMfsk3UvBKJIliAL-dxBiepB3SpE4bPP9QlY0NNIYocKL6ckLO5WTOMzBoLB7za6LtOh43IcjlUjLzedHj3hz_2LwmtlPpSvozIpIxvcmc2IiDGg3VS6DJ03b-ujIHxKTtYtL9Ks27VBMrWAZjB2PLacH6Dvoajg5LOvqtYbcCxkRnoQ_fwVbneD1JFBbRous8i_wW3V9F7Mj4kgLoiXK1yvad2HA7ibTEl4ZJ83AdLOxmhr4o73UiFyTLYGFrniyZUKU_dZMlIWHFTM5OpBvTsN3qJ4obBmT2TDnYnxO5IoXtc2BrWgmsaFjWxRlKq9hDkt87K7xn9IVER_6UGPIn5cQ54hMsKa_HXkDWgyGvRcgCU0yn3ORcVzU2_2oSa5-Me11WMv7LJfn6js4XZ5Kqj7piNyYLcaq0Je8ISIBhJI0bAD5DM4H2C4D_RIiTMRQOvV- -WsGOZmNmUUTLM7HbfuQwPAIcg4cjZd3QFzLwdeY-QRd1fVnqFSGwjylGM-1fiZL6wMkG6XDXiwiCWBZ8JLQ3N79_GXICuG4ufq1u5RC6WCbVIHIJfSQcAt6ow_VnaC1VNNEJkYciyGIDS1_7flCeYjyyK2rbnc3TlsyxD47QNh47wzPxEJeBeRYvez23ptnLtuy0nZH8F2eljuW2_eSwXTr7WHS_Gueti_j5qzAnw5zMoOa2bgO1e6mlg98xXvX3MDdiU3LUxIq3YfNUFDv2rMeYwujqsTOtzUcu75hAQPj9QB8CUcrRHdwd6Vf0S_D9p_fzFvFzJnZbk1ZPYkdjjMqDV9NupirTOJztByySJwOb-OqrP-KEvM7amSqsdkFUpaK-u8SKgR-YO37GpydfXZFSvsJRvpkXquaMP1WxD1Xv_zHSR4UNEzld0gpHehZJVidfirS0lFTCLA1GMp942qvGdPAIwFhU_hWJo_BD7yToIQ1nBDnoLgVaYy8D4yKbVzjhlpZ_UDFkaTAD5hgaSOTwV_1H8_-byKQKhpo9wQAV4aen9D0ucclr59o7BmKZlKr3-vptO__geqfJFm5wyowAuoawld5hrxUWptDpy1]--></g></svg>