<?xml version="1.0" encoding="UTF-8" standalone="no"?><svg xmlns="http://www.w3.org/2000/svg" xmlns:xlink="http://www.w3.org/1999/xlink" contentStyleType="text/css" height="1198px" preserveAspectRatio="none" style="width:1982px;height:1198px;background:#FFFFFF;" version="1.1" viewBox="0 0 1982 1198" width="1982px" zoomAndPan="magnify"><defs/><g><rect fill="#DDDDDD" height="1179.4375" style="stroke:#181818;stroke-width:0.5;" width="552.5" x="330" y="6"/><text fill="#000000" font-family="FG Virgil" font-size="20" font-weight="bold" lengthAdjust="spacing" textLength="268" x="472.25" y="24.5645">ECourse TCP Client App</text><rect fill="#DDDDDD" height="1179.4375" style="stroke:#181818;stroke-width:0.5;" width="1032" x="944.5" y="6"/><text fill="#000000" font-family="FG Virgil" font-size="20" font-weight="bold" lengthAdjust="spacing" textLength="276" x="1322.5" y="24.5645">ECourse TCP Server App</text><rect fill="#FFFFFF" height="915.75" style="stroke:#181818;stroke-width:1.0;" width="10" x="412.5" y="165.125"/><rect fill="#FFFFFF" height="378.8125" style="stroke:#181818;stroke-width:1.0;" width="10" x="750.5" y="239.6875"/><rect fill="#FFFFFF" height="304.25" style="stroke:#181818;stroke-width:1.0;" width="10" x="750.5" y="730.3438"/><rect fill="#FFFFFF" height="304.25" style="stroke:#181818;stroke-width:1.0;" width="10" x="1069.5" y="276.9688"/><rect fill="#FFFFFF" height="229.6875" style="stroke:#181818;stroke-width:1.0;" width="10" x="1069.5" y="767.625"/><rect fill="#FFFFFF" height="186.4063" style="stroke:#181818;stroke-width:1.0;" width="10" x="1407.5" y="357.5313"/><rect fill="#FFFFFF" height="111.8438" style="stroke:#181818;stroke-width:1.0;" width="10" x="1407.5" y="848.1875"/><rect fill="#FFFFFF" height="111.8438" style="stroke:#181818;stroke-width:1.0;" width="10" x="1642" y="394.8125"/><rect fill="#FFFFFF" height="37.2813" style="stroke:#181818;stroke-width:1.0;" width="10" x="1882" y="432.0938"/><rect fill="#FFFFFF" height="37.2813" style="stroke:#181818;stroke-width:1.0;" width="10" x="1882" y="885.4688"/><line style="stroke:#181818;stroke-width:0.5;stroke-dasharray:5.0,5.0;" x1="30" x2="30" y1="125.8438" y2="1089.875"/><line style="stroke:#181818;stroke-width:0.5;stroke-dasharray:5.0,5.0;" x1="417" x2="417" y1="125.8438" y2="1089.875"/><line style="stroke:#181818;stroke-width:0.5;stroke-dasharray:5.0,5.0;" x1="755.5" x2="755.5" y1="125.8438" y2="1089.875"/><line style="stroke:#181818;stroke-width:0.5;stroke-dasharray:5.0,5.0;" x1="1074.5" x2="1074.5" y1="125.8438" y2="1089.875"/><line style="stroke:#181818;stroke-width:0.5;stroke-dasharray:5.0,5.0;" x1="1412" x2="1412" y1="125.8438" y2="1089.875"/><line style="stroke:#181818;stroke-width:0.5;stroke-dasharray:5.0,5.0;" x1="1647" x2="1647" y1="125.8438" y2="1089.875"/><line style="stroke:#181818;stroke-width:0.5;stroke-dasharray:5.0,5.0;" x1="1886.5" x2="1886.5" y1="125.8438" y2="1089.875"/><text fill="#000000" font-family="FG Virgil" font-size="20" lengthAdjust="spacing" textLength="45" x="5" y="121.127">User</text><ellipse cx="30.5" cy="51.0625" fill="#E3E3E3" rx="8" ry="8" style="stroke:#181818;stroke-width:0.5;"/><path d="M30.5,59.0625 L30.5,86.0625 M17.5,67.0625 L43.5,67.0625 M30.5,86.0625 L17.5,101.0625 M30.5,86.0625 L43.5,101.0625 " fill="none" style="stroke:#181818;stroke-width:0.5;"/><text fill="#000000" font-family="FG Virgil" font-size="20" lengthAdjust="spacing" textLength="45" x="5" y="1107.4395">User</text><ellipse cx="30.5" cy="1120.6563" fill="#E3E3E3" rx="8" ry="8" style="stroke:#181818;stroke-width:0.5;"/><path d="M30.5,1128.6563 L30.5,1155.6563 M17.5,1136.6563 L43.5,1136.6563 M30.5,1155.6563 L17.5,1170.6563 M30.5,1155.6563 L43.5,1170.6563 " fill="none" style="stroke:#181818;stroke-width:0.5;"/><rect fill="#E3E3E3" height="60.5625" rx="2.5" ry="2.5" style="stroke:#181818;stroke-width:0.5;" width="167" x="334" y="64.2813"/><text fill="#000000" font-family="FG Virgil" font-size="20" font-style="italic" lengthAdjust="spacing" textLength="151" x="342" y="89.8457">«presentation»</text><text fill="#000000" font-family="FG Virgil" font-size="20" lengthAdjust="spacing" textLength="153" x="341" y="113.127">ViewUpdatesUI</text><rect fill="#E3E3E3" height="60.5625" rx="2.5" ry="2.5" style="stroke:#181818;stroke-width:0.5;" width="167" x="334" y="1088.875"/><text fill="#000000" font-family="FG Virgil" font-size="20" font-style="italic" lengthAdjust="spacing" textLength="151" x="342" y="1114.4395">«presentation»</text><text fill="#000000" font-family="FG Virgil" font-size="20" lengthAdjust="spacing" textLength="153" x="341" y="1137.7207">ViewUpdatesUI</text><rect fill="#E3E3E3" height="83.8438" rx="2.5" ry="2.5" style="stroke:#181818;stroke-width:0.5;" width="246" x="632.5" y="41"/><text fill="#000000" font-family="FG Virgil" font-size="20" font-style="italic" lengthAdjust="spacing" textLength="232" x="639.5" y="66.5645">«TCP Client Controller»</text><text fill="#000000" font-family="FG Virgil" font-size="20" lengthAdjust="spacing" textLength="132" x="689.5" y="89.8457">ViewUpdates</text><text fill="#000000" font-family="FG Virgil" font-size="20" lengthAdjust="spacing" textLength="196" x="657.5" y="113.127">TCPClientController</text><rect fill="#E3E3E3" height="83.8438" rx="2.5" ry="2.5" style="stroke:#181818;stroke-width:0.5;" width="246" x="632.5" y="1088.875"/><text fill="#000000" font-family="FG Virgil" font-size="20" font-style="italic" lengthAdjust="spacing" textLength="232" x="639.5" y="1114.4395">«TCP Client Controller»</text><text fill="#000000" font-family="FG Virgil" font-size="20" lengthAdjust="spacing" textLength="132" x="689.5" y="1137.7207">ViewUpdates</text><text fill="#000000" font-family="FG Virgil" font-size="20" lengthAdjust="spacing" textLength="196" x="657.5" y="1161.002">TCPClientController</text><rect fill="#E3E3E3" height="83.8438" rx="2.5" ry="2.5" style="stroke:#181818;stroke-width:0.5;" width="252" x="948.5" y="41"/><text fill="#000000" font-family="FG Virgil" font-size="20" font-style="italic" lengthAdjust="spacing" textLength="238" x="955.5" y="66.5645">«TCP Server Controller»</text><text fill="#000000" font-family="FG Virgil" font-size="20" lengthAdjust="spacing" textLength="132" x="1008.5" y="89.8457">ViewUpdates</text><text fill="#000000" font-family="FG Virgil" font-size="20" lengthAdjust="spacing" textLength="201" x="974" y="113.127">TCPServerController</text><rect fill="#E3E3E3" height="83.8438" rx="2.5" ry="2.5" style="stroke:#181818;stroke-width:0.5;" width="252" x="948.5" y="1088.875"/><text fill="#000000" font-family="FG Virgil" font-size="20" font-style="italic" lengthAdjust="spacing" textLength="238" x="955.5" y="1114.4395">«TCP Server Controller»</text><text fill="#000000" font-family="FG Virgil" font-size="20" lengthAdjust="spacing" textLength="132" x="1008.5" y="1137.7207">ViewUpdates</text><text fill="#000000" font-family="FG Virgil" font-size="20" lengthAdjust="spacing" textLength="201" x="974" y="1161.002">TCPServerController</text><rect fill="#E3E3E3" height="60.5625" rx="2.5" ry="2.5" style="stroke:#181818;stroke-width:0.5;" width="245" x="1290" y="64.2813"/><text fill="#000000" font-family="FG Virgil" font-size="20" font-style="italic" lengthAdjust="spacing" textLength="136" x="1344.5" y="89.8457">«application»</text><text fill="#000000" font-family="FG Virgil" font-size="20" lengthAdjust="spacing" textLength="231" x="1297" y="113.127">ViewUpdatesController</text><rect fill="#E3E3E3" height="60.5625" rx="2.5" ry="2.5" style="stroke:#181818;stroke-width:0.5;" width="245" x="1290" y="1088.875"/><text fill="#000000" font-family="FG Virgil" font-size="20" font-style="italic" lengthAdjust="spacing" textLength="136" x="1344.5" y="1114.4395">«application»</text><text fill="#000000" font-family="FG Virgil" font-size="20" lengthAdjust="spacing" textLength="231" x="1297" y="1137.7207">ViewUpdatesController</text><rect fill="#E3E3E3" height="60.5625" rx="2.5" ry="2.5" style="stroke:#181818;stroke-width:0.5;" width="204" x="1545" y="64.2813"/><text fill="#000000" font-family="FG Virgil" font-size="20" font-style="italic" lengthAdjust="spacing" textLength="95" x="1599.5" y="89.8457">«service»</text><text fill="#000000" font-family="FG Virgil" font-size="20" lengthAdjust="spacing" textLength="190" x="1552" y="113.127">ShareBoardService</text><rect fill="#E3E3E3" height="60.5625" rx="2.5" ry="2.5" style="stroke:#181818;stroke-width:0.5;" width="204" x="1545" y="1088.875"/><text fill="#000000" font-family="FG Virgil" font-size="20" font-style="italic" lengthAdjust="spacing" textLength="95" x="1599.5" y="1114.4395">«service»</text><text fill="#000000" font-family="FG Virgil" font-size="20" lengthAdjust="spacing" textLength="190" x="1552" y="1137.7207">ShareBoardService</text><text fill="#000000" font-family="FG Virgil" font-size="20" font-style="italic" lengthAdjust="spacing" textLength="125" x="1821.5" y="97.8457">«repository»</text><text fill="#000000" font-family="FG Virgil" font-size="20" lengthAdjust="spacing" textLength="165" x="1801.5" y="121.127">BoardRepository</text><path d="M1869,43.2813 C1869,33.2813 1887,33.2813 1887,33.2813 C1887,33.2813 1905,33.2813 1905,43.2813 L1905,69.2813 C1905,79.2813 1887,79.2813 1887,79.2813 C1887,79.2813 1869,79.2813 1869,69.2813 L1869,43.2813 " fill="#E3E3E3" style="stroke:#181818;stroke-width:1.5;"/><path d="M1869,43.2813 C1869,53.2813 1887,53.2813 1887,53.2813 C1887,53.2813 1905,53.2813 1905,43.2813 " fill="none" style="stroke:#181818;stroke-width:1.5;"/><text fill="#000000" font-family="FG Virgil" font-size="20" font-style="italic" lengthAdjust="spacing" textLength="125" x="1821.5" y="1107.4395">«repository»</text><text fill="#000000" font-family="FG Virgil" font-size="20" lengthAdjust="spacing" textLength="165" x="1801.5" y="1130.7207">BoardRepository</text><path d="M1869,1145.4375 C1869,1135.4375 1887,1135.4375 1887,1135.4375 C1887,1135.4375 1905,1135.4375 1905,1145.4375 L1905,1171.4375 C1905,1181.4375 1887,1181.4375 1887,1181.4375 C1887,1181.4375 1869,1181.4375 1869,1171.4375 L1869,1145.4375 " fill="#E3E3E3" style="stroke:#181818;stroke-width:1.5;"/><path d="M1869,1145.4375 C1869,1155.4375 1887,1155.4375 1887,1155.4375 C1887,1155.4375 1905,1155.4375 1905,1145.4375 " fill="none" style="stroke:#181818;stroke-width:1.5;"/><rect fill="#FFFFFF" height="915.75" style="stroke:#181818;stroke-width:1.0;" width="10" x="412.5" y="165.125"/><rect fill="#FFFFFF" height="378.8125" style="stroke:#181818;stroke-width:1.0;" width="10" x="750.5" y="239.6875"/><rect fill="#FFFFFF" height="304.25" style="stroke:#181818;stroke-width:1.0;" width="10" x="750.5" y="730.3438"/><rect fill="#FFFFFF" height="304.25" style="stroke:#181818;stroke-width:1.0;" width="10" x="1069.5" y="276.9688"/><rect fill="#FFFFFF" height="229.6875" style="stroke:#181818;stroke-width:1.0;" width="10" x="1069.5" y="767.625"/><rect fill="#FFFFFF" height="186.4063" style="stroke:#181818;stroke-width:1.0;" width="10" x="1407.5" y="357.5313"/><rect fill="#FFFFFF" height="111.8438" style="stroke:#181818;stroke-width:1.0;" width="10" x="1407.5" y="848.1875"/><rect fill="#FFFFFF" height="111.8438" style="stroke:#181818;stroke-width:1.0;" width="10" x="1642" y="394.8125"/><rect fill="#FFFFFF" height="37.2813" style="stroke:#181818;stroke-width:1.0;" width="10" x="1882" y="432.0938"/><rect fill="#FFFFFF" height="37.2813" style="stroke:#181818;stroke-width:1.0;" width="10" x="1882" y="885.4688"/><polygon fill="#181818" points="400.5,161.125,410.5,165.125,400.5,169.125,404.5,165.125" style="stroke:#181818;stroke-width:1.0;"/><line style="stroke:#181818;stroke-width:1.0;stroke-dasharray:2.0,2.0;" x1="30.5" x2="406.5" y1="165.125" y2="165.125"/><text fill="#000000" font-family="FG Virgil" font-size="20" font-weight="bold" lengthAdjust="spacing" textLength="14" x="37.5" y="158.4082">1</text><text fill="#000000" font-family="FG Virgil" font-size="20" lengthAdjust="spacing" textLength="345" x="55.5" y="158.4082">select option "View Board History"</text><polygon fill="#181818" points="743.5,198.4063,753.5,202.4063,743.5,206.4063,747.5,202.4063" style="stroke:#181818;stroke-width:1.0;"/><line style="stroke:#181818;stroke-width:1.0;" x1="422.5" x2="749.5" y1="202.4063" y2="202.4063"/><text fill="#000000" font-family="FG Virgil" font-size="20" font-weight="bold" lengthAdjust="spacing" textLength="14" x="429.5" y="195.6895">2</text><text fill="#000000" font-family="FG Virgil" font-size="20" lengthAdjust="spacing" textLength="63" x="447.5" y="195.6895">create</text><polygon fill="#181818" points="738.5,235.6875,748.5,239.6875,738.5,243.6875,742.5,239.6875" style="stroke:#181818;stroke-width:1.0;"/><line style="stroke:#181818;stroke-width:1.0;" x1="422.5" x2="744.5" y1="239.6875" y2="239.6875"/><text fill="#000000" font-family="FG Virgil" font-size="20" font-weight="bold" lengthAdjust="spacing" textLength="14" x="429.5" y="232.9707">3</text><text fill="#000000" font-family="FG Virgil" font-size="20" lengthAdjust="spacing" textLength="160" x="447.5" y="232.9707">listUserBoards()</text><polygon fill="#181818" points="1057.5,272.9688,1067.5,276.9688,1057.5,280.9688,1061.5,276.9688" style="stroke:#181818;stroke-width:1.0;"/><line style="stroke:#181818;stroke-width:1.0;stroke-dasharray:2.0,2.0;" x1="760.5" x2="1063.5" y1="276.9688" y2="276.9688"/><text fill="#000000" font-family="FG Virgil" font-size="20" font-weight="bold" lengthAdjust="spacing" textLength="14" x="767.5" y="270.252">4</text><text fill="#000000" font-family="FG Virgil" font-size="20" lengthAdjust="spacing" textLength="155" x="785.5" y="270.252">TCP connection</text><path d="M1084,289.9688 L1084,322.9688 L1889,322.9688 L1889,299.9688 L1879,289.9688 L1084,289.9688 " fill="#FAFAFA" style="stroke:#181818;stroke-width:0.5;"/><path d="M1879,289.9688 L1879,299.9688 L1889,299.9688 L1879,289.9688 " fill="#FAFAFA" style="stroke:#181818;stroke-width:0.5;"/><text fill="#000000" font-family="FG Virgil" font-size="20" lengthAdjust="spacing" textLength="784" x="1090" y="313.5332">verify if the user is logged in and retrieve the email, using the sessionManager</text><polygon fill="#181818" points="1395.5,353.5313,1405.5,357.5313,1395.5,361.5313,1399.5,357.5313" style="stroke:#181818;stroke-width:1.0;"/><line style="stroke:#181818;stroke-width:1.0;" x1="1079.5" x2="1401.5" y1="357.5313" y2="357.5313"/><text fill="#000000" font-family="FG Virgil" font-size="20" font-weight="bold" lengthAdjust="spacing" textLength="14" x="1086.5" y="350.8145">5</text><text fill="#000000" font-family="FG Virgil" font-size="20" lengthAdjust="spacing" textLength="216" x="1104.5" y="350.8145">listUserBoards(email)</text><polygon fill="#181818" points="1630,390.8125,1640,394.8125,1630,398.8125,1634,394.8125" style="stroke:#181818;stroke-width:1.0;"/><line style="stroke:#181818;stroke-width:1.0;" x1="1417.5" x2="1636" y1="394.8125" y2="394.8125"/><text fill="#000000" font-family="FG Virgil" font-size="20" font-weight="bold" lengthAdjust="spacing" textLength="14" x="1424.5" y="388.0957">6</text><text fill="#000000" font-family="FG Virgil" font-size="20" lengthAdjust="spacing" textLength="184" x="1442.5" y="388.0957">userBoards(email)</text><polygon fill="#181818" points="1870,428.0938,1880,432.0938,1870,436.0938,1874,432.0938" style="stroke:#181818;stroke-width:1.0;"/><line style="stroke:#181818;stroke-width:1.0;" x1="1652" x2="1876" y1="432.0938" y2="432.0938"/><text fill="#000000" font-family="FG Virgil" font-size="20" font-weight="bold" lengthAdjust="spacing" textLength="14" x="1659" y="425.377">7</text><text fill="#000000" font-family="FG Virgil" font-size="20" lengthAdjust="spacing" textLength="193" x="1677" y="425.377">findByEmail(email)</text><polygon fill="#181818" points="1663,465.375,1653,469.375,1663,473.375,1659,469.375" style="stroke:#181818;stroke-width:1.0;"/><line style="stroke:#181818;stroke-width:1.0;" x1="1657" x2="1886" y1="469.375" y2="469.375"/><text fill="#000000" font-family="FG Virgil" font-size="20" font-weight="bold" lengthAdjust="spacing" textLength="14" x="1669" y="462.6582">8</text><text fill="#000000" font-family="FG Virgil" font-size="20" lengthAdjust="spacing" textLength="170" x="1687" y="462.6582">Iterable&lt;Board&gt;</text><polygon fill="#181818" points="1428.5,502.6563,1418.5,506.6563,1428.5,510.6563,1424.5,506.6563" style="stroke:#181818;stroke-width:1.0;"/><line style="stroke:#181818;stroke-width:1.0;" x1="1422.5" x2="1646" y1="506.6563" y2="506.6563"/><text fill="#000000" font-family="FG Virgil" font-size="20" font-weight="bold" lengthAdjust="spacing" textLength="14" x="1434.5" y="499.9395">9</text><text fill="#000000" font-family="FG Virgil" font-size="20" lengthAdjust="spacing" textLength="170" x="1452.5" y="499.9395">Iterable&lt;Board&gt;</text><polygon fill="#181818" points="1090.5,539.9375,1080.5,543.9375,1090.5,547.9375,1086.5,543.9375" style="stroke:#181818;stroke-width:1.0;"/><line style="stroke:#181818;stroke-width:1.0;stroke-dasharray:2.0,2.0;" x1="1084.5" x2="1411.5" y1="543.9375" y2="543.9375"/><text fill="#000000" font-family="FG Virgil" font-size="20" font-weight="bold" lengthAdjust="spacing" textLength="28" x="1096.5" y="537.2207">10</text><text fill="#000000" font-family="FG Virgil" font-size="20" lengthAdjust="spacing" textLength="170" x="1128.5" y="537.2207">Iterable&lt;Board&gt;</text><polygon fill="#181818" points="771.5,577.2188,761.5,581.2188,771.5,585.2188,767.5,581.2188" style="stroke:#181818;stroke-width:1.0;"/><line style="stroke:#181818;stroke-width:1.0;stroke-dasharray:2.0,2.0;" x1="765.5" x2="1073.5" y1="581.2188" y2="581.2188"/><text fill="#000000" font-family="FG Virgil" font-size="20" font-weight="bold" lengthAdjust="spacing" textLength="28" x="777.5" y="574.502">11</text><text fill="#000000" font-family="FG Virgil" font-size="20" lengthAdjust="spacing" textLength="158" x="809.5" y="574.502">TCP Connection</text><polygon fill="#181818" points="433.5,614.5,423.5,618.5,433.5,622.5,429.5,618.5" style="stroke:#181818;stroke-width:1.0;"/><line style="stroke:#181818;stroke-width:1.0;" x1="427.5" x2="754.5" y1="618.5" y2="618.5"/><text fill="#000000" font-family="FG Virgil" font-size="20" font-weight="bold" lengthAdjust="spacing" textLength="28" x="439.5" y="611.7832">12</text><text fill="#000000" font-family="FG Virgil" font-size="20" lengthAdjust="spacing" textLength="129" x="471.5" y="611.7832">list of boards</text><polygon fill="#181818" points="41.5,651.7813,31.5,655.7813,41.5,659.7813,37.5,655.7813" style="stroke:#181818;stroke-width:1.0;"/><line style="stroke:#181818;stroke-width:1.0;stroke-dasharray:2.0,2.0;" x1="35.5" x2="411.5" y1="655.7813" y2="655.7813"/><text fill="#000000" font-family="FG Virgil" font-size="20" font-weight="bold" lengthAdjust="spacing" textLength="28" x="47.5" y="649.0645">13</text><text fill="#000000" font-family="FG Virgil" font-size="20" lengthAdjust="spacing" textLength="285" x="79.5" y="649.0645">ask for board to view History</text><polygon fill="#181818" points="400.5,689.0625,410.5,693.0625,400.5,697.0625,404.5,693.0625" style="stroke:#181818;stroke-width:1.0;"/><line style="stroke:#181818;stroke-width:1.0;stroke-dasharray:2.0,2.0;" x1="30.5" x2="406.5" y1="693.0625" y2="693.0625"/><text fill="#000000" font-family="FG Virgil" font-size="20" font-weight="bold" lengthAdjust="spacing" textLength="28" x="37.5" y="686.3457">14</text><text fill="#000000" font-family="FG Virgil" font-size="20" lengthAdjust="spacing" textLength="102" x="69.5" y="686.3457">boardTitle</text><polygon fill="#181818" points="738.5,726.3438,748.5,730.3438,738.5,734.3438,742.5,730.3438" style="stroke:#181818;stroke-width:1.0;"/><line style="stroke:#181818;stroke-width:1.0;" x1="422.5" x2="744.5" y1="730.3438" y2="730.3438"/><text fill="#000000" font-family="FG Virgil" font-size="20" font-weight="bold" lengthAdjust="spacing" textLength="28" x="429.5" y="723.627">15</text><text fill="#000000" font-family="FG Virgil" font-size="20" lengthAdjust="spacing" textLength="277" x="461.5" y="723.627">listBoardHistory(boardTitle)</text><polygon fill="#181818" points="1057.5,763.625,1067.5,767.625,1057.5,771.625,1061.5,767.625" style="stroke:#181818;stroke-width:1.0;"/><line style="stroke:#181818;stroke-width:1.0;stroke-dasharray:2.0,2.0;" x1="760.5" x2="1063.5" y1="767.625" y2="767.625"/><text fill="#000000" font-family="FG Virgil" font-size="20" font-weight="bold" lengthAdjust="spacing" textLength="28" x="767.5" y="760.9082">16</text><text fill="#000000" font-family="FG Virgil" font-size="20" lengthAdjust="spacing" textLength="155" x="799.5" y="760.9082">TCP connection</text><path d="M1084,780.625 L1084,813.625 L1889,813.625 L1889,790.625 L1879,780.625 L1084,780.625 " fill="#FAFAFA" style="stroke:#181818;stroke-width:0.5;"/><path d="M1879,780.625 L1879,790.625 L1889,790.625 L1879,780.625 " fill="#FAFAFA" style="stroke:#181818;stroke-width:0.5;"/><text fill="#000000" font-family="FG Virgil" font-size="20" lengthAdjust="spacing" textLength="784" x="1090" y="804.1895">verify if the user is logged in and retrieve the email, using the sessionManager</text><polygon fill="#181818" points="1395.5,844.1875,1405.5,848.1875,1395.5,852.1875,1399.5,848.1875" style="stroke:#181818;stroke-width:1.0;"/><line style="stroke:#181818;stroke-width:1.0;" x1="1079.5" x2="1401.5" y1="848.1875" y2="848.1875"/><text fill="#000000" font-family="FG Virgil" font-size="20" font-weight="bold" lengthAdjust="spacing" textLength="28" x="1086.5" y="841.4707">17</text><text fill="#000000" font-family="FG Virgil" font-size="20" lengthAdjust="spacing" textLength="277" x="1118.5" y="841.4707">listBoardHistory(boardTitle)</text><polygon fill="#181818" points="1870,881.4688,1880,885.4688,1870,889.4688,1874,885.4688" style="stroke:#181818;stroke-width:1.0;"/><line style="stroke:#181818;stroke-width:1.0;" x1="1417.5" x2="1876" y1="885.4688" y2="885.4688"/><text fill="#000000" font-family="FG Virgil" font-size="20" font-weight="bold" lengthAdjust="spacing" textLength="28" x="1424.5" y="878.752">18</text><text fill="#000000" font-family="FG Virgil" font-size="20" lengthAdjust="spacing" textLength="226" x="1456.5" y="878.752">findByTitle(boardTitle)</text><polygon fill="#181818" points="1428.5,918.75,1418.5,922.75,1428.5,926.75,1424.5,922.75" style="stroke:#181818;stroke-width:1.0;"/><line style="stroke:#181818;stroke-width:1.0;" x1="1422.5" x2="1886" y1="922.75" y2="922.75"/><text fill="#000000" font-family="FG Virgil" font-size="20" font-weight="bold" lengthAdjust="spacing" textLength="28" x="1434.5" y="916.0332">19</text><text fill="#000000" font-family="FG Virgil" font-size="20" lengthAdjust="spacing" textLength="59" x="1466.5" y="916.0332">Board</text><polygon fill="#181818" points="1090.5,956.0313,1080.5,960.0313,1090.5,964.0313,1086.5,960.0313" style="stroke:#181818;stroke-width:1.0;"/><line style="stroke:#181818;stroke-width:1.0;" x1="1084.5" x2="1411.5" y1="960.0313" y2="960.0313"/><text fill="#000000" font-family="FG Virgil" font-size="20" font-weight="bold" lengthAdjust="spacing" textLength="28" x="1096.5" y="953.3145">20</text><text fill="#000000" font-family="FG Virgil" font-size="20" lengthAdjust="spacing" textLength="184" x="1128.5" y="953.3145">Iterable&lt;Update&gt;</text><polygon fill="#181818" points="771.5,993.3125,761.5,997.3125,771.5,1001.3125,767.5,997.3125" style="stroke:#181818;stroke-width:1.0;"/><line style="stroke:#181818;stroke-width:1.0;" x1="765.5" x2="1073.5" y1="997.3125" y2="997.3125"/><text fill="#000000" font-family="FG Virgil" font-size="20" font-weight="bold" lengthAdjust="spacing" textLength="28" x="777.5" y="990.5957">21</text><text fill="#000000" font-family="FG Virgil" font-size="20" lengthAdjust="spacing" textLength="158" x="809.5" y="990.5957">TCP Connection</text><polygon fill="#181818" points="433.5,1030.5938,423.5,1034.5938,433.5,1038.5938,429.5,1034.5938" style="stroke:#181818;stroke-width:1.0;"/><line style="stroke:#181818;stroke-width:1.0;" x1="427.5" x2="754.5" y1="1034.5938" y2="1034.5938"/><text fill="#000000" font-family="FG Virgil" font-size="20" font-weight="bold" lengthAdjust="spacing" textLength="28" x="439.5" y="1027.877">22</text><text fill="#000000" font-family="FG Virgil" font-size="20" lengthAdjust="spacing" textLength="184" x="471.5" y="1027.877">Iterable&lt;Update&gt;</text><polygon fill="#181818" points="41.5,1067.875,31.5,1071.875,41.5,1075.875,37.5,1071.875" style="stroke:#181818;stroke-width:1.0;"/><line style="stroke:#181818;stroke-width:1.0;stroke-dasharray:2.0,2.0;" x1="35.5" x2="411.5" y1="1071.875" y2="1071.875"/><text fill="#000000" font-family="FG Virgil" font-size="20" font-weight="bold" lengthAdjust="spacing" textLength="28" x="47.5" y="1065.1582">23</text><text fill="#000000" font-family="FG Virgil" font-size="20" lengthAdjust="spacing" textLength="179" x="79.5" y="1065.1582">operation success</text><!--SRC=[jLVDRkCs4BxpAGQvA06wcuLxCum0YNVJkkXFi8vxweMMQ9k890eabSHzhJv2Nso7f2nH5ALuYzI7GABcc_bcE1yvKK-yhAYaHIxI9vP1ndQqplMzAFMQ_yrWzeaa1wsh-VLrbTDIrqN-CHN5jJhXFXvqaHEIj0jGY5Aa1oaA1bhMpFzKqVI9xjbQ7tC6agNQ_-Y5_fqY-Fud-9FBFSzz8tMWcNZXvHvsD5SC0zDK2maRnIHG1RVcZIHeh7dAAsICJjZBfigePYhRh8mH_bqiAiaKApNLN9GtDwEG9TAH8i-TU-zjiQ1LbVCqwk21ISMLPcNA38IzQeFsLWs1xYs4VsMLK1mpETxRz8u6VNfSB7RkoQ2G8zrInU1EK9brE0FmtXOBsRxqO2xBCTmi19B45XW-VBZ1AixX6Gi5MnCwKL1RNt30fD3QxWn_DYkR5O44mDGTSLqDvv1AXWO4pEVDAlYOeoEphpOrTNc5PcXN2lGe-VwWGUmiYJtJ2lI1GMsQG1-e1guW5_izDZGl3GmwCbq4zy7RKeplRT4SsjGvQy9RelRN-lCGpg8rmL-VRCzv9JA6-NCgJt7-_KTo0GmLn0hpJ47KyCl3RUFMy-it4f9kEiChPm08xFqYDxtKOYmeOz7qEYDZrIzSos7hxLPdtVgx3-ETU9xQ6trr3JX8gRNtpFrqjdqPzCDuQKLe9456FeiTBxExunyl9PENhA0yl-fxRlsEXBQKFPK5h0KwpboRZp8UIwfFskZX76zz5IH6V8YsufxZ6V04ErIvBIPeWQUkU6brRLtrZm5hw3uCDMvaRDdyx1nSMkj6pQEoXE_JPU8dEgxDdjdxwZDqVPP6aqdCX4uxu5jQRIr7zEfExPvW1sVSK2qUyQXmPp7b9Z6CdsGTt4R3Ko8YuTWntYFYn6jRqFNUwlCL6PFjp5r6_XqO9QbS_qO5EYF9iE169oqqE6HxpP-SBag3oCGQjKUSHA6JQ2hA7PS529mYx0G2gavJfXHUqPvZl7cxsUbEl3xGB3F3qu-V2AsrAEjYYp79-F0sDRkTCxfDJ6wnmOrinIjyMOfQucpok7o0PSvnI8FRgY8Z0zhuIES3BZp4NoLwTewxmb_OyIvOH9yUYMuTdRComsFlTSXupUGp8aF60mBEBY0GBZO46fyz0cVDgvy5NbRbyl7hhuDvrSUl3rGoAn0JYUFfqt3XTb9LxWb1_stSR6lLlpKKox6Di8Lj_ze2ER_Gt1GNn6_avcO9jgWzPyO-3wR8JdM1BHbils4QRidSxZBghqJoI9pqJihGcWnlcQY9-U4gtns1xxfXrfzZWM8P9TDuwpqpQs8daH_GqgZAB2Wy093IRxH4fJh7flOcFXcq5kRMjSSyA5CpvBHvTPR4wwccFDpSb_KukB4XfuwA3bTV36W0zUw2_lZKnbrfF06tELlOuDYYqP792-qbFGK-aVRJZRR3X0-lQiFoHxlL7ZTTRmLyUcqpx5OdAxEJfi_S8Ewx63IyqSp4s6V_kskqI28JtoFN-RJmXdEVnRo_2CVBT8RutbrutoEwjqiKrLvKGnOPTn8LKg06IsL4GBt84o9mrz3vAlYVH335vmqPH4OgGhu1]--></g></svg>