<?xml version="1.0" encoding="us-ascii" standalone="no"?><svg xmlns="http://www.w3.org/2000/svg" xmlns:xlink="http://www.w3.org/1999/xlink" contentStyleType="text/css" height="751px" preserveAspectRatio="none" style="width:1893px;height:751px;background:#FFFFFF;" version="1.1" viewBox="0 0 1893 751" width="1893px" zoomAndPan="magnify"><defs/><g><text fill="#000000" font-family="sans-serif" font-size="14" font-weight="bold" lengthAdjust="spacing" textLength="342" x="768.5" y="32.9951">Domain Model Extract- View Board History</text><!--cluster Board--><g id="cluster_Board"><path d="M8.5,63.2969 L76.5,63.2969 A3.75,3.75 0 0 1 79,65.7969 L86,105.5938 L610.5,105.5938 A2.5,2.5 0 0 1 613,108.0938 L613,727.7969 A2.5,2.5 0 0 1 610.5,730.2969 L8.5,730.2969 A2.5,2.5 0 0 1 6,727.7969 L6,65.7969 A2.5,2.5 0 0 1 8.5,63.2969 " fill="#D3D3D3" style="stroke:#000000;stroke-width:1.5;"/><line style="stroke:#000000;stroke-width:1.5;" x1="6" x2="86" y1="105.5938" y2="105.5938"/><text fill="#000000" font-family="sans-serif" font-size="14" font-weight="bold" lengthAdjust="spacing" textLength="47" x="20" y="88.292">Board</text></g><!--cluster BoardUpdate--><g id="cluster_BoardUpdate"><path d="M662.5,342.2969 L787.5,342.2969 A3.75,3.75 0 0 1 790,344.7969 L797,384.5938 L1666.5,384.5938 A2.5,2.5 0 0 1 1669,387.0938 L1669,741.7969 A2.5,2.5 0 0 1 1666.5,744.2969 L662.5,744.2969 A2.5,2.5 0 0 1 660,741.7969 L660,344.7969 A2.5,2.5 0 0 1 662.5,342.2969 " fill="#D3D3D3" style="stroke:#000000;stroke-width:1.5;"/><line style="stroke:#000000;stroke-width:1.5;" x1="660" x2="797" y1="384.5938" y2="384.5938"/><text fill="#000000" font-family="sans-serif" font-size="14" font-weight="bold" lengthAdjust="spacing" textLength="104" x="674" y="367.292">BoardUpdate</text></g><!--cluster eCourseUser--><g id="cluster_eCourseUser"><path d="M1738.5,602.2969 L1860.5,602.2969 A3.75,3.75 0 0 1 1863,604.7969 L1870,644.5938 L1883.5,644.5938 A2.5,2.5 0 0 1 1886,647.0938 L1886,724.7969 A2.5,2.5 0 0 1 1883.5,727.2969 L1738.5,727.2969 A2.5,2.5 0 0 1 1736,724.7969 L1736,604.7969 A2.5,2.5 0 0 1 1738.5,602.2969 " fill="#D3D3D3" style="stroke:#000000;stroke-width:1.5;"/><line style="stroke:#000000;stroke-width:1.5;" x1="1736" x2="1870" y1="644.5938" y2="644.5938"/><text fill="#000000" font-family="sans-serif" font-size="14" font-weight="bold" lengthAdjust="spacing" textLength="101" x="1750" y="627.292">eCourseUser</text></g><!--class Board--><g id="elem_Board"><rect codeLine="19" fill="#F1F1F1" height="160.8594" id="Board" rx="2.5" ry="2.5" style="stroke:#181818;stroke-width:0.5;" width="139" x="457.5" y="118.2969"/><text fill="#000000" font-family="sans-serif" font-size="12" font-style="italic" lengthAdjust="spacing" textLength="38" x="508" y="144.4355">&#171;root&#187;</text><text fill="#000000" font-family="sans-serif" font-size="14" lengthAdjust="spacing" textLength="43" x="505.5" y="180.2607">Board</text><line style="stroke:#181818;stroke-width:0.5;" x1="458.5" x2="595.5" y1="198.5625" y2="198.5625"/><rect fill="none" height="6" style="stroke:#C82930;stroke-width:1.0;" width="6" x="465.5" y="219.2109"/><text fill="#000000" font-family="sans-serif" font-size="14" lengthAdjust="spacing" textLength="93" x="487.5" y="225.5576">maxColumns</text><rect fill="none" height="6" style="stroke:#C82930;stroke-width:1.0;" width="6" x="465.5" y="255.5078"/><text fill="#000000" font-family="sans-serif" font-size="14" lengthAdjust="spacing" textLength="68" x="487.5" y="261.8545">maxRows</text></g><!--class Title--><g id="elem_Title"><rect codeLine="24" fill="#F1F1F1" height="88.2656" id="Title" rx="2.5" ry="2.5" style="stroke:#181818;stroke-width:0.5;" width="109" x="22.5" y="415.7969"/><text fill="#000000" font-family="sans-serif" font-size="12" font-style="italic" lengthAdjust="spacing" textLength="87" x="33.5" y="441.9355">&#171;value object&#187;</text><text fill="#000000" font-family="sans-serif" font-size="14" lengthAdjust="spacing" textLength="31" x="61.5" y="477.7607">Title</text><line style="stroke:#181818;stroke-width:0.5;" x1="23.5" x2="130.5" y1="496.0625" y2="496.0625"/></g><!--class Column--><g id="elem_Column"><rect codeLine="26" fill="#F1F1F1" height="160.8594" id="Column" rx="2.5" ry="2.5" style="stroke:#181818;stroke-width:0.5;" width="81" x="211.5" y="379.2969"/><text fill="#000000" font-family="sans-serif" font-size="12" font-style="italic" lengthAdjust="spacing" textLength="49" x="227.5" y="405.4355">&#171;entity&#187;</text><text fill="#000000" font-family="sans-serif" font-size="14" lengthAdjust="spacing" textLength="55" x="224.5" y="441.2607">Column</text><line style="stroke:#181818;stroke-width:0.5;" x1="212.5" x2="291.5" y1="459.5625" y2="459.5625"/><rect fill="none" height="6" style="stroke:#C82930;stroke-width:1.0;" width="6" x="219.5" y="480.2109"/><text fill="#000000" font-family="sans-serif" font-size="14" lengthAdjust="spacing" textLength="27" x="241.5" y="486.5576">title</text><rect fill="none" height="6" style="stroke:#C82930;stroke-width:1.0;" width="6" x="219.5" y="516.5078"/><text fill="#000000" font-family="sans-serif" font-size="14" lengthAdjust="spacing" textLength="13" x="241.5" y="522.8545">id</text></g><!--class Row--><g id="elem_Row"><rect codeLine="31" fill="#F1F1F1" height="160.8594" id="Row" rx="2.5" ry="2.5" style="stroke:#181818;stroke-width:0.5;" width="73" x="372.5" y="379.2969"/><text fill="#000000" font-family="sans-serif" font-size="12" font-style="italic" lengthAdjust="spacing" textLength="49" x="384.5" y="405.4355">&#171;entity&#187;</text><text fill="#000000" font-family="sans-serif" font-size="14" lengthAdjust="spacing" textLength="30" x="394" y="441.2607">Row</text><line style="stroke:#181818;stroke-width:0.5;" x1="373.5" x2="444.5" y1="459.5625" y2="459.5625"/><rect fill="none" height="6" style="stroke:#C82930;stroke-width:1.0;" width="6" x="380.5" y="480.2109"/><text fill="#000000" font-family="sans-serif" font-size="14" lengthAdjust="spacing" textLength="27" x="402.5" y="486.5576">title</text><rect fill="none" height="6" style="stroke:#C82930;stroke-width:1.0;" width="6" x="380.5" y="516.5078"/><text fill="#000000" font-family="sans-serif" font-size="14" lengthAdjust="spacing" textLength="13" x="402.5" y="522.8545">id</text></g><!--class State--><g id="elem_State"><rect codeLine="36" fill="#F1F1F1" height="88.2656" id="State" rx="2.5" ry="2.5" style="stroke:#181818;stroke-width:0.5;" width="71" x="525.5" y="415.7969"/><text fill="#000000" font-family="sans-serif" font-size="12" font-style="italic" lengthAdjust="spacing" textLength="49" x="536.5" y="441.9355">&#171;enum&#187;</text><text fill="#000000" font-family="sans-serif" font-size="14" lengthAdjust="spacing" textLength="37" x="542.5" y="477.7607">State</text><line style="stroke:#181818;stroke-width:0.5;" x1="526.5" x2="595.5" y1="496.0625" y2="496.0625"/></g><g id="elem_GMN8"><path d="M500.5,654.2969 L500.5,714.5625 A0,0 0 0 0 500.5,714.5625 L597.5,714.5625 A0,0 0 0 0 597.5,714.5625 L597.5,664.2969 L587.5,654.2969 L565,654.2969 L561,503.8869 L557,654.2969 L500.5,654.2969 A0,0 0 0 0 500.5,654.2969 " fill="#A9A9A9" style="stroke:#181818;stroke-width:0.5;"/><path d="M587.5,654.2969 L587.5,664.2969 L597.5,664.2969 L587.5,654.2969 " fill="#A9A9A9" style="stroke:#181818;stroke-width:0.5;"/><text fill="#000000" font-family="sans-serif" font-size="13" lengthAdjust="spacing" textLength="40" x="516.5" y="681.3638">active</text><text fill="#000000" font-family="sans-serif" font-size="13" lengthAdjust="spacing" textLength="56" x="516.5" y="696.4966">archived</text></g><!--class Update--><g id="elem_Update"><rect codeLine="45" fill="#F1F1F1" height="124.5625" id="Update" rx="2.5" ry="2.5" style="stroke:#181818;stroke-width:0.5;" width="122" x="874" y="397.2969"/><text fill="#000000" font-family="sans-serif" font-size="12" font-style="italic" lengthAdjust="spacing" textLength="38" x="916" y="423.4355">&#171;root&#187;</text><text fill="#000000" font-family="sans-serif" font-size="14" lengthAdjust="spacing" textLength="51" x="909.5" y="459.2607">Update</text><line style="stroke:#181818;stroke-width:0.5;" x1="875" x2="995" y1="477.5625" y2="477.5625"/><rect fill="none" height="6" style="stroke:#C82930;stroke-width:1.0;" width="6" x="882" y="498.2109"/><text fill="#000000" font-family="sans-serif" font-size="14" lengthAdjust="spacing" textLength="76" x="904" y="504.5576">timestamp</text></g><!--class BoardUpdate--><g id="elem_BoardUpdate"><rect codeLine="51" fill="#F1F1F1" height="88.2656" id="BoardUpdate" rx="2.5" ry="2.5" style="stroke:#181818;stroke-width:0.5;" width="120" x="848" y="640.2969"/><text fill="#000000" font-family="sans-serif" font-size="12" font-style="italic" lengthAdjust="spacing" textLength="49" x="883.5" y="666.4355">&#171;entity&#187;</text><text fill="#000000" font-family="sans-serif" font-size="14" lengthAdjust="spacing" textLength="94" x="861" y="702.2607">BoardUpdate</text><line style="stroke:#181818;stroke-width:0.5;" x1="849" x2="967" y1="720.5625" y2="720.5625"/></g><!--class CellUpdate--><g id="elem_CellUpdate"><rect codeLine="53" fill="#F1F1F1" height="88.2656" id="CellUpdate" rx="2.5" ry="2.5" style="stroke:#181818;stroke-width:0.5;" width="104" x="1048" y="640.2969"/><text fill="#000000" font-family="sans-serif" font-size="12" font-style="italic" lengthAdjust="spacing" textLength="49" x="1075.5" y="666.4355">&#171;entity&#187;</text><text fill="#000000" font-family="sans-serif" font-size="14" lengthAdjust="spacing" textLength="78" x="1061" y="702.2607">CellUpdate</text><line style="stroke:#181818;stroke-width:0.5;" x1="1049" x2="1151" y1="720.5625" y2="720.5625"/></g><!--class BoardUpdateType--><g id="elem_BoardUpdateType"><rect codeLine="55" fill="#F1F1F1" height="88.2656" id="BoardUpdateType" rx="2.5" ry="2.5" style="stroke:#181818;stroke-width:0.5;" width="155" x="1076.5" y="415.7969"/><text fill="#000000" font-family="sans-serif" font-size="12" font-style="italic" lengthAdjust="spacing" textLength="49" x="1129.5" y="441.9355">&#171;enum&#187;</text><text fill="#000000" font-family="sans-serif" font-size="14" lengthAdjust="spacing" textLength="129" x="1089.5" y="477.7607">BoardUpdateType</text><line style="stroke:#181818;stroke-width:0.5;" x1="1077.5" x2="1230.5" y1="496.0625" y2="496.0625"/></g><!--class CellUpdateType--><g id="elem_CellUpdateType"><rect codeLine="57" fill="#F1F1F1" height="88.2656" id="CellUpdateType" rx="2.5" ry="2.5" style="stroke:#181818;stroke-width:0.5;" width="139" x="1311.5" y="415.7969"/><text fill="#000000" font-family="sans-serif" font-size="12" font-style="italic" lengthAdjust="spacing" textLength="49" x="1356.5" y="441.9355">&#171;enum&#187;</text><text fill="#000000" font-family="sans-serif" font-size="14" lengthAdjust="spacing" textLength="113" x="1324.5" y="477.7607">CellUpdateType</text><line style="stroke:#181818;stroke-width:0.5;" x1="1312.5" x2="1449.5" y1="496.0625" y2="496.0625"/></g><!--class BoardChange--><g id="elem_BoardChange"><rect codeLine="59" fill="#F1F1F1" height="88.2656" id="BoardChange" rx="2.5" ry="2.5" style="stroke:#181818;stroke-width:0.5;" width="124" x="1232" y="640.2969"/><text fill="#000000" font-family="sans-serif" font-size="12" font-style="italic" lengthAdjust="spacing" textLength="87" x="1250.5" y="666.4355">&#171;value object&#187;</text><text fill="#000000" font-family="sans-serif" font-size="14" lengthAdjust="spacing" textLength="98" x="1245" y="702.2607">BoardChange</text><line style="stroke:#181818;stroke-width:0.5;" x1="1233" x2="1355" y1="720.5625" y2="720.5625"/></g><!--class ContentType--><g id="elem_ContentType"><rect codeLine="61" fill="#F1F1F1" height="88.2656" id="ContentType" rx="2.5" ry="2.5" style="stroke:#181818;stroke-width:0.5;" width="117" x="676.5" y="415.7969"/><text fill="#000000" font-family="sans-serif" font-size="12" font-style="italic" lengthAdjust="spacing" textLength="49" x="710.5" y="441.9355">&#171;enum&#187;</text><text fill="#000000" font-family="sans-serif" font-size="14" lengthAdjust="spacing" textLength="91" x="689.5" y="477.7607">ContentType</text><line style="stroke:#181818;stroke-width:0.5;" x1="677.5" x2="792.5" y1="496.0625" y2="496.0625"/></g><g id="elem_GMN19"><path d="M686,654.2969 L686,714.5625 A0,0 0 0 0 686,714.5625 L768,714.5625 A0,0 0 0 0 768,714.5625 L768,664.2969 L758,654.2969 L731,654.2969 L727,503.8869 L723,654.2969 L686,654.2969 A0,0 0 0 0 686,654.2969 " fill="#A9A9A9" style="stroke:#181818;stroke-width:0.5;"/><path d="M758,654.2969 L758,664.2969 L768,664.2969 L758,654.2969 " fill="#A9A9A9" style="stroke:#181818;stroke-width:0.5;"/><text fill="#000000" font-family="sans-serif" font-size="13" lengthAdjust="spacing" textLength="26" x="702" y="681.3638">text</text><text fill="#000000" font-family="sans-serif" font-size="13" lengthAdjust="spacing" textLength="41" x="702" y="696.4966">image</text></g><!--class Content--><g id="elem_Content"><rect codeLine="68" fill="#F1F1F1" height="124.5625" id="Content" rx="2.5" ry="2.5" style="stroke:#181818;stroke-width:0.5;" width="122" x="1531" y="397.2969"/><text fill="#000000" font-family="sans-serif" font-size="12" font-style="italic" lengthAdjust="spacing" textLength="87" x="1548.5" y="423.4355">&#171;value object&#187;</text><text fill="#000000" font-family="sans-serif" font-size="14" lengthAdjust="spacing" textLength="56" x="1564" y="459.2607">Content</text><line style="stroke:#181818;stroke-width:0.5;" x1="1532" x2="1652" y1="477.5625" y2="477.5625"/><rect fill="none" height="6" style="stroke:#C82930;stroke-width:1.0;" width="6" x="1539" y="498.2109"/><text fill="#000000" font-family="sans-serif" font-size="14" lengthAdjust="spacing" textLength="76" x="1561" y="504.5576">timestamp</text></g><!--class eCourseUser--><g id="elem_eCourseUser"><rect fill="#F1F1F1" height="54.2969" id="eCourseUser" rx="2.5" ry="2.5" style="stroke:#181818;stroke-width:0.5;" width="117" x="1752.5" y="657.2969"/><text fill="#000000" font-family="sans-serif" font-size="14" lengthAdjust="spacing" textLength="91" x="1765.5" y="685.292">eCourseUser</text><line style="stroke:#181818;stroke-width:0.5;" x1="1753.5" x2="1868.5" y1="703.5938" y2="703.5938"/></g><!--link Board to Title--><g id="link_Board_Title"><path codeLine="73" d="M457.18,172.2969 C330.78,172.2969 77,172.2969 77,172.2969 C77,172.2969 77,410.5069 77,410.5069 " fill="none" id="Board-to-Title" style="stroke:#181818;stroke-width:1.0;"/><polygon fill="#181818" points="77,415.5069,81,406.5069,77,410.5069,73,406.5069,77,415.5069" style="stroke:#181818;stroke-width:1.0;"/><text fill="#000000" font-family="sans-serif" font-size="13" lengthAdjust="spacing" textLength="23" x="113.99" y="158.3638">has</text></g><!--link Board to Column--><g id="link_Board_Column"><path codeLine="74" d="M457.25,226.2969 C375.78,226.2969 252,226.2969 252,226.2969 C252,226.2969 252,374.1169 252,374.1169 " fill="none" id="Board-to-Column" style="stroke:#181818;stroke-width:1.0;"/><polygon fill="#181818" points="252,379.1169,256,370.1169,252,374.1169,248,370.1169,252,379.1169" style="stroke:#181818;stroke-width:1.0;"/><text fill="#000000" font-family="sans-serif" font-size="13" lengthAdjust="spacing" textLength="23" x="246.72" y="212.3638">has</text><text fill="#000000" font-family="sans-serif" font-size="13" lengthAdjust="spacing" textLength="7" x="233.9242" y="358.3709">*</text></g><!--link Board to Row--><g id="link_Board_Row"><path codeLine="75" d="M479,279.4369 C479,331.0169 479,388.2969 479,388.2969 C479,388.2969 450.64,388.2969 450.64,388.2969 " fill="none" id="Board-to-Row" style="stroke:#181818;stroke-width:1.0;"/><polygon fill="#181818" points="445.64,388.2969,454.64,392.2969,450.64,388.2969,454.64,384.2969,445.64,388.2969" style="stroke:#181818;stroke-width:1.0;"/><text fill="#000000" font-family="sans-serif" font-size="13" lengthAdjust="spacing" textLength="23" x="445" y="334.1138">has</text><text fill="#000000" font-family="sans-serif" font-size="13" lengthAdjust="spacing" textLength="7" x="463.6311" y="361.2012">*</text></g><!--link Board to eCourseUser--><g id="link_Board_eCourseUser"><path codeLine="76" d="M596.68,159.2969 C868.18,159.2969 1840.25,159.2969 1840.25,159.2969 C1840.25,159.2969 1840.25,652.1769 1840.25,652.1769 " fill="none" id="Board-to-eCourseUser" style="stroke:#181818;stroke-width:1.0;"/><polygon fill="#181818" points="1840.25,657.1769,1844.25,648.1769,1840.25,652.1769,1836.25,648.1769,1840.25,657.1769" style="stroke:#181818;stroke-width:1.0;"/><text fill="#000000" font-family="sans-serif" font-size="13" lengthAdjust="spacing" textLength="63" x="1390.9" y="145.3638">owned by</text></g><!--link Board to eCourseUser--><g id="link_Board_eCourseUser"><path codeLine="78" d="M596.95,199.2969 C864.89,199.2969 1811,199.2969 1811,199.2969 C1811,199.2969 1811,652.1869 1811,652.1869 " fill="none" id="Board-to-eCourseUser-1" style="stroke:#181818;stroke-width:1.0;stroke-dasharray:7.0,7.0;"/><polygon fill="#181818" points="1811,657.1869,1815,648.1869,1811,652.1869,1807,648.1869,1811,657.1869" style="stroke:#181818;stroke-width:1.0;"/><text fill="#000000" font-family="sans-serif" font-size="13" lengthAdjust="spacing" textLength="69" x="1350.42" y="185.3638">created by</text></g><!--link Board to eCourseUser--><g id="link_Board_eCourseUser"><path codeLine="79" d="M596.7,239.2969 C860.34,239.2969 1781.75,239.2969 1781.75,239.2969 C1781.75,239.2969 1781.75,652.1269 1781.75,652.1269 " fill="none" id="Board-to-eCourseUser-2" style="stroke:#181818;stroke-width:1.0;stroke-dasharray:7.0,7.0;"/><polygon fill="#181818" points="1781.75,657.1269,1785.75,648.1269,1781.75,652.1269,1777.75,648.1269,1781.75,657.1269" style="stroke:#181818;stroke-width:1.0;"/><text fill="#000000" font-family="sans-serif" font-size="13" lengthAdjust="spacing" textLength="67" x="1317.64" y="225.3638">viewed by</text></g><!--link Board to State--><g id="link_Board_State"><path codeLine="77" d="M549.17,279.5869 C549.17,279.5869 549.17,410.7969 549.17,410.7969 " fill="none" id="Board-to-State" style="stroke:#181818;stroke-width:1.0;"/><polygon fill="#181818" points="549.17,415.7969,553.17,406.7969,549.17,410.7969,545.17,406.7969,549.17,415.7969" style="stroke:#181818;stroke-width:1.0;"/><text fill="#000000" font-family="sans-serif" font-size="13" lengthAdjust="spacing" textLength="23" x="515.17" y="331.2638">has</text></g><!--link Board to Update--><g id="link_Board_Update"><path codeLine="80" d="M572.83,279.4069 C572.83,338.0769 572.83,407.2969 572.83,407.2969 C572.83,407.2969 868.97,407.2969 868.97,407.2969 " fill="none" id="Board-to-Update" style="stroke:#181818;stroke-width:1.0;"/><polygon fill="#181818" points="873.97,407.2969,864.97,403.2969,868.97,407.2969,864.97,411.2969,873.97,407.2969" style="stroke:#181818;stroke-width:1.0;"/><text fill="#000000" font-family="sans-serif" font-size="13" lengthAdjust="spacing" textLength="23" x="622.96" y="393.3638">has</text><text fill="#000000" font-family="sans-serif" font-size="13" lengthAdjust="spacing" textLength="7" x="848.8183" y="386.7387">*</text></g><!--reverse link Update to CellUpdate--><g id="link_Update_CellUpdate"><path codeLine="81" d="M1016.02,516.2969 C1016.02,516.2969 1062.25,516.2969 1062.25,516.2969 C1062.25,516.2969 1062.25,590.3769 1062.25,640.1569 " fill="none" id="Update-backto-CellUpdate" style="stroke:#181818;stroke-width:1.0;"/><polygon fill="none" points="1016.02,523.2969,996.02,516.2969,1016.02,509.2969,1016.02,523.2969" style="stroke:#181818;stroke-width:1.0;"/><text fill="#000000" font-family="sans-serif" font-size="13" lengthAdjust="spacing" textLength="23" x="1028.25" y="541.1738">is a</text></g><!--reverse link Update to BoardUpdate--><g id="link_Update_BoardUpdate"><path codeLine="82" d="M921,542.3369 C921,542.3369 921,640.2269 921,640.2269 " fill="none" id="Update-backto-BoardUpdate" style="stroke:#181818;stroke-width:1.0;"/><polygon fill="none" points="914,542.3369,921,522.3369,928,542.3369,914,542.3369" style="stroke:#181818;stroke-width:1.0;"/><text fill="#000000" font-family="sans-serif" font-size="13" lengthAdjust="spacing" textLength="23" x="887" y="577.3438">is a</text></g><!--link Update to eCourseUser--><g id="link_Update_eCourseUser"><path codeLine="83" d="M996.22,510.2969 C1123.14,510.2969 1403.25,510.2969 1403.25,510.2969 C1403.25,510.2969 1403.25,698.2969 1403.25,698.2969 C1403.25,698.2969 1747.15,698.2969 1747.15,698.2969 " fill="none" id="Update-to-eCourseUser" style="stroke:#181818;stroke-width:1.0;"/><polygon fill="#181818" points="1752.15,698.2969,1743.15,694.2969,1747.15,698.2969,1743.15,702.2969,1752.15,698.2969" style="stroke:#181818;stroke-width:1.0;"/><text fill="#000000" font-family="sans-serif" font-size="13" lengthAdjust="spacing" textLength="72" x="1320.25" y="558.7938">is made by</text></g><!--link Content to eCourseUser--><g id="link_Content_eCourseUser"><path codeLine="84" d="M1612.33,522.3969 C1612.33,584.7569 1612.33,671.2969 1612.33,671.2969 C1612.33,671.2969 1747.47,671.2969 1747.47,671.2969 " fill="none" id="Content-to-eCourseUser" style="stroke:#181818;stroke-width:1.0;"/><polygon fill="#181818" points="1752.47,671.2969,1743.47,667.2969,1747.47,671.2969,1743.47,675.2969,1752.47,671.2969" style="stroke:#181818;stroke-width:1.0;"/><text fill="#000000" font-family="sans-serif" font-size="13" lengthAdjust="spacing" textLength="81" x="1520.33" y="650.4838">is altered by</text><text fill="#000000" font-family="sans-serif" font-size="13" lengthAdjust="spacing" textLength="10" x="1592.8214" y="551.8743">N</text><text fill="#000000" font-family="sans-serif" font-size="13" lengthAdjust="spacing" textLength="10" x="1724.4277" y="693.847">N</text></g><!--link Content to eCourseUser--><g id="link_Content_eCourseUser"><path codeLine="85" d="M1571.67,522.3369 C1571.67,588.7569 1571.67,684.2969 1571.67,684.2969 C1571.67,684.2969 1747.45,684.2969 1747.45,684.2969 " fill="none" id="Content-to-eCourseUser-1" style="stroke:#181818;stroke-width:1.0;"/><polygon fill="#181818" points="1752.45,684.2969,1743.45,680.2969,1747.45,684.2969,1743.45,688.2969,1752.45,684.2969" style="stroke:#181818;stroke-width:1.0;"/><text fill="#000000" font-family="sans-serif" font-size="13" lengthAdjust="spacing" textLength="128" x="1439.58" y="707.3638">change reversed by</text><text fill="#000000" font-family="sans-serif" font-size="13" lengthAdjust="spacing" textLength="10" x="1548.413" y="551.8087">N</text><text fill="#000000" font-family="sans-serif" font-size="13" lengthAdjust="spacing" textLength="8" x="1726.5148" y="669.4407">1</text></g><!--SRC=[bLJBRjim4BphAmZrKA20X1Yzj85Xe75Qj8Vcq2Izq-96OasH0hb-eSs_TobA3XNPSci1DhtScHqDHqA92bXwQsekDVjk12ZsUO-M5vYndn9sxCPmAzXNwT3OGveeU4A6XbbPLiY4j52WD3f1q_ZooY2QEggxjTGDjxnc3HT2wfBDhgAYfeaE6lOXBbgkrxuukughfJMRvfkkm4hakW0sYpQLr8271fYnM9beWtZerqlnT37VdK6uuSNQysgnDCfOzkRJHtyDL1ThNWBxdJ3wZFflt_khtVjYDDxZWUnS6IMIvoIff01MI5ie2EiQI9nmIK_QUkkP2yMTwwoUpwqnk5Xq8pDMyprDszJQlHH-c9t_HqDwy4DxalFvbgiDsR3wHGVWIQAMm48ze57YOR7e9w37TcifXhmqwJyHzyWHMiocFYhGv7QV3lFKzGGsofhS1Z9kYuhMWP1m0wCU6z63mg2kC38CPGqEUTtqkjuE00y-9w_aHGTmPEtlUUWXA3NT4P6Sd_H2Sq7DikAwl7Yk6adAWEcawt5ZC0jXZ-r2rkJpy1oxxj7ipkPNBZydhTuyX3ZB5a5_7d9vpIhkHXtfkxJhwg9vgSs7yNGFBCt6EdXqOFDeJTrcfq6mrU6Clf34CMcUJv4M5WWsefq6RUbzUbhAyGv39l8kOP6guSRyJvOD054ihvbqZFyJAixxUTYqlOIgERtR-hlg1NNXIUzImjFtD0LN23RovZJBR8gb24-AXIrGqLFz1G00]--></g></svg>