<?xml version="1.0" encoding="UTF-8" standalone="no"?><svg xmlns="http://www.w3.org/2000/svg" xmlns:xlink="http://www.w3.org/1999/xlink" contentStyleType="text/css" height="835px" preserveAspectRatio="none" style="width:2281px;height:835px;background:#FFFFFF;" version="1.1" viewBox="0 0 2281 835" width="2281px" zoomAndPan="magnify"><defs/><g><text fill="#000000" font-family="sans-serif" font-size="14" font-weight="bold" lengthAdjust="spacing" textLength="332" x="967.5" y="32.9951">Domain Model Extract- View Board History</text><!--cluster Board--><g id="cluster_Board"><path d="M8.5,63.2969 L96.5,63.2969 A3.75,3.75 0 0 1 99,65.7969 L106,112.5781 L758.5,112.5781 A2.5,2.5 0 0 1 761,115.0781 L761,811.7969 A2.5,2.5 0 0 1 758.5,814.2969 L8.5,814.2969 A2.5,2.5 0 0 1 6,811.7969 L6,65.7969 A2.5,2.5 0 0 1 8.5,63.2969 " fill="#D3D3D3" style="stroke:#000000;stroke-width:1.5;"/><line style="stroke:#000000;stroke-width:1.5;" x1="6" x2="106" y1="112.5781" y2="112.5781"/><text fill="#000000" font-family="sans-serif" font-size="20" font-weight="bold" lengthAdjust="spacing" textLength="67" x="20" y="93.8613">Board</text></g><!--cluster BoardUpdate--><g id="cluster_BoardUpdate"><path d="M811.5,375.7969 L981.5,375.7969 A3.75,3.75 0 0 1 984,378.2969 L991,425.0781 L2028.5,425.0781 A2.5,2.5 0 0 1 2031,427.5781 L2031,825.7969 A2.5,2.5 0 0 1 2028.5,828.2969 L811.5,828.2969 A2.5,2.5 0 0 1 809,825.7969 L809,378.2969 A2.5,2.5 0 0 1 811.5,375.7969 " fill="#D3D3D3" style="stroke:#000000;stroke-width:1.5;"/><line style="stroke:#000000;stroke-width:1.5;" x1="809" x2="991" y1="425.0781" y2="425.0781"/><text fill="#000000" font-family="sans-serif" font-size="20" font-weight="bold" lengthAdjust="spacing" textLength="149" x="823" y="406.3613">BoardUpdate</text></g><!--cluster eCourseUser--><g id="cluster_eCourseUser"><path d="M2092.5,667.2969 L2258.5,667.2969 A3.75,3.75 0 0 1 2261,669.7969 L2268,716.5781 L2271.5,716.5781 A2.5,2.5 0 0 1 2274,719.0781 L2274,803.7969 A2.5,2.5 0 0 1 2271.5,806.2969 L2092.5,806.2969 A2.5,2.5 0 0 1 2090,803.7969 L2090,669.7969 A2.5,2.5 0 0 1 2092.5,667.2969 " fill="#D3D3D3" style="stroke:#000000;stroke-width:1.5;"/><line style="stroke:#000000;stroke-width:1.5;" x1="2090" x2="2268" y1="716.5781" y2="716.5781"/><text fill="#000000" font-family="sans-serif" font-size="20" font-weight="bold" lengthAdjust="spacing" textLength="145" x="2104" y="697.8613">eCourseUser</text></g><!--class Board--><g id="elem_Board"><rect codeLine="19" fill="#F1F1F1" height="191.125" id="Board" rx="2.5" ry="2.5" style="stroke:#181818;stroke-width:0.5;" width="178" x="567" y="125.2969"/><text fill="#000000" font-family="sans-serif" font-size="20" font-style="italic" lengthAdjust="spacing" textLength="64" x="624" y="158.8613">«root»</text><text fill="#000000" font-family="sans-serif" font-size="20" lengthAdjust="spacing" textLength="59" x="626.5" y="202.1426">Board</text><line style="stroke:#181818;stroke-width:0.5;" x1="568" x2="744" y1="221.8594" y2="221.8594"/><rect fill="none" height="6" style="stroke:#C82930;stroke-width:1.0;" width="6" x="575" y="246"/><text fill="#000000" font-family="sans-serif" font-size="20" lengthAdjust="spacing" textLength="131" x="598" y="254.4238">maxColumns</text><rect fill="none" height="6" style="stroke:#C82930;stroke-width:1.0;" width="6" x="575" y="289.2813"/><text fill="#000000" font-family="sans-serif" font-size="20" lengthAdjust="spacing" textLength="96" x="598" y="297.7051">maxRows</text></g><!--class Title--><g id="elem_Title"><rect codeLine="24" fill="#F1F1F1" height="104.5625" id="Title" rx="2.5" ry="2.5" style="stroke:#181818;stroke-width:0.5;" width="169" x="21.5" y="459.2969"/><text fill="#000000" font-family="sans-serif" font-size="20" font-style="italic" lengthAdjust="spacing" textLength="147" x="32.5" y="492.8613">«value object»</text><text fill="#000000" font-family="sans-serif" font-size="20" lengthAdjust="spacing" textLength="44" x="84" y="536.1426">Title</text><line style="stroke:#181818;stroke-width:0.5;" x1="22.5" x2="189.5" y1="555.8594" y2="555.8594"/></g><!--class Column--><g id="elem_Column"><rect codeLine="26" fill="#F1F1F1" height="191.125" id="Column" rx="2.5" ry="2.5" style="stroke:#181818;stroke-width:0.5;" width="105" x="270.5" y="416.2969"/><text fill="#000000" font-family="sans-serif" font-size="20" font-style="italic" lengthAdjust="spacing" textLength="83" x="281.5" y="449.8613">«entity»</text><text fill="#000000" font-family="sans-serif" font-size="20" lengthAdjust="spacing" textLength="78" x="284" y="493.1426">Column</text><line style="stroke:#181818;stroke-width:0.5;" x1="271.5" x2="374.5" y1="512.8594" y2="512.8594"/><rect fill="none" height="6" style="stroke:#C82930;stroke-width:1.0;" width="6" x="278.5" y="537"/><text fill="#000000" font-family="sans-serif" font-size="20" lengthAdjust="spacing" textLength="40" x="301.5" y="545.4238">title</text><rect fill="none" height="6" style="stroke:#C82930;stroke-width:1.0;" width="6" x="278.5" y="580.2813"/><text fill="#000000" font-family="sans-serif" font-size="20" lengthAdjust="spacing" textLength="19" x="301.5" y="588.7051">id</text></g><!--class Row--><g id="elem_Row"><rect codeLine="31" fill="#F1F1F1" height="191.125" id="Row" rx="2.5" ry="2.5" style="stroke:#181818;stroke-width:0.5;" width="105" x="455.5" y="416.2969"/><text fill="#000000" font-family="sans-serif" font-size="20" font-style="italic" lengthAdjust="spacing" textLength="83" x="466.5" y="449.8613">«entity»</text><text fill="#000000" font-family="sans-serif" font-size="20" lengthAdjust="spacing" textLength="43" x="486.5" y="493.1426">Row</text><line style="stroke:#181818;stroke-width:0.5;" x1="456.5" x2="559.5" y1="512.8594" y2="512.8594"/><rect fill="none" height="6" style="stroke:#C82930;stroke-width:1.0;" width="6" x="463.5" y="537"/><text fill="#000000" font-family="sans-serif" font-size="20" lengthAdjust="spacing" textLength="40" x="486.5" y="545.4238">title</text><rect fill="none" height="6" style="stroke:#C82930;stroke-width:1.0;" width="6" x="463.5" y="580.2813"/><text fill="#000000" font-family="sans-serif" font-size="20" lengthAdjust="spacing" textLength="19" x="486.5" y="588.7051">id</text></g><!--class State--><g id="elem_State"><rect codeLine="36" fill="#F1F1F1" height="104.5625" id="State" rx="2.5" ry="2.5" style="stroke:#181818;stroke-width:0.5;" width="104" x="641" y="459.2969"/><text fill="#000000" font-family="sans-serif" font-size="20" font-style="italic" lengthAdjust="spacing" textLength="82" x="652" y="492.8613">«enum»</text><text fill="#000000" font-family="sans-serif" font-size="20" lengthAdjust="spacing" textLength="53" x="666.5" y="536.1426">State</text><line style="stroke:#181818;stroke-width:0.5;" x1="642" x2="744" y1="555.8594" y2="555.8594"/></g><g id="elem_GMN8"><path d="M617.5,721.2969 L617.5,797.8594 A0,0 0 0 0 617.5,797.8594 L744.5,797.8594 A0,0 0 0 0 744.5,797.8594 L744.5,731.2969 L734.5,721.2969 L696.75,721.2969 L692.75,564.3869 L688.75,721.2969 L617.5,721.2969 A0,0 0 0 0 617.5,721.2969 " fill="#A9A9A9" style="stroke:#181818;stroke-width:0.5;"/><path d="M734.5,721.2969 L734.5,731.2969 L744.5,731.2969 L734.5,721.2969 " fill="#A9A9A9" style="stroke:#181818;stroke-width:0.5;"/><text fill="#000000" font-family="sans-serif" font-size="20" lengthAdjust="spacing" textLength="60" x="633.5" y="754.8613">active</text><text fill="#000000" font-family="sans-serif" font-size="20" lengthAdjust="spacing" textLength="86" x="633.5" y="778.1426">archived</text></g><!--class Update--><g id="elem_Update"><rect codeLine="45" fill="#F1F1F1" height="147.8438" id="Update" rx="2.5" ry="2.5" style="stroke:#181818;stroke-width:0.5;" width="156" x="1059" y="437.7969"/><text fill="#000000" font-family="sans-serif" font-size="20" font-style="italic" lengthAdjust="spacing" textLength="64" x="1105" y="471.3613">«root»</text><text fill="#000000" font-family="sans-serif" font-size="20" lengthAdjust="spacing" textLength="73" x="1100.5" y="514.6426">Update</text><line style="stroke:#181818;stroke-width:0.5;" x1="1060" x2="1214" y1="534.3594" y2="534.3594"/><rect fill="none" height="6" style="stroke:#C82930;stroke-width:1.0;" width="6" x="1067" y="558.5"/><text fill="#000000" font-family="sans-serif" font-size="20" lengthAdjust="spacing" textLength="109" x="1090" y="566.9238">timestamp</text></g><!--class BoardUpdate--><g id="elem_BoardUpdate"><rect codeLine="51" fill="#F1F1F1" height="104.5625" id="BoardUpdate" rx="2.5" ry="2.5" style="stroke:#181818;stroke-width:0.5;" width="158" x="1021" y="707.2969"/><text fill="#000000" font-family="sans-serif" font-size="20" font-style="italic" lengthAdjust="spacing" textLength="83" x="1058.5" y="740.8613">«entity»</text><text fill="#000000" font-family="sans-serif" font-size="20" lengthAdjust="spacing" textLength="132" x="1034" y="784.1426">BoardUpdate</text><line style="stroke:#181818;stroke-width:0.5;" x1="1022" x2="1178" y1="803.8594" y2="803.8594"/></g><!--class CellUpdate--><g id="elem_CellUpdate"><rect codeLine="53" fill="#F1F1F1" height="104.5625" id="CellUpdate" rx="2.5" ry="2.5" style="stroke:#181818;stroke-width:0.5;" width="137" x="1259.5" y="707.2969"/><text fill="#000000" font-family="sans-serif" font-size="20" font-style="italic" lengthAdjust="spacing" textLength="83" x="1286.5" y="740.8613">«entity»</text><text fill="#000000" font-family="sans-serif" font-size="20" lengthAdjust="spacing" textLength="111" x="1272.5" y="784.1426">CellUpdate</text><line style="stroke:#181818;stroke-width:0.5;" x1="1260.5" x2="1395.5" y1="803.8594" y2="803.8594"/></g><!--class BoardUpdateType--><g id="elem_BoardUpdateType"><rect codeLine="55" fill="#F1F1F1" height="104.5625" id="BoardUpdateType" rx="2.5" ry="2.5" style="stroke:#181818;stroke-width:0.5;" width="206" x="1295" y="459.2969"/><text fill="#000000" font-family="sans-serif" font-size="20" font-style="italic" lengthAdjust="spacing" textLength="82" x="1357" y="492.8613">«enum»</text><text fill="#000000" font-family="sans-serif" font-size="20" lengthAdjust="spacing" textLength="180" x="1308" y="536.1426">BoardUpdateType</text><line style="stroke:#181818;stroke-width:0.5;" x1="1296" x2="1500" y1="555.8594" y2="555.8594"/></g><!--class CellUpdateType--><g id="elem_CellUpdateType"><rect codeLine="57" fill="#F1F1F1" height="104.5625" id="CellUpdateType" rx="2.5" ry="2.5" style="stroke:#181818;stroke-width:0.5;" width="185" x="1581.5" y="459.2969"/><text fill="#000000" font-family="sans-serif" font-size="20" font-style="italic" lengthAdjust="spacing" textLength="82" x="1633" y="492.8613">«enum»</text><text fill="#000000" font-family="sans-serif" font-size="20" lengthAdjust="spacing" textLength="159" x="1594.5" y="536.1426">CellUpdateType</text><line style="stroke:#181818;stroke-width:0.5;" x1="1582.5" x2="1765.5" y1="555.8594" y2="555.8594"/></g><!--class BoardChange--><g id="elem_BoardChange"><rect codeLine="59" fill="#F1F1F1" height="104.5625" id="BoardChange" rx="2.5" ry="2.5" style="stroke:#181818;stroke-width:0.5;" width="169" x="1476.5" y="707.2969"/><text fill="#000000" font-family="sans-serif" font-size="20" font-style="italic" lengthAdjust="spacing" textLength="147" x="1487.5" y="740.8613">«value object»</text><text fill="#000000" font-family="sans-serif" font-size="20" lengthAdjust="spacing" textLength="136" x="1493" y="784.1426">BoardChange</text><line style="stroke:#181818;stroke-width:0.5;" x1="1477.5" x2="1644.5" y1="803.8594" y2="803.8594"/></g><!--class ContentType--><g id="elem_ContentType"><rect codeLine="61" fill="#F1F1F1" height="104.5625" id="ContentType" rx="2.5" ry="2.5" style="stroke:#181818;stroke-width:0.5;" width="154" x="825" y="459.2969"/><text fill="#000000" font-family="sans-serif" font-size="20" font-style="italic" lengthAdjust="spacing" textLength="82" x="861" y="492.8613">«enum»</text><text fill="#000000" font-family="sans-serif" font-size="20" lengthAdjust="spacing" textLength="128" x="838" y="536.1426">ContentType</text><line style="stroke:#181818;stroke-width:0.5;" x1="826" x2="978" y1="555.8594" y2="555.8594"/></g><g id="elem_GMN19"><path d="M837,721.2969 L837,797.8594 A0,0 0 0 0 837,797.8594 L941,797.8594 A0,0 0 0 0 941,797.8594 L941,731.2969 L931,721.2969 L893,721.2969 L889,564.3869 L885,721.2969 L837,721.2969 A0,0 0 0 0 837,721.2969 " fill="#A9A9A9" style="stroke:#181818;stroke-width:0.5;"/><path d="M931,721.2969 L931,731.2969 L941,731.2969 L931,721.2969 " fill="#A9A9A9" style="stroke:#181818;stroke-width:0.5;"/><text fill="#000000" font-family="sans-serif" font-size="20" lengthAdjust="spacing" textLength="39" x="853" y="754.8613">text</text><text fill="#000000" font-family="sans-serif" font-size="20" lengthAdjust="spacing" textLength="63" x="853" y="778.1426">image</text></g><!--class Content--><g id="elem_Content"><rect codeLine="68" fill="#F1F1F1" height="147.8438" id="Content" rx="2.5" ry="2.5" style="stroke:#181818;stroke-width:0.5;" width="169" x="1846.5" y="437.7969"/><text fill="#000000" font-family="sans-serif" font-size="20" font-style="italic" lengthAdjust="spacing" textLength="147" x="1857.5" y="471.3613">«value object»</text><text fill="#000000" font-family="sans-serif" font-size="20" lengthAdjust="spacing" textLength="80" x="1891" y="514.6426">Content</text><line style="stroke:#181818;stroke-width:0.5;" x1="1847.5" x2="2014.5" y1="534.3594" y2="534.3594"/><rect fill="none" height="6" style="stroke:#C82930;stroke-width:1.0;" width="6" x="1854.5" y="558.5"/><text fill="#000000" font-family="sans-serif" font-size="20" lengthAdjust="spacing" textLength="109" x="1877.5" y="566.9238">timestamp</text></g><!--class eCourseUser.eCourseUser--><g id="elem_eCourseUser.eCourseUser"><rect fill="#F1F1F1" height="61.2813" id="eCourseUser.eCourseUser" rx="2.5" ry="2.5" style="stroke:#181818;stroke-width:0.5;" width="152" x="2106" y="729.2969"/><text fill="#000000" font-family="sans-serif" font-size="20" lengthAdjust="spacing" textLength="126" x="2119" y="762.8613">eCourseUser</text><line style="stroke:#181818;stroke-width:0.5;" x1="2107" x2="2257" y1="782.5781" y2="782.5781"/></g><!--link Board to Title--><g id="link_Board_Title"><path codeLine="73" d="M566.72,189.2969 C410.96,189.2969 106,189.2969 106,189.2969 C106,189.2969 106,454.2669 106,454.2669 " fill="none" id="Board-to-Title" style="stroke:#181818;stroke-width:1.0;"/><polygon fill="#181818" points="106,459.2669,110,450.2669,106,454.2669,102,450.2669,106,459.2669" style="stroke:#181818;stroke-width:1.0;"/><text fill="#000000" font-family="sans-serif" font-size="20" lengthAdjust="spacing" textLength="35" x="157.87" y="173.8613">has</text></g><!--link Board to Column--><g id="link_Board_Column"><path codeLine="74" d="M566.76,253.2969 C468.12,253.2969 323,253.2969 323,253.2969 C323,253.2969 323,411.2769 323,411.2769 " fill="none" id="Board-to-Column" style="stroke:#181818;stroke-width:1.0;"/><polygon fill="#181818" points="323,416.2769,327,407.2769,323,411.2769,319,407.2769,323,416.2769" style="stroke:#181818;stroke-width:1.0;"/><text fill="#000000" font-family="sans-serif" font-size="20" lengthAdjust="spacing" textLength="35" x="319.89" y="237.8613">has</text><text fill="#000000" font-family="sans-serif" font-size="20" lengthAdjust="spacing" textLength="10" x="301.9453" y="393.6189">*</text></g><!--link Board to Row--><g id="link_Board_Row"><path codeLine="75" d="M592.25,316.4869 C592.25,370.5069 592.25,427.2969 592.25,427.2969 C592.25,427.2969 565.88,427.2969 565.88,427.2969 " fill="none" id="Board-to-Row" style="stroke:#181818;stroke-width:1.0;"/><polygon fill="#181818" points="560.88,427.2969,569.88,431.2969,565.88,427.2969,569.88,423.2969,560.88,427.2969" style="stroke:#181818;stroke-width:1.0;"/><text fill="#000000" font-family="sans-serif" font-size="20" lengthAdjust="spacing" textLength="35" x="603.25" y="369.6413">has</text><text fill="#000000" font-family="sans-serif" font-size="20" lengthAdjust="spacing" textLength="10" x="578.3044" y="401.2761">*</text></g><!--link Board to eCourseUser.eCourseUser--><g id="link_Board_eCourseUser.eCourseUser"><path codeLine="76" d="M745.14,173.2969 C1076.73,173.2969 2220,173.2969 2220,173.2969 C2220,173.2969 2220,724.0869 2220,724.0869 " fill="none" id="Board-to-eCourseUser.eCourseUser" style="stroke:#181818;stroke-width:1.0;"/><polygon fill="#181818" points="2220,729.0869,2224,720.0869,2220,724.0869,2216,720.0869,2220,729.0869" style="stroke:#181818;stroke-width:1.0;"/><text fill="#000000" font-family="sans-serif" font-size="20" lengthAdjust="spacing" textLength="97" x="1649.96" y="157.8613">owned by</text></g><!--link Board to eCourseUser.eCourseUser--><g id="link_Board_eCourseUser.eCourseUser"><path codeLine="78" d="M745.2,221.2969 C1071.6,221.2969 2182,221.2969 2182,221.2969 C2182,221.2969 2182,723.9069 2182,723.9069 " fill="none" id="Board-to-eCourseUser.eCourseUser-1" style="stroke:#181818;stroke-width:1.0;stroke-dasharray:7.0,7.0;"/><polygon fill="#181818" points="2182,728.9069,2186,719.9069,2182,723.9069,2178,719.9069,2182,728.9069" style="stroke:#181818;stroke-width:1.0;"/><text fill="#000000" font-family="sans-serif" font-size="20" lengthAdjust="spacing" textLength="106" x="1597.91" y="205.8613">created by</text></g><!--link Board to eCourseUser.eCourseUser--><g id="link_Board_eCourseUser.eCourseUser"><path codeLine="79" d="M745.18,269.2969 C1066.2,269.2969 2144,269.2969 2144,269.2969 C2144,269.2969 2144,724.1169 2144,724.1169 " fill="none" id="Board-to-eCourseUser.eCourseUser-2" style="stroke:#181818;stroke-width:1.0;stroke-dasharray:7.0,7.0;"/><polygon fill="#181818" points="2144,729.1169,2148,720.1169,2144,724.1169,2140,720.1169,2144,729.1169" style="stroke:#181818;stroke-width:1.0;"/><text fill="#000000" font-family="sans-serif" font-size="20" lengthAdjust="spacing" textLength="101" x="1560" y="253.8613">viewed by</text></g><!--link Board to State--><g id="link_Board_State"><path codeLine="77" d="M675.67,316.4869 C675.67,316.4869 675.67,453.9169 675.67,453.9169 " fill="none" id="Board-to-State" style="stroke:#181818;stroke-width:1.0;"/><polygon fill="#181818" points="675.67,458.9169,679.67,449.9169,675.67,453.9169,671.67,449.9169,675.67,458.9169" style="stroke:#181818;stroke-width:1.0;"/><text fill="#000000" font-family="sans-serif" font-size="20" lengthAdjust="spacing" textLength="35" x="629.67" y="414.7713">has</text></g><!--link Board to Update--><g id="link_Board_Update"><path codeLine="80" d="M710.33,316.3769 C710.33,378.9969 710.33,449.2969 710.33,449.2969 C710.33,449.2969 1053.74,449.2969 1053.74,449.2969 " fill="none" id="Board-to-Update" style="stroke:#181818;stroke-width:1.0;"/><polygon fill="#181818" points="1058.74,449.2969,1049.74,445.2969,1053.74,449.2969,1049.74,453.2969,1058.74,449.2969" style="stroke:#181818;stroke-width:1.0;"/><text fill="#000000" font-family="sans-serif" font-size="20" lengthAdjust="spacing" textLength="35" x="769.58" y="433.8613">has</text><text fill="#000000" font-family="sans-serif" font-size="20" lengthAdjust="spacing" textLength="10" x="1031.0169" y="427.9232">*</text></g><!--reverse link Update to CellUpdate--><g id="link_Update_CellUpdate"><path codeLine="81" d="M1235.33,579.2969 C1235.33,579.2969 1277.25,579.2969 1277.25,579.2969 C1277.25,579.2969 1277.25,653.8269 1277.25,707.1069 " fill="none" id="Update-backto-CellUpdate" style="stroke:#181818;stroke-width:1.0;"/><polygon fill="none" points="1235.33,586.2969,1215.33,579.2969,1235.33,572.2969,1235.33,586.2969" style="stroke:#181818;stroke-width:1.0;"/><text fill="#000000" font-family="sans-serif" font-size="20" lengthAdjust="spacing" textLength="34" x="1232.25" y="606.8013">is a</text></g><!--reverse link Update to BoardUpdate--><g id="link_Update_BoardUpdate"><path codeLine="82" d="M1119,605.8669 C1119,605.8669 1119,706.9569 1119,706.9569 " fill="none" id="Update-backto-BoardUpdate" style="stroke:#181818;stroke-width:1.0;"/><polygon fill="none" points="1112,605.8669,1119,585.8669,1126,605.8669,1112,605.8669" style="stroke:#181818;stroke-width:1.0;"/><text fill="#000000" font-family="sans-serif" font-size="20" lengthAdjust="spacing" textLength="34" x="1074" y="640.9713">is a</text></g><!--link Update to eCourseUser.eCourseUser--><g id="link_Update_eCourseUser.eCourseUser"><path codeLine="83" d="M1215.11,572.2969 C1391.72,572.2969 1806.5,572.2969 1806.5,572.2969 C1806.5,572.2969 1806.5,775.2969 1806.5,775.2969 C1806.5,775.2969 2100.56,775.2969 2100.56,775.2969 " fill="none" id="Update-to-eCourseUser.eCourseUser" style="stroke:#181818;stroke-width:1.0;"/><polygon fill="#181818" points="2105.56,775.2969,2096.56,771.2969,2100.56,775.2969,2096.56,779.2969,2105.56,775.2969" style="stroke:#181818;stroke-width:1.0;"/><text fill="#000000" font-family="sans-serif" font-size="20" lengthAdjust="spacing" textLength="109" x="1639.33" y="601.8613">is made by</text></g><!--link Content to eCourseUser.eCourseUser--><g id="link_Content_eCourseUser.eCourseUser"><path codeLine="84" d="M1959.17,585.9969 C1959.17,654.3669 1959.17,745.2969 1959.17,745.2969 C1959.17,745.2969 2100.94,745.2969 2100.94,745.2969 " fill="none" id="Content-to-eCourseUser.eCourseUser" style="stroke:#181818;stroke-width:1.0;"/><polygon fill="#181818" points="2105.94,745.2969,2096.94,741.2969,2100.94,745.2969,2096.94,749.2969,2105.94,745.2969" style="stroke:#181818;stroke-width:1.0;"/><text fill="#000000" font-family="sans-serif" font-size="20" lengthAdjust="spacing" textLength="123" x="1825.17" y="721.1013">is altered by</text><text fill="#000000" font-family="sans-serif" font-size="20" lengthAdjust="spacing" textLength="15" x="1935.0203" y="622.2049">N</text><text fill="#000000" font-family="sans-serif" font-size="20" lengthAdjust="spacing" textLength="15" x="2072.8997" y="774.4629">N</text></g><!--link Content to eCourseUser.eCourseUser--><g id="link_Content_eCourseUser.eCourseUser"><path codeLine="85" d="M1902.83,586.0169 C1902.83,659.2469 1902.83,760.2969 1902.83,760.2969 C1902.83,760.2969 2100.72,760.2969 2100.72,760.2969 " fill="none" id="Content-to-eCourseUser.eCourseUser-1" style="stroke:#181818;stroke-width:1.0;"/><polygon fill="#181818" points="2105.72,760.2969,2096.72,756.2969,2100.72,760.2969,2096.72,764.2969,2105.72,760.2969" style="stroke:#181818;stroke-width:1.0;"/><text fill="#000000" font-family="sans-serif" font-size="20" lengthAdjust="spacing" textLength="196" x="1707.64" y="789.8613">change reversed by</text><text fill="#000000" font-family="sans-serif" font-size="20" lengthAdjust="spacing" textLength="15" x="1874.1907" y="622.2264">N</text><text fill="#000000" font-family="sans-serif" font-size="20" lengthAdjust="spacing" textLength="13" x="2075.0367" y="744.1223">1</text></g><!--SRC=[bLHDZzCm4BtdLrZXW8IKQ0iNM5MLs2u83ko1tUNknjF6rB4ZU_e5x7zd72TTPzEcq4YjEvxtvkNv9MujTSqjhvGfrY2OW2NVAFniDDxBNy3UNYKeKG5BRqt5fMRVZ035FktHyW8pzaF2ZjqORWNx8XqQUqWJ1KjaQ9YLgnAPa1OAb4OdQ6fVNXX4KqLrrsbWDHT2wXMRN4L5JHCTrEnzNBHShtrnSXLNLzPiwg-w12kHwmBO9DfKKWCUQc36OccY3UAXNo_5qyLyTmRXXXThpwl5t2XZsQkF7_pLKrsi-GhOxuJHPz1_-yvVpLvZAnx8peLH8dbAab8AO8MqXOAmhe342PTqf8stdhbGtBdMwkdK6eEpMJioOnNVqxHDfTrpuRlP-Nyqf0C_D2SvdMwvsf0DYvzq09uaQWair0EQplqmctKJcXIqQodwl3JfFn7to14QpAOwAj3aTfSEisnx0XjbJMu36RT5IUj0IBYUKO-rw41XK5iO68Qo0eUygZjThtk01v-J5_AY0pYoTlVSzn2K6k-8ICvFUgQve6PUShswUAuQIKgFwQJhSMCm2s6FpK9Mv7F_7DlkmUpMvXSkFoMDtZo4ECjcGNyUSddDIku67UcRjErgetcfpOVnT0_CpSOwU7HWysXDtMQdwTstE9pH5v8u9CtpCTB20i46jEEWBRrFJqivtc78HDucB5BLtvZ-oR8U88hbDPEEyNz2nNa_3nktbr0LftTRTrUTe3OywLrAUFeUf-0AmKRUd6QPZB4KuKcni0KgUgg_]--></g></svg>