<?xml version="1.0" encoding="UTF-8" standalone="no"?><svg xmlns="http://www.w3.org/2000/svg" xmlns:xlink="http://www.w3.org/1999/xlink" contentStyleType="text/css" height="581px" preserveAspectRatio="none" style="width:1308px;height:581px;background:#FFFFFF;" version="1.1" viewBox="0 0 1308 581" width="1308px" zoomAndPan="magnify"><defs/><g><text fill="#000000" font-family="sans-serif" font-size="14" font-weight="bold" lengthAdjust="spacing" textLength="442" x="434.75" y="27.9951">SD - As a manager I want to list all the available courses</text><polygon fill="#FFFFFF" points="46.5,135.5781,46.5,135.6482,48.5,135.44,50.5,135.6426,52.5,135.7114,54.5,135.3403,56.5,135.5781,56.4223,135.5781,56.0735,145.5938,56.1165,155.6094,56.4318,165.625,55.8086,175.6406,57.0536,185.6563,55.8697,195.6719,56.3022,205.6875,56.9319,215.7031,56.4142,225.7188,56.5682,235.7344,56.4681,245.75,56.6785,255.7656,56.7391,265.7813,57.0857,275.7969,57.1711,285.8125,57.1793,295.8281,56.7546,305.8438,56.9636,315.8594,57.2022,325.875,55.7788,335.8906,57.1785,345.9063,56.2035,355.9219,57.0338,365.9375,56.005,375.9531,56.4315,385.9688,57.2416,395.9844,56.4513,406,56.6053,416.0156,56.8386,426.0313,56.9162,436.0469,56.4961,446.0625,56.7872,456.0781,55.9276,466.0938,56.5,476.1094,56.5,476.2042,54.5,476.2921,52.5,476.2576,50.5,476.3137,48.5,475.9483,46.5,476.1094,45.8478,476.1094,45.8786,466.0938,46.4411,456.0781,46.3035,446.0625,47.1814,436.0469,46.3253,426.0313,46.1569,416.0156,46.7283,406,45.8332,395.9844,45.9809,385.9688,47.149,375.9531,46.9357,365.9375,47.2345,355.9219,46.1782,345.9063,46.8192,335.8906,47.0904,325.875,46.0276,315.8594,46.4041,305.8438,46.626,295.8281,47.1518,285.8125,46.4958,275.7969,46.9626,265.7813,45.9462,255.7656,45.8227,245.75,47.0036,235.7344,45.7831,225.7188,47.009,215.7031,46.7066,205.6875,46.2321,195.6719,46.1462,185.6563,46.9588,175.6406,46.2007,165.625,47.0919,155.6094,45.9473,145.5938,46.5,135.5781" style="stroke:#181818;stroke-width:1.0;"/><polygon fill="#FFFFFF" points="436.5,164.8594,436.5,164.9294,438.5,164.7213,440.5,164.9238,442.5,164.9926,444.5,164.6216,446.5,164.8594,446.4223,164.8594,446.0735,174.8997,446.1165,184.94,446.4318,194.9803,445.8086,205.0207,447.0536,215.061,445.8697,225.1013,446.3022,235.1416,446.9319,245.182,446.4142,255.2223,446.5682,265.2626,446.4681,275.3029,446.6785,285.3432,446.7391,295.3836,447.0857,305.4239,447.1711,315.4642,447.1793,325.5045,446.7546,335.5449,446.9636,345.5852,447.2022,355.6255,445.7788,365.6658,447.1785,375.7061,446.2035,385.7465,447.0338,395.7868,446.005,405.8271,446.4315,415.8674,447.2416,425.9078,446.4513,435.9481,446.6053,445.9884,446.8386,456.0287,446.9162,466.0691,446.5,476.1094,446.5,476.1081,444.5,476.2051,442.5,475.9186,440.5,476.2042,438.5,476.2921,436.5,476.1094,436.9445,476.1094,437.113,466.0691,436.0169,456.0287,435.8478,445.9884,435.8786,435.9481,436.4411,425.9078,436.3035,415.8674,437.1814,405.8271,436.3253,395.7868,436.1569,385.7465,436.7283,375.7061,435.8332,365.6658,435.9809,355.6255,437.149,345.5852,436.9357,335.5449,437.2345,325.5045,436.1782,315.4642,436.8192,305.4239,437.0904,295.3836,436.0276,285.3432,436.4041,275.3029,436.626,265.2626,437.1518,255.2223,436.4958,245.182,436.9626,235.1416,435.9462,225.1013,435.8227,215.061,437.0036,205.0207,435.7831,194.9803,437.009,184.94,436.7066,174.8997,436.5,164.8594" style="stroke:#181818;stroke-width:1.0;"/><polygon fill="#FFFFFF" points="733.5,202.1406,733.5,202.2107,735.5,202.0025,737.5,202.2051,739.5,202.2739,741.5,201.9028,743.5,202.1406,743.4223,202.1406,743.0735,211.9515,743.1165,221.7623,743.4318,231.5732,742.8086,241.384,744.0536,251.1949,742.8697,261.0058,743.3022,270.8166,743.9319,280.6275,743.4142,290.4383,743.5682,300.2492,743.4681,310.06,743.6785,319.8709,743.7391,329.6817,744.0857,339.4926,744.1711,349.3035,744.1793,359.1143,743.7546,368.9252,743.9636,378.736,743.5,388.5469,743.5,388.781,741.5,388.3065,739.5,388.773,737.5,388.448,735.5,388.7248,733.5,388.5469,733.005,388.5469,733.4315,378.736,734.2416,368.9252,733.4513,359.1143,733.6053,349.3035,733.8386,339.4926,733.9162,329.6817,733.4961,319.8709,733.7872,310.06,732.9276,300.2492,733.7844,290.4383,734.0482,280.6275,733.9445,270.8166,734.113,261.0058,733.0169,251.1949,732.8478,241.384,732.8786,231.5732,733.4411,221.7623,733.3035,211.9515,733.5,202.1406" style="stroke:#181818;stroke-width:1.0;"/><polygon fill="#FFFFFF" points="1005.5,239.4219,1005.5,239.4919,1007.5,239.2838,1009.5,239.4863,1011.5,239.5551,1013.5,239.1841,1015.5,239.4219,1015.4223,239.4219,1015.0735,249.5895,1015.1165,259.7571,1015.4318,269.9247,1014.8086,280.0923,1016.0536,290.2599,1014.8697,300.4276,1015.3022,310.5952,1015.9319,320.7628,1015.4142,330.9304,1015.5682,341.098,1015.5,351.2656,1015.5,351.255,1013.5,351.3251,1011.5,351.3453,1009.5,351.4609,1007.5,351.4893,1005.5,351.2656,1006.1793,351.2656,1005.7546,341.098,1005.9636,330.9304,1006.2022,320.7628,1004.7788,310.5952,1006.1785,300.4276,1005.2035,290.2599,1006.0338,280.0923,1005.005,269.9247,1005.4315,259.7571,1006.2416,249.5895,1005.5,239.4219" style="stroke:#181818;stroke-width:1.0;"/><polygon fill="#FFFFFF" points="1208.5,276.7031,1208.5,276.7732,1210.5,276.565,1212.5,276.7676,1214.5,276.8364,1216.5,276.4653,1218.5,276.7031,1218.4741,276.7031,1218.3578,284.1594,1218.3722,291.6156,1218.4773,299.0719,1218.2695,306.5281,1218.5,313.9844,1218.5,314.1689,1216.5,313.7743,1214.5,313.9185,1212.5,314.1284,1210.5,313.9558,1208.5,313.9844,1208.5227,313.9844,1208.4894,306.5281,1208.5595,299.0719,1208.5797,291.6156,1208.6952,284.1594,1208.5,276.7031" style="stroke:#181818;stroke-width:1.0;"/><path d="M51,125.5781 L51.2802,125.5781 L50.4476,135.5384 L51.2577,145.4987 L51.5329,155.459 L50.0488,165.4193 L50.8964,175.3796 L50.4313,185.3399 L50.4887,195.3003 L50.9091,205.2606 L50.0782,215.2209 L51.7382,225.1812 L50.1596,235.1415 L50.7363,245.1018 L51.5759,255.0621 L50.8856,265.0224 L51.091,274.9827 L50.9574,284.943 L51.238,294.9033 L51.3188,304.8636 L51.7809,314.8239 L51.8947,324.7842 L51.9057,334.7445 L51.3395,344.7048 L51.6181,354.6651 L51.9363,364.6254 L50.0384,374.5857 L51.9047,384.546 L50.6047,394.5063 L51.7117,404.4666 L50.34,414.4269 L50.9087,424.3872 L51.9888,434.3476 L50.935,444.3079 L51.1404,454.2682 L51.4515,464.2285 L51.555,474.1888 L50.9948,484.1491 L51,494.1094 " fill="none" style="stroke:#181818;stroke-width:0.5;stroke-dasharray:5.0,5.0;"/><path d="M441.5,125.5781 L441.7802,125.5781 L440.9476,135.5384 L441.7577,145.4987 L442.0329,155.459 L440.5488,165.4193 L441.3964,175.3796 L440.9313,185.3399 L440.9887,195.3003 L441.4091,205.2606 L440.5782,215.2209 L442.2382,225.1812 L440.6596,235.1415 L441.2363,245.1018 L442.0759,255.0621 L441.3856,265.0224 L441.591,274.9827 L441.4574,284.943 L441.738,294.9033 L441.8188,304.8636 L442.2809,314.8239 L442.3947,324.7842 L442.4057,334.7445 L441.8395,344.7048 L442.1181,354.6651 L442.4363,364.6254 L440.5384,374.5857 L442.4047,384.546 L441.1047,394.5063 L442.2117,404.4666 L440.84,414.4269 L441.4087,424.3872 L442.4888,434.3476 L441.435,444.3079 L441.6404,454.2682 L441.9515,464.2285 L442.055,474.1888 L441.4948,484.1491 L441.5,494.1094 " fill="none" style="stroke:#181818;stroke-width:0.5;stroke-dasharray:5.0,5.0;"/><path d="M738.5,125.5781 L738.7802,125.5781 L737.9476,135.5384 L738.7577,145.4987 L739.0329,155.459 L737.5488,165.4193 L738.3964,175.3796 L737.9313,185.3399 L737.9887,195.3003 L738.4091,205.2606 L737.5782,215.2209 L739.2382,225.1812 L737.6596,235.1415 L738.2363,245.1018 L739.0759,255.0621 L738.3856,265.0224 L738.591,274.9827 L738.4574,284.943 L738.738,294.9033 L738.8188,304.8636 L739.2809,314.8239 L739.3947,324.7842 L739.4057,334.7445 L738.8395,344.7048 L739.1181,354.6651 L739.4363,364.6254 L737.5384,374.5857 L739.4047,384.546 L738.1047,394.5063 L739.2117,404.4666 L737.84,414.4269 L738.4087,424.3872 L739.4888,434.3476 L738.435,444.3079 L738.6404,454.2682 L738.9515,464.2285 L739.055,474.1888 L738.4948,484.1491 L738.5,494.1094 " fill="none" style="stroke:#181818;stroke-width:0.5;stroke-dasharray:5.0,5.0;"/><path d="M1010.5,125.5781 L1010.7802,125.5781 L1009.9476,135.5384 L1010.7577,145.4987 L1011.0329,155.459 L1009.5488,165.4193 L1010.3964,175.3796 L1009.9313,185.3399 L1009.9887,195.3003 L1010.4091,205.2606 L1009.5782,215.2209 L1011.2382,225.1812 L1009.6596,235.1415 L1010.2363,245.1018 L1011.0759,255.0621 L1010.3856,265.0224 L1010.591,274.9827 L1010.4574,284.943 L1010.738,294.9033 L1010.8188,304.8636 L1011.2809,314.8239 L1011.3947,324.7842 L1011.4057,334.7445 L1010.8395,344.7048 L1011.1181,354.6651 L1011.4363,364.6254 L1009.5384,374.5857 L1011.4047,384.546 L1010.1047,394.5063 L1011.2117,404.4666 L1009.84,414.4269 L1010.4087,424.3872 L1011.4888,434.3476 L1010.435,444.3079 L1010.6404,454.2682 L1010.9515,464.2285 L1011.055,474.1888 L1010.4948,484.1491 L1010.5,494.1094 " fill="none" style="stroke:#181818;stroke-width:0.5;stroke-dasharray:5.0,5.0;"/><path d="M1213.5,125.5781 L1213.7802,125.5781 L1212.9476,135.5384 L1213.7577,145.4987 L1214.0329,155.459 L1212.5488,165.4193 L1213.3964,175.3796 L1212.9313,185.3399 L1212.9887,195.3003 L1213.4091,205.2606 L1212.5782,215.2209 L1214.2382,225.1812 L1212.6596,235.1415 L1213.2363,245.1018 L1214.0759,255.0621 L1213.3856,265.0224 L1213.591,274.9827 L1213.4574,284.943 L1213.738,294.9033 L1213.8188,304.8636 L1214.2809,314.8239 L1214.3947,324.7842 L1214.4057,334.7445 L1213.8395,344.7048 L1214.1181,354.6651 L1214.4363,364.6254 L1212.5384,374.5857 L1214.4047,384.546 L1213.1047,394.5063 L1214.2117,404.4666 L1212.84,414.4269 L1213.4087,424.3872 L1214.4888,434.3476 L1213.435,444.3079 L1213.6404,454.2682 L1213.9515,464.2285 L1214.055,474.1888 L1213.4948,484.1491 L1213.5,494.1094 " fill="none" style="stroke:#181818;stroke-width:0.5;stroke-dasharray:5.0,5.0;"/><text fill="#000000" font-family="sans-serif" font-size="20" lengthAdjust="spacing" textLength="87" x="5" y="120.8613">Manager</text><polygon fill="#E3E3E3" points="59.5442,52.7428,58.3715,54.3451,56.9845,56.6919,55.0008,58.2735,52.9163,59.1384,51.2542,59.2135,49.118,58.1318,47.1023,57.4252,45.5724,55.9905,44.7699,54.348,44.2939,53.0402,43.8277,51.3319,43.0709,49.8619,43.6525,48.4267,44.162,46.8545,46.074,45.611,47.4192,43.9977,49.0843,43.4619,51.0637,43.0005,53.6021,43.2747,54.9924,43.9304,56.6089,44.2276,58.5743,46.2412,59.2595,48.367,59.5571,49.8175,59.22,52.2077" style="stroke:#181818;stroke-width:0.5;"/><path d="M51.5,58.7969 L51.6868,58.7969 L51.1317,64.1969 L51.6718,69.5969 L51.8553,74.9969 L50.8659,80.3969 L51.5,85.7969 M38.5,66.7969 L38.5,66.7278 L43.7,66.4178 L48.9,66.456 L54.1,66.7363 L59.3,66.1823 L64.5,66.7969 M51.5,85.7969 L51.8719,86.1192 L48.4766,88.43 L46.1672,91.6817 L43.9901,95.0483 L41.0424,97.7469 L38.5,100.7969 M51.5,85.7969 L51.5458,85.8366 L54.0785,88.7783 L56.8199,91.9008 L59.4606,94.9361 L62.2934,98.1378 L64.5,100.7969 " fill="none" style="stroke:#181818;stroke-width:0.5;"/><text fill="#000000" font-family="sans-serif" font-size="20" lengthAdjust="spacing" textLength="87" x="5" y="511.6738">Manager</text><polygon fill="#E3E3E3" points="59.5442,526.8365,58.3715,528.4388,56.9845,530.7857,55.0008,532.3673,52.9163,533.2322,51.2542,533.3072,49.118,532.2256,47.1023,531.5189,45.5724,530.0842,44.7699,528.4417,44.2939,527.1339,43.8277,525.4257,43.0709,523.9557,43.6525,522.5204,44.162,520.9482,46.074,519.7048,47.4192,518.0914,49.0843,517.5557,51.0637,517.0943,53.6021,517.3684,54.9924,518.0241,56.6089,518.3213,58.5743,520.335,59.2595,522.4608,59.5571,523.9112,59.22,526.3014" style="stroke:#181818;stroke-width:0.5;"/><path d="M51.5,532.8906 L51.6868,532.8906 L51.1317,538.2906 L51.6718,543.6906 L51.8553,549.0906 L50.8659,554.4906 L51.5,559.8906 M38.5,540.8906 L38.5,540.8215 L43.7,540.5115 L48.9,540.5497 L54.1,540.83 L59.3,540.2761 L64.5,540.8906 M51.5,559.8906 L51.8719,560.2129 L48.4766,562.5237 L46.1672,565.7755 L43.9901,569.1421 L41.0424,571.8407 L38.5,574.8906 M51.5,559.8906 L51.5458,559.9304 L54.0785,562.872 L56.8199,565.9946 L59.4606,569.0298 L62.2934,572.2316 L64.5,574.8906 " fill="none" style="stroke:#181818;stroke-width:0.5;"/><polygon fill="#E3E3E3" points="320,87.2969,320,87.5071,330.125,86.8826,340.25,87.4902,350.375,87.6966,360.5,86.5835,370.625,87.2192,380.75,86.8704,390.875,86.9134,401,87.2287,411.125,86.6055,421.25,87.8505,431.375,86.6666,441.5,87.0991,451.625,87.7288,461.75,87.2111,471.875,87.3651,482,87.2649,492.125,87.4754,502.25,87.536,512.375,87.8826,522.5,87.9679,532.625,87.9761,542.75,87.5515,552.875,87.7605,563,87.2969,563.0896,87.5131,563.2616,87.2212,563.7937,87.7987,564.0228,87.6449,564.4823,88.0471,564.7678,88.0291,564.6153,87.966,564.8931,88.3739,565.289,88.8308,565.1921,89.0836,565.386,89.4568,565.5,89.7969,565.6129,89.7969,565.6387,96.2531,565.4987,102.7094,565.5957,109.1656,565.3092,115.6219,565.5,122.0781,565.5876,122.1144,565.5224,122.5016,565.344,122.8419,565.2494,123.217,564.7654,123.4307,564.7678,123.8459,564.6846,123.645,564.3349,123.801,564.0531,124.1207,563.682,124.2247,563.4405,124.6415,563,124.5781,563,124.4034,552.875,124.2351,542.75,124.8064,532.625,123.9113,522.5,124.059,512.375,125.2271,502.25,125.0138,492.125,125.3126,482,124.2563,471.875,124.8973,461.75,125.1685,451.625,124.1057,441.5,124.4823,431.375,124.7041,421.25,125.2299,411.125,124.5739,401,125.0407,390.875,124.0243,380.75,123.9009,370.625,125.0817,360.5,123.8612,350.375,125.0871,340.25,124.7848,330.125,124.3102,320,124.5781,319.9549,124.4692,319.705,124.573,319.2547,124.193,319.0148,124.3211,318.5153,123.8221,318.2322,123.8459,318.4224,123.9247,318.2349,123.5541,318.0148,123.17,317.8074,122.7913,317.8702,122.5244,317.5,122.0781,317.7045,122.0781,317.5564,115.6219,317.5894,109.1656,317.4566,102.7094,317.7388,96.2531,317.5,89.7969,317.5477,89.8166,317.6996,89.4653,317.6055,89.0122,317.8145,88.6845,318.2492,88.4504,318.2322,88.0291,318.2871,88.1615,318.5803,87.8694,318.8982,87.637,319.265,87.5223,319.5589,87.232,320,87.2969" style="stroke:#181818;stroke-width:0.5;"/><text fill="#000000" font-family="sans-serif" font-size="20" lengthAdjust="spacing" textLength="234" x="324.5" y="112.8613">:ListAvailableCoursesUI</text><polygon fill="#E3E3E3" points="320,493.1094,320,493.3196,330.125,492.6951,340.25,493.3027,350.375,493.5091,360.5,492.396,370.625,493.0317,380.75,492.6829,390.875,492.7259,401,493.0412,411.125,492.418,421.25,493.663,431.375,492.4791,441.5,492.9116,451.625,493.5413,461.75,493.0236,471.875,493.1776,482,493.0774,492.125,493.2879,502.25,493.3485,512.375,493.6951,522.5,493.7804,532.625,493.7886,542.75,493.364,552.875,493.573,563,493.1094,563.0896,493.3256,563.2616,493.0337,563.7937,493.6112,564.0228,493.4574,564.4823,493.8596,564.7678,493.8416,564.6153,493.7785,564.8931,494.1864,565.289,494.6433,565.1921,494.8961,565.386,495.2693,565.5,495.6094,565.6129,495.6094,565.6387,502.0656,565.4987,508.5219,565.5957,514.9781,565.3092,521.4344,565.5,527.8906,565.5876,527.9269,565.5224,528.3141,565.344,528.6544,565.2494,529.0295,564.7654,529.2432,564.7678,529.6584,564.6846,529.4575,564.3349,529.6135,564.0531,529.9332,563.682,530.0372,563.4405,530.454,563,530.3906,563,530.2159,552.875,530.0476,542.75,530.6189,532.625,529.7238,522.5,529.8715,512.375,531.0396,502.25,530.8263,492.125,531.1251,482,530.0688,471.875,530.7098,461.75,530.981,451.625,529.9182,441.5,530.2948,431.375,530.5166,421.25,531.0424,411.125,530.3864,401,530.8532,390.875,529.8368,380.75,529.7134,370.625,530.8942,360.5,529.6737,350.375,530.8996,340.25,530.5973,330.125,530.1227,320,530.3906,319.9549,530.2817,319.705,530.3855,319.2547,530.0055,319.0148,530.1336,318.5153,529.6346,318.2322,529.6584,318.4224,529.7372,318.2349,529.3666,318.0148,528.9825,317.8074,528.6038,317.8702,528.3369,317.5,527.8906,317.7045,527.8906,317.5564,521.4344,317.5894,514.9781,317.4566,508.5219,317.7388,502.0656,317.5,495.6094,317.5477,495.6291,317.6996,495.2778,317.6055,494.8247,317.8145,494.497,318.2492,494.2629,318.2322,493.8416,318.2871,493.974,318.5803,493.6819,318.8982,493.4495,319.265,493.3348,319.5589,493.0445,320,493.1094" style="stroke:#181818;stroke-width:0.5;"/><text fill="#000000" font-family="sans-serif" font-size="20" lengthAdjust="spacing" textLength="234" x="324.5" y="518.6738">:ListAvailableCoursesUI</text><polygon fill="#E3E3E3" points="578,87.2969,578,87.5071,588.0313,86.8826,598.0625,87.4902,608.0938,87.6966,618.125,86.5835,628.1563,87.2192,638.1875,86.8704,648.2188,86.9134,658.25,87.2287,668.2813,86.6055,678.3125,87.8505,688.3438,86.6666,698.375,87.0991,708.4063,87.7288,718.4375,87.2111,728.4688,87.3651,738.5,87.2649,748.5313,87.4754,758.5625,87.536,768.5938,87.8826,778.625,87.9679,788.6563,87.9761,798.6875,87.5515,808.7188,87.7605,818.75,87.9991,828.7813,86.5757,838.8125,87.9754,848.8438,87.0004,858.875,87.8307,868.9063,86.8019,878.9375,87.2284,888.9688,88.0385,899,87.2969,898.9938,87.2819,899.367,87.4758,899.7503,87.6941,900.1138,87.8644,900.4137,87.8815,900.7678,88.0291,900.8562,88.0657,900.7379,88.3096,901.1482,88.7725,901.3759,89.1597,901.4905,89.5,901.5,89.7969,901.7043,89.7969,901.339,96.2531,901.2826,102.7094,901.2929,109.1656,901.4804,115.6219,901.5,122.0781,901.4395,122.0531,901.5634,122.5186,901.1533,122.7629,900.955,123.095,900.9845,123.5215,900.7678,123.8459,900.6827,123.6405,900.348,123.8325,900.1434,124.3386,899.7627,124.4194,899.4472,124.6579,899,124.5781,899,124.2563,888.9688,124.8973,878.9375,125.1685,868.9063,124.1057,858.875,124.4823,848.8438,124.7041,838.8125,125.2299,828.7813,124.5739,818.75,125.0407,808.7188,124.0243,798.6875,123.9009,788.6563,125.0817,778.625,123.8612,768.5938,125.0871,758.5625,124.7848,748.5313,124.3102,738.5,124.2244,728.4688,125.0369,718.4375,124.2788,708.4063,125.17,698.375,124.0254,688.3438,125.1956,678.3125,125.0624,668.2813,124.8231,658.25,124.6253,648.2188,125.3047,638.1875,125.1917,628.1563,124.7474,618.125,124.8463,608.0938,124.4479,598.0625,125.2946,588.0313,124.733,578,124.5781,578.022,124.6313,577.5688,124.2443,577.2412,124.1604,577.007,124.3022,576.6406,124.1247,576.2322,123.8459,576.219,123.8404,575.9866,123.4512,575.8719,123.1109,575.5816,122.6977,575.7742,122.4846,575.5,122.0781,575.7465,122.0781,575.6755,115.6219,575.7316,109.1656,575.4544,102.7094,575.5291,96.2531,575.5,89.7969,575.3806,89.7474,575.7339,89.4796,575.8689,89.1212,576.1095,88.8067,576.0151,88.3534,576.2322,88.0291,576.2151,87.9877,576.6424,88.0192,577.0117,87.9109,577.2275,87.4319,577.6217,87.3836,578,87.2969" style="stroke:#181818;stroke-width:0.5;"/><text fill="#000000" font-family="sans-serif" font-size="20" lengthAdjust="spacing" textLength="312" x="582.5" y="112.8613">:ListAvailableCoursesController</text><polygon fill="#E3E3E3" points="578,493.1094,578,493.3196,588.0313,492.6951,598.0625,493.3027,608.0938,493.5091,618.125,492.396,628.1563,493.0317,638.1875,492.6829,648.2188,492.7259,658.25,493.0412,668.2813,492.418,678.3125,493.663,688.3438,492.4791,698.375,492.9116,708.4063,493.5413,718.4375,493.0236,728.4688,493.1776,738.5,493.0774,748.5313,493.2879,758.5625,493.3485,768.5938,493.6951,778.625,493.7804,788.6563,493.7886,798.6875,493.364,808.7188,493.573,818.75,493.8116,828.7813,492.3882,838.8125,493.7879,848.8438,492.8129,858.875,493.6432,868.9063,492.6144,878.9375,493.0409,888.9688,493.851,899,493.1094,898.9938,493.0944,899.367,493.2883,899.7503,493.5066,900.1138,493.6769,900.4137,493.694,900.7678,493.8416,900.8562,493.8782,900.7379,494.1221,901.1482,494.585,901.3759,494.9722,901.4905,495.3125,901.5,495.6094,901.7043,495.6094,901.339,502.0656,901.2826,508.5219,901.2929,514.9781,901.4804,521.4344,901.5,527.8906,901.4395,527.8656,901.5634,528.3311,901.1533,528.5754,900.955,528.9075,900.9845,529.334,900.7678,529.6584,900.6827,529.453,900.348,529.645,900.1434,530.1511,899.7627,530.2319,899.4472,530.4704,899,530.3906,899,530.0688,888.9688,530.7098,878.9375,530.981,868.9063,529.9182,858.875,530.2948,848.8438,530.5166,838.8125,531.0424,828.7813,530.3864,818.75,530.8532,808.7188,529.8368,798.6875,529.7134,788.6563,530.8942,778.625,529.6737,768.5938,530.8996,758.5625,530.5973,748.5313,530.1227,738.5,530.0369,728.4688,530.8494,718.4375,530.0913,708.4063,530.9825,698.375,529.8379,688.3438,531.0081,678.3125,530.8749,668.2813,530.6356,658.25,530.4378,648.2188,531.1172,638.1875,531.0042,628.1563,530.5599,618.125,530.6588,608.0938,530.2604,598.0625,531.1071,588.0313,530.5455,578,530.3906,578.022,530.4438,577.5688,530.0568,577.2412,529.9729,577.007,530.1147,576.6406,529.9372,576.2322,529.6584,576.219,529.6529,575.9866,529.2637,575.8719,528.9234,575.5816,528.5102,575.7742,528.2971,575.5,527.8906,575.7465,527.8906,575.6755,521.4344,575.7316,514.9781,575.4544,508.5219,575.5291,502.0656,575.5,495.6094,575.3806,495.5599,575.7339,495.2921,575.8689,494.9337,576.1095,494.6192,576.0151,494.1659,576.2322,493.8416,576.2151,493.8002,576.6424,493.8317,577.0117,493.7234,577.2275,493.2444,577.6217,493.1961,578,493.1094" style="stroke:#181818;stroke-width:0.5;"/><text fill="#000000" font-family="sans-serif" font-size="20" lengthAdjust="spacing" textLength="312" x="582.5" y="518.6738">:ListAvailableCoursesController</text><polygon fill="#E3E3E3" points="914,87.2969,914,87.5071,924.1579,86.8826,934.3158,87.4902,944.4737,87.6966,954.6316,86.5835,964.7895,87.2192,974.9474,86.8704,985.1053,86.9134,995.2632,87.2287,1005.4211,86.6055,1015.5789,87.8505,1025.7368,86.6666,1035.8947,87.0991,1046.0526,87.7288,1056.2105,87.2111,1066.3684,87.3651,1076.5263,87.2649,1086.6842,87.4754,1096.8421,87.536,1107,87.2969,1107.0747,87.4772,1107.4392,87.65,1107.7938,87.799,1108.0931,87.8146,1108.4733,88.0254,1108.7678,88.0291,1108.984,88.1187,1108.6921,88.2907,1109.2696,88.8228,1109.1158,89.0519,1109.5179,89.5114,1109.5,89.7969,1109.335,89.7969,1109.4772,96.2531,1109.7472,102.7094,1109.4838,109.1656,1109.5351,115.6219,1109.5,122.0781,1109.6043,122.1213,1109.4817,122.4848,1109.2059,122.7847,1109.1491,123.1754,1108.7379,123.4193,1108.7678,123.8459,1108.804,123.9335,1108.4841,124.1612,1108.1174,124.2757,1107.7853,124.474,1107.2919,124.2829,1107,124.5781,1107,123.9259,1096.8421,123.9567,1086.6842,124.5192,1076.5263,124.3816,1066.3684,125.2595,1056.2105,124.4034,1046.0526,124.2351,1035.8947,124.8064,1025.7368,123.9113,1015.5789,124.059,1005.4211,125.2271,995.2632,125.0138,985.1053,125.3126,974.9474,124.2563,964.7895,124.8973,954.6316,125.1685,944.4737,124.1057,934.3158,124.4823,924.1579,124.7041,914,124.5781,914.0831,124.7788,913.6459,124.4304,913.3519,124.4277,912.8687,123.9682,912.4994,123.7838,912.2322,123.8459,912.3873,123.9101,911.865,123.4009,912.0961,123.2037,911.8565,122.8116,911.5639,122.3975,911.5,122.0781,911.3821,122.0781,911.6529,115.6219,911.4002,109.1656,911.6973,102.7094,911.3158,96.2531,911.5,89.7969,911.6901,89.8756,911.7956,89.5051,911.8683,89.121,911.9539,88.7422,912.3096,88.4753,912.2322,88.0291,912.3105,88.2181,912.6074,87.9348,912.9736,87.8188,913.2763,87.5497,913.7378,87.664,914,87.2969" style="stroke:#181818;stroke-width:0.5;"/><text fill="#000000" font-family="sans-serif" font-size="20" lengthAdjust="spacing" textLength="184" x="918.5" y="112.8613">:ListCourseService</text><polygon fill="#E3E3E3" points="914,493.1094,914,493.3196,924.1579,492.6951,934.3158,493.3027,944.4737,493.5091,954.6316,492.396,964.7895,493.0317,974.9474,492.6829,985.1053,492.7259,995.2632,493.0412,1005.4211,492.418,1015.5789,493.663,1025.7368,492.4791,1035.8947,492.9116,1046.0526,493.5413,1056.2105,493.0236,1066.3684,493.1776,1076.5263,493.0774,1086.6842,493.2879,1096.8421,493.3485,1107,493.1094,1107.0747,493.2897,1107.4392,493.4625,1107.7938,493.6115,1108.0931,493.6271,1108.4733,493.8379,1108.7678,493.8416,1108.984,493.9312,1108.6921,494.1032,1109.2696,494.6353,1109.1158,494.8644,1109.5179,495.3239,1109.5,495.6094,1109.335,495.6094,1109.4772,502.0656,1109.7472,508.5219,1109.4838,514.9781,1109.5351,521.4344,1109.5,527.8906,1109.6043,527.9338,1109.4817,528.2973,1109.2059,528.5972,1109.1491,528.9879,1108.7379,529.2318,1108.7678,529.6584,1108.804,529.746,1108.4841,529.9737,1108.1174,530.0882,1107.7853,530.2865,1107.2919,530.0954,1107,530.3906,1107,529.7384,1096.8421,529.7692,1086.6842,530.3317,1076.5263,530.1941,1066.3684,531.072,1056.2105,530.2159,1046.0526,530.0476,1035.8947,530.6189,1025.7368,529.7238,1015.5789,529.8715,1005.4211,531.0396,995.2632,530.8263,985.1053,531.1251,974.9474,530.0688,964.7895,530.7098,954.6316,530.981,944.4737,529.9182,934.3158,530.2948,924.1579,530.5166,914,530.3906,914.0831,530.5913,913.6459,530.2429,913.3519,530.2402,912.8687,529.7807,912.4994,529.5963,912.2322,529.6584,912.3873,529.7226,911.865,529.2134,912.0961,529.0162,911.8565,528.6241,911.5639,528.21,911.5,527.8906,911.3821,527.8906,911.6529,521.4344,911.4002,514.9781,911.6973,508.5219,911.3158,502.0656,911.5,495.6094,911.6901,495.6881,911.7956,495.3176,911.8683,494.9335,911.9539,494.5547,912.3096,494.2878,912.2322,493.8416,912.3105,494.0306,912.6074,493.7473,912.9736,493.6313,913.2763,493.3622,913.7378,493.4765,914,493.1094" style="stroke:#181818;stroke-width:0.5;"/><text fill="#000000" font-family="sans-serif" font-size="20" lengthAdjust="spacing" textLength="184" x="918.5" y="518.6738">:ListCourseService</text><text fill="#000000" font-family="sans-serif" font-size="20" lengthAdjust="spacing" textLength="182" x="1119.5" y="120.8613">:CourseRepository</text><path d="M1195.5,66.2969 L1195.5,66.2969 L1195.5651,66.3639 L1197.1716,64.4148 L1199.1599,62.8585 L1201.0238,61.1742 L1202.479,59.0695 L1204.5,57.5469 L1204.4952,57.5127 L1206.2739,57.1091 L1208.0766,56.8781 L1209.8958,56.7669 L1211.6577,56.2425 L1213.5,56.2969 L1213.5,56.2969 L1213.5339,56.5406 L1215.2615,56.2694 L1217.0879,56.7098 L1218.9264,57.237 L1220.6948,57.2591 L1222.5,57.5469 L1222.5211,57.5686 L1224.2901,59.2867 L1226.1553,61.1038 L1227.9741,62.8731 L1229.8815,64.7335 L1231.5,66.2969 L1232.0965,66.2969 L1232.1038,71.4969 L1231.7263,76.6969 L1231.9121,81.8969 L1232.1242,87.0969 L1231.5,92.2969 L1231.5,92.2969 L1231.2766,92.0671 L1229.9102,94.2631 L1227.8081,95.7024 L1226.2654,97.717 L1224.1466,99.1391 L1222.5,101.0469 L1222.4958,101.0167 L1220.7453,101.6233 L1218.897,101.5254 L1217.1064,101.8432 L1215.3207,102.1959 L1213.5,102.2969 L1213.5,102.2969 L1213.5254,102.4801 L1211.6998,102.0452 L1209.9176,101.9233 L1208.065,101.2949 L1206.3174,101.4221 L1204.5,101.0469 L1204.6698,101.2216 L1202.8377,99.4385 L1201.0899,97.7422 L1198.9503,95.6429 L1197.0979,93.839 L1195.5,92.2969 L1194.9476,92.2969 L1195.4477,87.0969 L1195.3253,81.8969 L1196.1057,76.6969 L1195.3447,71.4969 L1195.5,66.2969 " fill="#E3E3E3" style="stroke:#181818;stroke-width:1.5;"/><path d="M1195.5,66.2969 L1195.5,66.2969 L1195.5651,66.3639 L1197.1716,67.9148 L1199.1599,69.8585 L1201.0238,71.6742 L1202.479,73.0695 L1204.5,75.0469 L1204.4952,75.0127 L1206.2739,75.1091 L1208.0766,75.3781 L1209.8958,75.7669 L1211.6577,75.7425 L1213.5,76.2969 L1213.5,76.2969 L1213.5339,76.5406 L1215.2615,75.7694 L1217.0879,75.7098 L1218.9264,75.737 L1220.6948,75.2591 L1222.5,75.0469 L1222.5211,75.0686 L1224.2901,73.2867 L1226.1553,71.6038 L1227.9741,69.8731 L1229.8815,68.2335 L1231.5,66.2969 " fill="none" style="stroke:#181818;stroke-width:1.5;"/><text fill="#000000" font-family="sans-serif" font-size="20" lengthAdjust="spacing" textLength="182" x="1119.5" y="511.6738">:CourseRepository</text><path d="M1195.5,526.3906 L1195.5,526.3906 L1195.5651,526.4576 L1197.1716,524.5086 L1199.1599,522.9522 L1201.0238,521.268 L1202.479,519.1633 L1204.5,517.6406 L1204.4952,517.6064 L1206.2739,517.2029 L1208.0766,516.9718 L1209.8958,516.8606 L1211.6577,516.3363 L1213.5,516.3906 L1213.5,516.3906 L1213.5339,516.6343 L1215.2615,516.3632 L1217.0879,516.8036 L1218.9264,517.3308 L1220.6948,517.3529 L1222.5,517.6406 L1222.5211,517.6624 L1224.2901,519.3804 L1226.1553,521.1975 L1227.9741,522.9668 L1229.8815,524.8273 L1231.5,526.3906 L1232.0965,526.3906 L1232.1038,531.5906 L1231.7263,536.7906 L1231.9121,541.9906 L1232.1242,547.1906 L1231.5,552.3906 L1231.5,552.3906 L1231.2766,552.1608 L1229.9102,554.3568 L1227.8081,555.7961 L1226.2654,557.8107 L1224.1466,559.2329 L1222.5,561.1406 L1222.4958,561.1105 L1220.7453,561.7171 L1218.897,561.6192 L1217.1064,561.937 L1215.3207,562.2897 L1213.5,562.3906 L1213.5,562.3906 L1213.5254,562.5739 L1211.6998,562.1389 L1209.9176,562.0171 L1208.065,561.3886 L1206.3174,561.5158 L1204.5,561.1406 L1204.6698,561.3153 L1202.8377,559.5323 L1201.0899,557.836 L1198.9503,555.7367 L1197.0979,553.9328 L1195.5,552.3906 L1194.9476,552.3906 L1195.4477,547.1906 L1195.3253,541.9906 L1196.1057,536.7906 L1195.3447,531.5906 L1195.5,526.3906 " fill="#E3E3E3" style="stroke:#181818;stroke-width:1.5;"/><path d="M1195.5,526.3906 L1195.5,526.3906 L1195.5651,526.4576 L1197.1716,528.0086 L1199.1599,529.9522 L1201.0238,531.768 L1202.479,533.1633 L1204.5,535.1406 L1204.4952,535.1064 L1206.2739,535.2029 L1208.0766,535.4718 L1209.8958,535.8606 L1211.6577,535.8363 L1213.5,536.3906 L1213.5,536.3906 L1213.5339,536.6343 L1215.2615,535.8632 L1217.0879,535.8036 L1218.9264,535.8308 L1220.6948,535.3529 L1222.5,535.1406 L1222.5211,535.1624 L1224.2901,533.3804 L1226.1553,531.6975 L1227.9741,529.9668 L1229.8815,528.3273 L1231.5,526.3906 " fill="none" style="stroke:#181818;stroke-width:1.5;"/><polygon fill="#FFFFFF" points="46.5,135.5781,46.5,135.6482,48.5,135.44,50.5,135.6426,52.5,135.7114,54.5,135.3403,56.5,135.5781,56.4223,135.5781,56.0735,145.5938,56.1165,155.6094,56.4318,165.625,55.8086,175.6406,57.0536,185.6563,55.8697,195.6719,56.3022,205.6875,56.9319,215.7031,56.4142,225.7188,56.5682,235.7344,56.4681,245.75,56.6785,255.7656,56.7391,265.7813,57.0857,275.7969,57.1711,285.8125,57.1793,295.8281,56.7546,305.8438,56.9636,315.8594,57.2022,325.875,55.7788,335.8906,57.1785,345.9063,56.2035,355.9219,57.0338,365.9375,56.005,375.9531,56.4315,385.9688,57.2416,395.9844,56.4513,406,56.6053,416.0156,56.8386,426.0313,56.9162,436.0469,56.4961,446.0625,56.7872,456.0781,55.9276,466.0938,56.5,476.1094,56.5,476.2042,54.5,476.2921,52.5,476.2576,50.5,476.3137,48.5,475.9483,46.5,476.1094,45.8478,476.1094,45.8786,466.0938,46.4411,456.0781,46.3035,446.0625,47.1814,436.0469,46.3253,426.0313,46.1569,416.0156,46.7283,406,45.8332,395.9844,45.9809,385.9688,47.149,375.9531,46.9357,365.9375,47.2345,355.9219,46.1782,345.9063,46.8192,335.8906,47.0904,325.875,46.0276,315.8594,46.4041,305.8438,46.626,295.8281,47.1518,285.8125,46.4958,275.7969,46.9626,265.7813,45.9462,255.7656,45.8227,245.75,47.0036,235.7344,45.7831,225.7188,47.009,215.7031,46.7066,205.6875,46.2321,195.6719,46.1462,185.6563,46.9588,175.6406,46.2007,165.625,47.0919,155.6094,45.9473,145.5938,46.5,135.5781" style="stroke:#181818;stroke-width:1.0;"/><polygon fill="#FFFFFF" points="436.5,164.8594,436.5,164.9294,438.5,164.7213,440.5,164.9238,442.5,164.9926,444.5,164.6216,446.5,164.8594,446.4223,164.8594,446.0735,174.8997,446.1165,184.94,446.4318,194.9803,445.8086,205.0207,447.0536,215.061,445.8697,225.1013,446.3022,235.1416,446.9319,245.182,446.4142,255.2223,446.5682,265.2626,446.4681,275.3029,446.6785,285.3432,446.7391,295.3836,447.0857,305.4239,447.1711,315.4642,447.1793,325.5045,446.7546,335.5449,446.9636,345.5852,447.2022,355.6255,445.7788,365.6658,447.1785,375.7061,446.2035,385.7465,447.0338,395.7868,446.005,405.8271,446.4315,415.8674,447.2416,425.9078,446.4513,435.9481,446.6053,445.9884,446.8386,456.0287,446.9162,466.0691,446.5,476.1094,446.5,476.1081,444.5,476.2051,442.5,475.9186,440.5,476.2042,438.5,476.2921,436.5,476.1094,436.9445,476.1094,437.113,466.0691,436.0169,456.0287,435.8478,445.9884,435.8786,435.9481,436.4411,425.9078,436.3035,415.8674,437.1814,405.8271,436.3253,395.7868,436.1569,385.7465,436.7283,375.7061,435.8332,365.6658,435.9809,355.6255,437.149,345.5852,436.9357,335.5449,437.2345,325.5045,436.1782,315.4642,436.8192,305.4239,437.0904,295.3836,436.0276,285.3432,436.4041,275.3029,436.626,265.2626,437.1518,255.2223,436.4958,245.182,436.9626,235.1416,435.9462,225.1013,435.8227,215.061,437.0036,205.0207,435.7831,194.9803,437.009,184.94,436.7066,174.8997,436.5,164.8594" style="stroke:#181818;stroke-width:1.0;"/><polygon fill="#FFFFFF" points="733.5,202.1406,733.5,202.2107,735.5,202.0025,737.5,202.2051,739.5,202.2739,741.5,201.9028,743.5,202.1406,743.4223,202.1406,743.0735,211.9515,743.1165,221.7623,743.4318,231.5732,742.8086,241.384,744.0536,251.1949,742.8697,261.0058,743.3022,270.8166,743.9319,280.6275,743.4142,290.4383,743.5682,300.2492,743.4681,310.06,743.6785,319.8709,743.7391,329.6817,744.0857,339.4926,744.1711,349.3035,744.1793,359.1143,743.7546,368.9252,743.9636,378.736,743.5,388.5469,743.5,388.781,741.5,388.3065,739.5,388.773,737.5,388.448,735.5,388.7248,733.5,388.5469,733.005,388.5469,733.4315,378.736,734.2416,368.9252,733.4513,359.1143,733.6053,349.3035,733.8386,339.4926,733.9162,329.6817,733.4961,319.8709,733.7872,310.06,732.9276,300.2492,733.7844,290.4383,734.0482,280.6275,733.9445,270.8166,734.113,261.0058,733.0169,251.1949,732.8478,241.384,732.8786,231.5732,733.4411,221.7623,733.3035,211.9515,733.5,202.1406" style="stroke:#181818;stroke-width:1.0;"/><polygon fill="#FFFFFF" points="1005.5,239.4219,1005.5,239.4919,1007.5,239.2838,1009.5,239.4863,1011.5,239.5551,1013.5,239.1841,1015.5,239.4219,1015.4223,239.4219,1015.0735,249.5895,1015.1165,259.7571,1015.4318,269.9247,1014.8086,280.0923,1016.0536,290.2599,1014.8697,300.4276,1015.3022,310.5952,1015.9319,320.7628,1015.4142,330.9304,1015.5682,341.098,1015.5,351.2656,1015.5,351.255,1013.5,351.3251,1011.5,351.3453,1009.5,351.4609,1007.5,351.4893,1005.5,351.2656,1006.1793,351.2656,1005.7546,341.098,1005.9636,330.9304,1006.2022,320.7628,1004.7788,310.5952,1006.1785,300.4276,1005.2035,290.2599,1006.0338,280.0923,1005.005,269.9247,1005.4315,259.7571,1006.2416,249.5895,1005.5,239.4219" style="stroke:#181818;stroke-width:1.0;"/><polygon fill="#FFFFFF" points="1208.5,276.7031,1208.5,276.7732,1210.5,276.565,1212.5,276.7676,1214.5,276.8364,1216.5,276.4653,1218.5,276.7031,1218.4741,276.7031,1218.3578,284.1594,1218.3722,291.6156,1218.4773,299.0719,1218.2695,306.5281,1218.5,313.9844,1218.5,314.1689,1216.5,313.7743,1214.5,313.9185,1212.5,314.1284,1210.5,313.9558,1208.5,313.9844,1208.5227,313.9844,1208.4894,306.5281,1208.5595,299.0719,1208.5797,291.6156,1208.6952,284.1594,1208.5,276.7031" style="stroke:#181818;stroke-width:1.0;"/><polygon fill="#181818" points="424.5,160.8594,424.526,160.9244,426.4487,161.5311,428.5239,162.5192,430.5495,163.3831,432.4117,163.8386,434.5,164.8594,434.4904,164.8353,432.4472,165.5274,430.4525,166.3407,428.4916,167.2383,426.4144,167.8454,424.5,168.8594,424.6305,168.9899,425.1514,167.9108,426.0534,167.2128,427.0018,166.5612,427.6798,165.6392,428.5,164.8594,428.5161,164.8755,427.6925,164.0518,426.9421,163.3015,426.1564,162.5157,425.438,161.7974,424.5,160.8594" style="stroke:#181818;stroke-width:1.0;"/><path d="M56.5,164.8594 L56.5,165.1396 L66.6081,164.3069 L76.7162,165.1171 L86.8243,165.3923 L96.9324,163.9082 L107.0405,164.7558 L117.1486,164.2907 L127.2568,164.348 L137.3649,164.7685 L147.473,163.9375 L157.5811,165.5976 L167.6892,164.019 L177.7973,164.5957 L187.9054,165.4353 L198.0135,164.745 L208.1216,164.9504 L218.2297,164.8168 L228.3378,165.0974 L238.4459,165.1782 L248.5541,165.6403 L258.6622,165.7541 L268.7703,165.7651 L278.8784,165.1989 L288.9865,165.4775 L299.0946,165.7957 L309.2027,163.8978 L319.3108,165.7641 L329.4189,164.464 L339.527,165.5711 L349.6351,164.1993 L359.7432,164.768 L369.8514,165.8482 L379.9595,164.7944 L390.0676,164.9998 L400.1757,165.3109 L410.2838,165.4144 L420.3919,164.8542 L430.5,164.8594 " fill="none" style="stroke:#181818;stroke-width:1.0;"/><text fill="#000000" font-family="sans-serif" font-size="20" font-weight="bold" lengthAdjust="spacing" textLength="14" x="63.5" y="158.1426">1</text><text fill="#000000" font-family="sans-serif" font-size="20" lengthAdjust="spacing" textLength="343" x="81.5" y="158.1426">select list available courses option</text><polygon fill="#181818" points="721.5,198.1406,721.526,198.2057,723.4487,198.8124,725.5239,199.8004,727.5495,200.6643,729.4117,201.1198,731.5,202.1406,731.4904,202.1166,729.4472,202.8086,727.4525,203.6219,725.4916,204.5195,723.4144,205.1267,721.5,206.1406,721.6305,206.2711,722.1514,205.1921,723.0534,204.494,724.0018,203.8424,724.6798,202.9204,725.5,202.1406,725.5161,202.1567,724.6925,201.3331,723.9421,200.5827,723.1564,199.797,722.438,199.0787,721.5,198.1406" style="stroke:#181818;stroke-width:1.0;"/><path d="M446.5,202.1406 L446.5,202.4209 L456.5357,201.5882 L466.5714,202.3983 L476.6071,202.6735 L486.6429,201.1894 L496.6786,202.037 L506.7143,201.572 L516.75,201.6293 L526.7857,202.0497 L536.8214,201.2188 L546.8571,202.8788 L556.8929,201.3003 L566.9286,201.8769 L576.9643,202.7166 L587,202.0263 L597.0357,202.2316 L607.0714,202.098 L617.1071,202.3787 L627.1429,202.4595 L637.1786,202.9215 L647.2143,203.0354 L657.25,203.0463 L667.2857,202.4801 L677.3214,202.7587 L687.3571,203.0769 L697.3929,201.179 L707.4286,203.0453 L717.4643,201.7453 L727.5,202.1406 " fill="none" style="stroke:#181818;stroke-width:1.0;"/><text fill="#000000" font-family="sans-serif" font-size="20" font-weight="bold" lengthAdjust="spacing" textLength="14" x="453.5" y="195.4238">2</text><text fill="#000000" font-family="sans-serif" font-size="20" lengthAdjust="spacing" textLength="160" x="471.5" y="195.4238">findAllCourses()</text><polygon fill="#181818" points="993.5,235.4219,993.526,235.4869,995.4487,236.0936,997.5239,237.0817,999.5495,237.9456,1001.4117,238.4011,1003.5,239.4219,1003.4904,239.3978,1001.4472,240.0899,999.4525,240.9032,997.4916,241.8008,995.4144,242.4079,993.5,243.4219,993.6305,243.5524,994.1514,242.4733,995.0534,241.7753,996.0018,241.1237,996.6798,240.2017,997.5,239.4219,997.5161,239.438,996.6925,238.6143,995.9421,237.864,995.1564,237.0782,994.438,236.3599,993.5,235.4219" style="stroke:#181818;stroke-width:1.0;"/><path d="M743.5,239.4219 L743.5,239.7021 L753.3462,238.8694 L763.1923,239.6796 L773.0385,239.9548 L782.8846,238.4707 L792.7308,239.3183 L802.5769,238.8532 L812.4231,238.9105 L822.2692,239.331 L832.1154,238.5 L841.9615,240.1601 L851.8077,238.5815 L861.6538,239.1582 L871.5,239.9978 L881.3462,239.3075 L891.1923,239.5129 L901.0385,239.3793 L910.8846,239.6599 L920.7308,239.7407 L930.5769,240.2028 L940.4231,240.3166 L950.2692,240.3276 L960.1154,239.7614 L969.9615,240.04 L979.8077,240.3582 L989.6538,238.4603 L999.5,239.4219 " fill="none" style="stroke:#181818;stroke-width:1.0;"/><text fill="#000000" font-family="sans-serif" font-size="20" font-weight="bold" lengthAdjust="spacing" textLength="14" x="750.5" y="232.7051">3</text><text fill="#000000" font-family="sans-serif" font-size="20" lengthAdjust="spacing" textLength="81" x="768.5" y="232.7051">findAll()</text><polygon fill="#181818" points="1196.5,272.7031,1196.526,272.7682,1198.4487,273.3749,1200.5239,274.3629,1202.5495,275.2268,1204.4117,275.6823,1206.5,276.7031,1206.4904,276.6791,1204.4472,277.3711,1202.4525,278.1844,1200.4916,279.082,1198.4144,279.6892,1196.5,280.7031,1196.6305,280.8336,1197.1514,279.7546,1198.0534,279.0565,1199.0018,278.4049,1199.6798,277.4829,1200.5,276.7031,1200.5161,276.7192,1199.6925,275.8956,1198.9421,275.1452,1198.1564,274.3595,1197.438,273.6412,1196.5,272.7031" style="stroke:#181818;stroke-width:1.0;"/><path d="M1015.5,276.7031 L1015.5,276.9834 L1025.3421,276.1507 L1035.1842,276.9608 L1045.0263,277.236 L1054.8684,275.7519 L1064.7105,276.5995 L1074.5526,276.1345 L1084.3947,276.1918 L1094.2368,276.6122 L1104.0789,275.7813 L1113.9211,277.4413 L1123.7632,275.8628 L1133.6053,276.4394 L1143.4474,277.2791 L1153.2895,276.5888 L1163.1316,276.7941 L1172.9737,276.6605 L1182.8158,276.9412 L1192.6579,277.022 L1202.5,276.7031 " fill="none" style="stroke:#181818;stroke-width:1.0;"/><text fill="#000000" font-family="sans-serif" font-size="20" font-weight="bold" lengthAdjust="spacing" textLength="14" x="1022.5" y="269.9863">4</text><text fill="#000000" font-family="sans-serif" font-size="20" lengthAdjust="spacing" textLength="81" x="1040.5" y="269.9863">findAll()</text><polygon fill="#181818" points="1026.5,309.9844,1026.526,310.0494,1024.4487,310.6561,1022.5239,311.6442,1020.5495,312.5081,1018.4117,312.9636,1016.5,313.9844,1016.4904,313.9603,1018.4472,314.6524,1020.4525,315.4657,1022.4916,316.3633,1024.4144,316.9704,1026.5,317.9844,1026.6305,318.1149,1025.5514,317.0358,1024.8534,316.3378,1024.2018,315.6862,1023.2798,314.7642,1022.5,313.9844,1022.5161,314.0005,1023.2925,313.1768,1024.1421,312.4265,1024.9564,311.6407,1025.838,310.9224,1026.5,309.9844" style="stroke:#181818;stroke-width:1.0;"/><path d="M1020.5,313.9844 L1020.5,314.2646 L1030.6053,313.4319 L1040.7105,314.2421 L1050.8158,314.5173 L1060.9211,313.0332 L1071.0263,313.8808 L1081.1316,313.4157 L1091.2368,313.473 L1101.3421,313.8935 L1111.4474,313.0625 L1121.5526,314.7226 L1131.6579,313.144 L1141.7632,313.7207 L1151.8684,314.5603 L1161.9737,313.87 L1172.0789,314.0754 L1182.1842,313.9418 L1192.2895,314.2224 L1202.3947,314.3032 L1212.5,313.9844 " fill="none" style="stroke:#181818;stroke-width:1.0;stroke-dasharray:2.0,2.0;"/><text fill="#000000" font-family="sans-serif" font-size="20" font-weight="bold" lengthAdjust="spacing" textLength="14" x="1032.5" y="307.2676">5</text><text fill="#000000" font-family="sans-serif" font-size="20" lengthAdjust="spacing" textLength="106" x="1050.5" y="307.2676">all courses</text><polygon fill="#181818" points="754.5,347.2656,754.526,347.3307,752.4487,347.9374,750.5239,348.9254,748.5495,349.7893,746.4117,350.2448,744.5,351.2656,744.4904,351.2416,746.4472,351.9336,748.4525,352.7469,750.4916,353.6445,752.4144,354.2517,754.5,355.2656,754.6305,355.3961,753.5514,354.3171,752.8534,353.619,752.2018,352.9674,751.2798,352.0454,750.5,351.2656,750.5161,351.2817,751.2925,350.4581,752.1421,349.7077,752.9564,348.922,753.838,348.2037,754.5,347.2656" style="stroke:#181818;stroke-width:1.0;"/><path d="M748.5,351.2656 L748.5,351.5459 L758.5385,350.7132 L768.5769,351.5233 L778.6154,351.7985 L788.6538,350.3144 L798.6923,351.162 L808.7308,350.697 L818.7692,350.7543 L828.8077,351.1747 L838.8462,350.3438 L848.8846,352.0038 L858.9231,350.4253 L868.9615,351.0019 L879,351.8416 L889.0385,351.1513 L899.0769,351.3566 L909.1154,351.223 L919.1538,351.5037 L929.1923,351.5845 L939.2308,352.0465 L949.2692,352.1604 L959.3077,352.1713 L969.3462,351.6051 L979.3846,351.8837 L989.4231,352.2019 L999.4615,350.304 L1009.5,351.2656 " fill="none" style="stroke:#181818;stroke-width:1.0;stroke-dasharray:2.0,2.0;"/><text fill="#000000" font-family="sans-serif" font-size="20" font-weight="bold" lengthAdjust="spacing" textLength="14" x="760.5" y="344.5488">6</text><text fill="#000000" font-family="sans-serif" font-size="20" lengthAdjust="spacing" textLength="106" x="778.5" y="344.5488">all courses</text><polygon fill="#181818" points="457.5,384.5469,457.526,384.6119,455.4487,385.2186,453.5239,386.2067,451.5495,387.0706,449.4117,387.5261,447.5,388.5469,447.4904,388.5228,449.4472,389.2149,451.4525,390.0282,453.4916,390.9258,455.4144,391.5329,457.5,392.5469,457.6305,392.6774,456.5514,391.5983,455.8534,390.9003,455.2018,390.2487,454.2798,389.3267,453.5,388.5469,453.5161,388.563,454.2925,387.7393,455.1421,386.989,455.9564,386.2032,456.838,385.4849,457.5,384.5469" style="stroke:#181818;stroke-width:1.0;"/><path d="M451.5,388.5469 L451.5,388.8271 L461.3621,387.9944 L471.2241,388.8046 L481.0862,389.0798 L490.9483,387.5957 L500.8103,388.4433 L510.6724,387.9782 L520.5345,388.0355 L530.3966,388.456 L540.2586,387.625 L550.1207,389.2851 L559.9828,387.7065 L569.8448,388.2832 L579.7069,389.1228 L589.569,388.4325 L599.431,388.6379 L609.2931,388.5043 L619.1552,388.7849 L629.0172,388.8657 L638.8793,389.3278 L648.7414,389.4416 L658.6034,389.4526 L668.4655,388.8864 L678.3276,389.165 L688.1897,389.4832 L698.0517,387.5853 L707.9138,389.4516 L717.7759,388.1515 L727.6379,389.2586 L737.5,388.5469 " fill="none" style="stroke:#181818;stroke-width:1.0;stroke-dasharray:2.0,2.0;"/><text fill="#000000" font-family="sans-serif" font-size="20" font-weight="bold" lengthAdjust="spacing" textLength="14" x="463.5" y="381.8301">7</text><text fill="#000000" font-family="sans-serif" font-size="20" lengthAdjust="spacing" textLength="106" x="481.5" y="381.8301">all courses</text><path d="M446.5,425.8281 L446.5,425.9215 L454.9,425.644 L463.3,425.914 L471.7,426.0058 L480.1,425.5111 L488.5,425.8281 " fill="none" style="stroke:#181818;stroke-width:1.0;stroke-dasharray:2.0,2.0;"/><path d="M488.5,425.8281 L488.5934,425.8281 L488.3159,428.4281 L488.5859,431.0281 L488.6776,433.6281 L488.1829,436.2281 L488.5,438.8281 " fill="none" style="stroke:#181818;stroke-width:1.0;stroke-dasharray:2.0,2.0;"/><path d="M447.5,438.8281 L447.5,438.9215 L455.7,438.644 L463.9,438.914 L472.1,439.0058 L480.3,438.5111 L488.5,438.8281 " fill="none" style="stroke:#181818;stroke-width:1.0;stroke-dasharray:2.0,2.0;"/><polygon fill="#181818" points="457.5,434.8281,457.526,434.8932,455.4487,435.4999,453.5239,436.4879,451.5495,437.3518,449.4117,437.8073,447.5,438.8281,447.4904,438.8041,449.4472,439.4961,451.4525,440.3094,453.4916,441.207,455.4144,441.8142,457.5,442.8281,457.6305,442.9586,456.5514,441.8796,455.8534,441.1815,455.2018,440.5299,454.2798,439.6079,453.5,438.8281,453.5161,438.8442,454.2925,438.0206,455.1421,437.2702,455.9564,436.4845,456.838,435.7662,457.5,434.8281" style="stroke:#181818;stroke-width:1.0;"/><text fill="#000000" font-family="sans-serif" font-size="20" font-weight="bold" lengthAdjust="spacing" textLength="14" x="453.5" y="419.1113">8</text><text fill="#000000" font-family="sans-serif" font-size="20" lengthAdjust="spacing" textLength="179" x="471.5" y="419.1113">output all courses</text><polygon fill="#181818" points="62.5,472.1094,62.526,472.1744,60.4487,472.7811,58.5239,473.7692,56.5495,474.6331,54.4117,475.0886,52.5,476.1094,52.4904,476.0853,54.4472,476.7774,56.4525,477.5907,58.4916,478.4883,60.4144,479.0954,62.5,480.1094,62.6305,480.2399,61.5514,479.1608,60.8534,478.4628,60.2018,477.8112,59.2798,476.8892,58.5,476.1094,58.5161,476.1255,59.2925,475.3018,60.1421,474.5515,60.9564,473.7657,61.838,473.0474,62.5,472.1094" style="stroke:#181818;stroke-width:1.0;"/><path d="M56.5,476.1094 L56.5,476.3896 L66.6053,475.5569 L76.7105,476.3671 L86.8158,476.6423 L96.9211,475.1582 L107.0263,476.0058 L117.1316,475.5407 L127.2368,475.598 L137.3421,476.0185 L147.4474,475.1875 L157.5526,476.8476 L167.6579,475.269 L177.7632,475.8457 L187.8684,476.6853 L197.9737,475.995 L208.0789,476.2004 L218.1842,476.0668 L228.2895,476.3474 L238.3947,476.4282 L248.5,476.8903 L258.6053,477.0041 L268.7105,477.0151 L278.8158,476.4489 L288.9211,476.7275 L299.0263,477.0457 L309.1316,475.1478 L319.2368,477.0141 L329.3421,475.714 L339.4474,476.8211 L349.5526,475.4493 L359.6579,476.018 L369.7632,477.0982 L379.8684,476.0444 L389.9737,476.2498 L400.0789,476.5609 L410.1842,476.6644 L420.2895,476.1042 L430.3947,476.4923 L440.5,476.1094 " fill="none" style="stroke:#181818;stroke-width:1.0;stroke-dasharray:2.0,2.0;"/><text fill="#000000" font-family="sans-serif" font-size="20" font-weight="bold" lengthAdjust="spacing" textLength="14" x="68.5" y="469.3926">9</text><text fill="#000000" font-family="sans-serif" font-size="20" lengthAdjust="spacing" textLength="138" x="86.5" y="469.3926">back to menu</text><!--SRC=[ZLD1QiCm4Bpx5KjExI5GUlIX458AXVRIq0UivKqZ8aj6MZcqhwzaAueS7CYUBEtCQ6SakwFKFLhib157Qg6bFNh5RqRpJluHF3zLxWo10-hsP2KpQM3hgMXrHXjniAQZgOEUZVPTGxPYoOfWzmfhs3X0w53Z3rbuXnDg1ZQWf6D0fO0F13YWLDW4YZ3UEd8L2ZOMFYTQ5SvZAMGVkQlw8r0tPyPs8do_hm0TU7a7TXkCMgCKsP4ZsAe5rWJUaHsae17e1Z5jLYqoDkWeGAUTB-gDas7atn5fmp91enCv85Cs0w7IDwnVmiWrE58aE6LodGMOdgNH8o-B1QEGoiie4rtKi9UwtIYLZ3uyPb0cZcwXgBWH1RAxh5BGPnAN7E2gSYSANaAufJXJBJA3XRgqOJsVDZwYyxEvPhLqZtunTaxobcgXk9p3b6Uws2MLGc5s6V4U4yruxZqliXCgFQ0Q6XJ7-3zrfFtI4U6X5Aj4-mS0]--></g></svg>