<?xml version="1.0" encoding="UTF-8" standalone="no"?><svg xmlns="http://www.w3.org/2000/svg" xmlns:xlink="http://www.w3.org/1999/xlink" contentStyleType="text/css" height="307px" preserveAspectRatio="none" style="width:602px;height:307px;background:#FFFFFF;" version="1.1" viewBox="0 0 602 307" width="602px" zoomAndPan="magnify"><defs/><g><text fill="#000000" font-family="sans-serif" font-size="14" font-weight="bold" lengthAdjust="spacing" textLength="511" x="44.75" y="27.9951">As a User I want to list all the courses that are a available for me</text><polygon fill="#FFFFFF" points="25.5,135.5781,25.5,135.6482,27.5,135.44,29.5,135.6426,31.5,135.7114,33.5,135.3403,35.5,135.5781,35.4223,135.5781,35.0735,145.0871,35.1165,154.596,35.4318,164.1049,34.8086,173.6138,36.0536,183.1228,34.8697,192.6317,35.5,202.1406,35.5,202.0747,33.5,202.2846,31.5,202.112,29.5,202.1634,27.5,202.13,25.5,202.1406,25.6785,202.1406,25.7391,192.6317,26.0857,183.1228,26.1711,173.6138,26.1793,164.1049,25.7546,154.596,25.9636,145.0871,25.5,135.5781" style="stroke:#181818;stroke-width:1.0;"/><polygon fill="#FFFFFF" points="547.5,164.8594,547.5,164.9294,549.5,164.7213,551.5,164.9238,553.5,164.9926,555.5,164.6216,557.5,164.8594,557.4741,164.8594,557.3578,172.3156,557.3722,179.7719,557.4773,187.2281,557.2695,194.6844,557.5,202.1406,557.5,202.3252,555.5,201.9305,553.5,202.0747,551.5,202.2846,549.5,202.112,547.5,202.1406,547.5227,202.1406,547.4894,194.6844,547.5595,187.2281,547.5797,179.7719,547.6952,172.3156,547.5,164.8594" style="stroke:#181818;stroke-width:1.0;"/><path d="M30,125.5781 L30.2802,125.5781 L29.4476,136.0851 L30.2577,146.592 L30.5329,157.099 L29.0488,167.6059 L29.8964,178.1128 L29.4313,188.6198 L29.4887,199.1267 L29.9091,209.6337 L30,220.1406 " fill="none" style="stroke:#181818;stroke-width:0.5;stroke-dasharray:5.0,5.0;"/><path d="M552.5,125.5781 L552.7802,125.5781 L551.9476,136.0851 L552.7577,146.592 L553.0329,157.099 L551.5488,167.6059 L552.3964,178.1128 L551.9313,188.6198 L551.9887,199.1267 L552.4091,209.6337 L552.5,220.1406 " fill="none" style="stroke:#181818;stroke-width:0.5;stroke-dasharray:5.0,5.0;"/><text fill="#000000" font-family="sans-serif" font-size="20" lengthAdjust="spacing" textLength="45" x="5" y="120.8613">User</text><polygon fill="#E3E3E3" points="38.5442,52.7428,37.3715,54.3451,35.9845,56.6919,34.0008,58.2735,31.9163,59.1384,30.2542,59.2135,28.118,58.1318,26.1023,57.4252,24.5724,55.9905,23.7699,54.348,23.2939,53.0402,22.8277,51.3319,22.0709,49.8619,22.6525,48.4267,23.162,46.8545,25.074,45.611,26.4192,43.9977,28.0843,43.4619,30.0637,43.0005,32.6021,43.2747,33.9924,43.9304,35.6089,44.2276,37.5743,46.2412,38.2595,48.367,38.5571,49.8175,38.22,52.2077" style="stroke:#181818;stroke-width:0.5;"/><path d="M30.5,58.7969 L30.6868,58.7969 L30.1317,64.1969 L30.6718,69.5969 L30.8553,74.9969 L29.8659,80.3969 L30.5,85.7969 M17.5,66.7969 L17.5,66.7278 L22.7,66.4178 L27.9,66.456 L33.1,66.7363 L38.3,66.1823 L43.5,66.7969 M30.5,85.7969 L30.8719,86.1192 L27.4766,88.43 L25.1672,91.6817 L22.9901,95.0483 L20.0424,97.7469 L17.5,100.7969 M30.5,85.7969 L30.5458,85.8366 L33.0785,88.7783 L35.8199,91.9008 L38.4606,94.9361 L41.2934,98.1378 L43.5,100.7969 " fill="none" style="stroke:#181818;stroke-width:0.5;"/><text fill="#000000" font-family="sans-serif" font-size="20" lengthAdjust="spacing" textLength="45" x="5" y="237.7051">User</text><polygon fill="#E3E3E3" points="38.5442,252.8678,37.3715,254.4701,35.9845,256.8169,34.0008,258.3985,31.9163,259.2634,30.2542,259.3385,28.118,258.2568,26.1023,257.5502,24.5724,256.1155,23.7699,254.473,23.2939,253.1652,22.8277,251.4569,22.0709,249.9869,22.6525,248.5517,23.162,246.9795,25.074,245.736,26.4192,244.1227,28.0843,243.5869,30.0637,243.1255,32.6021,243.3997,33.9924,244.0554,35.6089,244.3526,37.5743,246.3662,38.2595,248.492,38.5571,249.9425,38.22,252.3327" style="stroke:#181818;stroke-width:0.5;"/><path d="M30.5,258.9219 L30.6868,258.9219 L30.1317,264.3219 L30.6718,269.7219 L30.8553,275.1219 L29.8659,280.5219 L30.5,285.9219 M17.5,266.9219 L17.5,266.8528 L22.7,266.5428 L27.9,266.581 L33.1,266.8613 L38.3,266.3073 L43.5,266.9219 M30.5,285.9219 L30.8719,286.2442 L27.4766,288.555 L25.1672,291.8067 L22.9901,295.1733 L20.0424,297.8719 L17.5,300.9219 M30.5,285.9219 L30.5458,285.9616 L33.0785,288.9033 L35.8199,292.0258 L38.4606,295.0611 L41.2934,298.2628 L43.5,300.9219 " fill="none" style="stroke:#181818;stroke-width:0.5;"/><polygon fill="#E3E3E3" points="511,87.2969,511,87.5071,521.375,86.8826,531.75,87.4902,542.125,87.6966,552.5,86.5835,562.875,87.2192,573.25,86.8704,583.625,86.9134,594,87.2969,593.9913,87.2759,594.2654,87.2304,594.7777,87.7603,594.9803,87.5421,595.389,87.8218,595.7678,88.0291,595.9008,88.0842,595.8878,88.3717,596.0817,88.7449,596.1973,89.0857,596.4085,89.4661,596.5,89.7969,596.5797,89.7969,596.6952,96.2531,596.7237,102.7094,596.7264,109.1656,596.5849,115.6219,596.5,122.0781,596.6428,122.1373,596.5698,122.5213,595.985,122.6932,596.2696,123.2253,595.8229,123.4545,595.7678,123.8459,595.8359,124.0103,595.3511,123.8399,595.0519,124.1177,594.8017,124.5136,594.3473,124.4167,594,124.5781,594,124.6834,583.625,124.9168,573.25,124.9944,562.875,124.5742,552.5,124.8653,542.125,124.0057,531.75,124.8625,521.375,125.1263,511,124.5781,511.0567,124.715,510.7246,124.6205,510.2313,124.1365,509.8561,123.9379,509.5065,123.801,509.2322,123.8459,509.2141,123.8384,509.0253,123.4673,509.1492,123.2257,508.7391,122.7629,508.5408,122.3879,508.5,122.0781,508.5761,122.0781,508.2777,115.6219,508.327,109.1656,508.7163,102.7094,508.6452,96.2531,508.5,89.7969,508.7262,89.8906,508.5473,89.4023,508.8912,89.1305,509.1212,88.8115,508.9403,88.3224,509.2322,88.0291,509.22,87.9996,509.6019,87.9215,510.0225,87.9369,510.2924,87.5885,510.7055,87.5858,511,87.2969" style="stroke:#181818;stroke-width:0.5;"/><text fill="#000000" font-family="sans-serif" font-size="20" lengthAdjust="spacing" textLength="74" x="515.5" y="112.8613">System</text><polygon fill="#E3E3E3" points="511,219.1406,511,219.3508,521.375,218.7263,531.75,219.3339,542.125,219.5403,552.5,218.4272,562.875,219.0629,573.25,218.7141,583.625,218.7571,594,219.1406,593.9913,219.1196,594.2654,219.0742,594.7777,219.604,594.9803,219.3859,595.389,219.6655,595.7678,219.8729,595.9008,219.928,595.8878,220.2155,596.0817,220.5887,596.1973,220.9294,596.4085,221.3098,596.5,221.6406,596.5797,221.6406,596.6952,228.0969,596.7237,234.5531,596.7264,241.0094,596.5849,247.4656,596.5,253.9219,596.6428,253.981,596.5698,254.365,595.985,254.537,596.2696,255.0691,595.8229,255.2983,595.7678,255.6896,595.8359,255.854,595.3511,255.6836,595.0519,255.9614,594.8017,256.3574,594.3473,256.2604,594,256.4219,594,256.5272,583.625,256.7605,573.25,256.8381,562.875,256.418,552.5,256.7091,542.125,255.8495,531.75,256.7063,521.375,256.9701,511,256.4219,511.0567,256.5588,510.7246,256.4642,510.2313,255.9802,509.8561,255.7817,509.5065,255.6447,509.2322,255.6896,509.2141,255.6821,509.0253,255.311,509.1492,255.0695,508.7391,254.6067,508.5408,254.2317,508.5,253.9219,508.5761,253.9219,508.2777,247.4656,508.327,241.0094,508.7163,234.5531,508.6452,228.0969,508.5,221.6406,508.7262,221.7343,508.5473,221.246,508.8912,220.9742,509.1212,220.6553,508.9403,220.1662,509.2322,219.8729,509.22,219.8433,509.6019,219.7652,510.0225,219.7807,510.2924,219.4322,510.7055,219.4295,511,219.1406" style="stroke:#181818;stroke-width:0.5;"/><text fill="#000000" font-family="sans-serif" font-size="20" lengthAdjust="spacing" textLength="74" x="515.5" y="244.7051">System</text><polygon fill="#FFFFFF" points="25.5,135.5781,25.5,135.6482,27.5,135.44,29.5,135.6426,31.5,135.7114,33.5,135.3403,35.5,135.5781,35.4223,135.5781,35.0735,145.0871,35.1165,154.596,35.4318,164.1049,34.8086,173.6138,36.0536,183.1228,34.8697,192.6317,35.5,202.1406,35.5,202.0747,33.5,202.2846,31.5,202.112,29.5,202.1634,27.5,202.13,25.5,202.1406,25.6785,202.1406,25.7391,192.6317,26.0857,183.1228,26.1711,173.6138,26.1793,164.1049,25.7546,154.596,25.9636,145.0871,25.5,135.5781" style="stroke:#181818;stroke-width:1.0;"/><polygon fill="#FFFFFF" points="547.5,164.8594,547.5,164.9294,549.5,164.7213,551.5,164.9238,553.5,164.9926,555.5,164.6216,557.5,164.8594,557.4741,164.8594,557.3578,172.3156,557.3722,179.7719,557.4773,187.2281,557.2695,194.6844,557.5,202.1406,557.5,202.3252,555.5,201.9305,553.5,202.0747,551.5,202.2846,549.5,202.112,547.5,202.1406,547.5227,202.1406,547.4894,194.6844,547.5595,187.2281,547.5797,179.7719,547.6952,172.3156,547.5,164.8594" style="stroke:#181818;stroke-width:1.0;"/><polygon fill="#181818" points="535.5,160.8594,535.526,160.9244,537.4487,161.5311,539.5239,162.5192,541.5495,163.3831,543.4117,163.8386,545.5,164.8594,545.4904,164.8353,543.4472,165.5274,541.4525,166.3407,539.4916,167.2383,537.4144,167.8454,535.5,168.8594,535.6305,168.9899,536.1514,167.9108,537.0534,167.2128,538.0018,166.5612,538.6798,165.6392,539.5,164.8594,539.5161,164.8755,538.6925,164.0518,537.9421,163.3015,537.1564,162.5157,536.438,161.7974,535.5,160.8594" style="stroke:#181818;stroke-width:1.0;"/><path d="M35.5,164.8594 L35.5,165.1396 L45.4216,164.3069 L55.3431,165.1171 L65.2647,165.3923 L75.1863,163.9082 L85.1078,164.7558 L95.0294,164.2907 L104.951,164.348 L114.8725,164.7685 L124.7941,163.9375 L134.7157,165.5976 L144.6373,164.019 L154.5588,164.5957 L164.4804,165.4353 L174.402,164.745 L184.3235,164.9504 L194.2451,164.8168 L204.1667,165.0974 L214.0882,165.1782 L224.0098,165.6403 L233.9314,165.7541 L243.8529,165.7651 L253.7745,165.1989 L263.6961,165.4775 L273.6176,165.7957 L283.5392,163.8978 L293.4608,165.7641 L303.3824,164.464 L313.3039,165.5711 L323.2255,164.1993 L333.1471,164.768 L343.0686,165.8482 L352.9902,164.7944 L362.9118,164.9998 L372.8333,165.3109 L382.7549,165.4144 L392.6765,164.8542 L402.598,165.2423 L412.5196,164.0962 L422.4412,165.2386 L432.3627,165.5903 L442.2843,165.4521 L452.2059,165.6767 L462.1275,164.2153 L472.049,163.9898 L481.9706,164.0308 L491.8922,164.7809 L501.8137,164.5973 L511.7353,165.7679 L521.6569,164.6265 L531.5784,164.402 L541.5,164.8594 " fill="none" style="stroke:#181818;stroke-width:1.0;"/><text fill="#000000" font-family="sans-serif" font-size="20" font-weight="bold" lengthAdjust="spacing" textLength="14" x="42.5" y="158.1426">1</text><text fill="#000000" font-family="sans-serif" font-size="20" lengthAdjust="spacing" textLength="359" x="60.5" y="158.1426">Request to see all available Courses</text><polygon fill="#181818" points="41.5,198.1406,41.526,198.2057,39.4487,198.8124,37.5239,199.8004,35.5495,200.6643,33.4117,201.1198,31.5,202.1406,31.4904,202.1166,33.4472,202.8086,35.4525,203.6219,37.4916,204.5195,39.4144,205.1267,41.5,206.1406,41.6305,206.2711,40.5514,205.1921,39.8534,204.494,39.2018,203.8424,38.2798,202.9204,37.5,202.1406,37.5161,202.1567,38.2925,201.3331,39.1421,200.5827,39.9564,199.797,40.838,199.0787,41.5,198.1406" style="stroke:#181818;stroke-width:1.0;"/><path d="M35.5,202.1406 L35.5,202.4209 L45.4231,201.5882 L55.3462,202.3983 L65.2692,202.6735 L75.1923,201.1894 L85.1154,202.037 L95.0385,201.572 L104.9615,201.6293 L114.8846,202.0497 L124.8077,201.2188 L134.7308,202.8788 L144.6538,201.3003 L154.5769,201.8769 L164.5,202.7166 L174.4231,202.0263 L184.3462,202.2316 L194.2692,202.098 L204.1923,202.3787 L214.1154,202.4595 L224.0385,202.9215 L233.9615,203.0354 L243.8846,203.0463 L253.8077,202.4801 L263.7308,202.7587 L273.6538,203.0769 L283.5769,201.179 L293.5,203.0453 L303.4231,201.7453 L313.3462,202.8524 L323.2692,201.4806 L333.1923,202.0493 L343.1154,203.1294 L353.0385,202.0756 L362.9615,202.281 L372.8846,202.5921 L382.8077,202.6956 L392.7308,202.1354 L402.6538,202.5236 L412.5769,201.3774 L422.5,202.5198 L432.4231,202.8716 L442.3462,202.7333 L452.2692,202.958 L462.1923,201.4965 L472.1154,201.271 L482.0385,201.3121 L491.9615,202.0621 L501.8846,201.8786 L511.8077,203.0492 L521.7308,201.9077 L531.6538,201.6832 L541.5769,202.445 L551.5,202.1406 " fill="none" style="stroke:#181818;stroke-width:1.0;stroke-dasharray:2.0,2.0;"/><text fill="#000000" font-family="sans-serif" font-size="20" font-weight="bold" lengthAdjust="spacing" textLength="14" x="47.5" y="195.4238">2</text><text fill="#000000" font-family="sans-serif" font-size="20" lengthAdjust="spacing" textLength="470" x="65.5" y="195.4238">show him the courses that are available to him</text><!--SRC=[TO_1JiCm38RlUGhVE9KYZZqW8IGahamyW9Twn5eIbzXP1KzFsWus8N5AbF_tbyzwv3nXmHJ57sc4aGvOeprBjXr_4TpVkPjWDkdGzrF4R3N5Mo-fL_geb3rr8-DxctV65WaU5H3Ub0gymDpgO0AHrG1Z10i4NcfHqdR7zbYerV64777VfWzI8973Qf9hsbDn-kC70VCu5pQZ35OgNKL9ilXG9D6MeBS6MYnSAnXxdXQLtQSQ9RV4V4AZhR7ATW_dT83NPJ5TnPLezRu8Fcts5yIPkHtGDSxA6q23p10u_RFqBx5zqrfkfB_8gvVLqtq3]--></g></svg>