<?xml version="1.0" encoding="UTF-8" standalone="no"?><svg xmlns="http://www.w3.org/2000/svg" xmlns:xlink="http://www.w3.org/1999/xlink" contentStyleType="text/css" height="581px" preserveAspectRatio="none" style="width:1754px;height:581px;background:#FFFFFF;" version="1.1" viewBox="0 0 1754 581" width="1754px" zoomAndPan="magnify"><defs/><g><text fill="#000000" font-family="sans-serif" font-size="14" font-weight="bold" lengthAdjust="spacing" textLength="434" x="661.5" y="27.9951">SD - As a teacher I want to list all the available courses</text><polygon fill="#FFFFFF" points="43,135.5781,43,135.6482,45,135.44,47,135.6426,49,135.7114,51,135.3403,53,135.5781,52.9223,135.5781,52.5735,145.5938,52.6165,155.6094,52.9318,165.625,52.3086,175.6406,53.5536,185.6563,52.3697,195.6719,52.8022,205.6875,53.4319,215.7031,52.9142,225.7188,53.0682,235.7344,52.9681,245.75,53.1785,255.7656,53.2391,265.7813,53.5857,275.7969,53.6711,285.8125,53.6793,295.8281,53.2546,305.8438,53.4636,315.8594,53.7022,325.875,52.2788,335.8906,53.6785,345.9063,52.7035,355.9219,53.5338,365.9375,52.505,375.9531,52.9315,385.9688,53.7416,395.9844,52.9513,406,53.1053,416.0156,53.3386,426.0313,53.4162,436.0469,52.9961,446.0625,53.2872,456.0781,52.4276,466.0938,53,476.1094,53,476.2042,51,476.2921,49,476.2576,47,476.3137,45,475.9483,43,476.1094,42.3478,476.1094,42.3786,466.0938,42.9411,456.0781,42.8035,446.0625,43.6814,436.0469,42.8253,426.0313,42.6569,416.0156,43.2283,406,42.3332,395.9844,42.4809,385.9688,43.649,375.9531,43.4357,365.9375,43.7345,355.9219,42.6782,345.9063,43.3192,335.8906,43.5904,325.875,42.5276,315.8594,42.9041,305.8438,43.126,295.8281,43.6518,285.8125,42.9958,275.7969,43.4626,265.7813,42.4462,255.7656,42.3227,245.75,43.5036,235.7344,42.2831,225.7188,43.509,215.7031,43.2066,205.6875,42.7321,195.6719,42.6462,185.6563,43.4588,175.6406,42.7007,165.625,43.5919,155.6094,42.4473,145.5938,43,135.5781" style="stroke:#181818;stroke-width:1.0;"/><polygon fill="#FFFFFF" points="433,164.8594,433,164.9294,435,164.7213,437,164.9238,439,164.9926,441,164.6216,443,164.8594,442.9223,164.8594,442.5735,174.8997,442.6165,184.94,442.9318,194.9803,442.3086,205.0207,443.5536,215.061,442.3697,225.1013,442.8022,235.1416,443.4319,245.182,442.9142,255.2223,443.0682,265.2626,442.9681,275.3029,443.1785,285.3432,443.2391,295.3836,443.5857,305.4239,443.6711,315.4642,443.6793,325.5045,443.2546,335.5449,443.4636,345.5852,443.7022,355.6255,442.2788,365.6658,443.6785,375.7061,442.7035,385.7465,443.5338,395.7868,442.505,405.8271,442.9315,415.8674,443.7416,425.9078,442.9513,435.9481,443.1053,445.9884,443.3386,456.0287,443.4162,466.0691,443,476.1094,443,476.1081,441,476.2051,439,475.9186,437,476.2042,435,476.2921,433,476.1094,433.4445,476.1094,433.613,466.0691,432.5169,456.0287,432.3478,445.9884,432.3786,435.9481,432.9411,425.9078,432.8035,415.8674,433.6814,405.8271,432.8253,395.7868,432.6569,385.7465,433.2283,375.7061,432.3332,365.6658,432.4809,355.6255,433.649,345.5852,433.4357,335.5449,433.7345,325.5045,432.6782,315.4642,433.3192,305.4239,433.5904,295.3836,432.5276,285.3432,432.9041,275.3029,433.126,265.2626,433.6518,255.2223,432.9958,245.182,433.4626,235.1416,432.4462,225.1013,432.3227,215.061,433.5036,205.0207,432.2831,194.9803,433.509,184.94,433.2066,174.8997,433,164.8594" style="stroke:#181818;stroke-width:1.0;"/><polygon fill="#FFFFFF" points="840,202.1406,840,202.2107,842,202.0025,844,202.2051,846,202.2739,848,201.9028,850,202.1406,849.9223,202.1406,849.5735,211.9515,849.6165,221.7623,849.9318,231.5732,849.3086,241.384,850.5536,251.1949,849.3697,261.0058,849.8022,270.8166,850.4319,280.6275,849.9142,290.4383,850.0682,300.2492,849.9681,310.06,850.1785,319.8709,850.2391,329.6817,850.5857,339.4926,850.6711,349.3035,850.6793,359.1143,850.2546,368.9252,850.4636,378.736,850,388.5469,850,388.781,848,388.3065,846,388.773,844,388.448,842,388.7248,840,388.5469,839.505,388.5469,839.9315,378.736,840.7416,368.9252,839.9513,359.1143,840.1053,349.3035,840.3386,339.4926,840.4162,329.6817,839.9961,319.8709,840.2872,310.06,839.4276,300.2492,840.2844,290.4383,840.5482,280.6275,840.4445,270.8166,840.613,261.0058,839.5169,251.1949,839.3478,241.384,839.3786,231.5732,839.9411,221.7623,839.8035,211.9515,840,202.1406" style="stroke:#181818;stroke-width:1.0;"/><polygon fill="#FFFFFF" points="1247,239.4219,1247,239.4919,1249,239.2838,1251,239.4863,1253,239.5551,1255,239.1841,1257,239.4219,1256.9223,239.4219,1256.5735,249.5895,1256.6165,259.7571,1256.9318,269.9247,1256.3086,280.0923,1257.5536,290.2599,1256.3697,300.4276,1256.8022,310.5952,1257.4319,320.7628,1256.9142,330.9304,1257.0682,341.098,1257,351.2656,1257,351.255,1255,351.3251,1253,351.3453,1251,351.4609,1249,351.4893,1247,351.2656,1247.6793,351.2656,1247.2546,341.098,1247.4636,330.9304,1247.7022,320.7628,1246.2788,310.5952,1247.6785,300.4276,1246.7035,290.2599,1247.5338,280.0923,1246.505,269.9247,1246.9315,259.7571,1247.7416,249.5895,1247,239.4219" style="stroke:#181818;stroke-width:1.0;"/><polygon fill="#FFFFFF" points="1654,276.7031,1654,276.7732,1656,276.565,1658,276.7676,1660,276.8364,1662,276.4653,1664,276.7031,1663.9741,276.7031,1663.8578,284.1594,1663.8722,291.6156,1663.9773,299.0719,1663.7695,306.5281,1664,313.9844,1664,314.1689,1662,313.7743,1660,313.9185,1658,314.1284,1656,313.9558,1654,313.9844,1654.0227,313.9844,1653.9894,306.5281,1654.0595,299.0719,1654.0797,291.6156,1654.1952,284.1594,1654,276.7031" style="stroke:#181818;stroke-width:1.0;"/><path d="M48,125.5781 L48.2802,125.5781 L47.4476,135.5384 L48.2577,145.4987 L48.5329,155.459 L47.0488,165.4193 L47.8964,175.3796 L47.4313,185.3399 L47.4887,195.3003 L47.9091,205.2606 L47.0782,215.2209 L48.7382,225.1812 L47.1596,235.1415 L47.7363,245.1018 L48.5759,255.0621 L47.8856,265.0224 L48.091,274.9827 L47.9574,284.943 L48.238,294.9033 L48.3188,304.8636 L48.7809,314.8239 L48.8947,324.7842 L48.9057,334.7445 L48.3395,344.7048 L48.6181,354.6651 L48.9363,364.6254 L47.0384,374.5857 L48.9047,384.546 L47.6047,394.5063 L48.7117,404.4666 L47.34,414.4269 L47.9087,424.3872 L48.9888,434.3476 L47.935,444.3079 L48.1404,454.2682 L48.4515,464.2285 L48.555,474.1888 L47.9948,484.1491 L48,494.1094 " fill="none" style="stroke:#181818;stroke-width:0.5;stroke-dasharray:5.0,5.0;"/><path d="M438,125.5781 L438.2802,125.5781 L437.4476,135.5384 L438.2577,145.4987 L438.5329,155.459 L437.0488,165.4193 L437.8964,175.3796 L437.4313,185.3399 L437.4887,195.3003 L437.9091,205.2606 L437.0782,215.2209 L438.7382,225.1812 L437.1596,235.1415 L437.7363,245.1018 L438.5759,255.0621 L437.8856,265.0224 L438.091,274.9827 L437.9574,284.943 L438.238,294.9033 L438.3188,304.8636 L438.7809,314.8239 L438.8947,324.7842 L438.9057,334.7445 L438.3395,344.7048 L438.6181,354.6651 L438.9363,364.6254 L437.0384,374.5857 L438.9047,384.546 L437.6047,394.5063 L438.7117,404.4666 L437.34,414.4269 L437.9087,424.3872 L438.9888,434.3476 L437.935,444.3079 L438.1404,454.2682 L438.4515,464.2285 L438.555,474.1888 L437.9948,484.1491 L438,494.1094 " fill="none" style="stroke:#181818;stroke-width:0.5;stroke-dasharray:5.0,5.0;"/><path d="M845,125.5781 L845.2802,125.5781 L844.4476,135.5384 L845.2577,145.4987 L845.5329,155.459 L844.0488,165.4193 L844.8964,175.3796 L844.4313,185.3399 L844.4887,195.3003 L844.9091,205.2606 L844.0782,215.2209 L845.7382,225.1812 L844.1596,235.1415 L844.7363,245.1018 L845.5759,255.0621 L844.8856,265.0224 L845.091,274.9827 L844.9574,284.943 L845.238,294.9033 L845.3188,304.8636 L845.7809,314.8239 L845.8947,324.7842 L845.9057,334.7445 L845.3395,344.7048 L845.6181,354.6651 L845.9363,364.6254 L844.0384,374.5857 L845.9047,384.546 L844.6047,394.5063 L845.7117,404.4666 L844.34,414.4269 L844.9087,424.3872 L845.9888,434.3476 L844.935,444.3079 L845.1404,454.2682 L845.4515,464.2285 L845.555,474.1888 L844.9948,484.1491 L845,494.1094 " fill="none" style="stroke:#181818;stroke-width:0.5;stroke-dasharray:5.0,5.0;"/><path d="M1252,125.5781 L1252.2802,125.5781 L1251.4476,135.5384 L1252.2577,145.4987 L1252.5329,155.459 L1251.0488,165.4193 L1251.8964,175.3796 L1251.4313,185.3399 L1251.4887,195.3003 L1251.9091,205.2606 L1251.0782,215.2209 L1252.7382,225.1812 L1251.1596,235.1415 L1251.7363,245.1018 L1252.5759,255.0621 L1251.8856,265.0224 L1252.091,274.9827 L1251.9574,284.943 L1252.238,294.9033 L1252.3188,304.8636 L1252.7809,314.8239 L1252.8947,324.7842 L1252.9057,334.7445 L1252.3395,344.7048 L1252.6181,354.6651 L1252.9363,364.6254 L1251.0384,374.5857 L1252.9047,384.546 L1251.6047,394.5063 L1252.7117,404.4666 L1251.34,414.4269 L1251.9087,424.3872 L1252.9888,434.3476 L1251.935,444.3079 L1252.1404,454.2682 L1252.4515,464.2285 L1252.555,474.1888 L1251.9948,484.1491 L1252,494.1094 " fill="none" style="stroke:#181818;stroke-width:0.5;stroke-dasharray:5.0,5.0;"/><path d="M1659,125.5781 L1659.2802,125.5781 L1658.4476,135.5384 L1659.2577,145.4987 L1659.5329,155.459 L1658.0488,165.4193 L1658.8964,175.3796 L1658.4313,185.3399 L1658.4887,195.3003 L1658.9091,205.2606 L1658.0782,215.2209 L1659.7382,225.1812 L1658.1596,235.1415 L1658.7363,245.1018 L1659.5759,255.0621 L1658.8856,265.0224 L1659.091,274.9827 L1658.9574,284.943 L1659.238,294.9033 L1659.3188,304.8636 L1659.7809,314.8239 L1659.8947,324.7842 L1659.9057,334.7445 L1659.3395,344.7048 L1659.6181,354.6651 L1659.9363,364.6254 L1658.0384,374.5857 L1659.9047,384.546 L1658.6047,394.5063 L1659.7117,404.4666 L1658.34,414.4269 L1658.9087,424.3872 L1659.9888,434.3476 L1658.935,444.3079 L1659.1404,454.2682 L1659.4515,464.2285 L1659.555,474.1888 L1658.9948,484.1491 L1659,494.1094 " fill="none" style="stroke:#181818;stroke-width:0.5;stroke-dasharray:5.0,5.0;"/><text fill="#000000" font-family="sans-serif" font-size="20" lengthAdjust="spacing" textLength="80" x="5" y="120.8613">Teacher</text><polygon fill="#E3E3E3" points="56.0442,52.7428,54.8715,54.3451,53.4845,56.6919,51.5008,58.2735,49.4163,59.1384,47.7542,59.2135,45.618,58.1318,43.6023,57.4252,42.0724,55.9905,41.2699,54.348,40.7939,53.0402,40.3277,51.3319,39.5709,49.8619,40.1525,48.4267,40.662,46.8545,42.574,45.611,43.9192,43.9977,45.5843,43.4619,47.5637,43.0005,50.1021,43.2747,51.4924,43.9304,53.1089,44.2276,55.0743,46.2412,55.7595,48.367,56.0571,49.8175,55.72,52.2077" style="stroke:#181818;stroke-width:0.5;"/><path d="M48,58.7969 L48.1868,58.7969 L47.6317,64.1969 L48.1718,69.5969 L48.3553,74.9969 L47.3659,80.3969 L48,85.7969 M35,66.7969 L35,66.7278 L40.2,66.4178 L45.4,66.456 L50.6,66.7363 L55.8,66.1823 L61,66.7969 M48,85.7969 L48.3719,86.1192 L44.9766,88.43 L42.6672,91.6817 L40.4901,95.0483 L37.5424,97.7469 L35,100.7969 M48,85.7969 L48.0458,85.8366 L50.5785,88.7783 L53.3199,91.9008 L55.9606,94.9361 L58.7934,98.1378 L61,100.7969 " fill="none" style="stroke:#181818;stroke-width:0.5;"/><text fill="#000000" font-family="sans-serif" font-size="20" lengthAdjust="spacing" textLength="80" x="5" y="511.6738">Teacher</text><polygon fill="#E3E3E3" points="56.0442,526.8365,54.8715,528.4388,53.4845,530.7857,51.5008,532.3673,49.4163,533.2322,47.7542,533.3072,45.618,532.2256,43.6023,531.5189,42.0724,530.0842,41.2699,528.4417,40.7939,527.1339,40.3277,525.4257,39.5709,523.9557,40.1525,522.5204,40.662,520.9482,42.574,519.7048,43.9192,518.0914,45.5843,517.5557,47.5637,517.0943,50.1021,517.3684,51.4924,518.0241,53.1089,518.3213,55.0743,520.335,55.7595,522.4608,56.0571,523.9112,55.72,526.3014" style="stroke:#181818;stroke-width:0.5;"/><path d="M48,532.8906 L48.1868,532.8906 L47.6317,538.2906 L48.1718,543.6906 L48.3553,549.0906 L47.3659,554.4906 L48,559.8906 M35,540.8906 L35,540.8215 L40.2,540.5115 L45.4,540.5497 L50.6,540.83 L55.8,540.2761 L61,540.8906 M48,559.8906 L48.3719,560.2129 L44.9766,562.5237 L42.6672,565.7755 L40.4901,569.1421 L37.5424,571.8407 L35,574.8906 M48,559.8906 L48.0458,559.9304 L50.5785,562.872 L53.3199,565.9946 L55.9606,569.0298 L58.7934,572.2316 L61,574.8906 " fill="none" style="stroke:#181818;stroke-width:0.5;"/><polygon fill="#E3E3E3" points="316.5,87.2969,316.5,87.5071,326.625,86.8826,336.75,87.4902,346.875,87.6966,357,86.5835,367.125,87.2192,377.25,86.8704,387.375,86.9134,397.5,87.2287,407.625,86.6055,417.75,87.8505,427.875,86.6666,438,87.0991,448.125,87.7288,458.25,87.2111,468.375,87.3651,478.5,87.2649,488.625,87.4754,498.75,87.536,508.875,87.8826,519,87.9679,529.125,87.9761,539.25,87.5515,549.375,87.7605,559.5,87.2969,559.5896,87.5131,559.7616,87.2212,560.2937,87.7987,560.5228,87.6449,560.9823,88.0471,561.2678,88.0291,561.1153,87.966,561.3931,88.3739,561.789,88.8308,561.6921,89.0836,561.886,89.4568,562,89.7969,562.1129,89.7969,562.1387,96.2531,561.9987,102.7094,562.0957,109.1656,561.8092,115.6219,562,122.0781,562.0876,122.1144,562.0224,122.5016,561.844,122.8419,561.7494,123.217,561.2654,123.4307,561.2678,123.8459,561.1846,123.645,560.8349,123.801,560.5531,124.1207,560.182,124.2247,559.9405,124.6415,559.5,124.5781,559.5,124.4034,549.375,124.2351,539.25,124.8064,529.125,123.9113,519,124.059,508.875,125.2271,498.75,125.0138,488.625,125.3126,478.5,124.2563,468.375,124.8973,458.25,125.1685,448.125,124.1057,438,124.4823,427.875,124.7041,417.75,125.2299,407.625,124.5739,397.5,125.0407,387.375,124.0243,377.25,123.9009,367.125,125.0817,357,123.8612,346.875,125.0871,336.75,124.7848,326.625,124.3102,316.5,124.5781,316.4549,124.4692,316.205,124.573,315.7547,124.193,315.5148,124.3211,315.0153,123.8221,314.7322,123.8459,314.9224,123.9247,314.7349,123.5541,314.5148,123.17,314.3074,122.7913,314.3702,122.5244,314,122.0781,314.2045,122.0781,314.0564,115.6219,314.0894,109.1656,313.9566,102.7094,314.2388,96.2531,314,89.7969,314.0477,89.8166,314.1996,89.4653,314.1055,89.0122,314.3145,88.6845,314.7492,88.4504,314.7322,88.0291,314.7871,88.1615,315.0803,87.8694,315.3982,87.637,315.765,87.5223,316.0589,87.232,316.5,87.2969" style="stroke:#181818;stroke-width:0.5;"/><text fill="#000000" font-family="sans-serif" font-size="20" lengthAdjust="spacing" textLength="234" x="321" y="112.8613">:ListAvailableCoursesUI</text><polygon fill="#E3E3E3" points="316.5,493.1094,316.5,493.3196,326.625,492.6951,336.75,493.3027,346.875,493.5091,357,492.396,367.125,493.0317,377.25,492.6829,387.375,492.7259,397.5,493.0412,407.625,492.418,417.75,493.663,427.875,492.4791,438,492.9116,448.125,493.5413,458.25,493.0236,468.375,493.1776,478.5,493.0774,488.625,493.2879,498.75,493.3485,508.875,493.6951,519,493.7804,529.125,493.7886,539.25,493.364,549.375,493.573,559.5,493.1094,559.5896,493.3256,559.7616,493.0337,560.2937,493.6112,560.5228,493.4574,560.9823,493.8596,561.2678,493.8416,561.1153,493.7785,561.3931,494.1864,561.789,494.6433,561.6921,494.8961,561.886,495.2693,562,495.6094,562.1129,495.6094,562.1387,502.0656,561.9987,508.5219,562.0957,514.9781,561.8092,521.4344,562,527.8906,562.0876,527.9269,562.0224,528.3141,561.844,528.6544,561.7494,529.0295,561.2654,529.2432,561.2678,529.6584,561.1846,529.4575,560.8349,529.6135,560.5531,529.9332,560.182,530.0372,559.9405,530.454,559.5,530.3906,559.5,530.2159,549.375,530.0476,539.25,530.6189,529.125,529.7238,519,529.8715,508.875,531.0396,498.75,530.8263,488.625,531.1251,478.5,530.0688,468.375,530.7098,458.25,530.981,448.125,529.9182,438,530.2948,427.875,530.5166,417.75,531.0424,407.625,530.3864,397.5,530.8532,387.375,529.8368,377.25,529.7134,367.125,530.8942,357,529.6737,346.875,530.8996,336.75,530.5973,326.625,530.1227,316.5,530.3906,316.4549,530.2817,316.205,530.3855,315.7547,530.0055,315.5148,530.1336,315.0153,529.6346,314.7322,529.6584,314.9224,529.7372,314.7349,529.3666,314.5148,528.9825,314.3074,528.6038,314.3702,528.3369,314,527.8906,314.2045,527.8906,314.0564,521.4344,314.0894,514.9781,313.9566,508.5219,314.2388,502.0656,314,495.6094,314.0477,495.6291,314.1996,495.2778,314.1055,494.8247,314.3145,494.497,314.7492,494.2629,314.7322,493.8416,314.7871,493.974,315.0803,493.6819,315.3982,493.4495,315.765,493.3348,316.0589,493.0445,316.5,493.1094" style="stroke:#181818;stroke-width:0.5;"/><text fill="#000000" font-family="sans-serif" font-size="20" lengthAdjust="spacing" textLength="234" x="321" y="518.6738">:ListAvailableCoursesUI</text><polygon fill="#E3E3E3" points="684.5,87.2969,684.5,87.5071,694.5313,86.8826,704.5625,87.4902,714.5938,87.6966,724.625,86.5835,734.6563,87.2192,744.6875,86.8704,754.7188,86.9134,764.75,87.2287,774.7813,86.6055,784.8125,87.8505,794.8438,86.6666,804.875,87.0991,814.9063,87.7288,824.9375,87.2111,834.9688,87.3651,845,87.2649,855.0313,87.4754,865.0625,87.536,875.0938,87.8826,885.125,87.9679,895.1563,87.9761,905.1875,87.5515,915.2188,87.7605,925.25,87.9991,935.2813,86.5757,945.3125,87.9754,955.3438,87.0004,965.375,87.8307,975.4063,86.8019,985.4375,87.2284,995.4688,88.0385,1005.5,87.2969,1005.4938,87.2819,1005.867,87.4758,1006.2503,87.6941,1006.6138,87.8644,1006.9137,87.8815,1007.2678,88.0291,1007.3562,88.0657,1007.2379,88.3096,1007.6482,88.7725,1007.8759,89.1597,1007.9905,89.5,1008,89.7969,1008.2043,89.7969,1007.839,96.2531,1007.7826,102.7094,1007.7929,109.1656,1007.9804,115.6219,1008,122.0781,1007.9395,122.0531,1008.0634,122.5186,1007.6533,122.7629,1007.455,123.095,1007.4845,123.5215,1007.2678,123.8459,1007.1827,123.6405,1006.848,123.8325,1006.6434,124.3386,1006.2627,124.4194,1005.9472,124.6579,1005.5,124.5781,1005.5,124.2563,995.4688,124.8973,985.4375,125.1685,975.4063,124.1057,965.375,124.4823,955.3438,124.7041,945.3125,125.2299,935.2813,124.5739,925.25,125.0407,915.2188,124.0243,905.1875,123.9009,895.1563,125.0817,885.125,123.8612,875.0938,125.0871,865.0625,124.7848,855.0313,124.3102,845,124.2244,834.9688,125.0369,824.9375,124.2788,814.9063,125.17,804.875,124.0254,794.8438,125.1956,784.8125,125.0624,774.7813,124.8231,764.75,124.6253,754.7188,125.3047,744.6875,125.1917,734.6563,124.7474,724.625,124.8463,714.5938,124.4479,704.5625,125.2946,694.5313,124.733,684.5,124.5781,684.522,124.6313,684.0688,124.2443,683.7412,124.1604,683.507,124.3022,683.1406,124.1247,682.7322,123.8459,682.719,123.8404,682.4866,123.4512,682.3719,123.1109,682.0816,122.6977,682.2742,122.4846,682,122.0781,682.2465,122.0781,682.1755,115.6219,682.2316,109.1656,681.9544,102.7094,682.0291,96.2531,682,89.7969,681.8806,89.7474,682.2339,89.4796,682.3689,89.1212,682.6095,88.8067,682.5151,88.3534,682.7322,88.0291,682.7151,87.9877,683.1424,88.0192,683.5117,87.9109,683.7275,87.4319,684.1217,87.3836,684.5,87.2969" style="stroke:#181818;stroke-width:0.5;"/><text fill="#000000" font-family="sans-serif" font-size="20" lengthAdjust="spacing" textLength="312" x="689" y="112.8613">:ListAvailableCoursesController</text><polygon fill="#E3E3E3" points="684.5,493.1094,684.5,493.3196,694.5313,492.6951,704.5625,493.3027,714.5938,493.5091,724.625,492.396,734.6563,493.0317,744.6875,492.6829,754.7188,492.7259,764.75,493.0412,774.7813,492.418,784.8125,493.663,794.8438,492.4791,804.875,492.9116,814.9063,493.5413,824.9375,493.0236,834.9688,493.1776,845,493.0774,855.0313,493.2879,865.0625,493.3485,875.0938,493.6951,885.125,493.7804,895.1563,493.7886,905.1875,493.364,915.2188,493.573,925.25,493.8116,935.2813,492.3882,945.3125,493.7879,955.3438,492.8129,965.375,493.6432,975.4063,492.6144,985.4375,493.0409,995.4688,493.851,1005.5,493.1094,1005.4938,493.0944,1005.867,493.2883,1006.2503,493.5066,1006.6138,493.6769,1006.9137,493.694,1007.2678,493.8416,1007.3562,493.8782,1007.2379,494.1221,1007.6482,494.585,1007.8759,494.9722,1007.9905,495.3125,1008,495.6094,1008.2043,495.6094,1007.839,502.0656,1007.7826,508.5219,1007.7929,514.9781,1007.9804,521.4344,1008,527.8906,1007.9395,527.8656,1008.0634,528.3311,1007.6533,528.5754,1007.455,528.9075,1007.4845,529.334,1007.2678,529.6584,1007.1827,529.453,1006.848,529.645,1006.6434,530.1511,1006.2627,530.2319,1005.9472,530.4704,1005.5,530.3906,1005.5,530.0688,995.4688,530.7098,985.4375,530.981,975.4063,529.9182,965.375,530.2948,955.3438,530.5166,945.3125,531.0424,935.2813,530.3864,925.25,530.8532,915.2188,529.8368,905.1875,529.7134,895.1563,530.8942,885.125,529.6737,875.0938,530.8996,865.0625,530.5973,855.0313,530.1227,845,530.0369,834.9688,530.8494,824.9375,530.0913,814.9063,530.9825,804.875,529.8379,794.8438,531.0081,784.8125,530.8749,774.7813,530.6356,764.75,530.4378,754.7188,531.1172,744.6875,531.0042,734.6563,530.5599,724.625,530.6588,714.5938,530.2604,704.5625,531.1071,694.5313,530.5455,684.5,530.3906,684.522,530.4438,684.0688,530.0568,683.7412,529.9729,683.507,530.1147,683.1406,529.9372,682.7322,529.6584,682.719,529.6529,682.4866,529.2637,682.3719,528.9234,682.0816,528.5102,682.2742,528.2971,682,527.8906,682.2465,527.8906,682.1755,521.4344,682.2316,514.9781,681.9544,508.5219,682.0291,502.0656,682,495.6094,681.8806,495.5599,682.2339,495.2921,682.3689,494.9337,682.6095,494.6192,682.5151,494.1659,682.7322,493.8416,682.7151,493.8002,683.1424,493.8317,683.5117,493.7234,683.7275,493.2444,684.1217,493.1961,684.5,493.1094" style="stroke:#181818;stroke-width:0.5;"/><text fill="#000000" font-family="sans-serif" font-size="20" lengthAdjust="spacing" textLength="312" x="689" y="518.6738">:ListAvailableCoursesController</text><polygon fill="#E3E3E3" points="1155.5,87.2969,1155.5,87.5071,1165.6579,86.8826,1175.8158,87.4902,1185.9737,87.6966,1196.1316,86.5835,1206.2895,87.2192,1216.4474,86.8704,1226.6053,86.9134,1236.7632,87.2287,1246.9211,86.6055,1257.0789,87.8505,1267.2368,86.6666,1277.3947,87.0991,1287.5526,87.7288,1297.7105,87.2111,1307.8684,87.3651,1318.0263,87.2649,1328.1842,87.4754,1338.3421,87.536,1348.5,87.2969,1348.5747,87.4772,1348.9392,87.65,1349.2938,87.799,1349.5931,87.8146,1349.9733,88.0254,1350.2678,88.0291,1350.484,88.1187,1350.1921,88.2907,1350.7696,88.8228,1350.6158,89.0519,1351.0179,89.5114,1351,89.7969,1350.835,89.7969,1350.9772,96.2531,1351.2472,102.7094,1350.9838,109.1656,1351.0351,115.6219,1351,122.0781,1351.1043,122.1213,1350.9817,122.4848,1350.7059,122.7847,1350.6491,123.1754,1350.2379,123.4193,1350.2678,123.8459,1350.304,123.9335,1349.9841,124.1612,1349.6174,124.2757,1349.2853,124.474,1348.7919,124.2829,1348.5,124.5781,1348.5,123.9259,1338.3421,123.9567,1328.1842,124.5192,1318.0263,124.3816,1307.8684,125.2595,1297.7105,124.4034,1287.5526,124.2351,1277.3947,124.8064,1267.2368,123.9113,1257.0789,124.059,1246.9211,125.2271,1236.7632,125.0138,1226.6053,125.3126,1216.4474,124.2563,1206.2895,124.8973,1196.1316,125.1685,1185.9737,124.1057,1175.8158,124.4823,1165.6579,124.7041,1155.5,124.5781,1155.5831,124.7788,1155.1459,124.4304,1154.8519,124.4277,1154.3687,123.9682,1153.9994,123.7838,1153.7322,123.8459,1153.8873,123.9101,1153.365,123.4009,1153.5961,123.2037,1153.3565,122.8116,1153.0639,122.3975,1153,122.0781,1152.8821,122.0781,1153.1529,115.6219,1152.9002,109.1656,1153.1973,102.7094,1152.8158,96.2531,1153,89.7969,1153.1901,89.8756,1153.2956,89.5051,1153.3683,89.121,1153.4539,88.7422,1153.8096,88.4753,1153.7322,88.0291,1153.8105,88.2181,1154.1074,87.9348,1154.4736,87.8188,1154.7763,87.5497,1155.2378,87.664,1155.5,87.2969" style="stroke:#181818;stroke-width:0.5;"/><text fill="#000000" font-family="sans-serif" font-size="20" lengthAdjust="spacing" textLength="184" x="1160" y="112.8613">:ListCourseService</text><polygon fill="#E3E3E3" points="1155.5,493.1094,1155.5,493.3196,1165.6579,492.6951,1175.8158,493.3027,1185.9737,493.5091,1196.1316,492.396,1206.2895,493.0317,1216.4474,492.6829,1226.6053,492.7259,1236.7632,493.0412,1246.9211,492.418,1257.0789,493.663,1267.2368,492.4791,1277.3947,492.9116,1287.5526,493.5413,1297.7105,493.0236,1307.8684,493.1776,1318.0263,493.0774,1328.1842,493.2879,1338.3421,493.3485,1348.5,493.1094,1348.5747,493.2897,1348.9392,493.4625,1349.2938,493.6115,1349.5931,493.6271,1349.9733,493.8379,1350.2678,493.8416,1350.484,493.9312,1350.1921,494.1032,1350.7696,494.6353,1350.6158,494.8644,1351.0179,495.3239,1351,495.6094,1350.835,495.6094,1350.9772,502.0656,1351.2472,508.5219,1350.9838,514.9781,1351.0351,521.4344,1351,527.8906,1351.1043,527.9338,1350.9817,528.2973,1350.7059,528.5972,1350.6491,528.9879,1350.2379,529.2318,1350.2678,529.6584,1350.304,529.746,1349.9841,529.9737,1349.6174,530.0882,1349.2853,530.2865,1348.7919,530.0954,1348.5,530.3906,1348.5,529.7384,1338.3421,529.7692,1328.1842,530.3317,1318.0263,530.1941,1307.8684,531.072,1297.7105,530.2159,1287.5526,530.0476,1277.3947,530.6189,1267.2368,529.7238,1257.0789,529.8715,1246.9211,531.0396,1236.7632,530.8263,1226.6053,531.1251,1216.4474,530.0688,1206.2895,530.7098,1196.1316,530.981,1185.9737,529.9182,1175.8158,530.2948,1165.6579,530.5166,1155.5,530.3906,1155.5831,530.5913,1155.1459,530.2429,1154.8519,530.2402,1154.3687,529.7807,1153.9994,529.5963,1153.7322,529.6584,1153.8873,529.7226,1153.365,529.2134,1153.5961,529.0162,1153.3565,528.6241,1153.0639,528.21,1153,527.8906,1152.8821,527.8906,1153.1529,521.4344,1152.9002,514.9781,1153.1973,508.5219,1152.8158,502.0656,1153,495.6094,1153.1901,495.6881,1153.2956,495.3176,1153.3683,494.9335,1153.4539,494.5547,1153.8096,494.2878,1153.7322,493.8416,1153.8105,494.0306,1154.1074,493.7473,1154.4736,493.6313,1154.7763,493.3622,1155.2378,493.4765,1155.5,493.1094" style="stroke:#181818;stroke-width:0.5;"/><text fill="#000000" font-family="sans-serif" font-size="20" lengthAdjust="spacing" textLength="184" x="1160" y="518.6738">:ListCourseService</text><text fill="#000000" font-family="sans-serif" font-size="20" lengthAdjust="spacing" textLength="182" x="1565" y="120.8613">:CourseRepository</text><path d="M1641,66.2969 L1641,66.2969 L1641.0651,66.3639 L1642.6716,64.4148 L1644.6599,62.8585 L1646.5238,61.1742 L1647.979,59.0695 L1650,57.5469 L1649.9952,57.5127 L1651.7739,57.1091 L1653.5766,56.8781 L1655.3958,56.7669 L1657.1577,56.2425 L1659,56.2969 L1659,56.2969 L1659.0339,56.5406 L1660.7615,56.2694 L1662.5879,56.7098 L1664.4264,57.237 L1666.1948,57.2591 L1668,57.5469 L1668.0211,57.5686 L1669.7901,59.2867 L1671.6553,61.1038 L1673.4741,62.8731 L1675.3815,64.7335 L1677,66.2969 L1677.5965,66.2969 L1677.6038,71.4969 L1677.2263,76.6969 L1677.4121,81.8969 L1677.6242,87.0969 L1677,92.2969 L1677,92.2969 L1676.7766,92.0671 L1675.4102,94.2631 L1673.3081,95.7024 L1671.7654,97.717 L1669.6466,99.1391 L1668,101.0469 L1667.9958,101.0167 L1666.2453,101.6233 L1664.397,101.5254 L1662.6064,101.8432 L1660.8207,102.1959 L1659,102.2969 L1659,102.2969 L1659.0254,102.4801 L1657.1998,102.0452 L1655.4176,101.9233 L1653.565,101.2949 L1651.8174,101.4221 L1650,101.0469 L1650.1698,101.2216 L1648.3377,99.4385 L1646.5899,97.7422 L1644.4503,95.6429 L1642.5979,93.839 L1641,92.2969 L1640.4476,92.2969 L1640.9477,87.0969 L1640.8253,81.8969 L1641.6057,76.6969 L1640.8447,71.4969 L1641,66.2969 " fill="#E3E3E3" style="stroke:#181818;stroke-width:1.5;"/><path d="M1641,66.2969 L1641,66.2969 L1641.0651,66.3639 L1642.6716,67.9148 L1644.6599,69.8585 L1646.5238,71.6742 L1647.979,73.0695 L1650,75.0469 L1649.9952,75.0127 L1651.7739,75.1091 L1653.5766,75.3781 L1655.3958,75.7669 L1657.1577,75.7425 L1659,76.2969 L1659,76.2969 L1659.0339,76.5406 L1660.7615,75.7694 L1662.5879,75.7098 L1664.4264,75.737 L1666.1948,75.2591 L1668,75.0469 L1668.0211,75.0686 L1669.7901,73.2867 L1671.6553,71.6038 L1673.4741,69.8731 L1675.3815,68.2335 L1677,66.2969 " fill="none" style="stroke:#181818;stroke-width:1.5;"/><text fill="#000000" font-family="sans-serif" font-size="20" lengthAdjust="spacing" textLength="182" x="1565" y="511.6738">:CourseRepository</text><path d="M1641,526.3906 L1641,526.3906 L1641.0651,526.4576 L1642.6716,524.5086 L1644.6599,522.9522 L1646.5238,521.268 L1647.979,519.1633 L1650,517.6406 L1649.9952,517.6064 L1651.7739,517.2029 L1653.5766,516.9718 L1655.3958,516.8606 L1657.1577,516.3363 L1659,516.3906 L1659,516.3906 L1659.0339,516.6343 L1660.7615,516.3632 L1662.5879,516.8036 L1664.4264,517.3308 L1666.1948,517.3529 L1668,517.6406 L1668.0211,517.6624 L1669.7901,519.3804 L1671.6553,521.1975 L1673.4741,522.9668 L1675.3815,524.8273 L1677,526.3906 L1677.5965,526.3906 L1677.6038,531.5906 L1677.2263,536.7906 L1677.4121,541.9906 L1677.6242,547.1906 L1677,552.3906 L1677,552.3906 L1676.7766,552.1608 L1675.4102,554.3568 L1673.3081,555.7961 L1671.7654,557.8107 L1669.6466,559.2329 L1668,561.1406 L1667.9958,561.1105 L1666.2453,561.7171 L1664.397,561.6192 L1662.6064,561.937 L1660.8207,562.2897 L1659,562.3906 L1659,562.3906 L1659.0254,562.5739 L1657.1998,562.1389 L1655.4176,562.0171 L1653.565,561.3886 L1651.8174,561.5158 L1650,561.1406 L1650.1698,561.3153 L1648.3377,559.5323 L1646.5899,557.836 L1644.4503,555.7367 L1642.5979,553.9328 L1641,552.3906 L1640.4476,552.3906 L1640.9477,547.1906 L1640.8253,541.9906 L1641.6057,536.7906 L1640.8447,531.5906 L1641,526.3906 " fill="#E3E3E3" style="stroke:#181818;stroke-width:1.5;"/><path d="M1641,526.3906 L1641,526.3906 L1641.0651,526.4576 L1642.6716,528.0086 L1644.6599,529.9522 L1646.5238,531.768 L1647.979,533.1633 L1650,535.1406 L1649.9952,535.1064 L1651.7739,535.2029 L1653.5766,535.4718 L1655.3958,535.8606 L1657.1577,535.8363 L1659,536.3906 L1659,536.3906 L1659.0339,536.6343 L1660.7615,535.8632 L1662.5879,535.8036 L1664.4264,535.8308 L1666.1948,535.3529 L1668,535.1406 L1668.0211,535.1624 L1669.7901,533.3804 L1671.6553,531.6975 L1673.4741,529.9668 L1675.3815,528.3273 L1677,526.3906 " fill="none" style="stroke:#181818;stroke-width:1.5;"/><polygon fill="#FFFFFF" points="43,135.5781,43,135.6482,45,135.44,47,135.6426,49,135.7114,51,135.3403,53,135.5781,52.9223,135.5781,52.5735,145.5938,52.6165,155.6094,52.9318,165.625,52.3086,175.6406,53.5536,185.6563,52.3697,195.6719,52.8022,205.6875,53.4319,215.7031,52.9142,225.7188,53.0682,235.7344,52.9681,245.75,53.1785,255.7656,53.2391,265.7813,53.5857,275.7969,53.6711,285.8125,53.6793,295.8281,53.2546,305.8438,53.4636,315.8594,53.7022,325.875,52.2788,335.8906,53.6785,345.9063,52.7035,355.9219,53.5338,365.9375,52.505,375.9531,52.9315,385.9688,53.7416,395.9844,52.9513,406,53.1053,416.0156,53.3386,426.0313,53.4162,436.0469,52.9961,446.0625,53.2872,456.0781,52.4276,466.0938,53,476.1094,53,476.2042,51,476.2921,49,476.2576,47,476.3137,45,475.9483,43,476.1094,42.3478,476.1094,42.3786,466.0938,42.9411,456.0781,42.8035,446.0625,43.6814,436.0469,42.8253,426.0313,42.6569,416.0156,43.2283,406,42.3332,395.9844,42.4809,385.9688,43.649,375.9531,43.4357,365.9375,43.7345,355.9219,42.6782,345.9063,43.3192,335.8906,43.5904,325.875,42.5276,315.8594,42.9041,305.8438,43.126,295.8281,43.6518,285.8125,42.9958,275.7969,43.4626,265.7813,42.4462,255.7656,42.3227,245.75,43.5036,235.7344,42.2831,225.7188,43.509,215.7031,43.2066,205.6875,42.7321,195.6719,42.6462,185.6563,43.4588,175.6406,42.7007,165.625,43.5919,155.6094,42.4473,145.5938,43,135.5781" style="stroke:#181818;stroke-width:1.0;"/><polygon fill="#FFFFFF" points="433,164.8594,433,164.9294,435,164.7213,437,164.9238,439,164.9926,441,164.6216,443,164.8594,442.9223,164.8594,442.5735,174.8997,442.6165,184.94,442.9318,194.9803,442.3086,205.0207,443.5536,215.061,442.3697,225.1013,442.8022,235.1416,443.4319,245.182,442.9142,255.2223,443.0682,265.2626,442.9681,275.3029,443.1785,285.3432,443.2391,295.3836,443.5857,305.4239,443.6711,315.4642,443.6793,325.5045,443.2546,335.5449,443.4636,345.5852,443.7022,355.6255,442.2788,365.6658,443.6785,375.7061,442.7035,385.7465,443.5338,395.7868,442.505,405.8271,442.9315,415.8674,443.7416,425.9078,442.9513,435.9481,443.1053,445.9884,443.3386,456.0287,443.4162,466.0691,443,476.1094,443,476.1081,441,476.2051,439,475.9186,437,476.2042,435,476.2921,433,476.1094,433.4445,476.1094,433.613,466.0691,432.5169,456.0287,432.3478,445.9884,432.3786,435.9481,432.9411,425.9078,432.8035,415.8674,433.6814,405.8271,432.8253,395.7868,432.6569,385.7465,433.2283,375.7061,432.3332,365.6658,432.4809,355.6255,433.649,345.5852,433.4357,335.5449,433.7345,325.5045,432.6782,315.4642,433.3192,305.4239,433.5904,295.3836,432.5276,285.3432,432.9041,275.3029,433.126,265.2626,433.6518,255.2223,432.9958,245.182,433.4626,235.1416,432.4462,225.1013,432.3227,215.061,433.5036,205.0207,432.2831,194.9803,433.509,184.94,433.2066,174.8997,433,164.8594" style="stroke:#181818;stroke-width:1.0;"/><polygon fill="#FFFFFF" points="840,202.1406,840,202.2107,842,202.0025,844,202.2051,846,202.2739,848,201.9028,850,202.1406,849.9223,202.1406,849.5735,211.9515,849.6165,221.7623,849.9318,231.5732,849.3086,241.384,850.5536,251.1949,849.3697,261.0058,849.8022,270.8166,850.4319,280.6275,849.9142,290.4383,850.0682,300.2492,849.9681,310.06,850.1785,319.8709,850.2391,329.6817,850.5857,339.4926,850.6711,349.3035,850.6793,359.1143,850.2546,368.9252,850.4636,378.736,850,388.5469,850,388.781,848,388.3065,846,388.773,844,388.448,842,388.7248,840,388.5469,839.505,388.5469,839.9315,378.736,840.7416,368.9252,839.9513,359.1143,840.1053,349.3035,840.3386,339.4926,840.4162,329.6817,839.9961,319.8709,840.2872,310.06,839.4276,300.2492,840.2844,290.4383,840.5482,280.6275,840.4445,270.8166,840.613,261.0058,839.5169,251.1949,839.3478,241.384,839.3786,231.5732,839.9411,221.7623,839.8035,211.9515,840,202.1406" style="stroke:#181818;stroke-width:1.0;"/><polygon fill="#FFFFFF" points="1247,239.4219,1247,239.4919,1249,239.2838,1251,239.4863,1253,239.5551,1255,239.1841,1257,239.4219,1256.9223,239.4219,1256.5735,249.5895,1256.6165,259.7571,1256.9318,269.9247,1256.3086,280.0923,1257.5536,290.2599,1256.3697,300.4276,1256.8022,310.5952,1257.4319,320.7628,1256.9142,330.9304,1257.0682,341.098,1257,351.2656,1257,351.255,1255,351.3251,1253,351.3453,1251,351.4609,1249,351.4893,1247,351.2656,1247.6793,351.2656,1247.2546,341.098,1247.4636,330.9304,1247.7022,320.7628,1246.2788,310.5952,1247.6785,300.4276,1246.7035,290.2599,1247.5338,280.0923,1246.505,269.9247,1246.9315,259.7571,1247.7416,249.5895,1247,239.4219" style="stroke:#181818;stroke-width:1.0;"/><polygon fill="#FFFFFF" points="1654,276.7031,1654,276.7732,1656,276.565,1658,276.7676,1660,276.8364,1662,276.4653,1664,276.7031,1663.9741,276.7031,1663.8578,284.1594,1663.8722,291.6156,1663.9773,299.0719,1663.7695,306.5281,1664,313.9844,1664,314.1689,1662,313.7743,1660,313.9185,1658,314.1284,1656,313.9558,1654,313.9844,1654.0227,313.9844,1653.9894,306.5281,1654.0595,299.0719,1654.0797,291.6156,1654.1952,284.1594,1654,276.7031" style="stroke:#181818;stroke-width:1.0;"/><polygon fill="#181818" points="421,160.8594,421.026,160.9244,422.9487,161.5311,425.0239,162.5192,427.0495,163.3831,428.9117,163.8386,431,164.8594,430.9904,164.8353,428.9472,165.5274,426.9525,166.3407,424.9916,167.2383,422.9144,167.8454,421,168.8594,421.1305,168.9899,421.6514,167.9108,422.5534,167.2128,423.5018,166.5612,424.1798,165.6392,425,164.8594,425.0161,164.8755,424.1925,164.0518,423.4421,163.3015,422.6564,162.5157,421.938,161.7974,421,160.8594" style="stroke:#181818;stroke-width:1.0;"/><path d="M53,164.8594 L53,165.1396 L63.1081,164.3069 L73.2162,165.1171 L83.3243,165.3923 L93.4324,163.9082 L103.5405,164.7558 L113.6486,164.2907 L123.7568,164.348 L133.8649,164.7685 L143.973,163.9375 L154.0811,165.5976 L164.1892,164.019 L174.2973,164.5957 L184.4054,165.4353 L194.5135,164.745 L204.6216,164.9504 L214.7297,164.8168 L224.8378,165.0974 L234.9459,165.1782 L245.0541,165.6403 L255.1622,165.7541 L265.2703,165.7651 L275.3784,165.1989 L285.4865,165.4775 L295.5946,165.7957 L305.7027,163.8978 L315.8108,165.7641 L325.9189,164.464 L336.027,165.5711 L346.1351,164.1993 L356.2432,164.768 L366.3514,165.8482 L376.4595,164.7944 L386.5676,164.9998 L396.6757,165.3109 L406.7838,165.4144 L416.8919,164.8542 L427,164.8594 " fill="none" style="stroke:#181818;stroke-width:1.0;"/><text fill="#000000" font-family="sans-serif" font-size="20" font-weight="bold" lengthAdjust="spacing" textLength="14" x="60" y="158.1426">1</text><text fill="#000000" font-family="sans-serif" font-size="20" lengthAdjust="spacing" textLength="343" x="78" y="158.1426">select list available courses option</text><polygon fill="#181818" points="828,198.1406,828.026,198.2057,829.9487,198.8124,832.0239,199.8004,834.0495,200.6643,835.9117,201.1198,838,202.1406,837.9904,202.1166,835.9472,202.8086,833.9525,203.6219,831.9916,204.5195,829.9144,205.1267,828,206.1406,828.1305,206.2711,828.6514,205.1921,829.5534,204.494,830.5018,203.8424,831.1798,202.9204,832,202.1406,832.0161,202.1567,831.1925,201.3331,830.4421,200.5827,829.6564,199.797,828.938,199.0787,828,198.1406" style="stroke:#181818;stroke-width:1.0;"/><path d="M443,202.1406 L443,202.4209 L453.0256,201.5882 L463.0513,202.3983 L473.0769,202.6735 L483.1026,201.1894 L493.1282,202.037 L503.1538,201.572 L513.1795,201.6293 L523.2051,202.0497 L533.2308,201.2188 L543.2564,202.8788 L553.2821,201.3003 L563.3077,201.8769 L573.3333,202.7166 L583.359,202.0263 L593.3846,202.2316 L603.4103,202.098 L613.4359,202.3787 L623.4615,202.4595 L633.4872,202.9215 L643.5128,203.0354 L653.5385,203.0463 L663.5641,202.4801 L673.5897,202.7587 L683.6154,203.0769 L693.641,201.179 L703.6667,203.0453 L713.6923,201.7453 L723.7179,202.8524 L733.7436,201.4806 L743.7692,202.0493 L753.7949,203.1294 L763.8205,202.0756 L773.8462,202.281 L783.8718,202.5921 L793.8974,202.6956 L803.9231,202.1354 L813.9487,202.5236 L823.9744,201.3774 L834,202.1406 " fill="none" style="stroke:#181818;stroke-width:1.0;"/><text fill="#000000" font-family="sans-serif" font-size="20" font-weight="bold" lengthAdjust="spacing" textLength="14" x="450" y="195.4238">2</text><text fill="#000000" font-family="sans-serif" font-size="20" lengthAdjust="spacing" textLength="360" x="468" y="195.4238">availableCoursesTeacher(teacherId)</text><polygon fill="#181818" points="1235,235.4219,1235.026,235.4869,1236.9487,236.0936,1239.0239,237.0817,1241.0495,237.9456,1242.9117,238.4011,1245,239.4219,1244.9904,239.3978,1242.9472,240.0899,1240.9525,240.9032,1238.9916,241.8008,1236.9144,242.4079,1235,243.4219,1235.1305,243.5524,1235.6514,242.4733,1236.5534,241.7753,1237.5018,241.1237,1238.1798,240.2017,1239,239.4219,1239.0161,239.438,1238.1925,238.6143,1237.4421,237.864,1236.6564,237.0782,1235.938,236.3599,1235,235.4219" style="stroke:#181818;stroke-width:1.0;"/><path d="M850,239.4219 L850,239.7021 L860.0256,238.8694 L870.0513,239.6796 L880.0769,239.9548 L890.1026,238.4707 L900.1282,239.3183 L910.1538,238.8532 L920.1795,238.9105 L930.2051,239.331 L940.2308,238.5 L950.2564,240.1601 L960.2821,238.5815 L970.3077,239.1582 L980.3333,239.9978 L990.359,239.3075 L1000.3846,239.5129 L1010.4103,239.3793 L1020.4359,239.6599 L1030.4615,239.7407 L1040.4872,240.2028 L1050.5128,240.3166 L1060.5385,240.3276 L1070.5641,239.7614 L1080.5897,240.04 L1090.6154,240.3582 L1100.641,238.4603 L1110.6667,240.3266 L1120.6923,239.0265 L1130.7179,240.1336 L1140.7436,238.7618 L1150.7692,239.3305 L1160.7949,240.4107 L1170.8205,239.3569 L1180.8462,239.5623 L1190.8718,239.8734 L1200.8974,239.9769 L1210.9231,239.4167 L1220.9487,239.8048 L1230.9744,238.6587 L1241,239.4219 " fill="none" style="stroke:#181818;stroke-width:1.0;"/><text fill="#000000" font-family="sans-serif" font-size="20" font-weight="bold" lengthAdjust="spacing" textLength="14" x="857" y="232.7051">3</text><text fill="#000000" font-family="sans-serif" font-size="20" lengthAdjust="spacing" textLength="360" x="875" y="232.7051">availableCoursesTeacher(teacherId)</text><polygon fill="#181818" points="1642,272.7031,1642.026,272.7682,1643.9487,273.3749,1646.0239,274.3629,1648.0495,275.2268,1649.9117,275.6823,1652,276.7031,1651.9904,276.6791,1649.9472,277.3711,1647.9525,278.1844,1645.9916,279.082,1643.9144,279.6892,1642,280.7031,1642.1305,280.8336,1642.6514,279.7546,1643.5534,279.0565,1644.5018,278.4049,1645.1798,277.4829,1646,276.7031,1646.0161,276.7192,1645.1925,275.8956,1644.4421,275.1452,1643.6564,274.3595,1642.938,273.6412,1642,272.7031" style="stroke:#181818;stroke-width:1.0;"/><path d="M1257,276.7031 L1257,276.9834 L1267.0256,276.1507 L1277.0513,276.9608 L1287.0769,277.236 L1297.1026,275.7519 L1307.1282,276.5995 L1317.1538,276.1345 L1327.1795,276.1918 L1337.2051,276.6122 L1347.2308,275.7813 L1357.2564,277.4413 L1367.2821,275.8628 L1377.3077,276.4394 L1387.3333,277.2791 L1397.359,276.5888 L1407.3846,276.7941 L1417.4103,276.6605 L1427.4359,276.9412 L1437.4615,277.022 L1447.4872,277.484 L1457.5128,277.5979 L1467.5385,277.6088 L1477.5641,277.0426 L1487.5897,277.3212 L1497.6154,277.6394 L1507.641,275.7415 L1517.6667,277.6078 L1527.6923,276.3078 L1537.7179,277.4149 L1547.7436,276.0431 L1557.7692,276.6118 L1567.7949,277.6919 L1577.8205,276.6381 L1587.8462,276.8435 L1597.8718,277.1546 L1607.8974,277.2581 L1617.9231,276.6979 L1627.9487,277.0861 L1637.9744,275.9399 L1648,276.7031 " fill="none" style="stroke:#181818;stroke-width:1.0;"/><text fill="#000000" font-family="sans-serif" font-size="20" font-weight="bold" lengthAdjust="spacing" textLength="14" x="1264" y="269.9863">4</text><text fill="#000000" font-family="sans-serif" font-size="20" lengthAdjust="spacing" textLength="360" x="1282" y="269.9863">availableCoursesTeacher(teacherId)</text><polygon fill="#181818" points="1268,309.9844,1268.026,310.0494,1265.9487,310.6561,1264.0239,311.6442,1262.0495,312.5081,1259.9117,312.9636,1258,313.9844,1257.9904,313.9603,1259.9472,314.6524,1261.9525,315.4657,1263.9916,316.3633,1265.9144,316.9704,1268,317.9844,1268.1305,318.1149,1267.0514,317.0358,1266.3534,316.3378,1265.7018,315.6862,1264.7798,314.7642,1264,313.9844,1264.0161,314.0005,1264.7925,313.1768,1265.6421,312.4265,1266.4564,311.6407,1267.338,310.9224,1268,309.9844" style="stroke:#181818;stroke-width:1.0;"/><path d="M1262,313.9844 L1262,314.2646 L1271.9,313.4319 L1281.8,314.2421 L1291.7,314.5173 L1301.6,313.0332 L1311.5,313.8808 L1321.4,313.4157 L1331.3,313.473 L1341.2,313.8935 L1351.1,313.0625 L1361,314.7226 L1370.9,313.144 L1380.8,313.7207 L1390.7,314.5603 L1400.6,313.87 L1410.5,314.0754 L1420.4,313.9418 L1430.3,314.2224 L1440.2,314.3032 L1450.1,314.7653 L1460,314.8791 L1469.9,314.8901 L1479.8,314.3239 L1489.7,314.6025 L1499.6,314.9207 L1509.5,313.0228 L1519.4,314.8891 L1529.3,313.589 L1539.2,314.6961 L1549.1,313.3243 L1559,313.893 L1568.9,314.9732 L1578.8,313.9194 L1588.7,314.1248 L1598.6,314.4359 L1608.5,314.5394 L1618.4,313.9792 L1628.3,314.3673 L1638.2,313.2212 L1648.1,314.3636 L1658,313.9844 " fill="none" style="stroke:#181818;stroke-width:1.0;stroke-dasharray:2.0,2.0;"/><text fill="#000000" font-family="sans-serif" font-size="20" font-weight="bold" lengthAdjust="spacing" textLength="14" x="1274" y="307.2676">5</text><text fill="#000000" font-family="sans-serif" font-size="20" lengthAdjust="spacing" textLength="172" x="1292" y="307.2676">available courses</text><polygon fill="#181818" points="861,347.2656,861.026,347.3307,858.9487,347.9374,857.0239,348.9254,855.0495,349.7893,852.9117,350.2448,851,351.2656,850.9904,351.2416,852.9472,351.9336,854.9525,352.7469,856.9916,353.6445,858.9144,354.2517,861,355.2656,861.1305,355.3961,860.0514,354.3171,859.3534,353.619,858.7018,352.9674,857.7798,352.0454,857,351.2656,857.0161,351.2817,857.7925,350.4581,858.6421,349.7077,859.4564,348.922,860.338,348.2037,861,347.2656" style="stroke:#181818;stroke-width:1.0;"/><path d="M855,351.2656 L855,351.5459 L864.9,350.7132 L874.8,351.5233 L884.7,351.7985 L894.6,350.3144 L904.5,351.162 L914.4,350.697 L924.3,350.7543 L934.2,351.1747 L944.1,350.3438 L954,352.0038 L963.9,350.4253 L973.8,351.0019 L983.7,351.8416 L993.6,351.1513 L1003.5,351.3566 L1013.4,351.223 L1023.3,351.5037 L1033.2,351.5845 L1043.1,352.0465 L1053,352.1604 L1062.9,352.1713 L1072.8,351.6051 L1082.7,351.8837 L1092.6,352.2019 L1102.5,350.304 L1112.4,352.1703 L1122.3,350.8703 L1132.2,351.9774 L1142.1,350.6056 L1152,351.1743 L1161.9,352.2544 L1171.8,351.2006 L1181.7,351.406 L1191.6,351.7171 L1201.5,351.8206 L1211.4,351.2604 L1221.3,351.6486 L1231.2,350.5024 L1241.1,351.6448 L1251,351.2656 " fill="none" style="stroke:#181818;stroke-width:1.0;stroke-dasharray:2.0,2.0;"/><text fill="#000000" font-family="sans-serif" font-size="20" font-weight="bold" lengthAdjust="spacing" textLength="14" x="867" y="344.5488">6</text><text fill="#000000" font-family="sans-serif" font-size="20" lengthAdjust="spacing" textLength="172" x="885" y="344.5488">available courses</text><polygon fill="#181818" points="454,384.5469,454.026,384.6119,451.9487,385.2186,450.0239,386.2067,448.0495,387.0706,445.9117,387.5261,444,388.5469,443.9904,388.5228,445.9472,389.2149,447.9525,390.0282,449.9916,390.9258,451.9144,391.5329,454,392.5469,454.1305,392.6774,453.0514,391.5983,452.3534,390.9003,451.7018,390.2487,450.7798,389.3267,450,388.5469,450.0161,388.563,450.7925,387.7393,451.6421,386.989,452.4564,386.2032,453.338,385.4849,454,384.5469" style="stroke:#181818;stroke-width:1.0;"/><path d="M448,388.5469 L448,388.8271 L457.9,387.9944 L467.8,388.8046 L477.7,389.0798 L487.6,387.5957 L497.5,388.4433 L507.4,387.9782 L517.3,388.0355 L527.2,388.456 L537.1,387.625 L547,389.2851 L556.9,387.7065 L566.8,388.2832 L576.7,389.1228 L586.6,388.4325 L596.5,388.6379 L606.4,388.5043 L616.3,388.7849 L626.2,388.8657 L636.1,389.3278 L646,389.4416 L655.9,389.4526 L665.8,388.8864 L675.7,389.165 L685.6,389.4832 L695.5,387.5853 L705.4,389.4516 L715.3,388.1515 L725.2,389.2586 L735.1,387.8868 L745,388.4555 L754.9,389.5357 L764.8,388.4819 L774.7,388.6873 L784.6,388.9984 L794.5,389.1019 L804.4,388.5417 L814.3,388.9298 L824.2,387.7837 L834.1,388.9261 L844,388.5469 " fill="none" style="stroke:#181818;stroke-width:1.0;stroke-dasharray:2.0,2.0;"/><text fill="#000000" font-family="sans-serif" font-size="20" font-weight="bold" lengthAdjust="spacing" textLength="14" x="460" y="381.8301">7</text><text fill="#000000" font-family="sans-serif" font-size="20" lengthAdjust="spacing" textLength="172" x="478" y="381.8301">available courses</text><path d="M443,425.8281 L443,425.9215 L451.4,425.644 L459.8,425.914 L468.2,426.0058 L476.6,425.5111 L485,425.8281 " fill="none" style="stroke:#181818;stroke-width:1.0;stroke-dasharray:2.0,2.0;"/><path d="M485,425.8281 L485.0934,425.8281 L484.8159,428.4281 L485.0859,431.0281 L485.1776,433.6281 L484.6829,436.2281 L485,438.8281 " fill="none" style="stroke:#181818;stroke-width:1.0;stroke-dasharray:2.0,2.0;"/><path d="M444,438.8281 L444,438.9215 L452.2,438.644 L460.4,438.914 L468.6,439.0058 L476.8,438.5111 L485,438.8281 " fill="none" style="stroke:#181818;stroke-width:1.0;stroke-dasharray:2.0,2.0;"/><polygon fill="#181818" points="454,434.8281,454.026,434.8932,451.9487,435.4999,450.0239,436.4879,448.0495,437.3518,445.9117,437.8073,444,438.8281,443.9904,438.8041,445.9472,439.4961,447.9525,440.3094,449.9916,441.207,451.9144,441.8142,454,442.8281,454.1305,442.9586,453.0514,441.8796,452.3534,441.1815,451.7018,440.5299,450.7798,439.6079,450,438.8281,450.0161,438.8442,450.7925,438.0206,451.6421,437.2702,452.4564,436.4845,453.338,435.7662,454,434.8281" style="stroke:#181818;stroke-width:1.0;"/><text fill="#000000" font-family="sans-serif" font-size="20" font-weight="bold" lengthAdjust="spacing" textLength="14" x="450" y="419.1113">8</text><text fill="#000000" font-family="sans-serif" font-size="20" lengthAdjust="spacing" textLength="245" x="468" y="419.1113">output available courses</text><polygon fill="#181818" points="59,472.1094,59.026,472.1744,56.9487,472.7811,55.0239,473.7692,53.0495,474.6331,50.9117,475.0886,49,476.1094,48.9904,476.0853,50.9472,476.7774,52.9525,477.5907,54.9916,478.4883,56.9144,479.0954,59,480.1094,59.1305,480.2399,58.0514,479.1608,57.3534,478.4628,56.7018,477.8112,55.7798,476.8892,55,476.1094,55.0161,476.1255,55.7925,475.3018,56.6421,474.5515,57.4564,473.7657,58.338,473.0474,59,472.1094" style="stroke:#181818;stroke-width:1.0;"/><path d="M53,476.1094 L53,476.3896 L63.1053,475.5569 L73.2105,476.3671 L83.3158,476.6423 L93.4211,475.1582 L103.5263,476.0058 L113.6316,475.5407 L123.7368,475.598 L133.8421,476.0185 L143.9474,475.1875 L154.0526,476.8476 L164.1579,475.269 L174.2632,475.8457 L184.3684,476.6853 L194.4737,475.995 L204.5789,476.2004 L214.6842,476.0668 L224.7895,476.3474 L234.8947,476.4282 L245,476.8903 L255.1053,477.0041 L265.2105,477.0151 L275.3158,476.4489 L285.4211,476.7275 L295.5263,477.0457 L305.6316,475.1478 L315.7368,477.0141 L325.8421,475.714 L335.9474,476.8211 L346.0526,475.4493 L356.1579,476.018 L366.2632,477.0982 L376.3684,476.0444 L386.4737,476.2498 L396.5789,476.5609 L406.6842,476.6644 L416.7895,476.1042 L426.8947,476.4923 L437,476.1094 " fill="none" style="stroke:#181818;stroke-width:1.0;stroke-dasharray:2.0,2.0;"/><text fill="#000000" font-family="sans-serif" font-size="20" font-weight="bold" lengthAdjust="spacing" textLength="14" x="65" y="469.3926">9</text><text fill="#000000" font-family="sans-serif" font-size="20" lengthAdjust="spacing" textLength="138" x="83" y="469.3926">back to menu</text><!--SRC=[bLD1JiCm4Bpd5QkUu509SSm1gIf2giI9mWCspg9OTUp8NgU2rsF7RfAM59KznTwPMS_OSGUfExJOAYCEL4DDd-WLlnZDU_bDyFXGk1C46jJrqKfcqi3MqwpL6cr4OqrBgOEUZVPjHRPWoOfW_mnhs3X0O4BHa8KT754pi04b7GCg1TmGO8zIOHKemdZho1Kes5XuJxGYp6CfP1Uvg_8rK3SdnZOHFdOhG0TUte3T1gFMA4Lsu0YsQe6Lm7kolHGq05qlqcPH8sE5ZW8qxRnHPvmCH_uQa3OiCpGwaJqoZMOWLFw6zLCuSWcE50dEcLnc0QPZQVJ06yM2KSZbPPI9Big9dAtcENSv_rrzFz96gS4_p2fkHCdHxxzqpxIdoE2YnawSDENrxr5dusQvmq9DRLXVyJS-m4jkJRTCcRdwVIUBsZFTvR3IRUI7SbrhfdDseV5rPBBnt7d-GoDZS-8bL2WEyLzjIVkbGU4HpbQPzWC0]--></g></svg>