<?xml version="1.0" encoding="UTF-8" standalone="no"?><svg xmlns="http://www.w3.org/2000/svg" xmlns:xlink="http://www.w3.org/1999/xlink" contentStyleType="text/css" height="1124px" preserveAspectRatio="none" style="width:2576px;height:1124px;background:#FFFFFF;" version="1.1" viewBox="0 0 2576 1124" width="2576px" zoomAndPan="magnify"><defs/><g><text fill="#000000" font-family="sans-serif" font-size="14" font-weight="bold" lengthAdjust="spacing" textLength="307" x="1127.555" y="32.9951">Domain Model Extract of Class Shedule</text><!--cluster Teacher--><g id="cluster_Teacher"><path d="M57.94,63.2969 L170.94,63.2969 A3.75,3.75 0 0 1 173.44,65.7969 L180.44,112.5781 L252.94,112.5781 A2.5,2.5 0 0 1 255.44,115.0781 L255.44,513.2969 A2.5,2.5 0 0 1 252.94,515.7969 L57.94,515.7969 A2.5,2.5 0 0 1 55.44,513.2969 L55.44,65.7969 A2.5,2.5 0 0 1 57.94,63.2969 " fill="#D3D3D3" style="stroke:#000000;stroke-width:1.5;"/><line style="stroke:#000000;stroke-width:1.5;" x1="55.44" x2="180.44" y1="112.5781" y2="112.5781"/><text fill="#000000" font-family="sans-serif" font-size="20" font-weight="bold" lengthAdjust="spacing" textLength="92" x="69.44" y="93.8613">Teacher</text></g><!--cluster Student--><g id="cluster_Student"><path d="M2247.94,63.2969 L2358.94,63.2969 A3.75,3.75 0 0 1 2361.44,65.7969 L2368.44,112.5781 L2548.94,112.5781 A2.5,2.5 0 0 1 2551.44,115.0781 L2551.44,513.2969 A2.5,2.5 0 0 1 2548.94,515.7969 L2247.94,515.7969 A2.5,2.5 0 0 1 2245.44,513.2969 L2245.44,65.7969 A2.5,2.5 0 0 1 2247.94,63.2969 " fill="#D3D3D3" style="stroke:#000000;stroke-width:1.5;"/><line style="stroke:#000000;stroke-width:1.5;" x1="2245.44" x2="2368.44" y1="112.5781" y2="112.5781"/><text fill="#000000" font-family="sans-serif" font-size="20" font-weight="bold" lengthAdjust="spacing" textLength="90" x="2259.44" y="93.8613">Student</text></g><!--cluster Class--><g id="cluster_Class"><path d="M530.94,321.2969 L611.94,321.2969 A3.75,3.75 0 0 1 614.44,323.7969 L621.44,370.5781 L1228.94,370.5781 A2.5,2.5 0 0 1 1231.44,373.0781 L1231.44,1080.2969 A2.5,2.5 0 0 1 1228.94,1082.7969 L530.94,1082.7969 A2.5,2.5 0 0 1 528.44,1080.2969 L528.44,323.7969 A2.5,2.5 0 0 1 530.94,321.2969 " fill="#D3D3D3" style="stroke:#000000;stroke-width:1.5;"/><line style="stroke:#000000;stroke-width:1.5;" x1="528.44" x2="621.44" y1="370.5781" y2="370.5781"/><text fill="#000000" font-family="sans-serif" font-size="20" font-weight="bold" lengthAdjust="spacing" textLength="60" x="542.44" y="351.8613">Class</text></g><!--cluster Course--><g id="cluster_Course"><path d="M1281.94,268.2969 L1381.94,268.2969 A3.75,3.75 0 0 1 1384.44,270.7969 L1391.44,317.5781 L1910.94,317.5781 A2.5,2.5 0 0 1 1913.44,320.0781 L1913.44,1114.7969 A2.5,2.5 0 0 1 1910.94,1117.2969 L1281.94,1117.2969 A2.5,2.5 0 0 1 1279.44,1114.7969 L1279.44,270.7969 A2.5,2.5 0 0 1 1281.94,268.2969 " fill="#D3D3D3" style="stroke:#000000;stroke-width:1.5;"/><line style="stroke:#000000;stroke-width:1.5;" x1="1279.44" x2="1391.44" y1="317.5781" y2="317.5781"/><text fill="#000000" font-family="sans-serif" font-size="20" font-weight="bold" lengthAdjust="spacing" textLength="79" x="1293.44" y="298.8613">Course</text></g><!--cluster CourseEnrollment--><g id="cluster_CourseEnrollment"><path d="M1939.94,311.2969 L2164.94,311.2969 A3.75,3.75 0 0 1 2167.44,313.7969 L2174.44,360.5781 L2218.94,360.5781 A2.5,2.5 0 0 1 2221.44,363.0781 L2221.44,825.7969 A2.5,2.5 0 0 1 2218.94,828.2969 L1939.94,828.2969 A2.5,2.5 0 0 1 1937.44,825.7969 L1937.44,313.7969 A2.5,2.5 0 0 1 1939.94,311.2969 " fill="#D3D3D3" style="stroke:#000000;stroke-width:1.5;"/><line style="stroke:#000000;stroke-width:1.5;" x1="1937.44" x2="2174.44" y1="360.5781" y2="360.5781"/><text fill="#000000" font-family="sans-serif" font-size="20" font-weight="bold" lengthAdjust="spacing" textLength="204" x="1951.44" y="341.8613">CourseEnrollment</text></g><!--class Teacher--><g id="elem_Teacher"><rect codeLine="22" fill="#F1F1F1" height="104.5625" id="Teacher" rx="2.5" ry="2.5" style="stroke:#181818;stroke-width:0.5;" width="106" x="133.44" y="125.2969"/><text fill="#000000" font-family="sans-serif" font-size="20" font-style="italic" lengthAdjust="spacing" textLength="64" x="154.44" y="158.8613">«root»</text><text fill="#000000" font-family="sans-serif" font-size="20" lengthAdjust="spacing" textLength="80" x="146.44" y="202.1426">Teacher</text><line style="stroke:#181818;stroke-width:0.5;" x1="134.44" x2="238.44" y1="221.8594" y2="221.8594"/></g><!--class Acronym--><g id="elem_Acronym"><rect codeLine="25" fill="#F1F1F1" height="104.5625" id="Acronym" rx="2.5" ry="2.5" style="stroke:#181818;stroke-width:0.5;" width="169" x="70.94" y="394.7969"/><text fill="#000000" font-family="sans-serif" font-size="20" font-style="italic" lengthAdjust="spacing" textLength="147" x="81.94" y="428.3613">«value object»</text><text fill="#000000" font-family="sans-serif" font-size="20" lengthAdjust="spacing" textLength="89" x="110.94" y="471.6426">Acronym</text><line style="stroke:#181818;stroke-width:0.5;" x1="71.94" x2="238.94" y1="491.3594" y2="491.3594"/></g><!--class Student--><g id="elem_Student"><rect codeLine="29" fill="#F1F1F1" height="104.5625" id="Student" rx="2.5" ry="2.5" style="stroke:#181818;stroke-width:0.5;" width="106" x="2285.44" y="394.7969"/><text fill="#000000" font-family="sans-serif" font-size="20" font-style="italic" lengthAdjust="spacing" textLength="83" x="2296.94" y="428.3613">«entity»</text><text fill="#000000" font-family="sans-serif" font-size="20" lengthAdjust="spacing" textLength="80" x="2298.44" y="471.6426">Student</text><line style="stroke:#181818;stroke-width:0.5;" x1="2286.44" x2="2390.44" y1="491.3594" y2="491.3594"/></g><!--class MechanographicNumber--><g id="elem_MechanographicNumber"><rect codeLine="32" fill="#F1F1F1" height="104.5625" id="MechanographicNumber" rx="2.5" ry="2.5" style="stroke:#181818;stroke-width:0.5;" width="273" x="2261.94" y="125.2969"/><text fill="#000000" font-family="sans-serif" font-size="20" font-style="italic" lengthAdjust="spacing" textLength="147" x="2324.94" y="158.8613">«value object»</text><text fill="#000000" font-family="sans-serif" font-size="20" lengthAdjust="spacing" textLength="247" x="2274.94" y="202.1426">MechanographicNumber</text><line style="stroke:#181818;stroke-width:0.5;" x1="2262.94" x2="2533.94" y1="221.8594" y2="221.8594"/></g><!--class Title--><g id="elem_Title"><rect codeLine="37" fill="#F1F1F1" height="104.5625" id="Title" rx="2.5" ry="2.5" style="stroke:#181818;stroke-width:0.5;" width="169" x="543.94" y="707.2969"/><text fill="#000000" font-family="sans-serif" font-size="20" font-style="italic" lengthAdjust="spacing" textLength="147" x="554.94" y="740.8613">«value object»</text><text fill="#000000" font-family="sans-serif" font-size="20" lengthAdjust="spacing" textLength="44" x="606.44" y="784.1426">Title</text><line style="stroke:#181818;stroke-width:0.5;" x1="544.94" x2="711.94" y1="803.8594" y2="803.8594"/></g><!--class ClassType--><g id="elem_ClassType"><rect codeLine="38" fill="#F1F1F1" height="104.5625" id="ClassType" rx="2.5" ry="2.5" style="stroke:#181818;stroke-width:0.5;" width="126" x="793.44" y="707.2969"/><text fill="#000000" font-family="sans-serif" font-size="20" font-style="italic" lengthAdjust="spacing" textLength="82" x="815.44" y="740.8613">«enum»</text><text fill="#000000" font-family="sans-serif" font-size="20" lengthAdjust="spacing" textLength="100" x="806.44" y="784.1426">ClassType</text><line style="stroke:#181818;stroke-width:0.5;" x1="794.44" x2="918.44" y1="803.8594" y2="803.8594"/></g><g id="elem_GMN11"><path d="M789.44,989.7969 L789.44,1066.3594 A0,0 0 0 0 789.44,1066.3594 L923.44,1066.3594 A0,0 0 0 0 923.44,1066.3594 L923.44,999.7969 L913.44,989.7969 L860.44,989.7969 L856.44,812.5269 L852.44,989.7969 L789.44,989.7969 A0,0 0 0 0 789.44,989.7969 " fill="#A9A9A9" style="stroke:#181818;stroke-width:0.5;"/><path d="M913.44,989.7969 L913.44,999.7969 L923.44,999.7969 L913.44,989.7969 " fill="#A9A9A9" style="stroke:#181818;stroke-width:0.5;"/><text fill="#000000" font-family="sans-serif" font-size="20" lengthAdjust="spacing" textLength="51" x="805.44" y="1023.3613">extra</text><text fill="#000000" font-family="sans-serif" font-size="20" lengthAdjust="spacing" textLength="93" x="805.44" y="1046.6426">recurrent</text></g><!--class Class--><g id="elem_Class"><rect codeLine="44" fill="#F1F1F1" height="127.8438" id="Class" rx="2.5" ry="2.5" style="stroke:#181818;stroke-width:0.5;" width="141" x="592.94" y="383.2969"/><text fill="#000000" font-family="sans-serif" font-size="20" font-style="italic" lengthAdjust="spacing" textLength="64" x="631.44" y="416.8613">«root»</text><text fill="#000000" font-family="sans-serif" font-size="20" font-style="italic" lengthAdjust="spacing" textLength="119" x="603.94" y="440.1426">«Temporal»</text><text fill="#000000" font-family="sans-serif" font-size="20" lengthAdjust="spacing" textLength="52" x="637.44" y="483.4238">Class</text><line style="stroke:#181818;stroke-width:0.5;" x1="593.94" x2="732.94" y1="503.1406" y2="503.1406"/></g><!--class TimestampInterval--><g id="elem_TimestampInterval"><rect codeLine="47" fill="#F1F1F1" height="191.125" id="TimestampInterval" rx="2.5" ry="2.5" style="stroke:#181818;stroke-width:0.5;" width="215" x="999.94" y="664.2969"/><text fill="#000000" font-family="sans-serif" font-size="20" font-style="italic" lengthAdjust="spacing" textLength="147" x="1033.94" y="697.8613">«value object»</text><text fill="#000000" font-family="sans-serif" font-size="20" lengthAdjust="spacing" textLength="189" x="1012.94" y="741.1426">TimestampInterval</text><line style="stroke:#181818;stroke-width:0.5;" x1="1000.94" x2="1213.94" y1="760.8594" y2="760.8594"/><rect fill="none" height="6" style="stroke:#C82930;stroke-width:1.0;" width="6" x="1007.94" y="785"/><text fill="#000000" font-family="sans-serif" font-size="20" lengthAdjust="spacing" textLength="46" x="1030.94" y="793.4238">start</text><rect fill="none" height="6" style="stroke:#C82930;stroke-width:1.0;" width="6" x="1007.94" y="828.2813"/><text fill="#000000" font-family="sans-serif" font-size="20" lengthAdjust="spacing" textLength="38" x="1030.94" y="836.7051">end</text></g><!--class Course--><g id="elem_Course"><rect codeLine="54" fill="#F1F1F1" height="234.4063" id="Course" rx="2.5" ry="2.5" style="stroke:#181818;stroke-width:0.5;" width="263" x="1363.94" y="330.2969"/><text fill="#000000" font-family="sans-serif" font-size="20" font-style="italic" lengthAdjust="spacing" textLength="64" x="1463.44" y="363.8613">«root»</text><text fill="#000000" font-family="sans-serif" font-size="20" lengthAdjust="spacing" textLength="69" x="1460.94" y="407.1426">Course</text><line style="stroke:#181818;stroke-width:0.5;" x1="1364.94" x2="1625.94" y1="426.8594" y2="426.8594"/><rect fill="none" height="6" style="stroke:#C82930;stroke-width:1.0;" width="6" x="1371.94" y="451"/><text fill="#000000" font-family="sans-serif" font-size="20" lengthAdjust="spacing" textLength="87" x="1394.94" y="459.4238">courseID</text><rect fill="none" height="6" style="stroke:#C82930;stroke-width:1.0;" width="6" x="1371.94" y="494.2813"/><text fill="#000000" font-family="sans-serif" font-size="20" lengthAdjust="spacing" textLength="212" x="1394.94" y="502.7051">minEnrolledStudents</text><rect fill="none" height="6" style="stroke:#C82930;stroke-width:1.0;" width="6" x="1371.94" y="537.5625"/><text fill="#000000" font-family="sans-serif" font-size="20" lengthAdjust="spacing" textLength="216" x="1394.94" y="545.9863">maxEnrolledStudents</text></g><!--class State--><g id="elem_State"><rect codeLine="60" fill="#F1F1F1" height="104.5625" id="State" rx="2.5" ry="2.5" style="stroke:#181818;stroke-width:0.5;" width="104" x="1295.44" y="707.2969"/><text fill="#000000" font-family="sans-serif" font-size="20" font-style="italic" lengthAdjust="spacing" textLength="82" x="1306.44" y="740.8613">«enum»</text><text fill="#000000" font-family="sans-serif" font-size="20" lengthAdjust="spacing" textLength="53" x="1320.94" y="784.1426">State</text><line style="stroke:#181818;stroke-width:0.5;" x1="1296.44" x2="1398.44" y1="803.8594" y2="803.8594"/></g><g id="elem_GMN19"><path d="M1295.44,955.2969 L1295.44,1101.7031 A0,0 0 0 0 1295.44,1101.7031 L1451.44,1101.7031 A0,0 0 0 0 1451.44,1101.7031 L1451.44,965.2969 L1441.44,955.2969 L1351.44,955.2969 L1347.44,812.5269 L1343.44,955.2969 L1295.44,955.2969 A0,0 0 0 0 1295.44,955.2969 " fill="#A9A9A9" style="stroke:#181818;stroke-width:0.5;"/><path d="M1441.44,955.2969 L1441.44,965.2969 L1451.44,965.2969 L1441.44,955.2969 " fill="#A9A9A9" style="stroke:#181818;stroke-width:0.5;"/><text fill="#000000" font-family="sans-serif" font-size="20" lengthAdjust="spacing" textLength="50" x="1311.44" y="988.8613">open</text><text fill="#000000" font-family="sans-serif" font-size="20" lengthAdjust="spacing" textLength="51" x="1311.44" y="1012.1426">close</text><text fill="#000000" font-family="sans-serif" font-size="20" lengthAdjust="spacing" textLength="57" x="1311.44" y="1035.4238">enroll</text><text fill="#000000" font-family="sans-serif" font-size="20" lengthAdjust="spacing" textLength="115" x="1311.44" y="1058.7051">in_progress</text><text fill="#000000" font-family="sans-serif" font-size="20" lengthAdjust="spacing" textLength="64" x="1311.44" y="1081.9863">closed</text></g><!--class title--><g id="elem_title"><rect codeLine="70" fill="#F1F1F1" height="104.5625" id="title" rx="2.5" ry="2.5" style="stroke:#181818;stroke-width:0.5;" width="169" x="1479.94" y="707.2969"/><text fill="#000000" font-family="sans-serif" font-size="20" font-style="italic" lengthAdjust="spacing" textLength="147" x="1490.94" y="740.8613">«value object»</text><text fill="#000000" font-family="sans-serif" font-size="20" lengthAdjust="spacing" textLength="40" x="1544.44" y="784.1426">title</text><line style="stroke:#181818;stroke-width:0.5;" x1="1480.94" x2="1647.94" y1="803.8594" y2="803.8594"/></g><!--class description--><g id="elem_description"><rect codeLine="71" fill="#F1F1F1" height="104.5625" id="description" rx="2.5" ry="2.5" style="stroke:#181818;stroke-width:0.5;" width="169" x="1728.94" y="707.2969"/><text fill="#000000" font-family="sans-serif" font-size="20" font-style="italic" lengthAdjust="spacing" textLength="147" x="1739.94" y="740.8613">«value object»</text><text fill="#000000" font-family="sans-serif" font-size="20" lengthAdjust="spacing" textLength="112" x="1757.44" y="784.1426">description</text><line style="stroke:#181818;stroke-width:0.5;" x1="1729.94" x2="1896.94" y1="803.8594" y2="803.8594"/></g><!--class CourseEnrollment--><g id="elem_CourseEnrollment"><rect codeLine="75" fill="#F1F1F1" height="104.5625" id="CourseEnrollment" rx="2.5" ry="2.5" style="stroke:#181818;stroke-width:0.5;" width="206" x="1978.44" y="707.2969"/><text fill="#000000" font-family="sans-serif" font-size="20" font-style="italic" lengthAdjust="spacing" textLength="64" x="2049.44" y="740.8613">«root»</text><text fill="#000000" font-family="sans-serif" font-size="20" lengthAdjust="spacing" textLength="180" x="1991.44" y="784.1426">CourseEnrollment</text><line style="stroke:#181818;stroke-width:0.5;" x1="1979.44" x2="2183.44" y1="803.8594" y2="803.8594"/></g><!--class EnrollmentApplication--><g id="elem_EnrollmentApplication"><rect codeLine="77" fill="#F1F1F1" height="147.8438" id="EnrollmentApplication" rx="2.5" ry="2.5" style="stroke:#181818;stroke-width:0.5;" width="251" x="1953.94" y="373.2969"/><text fill="#000000" font-family="sans-serif" font-size="20" font-style="italic" lengthAdjust="spacing" textLength="83" x="2037.94" y="406.8613">«entity»</text><text fill="#000000" font-family="sans-serif" font-size="20" lengthAdjust="spacing" textLength="225" x="1966.94" y="450.1426">EnrollmentApplication</text><line style="stroke:#181818;stroke-width:0.5;" x1="1954.94" x2="2203.94" y1="469.8594" y2="469.8594"/><rect fill="none" height="6" style="stroke:#C82930;stroke-width:1.0;" width="6" x="1961.94" y="494"/><text fill="#000000" font-family="sans-serif" font-size="20" lengthAdjust="spacing" textLength="118" x="1984.94" y="502.4238">aplicationId</text></g><!--class ScheduleService--><g id="elem_ScheduleService"><rect codeLine="83" fill="#F1F1F1" height="104.5625" id="ScheduleService" rx="2.5" ry="2.5" style="stroke:#181818;stroke-width:0.5;" width="192" x="320.44" y="394.7969"/><text fill="#000000" font-family="sans-serif" font-size="20" font-style="italic" lengthAdjust="spacing" textLength="95" x="368.94" y="428.3613">«service»</text><text fill="#000000" font-family="sans-serif" font-size="20" lengthAdjust="spacing" textLength="166" x="333.44" y="471.6426">ScheduleService</text><line style="stroke:#181818;stroke-width:0.5;" x1="321.44" x2="511.44" y1="491.3594" y2="491.3594"/></g><!--link Course to description--><g id="link_Course_description"><path codeLine="85" d="M1627.08,550.2969 C1714.56,550.2969 1813.44,550.2969 1813.44,550.2969 C1813.44,550.2969 1813.44,702.1969 1813.44,702.1969 " fill="none" id="Course-to-description" style="stroke:#181818;stroke-width:1.0;"/><polygon fill="#181818" points="1813.44,707.1969,1817.44,698.1969,1813.44,702.1969,1809.44,698.1969,1813.44,707.1969" style="stroke:#181818;stroke-width:1.0;"/><text fill="#000000" font-family="sans-serif" font-size="20" lengthAdjust="spacing" textLength="35" x="1750.21" y="534.8613">has</text></g><!--link Course to title--><g id="link_Course_title"><path codeLine="86" d="M1553.44,564.5469 C1553.44,564.5469 1553.44,701.9769 1553.44,701.9769 " fill="none" id="Course-to-title" style="stroke:#181818;stroke-width:1.0;"/><polygon fill="#181818" points="1553.44,706.9769,1557.44,697.9769,1553.44,701.9769,1549.44,697.9769,1553.44,706.9769" style="stroke:#181818;stroke-width:1.0;"/><text fill="#000000" font-family="sans-serif" font-size="20" lengthAdjust="spacing" textLength="35" x="1507.44" y="662.8313">has</text></g><!--link Course to State--><g id="link_Course_State"><path codeLine="87" d="M1381.69,564.5469 C1381.69,564.5469 1381.69,701.9769 1381.69,701.9769 " fill="none" id="Course-to-State" style="stroke:#181818;stroke-width:1.0;"/><polygon fill="#181818" points="1381.69,706.9769,1385.69,697.9769,1381.69,701.9769,1377.69,697.9769,1381.69,706.9769" style="stroke:#181818;stroke-width:1.0;"/><text fill="#000000" font-family="sans-serif" font-size="20" lengthAdjust="spacing" textLength="35" x="1335.69" y="662.8313">has</text></g><!--reverse link MechanographicNumber to Student--><g id="link_MechanographicNumber_Student"><path codeLine="89" d="M2338.44,235.3969 C2338.44,235.3969 2338.44,394.3669 2338.44,394.3669 " fill="none" id="MechanographicNumber-backto-Student" style="stroke:#181818;stroke-width:1.0;"/><polygon fill="#181818" points="2338.44,230.3969,2334.44,239.3969,2338.44,235.3969,2342.44,239.3969,2338.44,230.3969" style="stroke:#181818;stroke-width:1.0;"/><text fill="#000000" font-family="sans-serif" font-size="20" lengthAdjust="spacing" textLength="35" x="2292.44" y="299.4513">has</text></g><!--link Teacher to Acronym--><g id="link_Teacher_Acronym"><path codeLine="91" d="M148.59,230.3969 C148.59,230.3969 148.59,389.3669 148.59,389.3669 " fill="none" id="Teacher-to-Acronym" style="stroke:#181818;stroke-width:1.0;"/><polygon fill="#181818" points="148.59,394.3669,152.59,385.3669,148.59,389.3669,144.59,385.3669,148.59,394.3669" style="stroke:#181818;stroke-width:1.0;"/><text fill="#000000" font-family="sans-serif" font-size="20" lengthAdjust="spacing" textLength="35" x="102.59" y="339.4513">has</text></g><!--reverse link Course to CourseEnrollment--><g id="link_Course_CourseEnrollment"><path codeLine="93" d="M1632.23,536.2969 C1632.23,536.2969 2047.11,536.2969 2047.11,536.2969 C2047.11,536.2969 2047.11,641.0369 2047.11,707.1169 " fill="none" id="Course-backto-CourseEnrollment" style="stroke:#181818;stroke-width:1.0;"/><polygon fill="#181818" points="1627.23,536.2969,1636.23,540.2969,1632.23,536.2969,1636.23,532.2969,1627.23,536.2969" style="stroke:#181818;stroke-width:1.0;"/><text fill="#000000" font-family="sans-serif" font-size="20" lengthAdjust="spacing" textLength="41" x="1873.08" y="520.8613">is of</text></g><!--link EnrollmentApplication to Student--><g id="link_EnrollmentApplication_Student"><path codeLine="94" d="M2205.15,447.2969 C2205.15,447.2969 2280.18,447.2969 2280.18,447.2969 " fill="none" id="EnrollmentApplication-to-Student" style="stroke:#181818;stroke-width:1.0;"/><polygon fill="#181818" points="2285.18,447.2969,2276.18,443.2969,2280.18,447.2969,2276.18,451.2969,2285.18,447.2969" style="stroke:#181818;stroke-width:1.0;"/><text fill="#000000" font-family="sans-serif" font-size="20" lengthAdjust="spacing" textLength="41" x="2222.16" y="476.8613">is of</text></g><!--reverse link EnrollmentApplication to CourseEnrollment--><g id="link_EnrollmentApplication_CourseEnrollment"><path codeLine="95" d="M2115.78,526.3569 C2115.78,526.3569 2115.78,707.2769 2115.78,707.2769 " fill="none" id="EnrollmentApplication-backto-CourseEnrollment" style="stroke:#181818;stroke-width:1.0;"/><polygon fill="#181818" points="2115.78,521.3569,2111.78,530.3569,2115.78,526.3569,2119.78,530.3569,2115.78,521.3569" style="stroke:#181818;stroke-width:1.0;"/><text fill="#000000" font-family="sans-serif" font-size="20" lengthAdjust="spacing" textLength="35" x="2069.78" y="601.3813">has</text></g><!--link Student to CourseEnrollment--><g id="link_Student_CourseEnrollment"><path codeLine="97" d="M2356.11,500.0369 C2356.11,589.2369 2356.11,760.2969 2356.11,760.2969 C2356.11,760.2969 2189.5,760.2969 2189.5,760.2969 " fill="none" id="Student-to-CourseEnrollment" style="stroke:#181818;stroke-width:1.0;stroke-dasharray:7.0,7.0;"/><polygon fill="#181818" points="2184.5,760.2969,2193.5,764.2969,2189.5,760.2969,2193.5,756.2969,2184.5,760.2969" style="stroke:#181818;stroke-width:1.0;"/><text fill="#000000" font-family="sans-serif" font-size="20" lengthAdjust="spacing" textLength="191" x="2367.11" y="698.0413">creates application</text></g><!--reverse link Student to Class--><g id="link_Student_Class"><path codeLine="98" d="M2320.78,505.1369 C2320.78,505.1369 2320.78,614.2969 2320.78,614.2969 C2320.78,614.2969 728.69,614.2969 728.69,614.2969 C728.69,614.2969 728.69,558.4769 728.69,511.3869 " fill="none" id="Student-backto-Class" style="stroke:#181818;stroke-width:1.0;"/><polygon fill="#181818" points="2320.78,500.1369,2316.78,509.1369,2320.78,505.1369,2324.78,509.1369,2320.78,500.1369" style="stroke:#181818;stroke-width:1.0;"/><text fill="#000000" font-family="sans-serif" font-size="20" lengthAdjust="spacing" textLength="161" x="1355.86" y="598.8613">has participants</text><text fill="#000000" font-family="sans-serif" font-size="20" lengthAdjust="spacing" textLength="10" x="2297.6671" y="535.8211">*</text></g><!--link Teacher to Course--><g id="link_Teacher_Course"><path codeLine="100" d="M224.3,230.6869 C224.3,283.6269 224.3,357.2969 224.3,357.2969 C224.3,357.2969 1358.9,357.2969 1358.9,357.2969 " fill="none" id="Teacher-to-Course" style="stroke:#181818;stroke-width:1.0;"/><polygon fill="#181818" points="1363.9,357.2969,1354.9,353.2969,1358.9,357.2969,1354.9,361.2969,1363.9,357.2969" style="stroke:#181818;stroke-width:1.0;"/><text fill="#000000" font-family="sans-serif" font-size="20" lengthAdjust="spacing" textLength="103" x="614.29" y="341.8613">teaches in</text><text fill="#000000" font-family="sans-serif" font-size="20" lengthAdjust="spacing" textLength="15" x="257.136" y="229.3479">N</text><text fill="#000000" font-family="sans-serif" font-size="20" lengthAdjust="spacing" textLength="15" x="1330.7494" y="336.7603">N</text></g><!--link Teacher to ScheduleService--><g id="link_Teacher_ScheduleService"><path codeLine="101" d="M239.72,152.2969 C320.44,152.2969 464.44,152.2969 464.44,152.2969 C464.44,152.2969 464.44,389.5569 464.44,389.5569 " fill="none" id="Teacher-to-ScheduleService" style="stroke:#181818;stroke-width:1.0;stroke-dasharray:7.0,7.0;"/><polygon fill="#181818" points="464.44,394.5569,468.44,385.5569,464.44,389.5569,460.44,385.5569,464.44,394.5569" style="stroke:#181818;stroke-width:1.0;"/><text fill="#000000" font-family="sans-serif" font-size="20" lengthAdjust="spacing" textLength="276" x="475.44" y="143.1313">schedules recurrent classes</text></g><!--link Teacher to ScheduleService--><g id="link_Teacher_ScheduleService"><path codeLine="102" d="M239.5,178.2969 C307.42,178.2969 416.44,178.2969 416.44,178.2969 C416.44,178.2969 416.44,389.7969 416.44,389.7969 " fill="none" id="Teacher-to-ScheduleService-1" style="stroke:#181818;stroke-width:1.0;stroke-dasharray:7.0,7.0;"/><polygon fill="#181818" points="416.44,394.7969,420.44,385.7969,416.44,389.7969,412.44,385.7969,416.44,394.7969" style="stroke:#181818;stroke-width:1.0;"/><text fill="#000000" font-family="sans-serif" font-size="20" lengthAdjust="spacing" textLength="197" x="427.44" y="225.1413">reschedules classes</text></g><!--link Teacher to ScheduleService--><g id="link_Teacher_ScheduleService"><path codeLine="103" d="M239.57,204.2969 C293.29,204.2969 368.44,204.2969 368.44,204.2969 C368.44,204.2969 368.44,389.5669 368.44,389.5669 " fill="none" id="Teacher-to-ScheduleService-2" style="stroke:#181818;stroke-width:1.0;stroke-dasharray:7.0,7.0;"/><polygon fill="#181818" points="368.44,394.5669,372.44,385.5669,368.44,389.5669,364.44,385.5669,368.44,394.5669" style="stroke:#181818;stroke-width:1.0;"/><text fill="#000000" font-family="sans-serif" font-size="20" lengthAdjust="spacing" textLength="234" x="123.44" y="262.0613">schedules extra classes</text></g><!--link Teacher to Class--><g id="link_Teacher_Class"><path codeLine="105" d="M209.16,230.4069 C209.16,292.1769 209.16,386.2969 209.16,386.2969 C209.16,386.2969 587.46,386.2969 587.46,386.2969 " fill="none" id="Teacher-to-Class" style="stroke:#181818;stroke-width:1.0;stroke-dasharray:7.0,7.0;"/><polygon fill="#181818" points="592.46,386.2969,583.46,382.2969,587.46,386.2969,583.46,390.2969,592.46,386.2969" style="stroke:#181818;stroke-width:1.0;"/><text fill="#000000" font-family="sans-serif" font-size="20" lengthAdjust="spacing" textLength="264" x="331.37" y="370.8613">schedule a recurring Class</text></g><!--link Teacher to Class--><g id="link_Teacher_Class"><path codeLine="106" d="M194.01,230.3769 C194.01,292.7169 194.01,388.2969 194.01,388.2969 C194.01,388.2969 587.91,388.2969 587.91,388.2969 " fill="none" id="Teacher-to-Class-1" style="stroke:#181818;stroke-width:1.0;stroke-dasharray:7.0,7.0;"/><polygon fill="#181818" points="592.91,388.2969,583.91,384.2969,587.91,388.2969,583.91,392.2969,592.91,388.2969" style="stroke:#181818;stroke-width:1.0;"/><text fill="#000000" font-family="sans-serif" font-size="20" lengthAdjust="spacing" textLength="284" x="17" y="372.8613">reschedule a recurring Class</text></g><!--link Teacher to Class--><g id="link_Teacher_Class"><path codeLine="107" d="M178.87,230.3269 C178.87,293.2569 178.87,390.2969 178.87,390.2969 C178.87,390.2969 587.72,390.2969 587.72,390.2969 " fill="none" id="Teacher-to-Class-2" style="stroke:#181818;stroke-width:1.0;stroke-dasharray:7.0,7.0;"/><polygon fill="#181818" points="592.72,390.2969,583.72,386.2969,587.72,390.2969,583.72,394.2969,592.72,390.2969" style="stroke:#181818;stroke-width:1.0;"/><text fill="#000000" font-family="sans-serif" font-size="20" lengthAdjust="spacing" textLength="236" x="56.31" y="419.8613">schedule an extra Class</text></g><!--link Class to Teacher--><g id="link_Class_Teacher"><path codeLine="113" d="M592.91,393.2969 C455.16,393.2969 163.73,393.2969 163.73,393.2969 C163.73,393.2969 163.73,235.5169 163.73,235.5169 " fill="none" id="Class-to-Teacher" style="stroke:#181818;stroke-width:1.0;"/><polygon fill="#181818" points="163.73,230.5169,159.73,239.5169,163.73,235.5169,167.73,239.5169,163.73,230.5169" style="stroke:#181818;stroke-width:1.0;"/><text fill="#000000" font-family="sans-serif" font-size="20" lengthAdjust="spacing" textLength="135" x="310.43" y="377.8613">is lectured by</text></g><!--link Class to ClassType--><g id="link_Class_ClassType"><path codeLine="109" d="M718.19,511.3969 C718.19,602.9669 718.19,760.2969 718.19,760.2969 C718.19,760.2969 788.39,760.2969 788.39,760.2969 " fill="none" id="Class-to-ClassType" style="stroke:#181818;stroke-width:1.0;"/><polygon fill="#181818" points="793.39,760.2969,784.39,756.2969,788.39,760.2969,784.39,764.2969,793.39,760.2969" style="stroke:#181818;stroke-width:1.0;"/><text fill="#000000" font-family="sans-serif" font-size="20" lengthAdjust="spacing" textLength="35" x="672.19" y="655.5013">has</text></g><!--link Class to Title--><g id="link_Class_Title"><path codeLine="110" d="M652.94,511.6669 C652.94,511.6669 652.94,702.1669 652.94,702.1669 " fill="none" id="Class-to-Title" style="stroke:#181818;stroke-width:1.0;"/><polygon fill="#181818" points="652.94,707.1669,656.94,698.1669,652.94,702.1669,648.94,698.1669,652.94,707.1669" style="stroke:#181818;stroke-width:1.0;"/><text fill="#000000" font-family="sans-serif" font-size="20" lengthAdjust="spacing" textLength="35" x="606.94" y="591.4813">has</text></g><!--link Class to TimestampInterval--><g id="link_Class_TimestampInterval"><path codeLine="111" d="M723.44,511.3469 C723.44,582.1369 723.44,686.2969 723.44,686.2969 C723.44,686.2969 994.71,686.2969 994.71,686.2969 " fill="none" id="Class-to-TimestampInterval" style="stroke:#181818;stroke-width:1.0;"/><polygon fill="#181818" points="999.71,686.2969,990.71,682.2969,994.71,686.2969,990.71,690.2969,999.71,686.2969" style="stroke:#181818;stroke-width:1.0;"/><text fill="#000000" font-family="sans-serif" font-size="20" lengthAdjust="spacing" textLength="35" x="725.6" y="715.8613">has</text></g><!--link Class to Course--><g id="link_Class_Course"><path codeLine="112" d="M734.02,447.2969 C734.02,447.2969 1358.86,447.2969 1358.86,447.2969 " fill="none" id="Class-to-Course" style="stroke:#181818;stroke-width:1.0;"/><polygon fill="#181818" points="1363.86,447.2969,1354.86,443.2969,1358.86,447.2969,1354.86,451.2969,1363.86,447.2969" style="stroke:#181818;stroke-width:1.0;"/><text fill="#000000" font-family="sans-serif" font-size="20" lengthAdjust="spacing" textLength="41" x="994.44" y="431.8613">is of</text></g><!--link ScheduleService to Class--><g id="link_ScheduleService_Class"><path codeLine="115" d="M512.65,447.2969 C512.65,447.2969 587.74,447.2969 587.74,447.2969 " fill="none" id="ScheduleService-to-Class" style="stroke:#181818;stroke-width:1.0;stroke-dasharray:7.0,7.0;"/><polygon fill="#181818" points="592.74,447.2969,583.74,443.2969,587.74,447.2969,583.74,451.2969,592.74,447.2969" style="stroke:#181818;stroke-width:1.0;"/><text fill="#000000" font-family="sans-serif" font-size="20" lengthAdjust="spacing" textLength="100" x="500.19" y="476.8613">schedules</text></g><!--SRC=[dLPBJnin4BxxLupIGwLAMQ2zj54KYGALEC0bt2l7EsJTUEsLxQr8KVzxnrvlzaaB1PHuPxvvVJFZnHsahhZbfJBYW3da-CXhvRyPxRVo5yB7S_Q-yBvogxEpId7jwr9bmfHdPlS3XL_cak_9cZ4llK9ON9kIImrt9aS5Dq_USk71FCALuix1ji2yLhXW2XyzU0DMxWiFkRJaInhDlAc2U6UyDsLFxjeqeU9vBlKUBivxGatX75RmkI-qN1-2yEAyBzrRKrUtka0hFTS2uQAdL5AZFrO8nlh2z1JaXxv3Ai5Ttz-zyVYLYqFmg_Cheuo5TvTVmkyWQt7WUuHd1lGpmLz_2hzH5vdtH-9oPrJEVZDMo1n1I2iKDkSIARdSCTPwVK0kgA3WN4IUam3MQskCtsnYN7BLwY-5DVfOaludLpML6vkvsJp_3W5RjrjVvwXzvpO9o8m-fJ-ImT3l7Og2QqCJKHLItDVbBYOn5-GK9Kv6B_KuHpCsBI3Y7qAJGXfrcPIQ-j3EJJjl4TLG3e1X6DEPnggsbeeOfjyCwOcqzVe1oyfOhdg5TdcMw3mlQPOyMifscdCAjYIOzUq3wZmU1qnVcTewx4XedeVj8riGKNvxdHvBgM-qDKfXdbhZMWr_cj740W9dr4dkEmBXEMf653QO9hIfKAVYZSDumkW_7gN-NbdgEZhNWV8Xjpxr5LviBAsmiBAAIpQ7c_3LL5WEHdIiwN7OIwRJNrQLaeAdeErOjuJpa_8sbKD_QHT4SvTjgVbIXCfSSqgXcaIorCdbSjElRmK5TpEGID9BoYI9RMamR7xVbilKyonz9tIw5RBsTWXEsviWGOPHoTE4q6p2y0gaetbX4-Gyoo7gAB-tkdXjNh6aSQmisxpAM5WaeXtmBl34r-B3eaacZ4JMN1ynB5turaiXAnusRyByudv1DD0d30bVWOy8HoirCGg9ZwTk1Iv9N7UfDKEExfKUQ6rFFjvcsTd5o_LaFMlUvwXd2pmb7bxgKVjFwtxA_s4-2AvJweqfw-FYpdNFyMMITdCMrRov_euOlpDUG8-68Yt723MkC-8KtPQrfN_aTaSQ_L77faIUEiZO7m00]--></g></svg>