<?xml version="1.0" encoding="UTF-8" standalone="no"?><svg xmlns="http://www.w3.org/2000/svg" xmlns:xlink="http://www.w3.org/1999/xlink" contentStyleType="text/css" height="663px" preserveAspectRatio="none" style="width:599px;height:663px;background:#FFFFFF;" version="1.1" viewBox="0 0 599 663" width="599px" zoomAndPan="magnify"><defs/><g><text fill="#000000" font-family="sans-serif" font-size="14" font-weight="bold" lengthAdjust="spacing" textLength="272" x="165" y="27.9951">Teacher Recurring Class Schedule</text><rect fill="none" height="154.6875" style="stroke:#000000;stroke-width:1.5;" width="583" x="10" y="366.2656"/><line style="stroke:#181818;stroke-width:0.5;stroke-dasharray:5.0,5.0;" x1="61" x2="61" y1="125.5781" y2="575.2344"/><line style="stroke:#181818;stroke-width:0.5;stroke-dasharray:5.0,5.0;" x1="539" x2="539" y1="125.5781" y2="575.2344"/><text fill="#000000" font-family="sans-serif" font-size="20" lengthAdjust="spacing" textLength="76" x="20" y="120.8613">teacher</text><ellipse cx="61" cy="50.7969" fill="#E2E2F0" rx="8" ry="8" style="stroke:#181818;stroke-width:0.5;"/><path d="M61,58.7969 L61,85.7969 M48,66.7969 L74,66.7969 M61,85.7969 L48,100.7969 M61,85.7969 L74,100.7969 " fill="none" style="stroke:#181818;stroke-width:0.5;"/><text fill="#000000" font-family="sans-serif" font-size="20" lengthAdjust="spacing" textLength="76" x="20" y="592.7988">teacher</text><ellipse cx="61" cy="606.0156" fill="#E2E2F0" rx="8" ry="8" style="stroke:#181818;stroke-width:0.5;"/><path d="M61,614.0156 L61,641.0156 M48,622.0156 L74,622.0156 M61,641.0156 L48,656.0156 M61,641.0156 L74,656.0156 " fill="none" style="stroke:#181818;stroke-width:0.5;"/><rect fill="#E2E2F0" height="37.2813" rx="2.5" ry="2.5" style="stroke:#181818;stroke-width:0.5;" width="88" x="495" y="87.2969"/><text fill="#000000" font-family="sans-serif" font-size="20" lengthAdjust="spacing" textLength="74" x="502" y="112.8613">System</text><rect fill="#E2E2F0" height="37.2813" rx="2.5" ry="2.5" style="stroke:#181818;stroke-width:0.5;" width="88" x="495" y="574.2344"/><text fill="#000000" font-family="sans-serif" font-size="20" lengthAdjust="spacing" textLength="74" x="502" y="599.7988">System</text><polygon fill="#181818" points="527,160.8594,537,164.8594,527,168.8594,531,164.8594" style="stroke:#181818;stroke-width:1.0;"/><line style="stroke:#181818;stroke-width:1.0;" x1="61" x2="533" y1="164.8594" y2="164.8594"/><text fill="#000000" font-family="sans-serif" font-size="20" font-weight="bold" lengthAdjust="spacing" textLength="14" x="68" y="158.1426">1</text><text fill="#000000" font-family="sans-serif" font-size="20" lengthAdjust="spacing" textLength="281" x="86" y="158.1426">Request new class schedule</text><polygon fill="#181818" points="72,198.1406,62,202.1406,72,206.1406,68,202.1406" style="stroke:#181818;stroke-width:1.0;"/><line style="stroke:#181818;stroke-width:1.0;stroke-dasharray:2.0,2.0;" x1="66" x2="538" y1="202.1406" y2="202.1406"/><text fill="#000000" font-family="sans-serif" font-size="20" font-weight="bold" lengthAdjust="spacing" textLength="14" x="78" y="195.4238">2</text><text fill="#000000" font-family="sans-serif" font-size="20" lengthAdjust="spacing" textLength="206" x="96" y="195.4238">Ask teacher's course</text><polygon fill="#181818" points="527,235.4219,537,239.4219,527,243.4219,531,239.4219" style="stroke:#181818;stroke-width:1.0;"/><line style="stroke:#181818;stroke-width:1.0;" x1="61" x2="533" y1="239.4219" y2="239.4219"/><text fill="#000000" font-family="sans-serif" font-size="20" font-weight="bold" lengthAdjust="spacing" textLength="14" x="68" y="232.7051">3</text><text fill="#000000" font-family="sans-serif" font-size="20" lengthAdjust="spacing" textLength="134" x="86" y="232.7051">Select course</text><polygon fill="#181818" points="72,272.7031,62,276.7031,72,280.7031,68,276.7031" style="stroke:#181818;stroke-width:1.0;"/><line style="stroke:#181818;stroke-width:1.0;stroke-dasharray:2.0,2.0;" x1="66" x2="538" y1="276.7031" y2="276.7031"/><text fill="#000000" font-family="sans-serif" font-size="20" font-weight="bold" lengthAdjust="spacing" textLength="14" x="78" y="269.9863">4</text><text fill="#000000" font-family="sans-serif" font-size="20" lengthAdjust="spacing" textLength="223" x="96" y="269.9863">Show course schedule</text><polygon fill="#181818" points="72,309.9844,62,313.9844,72,317.9844,68,313.9844" style="stroke:#181818;stroke-width:1.0;"/><line style="stroke:#181818;stroke-width:1.0;stroke-dasharray:2.0,2.0;" x1="66" x2="538" y1="313.9844" y2="313.9844"/><text fill="#000000" font-family="sans-serif" font-size="20" font-weight="bold" lengthAdjust="spacing" textLength="14" x="78" y="307.2676">5</text><text fill="#000000" font-family="sans-serif" font-size="20" lengthAdjust="spacing" textLength="214" x="96" y="307.2676">Ask class information</text><polygon fill="#181818" points="527,347.2656,537,351.2656,527,355.2656,531,351.2656" style="stroke:#181818;stroke-width:1.0;"/><line style="stroke:#181818;stroke-width:1.0;" x1="61" x2="533" y1="351.2656" y2="351.2656"/><text fill="#000000" font-family="sans-serif" font-size="20" font-weight="bold" lengthAdjust="spacing" textLength="14" x="68" y="344.5488">6</text><text fill="#000000" font-family="sans-serif" font-size="20" lengthAdjust="spacing" textLength="436" x="86" y="344.5488">Input class title, week date and time period</text><path d="M10,366.2656 L86,366.2656 L86,381.5469 L76,391.5469 L10,391.5469 L10,366.2656 " fill="#EEEEEE" style="stroke:#000000;stroke-width:1.5;"/><rect fill="none" height="154.6875" style="stroke:#000000;stroke-width:1.5;" width="583" x="10" y="366.2656"/><text fill="#000000" font-family="sans-serif" font-size="20" font-weight="bold" lengthAdjust="spacing" textLength="31" x="25" y="385.8301">alt</text><text fill="#000000" font-family="sans-serif" font-size="20" font-weight="bold" lengthAdjust="spacing" textLength="302" x="101" y="386.8301">[student of the course has</text><text fill="#000000" font-family="sans-serif" font-size="20" font-weight="bold" lengthAdjust="spacing" textLength="256" x="101" y="410.1113">already another class]</text><polygon fill="#181818" points="72,471.6719,62,475.6719,72,479.6719,68,475.6719" style="stroke:#181818;stroke-width:1.0;"/><line style="stroke:#181818;stroke-width:1.0;stroke-dasharray:2.0,2.0;" x1="66" x2="538" y1="475.6719" y2="475.6719"/><text fill="#000000" font-family="sans-serif" font-size="20" font-weight="bold" lengthAdjust="spacing" textLength="14" x="78" y="457.3145">7</text><text fill="#000000" font-family="sans-serif" font-size="20" lengthAdjust="spacing" textLength="194" x="96" y="445.6738">Warn that the class</text><text fill="#000000" font-family="sans-serif" font-size="20" lengthAdjust="spacing" textLength="184" x="96" y="468.9551">will be overlapped</text><polygon fill="#181818" points="527,508.9531,537,512.9531,527,516.9531,531,512.9531" style="stroke:#181818;stroke-width:1.0;"/><line style="stroke:#181818;stroke-width:1.0;" x1="61" x2="533" y1="512.9531" y2="512.9531"/><text fill="#000000" font-family="sans-serif" font-size="20" font-weight="bold" lengthAdjust="spacing" textLength="14" x="68" y="506.2363">8</text><text fill="#000000" font-family="sans-serif" font-size="20" lengthAdjust="spacing" textLength="166" x="86" y="506.2363">Continue/Cancel</text><polygon fill="#181818" points="72,553.2344,62,557.2344,72,561.2344,68,557.2344" style="stroke:#181818;stroke-width:1.0;"/><line style="stroke:#181818;stroke-width:1.0;stroke-dasharray:2.0,2.0;" x1="66" x2="538" y1="557.2344" y2="557.2344"/><text fill="#000000" font-family="sans-serif" font-size="20" font-weight="bold" lengthAdjust="spacing" textLength="14" x="78" y="550.5176">9</text><text fill="#000000" font-family="sans-serif" font-size="20" lengthAdjust="spacing" textLength="231" x="96" y="550.5176">Confirm class schedule</text><!--SRC=[ZP8xJyCm4CTtVuhRkb2263CWeKf8h0I9fSlLlZHM_C8-4vLFpxL95iZ0wFFl__2ZZ3OapEXTr2CPCDHZTVmI0tVsc-3nGUq6vbJQfaaE0rVlxdNqJQ7FIa7JtbWyYrwnPKVmJgW7ol16kkPimnaE3ak1JgQcEb9OEORgJvILGiqn0yyI9JNOQfia1BfBOV9ABNkmVrf6hJXBS648D86-UPVLUqPWB_GgRE6vZEjgLq37cWlzzHMm8qUQLsBJgnlYj03_I9tRsT37x95j35l7UGsfyeBUhl0E9g8H33811YD3Jv0essWKEeR2rP1SKUo11rhR35YE0LqcD1UHHRx6t5mt-hNmWJc877dsk7B7C5ddu4GGloWxJ8dCLk63V0qRAZK7bETtYgIZzDgC4RQtsVz-fny0]--></g></svg>