<?xml version="1.0" encoding="UTF-8" standalone="no"?><svg xmlns="http://www.w3.org/2000/svg" xmlns:xlink="http://www.w3.org/1999/xlink" contentStyleType="text/css" height="937px" preserveAspectRatio="none" style="width:1439px;height:937px;background:#FFFFFF;" version="1.1" viewBox="0 0 1439 937" width="1439px" zoomAndPan="magnify"><defs/><g><text fill="#000000" font-family="sans-serif" font-size="14" font-weight="bold" lengthAdjust="spacing" textLength="421" x="510.5" y="27.9951">ScheduleService - checkCourseStudentDisponibility()</text><rect fill="#FFFFFF" height="590.0625" style="stroke:#181818;stroke-width:1.0;" width="10" x="377" y="220.7031"/><rect fill="#FFFFFF" height="37.2813" style="stroke:#181818;stroke-width:1.0;" width="10" x="609" y="257.9844"/><rect fill="#FFFFFF" height="37.2813" style="stroke:#181818;stroke-width:1.0;" width="10" x="819" y="332.5469"/><rect fill="#FFFFFF" height="37.2813" style="stroke:#181818;stroke-width:1.0;" width="10" x="1023" y="407.1094"/><rect fill="#FFFFFF" height="37.2813" style="stroke:#181818;stroke-width:1.0;" width="10" x="1187" y="481.6719"/><rect fill="#FFFFFF" height="37.2813" style="stroke:#181818;stroke-width:1.0;" width="10" x="1336" y="596.7969"/><rect fill="none" height="240.5313" style="stroke:#000000;stroke-width:1.5;" width="1430" x="3" y="533.9531"/><rect fill="none" height="118.4063" style="stroke:#000000;stroke-width:1.5;" width="623" x="3" y="649.0781"/><rect fill="none" height="70.8438" style="stroke:#000000;stroke-width:1.5;" width="613" x="3" y="689.6406"/><line style="stroke:#181818;stroke-width:0.5;stroke-dasharray:5.0,5.0;" x1="382" x2="382" y1="134.8594" y2="828.7656"/><line style="stroke:#181818;stroke-width:0.5;stroke-dasharray:5.0,5.0;" x1="614" x2="614" y1="134.8594" y2="828.7656"/><line style="stroke:#181818;stroke-width:0.5;stroke-dasharray:5.0,5.0;" x1="824" x2="824" y1="134.8594" y2="828.7656"/><line style="stroke:#181818;stroke-width:0.5;stroke-dasharray:5.0,5.0;" x1="1028" x2="1028" y1="134.8594" y2="828.7656"/><line style="stroke:#181818;stroke-width:0.5;stroke-dasharray:5.0,5.0;" x1="1192" x2="1192" y1="134.8594" y2="828.7656"/><line style="stroke:#181818;stroke-width:0.5;stroke-dasharray:5.0,5.0;" x1="1341" x2="1341" y1="134.8594" y2="828.7656"/><rect fill="#E2E2F0" height="60.5625" rx="2.5" ry="2.5" style="stroke:#181818;stroke-width:0.5;" width="180" x="292" y="73.2969"/><text fill="#000000" font-family="sans-serif" font-size="20" font-style="italic" lengthAdjust="spacing" textLength="95" x="334.5" y="98.8613">«service»</text><text fill="#000000" font-family="sans-serif" font-size="20" lengthAdjust="spacing" textLength="166" x="299" y="122.1426">ScheduleService</text><rect fill="#E2E2F0" height="60.5625" rx="2.5" ry="2.5" style="stroke:#181818;stroke-width:0.5;" width="180" x="292" y="827.7656"/><text fill="#000000" font-family="sans-serif" font-size="20" font-style="italic" lengthAdjust="spacing" textLength="95" x="334.5" y="853.3301">«service»</text><text fill="#000000" font-family="sans-serif" font-size="20" lengthAdjust="spacing" textLength="166" x="299" y="876.6113">ScheduleService</text><rect fill="#E2E2F0" height="60.5625" rx="2.5" ry="2.5" style="stroke:#181818;stroke-width:0.5;" width="206" x="511" y="73.2969"/><text fill="#000000" font-family="sans-serif" font-size="20" font-style="italic" lengthAdjust="spacing" textLength="139" x="544.5" y="98.8613">«persistence»</text><text fill="#000000" font-family="sans-serif" font-size="20" lengthAdjust="spacing" textLength="192" x="518" y="122.1426">PersistenceContext</text><rect fill="#E2E2F0" height="60.5625" rx="2.5" ry="2.5" style="stroke:#181818;stroke-width:0.5;" width="206" x="511" y="827.7656"/><text fill="#000000" font-family="sans-serif" font-size="20" font-style="italic" lengthAdjust="spacing" textLength="139" x="544.5" y="853.3301">«persistence»</text><text fill="#000000" font-family="sans-serif" font-size="20" lengthAdjust="spacing" textLength="192" x="518" y="876.6113">PersistenceContext</text><rect fill="#E2E2F0" height="60.5625" rx="2.5" ry="2.5" style="stroke:#181818;stroke-width:0.5;" width="194" x="727" y="73.2969"/><text fill="#000000" font-family="sans-serif" font-size="20" font-style="italic" lengthAdjust="spacing" textLength="94" x="777" y="98.8613">«factory»</text><text fill="#000000" font-family="sans-serif" font-size="20" lengthAdjust="spacing" textLength="180" x="734" y="122.1426">RepositoryFactory</text><rect fill="#E2E2F0" height="60.5625" rx="2.5" ry="2.5" style="stroke:#181818;stroke-width:0.5;" width="194" x="727" y="827.7656"/><text fill="#000000" font-family="sans-serif" font-size="20" font-style="italic" lengthAdjust="spacing" textLength="94" x="777" y="853.3301">«factory»</text><text fill="#000000" font-family="sans-serif" font-size="20" lengthAdjust="spacing" textLength="180" x="734" y="876.6113">RepositoryFactory</text><rect fill="#E2E2F0" height="60.5625" rx="2.5" ry="2.5" style="stroke:#181818;stroke-width:0.5;" width="194" x="931" y="73.2969"/><text fill="#000000" font-family="sans-serif" font-size="20" font-style="italic" lengthAdjust="spacing" textLength="100" x="978" y="98.8613">«domain»</text><text fill="#000000" font-family="sans-serif" font-size="20" lengthAdjust="spacing" textLength="180" x="938" y="122.1426">CourseEnrollment</text><rect fill="#E2E2F0" height="60.5625" rx="2.5" ry="2.5" style="stroke:#181818;stroke-width:0.5;" width="194" x="931" y="827.7656"/><text fill="#000000" font-family="sans-serif" font-size="20" font-style="italic" lengthAdjust="spacing" textLength="100" x="978" y="853.3301">«domain»</text><text fill="#000000" font-family="sans-serif" font-size="20" lengthAdjust="spacing" textLength="180" x="938" y="876.6113">CourseEnrollment</text><rect fill="#E2E2F0" height="60.5625" rx="2.5" ry="2.5" style="stroke:#181818;stroke-width:0.5;" width="114" x="1135" y="73.2969"/><text fill="#000000" font-family="sans-serif" font-size="20" font-style="italic" lengthAdjust="spacing" textLength="100" x="1142" y="98.8613">«domain»</text><text fill="#000000" font-family="sans-serif" font-size="20" lengthAdjust="spacing" textLength="69" x="1157.5" y="122.1426">Course</text><rect fill="#E2E2F0" height="60.5625" rx="2.5" ry="2.5" style="stroke:#181818;stroke-width:0.5;" width="114" x="1135" y="827.7656"/><text fill="#000000" font-family="sans-serif" font-size="20" font-style="italic" lengthAdjust="spacing" textLength="100" x="1142" y="853.3301">«domain»</text><text fill="#000000" font-family="sans-serif" font-size="20" lengthAdjust="spacing" textLength="69" x="1157.5" y="876.6113">Course</text><text fill="#000000" font-family="sans-serif" font-size="20" font-style="italic" lengthAdjust="spacing" textLength="125" x="1275.5" y="106.8613">«repository»</text><text fill="#000000" font-family="sans-serif" font-size="20" lengthAdjust="spacing" textLength="158" x="1259" y="130.1426">ClassRepository</text><path d="M1323,52.2969 C1323,42.2969 1341,42.2969 1341,42.2969 C1341,42.2969 1359,42.2969 1359,52.2969 L1359,78.2969 C1359,88.2969 1341,88.2969 1341,88.2969 C1341,88.2969 1323,88.2969 1323,78.2969 L1323,52.2969 " fill="#E2E2F0" style="stroke:#181818;stroke-width:1.5;"/><path d="M1323,52.2969 C1323,62.2969 1341,62.2969 1341,62.2969 C1341,62.2969 1359,62.2969 1359,52.2969 " fill="none" style="stroke:#181818;stroke-width:1.5;"/><text fill="#000000" font-family="sans-serif" font-size="20" font-style="italic" lengthAdjust="spacing" textLength="125" x="1275.5" y="846.3301">«repository»</text><text fill="#000000" font-family="sans-serif" font-size="20" lengthAdjust="spacing" textLength="158" x="1259" y="869.6113">ClassRepository</text><path d="M1323,884.3281 C1323,874.3281 1341,874.3281 1341,874.3281 C1341,874.3281 1359,874.3281 1359,884.3281 L1359,910.3281 C1359,920.3281 1341,920.3281 1341,920.3281 C1341,920.3281 1323,920.3281 1323,910.3281 L1323,884.3281 " fill="#E2E2F0" style="stroke:#181818;stroke-width:1.5;"/><path d="M1323,884.3281 C1323,894.3281 1341,894.3281 1341,894.3281 C1341,894.3281 1359,894.3281 1359,884.3281 " fill="none" style="stroke:#181818;stroke-width:1.5;"/><rect fill="#FFFFFF" height="590.0625" style="stroke:#181818;stroke-width:1.0;" width="10" x="377" y="220.7031"/><rect fill="#FFFFFF" height="37.2813" style="stroke:#181818;stroke-width:1.0;" width="10" x="609" y="257.9844"/><rect fill="#FFFFFF" height="37.2813" style="stroke:#181818;stroke-width:1.0;" width="10" x="819" y="332.5469"/><rect fill="#FFFFFF" height="37.2813" style="stroke:#181818;stroke-width:1.0;" width="10" x="1023" y="407.1094"/><rect fill="#FFFFFF" height="37.2813" style="stroke:#181818;stroke-width:1.0;" width="10" x="1187" y="481.6719"/><rect fill="#FFFFFF" height="37.2813" style="stroke:#181818;stroke-width:1.0;" width="10" x="1336" y="596.7969"/><polygon fill="#181818" points="365,216.7031,375,220.7031,365,224.7031,369,220.7031" style="stroke:#181818;stroke-width:1.0;"/><line style="stroke:#181818;stroke-width:1.0;" x1="0" x2="371" y1="220.7031" y2="220.7031"/><text fill="#000000" font-family="sans-serif" font-size="20" font-weight="bold" lengthAdjust="spacing" textLength="14" x="7" y="190.7051">1</text><text fill="#000000" font-family="sans-serif" font-size="20" lengthAdjust="spacing" textLength="333" x="25" y="167.4238">checkCourseStudentDisponibility</text><text fill="#000000" font-family="sans-serif" font-size="20" lengthAdjust="spacing" textLength="137" x="25" y="190.7051">(course, date,</text><text fill="#000000" font-family="sans-serif" font-size="20" lengthAdjust="spacing" textLength="306" x="25" y="213.9863">timePeriod, courseEnrollment)</text><polygon fill="#181818" points="597,253.9844,607,257.9844,597,261.9844,601,257.9844" style="stroke:#181818;stroke-width:1.0;"/><line style="stroke:#181818;stroke-width:1.0;" x1="387" x2="603" y1="257.9844" y2="257.9844"/><text fill="#000000" font-family="sans-serif" font-size="20" font-weight="bold" lengthAdjust="spacing" textLength="14" x="394" y="251.2676">2</text><text fill="#000000" font-family="sans-serif" font-size="20" lengthAdjust="spacing" textLength="133" x="412" y="251.2676">repositories()</text><polygon fill="#181818" points="398,291.2656,388,295.2656,398,299.2656,394,295.2656" style="stroke:#181818;stroke-width:1.0;"/><line style="stroke:#181818;stroke-width:1.0;" x1="392" x2="613" y1="295.2656" y2="295.2656"/><text fill="#000000" font-family="sans-serif" font-size="20" font-weight="bold" lengthAdjust="spacing" textLength="14" x="404" y="288.5488">3</text><text fill="#000000" font-family="sans-serif" font-size="20" lengthAdjust="spacing" textLength="180" x="422" y="288.5488">RepositoryFactory</text><polygon fill="#181818" points="807,328.5469,817,332.5469,807,336.5469,811,332.5469" style="stroke:#181818;stroke-width:1.0;"/><line style="stroke:#181818;stroke-width:1.0;" x1="387" x2="813" y1="332.5469" y2="332.5469"/><text fill="#000000" font-family="sans-serif" font-size="20" font-weight="bold" lengthAdjust="spacing" textLength="14" x="394" y="325.8301">4</text><text fill="#000000" font-family="sans-serif" font-size="20" lengthAdjust="spacing" textLength="87" x="412" y="325.8301">classes()</text><polygon fill="#181818" points="398,365.8281,388,369.8281,398,373.8281,394,369.8281" style="stroke:#181818;stroke-width:1.0;"/><line style="stroke:#181818;stroke-width:1.0;" x1="392" x2="823" y1="369.8281" y2="369.8281"/><text fill="#000000" font-family="sans-serif" font-size="20" font-weight="bold" lengthAdjust="spacing" textLength="14" x="404" y="363.1113">5</text><text fill="#000000" font-family="sans-serif" font-size="20" lengthAdjust="spacing" textLength="158" x="422" y="363.1113">ClassRepository</text><polygon fill="#181818" points="1011,403.1094,1021,407.1094,1011,411.1094,1015,407.1094" style="stroke:#181818;stroke-width:1.0;"/><line style="stroke:#181818;stroke-width:1.0;" x1="387" x2="1017" y1="407.1094" y2="407.1094"/><text fill="#000000" font-family="sans-serif" font-size="20" font-weight="bold" lengthAdjust="spacing" textLength="14" x="394" y="400.3926">6</text><text fill="#000000" font-family="sans-serif" font-size="20" lengthAdjust="spacing" textLength="188" x="412" y="400.3926">enrolledStudents()</text><polygon fill="#181818" points="398,440.3906,388,444.3906,398,448.3906,394,444.3906" style="stroke:#181818;stroke-width:1.0;"/><line style="stroke:#181818;stroke-width:1.0;stroke-dasharray:2.0,2.0;" x1="392" x2="1027" y1="444.3906" y2="444.3906"/><text fill="#000000" font-family="sans-serif" font-size="20" font-weight="bold" lengthAdjust="spacing" textLength="14" x="404" y="437.6738">7</text><text fill="#000000" font-family="sans-serif" font-size="20" lengthAdjust="spacing" textLength="149" x="422" y="437.6738">List&lt;Student&gt;</text><polygon fill="#181818" points="1175,477.6719,1185,481.6719,1175,485.6719,1179,481.6719" style="stroke:#181818;stroke-width:1.0;"/><line style="stroke:#181818;stroke-width:1.0;" x1="387" x2="1181" y1="481.6719" y2="481.6719"/><text fill="#000000" font-family="sans-serif" font-size="20" font-weight="bold" lengthAdjust="spacing" textLength="14" x="394" y="474.9551">8</text><text fill="#000000" font-family="sans-serif" font-size="20" lengthAdjust="spacing" textLength="114" x="412" y="474.9551">closeDate()</text><polygon fill="#181818" points="398,514.9531,388,518.9531,398,522.9531,394,518.9531" style="stroke:#181818;stroke-width:1.0;"/><line style="stroke:#181818;stroke-width:1.0;stroke-dasharray:2.0,2.0;" x1="392" x2="1191" y1="518.9531" y2="518.9531"/><text fill="#000000" font-family="sans-serif" font-size="20" font-weight="bold" lengthAdjust="spacing" textLength="14" x="404" y="512.2363">9</text><text fill="#000000" font-family="sans-serif" font-size="20" lengthAdjust="spacing" textLength="117" x="422" y="512.2363">endingDate</text><path d="M3,533.9531 L97,533.9531 L97,549.2344 L87,559.2344 L3,559.2344 L3,533.9531 " fill="#EEEEEE" style="stroke:#000000;stroke-width:1.5;"/><rect fill="none" height="240.5313" style="stroke:#000000;stroke-width:1.5;" width="1430" x="3" y="533.9531"/><text fill="#000000" font-family="sans-serif" font-size="20" font-weight="bold" lengthAdjust="spacing" textLength="49" x="18" y="553.5176">loop</text><text fill="#000000" font-family="sans-serif" font-size="20" font-weight="bold" lengthAdjust="spacing" textLength="499" x="112" y="554.5176">[for each day of the week until endingDate]</text><polygon fill="#181818" points="1324,592.7969,1334,596.7969,1324,600.7969,1328,596.7969" style="stroke:#181818;stroke-width:1.0;"/><line style="stroke:#181818;stroke-width:1.0;" x1="387" x2="1330" y1="596.7969" y2="596.7969"/><text fill="#000000" font-family="sans-serif" font-size="20" font-weight="bold" lengthAdjust="spacing" textLength="28" x="394" y="590.0801">10</text><text fill="#000000" font-family="sans-serif" font-size="20" lengthAdjust="spacing" textLength="389" x="426" y="590.0801">findByDateAndTimePeriod(timePeriod)</text><polygon fill="#181818" points="398,630.0781,388,634.0781,398,638.0781,394,634.0781" style="stroke:#181818;stroke-width:1.0;"/><line style="stroke:#181818;stroke-width:1.0;stroke-dasharray:2.0,2.0;" x1="392" x2="1340" y1="634.0781" y2="634.0781"/><text fill="#000000" font-family="sans-serif" font-size="20" font-weight="bold" lengthAdjust="spacing" textLength="28" x="404" y="627.3613">11</text><text fill="#000000" font-family="sans-serif" font-size="20" lengthAdjust="spacing" textLength="163" x="436" y="627.3613">Iterable&lt;Class&gt;</text><path d="M3,649.0781 L97,649.0781 L97,664.3594 L87,674.3594 L3,674.3594 L3,649.0781 " fill="#EEEEEE" style="stroke:#000000;stroke-width:1.5;"/><rect fill="none" height="118.4063" style="stroke:#000000;stroke-width:1.5;" width="623" x="3" y="649.0781"/><text fill="#000000" font-family="sans-serif" font-size="20" font-weight="bold" lengthAdjust="spacing" textLength="49" x="18" y="668.6426">loop</text><text fill="#000000" font-family="sans-serif" font-size="20" font-weight="bold" lengthAdjust="spacing" textLength="283" x="112" y="669.6426">[for each returned class]</text><path d="M3,689.6406 L79,689.6406 L79,704.9219 L69,714.9219 L3,714.9219 L3,689.6406 " fill="#EEEEEE" style="stroke:#000000;stroke-width:1.5;"/><rect fill="none" height="70.8438" style="stroke:#000000;stroke-width:1.5;" width="613" x="3" y="689.6406"/><text fill="#000000" font-family="sans-serif" font-size="20" font-weight="bold" lengthAdjust="spacing" textLength="31" x="18" y="709.2051">alt</text><text fill="#000000" font-family="sans-serif" font-size="20" font-weight="bold" lengthAdjust="spacing" textLength="517" x="94" y="710.2051">[returned class contains an enrolled student]</text><polygon fill="#181818" points="11,748.4844,1,752.4844,11,756.4844,7,752.4844" style="stroke:#181818;stroke-width:1.0;"/><line style="stroke:#181818;stroke-width:1.0;stroke-dasharray:2.0,2.0;" x1="5" x2="376" y1="752.4844" y2="752.4844"/><text fill="#000000" font-family="sans-serif" font-size="20" font-weight="bold" lengthAdjust="spacing" textLength="28" x="17" y="745.7676">12</text><text fill="#000000" font-family="sans-serif" font-size="20" lengthAdjust="spacing" textLength="47" x="49" y="745.7676">false</text><polygon fill="#181818" points="11,806.7656,1,810.7656,11,814.7656,7,810.7656" style="stroke:#181818;stroke-width:1.0;"/><line style="stroke:#181818;stroke-width:1.0;stroke-dasharray:2.0,2.0;" x1="5" x2="381" y1="810.7656" y2="810.7656"/><text fill="#000000" font-family="sans-serif" font-size="20" font-weight="bold" lengthAdjust="spacing" textLength="28" x="17" y="804.0488">13</text><text fill="#000000" font-family="sans-serif" font-size="20" lengthAdjust="spacing" textLength="41" x="49" y="804.0488">true</text><!--SRC=[XLHDZzCm4BtxL_X6aJOKSQoYID1D9IGEgEMu5zUURAqwTh372-NNCyvNunI9I-9utfjvysRQSDMs4rwqniahAAwW4T7WmLaywJ_0Ftraxow8NTXjjvqH5cDhFaZNRWFyZ60b54gBL-8pXXeDy9EyW8e6Jk3Vj0HUSBgGrxsBFi09emABppfqpkgpDXflc_TCH7GsjcVmZ94Or59tLEeXbmXyEfPb64vLbL6-WmywO5AsfnxWDoRMT2pBxXvVCO_GkQ3H-Tj1oFHAnEE1ECtmlS8F7TNMEsDQQgglKnDSkLPe-q_qCge4YhEWkxqH8TohztdI5GI2-_cUAAoePWDs__FrnMva7tpYL8gUBnPr2sIGTkg9ovLyce94_KR8gGHZymohsS4TdnLf29i5QqIm2PbfVJ2NANXWBigHxzJWuCAooF70A9IbNjctJ4peh8UQuD1t36gqB6-XPeGfilJVQ5lA4LnbgkkLGVs0aseNu9aGkJafoaPGNW6iqlOrCN9JUWOppdMySPvJw4AJl77NSBm0_mLmvP5cQfOPbeh69ThnHblrvPRYdwtwCI_1vhuFIwa3ZKtqNEnN12_E1ie-d1io4dF57Z1wI_yi_JIPCBYweasqI3-9m8MTfyF3u3WhYs9HlH66FA5sEUNftwdO_R22eu-Pf_DY_mK0]--></g></svg>