<?xml version="1.0" encoding="UTF-8" standalone="no"?><svg xmlns="http://www.w3.org/2000/svg" xmlns:xlink="http://www.w3.org/1999/xlink" contentStyleType="text/css" height="1050px" preserveAspectRatio="none" style="width:1489px;height:1050px;background:#FFFFFF;" version="1.1" viewBox="0 0 1489 1050" width="1489px" zoomAndPan="magnify"><defs/><g><text fill="#000000" font-family="sans-serif" font-size="14" font-weight="bold" lengthAdjust="spacing" textLength="274" x="609" y="27.9951">ScheduleService - scheduleClass()</text><rect fill="#FFFFFF" height="703.625" style="stroke:#181818;stroke-width:1.0;" width="10" x="311" y="220.7031"/><rect fill="#FFFFFF" height="37.2813" style="stroke:#181818;stroke-width:1.0;" width="10" x="543" y="257.9844"/><rect fill="#FFFFFF" height="37.2813" style="stroke:#181818;stroke-width:1.0;" width="10" x="753" y="332.5469"/><rect fill="#FFFFFF" height="37.2813" style="stroke:#181818;stroke-width:1.0;" width="10" x="953" y="407.1094"/><rect fill="#FFFFFF" height="37.2813" style="stroke:#181818;stroke-width:1.0;" width="10" x="1113" y="481.6719"/><rect fill="#FFFFFF" height="37.2813" style="stroke:#181818;stroke-width:1.0;" width="10" x="1262" y="596.7969"/><rect fill="#FFFFFF" height="37.2813" style="stroke:#181818;stroke-width:1.0;" width="10" x="1262" y="714.6406"/><rect fill="none" height="269.25" style="stroke:#000000;stroke-width:1.5;" width="1143" x="216" y="533.9531"/><rect fill="none" height="70.8438" style="stroke:#000000;stroke-width:1.5;" width="1267" x="216" y="817.2031"/><line style="stroke:#181818;stroke-width:0.5;stroke-dasharray:5.0,5.0;" x1="316" x2="316" y1="134.8594" y2="942.3281"/><line style="stroke:#181818;stroke-width:0.5;stroke-dasharray:5.0,5.0;" x1="548" x2="548" y1="134.8594" y2="942.3281"/><line style="stroke:#181818;stroke-width:0.5;stroke-dasharray:5.0,5.0;" x1="758" x2="758" y1="134.8594" y2="942.3281"/><line style="stroke:#181818;stroke-width:0.5;stroke-dasharray:5.0,5.0;" x1="958" x2="958" y1="134.8594" y2="942.3281"/><line style="stroke:#181818;stroke-width:0.5;stroke-dasharray:5.0,5.0;" x1="1118" x2="1118" y1="134.8594" y2="942.3281"/><line style="stroke:#181818;stroke-width:0.5;stroke-dasharray:5.0,5.0;" x1="1267" x2="1267" y1="134.8594" y2="942.3281"/><line style="stroke:#181818;stroke-width:0.5;stroke-dasharray:5.0,5.0;" x1="1416" x2="1416" y1="134.8594" y2="942.3281"/><rect fill="#E2E2F0" height="60.5625" rx="2.5" ry="2.5" style="stroke:#181818;stroke-width:0.5;" width="180" x="226" y="73.2969"/><text fill="#000000" font-family="sans-serif" font-size="20" font-style="italic" lengthAdjust="spacing" textLength="95" x="268.5" y="98.8613">«service»</text><text fill="#000000" font-family="sans-serif" font-size="20" lengthAdjust="spacing" textLength="166" x="233" y="122.1426">ScheduleService</text><rect fill="#E2E2F0" height="60.5625" rx="2.5" ry="2.5" style="stroke:#181818;stroke-width:0.5;" width="180" x="226" y="941.3281"/><text fill="#000000" font-family="sans-serif" font-size="20" font-style="italic" lengthAdjust="spacing" textLength="95" x="268.5" y="966.8926">«service»</text><text fill="#000000" font-family="sans-serif" font-size="20" lengthAdjust="spacing" textLength="166" x="233" y="990.1738">ScheduleService</text><rect fill="#E2E2F0" height="60.5625" rx="2.5" ry="2.5" style="stroke:#181818;stroke-width:0.5;" width="206" x="445" y="73.2969"/><text fill="#000000" font-family="sans-serif" font-size="20" font-style="italic" lengthAdjust="spacing" textLength="139" x="478.5" y="98.8613">«persistence»</text><text fill="#000000" font-family="sans-serif" font-size="20" lengthAdjust="spacing" textLength="192" x="452" y="122.1426">PersistenceContext</text><rect fill="#E2E2F0" height="60.5625" rx="2.5" ry="2.5" style="stroke:#181818;stroke-width:0.5;" width="206" x="445" y="941.3281"/><text fill="#000000" font-family="sans-serif" font-size="20" font-style="italic" lengthAdjust="spacing" textLength="139" x="478.5" y="966.8926">«persistence»</text><text fill="#000000" font-family="sans-serif" font-size="20" lengthAdjust="spacing" textLength="192" x="452" y="990.1738">PersistenceContext</text><rect fill="#E2E2F0" height="60.5625" rx="2.5" ry="2.5" style="stroke:#181818;stroke-width:0.5;" width="194" x="661" y="73.2969"/><text fill="#000000" font-family="sans-serif" font-size="20" font-style="italic" lengthAdjust="spacing" textLength="94" x="711" y="98.8613">«factory»</text><text fill="#000000" font-family="sans-serif" font-size="20" lengthAdjust="spacing" textLength="180" x="668" y="122.1426">RepositoryFactory</text><rect fill="#E2E2F0" height="60.5625" rx="2.5" ry="2.5" style="stroke:#181818;stroke-width:0.5;" width="194" x="661" y="941.3281"/><text fill="#000000" font-family="sans-serif" font-size="20" font-style="italic" lengthAdjust="spacing" textLength="94" x="711" y="966.8926">«factory»</text><text fill="#000000" font-family="sans-serif" font-size="20" lengthAdjust="spacing" textLength="180" x="668" y="990.1738">RepositoryFactory</text><rect fill="#E2E2F0" height="60.5625" rx="2.5" ry="2.5" style="stroke:#181818;stroke-width:0.5;" width="186" x="865" y="73.2969"/><text fill="#000000" font-family="sans-serif" font-size="20" font-style="italic" lengthAdjust="spacing" textLength="100" x="908" y="98.8613">«domain»</text><text fill="#000000" font-family="sans-serif" font-size="20" lengthAdjust="spacing" textLength="172" x="872" y="122.1426">CouseEnrollment</text><rect fill="#E2E2F0" height="60.5625" rx="2.5" ry="2.5" style="stroke:#181818;stroke-width:0.5;" width="186" x="865" y="941.3281"/><text fill="#000000" font-family="sans-serif" font-size="20" font-style="italic" lengthAdjust="spacing" textLength="100" x="908" y="966.8926">«domain»</text><text fill="#000000" font-family="sans-serif" font-size="20" lengthAdjust="spacing" textLength="172" x="872" y="990.1738">CouseEnrollment</text><rect fill="#E2E2F0" height="60.5625" rx="2.5" ry="2.5" style="stroke:#181818;stroke-width:0.5;" width="114" x="1061" y="73.2969"/><text fill="#000000" font-family="sans-serif" font-size="20" font-style="italic" lengthAdjust="spacing" textLength="100" x="1068" y="98.8613">«domain»</text><text fill="#000000" font-family="sans-serif" font-size="20" lengthAdjust="spacing" textLength="69" x="1083.5" y="122.1426">Course</text><rect fill="#E2E2F0" height="60.5625" rx="2.5" ry="2.5" style="stroke:#181818;stroke-width:0.5;" width="114" x="1061" y="941.3281"/><text fill="#000000" font-family="sans-serif" font-size="20" font-style="italic" lengthAdjust="spacing" textLength="100" x="1068" y="966.8926">«domain»</text><text fill="#000000" font-family="sans-serif" font-size="20" lengthAdjust="spacing" textLength="69" x="1083.5" y="990.1738">Course</text><text fill="#000000" font-family="sans-serif" font-size="20" font-style="italic" lengthAdjust="spacing" textLength="125" x="1201.5" y="106.8613">«repository»</text><text fill="#000000" font-family="sans-serif" font-size="20" lengthAdjust="spacing" textLength="158" x="1185" y="130.1426">ClassRepository</text><path d="M1249,52.2969 C1249,42.2969 1267,42.2969 1267,42.2969 C1267,42.2969 1285,42.2969 1285,52.2969 L1285,78.2969 C1285,88.2969 1267,88.2969 1267,88.2969 C1267,88.2969 1249,88.2969 1249,78.2969 L1249,52.2969 " fill="#E2E2F0" style="stroke:#181818;stroke-width:1.5;"/><path d="M1249,52.2969 C1249,62.2969 1267,62.2969 1267,62.2969 C1267,62.2969 1285,62.2969 1285,52.2969 " fill="none" style="stroke:#181818;stroke-width:1.5;"/><text fill="#000000" font-family="sans-serif" font-size="20" font-style="italic" lengthAdjust="spacing" textLength="125" x="1201.5" y="959.8926">«repository»</text><text fill="#000000" font-family="sans-serif" font-size="20" lengthAdjust="spacing" textLength="158" x="1185" y="983.1738">ClassRepository</text><path d="M1249,997.8906 C1249,987.8906 1267,987.8906 1267,987.8906 C1267,987.8906 1285,987.8906 1285,997.8906 L1285,1023.8906 C1285,1033.8906 1267,1033.8906 1267,1033.8906 C1267,1033.8906 1249,1033.8906 1249,1023.8906 L1249,997.8906 " fill="#E2E2F0" style="stroke:#181818;stroke-width:1.5;"/><path d="M1249,997.8906 C1249,1007.8906 1267,1007.8906 1267,1007.8906 C1267,1007.8906 1285,1007.8906 1285,997.8906 " fill="none" style="stroke:#181818;stroke-width:1.5;"/><rect fill="#E2E2F0" height="60.5625" rx="2.5" ry="2.5" style="stroke:#181818;stroke-width:0.5;" width="114" x="1359" y="73.2969"/><text fill="#000000" font-family="sans-serif" font-size="20" font-style="italic" lengthAdjust="spacing" textLength="100" x="1366" y="98.8613">«domain»</text><text fill="#000000" font-family="sans-serif" font-size="20" lengthAdjust="spacing" textLength="52" x="1390" y="122.1426">Class</text><rect fill="#E2E2F0" height="60.5625" rx="2.5" ry="2.5" style="stroke:#181818;stroke-width:0.5;" width="114" x="1359" y="941.3281"/><text fill="#000000" font-family="sans-serif" font-size="20" font-style="italic" lengthAdjust="spacing" textLength="100" x="1366" y="966.8926">«domain»</text><text fill="#000000" font-family="sans-serif" font-size="20" lengthAdjust="spacing" textLength="52" x="1390" y="990.1738">Class</text><rect fill="#FFFFFF" height="703.625" style="stroke:#181818;stroke-width:1.0;" width="10" x="311" y="220.7031"/><rect fill="#FFFFFF" height="37.2813" style="stroke:#181818;stroke-width:1.0;" width="10" x="543" y="257.9844"/><rect fill="#FFFFFF" height="37.2813" style="stroke:#181818;stroke-width:1.0;" width="10" x="753" y="332.5469"/><rect fill="#FFFFFF" height="37.2813" style="stroke:#181818;stroke-width:1.0;" width="10" x="953" y="407.1094"/><rect fill="#FFFFFF" height="37.2813" style="stroke:#181818;stroke-width:1.0;" width="10" x="1113" y="481.6719"/><rect fill="#FFFFFF" height="37.2813" style="stroke:#181818;stroke-width:1.0;" width="10" x="1262" y="596.7969"/><rect fill="#FFFFFF" height="37.2813" style="stroke:#181818;stroke-width:1.0;" width="10" x="1262" y="714.6406"/><polygon fill="#181818" points="299,216.7031,309,220.7031,299,224.7031,303,220.7031" style="stroke:#181818;stroke-width:1.0;"/><line style="stroke:#181818;stroke-width:1.0;" x1="0" x2="305" y1="220.7031" y2="220.7031"/><text fill="#000000" font-family="sans-serif" font-size="20" font-weight="bold" lengthAdjust="spacing" textLength="14" x="7" y="190.7051">1</text><text fill="#000000" font-family="sans-serif" font-size="20" lengthAdjust="spacing" textLength="274" x="25" y="167.4238">scheduleClass(title, course,</text><text fill="#000000" font-family="sans-serif" font-size="20" lengthAdjust="spacing" textLength="172" x="25" y="190.7051">date, timePeriod,</text><text fill="#000000" font-family="sans-serif" font-size="20" lengthAdjust="spacing" textLength="273" x="25" y="213.9863">courseEnrollment, teacher)</text><polygon fill="#181818" points="531,253.9844,541,257.9844,531,261.9844,535,257.9844" style="stroke:#181818;stroke-width:1.0;"/><line style="stroke:#181818;stroke-width:1.0;" x1="321" x2="537" y1="257.9844" y2="257.9844"/><text fill="#000000" font-family="sans-serif" font-size="20" font-weight="bold" lengthAdjust="spacing" textLength="14" x="328" y="251.2676">2</text><text fill="#000000" font-family="sans-serif" font-size="20" lengthAdjust="spacing" textLength="133" x="346" y="251.2676">repositories()</text><polygon fill="#181818" points="332,291.2656,322,295.2656,332,299.2656,328,295.2656" style="stroke:#181818;stroke-width:1.0;"/><line style="stroke:#181818;stroke-width:1.0;" x1="326" x2="547" y1="295.2656" y2="295.2656"/><text fill="#000000" font-family="sans-serif" font-size="20" font-weight="bold" lengthAdjust="spacing" textLength="14" x="338" y="288.5488">3</text><text fill="#000000" font-family="sans-serif" font-size="20" lengthAdjust="spacing" textLength="180" x="356" y="288.5488">RepositoryFactory</text><polygon fill="#181818" points="741,328.5469,751,332.5469,741,336.5469,745,332.5469" style="stroke:#181818;stroke-width:1.0;"/><line style="stroke:#181818;stroke-width:1.0;" x1="321" x2="747" y1="332.5469" y2="332.5469"/><text fill="#000000" font-family="sans-serif" font-size="20" font-weight="bold" lengthAdjust="spacing" textLength="14" x="328" y="325.8301">4</text><text fill="#000000" font-family="sans-serif" font-size="20" lengthAdjust="spacing" textLength="87" x="346" y="325.8301">classes()</text><polygon fill="#181818" points="332,365.8281,322,369.8281,332,373.8281,328,369.8281" style="stroke:#181818;stroke-width:1.0;"/><line style="stroke:#181818;stroke-width:1.0;" x1="326" x2="757" y1="369.8281" y2="369.8281"/><text fill="#000000" font-family="sans-serif" font-size="20" font-weight="bold" lengthAdjust="spacing" textLength="14" x="338" y="363.1113">5</text><text fill="#000000" font-family="sans-serif" font-size="20" lengthAdjust="spacing" textLength="158" x="356" y="363.1113">ClassRepository</text><polygon fill="#181818" points="941,403.1094,951,407.1094,941,411.1094,945,407.1094" style="stroke:#181818;stroke-width:1.0;"/><line style="stroke:#181818;stroke-width:1.0;" x1="321" x2="947" y1="407.1094" y2="407.1094"/><text fill="#000000" font-family="sans-serif" font-size="20" font-weight="bold" lengthAdjust="spacing" textLength="14" x="328" y="400.3926">6</text><text fill="#000000" font-family="sans-serif" font-size="20" lengthAdjust="spacing" textLength="188" x="346" y="400.3926">enrolledStudents()</text><polygon fill="#181818" points="332,440.3906,322,444.3906,332,448.3906,328,444.3906" style="stroke:#181818;stroke-width:1.0;"/><line style="stroke:#181818;stroke-width:1.0;stroke-dasharray:2.0,2.0;" x1="326" x2="957" y1="444.3906" y2="444.3906"/><text fill="#000000" font-family="sans-serif" font-size="20" font-weight="bold" lengthAdjust="spacing" textLength="14" x="338" y="437.6738">7</text><text fill="#000000" font-family="sans-serif" font-size="20" lengthAdjust="spacing" textLength="149" x="356" y="437.6738">List&lt;Student&gt;</text><polygon fill="#181818" points="1101,477.6719,1111,481.6719,1101,485.6719,1105,481.6719" style="stroke:#181818;stroke-width:1.0;"/><line style="stroke:#181818;stroke-width:1.0;" x1="321" x2="1107" y1="481.6719" y2="481.6719"/><text fill="#000000" font-family="sans-serif" font-size="20" font-weight="bold" lengthAdjust="spacing" textLength="14" x="328" y="474.9551">8</text><text fill="#000000" font-family="sans-serif" font-size="20" lengthAdjust="spacing" textLength="133" x="346" y="474.9551">endingDate()</text><polygon fill="#181818" points="332,514.9531,322,518.9531,332,522.9531,328,518.9531" style="stroke:#181818;stroke-width:1.0;"/><line style="stroke:#181818;stroke-width:1.0;stroke-dasharray:2.0,2.0;" x1="326" x2="1117" y1="518.9531" y2="518.9531"/><text fill="#000000" font-family="sans-serif" font-size="20" font-weight="bold" lengthAdjust="spacing" textLength="14" x="338" y="512.2363">9</text><text fill="#000000" font-family="sans-serif" font-size="20" lengthAdjust="spacing" textLength="117" x="356" y="512.2363">endingDate</text><path d="M216,533.9531 L310,533.9531 L310,549.2344 L300,559.2344 L216,559.2344 L216,533.9531 " fill="#EEEEEE" style="stroke:#000000;stroke-width:1.5;"/><rect fill="none" height="269.25" style="stroke:#000000;stroke-width:1.5;" width="1143" x="216" y="533.9531"/><text fill="#000000" font-family="sans-serif" font-size="20" font-weight="bold" lengthAdjust="spacing" textLength="49" x="231" y="553.5176">loop</text><text fill="#000000" font-family="sans-serif" font-size="20" font-weight="bold" lengthAdjust="spacing" textLength="377" x="325" y="554.5176">[while classDate &lt;= endingDate]</text><polygon fill="#181818" points="1250,592.7969,1260,596.7969,1250,600.7969,1254,596.7969" style="stroke:#181818;stroke-width:1.0;"/><line style="stroke:#181818;stroke-width:1.0;" x1="321" x2="1256" y1="596.7969" y2="596.7969"/><text fill="#000000" font-family="sans-serif" font-size="20" font-weight="bold" lengthAdjust="spacing" textLength="28" x="328" y="590.0801">10</text><text fill="#000000" font-family="sans-serif" font-size="20" lengthAdjust="spacing" textLength="541" x="360" y="590.0801">findClassByCourseAndTimePeriod(course, timePeriod)</text><polygon fill="#181818" points="332,630.0781,322,634.0781,332,638.0781,328,634.0781" style="stroke:#181818;stroke-width:1.0;"/><line style="stroke:#181818;stroke-width:1.0;stroke-dasharray:2.0,2.0;" x1="326" x2="1266" y1="634.0781" y2="634.0781"/><text fill="#000000" font-family="sans-serif" font-size="20" font-weight="bold" lengthAdjust="spacing" textLength="28" x="338" y="627.3613">11</text><text fill="#000000" font-family="sans-serif" font-size="20" lengthAdjust="spacing" textLength="163" x="370" y="627.3613">Iterable&lt;Class&gt;</text><path d="M326,647.0781 L326,680.0781 L860,680.0781 L860,657.0781 L850,647.0781 L326,647.0781 " fill="#FEFFDD" style="stroke:#181818;stroke-width:0.5;"/><path d="M850,647.0781 L850,657.0781 L860,657.0781 L850,647.0781 " fill="#FEFFDD" style="stroke:#181818;stroke-width:0.5;"/><text fill="#000000" font-family="sans-serif" font-size="20" lengthAdjust="spacing" textLength="513" x="332" y="670.6426">if class is not found, continue, else throw exception</text><polygon fill="#181818" points="1250,710.6406,1260,714.6406,1250,718.6406,1254,714.6406" style="stroke:#181818;stroke-width:1.0;"/><line style="stroke:#181818;stroke-width:1.0;" x1="321" x2="1256" y1="714.6406" y2="714.6406"/><text fill="#000000" font-family="sans-serif" font-size="20" font-weight="bold" lengthAdjust="spacing" textLength="28" x="328" y="707.9238">12</text><text fill="#000000" font-family="sans-serif" font-size="20" lengthAdjust="spacing" textLength="562" x="360" y="707.9238">findClassByTeacherAndTimePeriod(teacher, timePeriod)</text><polygon fill="#181818" points="332,747.9219,322,751.9219,332,755.9219,328,751.9219" style="stroke:#181818;stroke-width:1.0;"/><line style="stroke:#181818;stroke-width:1.0;stroke-dasharray:2.0,2.0;" x1="326" x2="1266" y1="751.9219" y2="751.9219"/><text fill="#000000" font-family="sans-serif" font-size="20" font-weight="bold" lengthAdjust="spacing" textLength="28" x="338" y="745.2051">13</text><text fill="#000000" font-family="sans-serif" font-size="20" lengthAdjust="spacing" textLength="163" x="370" y="745.2051">Iterable&lt;Class&gt;</text><path d="M326,764.9219 L326,797.9219 L860,797.9219 L860,774.9219 L850,764.9219 L326,764.9219 " fill="#FEFFDD" style="stroke:#181818;stroke-width:0.5;"/><path d="M850,764.9219 L850,774.9219 L860,774.9219 L850,764.9219 " fill="#FEFFDD" style="stroke:#181818;stroke-width:0.5;"/><text fill="#000000" font-family="sans-serif" font-size="20" lengthAdjust="spacing" textLength="513" x="332" y="788.4863">if class is not found, continue, else throw exception</text><path d="M216,817.2031 L310,817.2031 L310,832.4844 L300,842.4844 L216,842.4844 L216,817.2031 " fill="#EEEEEE" style="stroke:#000000;stroke-width:1.5;"/><rect fill="none" height="70.8438" style="stroke:#000000;stroke-width:1.5;" width="1267" x="216" y="817.2031"/><text fill="#000000" font-family="sans-serif" font-size="20" font-weight="bold" lengthAdjust="spacing" textLength="49" x="231" y="836.7676">loop</text><text fill="#000000" font-family="sans-serif" font-size="20" font-weight="bold" lengthAdjust="spacing" textLength="377" x="325" y="837.7676">[while classDate &lt;= endingDate]</text><polygon fill="#181818" points="1404,876.0469,1414,880.0469,1404,884.0469,1408,880.0469" style="stroke:#181818;stroke-width:1.0;"/><line style="stroke:#181818;stroke-width:1.0;" x1="321" x2="1410" y1="880.0469" y2="880.0469"/><text fill="#000000" font-family="sans-serif" font-size="20" font-weight="bold" lengthAdjust="spacing" textLength="28" x="328" y="873.3301">14</text><text fill="#000000" font-family="sans-serif" font-size="20" lengthAdjust="spacing" textLength="904" x="360" y="873.3301">create(title, course, timePeriod, enrolledStudents, teacher, ClassType.RECURRING_CLASS)</text><polygon fill="#181818" points="11,920.3281,1,924.3281,11,928.3281,7,924.3281" style="stroke:#181818;stroke-width:1.0;"/><line style="stroke:#181818;stroke-width:1.0;stroke-dasharray:2.0,2.0;" x1="5" x2="315" y1="924.3281" y2="924.3281"/><text fill="#000000" font-family="sans-serif" font-size="20" font-weight="bold" lengthAdjust="spacing" textLength="28" x="17" y="917.6113">15</text><text fill="#000000" font-family="sans-serif" font-size="20" lengthAdjust="spacing" textLength="163" x="49" y="917.6113">Iterable&lt;Class&gt;</text><!--SRC=[lLHDQnin4BthL-Xc1xnnwT5i3QaRbq0ePPtU0aLUZMqHhRILj4dSNz_HVafhkxGfzBHQpRodD_D6iaz2bSomGkhy2JZbi6ELT6kjt4Ry1Fh-7PaSd2ljOZul9LEkAkHrhekvXHyLg1mIBjWUyOGuuIJGJNu0NadOW7aMET24sdPd9Pcrqol2AgTLLMp14897Ev6B4ebFaCpIRfccjbajbn7aAnWhhFCwLgWONfr7TSiqBOVu29b1gQrmsXpNBFSV3ypMYDar_wFybQuit2gZfIn0UMwk2oRKQPgn44OvSspBSAykVpYs5kgtm6AwwVSHCeaOVKwWiLjU5EhpGm4aMNPzN8oyg1sRqRmMFNjKg1L_dIW06oiqdz57rGI7oZ4E35aC6faxyOoGZfwGtlHbRyA2zhK9gEtlK6q6wJ87dGWwyOTmE446nw5r2vet_GmFoTO4Gn7ro8YG6BFZ6YBJ5nJgDV2DgpXkZCg9aibuOfBGXtkSohHbMSQbnImZENwul0mkrFuJvey4O9YqMKbKyu0O7UOHH6fTqfU3mEjRjz3dqVH3Y8fqD6rUq9rGlFxvU6oeRXH_wATdsivLC52XseQ4T7SWrall71YsbP3MyILH6Z56x0-EwjtGHx5h55DXAQRGdQuKznEjd50LdWqIU-4EHhzGUCsXT4Ahg0MjZDFoQ5JVGpFqSO7jJNXJXV-xG89cKcyq8VD9M6xteE3rCL1R_PVZC11iAo5v1dbb32QUUsFewHCplbFd7fWpRq2tTLd8z0n1bzBPt5VzJpfxriZXkdVd90zMJEPlktmNPV-Hu5b3yd0iuJgxNNtBihildx-lxcyscwjmJj8a-St01eNrx_yl]--></g></svg>