<?xml version="1.0" encoding="UTF-8" standalone="no"?><svg xmlns="http://www.w3.org/2000/svg" xmlns:xlink="http://www.w3.org/1999/xlink" contentStyleType="text/css" height="1423px" preserveAspectRatio="none" style="width:2292px;height:1423px;background:#FFFFFF;" version="1.1" viewBox="0 0 2292 1423" width="2292px" zoomAndPan="magnify"><defs/><g><text fill="#000000" font-family="sans-serif" font-size="14" font-weight="bold" lengthAdjust="spacing" textLength="399" x="939.75" y="22.9951">Teacher Recurring Class Schedule - Class Diagram</text><!--cluster Teacher--><g id="cluster_Teacher"><path d="M1922.5,1058.7969 L2015.5,1058.7969 A3.75,3.75 0 0 1 2018,1061.2969 L2025,1088.0781 L2267.5,1088.0781 A2.5,2.5 0 0 1 2270,1090.5781 L2270,1210.2969 A2.5,2.5 0 0 1 2267.5,1212.7969 L1922.5,1212.7969 A2.5,2.5 0 0 1 1920,1210.2969 L1920,1061.2969 A2.5,2.5 0 0 1 1922.5,1058.7969 " fill="none" style="stroke:#000000;stroke-width:1.5;"/><line style="stroke:#000000;stroke-width:1.5;" x1="1920" x2="2025" y1="1088.0781" y2="1088.0781"/><text fill="#000000" font-family="sans-serif" font-size="20" font-weight="bold" lengthAdjust="spacing" textLength="92" x="1924" y="1079.3613">Teacher</text></g><!--cluster Course--><g id="cluster_Course"><path d="M8.5,1261.7969 L88.5,1261.7969 A3.75,3.75 0 0 1 91,1264.2969 L98,1291.0781 L261.5,1291.0781 A2.5,2.5 0 0 1 264,1293.5781 L264,1413.2969 A2.5,2.5 0 0 1 261.5,1415.7969 L8.5,1415.7969 A2.5,2.5 0 0 1 6,1413.2969 L6,1264.2969 A2.5,2.5 0 0 1 8.5,1261.7969 " fill="none" style="stroke:#000000;stroke-width:1.5;"/><line style="stroke:#000000;stroke-width:1.5;" x1="6" x2="98" y1="1291.0781" y2="1291.0781"/><text fill="#000000" font-family="sans-serif" font-size="20" font-weight="bold" lengthAdjust="spacing" textLength="79" x="10" y="1282.3613">Course</text></g><!--cluster CourseEnrollment--><g id="cluster_CourseEnrollment"><path d="M91.5,1058.7969 L296.5,1058.7969 A3.75,3.75 0 0 1 299,1061.2969 L306,1088.0781 L492.5,1088.0781 A2.5,2.5 0 0 1 495,1090.5781 L495,1210.2969 A2.5,2.5 0 0 1 492.5,1212.7969 L91.5,1212.7969 A2.5,2.5 0 0 1 89,1210.2969 L89,1061.2969 A2.5,2.5 0 0 1 91.5,1058.7969 " fill="none" style="stroke:#000000;stroke-width:1.5;"/><line style="stroke:#000000;stroke-width:1.5;" x1="89" x2="306" y1="1088.0781" y2="1088.0781"/><text fill="#000000" font-family="sans-serif" font-size="20" font-weight="bold" lengthAdjust="spacing" textLength="204" x="93" y="1079.3613">CourseEnrollment</text></g><!--cluster repositories--><g id="cluster_repositories"><path d="M343.5,741.2969 L482.5,741.2969 A3.75,3.75 0 0 1 485,743.7969 L492,770.5781 L2280.5,770.5781 A2.5,2.5 0 0 1 2283,773.0781 L2283,985.7969 A2.5,2.5 0 0 1 2280.5,988.2969 L343.5,988.2969 A2.5,2.5 0 0 1 341,985.7969 L341,743.7969 A2.5,2.5 0 0 1 343.5,741.2969 " fill="none" style="stroke:#000000;stroke-width:1.5;"/><line style="stroke:#000000;stroke-width:1.5;" x1="341" x2="492" y1="770.5781" y2="770.5781"/><text fill="#000000" font-family="sans-serif" font-size="20" font-weight="bold" lengthAdjust="spacing" textLength="138" x="345" y="761.8613">repositories</text></g><!--cluster Class--><g id="cluster_Class"><path d="M521.5,1012.2969 L582.5,1012.2969 A3.75,3.75 0 0 1 585,1014.7969 L592,1041.5781 L1278.5,1041.5781 A2.5,2.5 0 0 1 1281,1044.0781 L1281,1413.7969 A2.5,2.5 0 0 1 1278.5,1416.2969 L521.5,1416.2969 A2.5,2.5 0 0 1 519,1413.7969 L519,1014.7969 A2.5,2.5 0 0 1 521.5,1012.2969 " fill="none" style="stroke:#000000;stroke-width:1.5;"/><line style="stroke:#000000;stroke-width:1.5;" x1="519" x2="592" y1="1041.5781" y2="1041.5781"/><text fill="#000000" font-family="sans-serif" font-size="20" font-weight="bold" lengthAdjust="spacing" textLength="60" x="523" y="1032.8613">Class</text></g><!--cluster infraestructure.persistence--><g id="cluster_infraestructure.persistence"><path d="M1037.5,361.2969 L1353.5,361.2969 A3.75,3.75 0 0 1 1356,363.7969 L1363,390.5781 L1600.5,390.5781 A2.5,2.5 0 0 1 1603,393.0781 L1603,714.7969 A2.5,2.5 0 0 1 1600.5,717.2969 L1037.5,717.2969 A2.5,2.5 0 0 1 1035,714.7969 L1035,363.7969 A2.5,2.5 0 0 1 1037.5,361.2969 " fill="none" style="stroke:#000000;stroke-width:1.5;"/><line style="stroke:#000000;stroke-width:1.5;" x1="1035" x2="1363" y1="390.5781" y2="390.5781"/><text fill="#000000" font-family="sans-serif" font-size="20" font-weight="bold" lengthAdjust="spacing" textLength="315" x="1039" y="381.8613">infraestructure.persistence</text></g><!--class Teacher--><g id="elem_Teacher"><rect codeLine="7" fill="#F1F1F1" height="95.8438" id="Teacher" rx="2.5" ry="2.5" style="stroke:#181818;stroke-width:0.5;" width="318" x="1936" y="1100.7969"/><ellipse cx="2050.5" cy="1129.0781" fill="#ADD1B2" rx="12" ry="12" style="stroke:#181818;stroke-width:1.0;"/><path d="M2053.5625,1136.1563 Q2052.875,1136.5156 2052.125,1136.6875 Q2051.375,1136.8594 2050.5469,1136.8594 Q2047.5938,1136.8594 2046.0313,1134.9219 Q2044.4844,1132.9688 2044.4844,1129.2969 Q2044.4844,1125.625 2046.0313,1123.6875 Q2047.5938,1121.7344 2050.5469,1121.7344 Q2051.375,1121.7344 2052.125,1121.9063 Q2052.8906,1122.0781 2053.5625,1122.4375 L2053.5625,1125.6406 Q2052.8125,1124.9531 2052.1094,1124.6406 Q2051.4219,1124.3281 2050.6719,1124.3281 Q2049.0938,1124.3281 2048.2813,1125.5781 Q2047.4844,1126.8281 2047.4844,1129.2969 Q2047.4844,1131.7656 2048.2813,1133.0156 Q2049.0938,1134.2656 2050.6719,1134.2656 Q2051.4219,1134.2656 2052.1094,1133.9531 Q2052.8125,1133.6406 2053.5625,1132.9531 L2053.5625,1136.1563 Z " fill="#000000"/><text fill="#000000" font-family="sans-serif" font-size="20" font-style="italic" lengthAdjust="spacing" textLength="64" x="2080.5" y="1124.3613">«root»</text><text fill="#000000" font-family="sans-serif" font-size="20" lengthAdjust="spacing" textLength="80" x="2072.5" y="1147.6426">Teacher</text><line style="stroke:#181818;stroke-width:0.5;" x1="1937" x2="2253" y1="1157.3594" y2="1157.3594"/><line style="stroke:#181818;stroke-width:0.5;" x1="1937" x2="2253" y1="1165.3594" y2="1165.3594"/><ellipse cx="1947" cy="1182.5" fill="#84BE84" rx="3" ry="3" style="stroke:#038048;stroke-width:1.0;"/><text fill="#000000" font-family="sans-serif" font-size="20" lengthAdjust="spacing" textLength="291" x="1957" y="1187.9238">courses() : Iterable&lt;Course&gt;</text></g><!--class Course--><g id="elem_Course"><rect codeLine="13" fill="#F1F1F1" height="95.8438" id="Course" rx="2.5" ry="2.5" style="stroke:#181818;stroke-width:0.5;" width="226" x="22" y="1303.7969"/><ellipse cx="96" cy="1332.0781" fill="#ADD1B2" rx="12" ry="12" style="stroke:#181818;stroke-width:1.0;"/><path d="M99.0625,1339.1563 Q98.375,1339.5156 97.625,1339.6875 Q96.875,1339.8594 96.0469,1339.8594 Q93.0938,1339.8594 91.5313,1337.9219 Q89.9844,1335.9688 89.9844,1332.2969 Q89.9844,1328.625 91.5313,1326.6875 Q93.0938,1324.7344 96.0469,1324.7344 Q96.875,1324.7344 97.625,1324.9063 Q98.3906,1325.0781 99.0625,1325.4375 L99.0625,1328.6406 Q98.3125,1327.9531 97.6094,1327.6406 Q96.9219,1327.3281 96.1719,1327.3281 Q94.5938,1327.3281 93.7813,1328.5781 Q92.9844,1329.8281 92.9844,1332.2969 Q92.9844,1334.7656 93.7813,1336.0156 Q94.5938,1337.2656 96.1719,1337.2656 Q96.9219,1337.2656 97.6094,1336.9531 Q98.3125,1336.6406 99.0625,1335.9531 L99.0625,1339.1563 Z " fill="#000000"/><text fill="#000000" font-family="sans-serif" font-size="20" font-style="italic" lengthAdjust="spacing" textLength="64" x="120.5" y="1327.3613">«root»</text><text fill="#000000" font-family="sans-serif" font-size="20" lengthAdjust="spacing" textLength="69" x="118" y="1350.6426">Course</text><line style="stroke:#181818;stroke-width:0.5;" x1="23" x2="247" y1="1360.3594" y2="1360.3594"/><line style="stroke:#181818;stroke-width:0.5;" x1="23" x2="247" y1="1368.3594" y2="1368.3594"/><ellipse cx="33" cy="1385.5" fill="#84BE84" rx="3" ry="3" style="stroke:#038048;stroke-width:1.0;"/><text fill="#000000" font-family="sans-serif" font-size="20" lengthAdjust="spacing" textLength="199" x="43" y="1390.9238">endingDate() : Date</text></g><!--class CourseEnrollment--><g id="elem_CourseEnrollment"><rect codeLine="19" fill="#F1F1F1" height="95.8438" id="CourseEnrollment" rx="2.5" ry="2.5" style="stroke:#181818;stroke-width:0.5;" width="373" x="105.5" y="1100.7969"/><ellipse cx="197.5" cy="1129.0781" fill="#ADD1B2" rx="12" ry="12" style="stroke:#181818;stroke-width:1.0;"/><path d="M200.5625,1136.1563 Q199.875,1136.5156 199.125,1136.6875 Q198.375,1136.8594 197.5469,1136.8594 Q194.5938,1136.8594 193.0313,1134.9219 Q191.4844,1132.9688 191.4844,1129.2969 Q191.4844,1125.625 193.0313,1123.6875 Q194.5938,1121.7344 197.5469,1121.7344 Q198.375,1121.7344 199.125,1121.9063 Q199.8906,1122.0781 200.5625,1122.4375 L200.5625,1125.6406 Q199.8125,1124.9531 199.1094,1124.6406 Q198.4219,1124.3281 197.6719,1124.3281 Q196.0938,1124.3281 195.2813,1125.5781 Q194.4844,1126.8281 194.4844,1129.2969 Q194.4844,1131.7656 195.2813,1133.0156 Q196.0938,1134.2656 197.6719,1134.2656 Q198.4219,1134.2656 199.1094,1133.9531 Q199.8125,1133.6406 200.5625,1132.9531 L200.5625,1136.1563 Z " fill="#000000"/><text fill="#000000" font-family="sans-serif" font-size="20" font-style="italic" lengthAdjust="spacing" textLength="64" x="277.5" y="1124.3613">«root»</text><text fill="#000000" font-family="sans-serif" font-size="20" lengthAdjust="spacing" textLength="180" x="219.5" y="1147.6426">CourseEnrollment</text><line style="stroke:#181818;stroke-width:0.5;" x1="106.5" x2="477.5" y1="1157.3594" y2="1157.3594"/><line style="stroke:#181818;stroke-width:0.5;" x1="106.5" x2="477.5" y1="1165.3594" y2="1165.3594"/><ellipse cx="116.5" cy="1182.5" fill="#84BE84" rx="3" ry="3" style="stroke:#038048;stroke-width:1.0;"/><text fill="#000000" font-family="sans-serif" font-size="20" lengthAdjust="spacing" textLength="346" x="126.5" y="1187.9238">enrolledStudent() : List&lt;Student&gt;</text></g><!--class TeacherRepository--><g id="elem_TeacherRepository"><rect codeLine="25" fill="#F1F1F1" height="95.8438" id="TeacherRepository" rx="2.5" ry="2.5" style="stroke:#181818;stroke-width:0.5;" width="345" x="1922.5" y="829.7969"/><ellipse cx="1997" cy="858.0781" fill="#B4A7E5" rx="12" ry="12" style="stroke:#181818;stroke-width:1.0;"/><path d="M1992.1875,853.5313 L1992.1875,851 L2000.8594,851 L2000.8594,853.5313 L1997.9688,853.5313 L1997.9688,863.0313 L2000.8594,863.0313 L2000.8594,865.5781 L1992.1875,865.5781 L1992.1875,863.0313 L1995.0781,863.0313 L1995.0781,853.5313 L1992.1875,853.5313 Z " fill="#000000"/><text fill="#000000" font-family="sans-serif" font-size="20" font-style="italic" lengthAdjust="spacing" textLength="125" x="2050" y="853.3613">«repository»</text><text fill="#000000" font-family="sans-serif" font-size="20" font-style="italic" lengthAdjust="spacing" textLength="187" x="2019" y="876.6426">TeacherRepository</text><line style="stroke:#181818;stroke-width:0.5;" x1="1923.5" x2="2266.5" y1="886.3594" y2="886.3594"/><line style="stroke:#181818;stroke-width:0.5;" x1="1923.5" x2="2266.5" y1="894.3594" y2="894.3594"/><ellipse cx="1933.5" cy="911.5" fill="#84BE84" rx="3" ry="3" style="stroke:#038048;stroke-width:1.0;"/><text fill="#000000" font-family="sans-serif" font-size="20" lengthAdjust="spacing" textLength="318" x="1943.5" y="916.9238">findById() : Optional&lt;Teacher&gt;</text></g><!--class CourseEnrollmentRepository--><g id="elem_CourseEnrollmentRepository"><rect codeLine="29" fill="#F1F1F1" height="95.8438" id="CourseEnrollmentRepository" rx="2.5" ry="2.5" style="stroke:#181818;stroke-width:0.5;" width="495" x="1392.5" y="829.7969"/><ellipse cx="1492" cy="858.0781" fill="#B4A7E5" rx="12" ry="12" style="stroke:#181818;stroke-width:1.0;"/><path d="M1487.1875,853.5313 L1487.1875,851 L1495.8594,851 L1495.8594,853.5313 L1492.9688,853.5313 L1492.9688,863.0313 L1495.8594,863.0313 L1495.8594,865.5781 L1487.1875,865.5781 L1487.1875,863.0313 L1490.0781,863.0313 L1490.0781,853.5313 L1487.1875,853.5313 Z " fill="#000000"/><text fill="#000000" font-family="sans-serif" font-size="20" font-style="italic" lengthAdjust="spacing" textLength="125" x="1595" y="853.3613">«repository»</text><text fill="#000000" font-family="sans-serif" font-size="20" font-style="italic" lengthAdjust="spacing" textLength="287" x="1514" y="876.6426">CourseEnrollmentRepository</text><line style="stroke:#181818;stroke-width:0.5;" x1="1393.5" x2="1886.5" y1="886.3594" y2="886.3594"/><line style="stroke:#181818;stroke-width:0.5;" x1="1393.5" x2="1886.5" y1="894.3594" y2="894.3594"/><ellipse cx="1403.5" cy="911.5" fill="#84BE84" rx="3" ry="3" style="stroke:#038048;stroke-width:1.0;"/><text fill="#000000" font-family="sans-serif" font-size="20" lengthAdjust="spacing" textLength="468" x="1413.5" y="916.9238">findByCourse() : Optional&lt;CourseEnrollment&gt;</text></g><!--class ClassRepository--><g id="elem_ClassRepository"><rect codeLine="33" fill="#F1F1F1" height="188.9688" id="ClassRepository" rx="2.5" ry="2.5" style="stroke:#181818;stroke-width:0.5;" width="1000" x="357" y="783.2969"/><ellipse cx="773" cy="811.5781" fill="#B4A7E5" rx="12" ry="12" style="stroke:#181818;stroke-width:1.0;"/><path d="M768.1875,807.0313 L768.1875,804.5 L776.8594,804.5 L776.8594,807.0313 L773.9688,807.0313 L773.9688,816.5313 L776.8594,816.5313 L776.8594,819.0781 L768.1875,819.0781 L768.1875,816.5313 L771.0781,816.5313 L771.0781,807.0313 L768.1875,807.0313 Z " fill="#000000"/><text fill="#000000" font-family="sans-serif" font-size="20" font-style="italic" lengthAdjust="spacing" textLength="125" x="812" y="806.8613">«repository»</text><text fill="#000000" font-family="sans-serif" font-size="20" font-style="italic" lengthAdjust="spacing" textLength="159" x="795" y="830.1426">ClassRepository</text><line style="stroke:#181818;stroke-width:0.5;" x1="358" x2="1356" y1="839.8594" y2="839.8594"/><line style="stroke:#181818;stroke-width:0.5;" x1="358" x2="1356" y1="847.8594" y2="847.8594"/><ellipse cx="368" cy="865" fill="#84BE84" rx="3" ry="3" style="stroke:#038048;stroke-width:1.0;"/><text fill="#000000" font-family="sans-serif" font-size="20" lengthAdjust="spacing" textLength="376" x="378" y="870.4238">saveAll(Class class) : Iterable&lt;Class&gt;</text><ellipse cx="368" cy="888.2813" fill="#84BE84" rx="3" ry="3" style="stroke:#038048;stroke-width:1.0;"/><text fill="#000000" font-family="sans-serif" font-size="20" lengthAdjust="spacing" textLength="472" x="378" y="893.7051">findByCourse(Course course) : Iterable&lt;Class&gt;</text><ellipse cx="368" cy="911.5625" fill="#84BE84" rx="3" ry="3" style="stroke:#038048;stroke-width:1.0;"/><text fill="#000000" font-family="sans-serif" font-size="20" lengthAdjust="spacing" textLength="941" x="378" y="916.9863">findByCourseAndTimePeriod(Course course, TimestampInterval timePeriod) : Iterable&lt;Class&gt;</text><ellipse cx="368" cy="934.8438" fill="#84BE84" rx="3" ry="3" style="stroke:#038048;stroke-width:1.0;"/><text fill="#000000" font-family="sans-serif" font-size="20" lengthAdjust="spacing" textLength="973" x="378" y="940.2676">findByTeacherAndTimePeriod(Teacher teacher, TimestampInterval timePeriod) : Iterable&lt;Class&gt;</text><ellipse cx="368" cy="958.125" fill="#84BE84" rx="3" ry="3" style="stroke:#038048;stroke-width:1.0;"/><text fill="#000000" font-family="sans-serif" font-size="20" lengthAdjust="spacing" textLength="679" x="378" y="963.5488">findByTimePeriod(TimestampInterval timePeriod) : Iterable&lt;Class&gt;</text></g><!--class Class--><g id="elem_Class"><rect codeLine="49" fill="#F1F1F1" height="188.9688" id="Class" rx="2.5" ry="2.5" style="stroke:#181818;stroke-width:0.5;" width="730" x="535" y="1054.2969"/><ellipse cx="865.5" cy="1082.5781" fill="#ADD1B2" rx="12" ry="12" style="stroke:#181818;stroke-width:1.0;"/><path d="M868.5625,1089.6563 Q867.875,1090.0156 867.125,1090.1875 Q866.375,1090.3594 865.5469,1090.3594 Q862.5938,1090.3594 861.0313,1088.4219 Q859.4844,1086.4688 859.4844,1082.7969 Q859.4844,1079.125 861.0313,1077.1875 Q862.5938,1075.2344 865.5469,1075.2344 Q866.375,1075.2344 867.125,1075.4063 Q867.8906,1075.5781 868.5625,1075.9375 L868.5625,1079.1406 Q867.8125,1078.4531 867.1094,1078.1406 Q866.4219,1077.8281 865.6719,1077.8281 Q864.0938,1077.8281 863.2813,1079.0781 Q862.4844,1080.3281 862.4844,1082.7969 Q862.4844,1085.2656 863.2813,1086.5156 Q864.0938,1087.7656 865.6719,1087.7656 Q866.4219,1087.7656 867.1094,1087.4531 Q867.8125,1087.1406 868.5625,1086.4531 L868.5625,1089.6563 Z " fill="#000000"/><text fill="#000000" font-family="sans-serif" font-size="20" font-style="italic" lengthAdjust="spacing" textLength="64" x="885.5" y="1077.8613">«root»</text><text fill="#000000" font-family="sans-serif" font-size="20" lengthAdjust="spacing" textLength="52" x="891.5" y="1101.1426">Class</text><line style="stroke:#181818;stroke-width:0.5;" x1="536" x2="1264" y1="1110.8594" y2="1110.8594"/><rect fill="none" height="6" style="stroke:#C82930;stroke-width:1.0;" width="6" x="543" y="1125"/><text fill="#000000" font-family="sans-serif" font-size="20" lengthAdjust="spacing" textLength="120" x="556" y="1133.4238">title : String</text><rect fill="none" height="6" style="stroke:#C82930;stroke-width:1.0;" width="6" x="543" y="1148.2813"/><text fill="#000000" font-family="sans-serif" font-size="20" lengthAdjust="spacing" textLength="154" x="556" y="1156.7051">course : Course</text><rect fill="none" height="6" style="stroke:#C82930;stroke-width:1.0;" width="6" x="543" y="1171.5625"/><text fill="#000000" font-family="sans-serif" font-size="20" lengthAdjust="spacing" textLength="317" x="556" y="1179.9863">timePeriod : TimestampInterval</text><rect fill="none" height="6" style="stroke:#C82930;stroke-width:1.0;" width="6" x="543" y="1194.8438"/><text fill="#000000" font-family="sans-serif" font-size="20" lengthAdjust="spacing" textLength="175" x="556" y="1203.2676">teacher : Teacher</text><line style="stroke:#181818;stroke-width:0.5;" x1="536" x2="1264" y1="1211.9844" y2="1211.9844"/><ellipse cx="546" cy="1229.125" fill="#84BE84" rx="3" ry="3" style="stroke:#038048;stroke-width:1.0;"/><text fill="#000000" font-family="sans-serif" font-size="20" lengthAdjust="spacing" textLength="703" x="556" y="1234.5488">Class(String title, Course course, TimestampInterval, Teacher teacher)</text></g><!--class ClassType--><g id="elem_ClassType"><rect codeLine="57" fill="#F1F1F1" height="96.5625" id="ClassType" rx="2.5" ry="2.5" style="stroke:#181818;stroke-width:0.5;" width="223" x="788.5" y="1303.2969"/><ellipse cx="845.5" cy="1320.2969" fill="#EB937F" rx="12" ry="12" style="stroke:#181818;stroke-width:1.0;"/><path d="M850.2188,1327.7969 L841.1406,1327.7969 L841.1406,1313.2188 L850.2188,1313.2188 L850.2188,1315.75 L844.0156,1315.75 L844.0156,1318.9063 L849.6406,1318.9063 L849.6406,1321.4375 L844.0156,1321.4375 L844.0156,1325.25 L850.2188,1325.25 L850.2188,1327.7969 Z " fill="#000000"/><text fill="#000000" font-family="sans-serif" font-size="20" lengthAdjust="spacing" textLength="100" x="867.5" y="1327.2207">ClassType</text><line style="stroke:#181818;stroke-width:0.5;" x1="789.5" x2="1010.5" y1="1337.2969" y2="1337.2969"/><ellipse cx="799.5" cy="1354.4375" fill="none" rx="3" ry="3" style="stroke:#038048;stroke-width:1.0;"/><text fill="#000000" font-family="sans-serif" font-size="20" lengthAdjust="spacing" textLength="196" x="809.5" y="1359.8613">RECURRING_CLASS</text><ellipse cx="799.5" cy="1377.7188" fill="none" rx="3" ry="3" style="stroke:#038048;stroke-width:1.0;"/><text fill="#000000" font-family="sans-serif" font-size="20" lengthAdjust="spacing" textLength="142" x="809.5" y="1383.1426">EXTRA_CLASS</text><line style="stroke:#181818;stroke-width:0.5;" x1="789.5" x2="1010.5" y1="1391.8594" y2="1391.8594"/></g><!--class PersistenceContext--><g id="elem_PersistenceContext"><rect codeLine="69" fill="#F1F1F1" height="95.8438" id="PersistenceContext" rx="2.5" ry="2.5" style="stroke:#181818;stroke-width:0.5;" width="343" x="1244.5" y="403.2969"/><ellipse cx="1315.5" cy="431.5781" fill="#ADD1B2" rx="12" ry="12" style="stroke:#181818;stroke-width:1.0;"/><path d="M1318.5625,438.6563 Q1317.875,439.0156 1317.125,439.1875 Q1316.375,439.3594 1315.5469,439.3594 Q1312.5938,439.3594 1311.0313,437.4219 Q1309.4844,435.4688 1309.4844,431.7969 Q1309.4844,428.125 1311.0313,426.1875 Q1312.5938,424.2344 1315.5469,424.2344 Q1316.375,424.2344 1317.125,424.4063 Q1317.8906,424.5781 1318.5625,424.9375 L1318.5625,428.1406 Q1317.8125,427.4531 1317.1094,427.1406 Q1316.4219,426.8281 1315.6719,426.8281 Q1314.0938,426.8281 1313.2813,428.0781 Q1312.4844,429.3281 1312.4844,431.7969 Q1312.4844,434.2656 1313.2813,435.5156 Q1314.0938,436.7656 1315.6719,436.7656 Q1316.4219,436.7656 1317.1094,436.4531 Q1317.8125,436.1406 1318.5625,435.4531 L1318.5625,438.6563 Z " fill="#000000"/><text fill="#000000" font-family="sans-serif" font-size="20" font-style="italic" lengthAdjust="spacing" textLength="139" x="1364" y="426.8613">«persistence»</text><text fill="#000000" font-family="sans-serif" font-size="20" lengthAdjust="spacing" textLength="192" x="1337.5" y="450.1426">PersistenceContext</text><line style="stroke:#181818;stroke-width:0.5;" x1="1245.5" x2="1586.5" y1="459.8594" y2="459.8594"/><ellipse cx="1255.5" cy="477" fill="none" rx="3" ry="3" style="stroke:#038048;stroke-width:1.0;"/><text fill="#000000" font-family="sans-serif" font-size="20" lengthAdjust="spacing" textLength="316" x="1265.5" y="482.4238">repositories : RepositoryFactory</text><line style="stroke:#181818;stroke-width:0.5;" x1="1245.5" x2="1586.5" y1="491.1406" y2="491.1406"/></g><!--class RepositoryFactory--><g id="elem_RepositoryFactory"><rect codeLine="73" fill="#F1F1F1" height="142.4063" id="RepositoryFactory" rx="2.5" ry="2.5" style="stroke:#181818;stroke-width:0.5;" width="535" x="1051.5" y="559.2969"/><ellipse cx="1223.5" cy="587.5781" fill="#B4A7E5" rx="12" ry="12" style="stroke:#181818;stroke-width:1.0;"/><path d="M1218.6875,583.0313 L1218.6875,580.5 L1227.3594,580.5 L1227.3594,583.0313 L1224.4688,583.0313 L1224.4688,592.5313 L1227.3594,592.5313 L1227.3594,595.0781 L1218.6875,595.0781 L1218.6875,592.5313 L1221.5781,592.5313 L1221.5781,583.0313 L1218.6875,583.0313 Z " fill="#000000"/><text fill="#000000" font-family="sans-serif" font-size="20" font-style="italic" lengthAdjust="spacing" textLength="94" x="1289.5" y="582.8613">«factory»</text><text fill="#000000" font-family="sans-serif" font-size="20" font-style="italic" lengthAdjust="spacing" textLength="182" x="1245.5" y="606.1426">RepositoryFactory</text><line style="stroke:#181818;stroke-width:0.5;" x1="1052.5" x2="1585.5" y1="615.8594" y2="615.8594"/><line style="stroke:#181818;stroke-width:0.5;" x1="1052.5" x2="1585.5" y1="623.8594" y2="623.8594"/><ellipse cx="1062.5" cy="641" fill="#84BE84" rx="3" ry="3" style="stroke:#038048;stroke-width:1.0;"/><text fill="#000000" font-family="sans-serif" font-size="20" lengthAdjust="spacing" textLength="307" x="1072.5" y="646.4238">teachers() : TeacherRepository</text><ellipse cx="1062.5" cy="664.2813" fill="#84BE84" rx="3" ry="3" style="stroke:#038048;stroke-width:1.0;"/><text fill="#000000" font-family="sans-serif" font-size="20" lengthAdjust="spacing" textLength="508" x="1072.5" y="669.7051">courseEnrollments() : CourseEnrollmentRepository</text><ellipse cx="1062.5" cy="687.5625" fill="#84BE84" rx="3" ry="3" style="stroke:#038048;stroke-width:1.0;"/><text fill="#000000" font-family="sans-serif" font-size="20" lengthAdjust="spacing" textLength="264" x="1072.5" y="692.9863">classes() : ClassRepository</text></g><!--class ScheduleService--><g id="elem_ScheduleService"><rect codeLine="63" fill="#F1F1F1" height="119.125" id="ScheduleService" rx="2.5" ry="2.5" style="stroke:#181818;stroke-width:0.5;" width="940" x="34" y="570.7969"/><ellipse cx="416.5" cy="599.0781" fill="#ADD1B2" rx="12" ry="12" style="stroke:#181818;stroke-width:1.0;"/><path d="M419.5625,606.1563 Q418.875,606.5156 418.125,606.6875 Q417.375,606.8594 416.5469,606.8594 Q413.5938,606.8594 412.0313,604.9219 Q410.4844,602.9688 410.4844,599.2969 Q410.4844,595.625 412.0313,593.6875 Q413.5938,591.7344 416.5469,591.7344 Q417.375,591.7344 418.125,591.9063 Q418.8906,592.0781 419.5625,592.4375 L419.5625,595.6406 Q418.8125,594.9531 418.1094,594.6406 Q417.4219,594.3281 416.6719,594.3281 Q415.0938,594.3281 414.2813,595.5781 Q413.4844,596.8281 413.4844,599.2969 Q413.4844,601.7656 414.2813,603.0156 Q415.0938,604.2656 416.6719,604.2656 Q417.4219,604.2656 418.1094,603.9531 Q418.8125,603.6406 419.5625,602.9531 L419.5625,606.1563 Z " fill="#000000"/><text fill="#000000" font-family="sans-serif" font-size="20" font-style="italic" lengthAdjust="spacing" textLength="95" x="474" y="594.3613">«service»</text><text fill="#000000" font-family="sans-serif" font-size="20" lengthAdjust="spacing" textLength="166" x="438.5" y="617.6426">ScheduleService</text><line style="stroke:#181818;stroke-width:0.5;" x1="35" x2="973" y1="627.3594" y2="627.3594"/><line style="stroke:#181818;stroke-width:0.5;" x1="35" x2="973" y1="635.3594" y2="635.3594"/><ellipse cx="45" cy="652.5" fill="#84BE84" rx="3" ry="3" style="stroke:#038048;stroke-width:1.0;"/><text fill="#000000" font-family="sans-serif" font-size="20" lengthAdjust="spacing" textLength="881" x="55" y="657.9238">checkCourseStudentDisponibility(course, date, timePeriod, courseEnrollment) : boolean</text><ellipse cx="45" cy="675.7813" fill="#84BE84" rx="3" ry="3" style="stroke:#038048;stroke-width:1.0;"/><text fill="#000000" font-family="sans-serif" font-size="20" lengthAdjust="spacing" textLength="913" x="55" y="681.2051">scheduleClass(title, course, date, timePeriod, courseEnrollment, teacher) : Iterable&lt;Class&gt;</text></g><!--class ClassScheduleUI--><g id="elem_ClassScheduleUI"><rect codeLine="80" fill="#F1F1F1" height="72.5625" id="ClassScheduleUI" rx="2.5" ry="2.5" style="stroke:#181818;stroke-width:0.5;" width="200" x="1428" y="44.2969"/><ellipse cx="1444" cy="72.5781" fill="#ADD1B2" rx="12" ry="12" style="stroke:#181818;stroke-width:1.0;"/><path d="M1447.0625,79.6563 Q1446.375,80.0156 1445.625,80.1875 Q1444.875,80.3594 1444.0469,80.3594 Q1441.0938,80.3594 1439.5313,78.4219 Q1437.9844,76.4688 1437.9844,72.7969 Q1437.9844,69.125 1439.5313,67.1875 Q1441.0938,65.2344 1444.0469,65.2344 Q1444.875,65.2344 1445.625,65.4063 Q1446.3906,65.5781 1447.0625,65.9375 L1447.0625,69.1406 Q1446.3125,68.4531 1445.6094,68.1406 Q1444.9219,67.8281 1444.1719,67.8281 Q1442.5938,67.8281 1441.7813,69.0781 Q1440.9844,70.3281 1440.9844,72.7969 Q1440.9844,75.2656 1441.7813,76.5156 Q1442.5938,77.7656 1444.1719,77.7656 Q1444.9219,77.7656 1445.6094,77.4531 Q1446.3125,77.1406 1447.0625,76.4531 L1447.0625,79.6563 Z " fill="#000000"/><text fill="#000000" font-family="sans-serif" font-size="20" font-style="italic" lengthAdjust="spacing" textLength="151" x="1466.5" y="67.8613">«presentation»</text><text fill="#000000" font-family="sans-serif" font-size="20" lengthAdjust="spacing" textLength="166" x="1459" y="91.1426">ClassScheduleUI</text><line style="stroke:#181818;stroke-width:0.5;" x1="1429" x2="1627" y1="100.8594" y2="100.8594"/><line style="stroke:#181818;stroke-width:0.5;" x1="1429" x2="1627" y1="108.8594" y2="108.8594"/></g><!--class ClassScheduleController--><g id="elem_ClassScheduleController"><rect codeLine="84" fill="#F1F1F1" height="165.6875" id="ClassScheduleController" rx="2.5" ry="2.5" style="stroke:#181818;stroke-width:0.5;" width="1060" x="998" y="177.2969"/><ellipse cx="1401.5" cy="205.5781" fill="#ADD1B2" rx="12" ry="12" style="stroke:#181818;stroke-width:1.0;"/><path d="M1404.5625,212.6563 Q1403.875,213.0156 1403.125,213.1875 Q1402.375,213.3594 1401.5469,213.3594 Q1398.5938,213.3594 1397.0313,211.4219 Q1395.4844,209.4688 1395.4844,205.7969 Q1395.4844,202.125 1397.0313,200.1875 Q1398.5938,198.2344 1401.5469,198.2344 Q1402.375,198.2344 1403.125,198.4063 Q1403.8906,198.5781 1404.5625,198.9375 L1404.5625,202.1406 Q1403.8125,201.4531 1403.1094,201.1406 Q1402.4219,200.8281 1401.6719,200.8281 Q1400.0938,200.8281 1399.2813,202.0781 Q1398.4844,203.3281 1398.4844,205.7969 Q1398.4844,208.2656 1399.2813,209.5156 Q1400.0938,210.7656 1401.6719,210.7656 Q1402.4219,210.7656 1403.1094,210.4531 Q1403.8125,210.1406 1404.5625,209.4531 L1404.5625,212.6563 Z " fill="#000000"/><text fill="#000000" font-family="sans-serif" font-size="20" font-style="italic" lengthAdjust="spacing" textLength="136" x="1477.5" y="200.8613">«application»</text><text fill="#000000" font-family="sans-serif" font-size="20" lengthAdjust="spacing" textLength="244" x="1423.5" y="224.1426">ClassScheduleController</text><line style="stroke:#181818;stroke-width:0.5;" x1="999" x2="2057" y1="233.8594" y2="233.8594"/><line style="stroke:#181818;stroke-width:0.5;" x1="999" x2="2057" y1="241.8594" y2="241.8594"/><ellipse cx="1009" cy="259" fill="#84BE84" rx="3" ry="3" style="stroke:#038048;stroke-width:1.0;"/><text fill="#000000" font-family="sans-serif" font-size="20" lengthAdjust="spacing" textLength="324" x="1019" y="264.4238">listCourses() : Iterable&lt;Course&gt;</text><ellipse cx="1009" cy="282.2813" fill="#84BE84" rx="3" ry="3" style="stroke:#038048;stroke-width:1.0;"/><text fill="#000000" font-family="sans-serif" font-size="20" lengthAdjust="spacing" textLength="498" x="1019" y="287.7051">courseSchedule(Course course) : Iterable&lt;Class&gt;</text><ellipse cx="1009" cy="305.5625" fill="#84BE84" rx="3" ry="3" style="stroke:#038048;stroke-width:1.0;"/><text fill="#000000" font-family="sans-serif" font-size="20" lengthAdjust="spacing" textLength="953" x="1019" y="310.9863">checkStudentDisponibility(Course course, DayOfWeek date, TimeInterval timePeriod) : boolean</text><ellipse cx="1009" cy="328.8438" fill="#84BE84" rx="3" ry="3" style="stroke:#038048;stroke-width:1.0;"/><text fill="#000000" font-family="sans-serif" font-size="20" lengthAdjust="spacing" textLength="1033" x="1019" y="334.2676">scheduleClass(String title, Course course, DayOfWeek date, TimeInterval timePeriod) : Iterable&lt;Class&gt;</text></g><!--link ClassScheduleUI to ClassScheduleController--><g id="link_ClassScheduleUI_ClassScheduleController"><path codeLine="91" d="M1528,117.5569 C1528,117.5569 1528,172.2869 1528,172.2869 " fill="none" id="ClassScheduleUI-to-ClassScheduleController" style="stroke:#181818;stroke-width:1.0;stroke-dasharray:7.0,7.0;"/><polygon fill="#181818" points="1528,177.2869,1532,168.2869,1528,172.2869,1524,168.2869,1528,177.2869" style="stroke:#181818;stroke-width:1.0;"/></g><!--link ClassScheduleUI to Course--><g id="link_ClassScheduleUI_Course"><path codeLine="92" d="M1427.84,81.2969 C1092.17,81.2969 28,81.2969 28,81.2969 C28,81.2969 28,1298.5469 28,1298.5469 " fill="none" id="ClassScheduleUI-to-Course" style="stroke:#181818;stroke-width:1.0;stroke-dasharray:7.0,7.0;"/><polygon fill="#181818" points="28,1303.5469,32,1294.5469,28,1298.5469,24,1294.5469,28,1303.5469" style="stroke:#181818;stroke-width:1.0;"/></g><!--link ClassScheduleUI to Class--><g id="link_ClassScheduleUI_Class"><path codeLine="93" d="M1628.2,81.2969 C1834.07,81.2969 2285.5,81.2969 2285.5,81.2969 C2285.5,81.2969 2285.5,1078.2969 2285.5,1078.2969 C2285.5,1078.2969 1270.38,1078.2969 1270.38,1078.2969 " fill="none" id="ClassScheduleUI-to-Class" style="stroke:#181818;stroke-width:1.0;stroke-dasharray:7.0,7.0;"/><polygon fill="#181818" points="1265.38,1078.2969,1274.38,1082.2969,1270.38,1078.2969,1274.38,1074.2969,1265.38,1078.2969" style="stroke:#181818;stroke-width:1.0;"/></g><!--link ClassScheduleController to PersistenceContext--><g id="link_ClassScheduleController_PersistenceContext"><path codeLine="94" d="M1416,343.5169 C1416,343.5169 1416,398.2069 1416,398.2069 " fill="none" id="ClassScheduleController-to-PersistenceContext" style="stroke:#181818;stroke-width:1.0;stroke-dasharray:7.0,7.0;"/><polygon fill="#181818" points="1416,403.2069,1420,394.2069,1416,398.2069,1412,394.2069,1416,403.2069" style="stroke:#181818;stroke-width:1.0;"/></g><!--link ClassScheduleController to RepositoryFactory--><g id="link_ClassScheduleController_RepositoryFactory"><path codeLine="95" d="M1148,343.3369 C1148,343.3369 1148,554.0669 1148,554.0669 " fill="none" id="ClassScheduleController-to-RepositoryFactory" style="stroke:#181818;stroke-width:1.0;stroke-dasharray:7.0,7.0;"/><polygon fill="#181818" points="1148,559.0669,1152,550.0669,1148,554.0669,1144,550.0669,1148,559.0669" style="stroke:#181818;stroke-width:1.0;"/></g><!--link ClassScheduleController to TeacherRepository--><g id="link_ClassScheduleController_TeacherRepository"><path codeLine="96" d="M2012.83,343.5769 C2012.83,343.5769 2012.83,824.6269 2012.83,824.6269 " fill="none" id="ClassScheduleController-to-TeacherRepository" style="stroke:#181818;stroke-width:1.0;stroke-dasharray:7.0,7.0;"/><polygon fill="#181818" points="2012.83,829.6269,2016.83,820.6269,2012.83,824.6269,2008.83,820.6269,2012.83,829.6269" style="stroke:#181818;stroke-width:1.0;"/></g><!--link ClassScheduleController to CourseEnrollmentRepository--><g id="link_ClassScheduleController_CourseEnrollmentRepository"><path codeLine="97" d="M1737.5,343.5769 C1737.5,343.5769 1737.5,824.6269 1737.5,824.6269 " fill="none" id="ClassScheduleController-to-CourseEnrollmentRepository" style="stroke:#181818;stroke-width:1.0;stroke-dasharray:7.0,7.0;"/><polygon fill="#181818" points="1737.5,829.6269,1741.5,820.6269,1737.5,824.6269,1733.5,820.6269,1737.5,829.6269" style="stroke:#181818;stroke-width:1.0;"/></g><!--link ClassScheduleController to ClassRepository--><g id="link_ClassScheduleController_ClassRepository"><path codeLine="98" d="M1033.67,343.5769 C1033.67,343.5769 1033.67,778.2169 1033.67,778.2169 " fill="none" id="ClassScheduleController-to-ClassRepository" style="stroke:#181818;stroke-width:1.0;stroke-dasharray:7.0,7.0;"/><polygon fill="#181818" points="1033.67,783.2169,1037.67,774.2169,1033.67,778.2169,1029.67,774.2169,1033.67,783.2169" style="stroke:#181818;stroke-width:1.0;"/></g><!--link ClassScheduleController to ScheduleService--><g id="link_ClassScheduleController_ScheduleService"><path codeLine="99" d="M1015.83,343.3369 C1015.83,452.4169 1015.83,630.2969 1015.83,630.2969 C1015.83,630.2969 979.38,630.2969 979.38,630.2969 " fill="none" id="ClassScheduleController-to-ScheduleService" style="stroke:#181818;stroke-width:1.0;stroke-dasharray:7.0,7.0;"/><polygon fill="#181818" points="974.38,630.2969,983.38,634.2969,979.38,630.2969,983.38,626.2969,974.38,630.2969" style="stroke:#181818;stroke-width:1.0;"/></g><!--link ScheduleService to CourseEnrollment--><g id="link_ScheduleService_CourseEnrollment"><path codeLine="100" d="M189.33,690.0269 C189.33,690.0269 189.33,1095.7569 189.33,1095.7569 " fill="none" id="ScheduleService-to-CourseEnrollment" style="stroke:#181818;stroke-width:1.0;stroke-dasharray:7.0,7.0;"/><polygon fill="#181818" points="189.33,1100.7569,193.33,1091.7569,189.33,1095.7569,185.33,1091.7569,189.33,1100.7569" style="stroke:#181818;stroke-width:1.0;"/></g><!--link ScheduleService to Class--><g id="link_ScheduleService_Class"><path codeLine="101" d="M273.17,690.2469 C273.17,812.3269 273.17,1078.2969 273.17,1078.2969 C273.17,1078.2969 529.91,1078.2969 529.91,1078.2969 " fill="none" id="ScheduleService-to-Class" style="stroke:#181818;stroke-width:1.0;stroke-dasharray:7.0,7.0;"/><polygon fill="#181818" points="534.91,1078.2969,525.91,1074.2969,529.91,1078.2969,525.91,1082.2969,534.91,1078.2969" style="stroke:#181818;stroke-width:1.0;"/></g><!--link ScheduleService to ClassRepository--><g id="link_ScheduleService_ClassRepository"><path codeLine="103" d="M665.5,689.8969 C665.5,689.8969 665.5,777.9769 665.5,777.9769 " fill="none" id="ScheduleService-to-ClassRepository" style="stroke:#181818;stroke-width:1.0;stroke-dasharray:7.0,7.0;"/><polygon fill="#181818" points="665.5,782.9769,669.5,773.9769,665.5,777.9769,661.5,773.9769,665.5,782.9769" style="stroke:#181818;stroke-width:1.0;"/></g><!--link ScheduleService to Course--><g id="link_ScheduleService_Course"><path codeLine="104" d="M69.75,689.9569 C69.75,689.9569 69.75,1298.6969 69.75,1298.6969 " fill="none" id="ScheduleService-to-Course" style="stroke:#181818;stroke-width:1.0;stroke-dasharray:7.0,7.0;"/><polygon fill="#181818" points="69.75,1303.6969,73.75,1294.6969,69.75,1298.6969,65.75,1294.6969,69.75,1303.6969" style="stroke:#181818;stroke-width:1.0;"/></g><!--link PersistenceContext to RepositoryFactory--><g id="link_PersistenceContext_RepositoryFactory"><path codeLine="105" d="M1415.5,499.7369 C1415.5,499.7369 1415.5,554.2969 1415.5,554.2969 " fill="none" id="PersistenceContext-to-RepositoryFactory" style="stroke:#181818;stroke-width:1.0;"/><polygon fill="#181818" points="1415.5,559.2969,1419.5,550.2969,1415.5,554.2969,1411.5,550.2969,1415.5,559.2969" style="stroke:#181818;stroke-width:1.0;"/></g><!--link RepositoryFactory to TeacherRepository--><g id="link_RepositoryFactory_TeacherRepository"><path codeLine="106" d="M1586.58,630.2969 C1765.27,630.2969 1967.67,630.2969 1967.67,630.2969 C1967.67,630.2969 1967.67,824.7869 1967.67,824.7869 " fill="none" id="RepositoryFactory-to-TeacherRepository" style="stroke:#181818;stroke-width:1.0;"/><polygon fill="#181818" points="1967.67,829.7869,1971.67,820.7869,1967.67,824.7869,1963.67,820.7869,1967.67,829.7869" style="stroke:#181818;stroke-width:1.0;"/></g><!--link RepositoryFactory to CourseEnrollmentRepository--><g id="link_RepositoryFactory_CourseEnrollmentRepository"><path codeLine="107" d="M1489.5,701.5569 C1489.5,701.5569 1489.5,824.7269 1489.5,824.7269 " fill="none" id="RepositoryFactory-to-CourseEnrollmentRepository" style="stroke:#181818;stroke-width:1.0;"/><polygon fill="#181818" points="1489.5,829.7269,1493.5,820.7269,1489.5,824.7269,1485.5,820.7269,1489.5,829.7269" style="stroke:#181818;stroke-width:1.0;"/></g><!--link RepositoryFactory to ClassRepository--><g id="link_RepositoryFactory_ClassRepository"><path codeLine="108" d="M1204.25,701.5569 C1204.25,701.5569 1204.25,778.0969 1204.25,778.0969 " fill="none" id="RepositoryFactory-to-ClassRepository" style="stroke:#181818;stroke-width:1.0;"/><polygon fill="#181818" points="1204.25,783.0969,1208.25,774.0969,1204.25,778.0969,1200.25,774.0969,1204.25,783.0969" style="stroke:#181818;stroke-width:1.0;"/></g><!--link TeacherRepository to Teacher--><g id="link_TeacherRepository_Teacher"><path codeLine="109" d="M2095,925.9369 C2095,925.9369 2095,1095.6569 2095,1095.6569 " fill="none" id="TeacherRepository-to-Teacher" style="stroke:#181818;stroke-width:1.0;"/><polygon fill="#181818" points="2095,1100.6569,2099,1091.6569,2095,1095.6569,2091,1091.6569,2095,1100.6569" style="stroke:#181818;stroke-width:1.0;"/></g><!--link CourseEnrollmentRepository to CourseEnrollment--><g id="link_CourseEnrollmentRepository_CourseEnrollment"><path codeLine="110" d="M1640,925.9469 C1640,964.8969 1640,1013.2969 1640,1013.2969 C1640,1013.2969 417.75,1013.2969 417.75,1013.2969 C417.75,1013.2969 417.75,1095.6469 417.75,1095.6469 " fill="none" id="CourseEnrollmentRepository-to-CourseEnrollment" style="stroke:#181818;stroke-width:1.0;"/><polygon fill="#181818" points="417.75,1100.6469,421.75,1091.6469,417.75,1095.6469,413.75,1091.6469,417.75,1100.6469" style="stroke:#181818;stroke-width:1.0;"/></g><!--link ClassRepository to Class--><g id="link_ClassRepository_Class"><path codeLine="111" d="M900,972.5769 C900,972.5769 900,1049.0669 900,1049.0669 " fill="none" id="ClassRepository-to-Class" style="stroke:#181818;stroke-width:1.0;"/><polygon fill="#181818" points="900,1054.0669,904,1045.0669,900,1049.0669,896,1045.0669,900,1054.0669" style="stroke:#181818;stroke-width:1.0;"/></g><!--link CourseEnrollment to Course--><g id="link_CourseEnrollment_Course"><path codeLine="116" d="M153,1196.9069 C153,1196.9069 153,1298.6869 153,1298.6869 " fill="none" id="CourseEnrollment-to-Course" style="stroke:#181818;stroke-width:1.0;"/><polygon fill="#181818" points="153,1303.6869,157,1294.6869,153,1298.6869,149,1294.6869,153,1303.6869" style="stroke:#181818;stroke-width:1.0;"/></g><!--link Class to Course--><g id="link_Class_Course"><path codeLine="117" d="M534.88,1220.2969 C365.28,1220.2969 200.5,1220.2969 200.5,1220.2969 C200.5,1220.2969 200.5,1298.5769 200.5,1298.5769 " fill="none" id="Class-to-Course" style="stroke:#181818;stroke-width:1.0;"/><polygon fill="#181818" points="200.5,1303.5769,204.5,1294.5769,200.5,1298.5769,196.5,1294.5769,200.5,1303.5769" style="stroke:#181818;stroke-width:1.0;"/></g><!--link Class to ClassType--><g id="link_Class_ClassType"><path codeLine="118" d="M900,1243.4669 C900,1243.4669 900,1298.1669 900,1298.1669 " fill="none" id="Class-to-ClassType" style="stroke:#181818;stroke-width:1.0;"/><polygon fill="#181818" points="900,1303.1669,904,1294.1669,900,1298.1669,896,1294.1669,900,1303.1669" style="stroke:#181818;stroke-width:1.0;"/></g><!--SRC=[hLP9Rnen5BxFh_0Dgi9GzOWG4eMaGegQ28ZQMsKy9bWOUsHxej8e_xtU1ZoU9IHg3idaRT_Rd-M1i1mAUAGS7N06Cho31LMtdAar-Ol1roz9RwzKBiUZKKuXKyMHfeWVHuX2AOSPWKzQEL54KGms6A8z5c25KI44OKzWRgJ0MbEpGWiCFM5Hgl4SA0wsN2b-11aH62d2MI9Bhm0b3AjJZW4NQi-J98Ve09ykK2y9q3_McJDjCX6Sg-dKCytFPu1u8IIM_KzW39OA2xYbU3AtnAaLUqrUB-OTesBTangDOvRfQ1TGOMlVVBJPl662Kth4J3LO3vWjE8QFixKgCYramUw8L1DFQ8X4u9nBehWWM7fRXEduTn2TixWgPKu6zlnF1BuZBFjsMcOMzJutXO9quasKo1507DPxa9nk5IssrmPhSdeTbeJFU4PftpMcBKQrHGnbskQSRmhNNDVhpLYs8KVyW0NXMTN801YELF2OBqqypv02TPQz1i9Nf8fHpePoV_y3Ic3x0wQgas5p_vACUk54cD-t4Fa2xjoNhbwbVDk2KDUHLZxcd3UHvVRNocubkwq6u1rv7u0eWGRncPFC1zCRnPut3V3G8MjLvqZ0S4wOCEn7HQLqGdDhFeQ2tiDnwMkGZ8-4Nuyv73RCYgCpkp7hEQp9wcR-k5ejVtp_FR-RhTS1v-RNPZKBgBOBKEL6h3KsGMRFIlTrpg3UuNkC3ivjl_0MHEQSaIsXH9twPIYPth-3IlLGj3TC-RQSKmoPjoqzlikKJz7r1WTXOyGD7xGwOJi1TPv5WLGXS9fZ8VK2nmnLhyt3XJxNjnZ_CHSX40woKjdmOt1PUtvucbTaJQmoOs4vVM3kTDOkHkt4NdBYDDfFGAXgWlRNELhUSQDOTjajZqkJ5e6bDWpDZR2-jmYRHDhxQPu8CCyfGHSTvmVLwPs_zL8e8otjNdS5VFisDcuqYWjukj_znFZW6y-CPijkxMhYpd5_1qP3EyT5IDDfMwwRPQqNgLzshTPIjzJRgcZaweFIALwVZYxfUhTtINTqUgTQrEzTij6MJEAjsUH66XEQjMocUwsiCbsj0a44xLwL5MzORyDXKtNgQyh8rUlIBDTHaHQ5A9Bw0pc0Jyixs_7ARVAYNf3ulNfsnGz0h_8OYiUZWLj9TfqV1z0BpBMWc2kVl1b946zbk9sDQxWHuZy0]--></g></svg>