<?xml version="1.0" encoding="UTF-8" standalone="no"?><svg xmlns="http://www.w3.org/2000/svg" xmlns:xlink="http://www.w3.org/1999/xlink" contentStyleType="text/css" height="2075px" preserveAspectRatio="none" style="width:2693px;height:2075px;background:#FFFFFF;" version="1.1" viewBox="0 0 2693 2075" width="2693px" zoomAndPan="magnify"><defs/><g><text fill="#000000" font-family="sans-serif" font-size="14" font-weight="bold" lengthAdjust="spacing" textLength="272" x="1208" y="27.9951">Teacher Recurring Class Schedule</text><rect fill="#FFFFFF" height="1774.5" style="stroke:#181818;stroke-width:1.0;" width="10" x="553" y="174.1406"/><rect fill="#FFFFFF" height="381.8125" style="stroke:#181818;stroke-width:1.0;" width="10" x="1138" y="214.4219"/><rect fill="#FFFFFF" height="114.8438" style="stroke:#181818;stroke-width:1.0;" width="10" x="1138" y="636.5156"/><rect fill="#FFFFFF" height="114.8438" style="stroke:#181818;stroke-width:1.0;" width="10" x="1138" y="866.2031"/><rect fill="#FFFFFF" height="250.9688" style="stroke:#181818;stroke-width:1.0;" width="10" x="1138" y="1133.1719"/><rect fill="#FFFFFF" height="318.25" style="stroke:#181818;stroke-width:1.0;" width="10" x="1138" y="1593.1094"/><rect fill="#FFFFFF" height="40.2813" style="stroke:#181818;stroke-width:1.0;" width="10" x="1380" y="254.7031"/><rect fill="#FFFFFF" height="37.2813" style="stroke:#181818;stroke-width:1.0;" width="10" x="1590" y="335.2656"/><rect fill="#FFFFFF" height="37.2813" style="stroke:#181818;stroke-width:1.0;" width="10" x="1590" y="409.8281"/><rect fill="#FFFFFF" height="37.2813" style="stroke:#181818;stroke-width:1.0;" width="10" x="1590" y="484.3906"/><rect fill="#FFFFFF" height="37.2813" style="stroke:#181818;stroke-width:1.0;" width="10" x="1793" y="558.9531"/><rect fill="#FFFFFF" height="37.2813" style="stroke:#181818;stroke-width:1.0;" width="10" x="1956" y="676.7969"/><rect fill="#FFFFFF" height="37.2813" style="stroke:#181818;stroke-width:1.0;" width="10" x="2169" y="1173.4531"/><rect fill="#FFFFFF" height="37.2813" style="stroke:#181818;stroke-width:1.0;" width="10" x="2169" y="1633.3906"/><rect fill="#FFFFFF" height="98.8438" style="stroke:#181818;stroke-width:1.0;" width="10" x="2415" y="1248.0156"/><rect fill="#FFFFFF" height="98.8438" style="stroke:#181818;stroke-width:1.0;" width="10" x="2415" y="1707.9531"/><rect fill="#FFFFFF" height="37.2813" style="stroke:#181818;stroke-width:1.0;" width="10" x="2597" y="906.4844"/><rect fill="#FFFFFF" height="30" style="stroke:#181818;stroke-width:1.0;" width="10" x="2597" y="1844.0781"/><rect fill="none" height="154.6875" style="stroke:#000000;stroke-width:1.5;" width="648" x="10" y="1399.1406"/><line style="stroke:#181818;stroke-width:0.5;stroke-dasharray:5.0,5.0;" x1="61" x2="61" y1="134.8594" y2="1966.6406"/><line style="stroke:#181818;stroke-width:0.5;stroke-dasharray:5.0,5.0;" x1="558" x2="558" y1="134.8594" y2="1966.6406"/><line style="stroke:#181818;stroke-width:0.5;stroke-dasharray:5.0,5.0;" x1="1143" x2="1143" y1="134.8594" y2="1966.6406"/><line style="stroke:#181818;stroke-width:0.5;stroke-dasharray:5.0,5.0;" x1="1385" x2="1385" y1="134.8594" y2="1966.6406"/><line style="stroke:#181818;stroke-width:0.5;stroke-dasharray:5.0,5.0;" x1="1595" x2="1595" y1="134.8594" y2="1966.6406"/><line style="stroke:#181818;stroke-width:0.5;stroke-dasharray:5.0,5.0;" x1="1798" x2="1798" y1="134.8594" y2="1966.6406"/><line style="stroke:#181818;stroke-width:0.5;stroke-dasharray:5.0,5.0;" x1="1961" x2="1961" y1="134.8594" y2="1966.6406"/><line style="stroke:#181818;stroke-width:0.5;stroke-dasharray:5.0,5.0;" x1="2174" x2="2174" y1="134.8594" y2="1966.6406"/><line style="stroke:#181818;stroke-width:0.5;stroke-dasharray:5.0,5.0;" x1="2420" x2="2420" y1="134.8594" y2="1966.6406"/><line style="stroke:#181818;stroke-width:0.5;stroke-dasharray:5.0,5.0;" x1="2602" x2="2602" y1="134.8594" y2="1966.6406"/><text fill="#000000" font-family="sans-serif" font-size="20" lengthAdjust="spacing" textLength="76" x="20" y="130.1426">teacher</text><ellipse cx="61" cy="60.0781" fill="#E2E2F0" rx="8" ry="8" style="stroke:#181818;stroke-width:0.5;"/><path d="M61,68.0781 L61,95.0781 M48,76.0781 L74,76.0781 M61,95.0781 L48,110.0781 M61,95.0781 L74,110.0781 " fill="none" style="stroke:#181818;stroke-width:0.5;"/><text fill="#000000" font-family="sans-serif" font-size="20" lengthAdjust="spacing" textLength="76" x="20" y="1984.2051">teacher</text><ellipse cx="61" cy="1997.4219" fill="#E2E2F0" rx="8" ry="8" style="stroke:#181818;stroke-width:0.5;"/><path d="M61,2005.4219 L61,2032.4219 M48,2013.4219 L74,2013.4219 M61,2032.4219 L48,2047.4219 M61,2032.4219 L74,2047.4219 " fill="none" style="stroke:#181818;stroke-width:0.5;"/><rect fill="#E2E2F0" height="60.5625" rx="2.5" ry="2.5" style="stroke:#181818;stroke-width:0.5;" width="180" x="468" y="73.2969"/><text fill="#000000" font-family="sans-serif" font-size="20" font-style="italic" lengthAdjust="spacing" textLength="151" x="482.5" y="98.8613">«presentation»</text><text fill="#000000" font-family="sans-serif" font-size="20" lengthAdjust="spacing" textLength="166" x="475" y="122.1426">ClassScheduleUI</text><rect fill="#E2E2F0" height="60.5625" rx="2.5" ry="2.5" style="stroke:#181818;stroke-width:0.5;" width="180" x="468" y="1965.6406"/><text fill="#000000" font-family="sans-serif" font-size="20" font-style="italic" lengthAdjust="spacing" textLength="151" x="482.5" y="1991.2051">«presentation»</text><text fill="#000000" font-family="sans-serif" font-size="20" lengthAdjust="spacing" textLength="166" x="475" y="2014.4863">ClassScheduleUI</text><rect fill="#E2E2F0" height="60.5625" rx="2.5" ry="2.5" style="stroke:#181818;stroke-width:0.5;" width="258" x="1014" y="73.2969"/><text fill="#000000" font-family="sans-serif" font-size="20" font-style="italic" lengthAdjust="spacing" textLength="136" x="1075" y="98.8613">«application»</text><text fill="#000000" font-family="sans-serif" font-size="20" lengthAdjust="spacing" textLength="244" x="1021" y="122.1426">ClassScheduleController</text><rect fill="#E2E2F0" height="60.5625" rx="2.5" ry="2.5" style="stroke:#181818;stroke-width:0.5;" width="258" x="1014" y="1965.6406"/><text fill="#000000" font-family="sans-serif" font-size="20" font-style="italic" lengthAdjust="spacing" textLength="136" x="1075" y="1991.2051">«application»</text><text fill="#000000" font-family="sans-serif" font-size="20" lengthAdjust="spacing" textLength="244" x="1021" y="2014.4863">ClassScheduleController</text><rect fill="#E2E2F0" height="60.5625" rx="2.5" ry="2.5" style="stroke:#181818;stroke-width:0.5;" width="206" x="1282" y="73.2969"/><text fill="#000000" font-family="sans-serif" font-size="20" font-style="italic" lengthAdjust="spacing" textLength="139" x="1315.5" y="98.8613">«persistence»</text><text fill="#000000" font-family="sans-serif" font-size="20" lengthAdjust="spacing" textLength="192" x="1289" y="122.1426">PersistenceContext</text><rect fill="#E2E2F0" height="60.5625" rx="2.5" ry="2.5" style="stroke:#181818;stroke-width:0.5;" width="206" x="1282" y="1965.6406"/><text fill="#000000" font-family="sans-serif" font-size="20" font-style="italic" lengthAdjust="spacing" textLength="139" x="1315.5" y="1991.2051">«persistence»</text><text fill="#000000" font-family="sans-serif" font-size="20" lengthAdjust="spacing" textLength="192" x="1289" y="2014.4863">PersistenceContext</text><rect fill="#E2E2F0" height="60.5625" rx="2.5" ry="2.5" style="stroke:#181818;stroke-width:0.5;" width="194" x="1498" y="73.2969"/><text fill="#000000" font-family="sans-serif" font-size="20" font-style="italic" lengthAdjust="spacing" textLength="94" x="1548" y="98.8613">«factory»</text><text fill="#000000" font-family="sans-serif" font-size="20" lengthAdjust="spacing" textLength="180" x="1505" y="122.1426">RepositoryFactory</text><rect fill="#E2E2F0" height="60.5625" rx="2.5" ry="2.5" style="stroke:#181818;stroke-width:0.5;" width="194" x="1498" y="1965.6406"/><text fill="#000000" font-family="sans-serif" font-size="20" font-style="italic" lengthAdjust="spacing" textLength="94" x="1548" y="1991.2051">«factory»</text><text fill="#000000" font-family="sans-serif" font-size="20" lengthAdjust="spacing" textLength="180" x="1505" y="2014.4863">RepositoryFactory</text><text fill="#000000" font-family="sans-serif" font-size="20" font-style="italic" lengthAdjust="spacing" textLength="125" x="1732.5" y="106.8613">«repository»</text><text fill="#000000" font-family="sans-serif" font-size="20" lengthAdjust="spacing" textLength="186" x="1702" y="130.1426">TeacherRepository</text><path d="M1780,52.2969 C1780,42.2969 1798,42.2969 1798,42.2969 C1798,42.2969 1816,42.2969 1816,52.2969 L1816,78.2969 C1816,88.2969 1798,88.2969 1798,88.2969 C1798,88.2969 1780,88.2969 1780,78.2969 L1780,52.2969 " fill="#E2E2F0" style="stroke:#181818;stroke-width:1.5;"/><path d="M1780,52.2969 C1780,62.2969 1798,62.2969 1798,62.2969 C1798,62.2969 1816,62.2969 1816,52.2969 " fill="none" style="stroke:#181818;stroke-width:1.5;"/><text fill="#000000" font-family="sans-serif" font-size="20" font-style="italic" lengthAdjust="spacing" textLength="125" x="1732.5" y="1984.2051">«repository»</text><text fill="#000000" font-family="sans-serif" font-size="20" lengthAdjust="spacing" textLength="186" x="1702" y="2007.4863">TeacherRepository</text><path d="M1780,2022.2031 C1780,2012.2031 1798,2012.2031 1798,2012.2031 C1798,2012.2031 1816,2012.2031 1816,2022.2031 L1816,2048.2031 C1816,2058.2031 1798,2058.2031 1798,2058.2031 C1798,2058.2031 1780,2058.2031 1780,2048.2031 L1780,2022.2031 " fill="#E2E2F0" style="stroke:#181818;stroke-width:1.5;"/><path d="M1780,2022.2031 C1780,2032.2031 1798,2032.2031 1798,2032.2031 C1798,2032.2031 1816,2032.2031 1816,2022.2031 " fill="none" style="stroke:#181818;stroke-width:1.5;"/><rect fill="#E2E2F0" height="60.5625" rx="2.5" ry="2.5" style="stroke:#181818;stroke-width:0.5;" width="114" x="1904" y="73.2969"/><text fill="#000000" font-family="sans-serif" font-size="20" font-style="italic" lengthAdjust="spacing" textLength="100" x="1911" y="98.8613">«domain»</text><text fill="#000000" font-family="sans-serif" font-size="20" lengthAdjust="spacing" textLength="80" x="1921" y="122.1426">Teacher</text><rect fill="#E2E2F0" height="60.5625" rx="2.5" ry="2.5" style="stroke:#181818;stroke-width:0.5;" width="114" x="1904" y="1965.6406"/><text fill="#000000" font-family="sans-serif" font-size="20" font-style="italic" lengthAdjust="spacing" textLength="100" x="1911" y="1991.2051">«domain»</text><text fill="#000000" font-family="sans-serif" font-size="20" lengthAdjust="spacing" textLength="80" x="1921" y="2014.4863">Teacher</text><text fill="#000000" font-family="sans-serif" font-size="20" font-style="italic" lengthAdjust="spacing" textLength="125" x="2108.5" y="106.8613">«repository»</text><text fill="#000000" font-family="sans-serif" font-size="20" lengthAdjust="spacing" textLength="286" x="2028" y="130.1426">CourseEnrollmentRepository</text><path d="M2156,52.2969 C2156,42.2969 2174,42.2969 2174,42.2969 C2174,42.2969 2192,42.2969 2192,52.2969 L2192,78.2969 C2192,88.2969 2174,88.2969 2174,88.2969 C2174,88.2969 2156,88.2969 2156,78.2969 L2156,52.2969 " fill="#E2E2F0" style="stroke:#181818;stroke-width:1.5;"/><path d="M2156,52.2969 C2156,62.2969 2174,62.2969 2174,62.2969 C2174,62.2969 2192,62.2969 2192,52.2969 " fill="none" style="stroke:#181818;stroke-width:1.5;"/><text fill="#000000" font-family="sans-serif" font-size="20" font-style="italic" lengthAdjust="spacing" textLength="125" x="2108.5" y="1984.2051">«repository»</text><text fill="#000000" font-family="sans-serif" font-size="20" lengthAdjust="spacing" textLength="286" x="2028" y="2007.4863">CourseEnrollmentRepository</text><path d="M2156,2022.2031 C2156,2012.2031 2174,2012.2031 2174,2012.2031 C2174,2012.2031 2192,2012.2031 2192,2022.2031 L2192,2048.2031 C2192,2058.2031 2174,2058.2031 2174,2058.2031 C2174,2058.2031 2156,2058.2031 2156,2048.2031 L2156,2022.2031 " fill="#E2E2F0" style="stroke:#181818;stroke-width:1.5;"/><path d="M2156,2022.2031 C2156,2032.2031 2174,2032.2031 2174,2032.2031 C2174,2032.2031 2192,2032.2031 2192,2022.2031 " fill="none" style="stroke:#181818;stroke-width:1.5;"/><rect fill="#E2E2F0" height="60.5625" rx="2.5" ry="2.5" style="stroke:#181818;stroke-width:0.5;" width="180" x="2330" y="73.2969"/><text fill="#000000" font-family="sans-serif" font-size="20" font-style="italic" lengthAdjust="spacing" textLength="95" x="2372.5" y="98.8613">«service»</text><text fill="#000000" font-family="sans-serif" font-size="20" lengthAdjust="spacing" textLength="166" x="2337" y="122.1426">ScheduleService</text><rect fill="#E2E2F0" height="60.5625" rx="2.5" ry="2.5" style="stroke:#181818;stroke-width:0.5;" width="180" x="2330" y="1965.6406"/><text fill="#000000" font-family="sans-serif" font-size="20" font-style="italic" lengthAdjust="spacing" textLength="95" x="2372.5" y="1991.2051">«service»</text><text fill="#000000" font-family="sans-serif" font-size="20" lengthAdjust="spacing" textLength="166" x="2337" y="2014.4863">ScheduleService</text><text fill="#000000" font-family="sans-serif" font-size="20" font-style="italic" lengthAdjust="spacing" textLength="125" x="2536.5" y="106.8613">«repository»</text><text fill="#000000" font-family="sans-serif" font-size="20" lengthAdjust="spacing" textLength="158" x="2520" y="130.1426">ClassRepository</text><path d="M2584,52.2969 C2584,42.2969 2602,42.2969 2602,42.2969 C2602,42.2969 2620,42.2969 2620,52.2969 L2620,78.2969 C2620,88.2969 2602,88.2969 2602,88.2969 C2602,88.2969 2584,88.2969 2584,78.2969 L2584,52.2969 " fill="#E2E2F0" style="stroke:#181818;stroke-width:1.5;"/><path d="M2584,52.2969 C2584,62.2969 2602,62.2969 2602,62.2969 C2602,62.2969 2620,62.2969 2620,52.2969 " fill="none" style="stroke:#181818;stroke-width:1.5;"/><text fill="#000000" font-family="sans-serif" font-size="20" font-style="italic" lengthAdjust="spacing" textLength="125" x="2536.5" y="1984.2051">«repository»</text><text fill="#000000" font-family="sans-serif" font-size="20" lengthAdjust="spacing" textLength="158" x="2520" y="2007.4863">ClassRepository</text><path d="M2584,2022.2031 C2584,2012.2031 2602,2012.2031 2602,2012.2031 C2602,2012.2031 2620,2012.2031 2620,2022.2031 L2620,2048.2031 C2620,2058.2031 2602,2058.2031 2602,2058.2031 C2602,2058.2031 2584,2058.2031 2584,2048.2031 L2584,2022.2031 " fill="#E2E2F0" style="stroke:#181818;stroke-width:1.5;"/><path d="M2584,2022.2031 C2584,2032.2031 2602,2032.2031 2602,2032.2031 C2602,2032.2031 2620,2032.2031 2620,2022.2031 " fill="none" style="stroke:#181818;stroke-width:1.5;"/><rect fill="#FFFFFF" height="1774.5" style="stroke:#181818;stroke-width:1.0;" width="10" x="553" y="174.1406"/><rect fill="#FFFFFF" height="381.8125" style="stroke:#181818;stroke-width:1.0;" width="10" x="1138" y="214.4219"/><rect fill="#FFFFFF" height="114.8438" style="stroke:#181818;stroke-width:1.0;" width="10" x="1138" y="636.5156"/><rect fill="#FFFFFF" height="114.8438" style="stroke:#181818;stroke-width:1.0;" width="10" x="1138" y="866.2031"/><rect fill="#FFFFFF" height="250.9688" style="stroke:#181818;stroke-width:1.0;" width="10" x="1138" y="1133.1719"/><rect fill="#FFFFFF" height="318.25" style="stroke:#181818;stroke-width:1.0;" width="10" x="1138" y="1593.1094"/><rect fill="#FFFFFF" height="40.2813" style="stroke:#181818;stroke-width:1.0;" width="10" x="1380" y="254.7031"/><rect fill="#FFFFFF" height="37.2813" style="stroke:#181818;stroke-width:1.0;" width="10" x="1590" y="335.2656"/><rect fill="#FFFFFF" height="37.2813" style="stroke:#181818;stroke-width:1.0;" width="10" x="1590" y="409.8281"/><rect fill="#FFFFFF" height="37.2813" style="stroke:#181818;stroke-width:1.0;" width="10" x="1590" y="484.3906"/><rect fill="#FFFFFF" height="37.2813" style="stroke:#181818;stroke-width:1.0;" width="10" x="1793" y="558.9531"/><rect fill="#FFFFFF" height="37.2813" style="stroke:#181818;stroke-width:1.0;" width="10" x="1956" y="676.7969"/><rect fill="#FFFFFF" height="37.2813" style="stroke:#181818;stroke-width:1.0;" width="10" x="2169" y="1173.4531"/><rect fill="#FFFFFF" height="37.2813" style="stroke:#181818;stroke-width:1.0;" width="10" x="2169" y="1633.3906"/><rect fill="#FFFFFF" height="98.8438" style="stroke:#181818;stroke-width:1.0;" width="10" x="2415" y="1248.0156"/><rect fill="#FFFFFF" height="98.8438" style="stroke:#181818;stroke-width:1.0;" width="10" x="2415" y="1707.9531"/><rect fill="#FFFFFF" height="37.2813" style="stroke:#181818;stroke-width:1.0;" width="10" x="2597" y="906.4844"/><rect fill="#FFFFFF" height="30" style="stroke:#181818;stroke-width:1.0;" width="10" x="2597" y="1844.0781"/><polygon fill="#181818" points="541,170.1406,551,174.1406,541,178.1406,545,174.1406" style="stroke:#181818;stroke-width:1.0;"/><line style="stroke:#181818;stroke-width:1.0;" x1="61" x2="547" y1="174.1406" y2="174.1406"/><text fill="#000000" font-family="sans-serif" font-size="20" font-weight="bold" lengthAdjust="spacing" textLength="14" x="68" y="167.4238">1</text><text fill="#000000" font-family="sans-serif" font-size="20" lengthAdjust="spacing" textLength="281" x="86" y="167.4238">Request new class schedule</text><polygon fill="#181818" points="1126,210.4219,1136,214.4219,1126,218.4219,1130,214.4219" style="stroke:#181818;stroke-width:1.0;"/><line style="stroke:#181818;stroke-width:1.0;" x1="563" x2="1132" y1="214.4219" y2="214.4219"/><text fill="#000000" font-family="sans-serif" font-size="20" font-weight="bold" lengthAdjust="spacing" textLength="14" x="570" y="207.7051">2</text><text fill="#000000" font-family="sans-serif" font-size="20" lengthAdjust="spacing" textLength="63" x="588" y="207.7051">create</text><path d="M1153,187.1406 L1153,220.1406 L1445,220.1406 L1445,197.1406 L1435,187.1406 L1153,187.1406 " fill="#FEFFDD" style="stroke:#181818;stroke-width:0.5;"/><path d="M1435,187.1406 L1435,197.1406 L1445,197.1406 L1435,187.1406 " fill="#FEFFDD" style="stroke:#181818;stroke-width:0.5;"/><text fill="#000000" font-family="sans-serif" font-size="20" lengthAdjust="spacing" textLength="271" x="1159" y="210.7051">Authenticate if is a teacher</text><polygon fill="#181818" points="1368,250.7031,1378,254.7031,1368,258.7031,1372,254.7031" style="stroke:#181818;stroke-width:1.0;"/><line style="stroke:#181818;stroke-width:1.0;" x1="1148" x2="1374" y1="254.7031" y2="254.7031"/><text fill="#000000" font-family="sans-serif" font-size="20" font-weight="bold" lengthAdjust="spacing" textLength="14" x="1155" y="247.9863">3</text><text fill="#000000" font-family="sans-serif" font-size="20" lengthAdjust="spacing" textLength="133" x="1173" y="247.9863">repositories()</text><polygon fill="#181818" points="1159,290.9844,1149,294.9844,1159,298.9844,1155,294.9844" style="stroke:#181818;stroke-width:1.0;"/><line style="stroke:#181818;stroke-width:1.0;stroke-dasharray:2.0,2.0;" x1="1153" x2="1384" y1="294.9844" y2="294.9844"/><text fill="#000000" font-family="sans-serif" font-size="20" font-weight="bold" lengthAdjust="spacing" textLength="14" x="1165" y="288.2676">4</text><text fill="#000000" font-family="sans-serif" font-size="20" lengthAdjust="spacing" textLength="180" x="1183" y="288.2676">RepositoryFactory</text><path d="M1395,267.7031 L1395,300.7031 L1818,300.7031 L1818,277.7031 L1808,267.7031 L1395,267.7031 " fill="#FEFFDD" style="stroke:#181818;stroke-width:0.5;"/><path d="M1808,267.7031 L1808,277.7031 L1818,277.7031 L1808,267.7031 " fill="#FEFFDD" style="stroke:#181818;stroke-width:0.5;"/><text fill="#000000" font-family="sans-serif" font-size="20" lengthAdjust="spacing" textLength="402" x="1401" y="291.2676">The repositories can be JPA or InMemory</text><polygon fill="#181818" points="1578,331.2656,1588,335.2656,1578,339.2656,1582,335.2656" style="stroke:#181818;stroke-width:1.0;"/><line style="stroke:#181818;stroke-width:1.0;" x1="1148" x2="1584" y1="335.2656" y2="335.2656"/><text fill="#000000" font-family="sans-serif" font-size="20" font-weight="bold" lengthAdjust="spacing" textLength="14" x="1155" y="328.5488">5</text><text fill="#000000" font-family="sans-serif" font-size="20" lengthAdjust="spacing" textLength="102" x="1173" y="328.5488">teachers()</text><polygon fill="#181818" points="1159,368.5469,1149,372.5469,1159,376.5469,1155,372.5469" style="stroke:#181818;stroke-width:1.0;"/><line style="stroke:#181818;stroke-width:1.0;stroke-dasharray:2.0,2.0;" x1="1153" x2="1594" y1="372.5469" y2="372.5469"/><text fill="#000000" font-family="sans-serif" font-size="20" font-weight="bold" lengthAdjust="spacing" textLength="14" x="1165" y="365.8301">6</text><text fill="#000000" font-family="sans-serif" font-size="20" lengthAdjust="spacing" textLength="186" x="1183" y="365.8301">TeacherRepository</text><polygon fill="#181818" points="1578,405.8281,1588,409.8281,1578,413.8281,1582,409.8281" style="stroke:#181818;stroke-width:1.0;"/><line style="stroke:#181818;stroke-width:1.0;" x1="1148" x2="1584" y1="409.8281" y2="409.8281"/><text fill="#000000" font-family="sans-serif" font-size="20" font-weight="bold" lengthAdjust="spacing" textLength="14" x="1155" y="403.1113">7</text><text fill="#000000" font-family="sans-serif" font-size="20" lengthAdjust="spacing" textLength="203" x="1173" y="403.1113">courseEnrollments()</text><polygon fill="#181818" points="1159,443.1094,1149,447.1094,1159,451.1094,1155,447.1094" style="stroke:#181818;stroke-width:1.0;"/><line style="stroke:#181818;stroke-width:1.0;stroke-dasharray:2.0,2.0;" x1="1153" x2="1594" y1="447.1094" y2="447.1094"/><text fill="#000000" font-family="sans-serif" font-size="20" font-weight="bold" lengthAdjust="spacing" textLength="14" x="1165" y="440.3926">8</text><text fill="#000000" font-family="sans-serif" font-size="20" lengthAdjust="spacing" textLength="286" x="1183" y="440.3926">CourseEnrollmentRepository</text><polygon fill="#181818" points="1578,480.3906,1588,484.3906,1578,488.3906,1582,484.3906" style="stroke:#181818;stroke-width:1.0;"/><line style="stroke:#181818;stroke-width:1.0;" x1="1148" x2="1584" y1="484.3906" y2="484.3906"/><text fill="#000000" font-family="sans-serif" font-size="20" font-weight="bold" lengthAdjust="spacing" textLength="14" x="1155" y="477.6738">9</text><text fill="#000000" font-family="sans-serif" font-size="20" lengthAdjust="spacing" textLength="87" x="1173" y="477.6738">classes()</text><polygon fill="#181818" points="1159,517.6719,1149,521.6719,1159,525.6719,1155,521.6719" style="stroke:#181818;stroke-width:1.0;"/><line style="stroke:#181818;stroke-width:1.0;stroke-dasharray:2.0,2.0;" x1="1153" x2="1594" y1="521.6719" y2="521.6719"/><text fill="#000000" font-family="sans-serif" font-size="20" font-weight="bold" lengthAdjust="spacing" textLength="28" x="1165" y="514.9551">10</text><text fill="#000000" font-family="sans-serif" font-size="20" lengthAdjust="spacing" textLength="158" x="1197" y="514.9551">ClassRepository</text><polygon fill="#181818" points="1781,554.9531,1791,558.9531,1781,562.9531,1785,558.9531" style="stroke:#181818;stroke-width:1.0;"/><line style="stroke:#181818;stroke-width:1.0;" x1="1148" x2="1787" y1="558.9531" y2="558.9531"/><text fill="#000000" font-family="sans-serif" font-size="20" font-weight="bold" lengthAdjust="spacing" textLength="28" x="1155" y="552.2363">11</text><text fill="#000000" font-family="sans-serif" font-size="20" lengthAdjust="spacing" textLength="99" x="1187" y="552.2363">findById()</text><polygon fill="#181818" points="1154,592.2344,1144,596.2344,1154,600.2344,1150,596.2344" style="stroke:#181818;stroke-width:1.0;"/><line style="stroke:#181818;stroke-width:1.0;stroke-dasharray:2.0,2.0;" x1="1148" x2="1797" y1="596.2344" y2="596.2344"/><text fill="#000000" font-family="sans-serif" font-size="20" font-weight="bold" lengthAdjust="spacing" textLength="28" x="1160" y="589.5176">12</text><text fill="#000000" font-family="sans-serif" font-size="20" lengthAdjust="spacing" textLength="76" x="1192" y="589.5176">teacher</text><polygon fill="#181818" points="1126,632.5156,1136,636.5156,1126,640.5156,1130,636.5156" style="stroke:#181818;stroke-width:1.0;"/><line style="stroke:#181818;stroke-width:1.0;" x1="563" x2="1132" y1="636.5156" y2="636.5156"/><text fill="#000000" font-family="sans-serif" font-size="20" font-weight="bold" lengthAdjust="spacing" textLength="28" x="570" y="629.7988">13</text><text fill="#000000" font-family="sans-serif" font-size="20" lengthAdjust="spacing" textLength="125" x="602" y="629.7988">listCourses()</text><path d="M1153,609.2344 L1153,642.2344 L1445,642.2344 L1445,619.2344 L1435,609.2344 L1153,609.2344 " fill="#FEFFDD" style="stroke:#181818;stroke-width:0.5;"/><path d="M1435,609.2344 L1435,619.2344 L1445,619.2344 L1435,609.2344 " fill="#FEFFDD" style="stroke:#181818;stroke-width:0.5;"/><text fill="#000000" font-family="sans-serif" font-size="20" lengthAdjust="spacing" textLength="271" x="1159" y="632.7988">Authenticate if is a teacher</text><polygon fill="#181818" points="1944,672.7969,1954,676.7969,1944,680.7969,1948,676.7969" style="stroke:#181818;stroke-width:1.0;"/><line style="stroke:#181818;stroke-width:1.0;" x1="1148" x2="1950" y1="676.7969" y2="676.7969"/><text fill="#000000" font-family="sans-serif" font-size="20" font-weight="bold" lengthAdjust="spacing" textLength="28" x="1155" y="670.0801">14</text><text fill="#000000" font-family="sans-serif" font-size="20" lengthAdjust="spacing" textLength="92" x="1187" y="670.0801">courses()</text><polygon fill="#181818" points="1159,710.0781,1149,714.0781,1159,718.0781,1155,714.0781" style="stroke:#181818;stroke-width:1.0;"/><line style="stroke:#181818;stroke-width:1.0;stroke-dasharray:2.0,2.0;" x1="1153" x2="1960" y1="714.0781" y2="714.0781"/><text fill="#000000" font-family="sans-serif" font-size="20" font-weight="bold" lengthAdjust="spacing" textLength="28" x="1165" y="707.3613">15</text><text fill="#000000" font-family="sans-serif" font-size="20" lengthAdjust="spacing" textLength="190" x="1197" y="707.3613">Iterable&lt;Courses&gt;</text><polygon fill="#181818" points="574,747.3594,564,751.3594,574,755.3594,570,751.3594" style="stroke:#181818;stroke-width:1.0;"/><line style="stroke:#181818;stroke-width:1.0;stroke-dasharray:2.0,2.0;" x1="568" x2="1142" y1="751.3594" y2="751.3594"/><text fill="#000000" font-family="sans-serif" font-size="20" font-weight="bold" lengthAdjust="spacing" textLength="28" x="580" y="744.6426">16</text><text fill="#000000" font-family="sans-serif" font-size="20" lengthAdjust="spacing" textLength="190" x="612" y="744.6426">Iterable&lt;Courses&gt;</text><polygon fill="#181818" points="72,784.6406,62,788.6406,72,792.6406,68,788.6406" style="stroke:#181818;stroke-width:1.0;"/><line style="stroke:#181818;stroke-width:1.0;stroke-dasharray:2.0,2.0;" x1="66" x2="552" y1="788.6406" y2="788.6406"/><text fill="#000000" font-family="sans-serif" font-size="20" font-weight="bold" lengthAdjust="spacing" textLength="28" x="78" y="781.9238">17</text><text fill="#000000" font-family="sans-serif" font-size="20" lengthAdjust="spacing" textLength="206" x="110" y="781.9238">Ask teacher's course</text><polygon fill="#181818" points="541,821.9219,551,825.9219,541,829.9219,545,825.9219" style="stroke:#181818;stroke-width:1.0;"/><line style="stroke:#181818;stroke-width:1.0;" x1="61" x2="547" y1="825.9219" y2="825.9219"/><text fill="#000000" font-family="sans-serif" font-size="20" font-weight="bold" lengthAdjust="spacing" textLength="28" x="68" y="819.2051">18</text><text fill="#000000" font-family="sans-serif" font-size="20" lengthAdjust="spacing" textLength="134" x="100" y="819.2051">Select course</text><polygon fill="#181818" points="1126,862.2031,1136,866.2031,1126,870.2031,1130,866.2031" style="stroke:#181818;stroke-width:1.0;"/><line style="stroke:#181818;stroke-width:1.0;" x1="563" x2="1132" y1="866.2031" y2="866.2031"/><text fill="#000000" font-family="sans-serif" font-size="20" font-weight="bold" lengthAdjust="spacing" textLength="28" x="570" y="859.4863">19</text><text fill="#000000" font-family="sans-serif" font-size="20" lengthAdjust="spacing" textLength="241" x="602" y="859.4863">courseSchedule(course)</text><path d="M1153,838.9219 L1153,871.9219 L1445,871.9219 L1445,848.9219 L1435,838.9219 L1153,838.9219 " fill="#FEFFDD" style="stroke:#181818;stroke-width:0.5;"/><path d="M1435,838.9219 L1435,848.9219 L1445,848.9219 L1435,838.9219 " fill="#FEFFDD" style="stroke:#181818;stroke-width:0.5;"/><text fill="#000000" font-family="sans-serif" font-size="20" lengthAdjust="spacing" textLength="271" x="1159" y="862.4863">Authenticate if is a teacher</text><polygon fill="#181818" points="2585,902.4844,2595,906.4844,2585,910.4844,2589,906.4844" style="stroke:#181818;stroke-width:1.0;"/><line style="stroke:#181818;stroke-width:1.0;" x1="1148" x2="2591" y1="906.4844" y2="906.4844"/><text fill="#000000" font-family="sans-serif" font-size="20" font-weight="bold" lengthAdjust="spacing" textLength="28" x="1155" y="899.7676">20</text><text fill="#000000" font-family="sans-serif" font-size="20" lengthAdjust="spacing" textLength="215" x="1187" y="899.7676">findByCourse(course)</text><polygon fill="#181818" points="1159,939.7656,1149,943.7656,1159,947.7656,1155,943.7656" style="stroke:#181818;stroke-width:1.0;"/><line style="stroke:#181818;stroke-width:1.0;stroke-dasharray:2.0,2.0;" x1="1153" x2="2601" y1="943.7656" y2="943.7656"/><text fill="#000000" font-family="sans-serif" font-size="20" font-weight="bold" lengthAdjust="spacing" textLength="28" x="1165" y="937.0488">21</text><text fill="#000000" font-family="sans-serif" font-size="20" lengthAdjust="spacing" textLength="163" x="1197" y="937.0488">Iterable&lt;Class&gt;</text><polygon fill="#181818" points="574,977.0469,564,981.0469,574,985.0469,570,981.0469" style="stroke:#181818;stroke-width:1.0;"/><line style="stroke:#181818;stroke-width:1.0;stroke-dasharray:2.0,2.0;" x1="568" x2="1142" y1="981.0469" y2="981.0469"/><text fill="#000000" font-family="sans-serif" font-size="20" font-weight="bold" lengthAdjust="spacing" textLength="28" x="580" y="974.3301">22</text><text fill="#000000" font-family="sans-serif" font-size="20" lengthAdjust="spacing" textLength="163" x="612" y="974.3301">Iterable&lt;Class&gt;</text><polygon fill="#181818" points="72,1014.3281,62,1018.3281,72,1022.3281,68,1018.3281" style="stroke:#181818;stroke-width:1.0;"/><line style="stroke:#181818;stroke-width:1.0;stroke-dasharray:2.0,2.0;" x1="66" x2="552" y1="1018.3281" y2="1018.3281"/><text fill="#000000" font-family="sans-serif" font-size="20" font-weight="bold" lengthAdjust="spacing" textLength="28" x="78" y="1011.6113">23</text><text fill="#000000" font-family="sans-serif" font-size="20" lengthAdjust="spacing" textLength="223" x="110" y="1011.6113">Show course schedule</text><polygon fill="#181818" points="72,1051.6094,62,1055.6094,72,1059.6094,68,1055.6094" style="stroke:#181818;stroke-width:1.0;"/><line style="stroke:#181818;stroke-width:1.0;stroke-dasharray:2.0,2.0;" x1="66" x2="552" y1="1055.6094" y2="1055.6094"/><text fill="#000000" font-family="sans-serif" font-size="20" font-weight="bold" lengthAdjust="spacing" textLength="28" x="78" y="1048.8926">24</text><text fill="#000000" font-family="sans-serif" font-size="20" lengthAdjust="spacing" textLength="214" x="110" y="1048.8926">Ask class information</text><polygon fill="#181818" points="541,1088.8906,551,1092.8906,541,1096.8906,545,1092.8906" style="stroke:#181818;stroke-width:1.0;"/><line style="stroke:#181818;stroke-width:1.0;" x1="61" x2="547" y1="1092.8906" y2="1092.8906"/><text fill="#000000" font-family="sans-serif" font-size="20" font-weight="bold" lengthAdjust="spacing" textLength="28" x="68" y="1086.1738">25</text><text fill="#000000" font-family="sans-serif" font-size="20" lengthAdjust="spacing" textLength="436" x="100" y="1086.1738">Input class title, week date and time period</text><polygon fill="#181818" points="1126,1129.1719,1136,1133.1719,1126,1137.1719,1130,1133.1719" style="stroke:#181818;stroke-width:1.0;"/><line style="stroke:#181818;stroke-width:1.0;" x1="563" x2="1132" y1="1133.1719" y2="1133.1719"/><text fill="#000000" font-family="sans-serif" font-size="20" font-weight="bold" lengthAdjust="spacing" textLength="28" x="570" y="1126.4551">26</text><text fill="#000000" font-family="sans-serif" font-size="20" lengthAdjust="spacing" textLength="524" x="602" y="1126.4551">checkStudentDisponibility(course, date, timePeriod)</text><path d="M1153,1105.8906 L1153,1138.8906 L1445,1138.8906 L1445,1115.8906 L1435,1105.8906 L1153,1105.8906 " fill="#FEFFDD" style="stroke:#181818;stroke-width:0.5;"/><path d="M1435,1105.8906 L1435,1115.8906 L1445,1115.8906 L1435,1105.8906 " fill="#FEFFDD" style="stroke:#181818;stroke-width:0.5;"/><text fill="#000000" font-family="sans-serif" font-size="20" lengthAdjust="spacing" textLength="271" x="1159" y="1129.4551">Authenticate if is a teacher</text><polygon fill="#181818" points="2157,1169.4531,2167,1173.4531,2157,1177.4531,2161,1173.4531" style="stroke:#181818;stroke-width:1.0;"/><line style="stroke:#181818;stroke-width:1.0;" x1="1148" x2="2163" y1="1173.4531" y2="1173.4531"/><text fill="#000000" font-family="sans-serif" font-size="20" font-weight="bold" lengthAdjust="spacing" textLength="28" x="1155" y="1166.7363">27</text><text fill="#000000" font-family="sans-serif" font-size="20" lengthAdjust="spacing" textLength="215" x="1187" y="1166.7363">findByCourse(course)</text><polygon fill="#181818" points="1159,1206.7344,1149,1210.7344,1159,1214.7344,1155,1210.7344" style="stroke:#181818;stroke-width:1.0;"/><line style="stroke:#181818;stroke-width:1.0;stroke-dasharray:2.0,2.0;" x1="1153" x2="2173" y1="1210.7344" y2="1210.7344"/><text fill="#000000" font-family="sans-serif" font-size="20" font-weight="bold" lengthAdjust="spacing" textLength="28" x="1165" y="1204.0176">28</text><text fill="#000000" font-family="sans-serif" font-size="20" lengthAdjust="spacing" textLength="300" x="1197" y="1204.0176">Optional&lt;CourseEnrollment&gt;</text><polygon fill="#181818" points="2403,1244.0156,2413,1248.0156,2403,1252.0156,2407,1248.0156" style="stroke:#181818;stroke-width:1.0;"/><line style="stroke:#181818;stroke-width:1.0;" x1="1148" x2="2409" y1="1248.0156" y2="1248.0156"/><text fill="#000000" font-family="sans-serif" font-size="20" font-weight="bold" lengthAdjust="spacing" textLength="28" x="1155" y="1241.2988">29</text><text fill="#000000" font-family="sans-serif" font-size="20" lengthAdjust="spacing" textLength="782" x="1187" y="1241.2988">checkCourseStudentDisponibility(course, date, timePeriod, courseEnrollment)</text><a href="us_1010_SD_ScheduleService_stdDisp.puml" target="_top" title="us_1010_SD_ScheduleService_stdDisp.puml" xlink:actuate="onRequest" xlink:href="us_1010_SD_ScheduleService_stdDisp.puml" xlink:show="new" xlink:title="us_1010_SD_ScheduleService_stdDisp.puml" xlink:type="simple"><rect fill="none" height="56.5625" style="stroke:#000000;stroke-width:1.5;" width="662" x="2025" y="1256.0156"/><path d="M2025,1256.0156 L2103,1256.0156 L2103,1271.0156 L2093,1281.0156 L2025,1281.0156 L2025,1256.0156 " fill="#EEEEEE" style="stroke:#000000;stroke-width:2.0;"/><text fill="#000000" font-family="sans-serif" font-size="20" font-weight="bold" lengthAdjust="spacing" textLength="33" x="2038" y="1276.5801">ref</text><text fill="#000000" font-family="sans-serif" font-size="20" lengthAdjust="spacing" textLength="349" x="2181.5" y="1303.5801">checkCourseStudentDisponibility()</text></a><polygon fill="#181818" points="1159,1342.8594,1149,1346.8594,1159,1350.8594,1155,1346.8594" style="stroke:#181818;stroke-width:1.0;"/><line style="stroke:#181818;stroke-width:1.0;stroke-dasharray:2.0,2.0;" x1="1153" x2="2419" y1="1346.8594" y2="1346.8594"/><text fill="#000000" font-family="sans-serif" font-size="20" font-weight="bold" lengthAdjust="spacing" textLength="28" x="1165" y="1340.1426">30</text><text fill="#000000" font-family="sans-serif" font-size="20" lengthAdjust="spacing" textLength="80" x="1197" y="1340.1426">boolean</text><polygon fill="#181818" points="574,1380.1406,564,1384.1406,574,1388.1406,570,1384.1406" style="stroke:#181818;stroke-width:1.0;"/><line style="stroke:#181818;stroke-width:1.0;stroke-dasharray:2.0,2.0;" x1="568" x2="1142" y1="1384.1406" y2="1384.1406"/><text fill="#000000" font-family="sans-serif" font-size="20" font-weight="bold" lengthAdjust="spacing" textLength="28" x="580" y="1377.4238">31</text><text fill="#000000" font-family="sans-serif" font-size="20" lengthAdjust="spacing" textLength="80" x="612" y="1377.4238">boolean</text><path d="M10,1399.1406 L86,1399.1406 L86,1414.4219 L76,1424.4219 L10,1424.4219 L10,1399.1406 " fill="#EEEEEE" style="stroke:#000000;stroke-width:1.5;"/><rect fill="none" height="154.6875" style="stroke:#000000;stroke-width:1.5;" width="648" x="10" y="1399.1406"/><text fill="#000000" font-family="sans-serif" font-size="20" font-weight="bold" lengthAdjust="spacing" textLength="31" x="25" y="1418.7051">alt</text><text fill="#000000" font-family="sans-serif" font-size="20" font-weight="bold" lengthAdjust="spacing" textLength="302" x="101" y="1419.7051">[student of the course has</text><text fill="#000000" font-family="sans-serif" font-size="20" font-weight="bold" lengthAdjust="spacing" textLength="256" x="101" y="1442.9863">already another class]</text><polygon fill="#181818" points="72,1504.5469,62,1508.5469,72,1512.5469,68,1508.5469" style="stroke:#181818;stroke-width:1.0;"/><line style="stroke:#181818;stroke-width:1.0;stroke-dasharray:2.0,2.0;" x1="66" x2="552" y1="1508.5469" y2="1508.5469"/><text fill="#000000" font-family="sans-serif" font-size="20" font-weight="bold" lengthAdjust="spacing" textLength="28" x="78" y="1490.1895">32</text><text fill="#000000" font-family="sans-serif" font-size="20" lengthAdjust="spacing" textLength="194" x="110" y="1478.5488">Warn that the class</text><text fill="#000000" font-family="sans-serif" font-size="20" lengthAdjust="spacing" textLength="184" x="110" y="1501.8301">will be overlapped</text><polygon fill="#181818" points="541,1541.8281,551,1545.8281,541,1549.8281,545,1545.8281" style="stroke:#181818;stroke-width:1.0;"/><line style="stroke:#181818;stroke-width:1.0;" x1="61" x2="547" y1="1545.8281" y2="1545.8281"/><text fill="#000000" font-family="sans-serif" font-size="20" font-weight="bold" lengthAdjust="spacing" textLength="28" x="68" y="1539.1113">33</text><text fill="#000000" font-family="sans-serif" font-size="20" lengthAdjust="spacing" textLength="166" x="100" y="1539.1113">Continue/Cancel</text><polygon fill="#181818" points="1126,1589.1094,1136,1593.1094,1126,1597.1094,1130,1593.1094" style="stroke:#181818;stroke-width:1.0;"/><line style="stroke:#181818;stroke-width:1.0;" x1="563" x2="1132" y1="1593.1094" y2="1593.1094"/><text fill="#000000" font-family="sans-serif" font-size="20" font-weight="bold" lengthAdjust="spacing" textLength="28" x="570" y="1586.3926">34</text><text fill="#000000" font-family="sans-serif" font-size="20" lengthAdjust="spacing" textLength="454" x="602" y="1586.3926">scheduleClass(title, course, date, timePeriod)</text><path d="M1153,1565.8281 L1153,1598.8281 L1445,1598.8281 L1445,1575.8281 L1435,1565.8281 L1153,1565.8281 " fill="#FEFFDD" style="stroke:#181818;stroke-width:0.5;"/><path d="M1435,1565.8281 L1435,1575.8281 L1445,1575.8281 L1435,1565.8281 " fill="#FEFFDD" style="stroke:#181818;stroke-width:0.5;"/><text fill="#000000" font-family="sans-serif" font-size="20" lengthAdjust="spacing" textLength="271" x="1159" y="1589.3926">Authenticate if is a teacher</text><polygon fill="#181818" points="2157,1629.3906,2167,1633.3906,2157,1637.3906,2161,1633.3906" style="stroke:#181818;stroke-width:1.0;"/><line style="stroke:#181818;stroke-width:1.0;" x1="1148" x2="2163" y1="1633.3906" y2="1633.3906"/><text fill="#000000" font-family="sans-serif" font-size="20" font-weight="bold" lengthAdjust="spacing" textLength="28" x="1155" y="1626.6738">35</text><text fill="#000000" font-family="sans-serif" font-size="20" lengthAdjust="spacing" textLength="215" x="1187" y="1626.6738">findByCourse(course)</text><polygon fill="#181818" points="1159,1666.6719,1149,1670.6719,1159,1674.6719,1155,1670.6719" style="stroke:#181818;stroke-width:1.0;"/><line style="stroke:#181818;stroke-width:1.0;stroke-dasharray:2.0,2.0;" x1="1153" x2="2173" y1="1670.6719" y2="1670.6719"/><text fill="#000000" font-family="sans-serif" font-size="20" font-weight="bold" lengthAdjust="spacing" textLength="28" x="1165" y="1663.9551">36</text><text fill="#000000" font-family="sans-serif" font-size="20" lengthAdjust="spacing" textLength="300" x="1197" y="1663.9551">Optional&lt;CourseEnrollment&gt;</text><polygon fill="#181818" points="2403,1703.9531,2413,1707.9531,2403,1711.9531,2407,1707.9531" style="stroke:#181818;stroke-width:1.0;"/><line style="stroke:#181818;stroke-width:1.0;" x1="1148" x2="2409" y1="1707.9531" y2="1707.9531"/><text fill="#000000" font-family="sans-serif" font-size="20" font-weight="bold" lengthAdjust="spacing" textLength="28" x="1155" y="1701.2363">37</text><text fill="#000000" font-family="sans-serif" font-size="20" lengthAdjust="spacing" textLength="731" x="1187" y="1701.2363">scheduleClass(title, course, date, timePeriod, courseEnrollment, teacher)</text><a href="us_1010_SD_ScheduleService_schedule.puml" target="_top" title="us_1010_SD_ScheduleService_schedule.puml" xlink:actuate="onRequest" xlink:href="us_1010_SD_ScheduleService_schedule.puml" xlink:show="new" xlink:title="us_1010_SD_ScheduleService_schedule.puml" xlink:type="simple"><rect fill="none" height="56.5625" style="stroke:#000000;stroke-width:1.5;" width="360" x="2327" y="1715.9531"/><path d="M2327,1715.9531 L2405,1715.9531 L2405,1730.9531 L2395,1740.9531 L2327,1740.9531 L2327,1715.9531 " fill="#EEEEEE" style="stroke:#000000;stroke-width:2.0;"/><text fill="#000000" font-family="sans-serif" font-size="20" font-weight="bold" lengthAdjust="spacing" textLength="33" x="2340" y="1736.5176">ref</text><text fill="#000000" font-family="sans-serif" font-size="20" lengthAdjust="spacing" textLength="158" x="2428" y="1763.5176">scheduleClass()</text></a><polygon fill="#181818" points="1159,1802.7969,1149,1806.7969,1159,1810.7969,1155,1806.7969" style="stroke:#181818;stroke-width:1.0;"/><line style="stroke:#181818;stroke-width:1.0;stroke-dasharray:2.0,2.0;" x1="1153" x2="2419" y1="1806.7969" y2="1806.7969"/><text fill="#000000" font-family="sans-serif" font-size="20" font-weight="bold" lengthAdjust="spacing" textLength="28" x="1165" y="1800.0801">38</text><text fill="#000000" font-family="sans-serif" font-size="20" lengthAdjust="spacing" textLength="163" x="1197" y="1800.0801">Iterable&lt;Class&gt;</text><polygon fill="#181818" points="2585,1840.0781,2595,1844.0781,2585,1848.0781,2589,1844.0781" style="stroke:#181818;stroke-width:1.0;"/><line style="stroke:#181818;stroke-width:1.0;" x1="1148" x2="2591" y1="1844.0781" y2="1844.0781"/><text fill="#000000" font-family="sans-serif" font-size="20" font-weight="bold" lengthAdjust="spacing" textLength="28" x="1155" y="1837.3613">39</text><text fill="#000000" font-family="sans-serif" font-size="20" lengthAdjust="spacing" textLength="158" x="1187" y="1837.3613">saveAll(classes)</text><polygon fill="#181818" points="574,1907.3594,564,1911.3594,574,1915.3594,570,1911.3594" style="stroke:#181818;stroke-width:1.0;"/><line style="stroke:#181818;stroke-width:1.0;stroke-dasharray:2.0,2.0;" x1="568" x2="1142" y1="1911.3594" y2="1911.3594"/><text fill="#000000" font-family="sans-serif" font-size="20" font-weight="bold" lengthAdjust="spacing" textLength="28" x="580" y="1904.6426">40</text><text fill="#000000" font-family="sans-serif" font-size="20" lengthAdjust="spacing" textLength="163" x="612" y="1904.6426">Iterable&lt;Class&gt;</text><polygon fill="#181818" points="72,1944.6406,62,1948.6406,72,1952.6406,68,1948.6406" style="stroke:#181818;stroke-width:1.0;"/><line style="stroke:#181818;stroke-width:1.0;stroke-dasharray:2.0,2.0;" x1="66" x2="557" y1="1948.6406" y2="1948.6406"/><text fill="#000000" font-family="sans-serif" font-size="20" font-weight="bold" lengthAdjust="spacing" textLength="28" x="78" y="1941.9238">41</text><text fill="#000000" font-family="sans-serif" font-size="20" lengthAdjust="spacing" textLength="231" x="110" y="1941.9238">Confirm class schedule</text><!--SRC=[xLTHRzCm47xth_1RXzInmMCLJHe3f28X9WhY0T3anjVLgcC7szaelvvp4ZU9dNORtIClKppVdR_xxZxxQZT2bSomGkfy0vnoMB5AklTQkONu0_JrEPcidIljxEoib4ovgf0lSrsSMVXLWShXb0jsY_x42IU1VW6Mhy7Gpv1NnWXrIwyaivOkyB-yaa1OvRIgYYKOGbZkjA6kSI48mubSb7X8unHyliufinJ_Pbbfm89op0cjBYxskrmXVgEbH2Jesbjb6IjBAVAn2DTWhB3EP-KzuBSBpluJ3-_s8y_FK6ehC9dj-pgdBLglcY-q99mvjcHsnqvdZdPcjuY21YgpZEk22JM8TAKhO-6TycaLoCZZGWPw5c3kH0u-lV2PPRRv6XxZITqVcxIrewSNM9yPye1DOHrLS4_pkkvsL_VSYJlc0Eq8bX8TUbMPqTm0RdPMtIPH6jT6tAuTsbrMRetf-W825IigB6Mx3kf5REFxmite3hC0U_9YU0XQa61v6gDAwZe4ysKDWzWqPuekWNwulgJOs7Fr4Ghln67qo0vgsZ-paDG0S8edzKoII9gkZoUD-32oFEgzuo7kx-QZiVekX6T0E1J2Ks2bef_HbL3ypNRE-xZIEgMU2QxG-ZqyQHmoYPJXatbJ2SdxsfjqJThR9vD-z_OtuhPkvJeYRectPbFYH7v7QZpSaQ4fxGYXWSQKlBa3mvOIiXRSnGYDWmFhQ-uXnuWBz74xb9Ts4rOJss8UNg9ej009kGkxexTblHLkyvDc-RpCnZT_wDacuv4Z8u74_WV8zvP31kDO1qkGkdVPfnLOhFLzor_tE8tMgNd0X5ffKzJZGlpQpLLPkTQiddwcz1vWGxa7mHJ7VnP0SMeGce-NSGtvPk4gZZLvAsofbLWAATosfNTQXvhMSQxhCCzSu_r3n8FbtdzZ7uYQDC6dqXFBP1OxHGKzS5W_eJ3CjDGsVayYU9gyRhsas_34m8hgEpnoFx1fC9ucIlh-lR8thyvVdTyitjv44zcDTTm3VLdYdFtpvoCIUK52qWcvIwqbCDLdCcGmfgWHyxwIc7JKDWYeNb5iiY2ZDRC_i8RuYl0jzhrsNYErB29XpUWtPXIwCjVuUviVwbv8wSScJwd4yHnuh3IFGwWApguO3j-I08eByOoAAeYwflsarUL_FHsffoUncefe6XWxfAP_L4oxxYGpn7f080VUa36XZ3sAbjt1fPGdxPnvu44yydqZZtlXQgsiX2dYtryzR_m5zXS0]--></g></svg>