<?xml version="1.0" encoding="UTF-8" standalone="no"?><svg xmlns="http://www.w3.org/2000/svg" xmlns:xlink="http://www.w3.org/1999/xlink" contentStyleType="text/css" height="748px" preserveAspectRatio="none" style="width:1572px;height:748px;background:#FFFFFF;" version="1.1" viewBox="0 0 1572 748" width="1572px" zoomAndPan="magnify"><defs/><g><polygon fill="#FFFFFF" points="334,136.8438,334,136.9138,336,136.7056,338,136.9082,340,136.977,342,136.606,344,136.8438,343.9223,136.8438,343.5735,146.9408,343.6165,157.0378,343.9318,167.1348,343.3086,177.2318,344.5536,187.3288,343.3697,197.4258,343.8022,207.5228,344.4319,217.6198,343.9142,227.7168,344.0682,237.8138,343.9681,247.9108,344.1785,258.0078,344.2391,268.1048,344.5857,278.2018,344.6711,288.2988,344.6793,298.3958,344.2546,308.4928,344.4636,318.5898,344.7022,328.6868,343.2788,338.7839,344.6785,348.8809,343.7035,358.9779,344.5338,369.0749,343.505,379.1719,343.9315,389.2689,344.7416,399.3659,343.9513,409.4629,344.1053,419.5599,344.3386,429.6569,344.4162,439.7539,343.9961,449.8509,344.2872,459.9479,343.4276,470.0449,344.2844,480.1419,344.5482,490.2389,344.4445,500.3359,344.613,510.4329,343.5169,520.5299,343.3478,530.627,343.3786,540.724,343.9411,550.821,343.8035,560.918,344.6814,571.015,343.8253,581.112,343.6569,591.209,344.2283,601.306,343.3332,611.403,344,621.5,344,621.327,342,621.7163,340,621.6452,338,621.7448,336,621.3927,334,621.5,334.3192,621.5,334.5904,611.403,333.5276,601.306,333.9041,591.209,334.126,581.112,334.6518,571.015,333.9958,560.918,334.4626,550.821,333.4462,540.724,333.3227,530.627,334.5036,520.5299,333.2831,510.4329,334.509,500.3359,334.2066,490.2389,333.7321,480.1419,333.6462,470.0449,334.4588,459.9479,333.7007,449.8509,334.5919,439.7539,333.4473,429.6569,334.6174,419.5599,334.4843,409.4629,334.245,399.3659,334.0472,389.2689,334.7266,379.1719,334.6136,369.0749,334.1693,358.9779,334.2682,348.8809,333.8697,338.7839,334.7165,328.6868,334.1549,318.5898,334.1726,308.4928,333.3916,298.3958,333.5948,288.2988,334.5307,278.2018,334.4298,268.1048,333.9571,258.0078,333.6778,247.9108,333.7811,237.8138,333.3138,227.7168,334.4147,217.6198,334.7396,207.5228,334.5264,197.4258,334.6949,187.3288,333.8633,177.2318,334.0872,167.1348,333.6124,157.0378,334.284,146.9408,334,136.8438" style="stroke:#181818;stroke-width:1.0;"/><polygon fill="#FFFFFF" points="572,211.4063,572,211.4763,574,211.2681,576,211.4707,578,211.5395,580,211.1685,582,211.4063,581.9223,211.4063,581.5735,221.4823,581.6165,231.5583,581.9318,241.6343,581.3086,251.7103,582.5536,261.7863,581.3697,271.8623,581.8022,281.9383,582.4319,292.0144,581.9142,302.0904,582.0682,312.1664,581.9681,322.2424,582.1785,332.3184,582.2391,342.3944,582.5857,352.4704,582.6711,362.5465,582.6793,372.6225,582.2546,382.6985,582.4636,392.7745,582.7022,402.8505,581.2788,412.9265,582.6785,423.0025,581.7035,433.0785,582.5338,443.1546,581.505,453.2306,581.9315,463.3066,582.7416,473.3826,581.9513,483.4586,582.1053,493.5346,582.3386,503.6106,582.4162,513.6867,581.9961,523.7627,582.2872,533.8387,581.4276,543.9147,582.2844,553.9907,582.5482,564.0667,582.4445,574.1427,582,584.2188,582,584.4231,580,584.0577,578,584.0014,576,584.0116,574,584.1991,572,584.2188,571.8035,584.2188,572.6814,574.1427,571.8253,564.0667,571.6569,553.9907,572.2283,543.9147,571.3332,533.8387,571.4809,523.7627,572.649,513.6867,572.4357,503.6106,572.7345,493.5346,571.6782,483.4586,572.3192,473.3826,572.5904,463.3066,571.5276,453.2306,571.9041,443.1546,572.126,433.0785,572.6518,423.0025,571.9958,412.9265,572.4626,402.8505,571.4462,392.7745,571.3227,382.6985,572.5036,372.6225,571.2831,362.5465,572.509,352.4704,572.2066,342.3944,571.7321,332.3184,571.6462,322.2424,572.4588,312.1664,571.7007,302.0904,572.5919,292.0144,571.4473,281.9383,572.6174,271.8623,572.4843,261.7863,572.245,251.7103,572.0472,241.6343,572.7266,231.5583,572.6136,221.4823,572,211.4063" style="stroke:#181818;stroke-width:1.0;"/><polygon fill="#FFFFFF" points="847.5,285.9688,847.5,286.0388,849.5,285.8306,851.5,286.0332,853.5,286.102,855.5,285.731,857.5,285.9688,857.4223,285.9688,857.0735,296.006,857.1165,306.0433,857.4318,316.0805,856.8086,326.1178,858.0536,336.155,856.8697,346.1923,857.3022,356.2296,857.9319,366.2668,857.4142,376.3041,857.5682,386.3413,857.4681,396.3786,857.6785,406.4159,857.7391,416.4531,858.0857,426.4904,858.1711,436.5276,858.1793,446.5649,857.7546,456.6022,857.9636,466.6394,858.2022,476.6767,856.7788,486.7139,858.1785,496.7512,857.2035,506.7885,858.0338,516.8257,857.005,526.863,857.4315,536.9002,857.5,546.9375,857.5,547.1847,855.5,546.9213,853.5,546.9726,851.5,547.0504,849.5,547.0762,847.5,546.9375,847.4961,546.9375,847.7872,536.9002,846.9276,526.863,847.7844,516.8257,848.0482,506.7885,847.9445,496.7512,848.113,486.7139,847.0169,476.6767,846.8478,466.6394,846.8786,456.6022,847.4411,446.5649,847.3035,436.5276,848.1814,426.4904,847.3253,416.4531,847.1569,406.4159,847.7283,396.3786,846.8332,386.3413,846.9809,376.3041,848.149,366.2668,847.9357,356.2296,848.2345,346.1923,847.1782,336.155,847.8192,326.1178,848.0904,316.0805,847.0276,306.0433,847.4041,296.006,847.5,285.9688" style="stroke:#181818;stroke-width:1.0;"/><polygon fill="#FFFFFF" points="1488,472.375,1488,472.4451,1490,472.2369,1492,472.4394,1494,472.5082,1496,472.1372,1498,472.375,1497.9741,472.375,1497.8578,479.8313,1497.8722,487.2875,1497.9773,494.7438,1497.7695,502.2,1498,509.6563,1498,509.8408,1496,509.4462,1494,509.5903,1492,509.8002,1490,509.6277,1488,509.6563,1488.0227,509.6563,1487.9894,502.2,1488.0595,494.7438,1488.0797,487.2875,1488.1952,479.8313,1488,472.375" style="stroke:#181818;stroke-width:1.0;"/><path d="M41,97.5625 L41.2802,97.5625 L40.4476,107.5984 L41.2577,117.6343 L41.5329,127.6701 L40.0488,137.706 L40.8964,147.7419 L40.4313,157.7778 L40.4887,167.8137 L40.9091,177.8495 L40.0782,187.8854 L41.7382,197.9213 L40.1596,207.9572 L40.7363,217.9931 L41.5759,228.0289 L40.8856,238.0648 L41.091,248.1007 L40.9574,258.1366 L41.238,268.1725 L41.3188,278.2083 L41.7809,288.2442 L41.8947,298.2801 L41.9057,308.316 L41.3395,318.3519 L41.6181,328.3877 L41.9363,338.4236 L40.0384,348.4595 L41.9047,358.4954 L40.6047,368.5313 L41.7117,378.5671 L40.34,388.603 L40.9087,398.6389 L41.9888,408.6748 L40.935,418.7106 L41.1404,428.7465 L41.4515,438.7824 L41.555,448.8183 L40.9948,458.8542 L41.383,468.89 L40.2368,478.9259 L41.3792,488.9618 L41.7309,498.9977 L41.5927,509.0336 L41.8174,519.0694 L40.3559,529.1053 L40.1304,539.1412 L40.1715,549.1771 L40.9215,559.213 L40.738,569.2488 L41.9085,579.2847 L40.7671,589.3206 L40.5426,599.3565 L41.3044,609.3924 L40.1109,619.4282 L40.3078,629.4641 L41,639.5 " fill="none" style="stroke:#181818;stroke-width:0.5;stroke-dasharray:5.0,5.0;"/><path d="M338.5,97.5625 L338.7802,97.5625 L337.9476,107.5984 L338.7577,117.6343 L339.0329,127.6701 L337.5488,137.706 L338.3964,147.7419 L337.9313,157.7778 L337.9887,167.8137 L338.4091,177.8495 L337.5782,187.8854 L339.2382,197.9213 L337.6596,207.9572 L338.2363,217.9931 L339.0759,228.0289 L338.3856,238.0648 L338.591,248.1007 L338.4574,258.1366 L338.738,268.1725 L338.8188,278.2083 L339.2809,288.2442 L339.3947,298.2801 L339.4057,308.316 L338.8395,318.3519 L339.1181,328.3877 L339.4363,338.4236 L337.5384,348.4595 L339.4047,358.4954 L338.1047,368.5313 L339.2117,378.5671 L337.84,388.603 L338.4087,398.6389 L339.4888,408.6748 L338.435,418.7106 L338.6404,428.7465 L338.9515,438.7824 L339.055,448.8183 L338.4948,458.8542 L338.883,468.89 L337.7368,478.9259 L338.8792,488.9618 L339.2309,498.9977 L339.0927,509.0336 L339.3174,519.0694 L337.8559,529.1053 L337.6304,539.1412 L337.6715,549.1771 L338.4215,559.213 L338.238,569.2488 L339.4085,579.2847 L338.2671,589.3206 L338.0426,599.3565 L338.8044,609.3924 L337.6109,619.4282 L337.8078,629.4641 L338.5,639.5 " fill="none" style="stroke:#181818;stroke-width:0.5;stroke-dasharray:5.0,5.0;"/><path d="M576.5,97.5625 L576.7802,97.5625 L575.9476,107.5984 L576.7577,117.6343 L577.0329,127.6701 L575.5488,137.706 L576.3964,147.7419 L575.9313,157.7778 L575.9887,167.8137 L576.4091,177.8495 L575.5782,187.8854 L577.2382,197.9213 L575.6596,207.9572 L576.2363,217.9931 L577.0759,228.0289 L576.3856,238.0648 L576.591,248.1007 L576.4574,258.1366 L576.738,268.1725 L576.8188,278.2083 L577.2809,288.2442 L577.3947,298.2801 L577.4057,308.316 L576.8395,318.3519 L577.1181,328.3877 L577.4363,338.4236 L575.5384,348.4595 L577.4047,358.4954 L576.1047,368.5313 L577.2117,378.5671 L575.84,388.603 L576.4087,398.6389 L577.4888,408.6748 L576.435,418.7106 L576.6404,428.7465 L576.9515,438.7824 L577.055,448.8183 L576.4948,458.8542 L576.883,468.89 L575.7368,478.9259 L576.8792,488.9618 L577.2309,498.9977 L577.0927,509.0336 L577.3174,519.0694 L575.8559,529.1053 L575.6304,539.1412 L575.6715,549.1771 L576.4215,559.213 L576.238,569.2488 L577.4085,579.2847 L576.2671,589.3206 L576.0426,599.3565 L576.8044,609.3924 L575.6109,619.4282 L575.8078,629.4641 L576.5,639.5 " fill="none" style="stroke:#181818;stroke-width:0.5;stroke-dasharray:5.0,5.0;"/><path d="M852.5,97.5625 L852.7802,97.5625 L851.9476,107.5984 L852.7577,117.6343 L853.0329,127.6701 L851.5488,137.706 L852.3964,147.7419 L851.9313,157.7778 L851.9887,167.8137 L852.4091,177.8495 L851.5782,187.8854 L853.2382,197.9213 L851.6596,207.9572 L852.2363,217.9931 L853.0759,228.0289 L852.3856,238.0648 L852.591,248.1007 L852.4574,258.1366 L852.738,268.1725 L852.8188,278.2083 L853.2809,288.2442 L853.3947,298.2801 L853.4057,308.316 L852.8395,318.3519 L853.1181,328.3877 L853.4363,338.4236 L851.5384,348.4595 L853.4047,358.4954 L852.1047,368.5313 L853.2117,378.5671 L851.84,388.603 L852.4087,398.6389 L853.4888,408.6748 L852.435,418.7106 L852.6404,428.7465 L852.9515,438.7824 L853.055,448.8183 L852.4948,458.8542 L852.883,468.89 L851.7368,478.9259 L852.8792,488.9618 L853.2309,498.9977 L853.0927,509.0336 L853.3174,519.0694 L851.8559,529.1053 L851.6304,539.1412 L851.6715,549.1771 L852.4215,559.213 L852.238,569.2488 L853.4085,579.2847 L852.2671,589.3206 L852.0426,599.3565 L852.8044,609.3924 L851.6109,619.4282 L851.8078,629.4641 L852.5,639.5 " fill="none" style="stroke:#181818;stroke-width:0.5;stroke-dasharray:5.0,5.0;"/><path d="M1097.5,97.5625 L1097.7802,97.5625 L1096.9476,107.5984 L1097.7577,117.6343 L1098.0329,127.6701 L1096.5488,137.706 L1097.3964,147.7419 L1096.9313,157.7778 L1096.9887,167.8137 L1097.4091,177.8495 L1096.5782,187.8854 L1098.2382,197.9213 L1096.6596,207.9572 L1097.2363,217.9931 L1098.0759,228.0289 L1097.3856,238.0648 L1097.591,248.1007 L1097.4574,258.1366 L1097.738,268.1725 L1097.8188,278.2083 L1098.2809,288.2442 L1098.3947,298.2801 L1098.4057,308.316 L1097.8395,318.3519 L1098.1181,328.3877 L1098.4363,338.4236 L1096.5384,348.4595 L1098.4047,358.4954 L1097.1047,368.5313 L1098.2117,378.5671 L1096.84,388.603 L1097.4087,398.6389 L1098.4888,408.6748 L1097.435,418.7106 L1097.6404,428.7465 L1097.9515,438.7824 L1098.055,448.8183 L1097.4948,458.8542 L1097.883,468.89 L1096.7368,478.9259 L1097.8792,488.9618 L1098.2309,498.9977 L1098.0927,509.0336 L1098.3174,519.0694 L1096.8559,529.1053 L1096.6304,539.1412 L1096.6715,549.1771 L1097.4215,559.213 L1097.238,569.2488 L1098.4085,579.2847 L1097.2671,589.3206 L1097.0426,599.3565 L1097.8044,609.3924 L1096.6109,619.4282 L1096.8078,629.4641 L1097.5,639.5 " fill="none" style="stroke:#181818;stroke-width:0.5;stroke-dasharray:5.0,5.0;"/><path d="M1307.5,97.5625 L1307.7802,97.5625 L1306.9476,107.5984 L1307.7577,117.6343 L1308.0329,127.6701 L1306.5488,137.706 L1307.3964,147.7419 L1306.9313,157.7778 L1306.9887,167.8137 L1307.4091,177.8495 L1306.5782,187.8854 L1308.2382,197.9213 L1306.6596,207.9572 L1307.2363,217.9931 L1308.0759,228.0289 L1307.3856,238.0648 L1307.591,248.1007 L1307.4574,258.1366 L1307.738,268.1725 L1307.8188,278.2083 L1308.2809,288.2442 L1308.3947,298.2801 L1308.4057,308.316 L1307.8395,318.3519 L1308.1181,328.3877 L1308.4363,338.4236 L1306.5384,348.4595 L1308.4047,358.4954 L1307.1047,368.5313 L1308.2117,378.5671 L1306.84,388.603 L1307.4087,398.6389 L1308.4888,408.6748 L1307.435,418.7106 L1307.6404,428.7465 L1307.9515,438.7824 L1308.055,448.8183 L1307.4948,458.8542 L1307.883,468.89 L1306.7368,478.9259 L1307.8792,488.9618 L1308.2309,498.9977 L1308.0927,509.0336 L1308.3174,519.0694 L1306.8559,529.1053 L1306.6304,539.1412 L1306.6715,549.1771 L1307.4215,559.213 L1307.238,569.2488 L1308.4085,579.2847 L1307.2671,589.3206 L1307.0426,599.3565 L1307.8044,609.3924 L1306.6109,619.4282 L1306.8078,629.4641 L1307.5,639.5 " fill="none" style="stroke:#181818;stroke-width:0.5;stroke-dasharray:5.0,5.0;"/><path d="M1492.5,97.5625 L1492.7802,97.5625 L1491.9476,107.5984 L1492.7577,117.6343 L1493.0329,127.6701 L1491.5488,137.706 L1492.3964,147.7419 L1491.9313,157.7778 L1491.9887,167.8137 L1492.4091,177.8495 L1491.5782,187.8854 L1493.2382,197.9213 L1491.6596,207.9572 L1492.2363,217.9931 L1493.0759,228.0289 L1492.3856,238.0648 L1492.591,248.1007 L1492.4574,258.1366 L1492.738,268.1725 L1492.8188,278.2083 L1493.2809,288.2442 L1493.3947,298.2801 L1493.4057,308.316 L1492.8395,318.3519 L1493.1181,328.3877 L1493.4363,338.4236 L1491.5384,348.4595 L1493.4047,358.4954 L1492.1047,368.5313 L1493.2117,378.5671 L1491.84,388.603 L1492.4087,398.6389 L1493.4888,408.6748 L1492.435,418.7106 L1492.6404,428.7465 L1492.9515,438.7824 L1493.055,448.8183 L1492.4948,458.8542 L1492.883,468.89 L1491.7368,478.9259 L1492.8792,488.9618 L1493.2309,498.9977 L1493.0927,509.0336 L1493.3174,519.0694 L1491.8559,529.1053 L1491.6304,539.1412 L1491.6715,549.1771 L1492.4215,559.213 L1492.238,569.2488 L1493.4085,579.2847 L1492.2671,589.3206 L1492.0426,599.3565 L1492.8044,609.3924 L1491.6109,619.4282 L1491.8078,629.4641 L1492.5,639.5 " fill="none" style="stroke:#181818;stroke-width:0.5;stroke-dasharray:5.0,5.0;"/><text fill="#000000" font-family="FG Virgil" font-size="20" lengthAdjust="spacing" textLength="66" x="5" y="92.8457">Admin</text><polygon fill="#E3E3E3" points="49.0442,24.7272,47.8715,26.3295,46.4845,28.6763,44.5008,30.2579,42.4163,31.1228,40.7542,31.1978,38.618,30.1162,36.6023,29.4096,35.0724,27.9748,34.2699,26.3324,33.7939,25.0245,33.3277,23.3163,32.5709,21.8463,33.1525,20.4111,33.662,18.8389,35.574,17.5954,36.9192,15.982,38.5843,15.4463,40.5637,14.9849,43.1021,15.259,44.4924,15.9147,46.1089,16.2119,48.0743,18.2256,48.7595,20.3514,49.0571,21.8019,48.72,24.1921" style="stroke:#181818;stroke-width:0.5;"/><path d="M41,30.7813 L41.1868,30.7813 L40.6317,36.1813 L41.1718,41.5813 L41.3553,46.9813 L40.3659,52.3813 L41,57.7813 M28,38.7813 L28,38.7122 L33.2,38.4021 L38.4,38.4404 L43.6,38.7207 L48.8,38.1667 L54,38.7813 M41,57.7813 L41.3719,58.1036 L37.9766,60.4143 L35.6672,63.6661 L33.4901,67.0327 L30.5424,69.7313 L28,72.7813 M41,57.7813 L41.0458,57.821 L43.5785,60.7627 L46.3199,63.8852 L48.9606,66.9205 L51.7934,70.1222 L54,72.7813 " fill="none" style="stroke:#181818;stroke-width:0.5;"/><text fill="#000000" font-family="FG Virgil" font-size="20" lengthAdjust="spacing" textLength="66" x="5" y="657.0645">Admin</text><polygon fill="#E3E3E3" points="49.0442,672.2272,47.8715,673.8295,46.4845,676.1763,44.5008,677.7579,42.4163,678.6228,40.7542,678.6978,38.618,677.6162,36.6023,676.9096,35.0724,675.4748,34.2699,673.8324,33.7939,672.5245,33.3277,670.8163,32.5709,669.3463,33.1525,667.9111,33.662,666.3389,35.574,665.0954,36.9192,663.482,38.5843,662.9463,40.5637,662.4849,43.1021,662.759,44.4924,663.4147,46.1089,663.7119,48.0743,665.7256,48.7595,667.8514,49.0571,669.3019,48.72,671.6921" style="stroke:#181818;stroke-width:0.5;"/><path d="M41,678.2813 L41.1868,678.2813 L40.6317,683.6813 L41.1718,689.0813 L41.3553,694.4813 L40.3659,699.8813 L41,705.2813 M28,686.2813 L28,686.2122 L33.2,685.9021 L38.4,685.9404 L43.6,686.2207 L48.8,685.6667 L54,686.2813 M41,705.2813 L41.3719,705.6036 L37.9766,707.9143 L35.6672,711.1661 L33.4901,714.5327 L30.5424,717.2313 L28,720.2813 M41,705.2813 L41.0458,705.321 L43.5785,708.2627 L46.3199,711.3852 L48.9606,714.4205 L51.7934,717.6222 L54,720.2813 " fill="none" style="stroke:#181818;stroke-width:0.5;"/><polygon fill="#E3E3E3" points="247,36,247,36.2102,257.2222,35.5857,267.4444,36.1933,277.6667,36.3997,287.8889,35.2866,298.1111,35.9223,308.3333,35.5735,318.5556,35.6165,328.7778,35.9318,339,35.3086,349.2222,36.5536,359.4444,35.3697,369.6667,35.8022,379.8889,36.4319,390.1111,35.9142,400.3333,36.0682,410.5556,35.9681,420.7778,36.1785,431,36,431.0305,36.0736,431.4283,36.3268,431.7927,36.4996,432.1473,36.6485,432.4467,36.6642,432.7678,36.7322,432.9105,36.7914,433.1305,37.1754,432.8386,37.3473,433.4161,37.8794,433.2622,38.1086,433.5,38.5,434.0338,38.5,433.005,47.7604,433.4315,57.0208,434.2416,66.2813,433.4513,75.5417,433.6053,84.8021,433.5,94.0625,433.6043,94.1057,433.4817,94.4691,433.2059,94.7691,433.1491,95.1598,432.7379,95.4037,432.7678,95.8303,432.804,95.9178,432.4841,96.1455,432.1174,96.2601,431.7853,96.4584,431.2919,96.2673,431,96.5625,431,95.9103,420.7778,95.9411,410.5556,96.5036,400.3333,96.366,390.1111,97.2439,379.8889,96.3878,369.6667,96.2194,359.4444,96.7908,349.2222,95.8957,339,96.0434,328.7778,97.2115,318.5556,96.9982,308.3333,97.297,298.1111,96.2407,287.8889,96.8817,277.6667,97.1529,267.4444,96.0901,257.2222,96.4666,247,96.5625,247.0161,96.6013,246.7296,96.6168,246.2924,96.2683,245.9983,96.2656,245.5151,95.8062,245.2322,95.8303,245.0237,95.7439,245.2409,95.541,244.7186,95.0317,244.9496,94.8345,244.7101,94.4424,244.5,94.0625,244.2321,94.0625,244.1462,84.8021,244.9588,75.5417,244.2007,66.2813,245.0919,57.0208,243.9473,47.7604,244.5,38.5,244.6901,38.5788,244.7956,38.2082,244.8683,37.8241,244.9539,37.4454,245.3096,37.1785,245.2322,36.7322,245.3105,36.9212,245.6074,36.6379,245.9736,36.5219,246.2763,36.2528,246.7378,36.3671,247,36" style="stroke:#181818;stroke-width:0.5;"/><text fill="#000000" font-family="FG Virgil" font-size="20" font-style="italic" lengthAdjust="spacing" textLength="151" x="263.5" y="61.5645">«presentation»</text><text fill="#000000" font-family="FG Virgil" font-size="20" lengthAdjust="spacing" textLength="175" x="251.5" y="84.8457">ListSystemUserUI</text><polygon fill="#E3E3E3" points="247,638.5,247,638.7102,257.2222,638.0857,267.4444,638.6933,277.6667,638.8997,287.8889,637.7866,298.1111,638.4223,308.3333,638.0735,318.5556,638.1165,328.7778,638.4318,339,637.8086,349.2222,639.0536,359.4444,637.8697,369.6667,638.3022,379.8889,638.9319,390.1111,638.4142,400.3333,638.5682,410.5556,638.4681,420.7778,638.6785,431,638.5,431.0305,638.5736,431.4283,638.8268,431.7927,638.9996,432.1473,639.1485,432.4467,639.1642,432.7678,639.2322,432.9105,639.2914,433.1305,639.6754,432.8386,639.8473,433.4161,640.3794,433.2622,640.6086,433.5,641,434.0338,641,433.005,650.2604,433.4315,659.5208,434.2416,668.7813,433.4513,678.0417,433.6053,687.3021,433.5,696.5625,433.6043,696.6057,433.4817,696.9691,433.2059,697.2691,433.1491,697.6598,432.7379,697.9037,432.7678,698.3303,432.804,698.4178,432.4841,698.6455,432.1174,698.7601,431.7853,698.9584,431.2919,698.7673,431,699.0625,431,698.4103,420.7778,698.4411,410.5556,699.0036,400.3333,698.866,390.1111,699.7439,379.8889,698.8878,369.6667,698.7194,359.4444,699.2908,349.2222,698.3957,339,698.5434,328.7778,699.7115,318.5556,699.4982,308.3333,699.797,298.1111,698.7407,287.8889,699.3817,277.6667,699.6529,267.4444,698.5901,257.2222,698.9666,247,699.0625,247.0161,699.1013,246.7296,699.1168,246.2924,698.7683,245.9983,698.7656,245.5151,698.3062,245.2322,698.3303,245.0237,698.2439,245.2409,698.041,244.7186,697.5317,244.9496,697.3345,244.7101,696.9424,244.5,696.5625,244.2321,696.5625,244.1462,687.3021,244.9588,678.0417,244.2007,668.7813,245.0919,659.5208,243.9473,650.2604,244.5,641,244.6901,641.0788,244.7956,640.7082,244.8683,640.3241,244.9539,639.9454,245.3096,639.6785,245.2322,639.2322,245.3105,639.4212,245.6074,639.1379,245.9736,639.0219,246.2763,638.7528,246.7378,638.8671,247,638.5" style="stroke:#181818;stroke-width:0.5;"/><text fill="#000000" font-family="FG Virgil" font-size="20" font-style="italic" lengthAdjust="spacing" textLength="151" x="263.5" y="664.0645">«presentation»</text><text fill="#000000" font-family="FG Virgil" font-size="20" lengthAdjust="spacing" textLength="175" x="251.5" y="687.3457">ListSystemUserUI</text><polygon fill="#E3E3E3" points="446,36,446,36.2102,456.0769,35.5857,466.1538,36.1933,476.2308,36.3997,486.3077,35.2866,496.3846,35.9223,506.4615,35.5735,516.5385,35.6165,526.6154,35.9318,536.6923,35.3086,546.7692,36.5536,556.8462,35.3697,566.9231,35.8022,577,36.4319,587.0769,35.9142,597.1538,36.0682,607.2308,35.9681,617.3077,36.1785,627.3846,36.2391,637.4615,36.5857,647.5385,36.6711,657.6154,36.6793,667.6923,36.2546,677.7692,36.4636,687.8462,36.7022,697.9231,35.2788,708,36,708.0866,36.209,708.3157,36.0551,708.7752,36.4573,708.9975,36.2869,709.4055,36.5647,709.7678,36.7322,709.9962,36.8268,709.8992,37.0796,710.0931,37.4528,710.3114,37.8361,710.4817,38.1995,710.5,38.5,710.4961,38.5,710.7872,47.7604,709.9276,57.0208,710.7844,66.2813,711.0482,75.5417,710.9445,84.8021,710.5,94.0625,710.6888,94.1407,710.2048,94.3544,710.0063,94.6864,709.8693,95.0439,709.8961,95.4692,709.7678,95.8303,709.7427,95.7697,709.5011,96.1866,709.0384,96.0694,708.6633,96.164,708.3827,96.4864,708,96.5625,708,95.8957,697.9231,96.0434,687.8462,97.2115,677.7692,96.9982,667.6923,97.297,657.6154,96.2407,647.5385,96.8817,637.4615,97.1529,627.3846,96.0901,617.3077,96.4666,607.2308,96.6885,597.1538,97.2143,587.0769,96.5583,577,97.0251,566.9231,96.0087,556.8462,95.8852,546.7692,97.0661,536.6923,95.8456,526.6154,97.0715,516.5385,96.7691,506.4615,96.2946,496.3846,96.2087,486.3077,97.0213,476.2308,96.2632,466.1538,97.1544,456.0769,96.0098,446,96.5625,446.0788,96.7526,445.7082,96.5652,445.3241,96.345,444.9454,96.1377,444.6785,96.2005,444.2322,95.8303,444.4212,95.9085,444.1379,95.4983,444.0219,95.1574,443.7528,94.753,443.8671,94.5074,443.5,94.0625,443.6549,94.0625,443.6726,84.8021,442.8916,75.5417,443.0948,66.2813,444.0307,57.0208,443.9298,47.7604,443.5,38.5,443.4868,38.4945,443.5472,38.1054,443.7255,37.765,443.728,37.3518,444.2135,37.1387,444.2322,36.7322,444.3266,36.96,444.6529,36.7479,445.028,36.6534,445.2755,36.2508,445.6576,36.1733,446,36" style="stroke:#181818;stroke-width:0.5;"/><text fill="#000000" font-family="FG Virgil" font-size="20" font-style="italic" lengthAdjust="spacing" textLength="136" x="509" y="61.5645">«application»</text><text fill="#000000" font-family="FG Virgil" font-size="20" lengthAdjust="spacing" textLength="253" x="450.5" y="84.8457">ListSystemUserController</text><polygon fill="#E3E3E3" points="446,638.5,446,638.7102,456.0769,638.0857,466.1538,638.6933,476.2308,638.8997,486.3077,637.7866,496.3846,638.4223,506.4615,638.0735,516.5385,638.1165,526.6154,638.4318,536.6923,637.8086,546.7692,639.0536,556.8462,637.8697,566.9231,638.3022,577,638.9319,587.0769,638.4142,597.1538,638.5682,607.2308,638.4681,617.3077,638.6785,627.3846,638.7391,637.4615,639.0857,647.5385,639.1711,657.6154,639.1793,667.6923,638.7546,677.7692,638.9636,687.8462,639.2022,697.9231,637.7788,708,638.5,708.0866,638.709,708.3157,638.5551,708.7752,638.9573,708.9975,638.7869,709.4055,639.0647,709.7678,639.2322,709.9962,639.3268,709.8992,639.5796,710.0931,639.9528,710.3114,640.3361,710.4817,640.6995,710.5,641,710.4961,641,710.7872,650.2604,709.9276,659.5208,710.7844,668.7813,711.0482,678.0417,710.9445,687.3021,710.5,696.5625,710.6888,696.6407,710.2048,696.8544,710.0063,697.1864,709.8693,697.5439,709.8961,697.9692,709.7678,698.3303,709.7427,698.2697,709.5011,698.6866,709.0384,698.5694,708.6633,698.664,708.3827,698.9864,708,699.0625,708,698.3957,697.9231,698.5434,687.8462,699.7115,677.7692,699.4982,667.6923,699.797,657.6154,698.7407,647.5385,699.3817,637.4615,699.6529,627.3846,698.5901,617.3077,698.9666,607.2308,699.1885,597.1538,699.7143,587.0769,699.0583,577,699.5251,566.9231,698.5087,556.8462,698.3852,546.7692,699.5661,536.6923,698.3456,526.6154,699.5715,516.5385,699.2691,506.4615,698.7946,496.3846,698.7087,486.3077,699.5213,476.2308,698.7632,466.1538,699.6544,456.0769,698.5098,446,699.0625,446.0788,699.2526,445.7082,699.0652,445.3241,698.845,444.9454,698.6377,444.6785,698.7005,444.2322,698.3303,444.4212,698.4085,444.1379,697.9983,444.0219,697.6574,443.7528,697.253,443.8671,697.0074,443.5,696.5625,443.6549,696.5625,443.6726,687.3021,442.8916,678.0417,443.0948,668.7813,444.0307,659.5208,443.9298,650.2604,443.5,641,443.4868,640.9945,443.5472,640.6054,443.7255,640.265,443.728,639.8518,444.2135,639.6387,444.2322,639.2322,444.3266,639.46,444.6529,639.2479,445.028,639.1534,445.2755,638.7508,445.6576,638.6733,446,638.5" style="stroke:#181818;stroke-width:0.5;"/><text fill="#000000" font-family="FG Virgil" font-size="20" font-style="italic" lengthAdjust="spacing" textLength="136" x="509" y="664.0645">«application»</text><text fill="#000000" font-family="FG Virgil" font-size="20" lengthAdjust="spacing" textLength="253" x="450.5" y="687.3457">ListSystemUserController</text><polygon fill="#E3E3E3" points="723,36,723,36.2102,732.9615,35.5857,742.9231,36.1933,752.8846,36.3997,762.8462,35.2866,772.8077,35.9223,782.7692,35.5735,792.7308,35.6165,802.6923,35.9318,812.6538,35.3086,822.6154,36.5536,832.5769,35.3697,842.5385,35.8022,852.5,36.4319,862.4615,35.9142,872.4231,36.0682,882.3846,35.9681,892.3462,36.1785,902.3077,36.2391,912.2692,36.5857,922.2308,36.6711,932.1923,36.6793,942.1538,36.2546,952.1154,36.4636,962.0769,36.7022,972.0385,35.2788,982,36,982.0866,36.209,982.3157,36.0551,982.7752,36.4573,982.9975,36.2869,983.4055,36.5647,983.7678,36.7322,983.9962,36.8268,983.8992,37.0796,984.0931,37.4528,984.3114,37.8361,984.4817,38.1995,984.5,38.5,984.4961,38.5,984.7872,47.7604,983.9276,57.0208,984.7844,66.2813,985.0482,75.5417,984.9445,84.8021,984.5,94.0625,984.6888,94.1407,984.2048,94.3544,984.0063,94.6864,983.8693,95.0439,983.8961,95.4692,983.7678,95.8303,983.7427,95.7697,983.5011,96.1866,983.0384,96.0694,982.6633,96.164,982.3827,96.4864,982,96.5625,982,95.8957,972.0385,96.0434,962.0769,97.2115,952.1154,96.9982,942.1538,97.297,932.1923,96.2407,922.2308,96.8817,912.2692,97.1529,902.3077,96.0901,892.3462,96.4666,882.3846,96.6885,872.4231,97.2143,862.4615,96.5583,852.5,97.0251,842.5385,96.0087,832.5769,95.8852,822.6154,97.0661,812.6538,95.8456,802.6923,97.0715,792.7308,96.7691,782.7692,96.2946,772.8077,96.2087,762.8462,97.0213,752.8846,96.2632,742.9231,97.1544,732.9615,96.0098,723,96.5625,723.0788,96.7526,722.7082,96.5652,722.3241,96.345,721.9454,96.1377,721.6785,96.2005,721.2322,95.8303,721.4212,95.9085,721.1379,95.4983,721.0219,95.1574,720.7528,94.753,720.8671,94.5074,720.5,94.0625,720.6549,94.0625,720.6726,84.8021,719.8916,75.5417,720.0948,66.2813,721.0307,57.0208,720.9298,47.7604,720.5,38.5,720.4868,38.4945,720.5472,38.1054,720.7255,37.765,720.728,37.3518,721.2135,37.1387,721.2322,36.7322,721.3266,36.96,721.6529,36.7479,722.028,36.6534,722.2755,36.2508,722.6576,36.1733,723,36" style="stroke:#181818;stroke-width:0.5;"/><text fill="#000000" font-family="FG Virgil" font-size="20" font-style="italic" lengthAdjust="spacing" textLength="95" x="805" y="61.5645">«service»</text><text fill="#000000" font-family="FG Virgil" font-size="20" lengthAdjust="spacing" textLength="250" x="727.5" y="84.8457">UserManagementService</text><polygon fill="#E3E3E3" points="723,638.5,723,638.7102,732.9615,638.0857,742.9231,638.6933,752.8846,638.8997,762.8462,637.7866,772.8077,638.4223,782.7692,638.0735,792.7308,638.1165,802.6923,638.4318,812.6538,637.8086,822.6154,639.0536,832.5769,637.8697,842.5385,638.3022,852.5,638.9319,862.4615,638.4142,872.4231,638.5682,882.3846,638.4681,892.3462,638.6785,902.3077,638.7391,912.2692,639.0857,922.2308,639.1711,932.1923,639.1793,942.1538,638.7546,952.1154,638.9636,962.0769,639.2022,972.0385,637.7788,982,638.5,982.0866,638.709,982.3157,638.5551,982.7752,638.9573,982.9975,638.7869,983.4055,639.0647,983.7678,639.2322,983.9962,639.3268,983.8992,639.5796,984.0931,639.9528,984.3114,640.3361,984.4817,640.6995,984.5,641,984.4961,641,984.7872,650.2604,983.9276,659.5208,984.7844,668.7813,985.0482,678.0417,984.9445,687.3021,984.5,696.5625,984.6888,696.6407,984.2048,696.8544,984.0063,697.1864,983.8693,697.5439,983.8961,697.9692,983.7678,698.3303,983.7427,698.2697,983.5011,698.6866,983.0384,698.5694,982.6633,698.664,982.3827,698.9864,982,699.0625,982,698.3957,972.0385,698.5434,962.0769,699.7115,952.1154,699.4982,942.1538,699.797,932.1923,698.7407,922.2308,699.3817,912.2692,699.6529,902.3077,698.5901,892.3462,698.9666,882.3846,699.1885,872.4231,699.7143,862.4615,699.0583,852.5,699.5251,842.5385,698.5087,832.5769,698.3852,822.6154,699.5661,812.6538,698.3456,802.6923,699.5715,792.7308,699.2691,782.7692,698.7946,772.8077,698.7087,762.8462,699.5213,752.8846,698.7632,742.9231,699.6544,732.9615,698.5098,723,699.0625,723.0788,699.2526,722.7082,699.0652,722.3241,698.845,721.9454,698.6377,721.6785,698.7005,721.2322,698.3303,721.4212,698.4085,721.1379,697.9983,721.0219,697.6574,720.7528,697.253,720.8671,697.0074,720.5,696.5625,720.6549,696.5625,720.6726,687.3021,719.8916,678.0417,720.0948,668.7813,721.0307,659.5208,720.9298,650.2604,720.5,641,720.4868,640.9945,720.5472,640.6054,720.7255,640.265,720.728,639.8518,721.2135,639.6387,721.2322,639.2322,721.3266,639.46,721.6529,639.2479,722.028,639.1534,722.2755,638.7508,722.6576,638.6733,723,638.5" style="stroke:#181818;stroke-width:0.5;"/><text fill="#000000" font-family="FG Virgil" font-size="20" font-style="italic" lengthAdjust="spacing" textLength="95" x="805" y="664.0645">«service»</text><text fill="#000000" font-family="FG Virgil" font-size="20" lengthAdjust="spacing" textLength="250" x="727.5" y="687.3457">UserManagementService</text><polygon fill="#E3E3E3" points="997,36,997,36.2102,1007.05,35.5857,1017.1,36.1933,1027.15,36.3997,1037.2,35.2866,1047.25,35.9223,1057.3,35.5735,1067.35,35.6165,1077.4,35.9318,1087.45,35.3086,1097.5,36.5536,1107.55,35.3697,1117.6,35.8022,1127.65,36.4319,1137.7,35.9142,1147.75,36.0682,1157.8,35.9681,1167.85,36.1785,1177.9,36.2391,1187.95,36.5857,1198,36,1198.0856,36.2067,1198.4402,36.3556,1198.7396,36.3713,1199.1198,36.5821,1199.5038,36.802,1199.7678,36.7322,1199.5457,36.6402,1200.1232,37.1723,1199.9693,37.4015,1200.3715,37.861,1200.2011,38.0833,1200.5,38.5,1200.4315,38.5,1201.2416,47.7604,1200.4513,57.0208,1200.6053,66.2813,1200.8386,75.5417,1200.9162,84.8021,1200.5,94.0625,1200.4988,94.062,1200.442,94.4527,1200.0308,94.6966,1200.1482,95.1594,1200.083,95.5466,1199.7678,95.8303,1199.8245,95.9672,1199.4924,96.1655,1198.999,95.9744,1198.6239,96.0688,1198.2743,96.2247,1198,96.5625,1198,96.5036,1187.95,96.366,1177.9,97.2439,1167.85,96.3878,1157.8,96.2194,1147.75,96.7908,1137.7,95.8957,1127.65,96.0434,1117.6,97.2115,1107.55,96.9982,1097.5,97.297,1087.45,96.2407,1077.4,96.8817,1067.35,97.1529,1057.3,96.0901,1047.25,96.4666,1037.2,96.6885,1027.15,97.2143,1017.1,96.5583,1007.05,97.0251,997,96.5625,996.9294,96.392,996.5601,96.2075,996.3571,96.4247,995.8479,95.9024,995.6507,96.1335,995.2322,95.8303,995.2959,95.8566,995.0033,95.4425,994.8304,95.078,994.9342,94.8281,994.5543,94.3779,994.5,94.0625,995.0919,94.0625,993.9473,84.8021,995.1174,75.5417,994.9843,66.2813,994.745,57.0208,994.5472,47.7604,994.5,38.5,994.7238,38.5927,994.8354,38.2247,994.845,37.8145,995.0219,37.4736,995.0457,37.0692,995.2322,36.7322,995.3236,36.9529,995.6055,36.6335,995.9614,36.4925,996.2153,36.1055,996.5948,36.0217,997,36" style="stroke:#181818;stroke-width:0.5;"/><text fill="#000000" font-family="FG Virgil" font-size="20" font-style="italic" lengthAdjust="spacing" textLength="139" x="1028" y="61.5645">«persistence»</text><text fill="#000000" font-family="FG Virgil" font-size="20" lengthAdjust="spacing" textLength="192" x="1001.5" y="84.8457">PersistenceContext</text><polygon fill="#E3E3E3" points="997,638.5,997,638.7102,1007.05,638.0857,1017.1,638.6933,1027.15,638.8997,1037.2,637.7866,1047.25,638.4223,1057.3,638.0735,1067.35,638.1165,1077.4,638.4318,1087.45,637.8086,1097.5,639.0536,1107.55,637.8697,1117.6,638.3022,1127.65,638.9319,1137.7,638.4142,1147.75,638.5682,1157.8,638.4681,1167.85,638.6785,1177.9,638.7391,1187.95,639.0857,1198,638.5,1198.0856,638.7067,1198.4402,638.8556,1198.7396,638.8713,1199.1198,639.0821,1199.5038,639.302,1199.7678,639.2322,1199.5457,639.1402,1200.1232,639.6723,1199.9693,639.9015,1200.3715,640.361,1200.2011,640.5833,1200.5,641,1200.4315,641,1201.2416,650.2604,1200.4513,659.5208,1200.6053,668.7813,1200.8386,678.0417,1200.9162,687.3021,1200.5,696.5625,1200.4988,696.562,1200.442,696.9527,1200.0308,697.1966,1200.1482,697.6594,1200.083,698.0466,1199.7678,698.3303,1199.8245,698.4672,1199.4924,698.6655,1198.999,698.4744,1198.6239,698.5688,1198.2743,698.7247,1198,699.0625,1198,699.0036,1187.95,698.866,1177.9,699.7439,1167.85,698.8878,1157.8,698.7194,1147.75,699.2908,1137.7,698.3957,1127.65,698.5434,1117.6,699.7115,1107.55,699.4982,1097.5,699.797,1087.45,698.7407,1077.4,699.3817,1067.35,699.6529,1057.3,698.5901,1047.25,698.9666,1037.2,699.1885,1027.15,699.7143,1017.1,699.0583,1007.05,699.5251,997,699.0625,996.9294,698.892,996.5601,698.7075,996.3571,698.9247,995.8479,698.4024,995.6507,698.6335,995.2322,698.3303,995.2959,698.3566,995.0033,697.9425,994.8304,697.578,994.9342,697.3281,994.5543,696.8779,994.5,696.5625,995.0919,696.5625,993.9473,687.3021,995.1174,678.0417,994.9843,668.7813,994.745,659.5208,994.5472,650.2604,994.5,641,994.7238,641.0927,994.8354,640.7247,994.845,640.3145,995.0219,639.9736,995.0457,639.5692,995.2322,639.2322,995.3236,639.4529,995.6055,639.1335,995.9614,638.9925,996.2153,638.6055,996.5948,638.5217,997,638.5" style="stroke:#181818;stroke-width:0.5;"/><text fill="#000000" font-family="FG Virgil" font-size="20" font-style="italic" lengthAdjust="spacing" textLength="139" x="1028" y="664.0645">«persistence»</text><text fill="#000000" font-family="FG Virgil" font-size="20" lengthAdjust="spacing" textLength="192" x="1001.5" y="687.3457">PersistenceContext</text><polygon fill="#E3E3E3" points="1213,36,1213,36.2102,1222.9474,35.5857,1232.8947,36.1933,1242.8421,36.3997,1252.7895,35.2866,1262.7368,35.9223,1272.6842,35.5735,1282.6316,35.6165,1292.5789,35.9318,1302.5263,35.3086,1312.4737,36.5536,1322.4211,35.3697,1332.3684,35.8022,1342.3158,36.4319,1352.2632,35.9142,1362.2105,36.0682,1372.1579,35.9681,1382.1053,36.1785,1392.0526,36.2391,1402,36,1402.0747,36.1804,1402.4392,36.3531,1402.7938,36.5021,1403.0931,36.5178,1403.4733,36.7286,1403.7678,36.7322,1403.984,36.8218,1403.6921,36.9938,1404.2696,37.5259,1404.1158,37.7551,1404.5179,38.2145,1404.5,38.5,1404.005,38.5,1404.4315,47.7604,1405.2416,57.0208,1404.4513,66.2813,1404.6053,75.5417,1404.8386,84.8021,1404.5,94.0625,1404.6282,94.1156,1404.3524,94.4156,1404.2956,94.8062,1403.8844,95.0501,1404.0018,95.513,1403.7678,95.8303,1403.8377,95.9991,1403.4709,96.1136,1403.1389,96.3119,1402.6455,96.1208,1402.2704,96.2152,1402,96.5625,1402,95.9411,1392.0526,96.5036,1382.1053,96.366,1372.1579,97.2439,1362.2105,96.3878,1352.2632,96.2194,1342.3158,96.7908,1332.3684,95.8957,1322.4211,96.0434,1312.4737,97.2115,1302.5263,96.9982,1292.5789,97.297,1282.6316,96.2407,1272.6842,96.8817,1262.7368,97.1529,1252.7895,96.0901,1242.8421,96.4666,1232.8947,96.6885,1222.9474,97.2143,1213,96.5625,1212.9995,96.5612,1212.7055,96.5585,1212.2223,96.0991,1211.8529,95.9146,1211.65,96.1318,1211.2322,95.8303,1211.0114,95.7388,1211.2425,95.5416,1211.003,95.1495,1210.7104,94.7354,1210.5375,94.3709,1210.5,94.0625,1210.9588,94.0625,1210.2007,84.8021,1211.0919,75.5417,1209.9473,66.2813,1211.1174,57.0208,1210.9843,47.7604,1210.5,38.5,1210.5754,38.5312,1210.661,38.1525,1211.0167,37.8856,1211.1283,37.5176,1211.1379,37.1074,1211.2322,36.7322,1211.2664,36.8148,1211.5692,36.5457,1212.0307,36.66,1212.3126,36.3406,1212.6685,36.1996,1213,36" style="stroke:#181818;stroke-width:0.5;"/><text fill="#000000" font-family="FG Virgil" font-size="20" font-style="italic" lengthAdjust="spacing" textLength="94" x="1260.5" y="61.5645">«factory»</text><text fill="#000000" font-family="FG Virgil" font-size="20" lengthAdjust="spacing" textLength="180" x="1217.5" y="84.8457">RepositoryFactory</text><polygon fill="#E3E3E3" points="1213,638.5,1213,638.7102,1222.9474,638.0857,1232.8947,638.6933,1242.8421,638.8997,1252.7895,637.7866,1262.7368,638.4223,1272.6842,638.0735,1282.6316,638.1165,1292.5789,638.4318,1302.5263,637.8086,1312.4737,639.0536,1322.4211,637.8697,1332.3684,638.3022,1342.3158,638.9319,1352.2632,638.4142,1362.2105,638.5682,1372.1579,638.4681,1382.1053,638.6785,1392.0526,638.7391,1402,638.5,1402.0747,638.6804,1402.4392,638.8531,1402.7938,639.0021,1403.0931,639.0178,1403.4733,639.2286,1403.7678,639.2322,1403.984,639.3218,1403.6921,639.4938,1404.2696,640.0259,1404.1158,640.2551,1404.5179,640.7145,1404.5,641,1404.005,641,1404.4315,650.2604,1405.2416,659.5208,1404.4513,668.7813,1404.6053,678.0417,1404.8386,687.3021,1404.5,696.5625,1404.6282,696.6156,1404.3524,696.9156,1404.2956,697.3062,1403.8844,697.5501,1404.0018,698.013,1403.7678,698.3303,1403.8377,698.4991,1403.4709,698.6136,1403.1389,698.8119,1402.6455,698.6208,1402.2704,698.7152,1402,699.0625,1402,698.4411,1392.0526,699.0036,1382.1053,698.866,1372.1579,699.7439,1362.2105,698.8878,1352.2632,698.7194,1342.3158,699.2908,1332.3684,698.3957,1322.4211,698.5434,1312.4737,699.7115,1302.5263,699.4982,1292.5789,699.797,1282.6316,698.7407,1272.6842,699.3817,1262.7368,699.6529,1252.7895,698.5901,1242.8421,698.9666,1232.8947,699.1885,1222.9474,699.7143,1213,699.0625,1212.9995,699.0612,1212.7055,699.0585,1212.2223,698.5991,1211.8529,698.4146,1211.65,698.6318,1211.2322,698.3303,1211.0114,698.2388,1211.2425,698.0416,1211.003,697.6495,1210.7104,697.2354,1210.5375,696.8709,1210.5,696.5625,1210.9588,696.5625,1210.2007,687.3021,1211.0919,678.0417,1209.9473,668.7813,1211.1174,659.5208,1210.9843,650.2604,1210.5,641,1210.5754,641.0312,1210.661,640.6525,1211.0167,640.3856,1211.1283,640.0176,1211.1379,639.6074,1211.2322,639.2322,1211.2664,639.3148,1211.5692,639.0457,1212.0307,639.16,1212.3126,638.8406,1212.6685,638.6996,1213,638.5" style="stroke:#181818;stroke-width:0.5;"/><text fill="#000000" font-family="FG Virgil" font-size="20" font-style="italic" lengthAdjust="spacing" textLength="94" x="1260.5" y="664.0645">«factory»</text><text fill="#000000" font-family="FG Virgil" font-size="20" lengthAdjust="spacing" textLength="180" x="1217.5" y="687.3457">RepositoryFactory</text><text fill="#000000" font-family="FG Virgil" font-size="20" font-style="italic" lengthAdjust="spacing" textLength="125" x="1427.5" y="69.5645">«repository»</text><text fill="#000000" font-family="FG Virgil" font-size="20" lengthAdjust="spacing" textLength="151" x="1414.5" y="92.8457">UserRepository</text><path d="M1475,15 L1475,15 L1475.0651,15.067 L1476.6716,13.118 L1478.6599,11.5616 L1480.5238,9.8774 L1481.979,7.7727 L1484,6.25 L1483.9952,6.2158 L1485.7739,5.8122 L1487.5766,5.5812 L1489.3958,5.47 L1491.1577,4.9456 L1493,5 L1493,5 L1493.0339,5.2437 L1494.7615,4.9725 L1496.5879,5.4129 L1498.4264,5.9402 L1500.1948,5.9622 L1502,6.25 L1502.0211,6.2717 L1503.7901,7.9898 L1505.6553,9.8069 L1507.4741,11.5762 L1509.3815,13.4366 L1511,15 L1511.5965,15 L1511.6038,20.2 L1511.2263,25.4 L1511.4121,30.6 L1511.6242,35.8 L1511,41 L1511,41 L1510.7766,40.7702 L1509.4102,42.9662 L1507.3081,44.4055 L1505.7654,46.4201 L1503.6466,47.8423 L1502,49.75 L1501.9958,49.7198 L1500.2453,50.3265 L1498.397,50.2285 L1496.6064,50.5464 L1494.8207,50.8991 L1493,51 L1493,51 L1493.0254,51.1832 L1491.1998,50.7483 L1489.4176,50.6264 L1487.565,49.998 L1485.8174,50.1252 L1484,49.75 L1484.1698,49.9247 L1482.3377,48.1417 L1480.5899,46.4453 L1478.4503,44.3461 L1476.5979,42.5422 L1475,41 L1474.4476,41 L1474.9477,35.8 L1474.8253,30.6 L1475.6057,25.4 L1474.8447,20.2 L1475,15 " fill="#E3E3E3" style="stroke:#181818;stroke-width:1.5;"/><path d="M1475,15 L1475,15 L1475.0651,15.067 L1476.6716,16.618 L1478.6599,18.5616 L1480.5238,20.3774 L1481.979,21.7727 L1484,23.75 L1483.9952,23.7158 L1485.7739,23.8122 L1487.5766,24.0812 L1489.3958,24.47 L1491.1577,24.4456 L1493,25 L1493,25 L1493.0339,25.2437 L1494.7615,24.4725 L1496.5879,24.4129 L1498.4264,24.4402 L1500.1948,23.9622 L1502,23.75 L1502.0211,23.7717 L1503.7901,21.9898 L1505.6553,20.3069 L1507.4741,18.5762 L1509.3815,16.9366 L1511,15 " fill="none" style="stroke:#181818;stroke-width:1.5;"/><text fill="#000000" font-family="FG Virgil" font-size="20" font-style="italic" lengthAdjust="spacing" textLength="125" x="1427.5" y="657.0645">«repository»</text><text fill="#000000" font-family="FG Virgil" font-size="20" lengthAdjust="spacing" textLength="151" x="1414.5" y="680.3457">UserRepository</text><path d="M1475,695.0625 L1475,695.0625 L1475.0651,695.1295 L1476.6716,693.1805 L1478.6599,691.6241 L1480.5238,689.9399 L1481.979,687.8352 L1484,686.3125 L1483.9952,686.2783 L1485.7739,685.8747 L1487.5766,685.6437 L1489.3958,685.5325 L1491.1577,685.0081 L1493,685.0625 L1493,685.0625 L1493.0339,685.3062 L1494.7615,685.035 L1496.5879,685.4754 L1498.4264,686.0027 L1500.1948,686.0247 L1502,686.3125 L1502.0211,686.3342 L1503.7901,688.0523 L1505.6553,689.8694 L1507.4741,691.6387 L1509.3815,693.4991 L1511,695.0625 L1511.5965,695.0625 L1511.6038,700.2625 L1511.2263,705.4625 L1511.4121,710.6625 L1511.6242,715.8625 L1511,721.0625 L1511,721.0625 L1510.7766,720.8327 L1509.4102,723.0287 L1507.3081,724.468 L1505.7654,726.4826 L1503.6466,727.9048 L1502,729.8125 L1501.9958,729.7823 L1500.2453,730.389 L1498.397,730.291 L1496.6064,730.6089 L1494.8207,730.9616 L1493,731.0625 L1493,731.0625 L1493.0254,731.2457 L1491.1998,730.8108 L1489.4176,730.6889 L1487.565,730.0605 L1485.8174,730.1877 L1484,729.8125 L1484.1698,729.9872 L1482.3377,728.2042 L1480.5899,726.5078 L1478.4503,724.4086 L1476.5979,722.6047 L1475,721.0625 L1474.4476,721.0625 L1474.9477,715.8625 L1474.8253,710.6625 L1475.6057,705.4625 L1474.8447,700.2625 L1475,695.0625 " fill="#E3E3E3" style="stroke:#181818;stroke-width:1.5;"/><path d="M1475,695.0625 L1475,695.0625 L1475.0651,695.1295 L1476.6716,696.6805 L1478.6599,698.6241 L1480.5238,700.4399 L1481.979,701.8352 L1484,703.8125 L1483.9952,703.7783 L1485.7739,703.8747 L1487.5766,704.1437 L1489.3958,704.5325 L1491.1577,704.5081 L1493,705.0625 L1493,705.0625 L1493.0339,705.3062 L1494.7615,704.535 L1496.5879,704.4754 L1498.4264,704.5027 L1500.1948,704.0247 L1502,703.8125 L1502.0211,703.8342 L1503.7901,702.0523 L1505.6553,700.3694 L1507.4741,698.6387 L1509.3815,696.9991 L1511,695.0625 " fill="none" style="stroke:#181818;stroke-width:1.5;"/><polygon fill="#FFFFFF" points="334,136.8438,334,136.9138,336,136.7056,338,136.9082,340,136.977,342,136.606,344,136.8438,343.9223,136.8438,343.5735,146.9408,343.6165,157.0378,343.9318,167.1348,343.3086,177.2318,344.5536,187.3288,343.3697,197.4258,343.8022,207.5228,344.4319,217.6198,343.9142,227.7168,344.0682,237.8138,343.9681,247.9108,344.1785,258.0078,344.2391,268.1048,344.5857,278.2018,344.6711,288.2988,344.6793,298.3958,344.2546,308.4928,344.4636,318.5898,344.7022,328.6868,343.2788,338.7839,344.6785,348.8809,343.7035,358.9779,344.5338,369.0749,343.505,379.1719,343.9315,389.2689,344.7416,399.3659,343.9513,409.4629,344.1053,419.5599,344.3386,429.6569,344.4162,439.7539,343.9961,449.8509,344.2872,459.9479,343.4276,470.0449,344.2844,480.1419,344.5482,490.2389,344.4445,500.3359,344.613,510.4329,343.5169,520.5299,343.3478,530.627,343.3786,540.724,343.9411,550.821,343.8035,560.918,344.6814,571.015,343.8253,581.112,343.6569,591.209,344.2283,601.306,343.3332,611.403,344,621.5,344,621.327,342,621.7163,340,621.6452,338,621.7448,336,621.3927,334,621.5,334.3192,621.5,334.5904,611.403,333.5276,601.306,333.9041,591.209,334.126,581.112,334.6518,571.015,333.9958,560.918,334.4626,550.821,333.4462,540.724,333.3227,530.627,334.5036,520.5299,333.2831,510.4329,334.509,500.3359,334.2066,490.2389,333.7321,480.1419,333.6462,470.0449,334.4588,459.9479,333.7007,449.8509,334.5919,439.7539,333.4473,429.6569,334.6174,419.5599,334.4843,409.4629,334.245,399.3659,334.0472,389.2689,334.7266,379.1719,334.6136,369.0749,334.1693,358.9779,334.2682,348.8809,333.8697,338.7839,334.7165,328.6868,334.1549,318.5898,334.1726,308.4928,333.3916,298.3958,333.5948,288.2988,334.5307,278.2018,334.4298,268.1048,333.9571,258.0078,333.6778,247.9108,333.7811,237.8138,333.3138,227.7168,334.4147,217.6198,334.7396,207.5228,334.5264,197.4258,334.6949,187.3288,333.8633,177.2318,334.0872,167.1348,333.6124,157.0378,334.284,146.9408,334,136.8438" style="stroke:#181818;stroke-width:1.0;"/><polygon fill="#FFFFFF" points="572,211.4063,572,211.4763,574,211.2681,576,211.4707,578,211.5395,580,211.1685,582,211.4063,581.9223,211.4063,581.5735,221.4823,581.6165,231.5583,581.9318,241.6343,581.3086,251.7103,582.5536,261.7863,581.3697,271.8623,581.8022,281.9383,582.4319,292.0144,581.9142,302.0904,582.0682,312.1664,581.9681,322.2424,582.1785,332.3184,582.2391,342.3944,582.5857,352.4704,582.6711,362.5465,582.6793,372.6225,582.2546,382.6985,582.4636,392.7745,582.7022,402.8505,581.2788,412.9265,582.6785,423.0025,581.7035,433.0785,582.5338,443.1546,581.505,453.2306,581.9315,463.3066,582.7416,473.3826,581.9513,483.4586,582.1053,493.5346,582.3386,503.6106,582.4162,513.6867,581.9961,523.7627,582.2872,533.8387,581.4276,543.9147,582.2844,553.9907,582.5482,564.0667,582.4445,574.1427,582,584.2188,582,584.4231,580,584.0577,578,584.0014,576,584.0116,574,584.1991,572,584.2188,571.8035,584.2188,572.6814,574.1427,571.8253,564.0667,571.6569,553.9907,572.2283,543.9147,571.3332,533.8387,571.4809,523.7627,572.649,513.6867,572.4357,503.6106,572.7345,493.5346,571.6782,483.4586,572.3192,473.3826,572.5904,463.3066,571.5276,453.2306,571.9041,443.1546,572.126,433.0785,572.6518,423.0025,571.9958,412.9265,572.4626,402.8505,571.4462,392.7745,571.3227,382.6985,572.5036,372.6225,571.2831,362.5465,572.509,352.4704,572.2066,342.3944,571.7321,332.3184,571.6462,322.2424,572.4588,312.1664,571.7007,302.0904,572.5919,292.0144,571.4473,281.9383,572.6174,271.8623,572.4843,261.7863,572.245,251.7103,572.0472,241.6343,572.7266,231.5583,572.6136,221.4823,572,211.4063" style="stroke:#181818;stroke-width:1.0;"/><polygon fill="#FFFFFF" points="847.5,285.9688,847.5,286.0388,849.5,285.8306,851.5,286.0332,853.5,286.102,855.5,285.731,857.5,285.9688,857.4223,285.9688,857.0735,296.006,857.1165,306.0433,857.4318,316.0805,856.8086,326.1178,858.0536,336.155,856.8697,346.1923,857.3022,356.2296,857.9319,366.2668,857.4142,376.3041,857.5682,386.3413,857.4681,396.3786,857.6785,406.4159,857.7391,416.4531,858.0857,426.4904,858.1711,436.5276,858.1793,446.5649,857.7546,456.6022,857.9636,466.6394,858.2022,476.6767,856.7788,486.7139,858.1785,496.7512,857.2035,506.7885,858.0338,516.8257,857.005,526.863,857.4315,536.9002,857.5,546.9375,857.5,547.1847,855.5,546.9213,853.5,546.9726,851.5,547.0504,849.5,547.0762,847.5,546.9375,847.4961,546.9375,847.7872,536.9002,846.9276,526.863,847.7844,516.8257,848.0482,506.7885,847.9445,496.7512,848.113,486.7139,847.0169,476.6767,846.8478,466.6394,846.8786,456.6022,847.4411,446.5649,847.3035,436.5276,848.1814,426.4904,847.3253,416.4531,847.1569,406.4159,847.7283,396.3786,846.8332,386.3413,846.9809,376.3041,848.149,366.2668,847.9357,356.2296,848.2345,346.1923,847.1782,336.155,847.8192,326.1178,848.0904,316.0805,847.0276,306.0433,847.4041,296.006,847.5,285.9688" style="stroke:#181818;stroke-width:1.0;"/><polygon fill="#FFFFFF" points="1488,472.375,1488,472.4451,1490,472.2369,1492,472.4394,1494,472.5082,1496,472.1372,1498,472.375,1497.9741,472.375,1497.8578,479.8313,1497.8722,487.2875,1497.9773,494.7438,1497.7695,502.2,1498,509.6563,1498,509.8408,1496,509.4462,1494,509.5903,1492,509.8002,1490,509.6277,1488,509.6563,1488.0227,509.6563,1487.9894,502.2,1488.0595,494.7438,1488.0797,487.2875,1488.1952,479.8313,1488,472.375" style="stroke:#181818;stroke-width:1.0;"/><polygon fill="#181818" points="322,132.8438,322.026,132.9088,323.9487,133.5155,326.0239,134.5036,328.0495,135.3674,329.9117,135.823,332,136.8438,331.9904,136.8197,329.9472,137.5118,327.9525,138.3251,325.9916,139.2227,323.9144,139.8298,322,140.8438,322.1305,140.9742,322.6514,139.8952,323.5534,139.1971,324.5018,138.5456,325.1798,137.6235,326,136.8438,326.0161,136.8598,325.1925,136.0362,324.4421,135.2858,323.6564,134.5001,322.938,133.7818,322,132.8438" style="stroke:#181818;stroke-width:1.0;"/><path d="M41,136.8438 L41,137.124 L50.8966,136.2913 L60.7931,137.1015 L70.6897,137.3767 L80.5862,135.8926 L90.4828,136.7401 L100.3793,136.2751 L110.2759,136.3324 L120.1724,136.7529 L130.069,135.9219 L139.9655,137.5819 L149.8621,136.0034 L159.7586,136.5801 L169.6552,137.4197 L179.5517,136.7294 L189.4483,136.9347 L199.3448,136.8012 L209.2414,137.0818 L219.1379,137.1626 L229.0345,137.6247 L238.931,137.7385 L248.8276,137.7494 L258.7241,137.1833 L268.6207,137.4619 L278.5172,137.7801 L288.4138,135.8822 L298.3103,137.7484 L308.2069,136.4484 L318.1034,137.5555 L328,136.8438 " fill="none" style="stroke:#181818;stroke-width:1.0;stroke-dasharray:2.0,2.0;"/><text fill="#000000" font-family="FG Virgil" font-size="20" lengthAdjust="spacing" textLength="176" x="48" y="130.127">List System Users</text><polygon fill="#181818" points="565,170.125,565.026,170.19,566.9487,170.7968,569.0239,171.7848,571.0495,172.6487,572.9117,173.1042,575,174.125,574.9904,174.1009,572.9472,174.793,570.9525,175.6063,568.9916,176.5039,566.9144,177.111,565,178.125,565.1305,178.2555,565.6514,177.1764,566.5534,176.4784,567.5018,175.8268,568.1798,174.9048,569,174.125,569.0161,174.1411,568.1925,173.3175,567.4421,172.5671,566.6564,171.7814,565.938,171.063,565,170.125" style="stroke:#181818;stroke-width:1.0;"/><path d="M344,174.125 L344,174.4052 L353.8696,173.5726 L363.7391,174.3827 L373.6087,174.6579 L383.4783,173.1738 L393.3478,174.0214 L403.2174,173.5563 L413.087,173.6137 L422.9565,174.0341 L432.8261,173.2032 L442.6957,174.8632 L452.5652,173.2846 L462.4348,173.8613 L472.3043,174.7009 L482.1739,174.0106 L492.0435,174.216 L501.913,174.0824 L511.7826,174.363 L521.6522,174.4438 L531.5217,174.9059 L541.3913,175.0197 L551.2609,175.0307 L561.1304,174.4645 L571,174.125 " fill="none" style="stroke:#181818;stroke-width:1.0;"/><text fill="#000000" font-family="FG Virgil" font-size="20" lengthAdjust="spacing" textLength="79" x="351" y="167.4082">create()</text><polygon fill="#181818" points="560,207.4063,560.026,207.4713,561.9487,208.078,564.0239,209.0661,566.0495,209.9299,567.9117,210.3855,570,211.4063,569.9904,211.3822,567.9472,212.0743,565.9525,212.8876,563.9916,213.7852,561.9144,214.3923,560,215.4063,560.1305,215.5367,560.6514,214.4577,561.5534,213.7596,562.5018,213.1081,563.1798,212.186,564,211.4063,564.0161,211.4223,563.1925,210.5987,562.4421,209.8483,561.6564,209.0626,560.938,208.3443,560,207.4063" style="stroke:#181818;stroke-width:1.0;"/><path d="M344,211.4063 L344,211.6865 L354.0909,210.8538 L364.1818,211.664 L374.2727,211.9392 L384.3636,210.4551 L394.4545,211.3026 L404.5455,210.8376 L414.6364,210.8949 L424.7273,211.3154 L434.8182,210.4844 L444.9091,212.1444 L455,210.5659 L465.0909,211.1426 L475.1818,211.9822 L485.2727,211.2919 L495.3636,211.4972 L505.4545,211.3637 L515.5455,211.6443 L525.6364,211.7251 L535.7273,212.1872 L545.8182,212.301 L555.9091,212.3119 L566,211.4063 " fill="none" style="stroke:#181818;stroke-width:1.0;"/><text fill="#000000" font-family="FG Virgil" font-size="20" lengthAdjust="spacing" textLength="175" x="351" y="204.6895">listSystemUsers()</text><polygon fill="#181818" points="840.5,244.6875,840.526,244.7525,842.4487,245.3593,844.5239,246.3473,846.5495,247.2112,848.4117,247.6667,850.5,248.6875,850.4904,248.6634,848.4472,249.3555,846.4525,250.1688,844.4916,251.0664,842.4144,251.6735,840.5,252.6875,840.6305,252.818,841.1514,251.7389,842.0534,251.0409,843.0018,250.3893,843.6798,249.4673,844.5,248.6875,844.5161,248.7036,843.6925,247.88,842.9421,247.1296,842.1564,246.3439,841.438,245.6255,840.5,244.6875" style="stroke:#181818;stroke-width:1.0;"/><path d="M582,248.6875 L582,248.9677 L592.1731,248.1351 L602.3462,248.9452 L612.5192,249.2204 L622.6923,247.7363 L632.8654,248.5839 L643.0385,248.1188 L653.2115,248.1762 L663.3846,248.5966 L673.5577,247.7657 L683.7308,249.4257 L693.9038,247.8471 L704.0769,248.4238 L714.25,249.2634 L724.4231,248.5731 L734.5962,248.7785 L744.7692,248.6449 L754.9423,248.9255 L765.1154,249.0063 L775.2885,249.4684 L785.4615,249.5822 L795.6346,249.5932 L805.8077,249.027 L815.9808,249.3056 L826.1538,249.6238 L836.3269,247.7259 L846.5,248.6875 " fill="none" style="stroke:#181818;stroke-width:1.0;"/><text fill="#000000" font-family="FG Virgil" font-size="20" lengthAdjust="spacing" textLength="79" x="589" y="241.9707">create()</text><polygon fill="#181818" points="835.5,281.9688,835.526,282.0338,837.4487,282.6405,839.5239,283.6286,841.5495,284.4924,843.4117,284.948,845.5,285.9688,845.4904,285.9447,843.4472,286.6368,841.4525,287.4501,839.4916,288.3477,837.4144,288.9548,835.5,289.9688,835.6305,290.0992,836.1514,289.0202,837.0534,288.3221,838.0018,287.6706,838.6798,286.7485,839.5,285.9688,839.5161,285.9848,838.6925,285.1612,837.9421,284.4108,837.1564,283.6251,836.438,282.9068,835.5,281.9688" style="stroke:#181818;stroke-width:1.0;"/><path d="M582,285.9688 L582,286.249 L591.9808,285.4163 L601.9615,286.2265 L611.9423,286.5017 L621.9231,285.0176 L631.9038,285.8651 L641.8846,285.4001 L651.8654,285.4574 L661.8462,285.8779 L671.8269,285.0469 L681.8077,286.7069 L691.7885,285.1284 L701.7692,285.7051 L711.75,286.5447 L721.7308,285.8544 L731.7115,286.0597 L741.6923,285.9262 L751.6731,286.2068 L761.6538,286.2876 L771.6346,286.7497 L781.6154,286.8635 L791.5962,286.8744 L801.5769,286.3083 L811.5577,286.5869 L821.5385,286.9051 L831.5192,285.0072 L841.5,285.9688 " fill="none" style="stroke:#181818;stroke-width:1.0;stroke-dasharray:2.0,2.0;"/><text fill="#000000" font-family="FG Virgil" font-size="20" lengthAdjust="spacing" textLength="95" x="589" y="279.252">allUsers()</text><polygon fill="#181818" points="1080.5,319.25,1080.526,319.315,1082.4487,319.9218,1084.5239,320.9098,1086.5495,321.7737,1088.4117,322.2292,1090.5,323.25,1090.4904,323.2259,1088.4472,323.918,1086.4525,324.7313,1084.4916,325.6289,1082.4144,326.236,1080.5,327.25,1080.6305,327.3805,1081.1514,326.3014,1082.0534,325.6034,1083.0018,324.9518,1083.6798,324.0298,1084.5,323.25,1084.5161,323.2661,1083.6925,322.4425,1082.9421,321.6921,1082.1564,320.9064,1081.438,320.188,1080.5,319.25" style="stroke:#181818;stroke-width:1.0;"/><path d="M857.5,323.25 L857.5,323.5302 L867.4565,322.6976 L877.413,323.5077 L887.3696,323.7829 L897.3261,322.2988 L907.2826,323.1464 L917.2391,322.6813 L927.1957,322.7387 L937.1522,323.1591 L947.1087,322.3282 L957.0652,323.9882 L967.0217,322.4096 L976.9783,322.9863 L986.9348,323.8259 L996.8913,323.1356 L1006.8478,323.341 L1016.8043,323.2074 L1026.7609,323.488 L1036.7174,323.5688 L1046.6739,324.0309 L1056.6304,324.1447 L1066.587,324.1557 L1076.5435,323.5895 L1086.5,323.25 " fill="none" style="stroke:#181818;stroke-width:1.0;"/><text fill="#000000" font-family="FG Virgil" font-size="20" lengthAdjust="spacing" textLength="133" x="864.5" y="316.5332">repositories()</text><polygon fill="#181818" points="1295.5,356.5313,1295.526,356.5963,1297.4487,357.203,1299.5239,358.1911,1301.5495,359.0549,1303.4117,359.5105,1305.5,360.5313,1305.4904,360.5072,1303.4472,361.1993,1301.4525,362.0126,1299.4916,362.9102,1297.4144,363.5173,1295.5,364.5313,1295.6305,364.6617,1296.1514,363.5827,1297.0534,362.8846,1298.0018,362.2331,1298.6798,361.311,1299.5,360.5313,1299.5161,360.5473,1298.6925,359.7237,1297.9421,358.9733,1297.1564,358.1876,1296.438,357.4693,1295.5,356.5313" style="stroke:#181818;stroke-width:1.0;"/><path d="M1102.5,360.5313 L1102.5,360.8115 L1112.45,359.9788 L1122.4,360.789 L1132.35,361.0642 L1142.3,359.5801 L1152.25,360.4276 L1162.2,359.9626 L1172.15,360.0199 L1182.1,360.4404 L1192.05,359.6094 L1202,361.2694 L1211.95,359.6909 L1221.9,360.2676 L1231.85,361.1072 L1241.8,360.4169 L1251.75,360.6222 L1261.7,360.4887 L1271.65,360.7693 L1281.6,360.8501 L1291.55,361.3122 L1301.5,360.5313 " fill="none" style="stroke:#181818;stroke-width:1.0;"/><text fill="#000000" font-family="FG Virgil" font-size="20" lengthAdjust="spacing" textLength="79" x="1109.5" y="353.8145">create()</text><polygon fill="#181818" points="1295.5,393.8125,1295.526,393.8775,1297.4487,394.4843,1299.5239,395.4723,1301.5495,396.3362,1303.4117,396.7917,1305.5,397.8125,1305.4904,397.7884,1303.4472,398.4805,1301.4525,399.2938,1299.4916,400.1914,1297.4144,400.7985,1295.5,401.8125,1295.6305,401.943,1296.1514,400.8639,1297.0534,400.1659,1298.0018,399.5143,1298.6798,398.5923,1299.5,397.8125,1299.5161,397.8286,1298.6925,397.005,1297.9421,396.2546,1297.1564,395.4689,1296.438,394.7505,1295.5,393.8125" style="stroke:#181818;stroke-width:1.0;"/><path d="M1102.5,397.8125 L1102.5,398.0927 L1112.45,397.2601 L1122.4,398.0702 L1132.35,398.3454 L1142.3,396.8613 L1152.25,397.7089 L1162.2,397.2438 L1172.15,397.3012 L1182.1,397.7216 L1192.05,396.8907 L1202,398.5507 L1211.95,396.9721 L1221.9,397.5488 L1231.85,398.3884 L1241.8,397.6981 L1251.75,397.9035 L1261.7,397.7699 L1271.65,398.0505 L1281.6,398.1313 L1291.55,398.5934 L1301.5,397.8125 " fill="none" style="stroke:#181818;stroke-width:1.0;"/><text fill="#000000" font-family="FG Virgil" font-size="20" lengthAdjust="spacing" textLength="142" x="1109.5" y="391.0957">systemUsers()</text><polygon fill="#181818" points="1481,431.0938,1481.026,431.1588,1482.9487,431.7655,1485.0239,432.7536,1487.0495,433.6174,1488.9117,434.073,1491,435.0938,1490.9904,435.0697,1488.9472,435.7618,1486.9525,436.5751,1484.9916,437.4727,1482.9144,438.0798,1481,439.0938,1481.1305,439.2242,1481.6514,438.1452,1482.5534,437.4471,1483.5018,436.7956,1484.1798,435.8735,1485,435.0938,1485.0161,435.1098,1484.1925,434.2862,1483.4421,433.5358,1482.6564,432.7501,1481.938,432.0318,1481,431.0938" style="stroke:#181818;stroke-width:1.0;"/><path d="M1307.5,435.0938 L1307.5,435.374 L1317.4722,434.5413 L1327.4444,435.3515 L1337.4167,435.6267 L1347.3889,434.1426 L1357.3611,434.9901 L1367.3333,434.5251 L1377.3056,434.5824 L1387.2778,435.0029 L1397.25,434.1719 L1407.2222,435.8319 L1417.1944,434.2534 L1427.1667,434.8301 L1437.1389,435.6697 L1447.1111,434.9794 L1457.0833,435.1847 L1467.0556,435.0512 L1477.0278,435.3318 L1487,435.0938 " fill="none" style="stroke:#181818;stroke-width:1.0;"/><text fill="#000000" font-family="FG Virgil" font-size="20" lengthAdjust="spacing" textLength="79" x="1314.5" y="428.377">create()</text><polygon fill="#181818" points="1476,468.375,1476.026,468.44,1477.9487,469.0468,1480.0239,470.0348,1482.0495,470.8987,1483.9117,471.3542,1486,472.375,1485.9904,472.3509,1483.9472,473.043,1481.9525,473.8563,1479.9916,474.7539,1477.9144,475.361,1476,476.375,1476.1305,476.5055,1476.6514,475.4264,1477.5534,474.7284,1478.5018,474.0768,1479.1798,473.1548,1480,472.375,1480.0161,472.3911,1479.1925,471.5675,1478.4421,470.8171,1477.6564,470.0314,1476.938,469.313,1476,468.375" style="stroke:#181818;stroke-width:1.0;"/><path d="M857.5,472.375 L857.5,472.6552 L867.5726,471.8226 L877.6452,472.6327 L887.7177,472.9079 L897.7903,471.4238 L907.8629,472.2714 L917.9355,471.8063 L928.0081,471.8637 L938.0806,472.2841 L948.1532,471.4532 L958.2258,473.1132 L968.2984,471.5346 L978.371,472.1113 L988.4435,472.9509 L998.5161,472.2606 L1008.5887,472.466 L1018.6613,472.3324 L1028.7339,472.613 L1038.8065,472.6938 L1048.879,473.1559 L1058.9516,473.2697 L1069.0242,473.2807 L1079.0968,472.7145 L1089.1694,472.9931 L1099.2419,473.3113 L1109.3145,471.4134 L1119.3871,473.2797 L1129.4597,471.9797 L1139.5323,473.0867 L1149.6048,471.715 L1159.6774,472.2837 L1169.75,473.3638 L1179.8226,472.31 L1189.8952,472.5154 L1199.9677,472.8265 L1210.0403,472.93 L1220.1129,472.3698 L1230.1855,472.758 L1240.2581,471.6118 L1250.3306,472.7542 L1260.4032,473.1059 L1270.4758,472.9677 L1280.5484,473.1924 L1290.621,471.7309 L1300.6935,471.5054 L1310.7661,471.5465 L1320.8387,472.2965 L1330.9113,472.113 L1340.9839,473.2835 L1351.0565,472.1421 L1361.129,471.9176 L1371.2016,472.6794 L1381.2742,471.4859 L1391.3468,471.6828 L1401.4194,473.2403 L1411.4919,472.9559 L1421.5645,473.3543 L1431.6371,471.9459 L1441.7097,472.8006 L1451.7823,473.1622 L1461.8548,471.7451 L1471.9274,472.2472 L1482,472.375 " fill="none" style="stroke:#181818;stroke-width:1.0;"/><text fill="#000000" font-family="FG Virgil" font-size="20" lengthAdjust="spacing" textLength="95" x="864.5" y="465.6582">allUsers()</text><polygon fill="#181818" points="868.5,505.6563,868.526,505.7213,866.4487,506.328,864.5239,507.3161,862.5495,508.1799,860.4117,508.6355,858.5,509.6563,858.4904,509.6322,860.4472,510.3243,862.4525,511.1376,864.4916,512.0352,866.4144,512.6423,868.5,513.6563,868.6305,513.7867,867.5514,512.7077,866.8534,512.0096,866.2018,511.3581,865.2798,510.436,864.5,509.6563,864.5161,509.6723,865.2925,508.8487,866.1421,508.0983,866.9564,507.3126,867.838,506.5943,868.5,505.6563" style="stroke:#181818;stroke-width:1.0;"/><path d="M862.5,509.6563 L862.5,509.9365 L872.4921,509.1038 L882.4841,509.914 L892.4762,510.1892 L902.4683,508.7051 L912.4603,509.5526 L922.4524,509.0876 L932.4444,509.1449 L942.4365,509.5654 L952.4286,508.7344 L962.4206,510.3944 L972.4127,508.8159 L982.4048,509.3926 L992.3968,510.2322 L1002.3889,509.5419 L1012.381,509.7472 L1022.373,509.6137 L1032.3651,509.8943 L1042.3571,509.9751 L1052.3492,510.4372 L1062.3413,510.551 L1072.3333,510.5619 L1082.3254,509.9958 L1092.3175,510.2744 L1102.3095,510.5926 L1112.3016,508.6947 L1122.2937,510.5609 L1132.2857,509.2609 L1142.2778,510.368 L1152.2698,508.9962 L1162.2619,509.5649 L1172.254,510.6451 L1182.246,509.5913 L1192.2381,509.7967 L1202.2302,510.1078 L1212.2222,510.2112 L1222.2143,509.651 L1232.2063,510.0392 L1242.1984,508.893 L1252.1905,510.0354 L1262.1825,510.3872 L1272.1746,510.249 L1282.1667,510.4736 L1292.1587,509.0121 L1302.1508,508.7867 L1312.1429,508.8277 L1322.1349,509.5777 L1332.127,509.3942 L1342.119,510.5648 L1352.1111,509.4233 L1362.1032,509.1988 L1372.0952,509.9606 L1382.0873,508.7671 L1392.0794,508.9641 L1402.0714,510.5215 L1412.0635,510.2371 L1422.0556,510.6356 L1432.0476,509.2272 L1442.0397,510.0818 L1452.0317,510.4435 L1462.0238,509.0264 L1472.0159,509.5284 L1482.0079,509.8242 L1492,509.6563 " fill="none" style="stroke:#181818;stroke-width:1.0;stroke-dasharray:2.0,2.0;"/><text fill="#000000" font-family="FG Virgil" font-size="20" lengthAdjust="spacing" textLength="53" x="874.5" y="502.9395">users</text><polygon fill="#181818" points="593,542.9375,593.026,543.0025,590.9487,543.6093,589.0239,544.5973,587.0495,545.4612,584.9117,545.9167,583,546.9375,582.9904,546.9134,584.9472,547.6055,586.9525,548.4188,588.9916,549.3164,590.9144,549.9235,593,550.9375,593.1305,551.068,592.0514,549.9889,591.3534,549.2909,590.7018,548.6393,589.7798,547.7173,589,546.9375,589.0161,546.9536,589.7925,546.13,590.6421,545.3796,591.4564,544.5939,592.338,543.8755,593,542.9375" style="stroke:#181818;stroke-width:1.0;"/><path d="M587,546.9375 L587,547.2177 L597.1731,546.3851 L607.3462,547.1952 L617.5192,547.4704 L627.6923,545.9863 L637.8654,546.8339 L648.0385,546.3688 L658.2115,546.4262 L668.3846,546.8466 L678.5577,546.0157 L688.7308,547.6757 L698.9038,546.0971 L709.0769,546.6738 L719.25,547.5134 L729.4231,546.8231 L739.5962,547.0285 L749.7692,546.8949 L759.9423,547.1755 L770.1154,547.2563 L780.2885,547.7184 L790.4615,547.8322 L800.6346,547.8432 L810.8077,547.277 L820.9808,547.5556 L831.1538,547.8738 L841.3269,545.9759 L851.5,546.9375 " fill="none" style="stroke:#181818;stroke-width:1.0;stroke-dasharray:2.0,2.0;"/><text fill="#000000" font-family="FG Virgil" font-size="20" lengthAdjust="spacing" textLength="53" x="599" y="540.2207">users</text><polygon fill="#181818" points="355,580.2188,355.026,580.2838,352.9487,580.8905,351.0239,581.8786,349.0495,582.7424,346.9117,583.198,345,584.2188,344.9904,584.1947,346.9472,584.8868,348.9525,585.7001,350.9916,586.5977,352.9144,587.2048,355,588.2188,355.1305,588.3492,354.0514,587.2702,353.3534,586.5721,352.7018,585.9206,351.7798,584.9985,351,584.2188,351.0161,584.2348,351.7925,583.4112,352.6421,582.6608,353.4564,581.8751,354.338,581.1568,355,580.2188" style="stroke:#181818;stroke-width:1.0;"/><path d="M349,584.2188 L349,584.499 L358.8696,583.6663 L368.7391,584.4765 L378.6087,584.7517 L388.4783,583.2676 L398.3478,584.1151 L408.2174,583.6501 L418.087,583.7074 L427.9565,584.1279 L437.8261,583.2969 L447.6957,584.9569 L457.5652,583.3784 L467.4348,583.9551 L477.3043,584.7947 L487.1739,584.1044 L497.0435,584.3097 L506.913,584.1762 L516.7826,584.4568 L526.6522,584.5376 L536.5217,584.9997 L546.3913,585.1135 L556.2609,585.1244 L566.1304,584.5583 L576,584.2188 " fill="none" style="stroke:#181818;stroke-width:1.0;stroke-dasharray:2.0,2.0;"/><text fill="#000000" font-family="FG Virgil" font-size="20" lengthAdjust="spacing" textLength="53" x="361" y="577.502">users</text><polygon fill="#181818" points="52,617.5,52.026,617.565,49.9487,618.1718,48.0239,619.1598,46.0495,620.0237,43.9117,620.4792,42,621.5,41.9904,621.4759,43.9472,622.168,45.9525,622.9813,47.9916,623.8789,49.9144,624.486,52,625.5,52.1305,625.6305,51.0514,624.5514,50.3534,623.8534,49.7018,623.2018,48.7798,622.2798,48,621.5,48.0161,621.5161,48.7925,620.6925,49.6421,619.9421,50.4564,619.1564,51.338,618.438,52,617.5" style="stroke:#181818;stroke-width:1.0;"/><path d="M46,621.5 L46,621.7802 L56.069,620.9476 L66.1379,621.7577 L76.2069,622.0329 L86.2759,620.5488 L96.3448,621.3964 L106.4138,620.9313 L116.4828,620.9887 L126.5517,621.4091 L136.6207,620.5782 L146.6897,622.2382 L156.7586,620.6596 L166.8276,621.2363 L176.8966,622.0759 L186.9655,621.3856 L197.0345,621.591 L207.1034,621.4574 L217.1724,621.738 L227.2414,621.8188 L237.3103,622.2809 L247.3793,622.3947 L257.4483,622.4057 L267.5172,621.8395 L277.5862,622.1181 L287.6552,622.4363 L297.7241,620.5384 L307.7931,622.4047 L317.8621,621.1047 L327.931,622.2117 L338,621.5 " fill="none" style="stroke:#181818;stroke-width:1.0;stroke-dasharray:2.0,2.0;"/><text fill="#000000" font-family="FG Virgil" font-size="20" lengthAdjust="spacing" textLength="269" x="58" y="614.7832">displaySystemUsers(users)</text><!--SRC=[VLHDZzCm4BtxL_W6U-WMSOoiIYkaeag045Mv3ywqiUhOaJtT9VnwnccRJDF29Ph9Usy-taJ9HnSwID3wQ8zOwnhtSFAqZe6sxW_gZn_KkuQegvRBpaEWK-kVRMoN-QfxRgZrQanr0w5-Iuu8WwPqGW6rCKJRfDZY7Ed07k60M-ezweIM12Oc-WOiNN_MFrqwEDaqDr37DnSEUWy-er9WAIRzKhSkQCZwfQIAkUIiwtWD_SLbslQPiDrbJBjDOV7Jc2vXna10BeRLwZ-QJpnGYjvZAbgH6GDTvvrzLA88lqBWNLjkiiNqwYmM_JKq9f-ZcV0xfipjCLWihV0t5PLuMqQVifdw1tOnE_QWNm_Ez4Ly3OtPdoCMrK3m2p8EWqwgGXUPCMbCMAG6U_LYiM8Bgy4cVVPfA9FBDTmh45VTACKkCt7ogz8s8OFldnv0_iRop9onraHJIhZF1IvUYi8IbmJm_gxk1LJgUX8M29yhFUxky4OeI4h9ot21YzVLED4_y7opw-NjOZLvFrKGumduqKOJhAPG-d0QhbJZ8yNKPtQQEz5etCpjyatSaUNrojcPDtn5bQvTvZzDBwy-g9-aVBVv2m00]--></g></svg>