<?xml version="1.0" encoding="UTF-8" standalone="no"?><svg xmlns="http://www.w3.org/2000/svg" xmlns:xlink="http://www.w3.org/1999/xlink" contentStyleType="text/css" height="1195px" preserveAspectRatio="none" style="width:2096px;height:1195px;background:#FFFFFF;" version="1.1" viewBox="0 0 2096 1195" width="2096px" zoomAndPan="magnify"><defs/><g><rect fill="#FFFFFF" height="932.0313" style="stroke:#181818;stroke-width:1.0;" width="10" x="532" y="136.8438"/><rect fill="#FFFFFF" height="372.8125" style="stroke:#181818;stroke-width:1.0;" width="10" x="880" y="211.4063"/><rect fill="#FFFFFF" height="335.5313" style="stroke:#181818;stroke-width:1.0;" width="10" x="880" y="696.0625"/><rect fill="#FFFFFF" height="260.9688" style="stroke:#181818;stroke-width:1.0;" width="10" x="1228" y="285.9688"/><rect fill="#FFFFFF" height="260.9688" style="stroke:#181818;stroke-width:1.0;" width="10" x="1228" y="733.3438"/><rect fill="#FFFFFF" height="74.5625" style="stroke:#181818;stroke-width:1.0;" width="10" x="1473" y="323.25"/><rect fill="#FFFFFF" height="74.5625" style="stroke:#181818;stroke-width:1.0;" width="10" x="1473" y="770.625"/><rect fill="#FFFFFF" height="37.2813" style="stroke:#181818;stroke-width:1.0;" width="10" x="1683" y="397.8125"/><rect fill="#FFFFFF" height="37.2813" style="stroke:#181818;stroke-width:1.0;" width="10" x="1683" y="845.1875"/><rect fill="#FFFFFF" height="37.2813" style="stroke:#181818;stroke-width:1.0;" width="10" x="2011.5" y="472.375"/><rect fill="#FFFFFF" height="37.2813" style="stroke:#181818;stroke-width:1.0;" width="10" x="2011.5" y="919.75"/><line style="stroke:#181818;stroke-width:0.5;stroke-dasharray:5.0,5.0;" x1="41" x2="41" y1="97.5625" y2="1086.875"/><line style="stroke:#181818;stroke-width:0.5;stroke-dasharray:5.0,5.0;" x1="536.5" x2="536.5" y1="97.5625" y2="1086.875"/><line style="stroke:#181818;stroke-width:0.5;stroke-dasharray:5.0,5.0;" x1="884.5" x2="884.5" y1="97.5625" y2="1086.875"/><line style="stroke:#181818;stroke-width:0.5;stroke-dasharray:5.0,5.0;" x1="1233" x2="1233" y1="97.5625" y2="1086.875"/><line style="stroke:#181818;stroke-width:0.5;stroke-dasharray:5.0,5.0;" x1="1478" x2="1478" y1="97.5625" y2="1086.875"/><line style="stroke:#181818;stroke-width:0.5;stroke-dasharray:5.0,5.0;" x1="1688" x2="1688" y1="97.5625" y2="1086.875"/><line style="stroke:#181818;stroke-width:0.5;stroke-dasharray:5.0,5.0;" x1="1861" x2="1861" y1="97.5625" y2="1086.875"/><line style="stroke:#181818;stroke-width:0.5;stroke-dasharray:5.0,5.0;" x1="2016" x2="2016" y1="97.5625" y2="1086.875"/><text fill="#000000" font-family="FG Virgil" font-size="20" lengthAdjust="spacing" textLength="66" x="5" y="92.8457">Admin</text><ellipse cx="41" cy="22.7813" fill="#E3E3E3" rx="8" ry="8" style="stroke:#181818;stroke-width:0.5;"/><path d="M41,30.7813 L41,57.7813 M28,38.7813 L54,38.7813 M41,57.7813 L28,72.7813 M41,57.7813 L54,72.7813 " fill="none" style="stroke:#181818;stroke-width:0.5;"/><text fill="#000000" font-family="FG Virgil" font-size="20" lengthAdjust="spacing" textLength="66" x="5" y="1104.4395">Admin</text><ellipse cx="41" cy="1117.6563" fill="#E3E3E3" rx="8" ry="8" style="stroke:#181818;stroke-width:0.5;"/><path d="M41,1125.6563 L41,1152.6563 M28,1133.6563 L54,1133.6563 M41,1152.6563 L28,1167.6563 M41,1152.6563 L54,1167.6563 " fill="none" style="stroke:#181818;stroke-width:0.5;"/><rect fill="#E3E3E3" height="60.5625" rx="2.5" ry="2.5" style="stroke:#181818;stroke-width:0.5;" width="223" x="425.5" y="36"/><text fill="#000000" font-family="FG Virgil" font-size="20" font-style="italic" lengthAdjust="spacing" textLength="151" x="461.5" y="61.5645">«presentation»</text><text fill="#000000" font-family="FG Virgil" font-size="20" lengthAdjust="spacing" textLength="209" x="432.5" y="84.8457">EnableSystemUserUI</text><rect fill="#E3E3E3" height="60.5625" rx="2.5" ry="2.5" style="stroke:#181818;stroke-width:0.5;" width="223" x="425.5" y="1085.875"/><text fill="#000000" font-family="FG Virgil" font-size="20" font-style="italic" lengthAdjust="spacing" textLength="151" x="461.5" y="1111.4395">«presentation»</text><text fill="#000000" font-family="FG Virgil" font-size="20" lengthAdjust="spacing" textLength="209" x="432.5" y="1134.7207">EnableSystemUserUI</text><rect fill="#E3E3E3" height="60.5625" rx="2.5" ry="2.5" style="stroke:#181818;stroke-width:0.5;" width="301" x="734.5" y="36"/><text fill="#000000" font-family="FG Virgil" font-size="20" font-style="italic" lengthAdjust="spacing" textLength="136" x="817" y="61.5645">«application»</text><text fill="#000000" font-family="FG Virgil" font-size="20" lengthAdjust="spacing" textLength="287" x="741.5" y="84.8457">EnableSystemUserController</text><rect fill="#E3E3E3" height="60.5625" rx="2.5" ry="2.5" style="stroke:#181818;stroke-width:0.5;" width="301" x="734.5" y="1085.875"/><text fill="#000000" font-family="FG Virgil" font-size="20" font-style="italic" lengthAdjust="spacing" textLength="136" x="817" y="1111.4395">«application»</text><text fill="#000000" font-family="FG Virgil" font-size="20" lengthAdjust="spacing" textLength="287" x="741.5" y="1134.7207">EnableSystemUserController</text><rect fill="#E3E3E3" height="60.5625" rx="2.5" ry="2.5" style="stroke:#181818;stroke-width:0.5;" width="264" x="1101" y="36"/><text fill="#000000" font-family="FG Virgil" font-size="20" font-style="italic" lengthAdjust="spacing" textLength="95" x="1185.5" y="61.5645">«service»</text><text fill="#000000" font-family="FG Virgil" font-size="20" lengthAdjust="spacing" textLength="250" x="1108" y="84.8457">UserManagementService</text><rect fill="#E3E3E3" height="60.5625" rx="2.5" ry="2.5" style="stroke:#181818;stroke-width:0.5;" width="264" x="1101" y="1085.875"/><text fill="#000000" font-family="FG Virgil" font-size="20" font-style="italic" lengthAdjust="spacing" textLength="95" x="1185.5" y="1111.4395">«service»</text><text fill="#000000" font-family="FG Virgil" font-size="20" lengthAdjust="spacing" textLength="250" x="1108" y="1134.7207">UserManagementService</text><rect fill="#E3E3E3" height="60.5625" rx="2.5" ry="2.5" style="stroke:#181818;stroke-width:0.5;" width="206" x="1375" y="36"/><text fill="#000000" font-family="FG Virgil" font-size="20" font-style="italic" lengthAdjust="spacing" textLength="139" x="1408.5" y="61.5645">«persistence»</text><text fill="#000000" font-family="FG Virgil" font-size="20" lengthAdjust="spacing" textLength="192" x="1382" y="84.8457">PersistenceContext</text><rect fill="#E3E3E3" height="60.5625" rx="2.5" ry="2.5" style="stroke:#181818;stroke-width:0.5;" width="206" x="1375" y="1085.875"/><text fill="#000000" font-family="FG Virgil" font-size="20" font-style="italic" lengthAdjust="spacing" textLength="139" x="1408.5" y="1111.4395">«persistence»</text><text fill="#000000" font-family="FG Virgil" font-size="20" lengthAdjust="spacing" textLength="192" x="1382" y="1134.7207">PersistenceContext</text><rect fill="#E3E3E3" height="60.5625" rx="2.5" ry="2.5" style="stroke:#181818;stroke-width:0.5;" width="194" x="1591" y="36"/><text fill="#000000" font-family="FG Virgil" font-size="20" font-style="italic" lengthAdjust="spacing" textLength="94" x="1641" y="61.5645">«factory»</text><text fill="#000000" font-family="FG Virgil" font-size="20" lengthAdjust="spacing" textLength="180" x="1598" y="84.8457">RepositoryFactory</text><rect fill="#E3E3E3" height="60.5625" rx="2.5" ry="2.5" style="stroke:#181818;stroke-width:0.5;" width="194" x="1591" y="1085.875"/><text fill="#000000" font-family="FG Virgil" font-size="20" font-style="italic" lengthAdjust="spacing" textLength="94" x="1641" y="1111.4395">«factory»</text><text fill="#000000" font-family="FG Virgil" font-size="20" lengthAdjust="spacing" textLength="180" x="1598" y="1134.7207">RepositoryFactory</text><rect fill="#E3E3E3" height="60.5625" rx="2.5" ry="2.5" style="stroke:#181818;stroke-width:0.5;" width="133" x="1795" y="36"/><text fill="#000000" font-family="FG Virgil" font-size="20" font-style="italic" lengthAdjust="spacing" textLength="100" x="1811.5" y="61.5645">«domain»</text><text fill="#000000" font-family="FG Virgil" font-size="20" lengthAdjust="spacing" textLength="119" x="1802" y="84.8457">SystemUser</text><rect fill="#E3E3E3" height="60.5625" rx="2.5" ry="2.5" style="stroke:#181818;stroke-width:0.5;" width="133" x="1795" y="1085.875"/><text fill="#000000" font-family="FG Virgil" font-size="20" font-style="italic" lengthAdjust="spacing" textLength="100" x="1811.5" y="1111.4395">«domain»</text><text fill="#000000" font-family="FG Virgil" font-size="20" lengthAdjust="spacing" textLength="119" x="1802" y="1134.7207">SystemUser</text><text fill="#000000" font-family="FG Virgil" font-size="20" font-style="italic" lengthAdjust="spacing" textLength="125" x="1951" y="69.5645">«repository»</text><text fill="#000000" font-family="FG Virgil" font-size="20" lengthAdjust="spacing" textLength="151" x="1938" y="92.8457">UserRepository</text><path d="M1998.5,15 C1998.5,5 2016.5,5 2016.5,5 C2016.5,5 2034.5,5 2034.5,15 L2034.5,41 C2034.5,51 2016.5,51 2016.5,51 C2016.5,51 1998.5,51 1998.5,41 L1998.5,15 " fill="#E3E3E3" style="stroke:#181818;stroke-width:1.5;"/><path d="M1998.5,15 C1998.5,25 2016.5,25 2016.5,25 C2016.5,25 2034.5,25 2034.5,15 " fill="none" style="stroke:#181818;stroke-width:1.5;"/><text fill="#000000" font-family="FG Virgil" font-size="20" font-style="italic" lengthAdjust="spacing" textLength="125" x="1951" y="1104.4395">«repository»</text><text fill="#000000" font-family="FG Virgil" font-size="20" lengthAdjust="spacing" textLength="151" x="1938" y="1127.7207">UserRepository</text><path d="M1998.5,1142.4375 C1998.5,1132.4375 2016.5,1132.4375 2016.5,1132.4375 C2016.5,1132.4375 2034.5,1132.4375 2034.5,1142.4375 L2034.5,1168.4375 C2034.5,1178.4375 2016.5,1178.4375 2016.5,1178.4375 C2016.5,1178.4375 1998.5,1178.4375 1998.5,1168.4375 L1998.5,1142.4375 " fill="#E3E3E3" style="stroke:#181818;stroke-width:1.5;"/><path d="M1998.5,1142.4375 C1998.5,1152.4375 2016.5,1152.4375 2016.5,1152.4375 C2016.5,1152.4375 2034.5,1152.4375 2034.5,1142.4375 " fill="none" style="stroke:#181818;stroke-width:1.5;"/><rect fill="#FFFFFF" height="932.0313" style="stroke:#181818;stroke-width:1.0;" width="10" x="532" y="136.8438"/><rect fill="#FFFFFF" height="372.8125" style="stroke:#181818;stroke-width:1.0;" width="10" x="880" y="211.4063"/><rect fill="#FFFFFF" height="335.5313" style="stroke:#181818;stroke-width:1.0;" width="10" x="880" y="696.0625"/><rect fill="#FFFFFF" height="260.9688" style="stroke:#181818;stroke-width:1.0;" width="10" x="1228" y="285.9688"/><rect fill="#FFFFFF" height="260.9688" style="stroke:#181818;stroke-width:1.0;" width="10" x="1228" y="733.3438"/><rect fill="#FFFFFF" height="74.5625" style="stroke:#181818;stroke-width:1.0;" width="10" x="1473" y="323.25"/><rect fill="#FFFFFF" height="74.5625" style="stroke:#181818;stroke-width:1.0;" width="10" x="1473" y="770.625"/><rect fill="#FFFFFF" height="37.2813" style="stroke:#181818;stroke-width:1.0;" width="10" x="1683" y="397.8125"/><rect fill="#FFFFFF" height="37.2813" style="stroke:#181818;stroke-width:1.0;" width="10" x="1683" y="845.1875"/><rect fill="#FFFFFF" height="37.2813" style="stroke:#181818;stroke-width:1.0;" width="10" x="2011.5" y="472.375"/><rect fill="#FFFFFF" height="37.2813" style="stroke:#181818;stroke-width:1.0;" width="10" x="2011.5" y="919.75"/><polygon fill="#181818" points="520,132.8438,530,136.8438,520,140.8438,524,136.8438" style="stroke:#181818;stroke-width:1.0;"/><line style="stroke:#181818;stroke-width:1.0;" x1="41" x2="526" y1="136.8438" y2="136.8438"/><text fill="#000000" font-family="FG Virgil" font-size="20" lengthAdjust="spacing" textLength="194" x="48" y="130.127">enable system user</text><polygon fill="#181818" points="873,170.125,883,174.125,873,178.125,877,174.125" style="stroke:#181818;stroke-width:1.0;"/><line style="stroke:#181818;stroke-width:1.0;" x1="542" x2="879" y1="174.125" y2="174.125"/><text fill="#000000" font-family="FG Virgil" font-size="20" lengthAdjust="spacing" textLength="63" x="549" y="167.4082">create</text><polygon fill="#181818" points="868,207.4063,878,211.4063,868,215.4063,872,211.4063" style="stroke:#181818;stroke-width:1.0;"/><line style="stroke:#181818;stroke-width:1.0;" x1="542" x2="874" y1="211.4063" y2="211.4063"/><text fill="#000000" font-family="FG Virgil" font-size="20" lengthAdjust="spacing" textLength="165" x="549" y="204.6895">listSystemUser()</text><polygon fill="#181818" points="1221,244.6875,1231,248.6875,1221,252.6875,1225,248.6875" style="stroke:#181818;stroke-width:1.0;"/><line style="stroke:#181818;stroke-width:1.0;" x1="890" x2="1227" y1="248.6875" y2="248.6875"/><text fill="#000000" font-family="FG Virgil" font-size="20" lengthAdjust="spacing" textLength="79" x="897" y="241.9707">create()</text><polygon fill="#181818" points="1216,281.9688,1226,285.9688,1216,289.9688,1220,285.9688" style="stroke:#181818;stroke-width:1.0;"/><line style="stroke:#181818;stroke-width:1.0;stroke-dasharray:2.0,2.0;" x1="890" x2="1222" y1="285.9688" y2="285.9688"/><text fill="#000000" font-family="FG Virgil" font-size="20" lengthAdjust="spacing" textLength="189" x="897" y="279.252">deactivatedUsers()</text><polygon fill="#181818" points="1461,319.25,1471,323.25,1461,327.25,1465,323.25" style="stroke:#181818;stroke-width:1.0;"/><line style="stroke:#181818;stroke-width:1.0;" x1="1238" x2="1467" y1="323.25" y2="323.25"/><text fill="#000000" font-family="FG Virgil" font-size="20" lengthAdjust="spacing" textLength="133" x="1245" y="316.5332">repositories()</text><polygon fill="#181818" points="1676,356.5313,1686,360.5313,1676,364.5313,1680,360.5313" style="stroke:#181818;stroke-width:1.0;"/><line style="stroke:#181818;stroke-width:1.0;" x1="1483" x2="1682" y1="360.5313" y2="360.5313"/><text fill="#000000" font-family="FG Virgil" font-size="20" lengthAdjust="spacing" textLength="79" x="1490" y="353.8145">create()</text><polygon fill="#181818" points="1671,393.8125,1681,397.8125,1671,401.8125,1675,397.8125" style="stroke:#181818;stroke-width:1.0;"/><line style="stroke:#181818;stroke-width:1.0;" x1="1478" x2="1677" y1="397.8125" y2="397.8125"/><text fill="#000000" font-family="FG Virgil" font-size="20" lengthAdjust="spacing" textLength="142" x="1485" y="391.0957">systemUsers()</text><polygon fill="#181818" points="2004.5,431.0938,2014.5,435.0938,2004.5,439.0938,2008.5,435.0938" style="stroke:#181818;stroke-width:1.0;"/><line style="stroke:#181818;stroke-width:1.0;" x1="1688" x2="2010.5" y1="435.0938" y2="435.0938"/><text fill="#000000" font-family="FG Virgil" font-size="20" lengthAdjust="spacing" textLength="79" x="1695" y="428.377">create()</text><polygon fill="#181818" points="1999.5,468.375,2009.5,472.375,1999.5,476.375,2003.5,472.375" style="stroke:#181818;stroke-width:1.0;"/><line style="stroke:#181818;stroke-width:1.0;" x1="1238" x2="2005.5" y1="472.375" y2="472.375"/><text fill="#000000" font-family="FG Virgil" font-size="20" lengthAdjust="spacing" textLength="189" x="1245" y="465.6582">deactivatedUsers()</text><polygon fill="#181818" points="1249,505.6563,1239,509.6563,1249,513.6563,1245,509.6563" style="stroke:#181818;stroke-width:1.0;"/><line style="stroke:#181818;stroke-width:1.0;stroke-dasharray:2.0,2.0;" x1="1243" x2="2015.5" y1="509.6563" y2="509.6563"/><text fill="#000000" font-family="FG Virgil" font-size="20" lengthAdjust="spacing" textLength="53" x="1255" y="502.9395">users</text><polygon fill="#181818" points="901,542.9375,891,546.9375,901,550.9375,897,546.9375" style="stroke:#181818;stroke-width:1.0;"/><line style="stroke:#181818;stroke-width:1.0;stroke-dasharray:2.0,2.0;" x1="895" x2="1232" y1="546.9375" y2="546.9375"/><text fill="#000000" font-family="FG Virgil" font-size="20" lengthAdjust="spacing" textLength="53" x="907" y="540.2207">users</text><polygon fill="#181818" points="553,580.2188,543,584.2188,553,588.2188,549,584.2188" style="stroke:#181818;stroke-width:1.0;"/><line style="stroke:#181818;stroke-width:1.0;stroke-dasharray:2.0,2.0;" x1="547" x2="884" y1="584.2188" y2="584.2188"/><text fill="#000000" font-family="FG Virgil" font-size="20" lengthAdjust="spacing" textLength="53" x="559" y="577.502">users</text><polygon fill="#181818" points="52,617.5,42,621.5,52,625.5,48,621.5" style="stroke:#181818;stroke-width:1.0;"/><line style="stroke:#181818;stroke-width:1.0;stroke-dasharray:2.0,2.0;" x1="46" x2="531" y1="621.5" y2="621.5"/><text fill="#000000" font-family="FG Virgil" font-size="20" lengthAdjust="spacing" textLength="467" x="58" y="614.7832">show list of system users and ask to select one</text><polygon fill="#181818" points="520,654.7813,530,658.7813,520,662.7813,524,658.7813" style="stroke:#181818;stroke-width:1.0;"/><line style="stroke:#181818;stroke-width:1.0;" x1="41" x2="526" y1="658.7813" y2="658.7813"/><text fill="#000000" font-family="FG Virgil" font-size="20" lengthAdjust="spacing" textLength="185" x="48" y="652.0645">select system user</text><polygon fill="#181818" points="868,692.0625,878,696.0625,868,700.0625,872,696.0625" style="stroke:#181818;stroke-width:1.0;"/><line style="stroke:#181818;stroke-width:1.0;" x1="542" x2="874" y1="696.0625" y2="696.0625"/><text fill="#000000" font-family="FG Virgil" font-size="20" lengthAdjust="spacing" textLength="319" x="549" y="689.3457">enableSystemUser(systemUser)</text><polygon fill="#181818" points="1216,729.3438,1226,733.3438,1216,737.3438,1220,733.3438" style="stroke:#181818;stroke-width:1.0;"/><line style="stroke:#181818;stroke-width:1.0;" x1="890" x2="1222" y1="733.3438" y2="733.3438"/><text fill="#000000" font-family="FG Virgil" font-size="20" lengthAdjust="spacing" textLength="319" x="897" y="726.627">enableSystemUser(systemUser)</text><polygon fill="#181818" points="1461,766.625,1471,770.625,1461,774.625,1465,770.625" style="stroke:#181818;stroke-width:1.0;"/><line style="stroke:#181818;stroke-width:1.0;" x1="1238" x2="1467" y1="770.625" y2="770.625"/><text fill="#000000" font-family="FG Virgil" font-size="20" lengthAdjust="spacing" textLength="133" x="1245" y="763.9082">repositories()</text><polygon fill="#181818" points="1676,803.9063,1686,807.9063,1676,811.9063,1680,807.9063" style="stroke:#181818;stroke-width:1.0;"/><line style="stroke:#181818;stroke-width:1.0;" x1="1483" x2="1682" y1="807.9063" y2="807.9063"/><text fill="#000000" font-family="FG Virgil" font-size="20" lengthAdjust="spacing" textLength="79" x="1490" y="801.1895">create()</text><polygon fill="#181818" points="1671,841.1875,1681,845.1875,1671,849.1875,1675,845.1875" style="stroke:#181818;stroke-width:1.0;"/><line style="stroke:#181818;stroke-width:1.0;" x1="1478" x2="1677" y1="845.1875" y2="845.1875"/><text fill="#000000" font-family="FG Virgil" font-size="20" lengthAdjust="spacing" textLength="142" x="1485" y="838.4707">systemUsers()</text><polygon fill="#181818" points="2004.5,878.4688,2014.5,882.4688,2004.5,886.4688,2008.5,882.4688" style="stroke:#181818;stroke-width:1.0;"/><line style="stroke:#181818;stroke-width:1.0;" x1="1688" x2="2010.5" y1="882.4688" y2="882.4688"/><text fill="#000000" font-family="FG Virgil" font-size="20" lengthAdjust="spacing" textLength="79" x="1695" y="875.752">create()</text><polygon fill="#181818" points="1999.5,915.75,2009.5,919.75,1999.5,923.75,2003.5,919.75" style="stroke:#181818;stroke-width:1.0;"/><line style="stroke:#181818;stroke-width:1.0;" x1="1238" x2="2005.5" y1="919.75" y2="919.75"/><text fill="#000000" font-family="FG Virgil" font-size="20" lengthAdjust="spacing" textLength="177" x="1245" y="913.0332">save(systemUser)</text><polygon fill="#181818" points="1249,953.0313,1239,957.0313,1249,961.0313,1245,957.0313" style="stroke:#181818;stroke-width:1.0;"/><line style="stroke:#181818;stroke-width:1.0;stroke-dasharray:2.0,2.0;" x1="1243" x2="2015.5" y1="957.0313" y2="957.0313"/><text fill="#000000" font-family="FG Virgil" font-size="20" lengthAdjust="spacing" textLength="116" x="1255" y="950.3145">systemUser</text><polygon fill="#181818" points="901,990.3125,891,994.3125,901,998.3125,897,994.3125" style="stroke:#181818;stroke-width:1.0;"/><line style="stroke:#181818;stroke-width:1.0;stroke-dasharray:2.0,2.0;" x1="895" x2="1232" y1="994.3125" y2="994.3125"/><text fill="#000000" font-family="FG Virgil" font-size="20" lengthAdjust="spacing" textLength="116" x="907" y="987.5957">systemUser</text><polygon fill="#181818" points="553,1027.5938,543,1031.5938,553,1035.5938,549,1031.5938" style="stroke:#181818;stroke-width:1.0;"/><line style="stroke:#181818;stroke-width:1.0;stroke-dasharray:2.0,2.0;" x1="547" x2="884" y1="1031.5938" y2="1031.5938"/><text fill="#000000" font-family="FG Virgil" font-size="20" lengthAdjust="spacing" textLength="116" x="559" y="1024.877">systemUser</text><polygon fill="#181818" points="52,1064.875,42,1068.875,52,1072.875,48,1068.875" style="stroke:#181818;stroke-width:1.0;"/><line style="stroke:#181818;stroke-width:1.0;" x1="46" x2="536" y1="1068.875" y2="1068.875"/><text fill="#000000" font-family="FG Virgil" font-size="20" lengthAdjust="spacing" textLength="230" x="58" y="1062.1582">show success message</text><!--SRC=[pLLDZzem4BtxLynjjuTTgXuZ2sbLbOf3gwg8thtE01R-Y6m3fR- -usmIcsnWM_NII_1uvhtvUZ9XhsmZl33QoJtMKED677HSE1jNwXV2X_ViRXTZKyrcZHOs7en-bCxCGezxt4MZsTrWmqxO-kHLZ6WX-WEox3BEEhdppk3OqmYv5rjSnRD6y2XZuIjA-Ye8klWCFvJVAbt4X9setKdPBMo43iYOaD5vUAgDiY02F2MJKMnKKZNK1tooubdZwXmYcdL0lrwcEFfotdWCQAE8ojdv_2Rg8nNbdTRe4xgmE1TDevMS8ad0By9IluRIhD0VbSI4xu-SXvVJ2FWDVL2KsafCgV1dJAZYDXMVhH7wEpOkA9h3UT5Evvp0_P7ppSjf1CgjjWLcY_FQ6Q5IRxM8uba4R1lBMHAWi3ZtWq4WnjgTmCESXbu1jeE5q2Q00n6b5QgZY4IxPBGN2ipphK1w9D-4GrFtkSxxTvadHx5YKmJlvjwJ4gRqbm4rzcnrOWybVHV4MBz60XQxgM3eN-45i0XYhDmc4NJxgORAhlZ3q76YpcLUa0-N7Ofrlm_plAUSgI3fuylM2iYjgUGmbe_bJDEkGvciGEHyeoM_0Wt37sqkQUjLS264zJ95jLAiw1LnfrO_u3Qb50FGcqPotaDq453J-mJEugM2k_jImHFgnD43SfyNzrTA_JEUVYh_eiZ_Mf3JUWpYYDC3ULED6NL5ajSKEGsy9Sjfn8KsOQJDS90IGm137_hxA77hvMy0]--></g></svg>