<?xml version="1.0" encoding="UTF-8" standalone="no"?><svg xmlns="http://www.w3.org/2000/svg" xmlns:xlink="http://www.w3.org/1999/xlink" contentStyleType="text/css" height="767px" preserveAspectRatio="none" style="width:3392px;height:767px;background:#FFFFFF;" version="1.1" viewBox="0 0 3392 767" width="3392px" zoomAndPan="magnify"><defs/><g><text fill="#000000" font-family="sans-serif" font-size="14" font-weight="bold" lengthAdjust="spacing" textLength="108" x="1635" y="22.9951">Register User</text><!--cluster repositories--><g id="cluster_repositories"><path d="M8.5,426.0137 L147.5,426.0137 A3.75,3.75 0 0 1 150,428.5137 L157,455.2949 L806.5,455.2949 A2.5,2.5 0 0 1 809,457.7949 L809,554.5137 A2.5,2.5 0 0 1 806.5,557.0137 L8.5,557.0137 A2.5,2.5 0 0 1 6,554.5137 L6,428.5137 A2.5,2.5 0 0 1 8.5,426.0137 " fill="none" style="stroke:#000000;stroke-width:1.5;"/><line style="stroke:#000000;stroke-width:1.5;" x1="6" x2="157" y1="455.2949" y2="455.2949"/><text fill="#000000" font-family="sans-serif" font-size="20" font-weight="bold" lengthAdjust="spacing" textLength="138" x="10" y="446.5781">repositories</text></g><!--cluster infraestructure.persistence--><g id="cluster_infraestructure.persistence"><path d="M3013.5,212.0137 L3329.5,212.0137 A3.75,3.75 0 0 1 3332,214.5137 L3339,241.2949 L3382.5,241.2949 A2.5,2.5 0 0 1 3385,243.7949 L3385,578.0137 A2.5,2.5 0 0 1 3382.5,580.5137 L3013.5,580.5137 A2.5,2.5 0 0 1 3011,578.0137 L3011,214.5137 A2.5,2.5 0 0 1 3013.5,212.0137 " fill="none" style="stroke:#000000;stroke-width:1.5;"/><line style="stroke:#000000;stroke-width:1.5;" x1="3011" x2="3339" y1="241.2949" y2="241.2949"/><text fill="#000000" font-family="sans-serif" font-size="20" font-weight="bold" lengthAdjust="spacing" textLength="315" x="3015" y="232.5781">infraestructure.persistence</text></g><!--cluster service--><g id="cluster_service"><path d="M835.5,44.5137 L918.5,44.5137 A3.75,3.75 0 0 1 921,47.0137 L928,73.7949 L2984.5,73.7949 A2.5,2.5 0 0 1 2987,76.2949 L2987,758.0137 A2.5,2.5 0 0 1 2984.5,760.5137 L835.5,760.5137 A2.5,2.5 0 0 1 833,758.0137 L833,47.0137 A2.5,2.5 0 0 1 835.5,44.5137 " fill="none" style="stroke:#000000;stroke-width:1.5;"/><line style="stroke:#000000;stroke-width:1.5;" x1="833" x2="928" y1="73.7949" y2="73.7949"/><text fill="#000000" font-family="sans-serif" font-size="20" font-weight="bold" lengthAdjust="spacing" textLength="82" x="837" y="65.0781">service</text></g><!--cluster builder--><g id="cluster_builder"><path d="M1130.5,379.5137 L1211.5,379.5137 A3.75,3.75 0 0 1 1214,382.0137 L1221,408.7949 L2128.5,408.7949 A2.5,2.5 0 0 1 2131,411.2949 L2131,601.0137 A2.5,2.5 0 0 1 2128.5,603.5137 L1130.5,603.5137 A2.5,2.5 0 0 1 1128,601.0137 L1128,382.0137 A2.5,2.5 0 0 1 1130.5,379.5137 " fill="none" style="stroke:#000000;stroke-width:1.5;"/><line style="stroke:#000000;stroke-width:1.5;" x1="1128" x2="1221" y1="408.7949" y2="408.7949"/><text fill="#000000" font-family="sans-serif" font-size="20" font-weight="bold" lengthAdjust="spacing" textLength="80" x="1132" y="400.0781">builder</text></g><!--class UserRepository--><g id="elem_UserRepository"><rect codeLine="9" fill="#F1F1F1" height="73.2813" id="UserRepository" rx="2.5" ry="2.5" style="stroke:#181818;stroke-width:0.5;" width="259" x="22.5" y="468.0137"/><ellipse cx="71.5" cy="485.0137" fill="#B4A7E5" rx="12" ry="12" style="stroke:#181818;stroke-width:1.0;"/><path d="M66.6875,480.4668 L66.6875,477.9355 L75.3594,477.9355 L75.3594,480.4668 L72.4688,480.4668 L72.4688,489.9668 L75.3594,489.9668 L75.3594,492.5137 L66.6875,492.5137 L66.6875,489.9668 L69.5781,489.9668 L69.5781,480.4668 L66.6875,480.4668 Z " fill="#000000"/><text fill="#000000" font-family="sans-serif" font-size="20" font-style="italic" lengthAdjust="spacing" textLength="152" x="93.5" y="491.9375">UserRepository</text><line style="stroke:#181818;stroke-width:0.5;" x1="23.5" x2="280.5" y1="502.0137" y2="502.0137"/><line style="stroke:#181818;stroke-width:0.5;" x1="23.5" x2="280.5" y1="510.0137" y2="510.0137"/><ellipse cx="33.5" cy="527.1543" fill="#84BE84" rx="3" ry="3" style="stroke:#038048;stroke-width:1.0;"/><text fill="#000000" font-family="sans-serif" font-size="20" lengthAdjust="spacing" textLength="232" x="43.5" y="532.5781">save(systemUser): void</text></g><!--class StudentRepository--><g id="elem_StudentRepository"><rect codeLine="12" fill="#F1F1F1" height="73.2813" id="StudentRepository" rx="2.5" ry="2.5" style="stroke:#181818;stroke-width:0.5;" width="221" x="316.5" y="468.0137"/><ellipse cx="332.5" cy="485.0137" fill="#B4A7E5" rx="12" ry="12" style="stroke:#181818;stroke-width:1.0;"/><path d="M327.6875,480.4668 L327.6875,477.9355 L336.3594,477.9355 L336.3594,480.4668 L333.4688,480.4668 L333.4688,489.9668 L336.3594,489.9668 L336.3594,492.5137 L327.6875,492.5137 L327.6875,489.9668 L330.5781,489.9668 L330.5781,480.4668 L327.6875,480.4668 Z " fill="#000000"/><text fill="#000000" font-family="sans-serif" font-size="20" font-style="italic" lengthAdjust="spacing" textLength="187" x="347.5" y="491.9375">StudentRepository</text><line style="stroke:#181818;stroke-width:0.5;" x1="317.5" x2="536.5" y1="502.0137" y2="502.0137"/><line style="stroke:#181818;stroke-width:0.5;" x1="317.5" x2="536.5" y1="510.0137" y2="510.0137"/><ellipse cx="327.5" cy="527.1543" fill="#84BE84" rx="3" ry="3" style="stroke:#038048;stroke-width:1.0;"/><text fill="#000000" font-family="sans-serif" font-size="20" lengthAdjust="spacing" textLength="193" x="337.5" y="532.5781">save(student): void</text></g><!--class TeacherRepository--><g id="elem_TeacherRepository"><rect codeLine="15" fill="#F1F1F1" height="73.2813" id="TeacherRepository" rx="2.5" ry="2.5" style="stroke:#181818;stroke-width:0.5;" width="221" x="572.5" y="468.0137"/><ellipse cx="588.5" cy="485.0137" fill="#B4A7E5" rx="12" ry="12" style="stroke:#181818;stroke-width:1.0;"/><path d="M583.6875,480.4668 L583.6875,477.9355 L592.3594,477.9355 L592.3594,480.4668 L589.4688,480.4668 L589.4688,489.9668 L592.3594,489.9668 L592.3594,492.5137 L583.6875,492.5137 L583.6875,489.9668 L586.5781,489.9668 L586.5781,480.4668 L583.6875,480.4668 Z " fill="#000000"/><text fill="#000000" font-family="sans-serif" font-size="20" font-style="italic" lengthAdjust="spacing" textLength="187" x="603.5" y="491.9375">TeacherRepository</text><line style="stroke:#181818;stroke-width:0.5;" x1="573.5" x2="792.5" y1="502.0137" y2="502.0137"/><line style="stroke:#181818;stroke-width:0.5;" x1="573.5" x2="792.5" y1="510.0137" y2="510.0137"/><ellipse cx="583.5" cy="527.1543" fill="#84BE84" rx="3" ry="3" style="stroke:#038048;stroke-width:1.0;"/><text fill="#000000" font-family="sans-serif" font-size="20" lengthAdjust="spacing" textLength="186" x="593.5" y="532.5781">save(teacher):void</text></g><!--class PersistenceContext--><g id="elem_PersistenceContext"><rect codeLine="21" fill="#F1F1F1" height="73.2813" id="PersistenceContext" rx="2.5" ry="2.5" style="stroke:#181818;stroke-width:0.5;" width="343" x="3026.5" y="254.0137"/><ellipse cx="3097.5" cy="271.0137" fill="#ADD1B2" rx="12" ry="12" style="stroke:#181818;stroke-width:1.0;"/><path d="M3100.5625,278.0918 Q3099.875,278.4512 3099.125,278.623 Q3098.375,278.7949 3097.5469,278.7949 Q3094.5938,278.7949 3093.0313,276.8574 Q3091.4844,274.9043 3091.4844,271.2324 Q3091.4844,267.5605 3093.0313,265.623 Q3094.5938,263.6699 3097.5469,263.6699 Q3098.375,263.6699 3099.125,263.8418 Q3099.8906,264.0137 3100.5625,264.373 L3100.5625,267.5762 Q3099.8125,266.8887 3099.1094,266.5762 Q3098.4219,266.2637 3097.6719,266.2637 Q3096.0938,266.2637 3095.2813,267.5137 Q3094.4844,268.7637 3094.4844,271.2324 Q3094.4844,273.7012 3095.2813,274.9512 Q3096.0938,276.2012 3097.6719,276.2012 Q3098.4219,276.2012 3099.1094,275.8887 Q3099.8125,275.5762 3100.5625,274.8887 L3100.5625,278.0918 Z " fill="#000000"/><text fill="#000000" font-family="sans-serif" font-size="20" lengthAdjust="spacing" textLength="192" x="3119.5" y="277.9375">PersistenceContext</text><line style="stroke:#181818;stroke-width:0.5;" x1="3027.5" x2="3368.5" y1="288.0137" y2="288.0137"/><ellipse cx="3037.5" cy="305.1543" fill="none" rx="3" ry="3" style="stroke:#038048;stroke-width:1.0;"/><text fill="#000000" font-family="sans-serif" font-size="20" lengthAdjust="spacing" textLength="316" x="3047.5" y="310.5781">repositories : RepositoryFactory</text><line style="stroke:#181818;stroke-width:0.5;" x1="3027.5" x2="3368.5" y1="319.2949" y2="319.2949"/></g><!--class RepositoryFactory--><g id="elem_RepositoryFactory"><rect codeLine="25" fill="#F1F1F1" height="119.8438" id="RepositoryFactory" rx="2.5" ry="2.5" style="stroke:#181818;stroke-width:0.5;" width="339" x="3027.5" y="444.5137"/><ellipse cx="3101.5" cy="461.5137" fill="#B4A7E5" rx="12" ry="12" style="stroke:#181818;stroke-width:1.0;"/><path d="M3096.6875,456.9668 L3096.6875,454.4355 L3105.3594,454.4355 L3105.3594,456.9668 L3102.4688,456.9668 L3102.4688,466.4668 L3105.3594,466.4668 L3105.3594,469.0137 L3096.6875,469.0137 L3096.6875,466.4668 L3099.5781,466.4668 L3099.5781,456.9668 L3096.6875,456.9668 Z " fill="#000000"/><text fill="#000000" font-family="sans-serif" font-size="20" font-style="italic" lengthAdjust="spacing" textLength="182" x="3123.5" y="468.4375">RepositoryFactory</text><line style="stroke:#181818;stroke-width:0.5;" x1="3028.5" x2="3365.5" y1="478.5137" y2="478.5137"/><line style="stroke:#181818;stroke-width:0.5;" x1="3028.5" x2="3365.5" y1="486.5137" y2="486.5137"/><ellipse cx="3038.5" cy="503.6543" fill="#84BE84" rx="3" ry="3" style="stroke:#038048;stroke-width:1.0;"/><text fill="#000000" font-family="sans-serif" font-size="20" lengthAdjust="spacing" textLength="312" x="3048.5" y="509.0781">systemUsers() : UserRepository</text><ellipse cx="3038.5" cy="526.9355" fill="#84BE84" rx="3" ry="3" style="stroke:#038048;stroke-width:1.0;"/><text fill="#000000" font-family="sans-serif" font-size="20" lengthAdjust="spacing" textLength="308" x="3048.5" y="532.3594">students() : StudentRepository</text><ellipse cx="3038.5" cy="550.2168" fill="#84BE84" rx="3" ry="3" style="stroke:#038048;stroke-width:1.0;"/><text fill="#000000" font-family="sans-serif" font-size="20" lengthAdjust="spacing" textLength="301" x="3048.5" y="555.6406">teachers(): TeacherRepository</text></g><!--class UserManagementService--><g id="elem_UserManagementService"><rect codeLine="32" fill="#F1F1F1" height="73.2813" id="UserManagementService" rx="2.5" ry="2.5" style="stroke:#181818;stroke-width:0.5;" width="821" x="2150.5" y="468.0137"/><ellipse cx="2431" cy="485.0137" fill="#B4A7E5" rx="12" ry="12" style="stroke:#181818;stroke-width:1.0;"/><path d="M2426.1875,480.4668 L2426.1875,477.9355 L2434.8594,477.9355 L2434.8594,480.4668 L2431.9688,480.4668 L2431.9688,489.9668 L2434.8594,489.9668 L2434.8594,492.5137 L2426.1875,492.5137 L2426.1875,489.9668 L2429.0781,489.9668 L2429.0781,480.4668 L2426.1875,480.4668 Z " fill="#000000"/><text fill="#000000" font-family="sans-serif" font-size="20" font-style="italic" lengthAdjust="spacing" textLength="251" x="2453" y="491.9375">UserManagementService</text><line style="stroke:#181818;stroke-width:0.5;" x1="2151.5" x2="2970.5" y1="502.0137" y2="502.0137"/><line style="stroke:#181818;stroke-width:0.5;" x1="2151.5" x2="2970.5" y1="510.0137" y2="510.0137"/><ellipse cx="2161.5" cy="527.1543" fill="#84BE84" rx="3" ry="3" style="stroke:#038048;stroke-width:1.0;"/><text fill="#000000" font-family="sans-serif" font-size="20" lengthAdjust="spacing" textLength="794" x="2171.5" y="532.5781">registerUser(username,password, firstName,lastName,email, role): SystemUser</text></g><!--class SystemUser--><g id="elem_SystemUser"><rect codeLine="52" fill="#F1F1F1" height="73.2813" id="SystemUser" rx="2.5" ry="2.5" style="stroke:#181818;stroke-width:0.5;" width="636" x="849" y="254.0137"/><ellipse cx="1103" cy="271.0137" fill="#ADD1B2" rx="12" ry="12" style="stroke:#181818;stroke-width:1.0;"/><path d="M1106.0625,278.0918 Q1105.375,278.4512 1104.625,278.623 Q1103.875,278.7949 1103.0469,278.7949 Q1100.0938,278.7949 1098.5313,276.8574 Q1096.9844,274.9043 1096.9844,271.2324 Q1096.9844,267.5605 1098.5313,265.623 Q1100.0938,263.6699 1103.0469,263.6699 Q1103.875,263.6699 1104.625,263.8418 Q1105.3906,264.0137 1106.0625,264.373 L1106.0625,267.5762 Q1105.3125,266.8887 1104.6094,266.5762 Q1103.9219,266.2637 1103.1719,266.2637 Q1101.5938,266.2637 1100.7813,267.5137 Q1099.9844,268.7637 1099.9844,271.2324 Q1099.9844,273.7012 1100.7813,274.9512 Q1101.5938,276.2012 1103.1719,276.2012 Q1103.9219,276.2012 1104.6094,275.8887 Q1105.3125,275.5762 1106.0625,274.8887 L1106.0625,278.0918 Z " fill="#000000"/><text fill="#000000" font-family="sans-serif" font-size="20" lengthAdjust="spacing" textLength="119" x="1125" y="277.9375">SystemUser</text><line style="stroke:#181818;stroke-width:0.5;" x1="850" x2="1484" y1="288.0137" y2="288.0137"/><line style="stroke:#181818;stroke-width:0.5;" x1="850" x2="1484" y1="296.0137" y2="296.0137"/><ellipse cx="860" cy="313.1543" fill="#84BE84" rx="3" ry="3" style="stroke:#038048;stroke-width:1.0;"/><text fill="#000000" font-family="sans-serif" font-size="20" lengthAdjust="spacing" textLength="609" x="870" y="318.5781">create (username,password, firstName,lastName,email, role)</text></g><!--class Student--><g id="elem_Student"><rect codeLine="55" fill="#F1F1F1" height="96.5625" id="Student" rx="2.5" ry="2.5" style="stroke:#181818;stroke-width:0.5;" width="993" x="849.5" y="647.5137"/><ellipse cx="1301.5" cy="664.5137" fill="#ADD1B2" rx="12" ry="12" style="stroke:#181818;stroke-width:1.0;"/><path d="M1304.5625,671.5918 Q1303.875,671.9512 1303.125,672.123 Q1302.375,672.2949 1301.5469,672.2949 Q1298.5938,672.2949 1297.0313,670.3574 Q1295.4844,668.4043 1295.4844,664.7324 Q1295.4844,661.0605 1297.0313,659.123 Q1298.5938,657.1699 1301.5469,657.1699 Q1302.375,657.1699 1303.125,657.3418 Q1303.8906,657.5137 1304.5625,657.873 L1304.5625,661.0762 Q1303.8125,660.3887 1303.1094,660.0762 Q1302.4219,659.7637 1301.6719,659.7637 Q1300.0938,659.7637 1299.2813,661.0137 Q1298.4844,662.2637 1298.4844,664.7324 Q1298.4844,667.2012 1299.2813,668.4512 Q1300.0938,669.7012 1301.6719,669.7012 Q1302.4219,669.7012 1303.1094,669.3887 Q1303.8125,669.0762 1304.5625,668.3887 L1304.5625,671.5918 Z " fill="#000000"/><text fill="#000000" font-family="sans-serif" font-size="20" lengthAdjust="spacing" textLength="80" x="1323.5" y="671.4375">Student</text><line style="stroke:#181818;stroke-width:0.5;" x1="850.5" x2="1841.5" y1="681.5137" y2="681.5137"/><line style="stroke:#181818;stroke-width:0.5;" x1="850.5" x2="1841.5" y1="689.5137" y2="689.5137"/><ellipse cx="860.5" cy="718.2949" fill="#84BE84" rx="3" ry="3" style="stroke:#038048;stroke-width:1.0;"/><text fill="#000000" font-family="sans-serif" font-size="20" lengthAdjust="spacing" textLength="177" x="870.5" y="712.0781">create(username,</text><text fill="#000000" font-family="sans-serif" font-size="20" lengthAdjust="spacing" textLength="966" x="870.5" y="735.3594">password, firstName,lastName,email, role, studentNumber,taxpayerNumber,birthdate,fullName)</text></g><!--class Teacher--><g id="elem_Teacher"><rect codeLine="58" fill="#F1F1F1" height="73.2813" id="Teacher" rx="2.5" ry="2.5" style="stroke:#181818;stroke-width:0.5;" width="1093" x="1877.5" y="659.5137"/><ellipse cx="2379.5" cy="676.5137" fill="#ADD1B2" rx="12" ry="12" style="stroke:#181818;stroke-width:1.0;"/><path d="M2382.5625,683.5918 Q2381.875,683.9512 2381.125,684.123 Q2380.375,684.2949 2379.5469,684.2949 Q2376.5938,684.2949 2375.0313,682.3574 Q2373.4844,680.4043 2373.4844,676.7324 Q2373.4844,673.0605 2375.0313,671.123 Q2376.5938,669.1699 2379.5469,669.1699 Q2380.375,669.1699 2381.125,669.3418 Q2381.8906,669.5137 2382.5625,669.873 L2382.5625,673.0762 Q2381.8125,672.3887 2381.1094,672.0762 Q2380.4219,671.7637 2379.6719,671.7637 Q2378.0938,671.7637 2377.2813,673.0137 Q2376.4844,674.2637 2376.4844,676.7324 Q2376.4844,679.2012 2377.2813,680.4512 Q2378.0938,681.7012 2379.6719,681.7012 Q2380.4219,681.7012 2381.1094,681.3887 Q2381.8125,681.0762 2382.5625,680.3887 L2382.5625,683.5918 Z " fill="#000000"/><text fill="#000000" font-family="sans-serif" font-size="20" lengthAdjust="spacing" textLength="80" x="2401.5" y="683.4375">Teacher</text><line style="stroke:#181818;stroke-width:0.5;" x1="1878.5" x2="2969.5" y1="693.5137" y2="693.5137"/><line style="stroke:#181818;stroke-width:0.5;" x1="1878.5" x2="2969.5" y1="701.5137" y2="701.5137"/><ellipse cx="1888.5" cy="718.6543" fill="#84BE84" rx="3" ry="3" style="stroke:#038048;stroke-width:1.0;"/><text fill="#000000" font-family="sans-serif" font-size="20" lengthAdjust="spacing" textLength="1066" x="1898.5" y="724.0781">create(username,password,firstName,lastName,email, role, acronym,taxpayerNumber,birthdate,fullName)</text></g><!--class RegisterUserUI--><g id="elem_RegisterUserUI"><rect codeLine="63" fill="#F1F1F1" height="72.5625" id="RegisterUserUI" rx="2.5" ry="2.5" style="stroke:#181818;stroke-width:0.5;" width="183" x="2094.5" y="86.5137"/><ellipse cx="2110.5" cy="114.7949" fill="#ADD1B2" rx="12" ry="12" style="stroke:#181818;stroke-width:1.0;"/><path d="M2113.5625,121.873 Q2112.875,122.2324 2112.125,122.4043 Q2111.375,122.5762 2110.5469,122.5762 Q2107.5938,122.5762 2106.0313,120.6387 Q2104.4844,118.6855 2104.4844,115.0137 Q2104.4844,111.3418 2106.0313,109.4043 Q2107.5938,107.4512 2110.5469,107.4512 Q2111.375,107.4512 2112.125,107.623 Q2112.8906,107.7949 2113.5625,108.1543 L2113.5625,111.3574 Q2112.8125,110.6699 2112.1094,110.3574 Q2111.4219,110.0449 2110.6719,110.0449 Q2109.0938,110.0449 2108.2813,111.2949 Q2107.4844,112.5449 2107.4844,115.0137 Q2107.4844,117.4824 2108.2813,118.7324 Q2109.0938,119.9824 2110.6719,119.9824 Q2111.4219,119.9824 2112.1094,119.6699 Q2112.8125,119.3574 2113.5625,118.6699 L2113.5625,121.873 Z " fill="#000000"/><text fill="#000000" font-family="sans-serif" font-size="20" font-style="italic" lengthAdjust="spacing" textLength="151" x="2124.5" y="110.0781">«presentation»</text><text fill="#000000" font-family="sans-serif" font-size="20" lengthAdjust="spacing" textLength="149" x="2125.5" y="133.3594">RegisterUserUI</text><line style="stroke:#181818;stroke-width:0.5;" x1="2095.5" x2="2276.5" y1="143.0762" y2="143.0762"/><line style="stroke:#181818;stroke-width:0.5;" x1="2095.5" x2="2276.5" y1="151.0762" y2="151.0762"/></g><!--class RegisterUserController--><g id="elem_RegisterUserController"><rect codeLine="65" fill="#F1F1F1" height="142.4063" id="RegisterUserController" rx="2.5" ry="2.5" style="stroke:#181818;stroke-width:0.5;" width="1331" x="1520.5" y="219.5137"/><ellipse cx="2068" cy="247.7949" fill="#ADD1B2" rx="12" ry="12" style="stroke:#181818;stroke-width:1.0;"/><path d="M2071.0625,254.873 Q2070.375,255.2324 2069.625,255.4043 Q2068.875,255.5762 2068.0469,255.5762 Q2065.0938,255.5762 2063.5313,253.6387 Q2061.9844,251.6855 2061.9844,248.0137 Q2061.9844,244.3418 2063.5313,242.4043 Q2065.0938,240.4512 2068.0469,240.4512 Q2068.875,240.4512 2069.625,240.623 Q2070.3906,240.7949 2071.0625,241.1543 L2071.0625,244.3574 Q2070.3125,243.6699 2069.6094,243.3574 Q2068.9219,243.0449 2068.1719,243.0449 Q2066.5938,243.0449 2065.7813,244.2949 Q2064.9844,245.5449 2064.9844,248.0137 Q2064.9844,250.4824 2065.7813,251.7324 Q2066.5938,252.9824 2068.1719,252.9824 Q2068.9219,252.9824 2069.6094,252.6699 Q2070.3125,252.3574 2071.0625,251.6699 L2071.0625,254.873 Z " fill="#000000"/><text fill="#000000" font-family="sans-serif" font-size="20" font-style="italic" lengthAdjust="spacing" textLength="136" x="2135.5" y="243.0781">«application»</text><text fill="#000000" font-family="sans-serif" font-size="20" lengthAdjust="spacing" textLength="227" x="2090" y="266.3594">RegisterUserController</text><line style="stroke:#181818;stroke-width:0.5;" x1="1521.5" x2="2850.5" y1="276.0762" y2="276.0762"/><line style="stroke:#181818;stroke-width:0.5;" x1="1521.5" x2="2850.5" y1="284.0762" y2="284.0762"/><ellipse cx="1531.5" cy="301.2168" fill="#84BE84" rx="3" ry="3" style="stroke:#038048;stroke-width:1.0;"/><text fill="#000000" font-family="sans-serif" font-size="20" lengthAdjust="spacing" textLength="774" x="1541.5" y="306.6406">buildUser(username,password, firstName,lastName, email, role): SystemUser</text><ellipse cx="1531.5" cy="324.498" fill="#84BE84" rx="3" ry="3" style="stroke:#038048;stroke-width:1.0;"/><text fill="#000000" font-family="sans-serif" font-size="20" lengthAdjust="spacing" textLength="1304" x="1541.5" y="329.9219">buildStudent(username,password, firstName,lastName,email, role, studentNumber,taxpayerNumber,birthdate,fullName): Student</text><ellipse cx="1531.5" cy="347.7793" fill="#84BE84" rx="3" ry="3" style="stroke:#038048;stroke-width:1.0;"/><text fill="#000000" font-family="sans-serif" font-size="20" lengthAdjust="spacing" textLength="1304" x="1541.5" y="353.2031">buildTeacher(username,password, firstName,lastName,email, role, studentNumber,taxpayerNumber,birthdate,fullName): Teacher</text></g><!--class SystemUser.SystemUser--><g id="elem_SystemUser.SystemUser"><rect fill="#F1F1F1" height="50" id="SystemUser.SystemUser" rx="2.5" ry="2.5" style="stroke:#181818;stroke-width:0.5;" width="153" x="849.5" y="98.0137"/><ellipse cx="865.5" cy="115.0137" fill="#ADD1B2" rx="12" ry="12" style="stroke:#181818;stroke-width:1.0;"/><path d="M868.5625,122.0918 Q867.875,122.4512 867.125,122.623 Q866.375,122.7949 865.5469,122.7949 Q862.5938,122.7949 861.0313,120.8574 Q859.4844,118.9043 859.4844,115.2324 Q859.4844,111.5605 861.0313,109.623 Q862.5938,107.6699 865.5469,107.6699 Q866.375,107.6699 867.125,107.8418 Q867.8906,108.0137 868.5625,108.373 L868.5625,111.5762 Q867.8125,110.8887 867.1094,110.5762 Q866.4219,110.2637 865.6719,110.2637 Q864.0938,110.2637 863.2813,111.5137 Q862.4844,112.7637 862.4844,115.2324 Q862.4844,117.7012 863.2813,118.9512 Q864.0938,120.2012 865.6719,120.2012 Q866.4219,120.2012 867.1094,119.8887 Q867.8125,119.5762 868.5625,118.8887 L868.5625,122.0918 Z " fill="#000000"/><text fill="#000000" font-family="sans-serif" font-size="20" lengthAdjust="spacing" textLength="119" x="880.5" y="121.9375">SystemUser</text><line style="stroke:#181818;stroke-width:0.5;" x1="850.5" x2="1001.5" y1="132.0137" y2="132.0137"/><line style="stroke:#181818;stroke-width:0.5;" x1="850.5" x2="1001.5" y1="140.0137" y2="140.0137"/></g><!--class UserBuilder--><g id="elem_UserBuilder"><rect fill="#F1F1F1" height="50" id="UserBuilder" rx="2.5" ry="2.5" style="stroke:#181818;stroke-width:0.5;" width="151" x="1091.5" y="98.0137"/><ellipse cx="1107.5" cy="115.0137" fill="#ADD1B2" rx="12" ry="12" style="stroke:#181818;stroke-width:1.0;"/><path d="M1110.5625,122.0918 Q1109.875,122.4512 1109.125,122.623 Q1108.375,122.7949 1107.5469,122.7949 Q1104.5938,122.7949 1103.0313,120.8574 Q1101.4844,118.9043 1101.4844,115.2324 Q1101.4844,111.5605 1103.0313,109.623 Q1104.5938,107.6699 1107.5469,107.6699 Q1108.375,107.6699 1109.125,107.8418 Q1109.8906,108.0137 1110.5625,108.373 L1110.5625,111.5762 Q1109.8125,110.8887 1109.1094,110.5762 Q1108.4219,110.2637 1107.6719,110.2637 Q1106.0938,110.2637 1105.2813,111.5137 Q1104.4844,112.7637 1104.4844,115.2324 Q1104.4844,117.7012 1105.2813,118.9512 Q1106.0938,120.2012 1107.6719,120.2012 Q1108.4219,120.2012 1109.1094,119.8887 Q1109.8125,119.5762 1110.5625,118.8887 L1110.5625,122.0918 Z " fill="#000000"/><text fill="#000000" font-family="sans-serif" font-size="20" lengthAdjust="spacing" textLength="117" x="1122.5" y="121.9375">UserBuilder</text><line style="stroke:#181818;stroke-width:0.5;" x1="1092.5" x2="1241.5" y1="132.0137" y2="132.0137"/><line style="stroke:#181818;stroke-width:0.5;" x1="1092.5" x2="1241.5" y1="140.0137" y2="140.0137"/></g><!--class StudentBuilder--><g id="elem_StudentBuilder"><rect codeLine="38" fill="#F1F1F1" height="143.125" id="StudentBuilder" rx="2.5" ry="2.5" style="stroke:#181818;stroke-width:0.5;" width="468" x="1144" y="433.0137"/><ellipse cx="1297.5" cy="450.0137" fill="#B4A7E5" rx="12" ry="12" style="stroke:#181818;stroke-width:1.0;"/><path d="M1292.6875,445.4668 L1292.6875,442.9355 L1301.3594,442.9355 L1301.3594,445.4668 L1298.4688,445.4668 L1298.4688,454.9668 L1301.3594,454.9668 L1301.3594,457.5137 L1292.6875,457.5137 L1292.6875,454.9668 L1295.5781,454.9668 L1295.5781,445.4668 L1292.6875,445.4668 Z " fill="#000000"/><text fill="#000000" font-family="sans-serif" font-size="20" font-style="italic" lengthAdjust="spacing" textLength="152" x="1319.5" y="456.9375">StudentBuilder</text><line style="stroke:#181818;stroke-width:0.5;" x1="1145" x2="1611" y1="467.0137" y2="467.0137"/><line style="stroke:#181818;stroke-width:0.5;" x1="1145" x2="1611" y1="475.0137" y2="475.0137"/><ellipse cx="1155" cy="492.1543" fill="#84BE84" rx="3" ry="3" style="stroke:#038048;stroke-width:1.0;"/><text fill="#000000" font-family="sans-serif" font-size="20" lengthAdjust="spacing" textLength="441" x="1165" y="497.5781">setTaxpayerNumber(taxpayerNumber): void</text><ellipse cx="1155" cy="515.4355" fill="#84BE84" rx="3" ry="3" style="stroke:#038048;stroke-width:1.0;"/><text fill="#000000" font-family="sans-serif" font-size="20" lengthAdjust="spacing" textLength="233" x="1165" y="520.8594">setBirthdate(birthdate)</text><ellipse cx="1155" cy="538.7168" fill="#84BE84" rx="3" ry="3" style="stroke:#038048;stroke-width:1.0;"/><text fill="#000000" font-family="sans-serif" font-size="20" lengthAdjust="spacing" textLength="233" x="1165" y="544.1406">setFullName(fullName)</text><ellipse cx="1155" cy="561.998" fill="#84BE84" rx="3" ry="3" style="stroke:#038048;stroke-width:1.0;"/><text fill="#000000" font-family="sans-serif" font-size="20" lengthAdjust="spacing" textLength="240" x="1165" y="567.4219">buildStudent(): Student</text></g><!--class TeacherBuilder--><g id="elem_TeacherBuilder"><rect codeLine="44" fill="#F1F1F1" height="166.4063" id="TeacherBuilder" rx="2.5" ry="2.5" style="stroke:#181818;stroke-width:0.5;" width="468" x="1647" y="421.5137"/><ellipse cx="1800.5" cy="438.5137" fill="#B4A7E5" rx="12" ry="12" style="stroke:#181818;stroke-width:1.0;"/><path d="M1795.6875,433.9668 L1795.6875,431.4355 L1804.3594,431.4355 L1804.3594,433.9668 L1801.4688,433.9668 L1801.4688,443.4668 L1804.3594,443.4668 L1804.3594,446.0137 L1795.6875,446.0137 L1795.6875,443.4668 L1798.5781,443.4668 L1798.5781,433.9668 L1795.6875,433.9668 Z " fill="#000000"/><text fill="#000000" font-family="sans-serif" font-size="20" font-style="italic" lengthAdjust="spacing" textLength="152" x="1822.5" y="445.4375">TeacherBuilder</text><line style="stroke:#181818;stroke-width:0.5;" x1="1648" x2="2114" y1="455.5137" y2="455.5137"/><line style="stroke:#181818;stroke-width:0.5;" x1="1648" x2="2114" y1="463.5137" y2="463.5137"/><ellipse cx="1658" cy="480.6543" fill="#84BE84" rx="3" ry="3" style="stroke:#038048;stroke-width:1.0;"/><text fill="#000000" font-family="sans-serif" font-size="20" lengthAdjust="spacing" textLength="277" x="1668" y="486.0781">setAcronym(acronym): void</text><ellipse cx="1658" cy="503.9355" fill="#84BE84" rx="3" ry="3" style="stroke:#038048;stroke-width:1.0;"/><text fill="#000000" font-family="sans-serif" font-size="20" lengthAdjust="spacing" textLength="441" x="1668" y="509.3594">setTaxpayerNumber(taxpayerNumber): void</text><ellipse cx="1658" cy="527.2168" fill="#84BE84" rx="3" ry="3" style="stroke:#038048;stroke-width:1.0;"/><text fill="#000000" font-family="sans-serif" font-size="20" lengthAdjust="spacing" textLength="233" x="1668" y="532.6406">setBirthdate(birthdate)</text><ellipse cx="1658" cy="550.498" fill="#84BE84" rx="3" ry="3" style="stroke:#038048;stroke-width:1.0;"/><text fill="#000000" font-family="sans-serif" font-size="20" lengthAdjust="spacing" textLength="233" x="1668" y="555.9219">setFullName(fullName)</text><ellipse cx="1658" cy="573.7793" fill="#84BE84" rx="3" ry="3" style="stroke:#038048;stroke-width:1.0;"/><text fill="#000000" font-family="sans-serif" font-size="20" lengthAdjust="spacing" textLength="240" x="1668" y="579.2031">buildTeacher(): Teacher</text></g><!--link RegisterUserUI to RegisterUserController--><g id="link_RegisterUserUI_RegisterUserController"><path codeLine="71" d="M2186,159.7737 C2186,159.7737 2186,214.4337 2186,214.4337 " fill="none" id="RegisterUserUI-to-RegisterUserController" style="stroke:#181818;stroke-width:1.0;stroke-dasharray:7.0,7.0;"/><polygon fill="#181818" points="2186,219.4337,2190,210.4337,2186,214.4337,2182,210.4337,2186,219.4337" style="stroke:#181818;stroke-width:1.0;"/></g><!--link RegisterUserController to PersistenceContext--><g id="link_RegisterUserController_PersistenceContext"><path codeLine="72" d="M2851.85,290.5137 C2851.85,290.5137 3021.25,290.5137 3021.25,290.5137 " fill="none" id="RegisterUserController-to-PersistenceContext" style="stroke:#181818;stroke-width:1.0;stroke-dasharray:7.0,7.0;"/><polygon fill="#181818" points="3026.25,290.5137,3017.25,286.5137,3021.25,290.5137,3017.25,294.5137,3026.25,290.5137" style="stroke:#181818;stroke-width:1.0;"/></g><!--link RegisterUserController to RepositoryFactory--><g id="link_RegisterUserController_RepositoryFactory"><path codeLine="73" d="M2851.53,344.5137 C3013.17,344.5137 3140.5,344.5137 3140.5,344.5137 C3140.5,344.5137 3140.5,439.4837 3140.5,439.4837 " fill="none" id="RegisterUserController-to-RepositoryFactory" style="stroke:#181818;stroke-width:1.0;stroke-dasharray:7.0,7.0;"/><polygon fill="#181818" points="3140.5,444.4837,3144.5,435.4837,3140.5,439.4837,3136.5,435.4837,3140.5,444.4837" style="stroke:#181818;stroke-width:1.0;"/></g><!--link RegisterUserController to UserRepository--><g id="link_RegisterUserController_UserRepository"><path codeLine="74" d="M1520.31,336.5137 C941.56,336.5137 195.17,336.5137 195.17,336.5137 C195.17,336.5137 195.17,462.6437 195.17,462.6437 " fill="none" id="RegisterUserController-to-UserRepository" style="stroke:#181818;stroke-width:1.0;stroke-dasharray:7.0,7.0;"/><polygon fill="#181818" points="195.17,467.6437,199.17,458.6437,195.17,462.6437,191.17,458.6437,195.17,467.6437" style="stroke:#181818;stroke-width:1.0;"/></g><!--link RegisterUserController to StudentBuilder--><g id="link_RegisterUserController_StudentBuilder"><path codeLine="75" d="M1566.25,361.7737 C1566.25,361.7737 1566.25,427.8337 1566.25,427.8337 " fill="none" id="RegisterUserController-to-StudentBuilder" style="stroke:#181818;stroke-width:1.0;stroke-dasharray:7.0,7.0;"/><polygon fill="#181818" points="1566.25,432.8337,1570.25,423.8337,1566.25,427.8337,1562.25,423.8337,1566.25,432.8337" style="stroke:#181818;stroke-width:1.0;"/></g><!--link RegisterUserController to TeacherBuilder--><g id="link_RegisterUserController_TeacherBuilder"><path codeLine="76" d="M1881,361.7737 C1881,380.8637 1881,401.6637 1881,421.3337 " fill="none" id="RegisterUserController-TeacherBuilder" style="stroke:#181818;stroke-width:1.0;stroke-dasharray:7.0,7.0;"/></g><!--link RegisterUserController to StudentRepository--><g id="link_RegisterUserController_StudentRepository"><path codeLine="77" d="M1520.37,344.5137 C1022.38,344.5137 427,344.5137 427,344.5137 C427,344.5137 427,420.5737 427,467.8037 " fill="none" id="RegisterUserController-StudentRepository" style="stroke:#181818;stroke-width:1.0;stroke-dasharray:7.0,7.0;"/></g><!--link RegisterUserController to TeacherRepository--><g id="link_RegisterUserController_TeacherRepository"><path codeLine="78" d="M1520.47,353.5137 C1118.37,353.5137 683,353.5137 683,353.5137 C683,353.5137 683,462.9637 683,462.9637 " fill="none" id="RegisterUserController-to-TeacherRepository" style="stroke:#181818;stroke-width:1.0;stroke-dasharray:7.0,7.0;"/><polygon fill="#181818" points="683,467.9637,687,458.9637,683,462.9637,679,458.9637,683,467.9637" style="stroke:#181818;stroke-width:1.0;"/></g><!--link PersistenceContext to RepositoryFactory--><g id="link_PersistenceContext_RepositoryFactory"><path codeLine="79" d="M3253.5,327.3037 C3253.5,327.3037 3253.5,439.3737 3253.5,439.3737 " fill="none" id="PersistenceContext-to-RepositoryFactory" style="stroke:#181818;stroke-width:1.0;"/><polygon fill="#181818" points="3253.5,444.3737,3257.5,435.3737,3253.5,439.3737,3249.5,435.3737,3253.5,444.3737" style="stroke:#181818;stroke-width:1.0;"/></g><!--link RepositoryFactory to UserRepository--><g id="link_RepositoryFactory_UserRepository"><path codeLine="80" d="M3197,564.7237 C3197,587.2637 3197,607.5137 3197,607.5137 C3197,607.5137 152,607.5137 152,607.5137 C152,607.5137 152,546.1137 152,546.1137 " fill="none" id="RepositoryFactory-to-UserRepository" style="stroke:#181818;stroke-width:1.0;"/><polygon fill="#181818" points="152,541.1137,148,550.1137,152,546.1137,156,550.1137,152,541.1137" style="stroke:#181818;stroke-width:1.0;"/></g><!--link UserRepository to SystemUser.SystemUser--><g id="link_UserRepository_SystemUser.SystemUser"><path codeLine="81" d="M108.83,467.9837 C108.83,372.6237 108.83,123.5137 108.83,123.5137 C108.83,123.5137 844.49,123.5137 844.49,123.5137 " fill="none" id="UserRepository-to-SystemUser.SystemUser" style="stroke:#181818;stroke-width:1.0;stroke-dasharray:7.0,7.0;"/><polygon fill="#181818" points="849.49,123.5137,840.49,119.5137,844.49,123.5137,840.49,127.5137,849.49,123.5137" style="stroke:#181818;stroke-width:1.0;"/></g><!--link TeacherBuilder to Teacher--><g id="link_TeacherBuilder_Teacher"><path codeLine="82" d="M2035.83,587.6737 C2035.83,587.6737 2035.83,654.2737 2035.83,654.2737 " fill="none" id="TeacherBuilder-to-Teacher" style="stroke:#181818;stroke-width:1.0;stroke-dasharray:7.0,7.0;"/><polygon fill="#181818" points="2035.83,659.2737,2039.83,650.2737,2035.83,654.2737,2031.83,650.2737,2035.83,659.2737" style="stroke:#181818;stroke-width:1.0;"/></g><!--link StudentBuilder to Student--><g id="link_StudentBuilder_Student"><path codeLine="83" d="M1378,576.0937 C1378,576.0937 1378,642.4537 1378,642.4537 " fill="none" id="StudentBuilder-to-Student" style="stroke:#181818;stroke-width:1.0;stroke-dasharray:7.0,7.0;"/><polygon fill="#181818" points="1378,647.4537,1382,638.4537,1378,642.4537,1374,638.4537,1378,647.4537" style="stroke:#181818;stroke-width:1.0;"/></g><!--link UserBuilder to SystemUser--><g id="link_UserBuilder_SystemUser"><path codeLine="84" d="M1167,148.0937 C1167,148.0937 1167,248.7737 1167,248.7737 " fill="none" id="UserBuilder-to-SystemUser" style="stroke:#181818;stroke-width:1.0;stroke-dasharray:7.0,7.0;"/><polygon fill="#181818" points="1167,253.7737,1171,244.7737,1167,248.7737,1163,244.7737,1167,253.7737" style="stroke:#181818;stroke-width:1.0;"/></g><!--link StudentRepository to Student--><g id="link_StudentRepository_Student"><path codeLine="85" d="M427,541.0837 C427,596.7837 427,696.5137 427,696.5137 C427,696.5137 844.18,696.5137 844.18,696.5137 " fill="none" id="StudentRepository-to-Student" style="stroke:#181818;stroke-width:1.0;stroke-dasharray:7.0,7.0;"/><polygon fill="#181818" points="849.18,696.5137,840.18,692.5137,844.18,696.5137,840.18,700.5137,849.18,696.5137" style="stroke:#181818;stroke-width:1.0;"/></g><!--link TeacherRepository to Teacher--><g id="link_TeacherRepository_Teacher"><path codeLine="86" d="M683,541.0837 C683,577.3437 683,627.5137 683,627.5137 C683,627.5137 1956.67,627.5137 1956.67,627.5137 C1956.67,627.5137 1956.67,654.3537 1956.67,654.3537 " fill="none" id="TeacherRepository-to-Teacher" style="stroke:#181818;stroke-width:1.0;stroke-dasharray:7.0,7.0;"/><polygon fill="#181818" points="1956.67,659.3537,1960.67,650.3537,1956.67,654.3537,1952.67,650.3537,1956.67,659.3537" style="stroke:#181818;stroke-width:1.0;"/></g><!--link RegisterUserController to UserManagementService--><g id="link_RegisterUserController_UserManagementService"><path codeLine="87" d="M2501,361.7737 C2501,361.7737 2501,462.7637 2501,462.7637 " fill="none" id="RegisterUserController-to-UserManagementService" style="stroke:#181818;stroke-width:1.0;stroke-dasharray:7.0,7.0;"/><polygon fill="#181818" points="2501,467.7637,2505,458.7637,2501,462.7637,2497,458.7637,2501,467.7637" style="stroke:#181818;stroke-width:1.0;"/></g><!--SRC=[lLL1RziW5BxpAxWjKPrqsZ6A8gsJAksmQchQsou4lxIe613WhbdL_pvii0qcSPiTvaDYcy_V-zxt7Zppn8GYcbHSqYSeSGbxKdDxBONTiZ-0ltn6dnwjLMPrUQau4RQk-9BAwf9oOioYPEJ1VOmiinpmBJmmOq7ZUmCQMQcmbNWdhPKLBfa6QfaKo7GXCMS2x441bje-IkGkHUWJUG2iGKd3hDGC37v5s5rCEEOzeT2ottQ0WrzjhWjio3FCpC5fg1hGV8MV9IjRmDk8P6lh4eITul68AP8x8FHnKeprYFagudWRycHYhmaOgsjgQmrB1Teq5Wf7xhbQd_7FuVqtLnfuiM7v8hLgXGSjruGsVo7eI7a6mudqta8pcplIrF4Ow3togCpI21XySC1LxbhlIsUB2_VCABoYjEW_Y72hbOknxG2T1xxn6j2iTZ-2L50evznlgSi2xvaszgPvvzpqDr0HnWki9GSdQTidZEBox6h6Iz2nZf3aLRSIV01xHruKEO2-gQkTKs6JnxY9MlGLSorV4WkpNNSt7rQlQyuRbRDzkEdMMa51GcDbk4NElQmhSubVgPRYKCs8_uz5dP_6-wbyC9qWD-eCr3Q3x_oXCYwH2qmrE7xy3qKU6BrdhwXZ6yX-YO_I5LthUsEArAUYTw8OKkxYXoIFnU-ZlnSyLF1ZOL48V1ljalllUBrM6enBWJJ7ycPp3DOSDYuYTsVwUasKuem6T7_-j3KyO-FXapllI8kVNURpwn9jehmd_qlyhkjTfKObMYut9yg1JbIf-I8V5bFeV61CW4U3O0APdfCdaQlDwBYQGkO3Pa90FcME3D75uhW1u-7Ou4Qvfuy-vxwNbr5Rf_d5sb1gKknRIv-y7mWp6v8FixoJYE_KDfkm2Fq5]--></g></svg>