<?xml version="1.0" encoding="UTF-8" standalone="no"?><svg xmlns="http://www.w3.org/2000/svg" xmlns:xlink="http://www.w3.org/1999/xlink" contentStyleType="text/css" height="849px" preserveAspectRatio="none" style="width:835px;height:849px;background:#FFFFFF;" version="1.1" viewBox="0 0 835 849" width="835px" zoomAndPan="magnify"><defs/><g><text fill="#000000" font-family="sans-serif" font-size="14" font-weight="bold" lengthAdjust="spacing" textLength="216" x="302.5" y="22.9951">Enable/disable system user</text><!--cluster repositories--><g id="cluster_repositories"><path d="M8.5,579.2969 L147.5,579.2969 A3.75,3.75 0 0 1 150,581.7969 L157,608.5781 L407.5,608.5781 A2.5,2.5 0 0 1 410,611.0781 L410,707.7969 A2.5,2.5 0 0 1 407.5,710.2969 L8.5,710.2969 A2.5,2.5 0 0 1 6,707.7969 L6,581.7969 A2.5,2.5 0 0 1 8.5,579.2969 " fill="none" style="stroke:#000000;stroke-width:1.5;"/><line style="stroke:#000000;stroke-width:1.5;" x1="6" x2="157" y1="608.5781" y2="608.5781"/><text fill="#000000" font-family="sans-serif" font-size="20" font-weight="bold" lengthAdjust="spacing" textLength="138" x="10" y="599.8613">repositories</text></g><!--cluster services--><g id="cluster_services"><path d="M28.5,291.2969 L123.5,291.2969 A3.75,3.75 0 0 1 126,293.7969 L133,320.5781 L427.5,320.5781 A2.5,2.5 0 0 1 430,323.0781 L430,419.7969 A2.5,2.5 0 0 1 427.5,422.2969 L28.5,422.2969 A2.5,2.5 0 0 1 26,419.7969 L26,293.7969 A2.5,2.5 0 0 1 28.5,291.2969 " fill="none" style="stroke:#000000;stroke-width:1.5;"/><line style="stroke:#000000;stroke-width:1.5;" x1="26" x2="133" y1="320.5781" y2="320.5781"/><text fill="#000000" font-family="sans-serif" font-size="20" font-weight="bold" lengthAdjust="spacing" textLength="94" x="30" y="311.8613">services</text></g><!--cluster infraestructure.persistence--><g id="cluster_infraestructure.persistence"><path d="M456.5,291.2969 L772.5,291.2969 A3.75,3.75 0 0 1 775,293.7969 L782,320.5781 L825.5,320.5781 A2.5,2.5 0 0 1 828,323.0781 L828,552.7969 A2.5,2.5 0 0 1 825.5,555.2969 L456.5,555.2969 A2.5,2.5 0 0 1 454,552.7969 L454,293.7969 A2.5,2.5 0 0 1 456.5,291.2969 " fill="none" style="stroke:#000000;stroke-width:1.5;"/><line style="stroke:#000000;stroke-width:1.5;" x1="454" x2="782" y1="320.5781" y2="320.5781"/><text fill="#000000" font-family="sans-serif" font-size="20" font-weight="bold" lengthAdjust="spacing" textLength="315" x="458" y="311.8613">infraestructure.persistence</text></g><!--cluster SystemUser--><g id="cluster_SystemUser"><path d="M117.5,734.2969 L254.5,734.2969 A3.75,3.75 0 0 1 257,736.7969 L264,763.5781 L298.5,763.5781 A2.5,2.5 0 0 1 301,766.0781 L301,839.7969 A2.5,2.5 0 0 1 298.5,842.2969 L117.5,842.2969 A2.5,2.5 0 0 1 115,839.7969 L115,736.7969 A2.5,2.5 0 0 1 117.5,734.2969 " fill="none" style="stroke:#000000;stroke-width:1.5;"/><line style="stroke:#000000;stroke-width:1.5;" x1="115" x2="264" y1="763.5781" y2="763.5781"/><text fill="#000000" font-family="sans-serif" font-size="20" font-weight="bold" lengthAdjust="spacing" textLength="136" x="119" y="754.8613">SystemUser</text></g><!--class UserRepository--><g id="elem_UserRepository"><rect codeLine="9" fill="#F1F1F1" height="73.2813" id="UserRepository" rx="2.5" ry="2.5" style="stroke:#181818;stroke-width:0.5;" width="371" x="22.5" y="621.2969"/><ellipse cx="127.5" cy="638.2969" fill="#B4A7E5" rx="12" ry="12" style="stroke:#181818;stroke-width:1.0;"/><path d="M122.6875,633.75 L122.6875,631.2188 L131.3594,631.2188 L131.3594,633.75 L128.4688,633.75 L128.4688,643.25 L131.3594,643.25 L131.3594,645.7969 L122.6875,645.7969 L122.6875,643.25 L125.5781,643.25 L125.5781,633.75 L122.6875,633.75 Z " fill="#000000"/><text fill="#000000" font-family="sans-serif" font-size="20" font-style="italic" lengthAdjust="spacing" textLength="152" x="149.5" y="645.2207">UserRepository</text><line style="stroke:#181818;stroke-width:0.5;" x1="23.5" x2="392.5" y1="655.2969" y2="655.2969"/><line style="stroke:#181818;stroke-width:0.5;" x1="23.5" x2="392.5" y1="663.2969" y2="663.2969"/><ellipse cx="33.5" cy="680.4375" fill="#84BE84" rx="3" ry="3" style="stroke:#038048;stroke-width:1.0;"/><text fill="#000000" font-family="sans-serif" font-size="20" lengthAdjust="spacing" textLength="344" x="43.5" y="685.8613">allUsers() : Iterable&lt;SystemUser&gt;</text></g><!--class UserManagementService--><g id="elem_UserManagementService"><rect codeLine="15" fill="#F1F1F1" height="73.2813" id="UserManagementService" rx="2.5" ry="2.5" style="stroke:#181818;stroke-width:0.5;" width="371" x="42.5" y="333.2969"/><ellipse cx="98.5" cy="350.2969" fill="#ADD1B2" rx="12" ry="12" style="stroke:#181818;stroke-width:1.0;"/><path d="M101.5625,357.375 Q100.875,357.7344 100.125,357.9063 Q99.375,358.0781 98.5469,358.0781 Q95.5938,358.0781 94.0313,356.1406 Q92.4844,354.1875 92.4844,350.5156 Q92.4844,346.8438 94.0313,344.9063 Q95.5938,342.9531 98.5469,342.9531 Q99.375,342.9531 100.125,343.125 Q100.8906,343.2969 101.5625,343.6563 L101.5625,346.8594 Q100.8125,346.1719 100.1094,345.8594 Q99.4219,345.5469 98.6719,345.5469 Q97.0938,345.5469 96.2813,346.7969 Q95.4844,348.0469 95.4844,350.5156 Q95.4844,352.9844 96.2813,354.2344 Q97.0938,355.4844 98.6719,355.4844 Q99.4219,355.4844 100.1094,355.1719 Q100.8125,354.8594 101.5625,354.1719 L101.5625,357.375 Z " fill="#000000"/><text fill="#000000" font-family="sans-serif" font-size="20" lengthAdjust="spacing" textLength="250" x="120.5" y="357.2207">UserManagementService</text><line style="stroke:#181818;stroke-width:0.5;" x1="43.5" x2="412.5" y1="367.2969" y2="367.2969"/><line style="stroke:#181818;stroke-width:0.5;" x1="43.5" x2="412.5" y1="375.2969" y2="375.2969"/><ellipse cx="53.5" cy="392.4375" fill="#84BE84" rx="3" ry="3" style="stroke:#038048;stroke-width:1.0;"/><text fill="#000000" font-family="sans-serif" font-size="20" lengthAdjust="spacing" textLength="344" x="63.5" y="397.8613">allUsers() : Iterable&lt;SystemUser&gt;</text></g><!--class PersistenceContext--><g id="elem_PersistenceContext"><rect codeLine="21" fill="#F1F1F1" height="73.2813" id="PersistenceContext" rx="2.5" ry="2.5" style="stroke:#181818;stroke-width:0.5;" width="343" x="469.5" y="333.2969"/><ellipse cx="540.5" cy="350.2969" fill="#ADD1B2" rx="12" ry="12" style="stroke:#181818;stroke-width:1.0;"/><path d="M543.5625,357.375 Q542.875,357.7344 542.125,357.9063 Q541.375,358.0781 540.5469,358.0781 Q537.5938,358.0781 536.0313,356.1406 Q534.4844,354.1875 534.4844,350.5156 Q534.4844,346.8438 536.0313,344.9063 Q537.5938,342.9531 540.5469,342.9531 Q541.375,342.9531 542.125,343.125 Q542.8906,343.2969 543.5625,343.6563 L543.5625,346.8594 Q542.8125,346.1719 542.1094,345.8594 Q541.4219,345.5469 540.6719,345.5469 Q539.0938,345.5469 538.2813,346.7969 Q537.4844,348.0469 537.4844,350.5156 Q537.4844,352.9844 538.2813,354.2344 Q539.0938,355.4844 540.6719,355.4844 Q541.4219,355.4844 542.1094,355.1719 Q542.8125,354.8594 543.5625,354.1719 L543.5625,357.375 Z " fill="#000000"/><text fill="#000000" font-family="sans-serif" font-size="20" lengthAdjust="spacing" textLength="192" x="562.5" y="357.2207">PersistenceContext</text><line style="stroke:#181818;stroke-width:0.5;" x1="470.5" x2="811.5" y1="367.2969" y2="367.2969"/><ellipse cx="480.5" cy="384.4375" fill="none" rx="3" ry="3" style="stroke:#038048;stroke-width:1.0;"/><text fill="#000000" font-family="sans-serif" font-size="20" lengthAdjust="spacing" textLength="316" x="490.5" y="389.8613">repositories : RepositoryFactory</text><line style="stroke:#181818;stroke-width:0.5;" x1="470.5" x2="811.5" y1="398.5781" y2="398.5781"/></g><!--class RepositoryFactory--><g id="elem_RepositoryFactory"><rect codeLine="25" fill="#F1F1F1" height="73.2813" id="RepositoryFactory" rx="2.5" ry="2.5" style="stroke:#181818;stroke-width:0.5;" width="339" x="471.5" y="466.2969"/><ellipse cx="545.5" cy="483.2969" fill="#B4A7E5" rx="12" ry="12" style="stroke:#181818;stroke-width:1.0;"/><path d="M540.6875,478.75 L540.6875,476.2188 L549.3594,476.2188 L549.3594,478.75 L546.4688,478.75 L546.4688,488.25 L549.3594,488.25 L549.3594,490.7969 L540.6875,490.7969 L540.6875,488.25 L543.5781,488.25 L543.5781,478.75 L540.6875,478.75 Z " fill="#000000"/><text fill="#000000" font-family="sans-serif" font-size="20" font-style="italic" lengthAdjust="spacing" textLength="182" x="567.5" y="490.2207">RepositoryFactory</text><line style="stroke:#181818;stroke-width:0.5;" x1="472.5" x2="809.5" y1="500.2969" y2="500.2969"/><line style="stroke:#181818;stroke-width:0.5;" x1="472.5" x2="809.5" y1="508.2969" y2="508.2969"/><ellipse cx="482.5" cy="525.4375" fill="#84BE84" rx="3" ry="3" style="stroke:#038048;stroke-width:1.0;"/><text fill="#000000" font-family="sans-serif" font-size="20" lengthAdjust="spacing" textLength="312" x="492.5" y="530.8613">systemUsers() : UserRepository</text></g><!--class SystemUser.SystemUser--><g id="elem_SystemUser.SystemUser"><rect fill="#F1F1F1" height="50" id="SystemUser.SystemUser" rx="2.5" ry="2.5" style="stroke:#181818;stroke-width:0.5;" width="153" x="131.5" y="776.2969"/><ellipse cx="147.5" cy="793.2969" fill="#ADD1B2" rx="12" ry="12" style="stroke:#181818;stroke-width:1.0;"/><path d="M150.5625,800.375 Q149.875,800.7344 149.125,800.9063 Q148.375,801.0781 147.5469,801.0781 Q144.5938,801.0781 143.0313,799.1406 Q141.4844,797.1875 141.4844,793.5156 Q141.4844,789.8438 143.0313,787.9063 Q144.5938,785.9531 147.5469,785.9531 Q148.375,785.9531 149.125,786.125 Q149.8906,786.2969 150.5625,786.6563 L150.5625,789.8594 Q149.8125,789.1719 149.1094,788.8594 Q148.4219,788.5469 147.6719,788.5469 Q146.0938,788.5469 145.2813,789.7969 Q144.4844,791.0469 144.4844,793.5156 Q144.4844,795.9844 145.2813,797.2344 Q146.0938,798.4844 147.6719,798.4844 Q148.4219,798.4844 149.1094,798.1719 Q149.8125,797.8594 150.5625,797.1719 L150.5625,800.375 Z " fill="#000000"/><text fill="#000000" font-family="sans-serif" font-size="20" lengthAdjust="spacing" textLength="119" x="162.5" y="800.2207">SystemUser</text><line style="stroke:#181818;stroke-width:0.5;" x1="132.5" x2="283.5" y1="810.2969" y2="810.2969"/><line style="stroke:#181818;stroke-width:0.5;" x1="132.5" x2="283.5" y1="818.2969" y2="818.2969"/></g><!--class ListSystemUserUI--><g id="elem_ListSystemUserUI"><rect codeLine="30" fill="#F1F1F1" height="72.5625" id="ListSystemUserUI" rx="2.5" ry="2.5" style="stroke:#181818;stroke-width:0.5;" width="209" x="329.5" y="44.2969"/><ellipse cx="345.5" cy="72.5781" fill="#ADD1B2" rx="12" ry="12" style="stroke:#181818;stroke-width:1.0;"/><path d="M348.5625,79.6563 Q347.875,80.0156 347.125,80.1875 Q346.375,80.3594 345.5469,80.3594 Q342.5938,80.3594 341.0313,78.4219 Q339.4844,76.4688 339.4844,72.7969 Q339.4844,69.125 341.0313,67.1875 Q342.5938,65.2344 345.5469,65.2344 Q346.375,65.2344 347.125,65.4063 Q347.8906,65.5781 348.5625,65.9375 L348.5625,69.1406 Q347.8125,68.4531 347.1094,68.1406 Q346.4219,67.8281 345.6719,67.8281 Q344.0938,67.8281 343.2813,69.0781 Q342.4844,70.3281 342.4844,72.7969 Q342.4844,75.2656 343.2813,76.5156 Q344.0938,77.7656 345.6719,77.7656 Q346.4219,77.7656 347.1094,77.4531 Q347.8125,77.1406 348.5625,76.4531 L348.5625,79.6563 Z " fill="#000000"/><text fill="#000000" font-family="sans-serif" font-size="20" font-style="italic" lengthAdjust="spacing" textLength="151" x="372.5" y="67.8613">«presentation»</text><text fill="#000000" font-family="sans-serif" font-size="20" lengthAdjust="spacing" textLength="175" x="360.5" y="91.1426">ListSystemUserUI</text><line style="stroke:#181818;stroke-width:0.5;" x1="330.5" x2="537.5" y1="100.8594" y2="100.8594"/><line style="stroke:#181818;stroke-width:0.5;" x1="330.5" x2="537.5" y1="108.8594" y2="108.8594"/></g><!--class ListSystemUserController--><g id="elem_ListSystemUserController"><rect codeLine="32" fill="#F1F1F1" height="95.8438" id="ListSystemUserController" rx="2.5" ry="2.5" style="stroke:#181818;stroke-width:0.5;" width="441" x="213.5" y="177.2969"/><ellipse cx="303" cy="205.5781" fill="#ADD1B2" rx="12" ry="12" style="stroke:#181818;stroke-width:1.0;"/><path d="M306.0625,212.6563 Q305.375,213.0156 304.625,213.1875 Q303.875,213.3594 303.0469,213.3594 Q300.0938,213.3594 298.5313,211.4219 Q296.9844,209.4688 296.9844,205.7969 Q296.9844,202.125 298.5313,200.1875 Q300.0938,198.2344 303.0469,198.2344 Q303.875,198.2344 304.625,198.4063 Q305.3906,198.5781 306.0625,198.9375 L306.0625,202.1406 Q305.3125,201.4531 304.6094,201.1406 Q303.9219,200.8281 303.1719,200.8281 Q301.5938,200.8281 300.7813,202.0781 Q299.9844,203.3281 299.9844,205.7969 Q299.9844,208.2656 300.7813,209.5156 Q301.5938,210.7656 303.1719,210.7656 Q303.9219,210.7656 304.6094,210.4531 Q305.3125,210.1406 306.0625,209.4531 L306.0625,212.6563 Z " fill="#000000"/><text fill="#000000" font-family="sans-serif" font-size="20" font-style="italic" lengthAdjust="spacing" textLength="136" x="383.5" y="200.8613">«application»</text><text fill="#000000" font-family="sans-serif" font-size="20" lengthAdjust="spacing" textLength="253" x="325" y="224.1426">ListSystemUserController</text><line style="stroke:#181818;stroke-width:0.5;" x1="214.5" x2="653.5" y1="233.8594" y2="233.8594"/><line style="stroke:#181818;stroke-width:0.5;" x1="214.5" x2="653.5" y1="241.8594" y2="241.8594"/><ellipse cx="224.5" cy="259" fill="#84BE84" rx="3" ry="3" style="stroke:#038048;stroke-width:1.0;"/><text fill="#000000" font-family="sans-serif" font-size="20" lengthAdjust="spacing" textLength="414" x="234.5" y="264.4238">listSystemUser() : Iterable&lt;SystemUser&gt;</text></g><!--link ListSystemUserUI to ListSystemUserController--><g id="link_ListSystemUserUI_ListSystemUserController"><path codeLine="36" d="M434,117.6369 C434,117.6369 434,172.0569 434,172.0569 " fill="none" id="ListSystemUserUI-to-ListSystemUserController" style="stroke:#181818;stroke-width:1.0;stroke-dasharray:7.0,7.0;"/><polygon fill="#181818" points="434,177.0569,438,168.0569,434,172.0569,430,168.0569,434,177.0569" style="stroke:#181818;stroke-width:1.0;"/></g><!--link ListSystemUserController to UserManagementService--><g id="link_ListSystemUserController_UserManagementService"><path codeLine="37" d="M313.5,273.4169 C313.5,273.4169 313.5,327.8569 313.5,327.8569 " fill="none" id="ListSystemUserController-to-UserManagementService" style="stroke:#181818;stroke-width:1.0;stroke-dasharray:7.0,7.0;"/><polygon fill="#181818" points="313.5,332.8569,317.5,323.8569,313.5,327.8569,309.5,323.8569,313.5,332.8569" style="stroke:#181818;stroke-width:1.0;"/></g><!--link ListSystemUserController to PersistenceContext--><g id="link_ListSystemUserController_PersistenceContext"><path codeLine="38" d="M562,273.4169 C562,273.4169 562,327.8569 562,327.8569 " fill="none" id="ListSystemUserController-to-PersistenceContext" style="stroke:#181818;stroke-width:1.0;stroke-dasharray:7.0,7.0;"/><polygon fill="#181818" points="562,332.8569,566,323.8569,562,327.8569,558,323.8569,562,332.8569" style="stroke:#181818;stroke-width:1.0;"/></g><!--link ListSystemUserController to RepositoryFactory--><g id="link_ListSystemUserController_RepositoryFactory"><path codeLine="39" d="M450.83,273.4069 C450.83,352.9669 450.83,503.2969 450.83,503.2969 C450.83,503.2969 466.18,503.2969 466.18,503.2969 " fill="none" id="ListSystemUserController-to-RepositoryFactory" style="stroke:#181818;stroke-width:1.0;stroke-dasharray:7.0,7.0;"/><polygon fill="#181818" points="471.18,503.2969,462.18,499.2969,466.18,503.2969,462.18,507.2969,471.18,503.2969" style="stroke:#181818;stroke-width:1.0;"/></g><!--link ListSystemUserController to UserRepository--><g id="link_ListSystemUserController_UserRepository"><path codeLine="40" d="M432.17,273.5869 C432.17,384.1769 432.17,646.2969 432.17,646.2969 C432.17,646.2969 398.63,646.2969 398.63,646.2969 " fill="none" id="ListSystemUserController-to-UserRepository" style="stroke:#181818;stroke-width:1.0;stroke-dasharray:7.0,7.0;"/><polygon fill="#181818" points="393.63,646.2969,402.63,650.2969,398.63,646.2969,402.63,642.2969,393.63,646.2969" style="stroke:#181818;stroke-width:1.0;"/></g><!--link PersistenceContext to RepositoryFactory--><g id="link_PersistenceContext_RepositoryFactory"><path codeLine="41" d="M641,406.4869 C641,406.4869 641,461.2169 641,461.2169 " fill="none" id="PersistenceContext-to-RepositoryFactory" style="stroke:#181818;stroke-width:1.0;"/><polygon fill="#181818" points="641,466.2169,645,457.2169,641,461.2169,637,457.2169,641,466.2169" style="stroke:#181818;stroke-width:1.0;"/></g><!--link RepositoryFactory to UserRepository--><g id="link_RepositoryFactory_UserRepository"><path codeLine="42" d="M641,539.5569 C641,588.8569 641,670.2969 641,670.2969 C641,670.2969 398.52,670.2969 398.52,670.2969 " fill="none" id="RepositoryFactory-to-UserRepository" style="stroke:#181818;stroke-width:1.0;"/><polygon fill="#181818" points="393.52,670.2969,402.52,674.2969,398.52,670.2969,402.52,666.2969,393.52,670.2969" style="stroke:#181818;stroke-width:1.0;"/></g><!--link UserRepository to SystemUser.SystemUser--><g id="link_UserRepository_SystemUser.SystemUser"><path codeLine="43" d="M208,694.3769 C208,694.3769 208,771.0869 208,771.0869 " fill="none" id="UserRepository-to-SystemUser.SystemUser" style="stroke:#181818;stroke-width:1.0;"/><polygon fill="#181818" points="208,776.0869,212,767.0869,208,771.0869,204,767.0869,208,776.0869" style="stroke:#181818;stroke-width:1.0;"/></g><!--SRC=[bL9VJy8m47_lfxWtDOHXV2I45oC9YIP6mWSukaCQkhPfRqOqV7VR3JR706DVkkr-Txy_jx1Lng77GbkvfHnoMcEfUMODBzGNmSEzkDamkp0UZPn6msMXCscBaTGOmZ1N-1wR1IlM14y6Lvf6kGhfXh0BJ0MKWRnWwu0jh2opBI1NdYGhQqGuyeDMXdZd2ApdZHNnE9HRV2Vmv6nGRBsY0Dy2ub66oQzH4YpZzBSZO5TNqna0QfsAuVOEnZ2F-2HgigX4fS9KLE2zs3TCyUk7aWrBvR5YU44JwmN5L6e8_8_fIDGmARFsI85zARdqbBdOhYBUDADhyjVs-sFS2NtoeJpenZA6DeGPodGTI4_owi4wJaAZkJRJJRUrKOjxZifQbyivJ2REKuWfOLhkT7eUc8nugpNvs83EQIKF-CQRxZHSpZLAwOd8ikb5Gd5HIUewk-dhBVtzNCVtj_Ideb_vd_aRXiDpG_jRJhYJQTtN2j4AoTf78Nu0]--></g></svg>