<?xml version="1.0" encoding="UTF-8" standalone="no"?><svg xmlns="http://www.w3.org/2000/svg" xmlns:xlink="http://www.w3.org/1999/xlink" contentStyleType="text/css" height="883px" preserveAspectRatio="none" style="width:1009px;height:883px;background:#FFFFFF;" version="1.1" viewBox="0 0 1009 883" width="1009px" zoomAndPan="magnify"><defs/><g><text fill="#000000" font-family="sans-serif" font-size="14" font-weight="bold" lengthAdjust="spacing" textLength="155" x="420" y="22.9951">Enable system user</text><!--cluster repositories--><g id="cluster_repositories"><path d="M344,613.7969 L483,613.7969 A3.75,3.75 0 0 1 485.5,616.2969 L492.5,643.0781 L831,643.0781 A2.5,2.5 0 0 1 833.5,645.5781 L833.5,742.2969 A2.5,2.5 0 0 1 831,744.7969 L344,744.7969 A2.5,2.5 0 0 1 341.5,742.2969 L341.5,616.2969 A2.5,2.5 0 0 1 344,613.7969 " fill="none" style="stroke:#000000;stroke-width:1.5;"/><line style="stroke:#000000;stroke-width:1.5;" x1="341.5" x2="492.5" y1="643.0781" y2="643.0781"/><text fill="#000000" font-family="sans-serif" font-size="20" font-weight="bold" lengthAdjust="spacing" textLength="138" x="345.5" y="634.3613">repositories</text></g><!--cluster infraestructure.persistence--><g id="cluster_infraestructure.persistence"><path d="M485,314.2969 L801,314.2969 A3.75,3.75 0 0 1 803.5,316.7969 L810.5,343.5781 L854,343.5781 A2.5,2.5 0 0 1 856.5,346.0781 L856.5,587.2969 A2.5,2.5 0 0 1 854,589.7969 L485,589.7969 A2.5,2.5 0 0 1 482.5,587.2969 L482.5,316.7969 A2.5,2.5 0 0 1 485,314.2969 " fill="none" style="stroke:#000000;stroke-width:1.5;"/><line style="stroke:#000000;stroke-width:1.5;" x1="482.5" x2="810.5" y1="343.5781" y2="343.5781"/><text fill="#000000" font-family="sans-serif" font-size="20" font-weight="bold" lengthAdjust="spacing" textLength="315" x="486.5" y="334.8613">infraestructure.persistence</text></g><!--cluster SystemUser--><g id="cluster_SystemUser"><path d="M306,768.7969 L443,768.7969 A3.75,3.75 0 0 1 445.5,771.2969 L452.5,798.0781 L487,798.0781 A2.5,2.5 0 0 1 489.5,800.5781 L489.5,874.2969 A2.5,2.5 0 0 1 487,876.7969 L306,876.7969 A2.5,2.5 0 0 1 303.5,874.2969 L303.5,771.2969 A2.5,2.5 0 0 1 306,768.7969 " fill="none" style="stroke:#000000;stroke-width:1.5;"/><line style="stroke:#000000;stroke-width:1.5;" x1="303.5" x2="452.5" y1="798.0781" y2="798.0781"/><text fill="#000000" font-family="sans-serif" font-size="20" font-weight="bold" lengthAdjust="spacing" textLength="136" x="307.5" y="789.3613">SystemUser</text></g><!--class UserRepository--><g id="elem_UserRepository"><rect codeLine="9" fill="#F1F1F1" height="73.2813" id="UserRepository" rx="2.5" ry="2.5" style="stroke:#181818;stroke-width:0.5;" width="459" x="358" y="655.7969"/><ellipse cx="507" cy="672.7969" fill="#B4A7E5" rx="12" ry="12" style="stroke:#181818;stroke-width:1.0;"/><path d="M502.1875,668.25 L502.1875,665.7188 L510.8594,665.7188 L510.8594,668.25 L507.9688,668.25 L507.9688,677.75 L510.8594,677.75 L510.8594,680.2969 L502.1875,680.2969 L502.1875,677.75 L505.0781,677.75 L505.0781,668.25 L502.1875,668.25 Z " fill="#000000"/><text fill="#000000" font-family="sans-serif" font-size="20" font-style="italic" lengthAdjust="spacing" textLength="152" x="529" y="679.7207">UserRepository</text><line style="stroke:#181818;stroke-width:0.5;" x1="359" x2="816" y1="689.7969" y2="689.7969"/><line style="stroke:#181818;stroke-width:0.5;" x1="359" x2="816" y1="697.7969" y2="697.7969"/><ellipse cx="369" cy="714.9375" fill="#84BE84" rx="3" ry="3" style="stroke:#038048;stroke-width:1.0;"/><text fill="#000000" font-family="sans-serif" font-size="20" lengthAdjust="spacing" textLength="432" x="379" y="720.3613">deactivatedUsers(): Iterable&lt;SystemUser&gt;</text></g><!--class PersistenceContext--><g id="elem_PersistenceContext"><rect codeLine="15" fill="#F1F1F1" height="73.2813" id="PersistenceContext" rx="2.5" ry="2.5" style="stroke:#181818;stroke-width:0.5;" width="343" x="498" y="356.2969"/><ellipse cx="569" cy="373.2969" fill="#ADD1B2" rx="12" ry="12" style="stroke:#181818;stroke-width:1.0;"/><path d="M572.0625,380.375 Q571.375,380.7344 570.625,380.9063 Q569.875,381.0781 569.0469,381.0781 Q566.0938,381.0781 564.5313,379.1406 Q562.9844,377.1875 562.9844,373.5156 Q562.9844,369.8438 564.5313,367.9063 Q566.0938,365.9531 569.0469,365.9531 Q569.875,365.9531 570.625,366.125 Q571.3906,366.2969 572.0625,366.6563 L572.0625,369.8594 Q571.3125,369.1719 570.6094,368.8594 Q569.9219,368.5469 569.1719,368.5469 Q567.5938,368.5469 566.7813,369.7969 Q565.9844,371.0469 565.9844,373.5156 Q565.9844,375.9844 566.7813,377.2344 Q567.5938,378.4844 569.1719,378.4844 Q569.9219,378.4844 570.6094,378.1719 Q571.3125,377.8594 572.0625,377.1719 L572.0625,380.375 Z " fill="#000000"/><text fill="#000000" font-family="sans-serif" font-size="20" lengthAdjust="spacing" textLength="192" x="591" y="380.2207">PersistenceContext</text><line style="stroke:#181818;stroke-width:0.5;" x1="499" x2="840" y1="390.2969" y2="390.2969"/><ellipse cx="509" cy="407.4375" fill="none" rx="3" ry="3" style="stroke:#038048;stroke-width:1.0;"/><text fill="#000000" font-family="sans-serif" font-size="20" lengthAdjust="spacing" textLength="316" x="519" y="412.8613">repositories : RepositoryFactory</text><line style="stroke:#181818;stroke-width:0.5;" x1="499" x2="840" y1="421.5781" y2="421.5781"/></g><!--class RepositoryFactory--><g id="elem_RepositoryFactory"><rect codeLine="19" fill="#F1F1F1" height="73.2813" id="RepositoryFactory" rx="2.5" ry="2.5" style="stroke:#181818;stroke-width:0.5;" width="339" x="501" y="500.7969"/><ellipse cx="575" cy="517.7969" fill="#B4A7E5" rx="12" ry="12" style="stroke:#181818;stroke-width:1.0;"/><path d="M570.1875,513.25 L570.1875,510.7188 L578.8594,510.7188 L578.8594,513.25 L575.9688,513.25 L575.9688,522.75 L578.8594,522.75 L578.8594,525.2969 L570.1875,525.2969 L570.1875,522.75 L573.0781,522.75 L573.0781,513.25 L570.1875,513.25 Z " fill="#000000"/><text fill="#000000" font-family="sans-serif" font-size="20" font-style="italic" lengthAdjust="spacing" textLength="182" x="597" y="524.7207">RepositoryFactory</text><line style="stroke:#181818;stroke-width:0.5;" x1="502" x2="839" y1="534.7969" y2="534.7969"/><line style="stroke:#181818;stroke-width:0.5;" x1="502" x2="839" y1="542.7969" y2="542.7969"/><ellipse cx="512" cy="559.9375" fill="#84BE84" rx="3" ry="3" style="stroke:#038048;stroke-width:1.0;"/><text fill="#000000" font-family="sans-serif" font-size="20" lengthAdjust="spacing" textLength="312" x="522" y="565.3613">systemUsers() : UserRepository</text></g><!--class SystemUser.SystemUser--><g id="elem_SystemUser.SystemUser"><rect fill="#F1F1F1" height="50" id="SystemUser.SystemUser" rx="2.5" ry="2.5" style="stroke:#181818;stroke-width:0.5;" width="153" x="320" y="810.7969"/><ellipse cx="336" cy="827.7969" fill="#ADD1B2" rx="12" ry="12" style="stroke:#181818;stroke-width:1.0;"/><path d="M339.0625,834.875 Q338.375,835.2344 337.625,835.4063 Q336.875,835.5781 336.0469,835.5781 Q333.0938,835.5781 331.5313,833.6406 Q329.9844,831.6875 329.9844,828.0156 Q329.9844,824.3438 331.5313,822.4063 Q333.0938,820.4531 336.0469,820.4531 Q336.875,820.4531 337.625,820.625 Q338.3906,820.7969 339.0625,821.1563 L339.0625,824.3594 Q338.3125,823.6719 337.6094,823.3594 Q336.9219,823.0469 336.1719,823.0469 Q334.5938,823.0469 333.7813,824.2969 Q332.9844,825.5469 332.9844,828.0156 Q332.9844,830.4844 333.7813,831.7344 Q334.5938,832.9844 336.1719,832.9844 Q336.9219,832.9844 337.6094,832.6719 Q338.3125,832.3594 339.0625,831.6719 L339.0625,834.875 Z " fill="#000000"/><text fill="#000000" font-family="sans-serif" font-size="20" lengthAdjust="spacing" textLength="119" x="351" y="834.7207">SystemUser</text><line style="stroke:#181818;stroke-width:0.5;" x1="321" x2="472" y1="844.7969" y2="844.7969"/><line style="stroke:#181818;stroke-width:0.5;" x1="321" x2="472" y1="852.7969" y2="852.7969"/></g><!--class EnableSystemUserUI--><g id="elem_EnableSystemUserUI"><rect codeLine="24" fill="#F1F1F1" height="72.5625" id="EnableSystemUserUI" rx="2.5" ry="2.5" style="stroke:#181818;stroke-width:0.5;" width="243" x="660" y="44.2969"/><ellipse cx="676" cy="72.5781" fill="#ADD1B2" rx="12" ry="12" style="stroke:#181818;stroke-width:1.0;"/><path d="M679.0625,79.6563 Q678.375,80.0156 677.625,80.1875 Q676.875,80.3594 676.0469,80.3594 Q673.0938,80.3594 671.5313,78.4219 Q669.9844,76.4688 669.9844,72.7969 Q669.9844,69.125 671.5313,67.1875 Q673.0938,65.2344 676.0469,65.2344 Q676.875,65.2344 677.625,65.4063 Q678.3906,65.5781 679.0625,65.9375 L679.0625,69.1406 Q678.3125,68.4531 677.6094,68.1406 Q676.9219,67.8281 676.1719,67.8281 Q674.5938,67.8281 673.7813,69.0781 Q672.9844,70.3281 672.9844,72.7969 Q672.9844,75.2656 673.7813,76.5156 Q674.5938,77.7656 676.1719,77.7656 Q676.9219,77.7656 677.6094,77.4531 Q678.3125,77.1406 679.0625,76.4531 L679.0625,79.6563 Z " fill="#000000"/><text fill="#000000" font-family="sans-serif" font-size="20" font-style="italic" lengthAdjust="spacing" textLength="151" x="720" y="67.8613">«presentation»</text><text fill="#000000" font-family="sans-serif" font-size="20" lengthAdjust="spacing" textLength="209" x="691" y="91.1426">EnableSystemUserUI</text><line style="stroke:#181818;stroke-width:0.5;" x1="661" x2="902" y1="100.8594" y2="100.8594"/><line style="stroke:#181818;stroke-width:0.5;" x1="661" x2="902" y1="108.8594" y2="108.8594"/></g><!--class EnableSystemUserController--><g id="elem_EnableSystemUserController"><rect codeLine="26" fill="#F1F1F1" height="119.125" id="EnableSystemUserController" rx="2.5" ry="2.5" style="stroke:#181818;stroke-width:0.5;" width="441" x="561" y="177.2969"/><ellipse cx="633.5" cy="205.5781" fill="#ADD1B2" rx="12" ry="12" style="stroke:#181818;stroke-width:1.0;"/><path d="M636.5625,212.6563 Q635.875,213.0156 635.125,213.1875 Q634.375,213.3594 633.5469,213.3594 Q630.5938,213.3594 629.0313,211.4219 Q627.4844,209.4688 627.4844,205.7969 Q627.4844,202.125 629.0313,200.1875 Q630.5938,198.2344 633.5469,198.2344 Q634.375,198.2344 635.125,198.4063 Q635.8906,198.5781 636.5625,198.9375 L636.5625,202.1406 Q635.8125,201.4531 635.1094,201.1406 Q634.4219,200.8281 633.6719,200.8281 Q632.0938,200.8281 631.2813,202.0781 Q630.4844,203.3281 630.4844,205.7969 Q630.4844,208.2656 631.2813,209.5156 Q632.0938,210.7656 633.6719,210.7656 Q634.4219,210.7656 635.1094,210.4531 Q635.8125,210.1406 636.5625,209.4531 L636.5625,212.6563 Z " fill="#000000"/><text fill="#000000" font-family="sans-serif" font-size="20" font-style="italic" lengthAdjust="spacing" textLength="136" x="731" y="200.8613">«application»</text><text fill="#000000" font-family="sans-serif" font-size="20" lengthAdjust="spacing" textLength="287" x="655.5" y="224.1426">EnableSystemUserController</text><line style="stroke:#181818;stroke-width:0.5;" x1="562" x2="1001" y1="233.8594" y2="233.8594"/><line style="stroke:#181818;stroke-width:0.5;" x1="562" x2="1001" y1="241.8594" y2="241.8594"/><ellipse cx="572" cy="259" fill="#84BE84" rx="3" ry="3" style="stroke:#038048;stroke-width:1.0;"/><text fill="#000000" font-family="sans-serif" font-size="20" lengthAdjust="spacing" textLength="414" x="582" y="264.4238">listSystemUser() : Iterable&lt;SystemUser&gt;</text><ellipse cx="572" cy="282.2813" fill="#84BE84" rx="3" ry="3" style="stroke:#038048;stroke-width:1.0;"/><text fill="#000000" font-family="sans-serif" font-size="20" lengthAdjust="spacing" textLength="380" x="582" y="287.7051">enableSystemUser(systemUser) : void</text></g><!--class UserManagementService--><g id="elem_UserManagementService"><rect codeLine="30" fill="#F1F1F1" height="95.8438" id="UserManagementService" rx="2.5" ry="2.5" style="stroke:#181818;stroke-width:0.5;" width="459" x="7" y="489.2969"/><ellipse cx="107" cy="517.5781" fill="#ADD1B2" rx="12" ry="12" style="stroke:#181818;stroke-width:1.0;"/><path d="M110.0625,524.6563 Q109.375,525.0156 108.625,525.1875 Q107.875,525.3594 107.0469,525.3594 Q104.0938,525.3594 102.5313,523.4219 Q100.9844,521.4688 100.9844,517.7969 Q100.9844,514.125 102.5313,512.1875 Q104.0938,510.2344 107.0469,510.2344 Q107.875,510.2344 108.625,510.4063 Q109.3906,510.5781 110.0625,510.9375 L110.0625,514.1406 Q109.3125,513.4531 108.6094,513.1406 Q107.9219,512.8281 107.1719,512.8281 Q105.5938,512.8281 104.7813,514.0781 Q103.9844,515.3281 103.9844,517.7969 Q103.9844,520.2656 104.7813,521.5156 Q105.5938,522.7656 107.1719,522.7656 Q107.9219,522.7656 108.6094,522.4531 Q109.3125,522.1406 110.0625,521.4531 L110.0625,524.6563 Z " fill="#000000"/><text fill="#000000" font-family="sans-serif" font-size="20" font-style="italic" lengthAdjust="spacing" textLength="95" x="206.5" y="512.8613">«service»</text><text fill="#000000" font-family="sans-serif" font-size="20" lengthAdjust="spacing" textLength="250" x="129" y="536.1426">UserManagementService</text><line style="stroke:#181818;stroke-width:0.5;" x1="8" x2="465" y1="545.8594" y2="545.8594"/><line style="stroke:#181818;stroke-width:0.5;" x1="8" x2="465" y1="553.8594" y2="553.8594"/><ellipse cx="18" cy="571" fill="#84BE84" rx="3" ry="3" style="stroke:#038048;stroke-width:1.0;"/><text fill="#000000" font-family="sans-serif" font-size="20" lengthAdjust="spacing" textLength="432" x="28" y="576.4238">deactivatedUsers(): Iterable&lt;SystemUser&gt;</text></g><!--link EnableSystemUserUI to EnableSystemUserController--><g id="link_EnableSystemUserUI_EnableSystemUserController"><path codeLine="34" d="M781.5,117.3769 C781.5,117.3769 781.5,172.2569 781.5,172.2569 " fill="none" id="EnableSystemUserUI-to-EnableSystemUserController" style="stroke:#181818;stroke-width:1.0;stroke-dasharray:7.0,7.0;"/><polygon fill="#181818" points="781.5,177.2569,785.5,168.2569,781.5,172.2569,777.5,168.2569,781.5,177.2569" style="stroke:#181818;stroke-width:1.0;"/></g><!--link EnableSystemUserController to PersistenceContext--><g id="link_EnableSystemUserController_PersistenceContext"><path codeLine="35" d="M701,296.6669 C701,296.6669 701,350.8769 701,350.8769 " fill="none" id="EnableSystemUserController-to-PersistenceContext" style="stroke:#181818;stroke-width:1.0;stroke-dasharray:7.0,7.0;"/><polygon fill="#181818" points="701,355.8769,705,346.8769,701,350.8769,697,346.8769,701,355.8769" style="stroke:#181818;stroke-width:1.0;"/></g><!--link EnableSystemUserController to RepositoryFactory--><g id="link_EnableSystemUserController_RepositoryFactory"><path codeLine="36" d="M921.5,296.6269 C921.5,384.4069 921.5,537.7969 921.5,537.7969 C921.5,537.7969 845.01,537.7969 845.01,537.7969 " fill="none" id="EnableSystemUserController-to-RepositoryFactory" style="stroke:#181818;stroke-width:1.0;stroke-dasharray:7.0,7.0;"/><polygon fill="#181818" points="840.01,537.7969,849.01,541.7969,845.01,537.7969,849.01,533.7969,840.01,537.7969" style="stroke:#181818;stroke-width:1.0;"/></g><!--link EnableSystemUserController to UserRepository--><g id="link_EnableSystemUserController_UserRepository"><path codeLine="37" d="M560.69,256.7969 C515.8,256.7969 482,256.7969 482,256.7969 C482,256.7969 482,650.5369 482,650.5369 " fill="none" id="EnableSystemUserController-to-UserRepository" style="stroke:#181818;stroke-width:1.0;stroke-dasharray:7.0,7.0;"/><polygon fill="#181818" points="482,655.5369,486,646.5369,482,650.5369,478,646.5369,482,655.5369" style="stroke:#181818;stroke-width:1.0;"/></g><!--link EnableSystemUserController to UserManagementService--><g id="link_EnableSystemUserController_UserManagementService"><path codeLine="38" d="M560.61,217.7969 C409.54,217.7969 236.5,217.7969 236.5,217.7969 C236.5,217.7969 236.5,484.1169 236.5,484.1169 " fill="none" id="EnableSystemUserController-to-UserManagementService" style="stroke:#181818;stroke-width:1.0;stroke-dasharray:7.0,7.0;"/><polygon fill="#181818" points="236.5,489.1169,240.5,480.1169,236.5,484.1169,232.5,480.1169,236.5,489.1169" style="stroke:#181818;stroke-width:1.0;"/></g><!--link UserManagementService to UserRepository--><g id="link_UserManagementService_UserRepository"><path codeLine="39" d="M412,585.4869 C412,585.4869 412,650.4669 412,650.4669 " fill="none" id="UserManagementService-to-UserRepository" style="stroke:#181818;stroke-width:1.0;stroke-dasharray:7.0,7.0;"/><polygon fill="#181818" points="412,655.4669,416,646.4669,412,650.4669,408,646.4669,412,655.4669" style="stroke:#181818;stroke-width:1.0;"/></g><!--link UserManagementService to SystemUser.SystemUser--><g id="link_UserManagementService_SystemUser.SystemUser"><path codeLine="40" d="M339,585.5869 C339,585.5869 339,805.5269 339,805.5269 " fill="none" id="UserManagementService-to-SystemUser.SystemUser" style="stroke:#181818;stroke-width:1.0;stroke-dasharray:7.0,7.0;"/><polygon fill="#181818" points="339,810.5269,343,801.5269,339,805.5269,335,801.5269,339,810.5269" style="stroke:#181818;stroke-width:1.0;"/></g><!--link PersistenceContext to RepositoryFactory--><g id="link_PersistenceContext_RepositoryFactory"><path codeLine="41" d="M670.5,429.6369 C670.5,429.6369 670.5,495.7769 670.5,495.7769 " fill="none" id="PersistenceContext-to-RepositoryFactory" style="stroke:#181818;stroke-width:1.0;"/><polygon fill="#181818" points="670.5,500.7769,674.5,491.7769,670.5,495.7769,666.5,491.7769,670.5,500.7769" style="stroke:#181818;stroke-width:1.0;"/></g><!--link RepositoryFactory to UserRepository--><g id="link_RepositoryFactory_UserRepository"><path codeLine="42" d="M659,574.0269 C659,574.0269 659,650.5569 659,650.5569 " fill="none" id="RepositoryFactory-to-UserRepository" style="stroke:#181818;stroke-width:1.0;"/><polygon fill="#181818" points="659,655.5569,663,646.5569,659,650.5569,655,646.5569,659,655.5569" style="stroke:#181818;stroke-width:1.0;"/></g><!--link UserRepository to SystemUser.SystemUser--><g id="link_UserRepository_SystemUser.SystemUser"><path codeLine="43" d="M415.5,728.8769 C415.5,728.8769 415.5,805.5869 415.5,805.5869 " fill="none" id="UserRepository-to-SystemUser.SystemUser" style="stroke:#181818;stroke-width:1.0;"/><polygon fill="#181818" points="415.5,810.5869,419.5,801.5869,415.5,805.5869,411.5,801.5869,415.5,810.5869" style="stroke:#181818;stroke-width:1.0;"/></g><!--SRC=[ZL9TJy8m57tlhxXlOWZ3-4WMNemcFfWO2J-WTXTiwDgclIEYyRzxkw4LDeI-RElEwVcuZHjjlGooDavji88ALx8nzE0iBVG7mksDk7eZyd4sdNeZBJMrAPIhfyh862ULbcic2z9a4EwjVEL7t4N26fg8GP3pG0vU7P6heT815MbdHVpH1QCjqiuZk41lJl3oKcta6Y6WTr6J2neZV0hWfIrXM4c5iEJJNtu0k-vlMcEE85bZAmch18gZwnayCYrvAnUjjxG_RobVuYiBQhiA4YE5Hb4JiF3CreothDSfjAdXEU_VSL7uJllVuqFFCyWE7zWKF_QYHs5wCFWRAFvwvYnyw67q7ACprmqXvrm-GbdwW14joTJzV7uAci84Pmm6faZlZLPxncy-mxapeRLpijinu970A4T9pAtJ5HllpAJD9sbv3ZKxNM3OQcwcB6FtziV3nGFcJWRQA8hvFyd5FwKaPd_svnZzEt26S3JV2z2ztiHmcmEddmPcnIA_Ye6xFvaCXUpVwOGRKC-VBM9OLdm3]--></g></svg>