<?xml version="1.0" encoding="UTF-8" standalone="no"?><svg xmlns="http://www.w3.org/2000/svg" xmlns:xlink="http://www.w3.org/1999/xlink" contentStyleType="text/css" height="689px" preserveAspectRatio="none" style="width:3272px;height:689px;background:#FFFFFF;" version="1.1" viewBox="0 0 3272 689" width="3272px" zoomAndPan="magnify"><defs/><g><text fill="#000000" font-family="sans-serif" font-size="14" font-weight="bold" lengthAdjust="spacing" textLength="594" x="1329.5" y="32.9951">Domain Model Extract of System User Registration, management and listing</text><!--cluster SystemUser--><g id="cluster_SystemUser"><path d="M74.5,278.2969 L231.5,278.2969 A3.75,3.75 0 0 1 234,280.7969 L241,327.5781 L1106.5,327.5781 A2.5,2.5 0 0 1 1109,330.0781 L1109,679.7969 A2.5,2.5 0 0 1 1106.5,682.2969 L74.5,682.2969 A2.5,2.5 0 0 1 72,679.7969 L72,280.7969 A2.5,2.5 0 0 1 74.5,278.2969 " fill="#D3D3D3" style="stroke:#000000;stroke-width:1.5;"/><line style="stroke:#000000;stroke-width:1.5;" x1="72" x2="241" y1="327.5781" y2="327.5781"/><text fill="#000000" font-family="sans-serif" font-size="20" font-weight="bold" lengthAdjust="spacing" textLength="136" x="86" y="308.8613">SystemUser</text></g><!--cluster Manager--><g id="cluster_Manager"><path d="M90.5,63.2969 L211.5,63.2969 A3.75,3.75 0 0 1 214,65.7969 L221,112.5781 L259.5,112.5781 A2.5,2.5 0 0 1 262,115.0781 L262,251.7969 A2.5,2.5 0 0 1 259.5,254.2969 L90.5,254.2969 A2.5,2.5 0 0 1 88,251.7969 L88,65.7969 A2.5,2.5 0 0 1 90.5,63.2969 " fill="#D3D3D3" style="stroke:#000000;stroke-width:1.5;"/><line style="stroke:#000000;stroke-width:1.5;" x1="88" x2="221" y1="112.5781" y2="112.5781"/><text fill="#000000" font-family="sans-serif" font-size="20" font-weight="bold" lengthAdjust="spacing" textLength="100" x="102" y="93.8613">Manager</text></g><!--cluster Teacher--><g id="cluster_Teacher"><path d="M2227.5,491.2969 L2340.5,491.2969 A3.75,3.75 0 0 1 2343,493.7969 L2350,540.5781 L2666.5,540.5781 A2.5,2.5 0 0 1 2669,543.0781 L2669,679.7969 A2.5,2.5 0 0 1 2666.5,682.2969 L2227.5,682.2969 A2.5,2.5 0 0 1 2225,679.7969 L2225,493.7969 A2.5,2.5 0 0 1 2227.5,491.2969 " fill="#D3D3D3" style="stroke:#000000;stroke-width:1.5;"/><line style="stroke:#000000;stroke-width:1.5;" x1="2225" x2="2350" y1="540.5781" y2="540.5781"/><text fill="#000000" font-family="sans-serif" font-size="20" font-weight="bold" lengthAdjust="spacing" textLength="92" x="2239" y="521.8613">Teacher</text></g><!--cluster Student--><g id="cluster_Student"><path d="M2719.5,491.2969 L2830.5,491.2969 A3.75,3.75 0 0 1 2833,493.7969 L2840,540.5781 L3262.5,540.5781 A2.5,2.5 0 0 1 3265,543.0781 L3265,679.7969 A2.5,2.5 0 0 1 3262.5,682.2969 L2719.5,682.2969 A2.5,2.5 0 0 1 2717,679.7969 L2717,493.7969 A2.5,2.5 0 0 1 2719.5,491.2969 " fill="#D3D3D3" style="stroke:#000000;stroke-width:1.5;"/><line style="stroke:#000000;stroke-width:1.5;" x1="2717" x2="2840" y1="540.5781" y2="540.5781"/><text fill="#000000" font-family="sans-serif" font-size="20" font-weight="bold" lengthAdjust="spacing" textLength="90" x="2731" y="521.8613">Student</text></g><!--cluster eCourseUser--><g id="cluster_eCourseUser"><path d="M1158.5,278.2969 L1324.5,278.2969 A3.75,3.75 0 0 1 1327,280.7969 L1334,327.5781 L2198.5,327.5781 A2.5,2.5 0 0 1 2201,330.0781 L2201,679.7969 A2.5,2.5 0 0 1 2198.5,682.2969 L1158.5,682.2969 A2.5,2.5 0 0 1 1156,679.7969 L1156,280.7969 A2.5,2.5 0 0 1 1158.5,278.2969 " fill="#D3D3D3" style="stroke:#000000;stroke-width:1.5;"/><line style="stroke:#000000;stroke-width:1.5;" x1="1156" x2="1334" y1="327.5781" y2="327.5781"/><text fill="#000000" font-family="sans-serif" font-size="20" font-weight="bold" lengthAdjust="spacing" textLength="145" x="1170" y="308.8613">eCourseUser</text></g><!--class SystemUser--><g id="elem_SystemUser"><rect codeLine="16" fill="#F1F1F1" height="112.5625" id="SystemUser" rx="2.5" ry="2.5" style="stroke:#181818;stroke-width:0.5;" width="173" x="88.5" y="340.2969"/><ellipse cx="104.5" cy="388.5781" fill="#ADD1B2" rx="12" ry="12" style="stroke:#181818;stroke-width:1.0;"/><path d="M107.5625,395.6563 Q106.875,396.0156 106.125,396.1875 Q105.375,396.3594 104.5469,396.3594 Q101.5938,396.3594 100.0313,394.4219 Q98.4844,392.4688 98.4844,388.7969 Q98.4844,385.125 100.0313,383.1875 Q101.5938,381.2344 104.5469,381.2344 Q105.375,381.2344 106.125,381.4063 Q106.8906,381.5781 107.5625,381.9375 L107.5625,385.1406 Q106.8125,384.4531 106.1094,384.1406 Q105.4219,383.8281 104.6719,383.8281 Q103.0938,383.8281 102.2813,385.0781 Q101.4844,386.3281 101.4844,388.7969 Q101.4844,391.2656 102.2813,392.5156 Q103.0938,393.7656 104.6719,393.7656 Q105.4219,393.7656 106.1094,393.4531 Q106.8125,393.1406 107.5625,392.4531 L107.5625,395.6563 Z " fill="#000000"/><text fill="#000000" font-family="sans-serif" font-size="20" font-style="italic" lengthAdjust="spacing" textLength="64" x="157" y="373.8613">«root»</text><text fill="#000000" font-family="sans-serif" font-size="20" lengthAdjust="spacing" textLength="119" x="129.5" y="417.1426">SystemUser</text><line style="stroke:#181818;stroke-width:0.5;" x1="89.5" x2="260.5" y1="436.8594" y2="436.8594"/><line style="stroke:#181818;stroke-width:0.5;" x1="89.5" x2="260.5" y1="444.8594" y2="444.8594"/></g><!--class email--><g id="elem_email"><rect codeLine="19" fill="#F1F1F1" height="112.5625" id="email" rx="2.5" ry="2.5" style="stroke:#181818;stroke-width:0.5;" width="197" x="341.5" y="340.2969"/><ellipse cx="357.5" cy="388.5781" fill="#ADD1B2" rx="12" ry="12" style="stroke:#181818;stroke-width:1.0;"/><path d="M360.5625,395.6563 Q359.875,396.0156 359.125,396.1875 Q358.375,396.3594 357.5469,396.3594 Q354.5938,396.3594 353.0313,394.4219 Q351.4844,392.4688 351.4844,388.7969 Q351.4844,385.125 353.0313,383.1875 Q354.5938,381.2344 357.5469,381.2344 Q358.375,381.2344 359.125,381.4063 Q359.8906,381.5781 360.5625,381.9375 L360.5625,385.1406 Q359.8125,384.4531 359.1094,384.1406 Q358.4219,383.8281 357.6719,383.8281 Q356.0938,383.8281 355.2813,385.0781 Q354.4844,386.3281 354.4844,388.7969 Q354.4844,391.2656 355.2813,392.5156 Q356.0938,393.7656 357.6719,393.7656 Q358.4219,393.7656 359.1094,393.4531 Q359.8125,393.1406 360.5625,392.4531 L360.5625,395.6563 Z " fill="#000000"/><text fill="#000000" font-family="sans-serif" font-size="20" font-style="italic" lengthAdjust="spacing" textLength="147" x="380.5" y="373.8613">«value object»</text><text fill="#000000" font-family="sans-serif" font-size="20" lengthAdjust="spacing" textLength="56" x="426" y="417.1426">email</text><line style="stroke:#181818;stroke-width:0.5;" x1="342.5" x2="537.5" y1="436.8594" y2="436.8594"/><line style="stroke:#181818;stroke-width:0.5;" x1="342.5" x2="537.5" y1="444.8594" y2="444.8594"/></g><!--class password--><g id="elem_password"><rect codeLine="20" fill="#F1F1F1" height="112.5625" id="password" rx="2.5" ry="2.5" style="stroke:#181818;stroke-width:0.5;" width="197" x="618.5" y="340.2969"/><ellipse cx="634.5" cy="388.5781" fill="#ADD1B2" rx="12" ry="12" style="stroke:#181818;stroke-width:1.0;"/><path d="M637.5625,395.6563 Q636.875,396.0156 636.125,396.1875 Q635.375,396.3594 634.5469,396.3594 Q631.5938,396.3594 630.0313,394.4219 Q628.4844,392.4688 628.4844,388.7969 Q628.4844,385.125 630.0313,383.1875 Q631.5938,381.2344 634.5469,381.2344 Q635.375,381.2344 636.125,381.4063 Q636.8906,381.5781 637.5625,381.9375 L637.5625,385.1406 Q636.8125,384.4531 636.1094,384.1406 Q635.4219,383.8281 634.6719,383.8281 Q633.0938,383.8281 632.2813,385.0781 Q631.4844,386.3281 631.4844,388.7969 Q631.4844,391.2656 632.2813,392.5156 Q633.0938,393.7656 634.6719,393.7656 Q635.4219,393.7656 636.1094,393.4531 Q636.8125,393.1406 637.5625,392.4531 L637.5625,395.6563 Z " fill="#000000"/><text fill="#000000" font-family="sans-serif" font-size="20" font-style="italic" lengthAdjust="spacing" textLength="147" x="657.5" y="373.8613">«value object»</text><text fill="#000000" font-family="sans-serif" font-size="20" lengthAdjust="spacing" textLength="95" x="683.5" y="417.1426">password</text><line style="stroke:#181818;stroke-width:0.5;" x1="619.5" x2="814.5" y1="436.8594" y2="436.8594"/><line style="stroke:#181818;stroke-width:0.5;" x1="619.5" x2="814.5" y1="444.8594" y2="444.8594"/></g><!--class firstname--><g id="elem_firstname"><rect codeLine="21" fill="#F1F1F1" height="112.5625" id="firstname" rx="2.5" ry="2.5" style="stroke:#181818;stroke-width:0.5;" width="197" x="895.5" y="340.2969"/><ellipse cx="911.5" cy="388.5781" fill="#ADD1B2" rx="12" ry="12" style="stroke:#181818;stroke-width:1.0;"/><path d="M914.5625,395.6563 Q913.875,396.0156 913.125,396.1875 Q912.375,396.3594 911.5469,396.3594 Q908.5938,396.3594 907.0313,394.4219 Q905.4844,392.4688 905.4844,388.7969 Q905.4844,385.125 907.0313,383.1875 Q908.5938,381.2344 911.5469,381.2344 Q912.375,381.2344 913.125,381.4063 Q913.8906,381.5781 914.5625,381.9375 L914.5625,385.1406 Q913.8125,384.4531 913.1094,384.1406 Q912.4219,383.8281 911.6719,383.8281 Q910.0938,383.8281 909.2813,385.0781 Q908.4844,386.3281 908.4844,388.7969 Q908.4844,391.2656 909.2813,392.5156 Q910.0938,393.7656 911.6719,393.7656 Q912.4219,393.7656 913.1094,393.4531 Q913.8125,393.1406 914.5625,392.4531 L914.5625,395.6563 Z " fill="#000000"/><text fill="#000000" font-family="sans-serif" font-size="20" font-style="italic" lengthAdjust="spacing" textLength="147" x="934.5" y="373.8613">«value object»</text><text fill="#000000" font-family="sans-serif" font-size="20" lengthAdjust="spacing" textLength="96" x="960" y="417.1426">firstname</text><line style="stroke:#181818;stroke-width:0.5;" x1="896.5" x2="1091.5" y1="436.8594" y2="436.8594"/><line style="stroke:#181818;stroke-width:0.5;" x1="896.5" x2="1091.5" y1="444.8594" y2="444.8594"/></g><!--class lastname--><g id="elem_lastname"><rect codeLine="22" fill="#F1F1F1" height="112.5625" id="lastname" rx="2.5" ry="2.5" style="stroke:#181818;stroke-width:0.5;" width="197" x="341.5" y="553.2969"/><ellipse cx="357.5" cy="601.5781" fill="#ADD1B2" rx="12" ry="12" style="stroke:#181818;stroke-width:1.0;"/><path d="M360.5625,608.6563 Q359.875,609.0156 359.125,609.1875 Q358.375,609.3594 357.5469,609.3594 Q354.5938,609.3594 353.0313,607.4219 Q351.4844,605.4688 351.4844,601.7969 Q351.4844,598.125 353.0313,596.1875 Q354.5938,594.2344 357.5469,594.2344 Q358.375,594.2344 359.125,594.4063 Q359.8906,594.5781 360.5625,594.9375 L360.5625,598.1406 Q359.8125,597.4531 359.1094,597.1406 Q358.4219,596.8281 357.6719,596.8281 Q356.0938,596.8281 355.2813,598.0781 Q354.4844,599.3281 354.4844,601.7969 Q354.4844,604.2656 355.2813,605.5156 Q356.0938,606.7656 357.6719,606.7656 Q358.4219,606.7656 359.1094,606.4531 Q359.8125,606.1406 360.5625,605.4531 L360.5625,608.6563 Z " fill="#000000"/><text fill="#000000" font-family="sans-serif" font-size="20" font-style="italic" lengthAdjust="spacing" textLength="147" x="380.5" y="586.8613">«value object»</text><text fill="#000000" font-family="sans-serif" font-size="20" lengthAdjust="spacing" textLength="93" x="407.5" y="630.1426">lastname</text><line style="stroke:#181818;stroke-width:0.5;" x1="342.5" x2="537.5" y1="649.8594" y2="649.8594"/><line style="stroke:#181818;stroke-width:0.5;" x1="342.5" x2="537.5" y1="657.8594" y2="657.8594"/></g><!--class username--><g id="elem_username"><rect codeLine="23" fill="#F1F1F1" height="112.5625" id="username" rx="2.5" ry="2.5" style="stroke:#181818;stroke-width:0.5;" width="197" x="618.5" y="553.2969"/><ellipse cx="634.5" cy="601.5781" fill="#ADD1B2" rx="12" ry="12" style="stroke:#181818;stroke-width:1.0;"/><path d="M637.5625,608.6563 Q636.875,609.0156 636.125,609.1875 Q635.375,609.3594 634.5469,609.3594 Q631.5938,609.3594 630.0313,607.4219 Q628.4844,605.4688 628.4844,601.7969 Q628.4844,598.125 630.0313,596.1875 Q631.5938,594.2344 634.5469,594.2344 Q635.375,594.2344 636.125,594.4063 Q636.8906,594.5781 637.5625,594.9375 L637.5625,598.1406 Q636.8125,597.4531 636.1094,597.1406 Q635.4219,596.8281 634.6719,596.8281 Q633.0938,596.8281 632.2813,598.0781 Q631.4844,599.3281 631.4844,601.7969 Q631.4844,604.2656 632.2813,605.5156 Q633.0938,606.7656 634.6719,606.7656 Q635.4219,606.7656 636.1094,606.4531 Q636.8125,606.1406 637.5625,605.4531 L637.5625,608.6563 Z " fill="#000000"/><text fill="#000000" font-family="sans-serif" font-size="20" font-style="italic" lengthAdjust="spacing" textLength="147" x="657.5" y="586.8613">«value object»</text><text fill="#000000" font-family="sans-serif" font-size="20" lengthAdjust="spacing" textLength="100" x="681" y="630.1426">username</text><line style="stroke:#181818;stroke-width:0.5;" x1="619.5" x2="814.5" y1="649.8594" y2="649.8594"/><line style="stroke:#181818;stroke-width:0.5;" x1="619.5" x2="814.5" y1="657.8594" y2="657.8594"/></g><!--class Role--><g id="elem_Role"><rect codeLine="25" fill="#F1F1F1" height="112.5625" id="Role" rx="2.5" ry="2.5" style="stroke:#181818;stroke-width:0.5;" width="197" x="895.5" y="553.2969"/><ellipse cx="911.5" cy="601.5781" fill="#ADD1B2" rx="12" ry="12" style="stroke:#181818;stroke-width:1.0;"/><path d="M914.5625,608.6563 Q913.875,609.0156 913.125,609.1875 Q912.375,609.3594 911.5469,609.3594 Q908.5938,609.3594 907.0313,607.4219 Q905.4844,605.4688 905.4844,601.7969 Q905.4844,598.125 907.0313,596.1875 Q908.5938,594.2344 911.5469,594.2344 Q912.375,594.2344 913.125,594.4063 Q913.8906,594.5781 914.5625,594.9375 L914.5625,598.1406 Q913.8125,597.4531 913.1094,597.1406 Q912.4219,596.8281 911.6719,596.8281 Q910.0938,596.8281 909.2813,598.0781 Q908.4844,599.3281 908.4844,601.7969 Q908.4844,604.2656 909.2813,605.5156 Q910.0938,606.7656 911.6719,606.7656 Q912.4219,606.7656 913.1094,606.4531 Q913.8125,606.1406 914.5625,605.4531 L914.5625,608.6563 Z " fill="#000000"/><text fill="#000000" font-family="sans-serif" font-size="20" font-style="italic" lengthAdjust="spacing" textLength="147" x="934.5" y="586.8613">«value object»</text><text fill="#000000" font-family="sans-serif" font-size="20" lengthAdjust="spacing" textLength="44" x="986" y="630.1426">Role</text><line style="stroke:#181818;stroke-width:0.5;" x1="896.5" x2="1091.5" y1="649.8594" y2="649.8594"/><line style="stroke:#181818;stroke-width:0.5;" x1="896.5" x2="1091.5" y1="657.8594" y2="657.8594"/></g><!--class Manager--><g id="elem_Manager"><rect codeLine="29" fill="#F1F1F1" height="112.5625" id="Manager" rx="2.5" ry="2.5" style="stroke:#181818;stroke-width:0.5;" width="141" x="104.5" y="125.2969"/><ellipse cx="120.5" cy="173.5781" fill="#ADD1B2" rx="12" ry="12" style="stroke:#181818;stroke-width:1.0;"/><path d="M123.5625,180.6563 Q122.875,181.0156 122.125,181.1875 Q121.375,181.3594 120.5469,181.3594 Q117.5938,181.3594 116.0313,179.4219 Q114.4844,177.4688 114.4844,173.7969 Q114.4844,170.125 116.0313,168.1875 Q117.5938,166.2344 120.5469,166.2344 Q121.375,166.2344 122.125,166.4063 Q122.8906,166.5781 123.5625,166.9375 L123.5625,170.1406 Q122.8125,169.4531 122.1094,169.1406 Q121.4219,168.8281 120.6719,168.8281 Q119.0938,168.8281 118.2813,170.0781 Q117.4844,171.3281 117.4844,173.7969 Q117.4844,176.2656 118.2813,177.5156 Q119.0938,178.7656 120.6719,178.7656 Q121.4219,178.7656 122.1094,178.4531 Q122.8125,178.1406 123.5625,177.4531 L123.5625,180.6563 Z " fill="#000000"/><text fill="#000000" font-family="sans-serif" font-size="20" font-style="italic" lengthAdjust="spacing" textLength="64" x="157" y="158.8613">«root»</text><text fill="#000000" font-family="sans-serif" font-size="20" lengthAdjust="spacing" textLength="87" x="145.5" y="202.1426">Manager</text><line style="stroke:#181818;stroke-width:0.5;" x1="105.5" x2="244.5" y1="221.8594" y2="221.8594"/><line style="stroke:#181818;stroke-width:0.5;" x1="105.5" x2="244.5" y1="229.8594" y2="229.8594"/></g><!--class Teacher--><g id="elem_Teacher"><rect codeLine="32" fill="#F1F1F1" height="112.5625" id="Teacher" rx="2.5" ry="2.5" style="stroke:#181818;stroke-width:0.5;" width="134" x="2519" y="553.2969"/><ellipse cx="2535" cy="601.5781" fill="#ADD1B2" rx="12" ry="12" style="stroke:#181818;stroke-width:1.0;"/><path d="M2538.0625,608.6563 Q2537.375,609.0156 2536.625,609.1875 Q2535.875,609.3594 2535.0469,609.3594 Q2532.0938,609.3594 2530.5313,607.4219 Q2528.9844,605.4688 2528.9844,601.7969 Q2528.9844,598.125 2530.5313,596.1875 Q2532.0938,594.2344 2535.0469,594.2344 Q2535.875,594.2344 2536.625,594.4063 Q2537.3906,594.5781 2538.0625,594.9375 L2538.0625,598.1406 Q2537.3125,597.4531 2536.6094,597.1406 Q2535.9219,596.8281 2535.1719,596.8281 Q2533.5938,596.8281 2532.7813,598.0781 Q2531.9844,599.3281 2531.9844,601.7969 Q2531.9844,604.2656 2532.7813,605.5156 Q2533.5938,606.7656 2535.1719,606.7656 Q2535.9219,606.7656 2536.6094,606.4531 Q2537.3125,606.1406 2538.0625,605.4531 L2538.0625,608.6563 Z " fill="#000000"/><text fill="#000000" font-family="sans-serif" font-size="20" font-style="italic" lengthAdjust="spacing" textLength="64" x="2568" y="586.8613">«root»</text><text fill="#000000" font-family="sans-serif" font-size="20" lengthAdjust="spacing" textLength="80" x="2560" y="630.1426">Teacher</text><line style="stroke:#181818;stroke-width:0.5;" x1="2520" x2="2652" y1="649.8594" y2="649.8594"/><line style="stroke:#181818;stroke-width:0.5;" x1="2520" x2="2652" y1="657.8594" y2="657.8594"/></g><!--class Acronym--><g id="elem_Acronym"><rect codeLine="35" fill="#F1F1F1" height="112.5625" id="Acronym" rx="2.5" ry="2.5" style="stroke:#181818;stroke-width:0.5;" width="197" x="2241.5" y="553.2969"/><ellipse cx="2257.5" cy="601.5781" fill="#ADD1B2" rx="12" ry="12" style="stroke:#181818;stroke-width:1.0;"/><path d="M2260.5625,608.6563 Q2259.875,609.0156 2259.125,609.1875 Q2258.375,609.3594 2257.5469,609.3594 Q2254.5938,609.3594 2253.0313,607.4219 Q2251.4844,605.4688 2251.4844,601.7969 Q2251.4844,598.125 2253.0313,596.1875 Q2254.5938,594.2344 2257.5469,594.2344 Q2258.375,594.2344 2259.125,594.4063 Q2259.8906,594.5781 2260.5625,594.9375 L2260.5625,598.1406 Q2259.8125,597.4531 2259.1094,597.1406 Q2258.4219,596.8281 2257.6719,596.8281 Q2256.0938,596.8281 2255.2813,598.0781 Q2254.4844,599.3281 2254.4844,601.7969 Q2254.4844,604.2656 2255.2813,605.5156 Q2256.0938,606.7656 2257.6719,606.7656 Q2258.4219,606.7656 2259.1094,606.4531 Q2259.8125,606.1406 2260.5625,605.4531 L2260.5625,608.6563 Z " fill="#000000"/><text fill="#000000" font-family="sans-serif" font-size="20" font-style="italic" lengthAdjust="spacing" textLength="147" x="2280.5" y="586.8613">«value object»</text><text fill="#000000" font-family="sans-serif" font-size="20" lengthAdjust="spacing" textLength="89" x="2309.5" y="630.1426">Acronym</text><line style="stroke:#181818;stroke-width:0.5;" x1="2242.5" x2="2437.5" y1="649.8594" y2="649.8594"/><line style="stroke:#181818;stroke-width:0.5;" x1="2242.5" x2="2437.5" y1="657.8594" y2="657.8594"/></g><!--class Student--><g id="elem_Student"><rect codeLine="38" fill="#F1F1F1" height="112.5625" id="Student" rx="2.5" ry="2.5" style="stroke:#181818;stroke-width:0.5;" width="134" x="3115" y="553.2969"/><ellipse cx="3131" cy="601.5781" fill="#ADD1B2" rx="12" ry="12" style="stroke:#181818;stroke-width:1.0;"/><path d="M3134.0625,608.6563 Q3133.375,609.0156 3132.625,609.1875 Q3131.875,609.3594 3131.0469,609.3594 Q3128.0938,609.3594 3126.5313,607.4219 Q3124.9844,605.4688 3124.9844,601.7969 Q3124.9844,598.125 3126.5313,596.1875 Q3128.0938,594.2344 3131.0469,594.2344 Q3131.875,594.2344 3132.625,594.4063 Q3133.3906,594.5781 3134.0625,594.9375 L3134.0625,598.1406 Q3133.3125,597.4531 3132.6094,597.1406 Q3131.9219,596.8281 3131.1719,596.8281 Q3129.5938,596.8281 3128.7813,598.0781 Q3127.9844,599.3281 3127.9844,601.7969 Q3127.9844,604.2656 3128.7813,605.5156 Q3129.5938,606.7656 3131.1719,606.7656 Q3131.9219,606.7656 3132.6094,606.4531 Q3133.3125,606.1406 3134.0625,605.4531 L3134.0625,608.6563 Z " fill="#000000"/><text fill="#000000" font-family="sans-serif" font-size="20" font-style="italic" lengthAdjust="spacing" textLength="83" x="3154.5" y="586.8613">«entity»</text><text fill="#000000" font-family="sans-serif" font-size="20" lengthAdjust="spacing" textLength="80" x="3156" y="630.1426">Student</text><line style="stroke:#181818;stroke-width:0.5;" x1="3116" x2="3248" y1="649.8594" y2="649.8594"/><line style="stroke:#181818;stroke-width:0.5;" x1="3116" x2="3248" y1="657.8594" y2="657.8594"/></g><!--class MechanographicNumber--><g id="elem_MechanographicNumber"><rect codeLine="41" fill="#F1F1F1" height="112.5625" id="MechanographicNumber" rx="2.5" ry="2.5" style="stroke:#181818;stroke-width:0.5;" width="301" x="2733.5" y="553.2969"/><ellipse cx="2749.5" cy="601.5781" fill="#ADD1B2" rx="12" ry="12" style="stroke:#181818;stroke-width:1.0;"/><path d="M2752.5625,608.6563 Q2751.875,609.0156 2751.125,609.1875 Q2750.375,609.3594 2749.5469,609.3594 Q2746.5938,609.3594 2745.0313,607.4219 Q2743.4844,605.4688 2743.4844,601.7969 Q2743.4844,598.125 2745.0313,596.1875 Q2746.5938,594.2344 2749.5469,594.2344 Q2750.375,594.2344 2751.125,594.4063 Q2751.8906,594.5781 2752.5625,594.9375 L2752.5625,598.1406 Q2751.8125,597.4531 2751.1094,597.1406 Q2750.4219,596.8281 2749.6719,596.8281 Q2748.0938,596.8281 2747.2813,598.0781 Q2746.4844,599.3281 2746.4844,601.7969 Q2746.4844,604.2656 2747.2813,605.5156 Q2748.0938,606.7656 2749.6719,606.7656 Q2750.4219,606.7656 2751.1094,606.4531 Q2751.8125,606.1406 2752.5625,605.4531 L2752.5625,608.6563 Z " fill="#000000"/><text fill="#000000" font-family="sans-serif" font-size="20" font-style="italic" lengthAdjust="spacing" textLength="147" x="2824.5" y="586.8613">«value object»</text><text fill="#000000" font-family="sans-serif" font-size="20" lengthAdjust="spacing" textLength="247" x="2774.5" y="630.1426">MechanographicNumber</text><line style="stroke:#181818;stroke-width:0.5;" x1="2734.5" x2="3033.5" y1="649.8594" y2="649.8594"/><line style="stroke:#181818;stroke-width:0.5;" x1="2734.5" x2="3033.5" y1="657.8594" y2="657.8594"/></g><!--class eCourseUser--><g id="elem_eCourseUser"><rect codeLine="44" fill="#F1F1F1" height="112.5625" id="eCourseUser" rx="2.5" ry="2.5" style="stroke:#181818;stroke-width:0.5;" width="180" x="1450" y="340.2969"/><ellipse cx="1466" cy="388.5781" fill="#ADD1B2" rx="12" ry="12" style="stroke:#181818;stroke-width:1.0;"/><path d="M1469.0625,395.6563 Q1468.375,396.0156 1467.625,396.1875 Q1466.875,396.3594 1466.0469,396.3594 Q1463.0938,396.3594 1461.5313,394.4219 Q1459.9844,392.4688 1459.9844,388.7969 Q1459.9844,385.125 1461.5313,383.1875 Q1463.0938,381.2344 1466.0469,381.2344 Q1466.875,381.2344 1467.625,381.4063 Q1468.3906,381.5781 1469.0625,381.9375 L1469.0625,385.1406 Q1468.3125,384.4531 1467.6094,384.1406 Q1466.9219,383.8281 1466.1719,383.8281 Q1464.5938,383.8281 1463.7813,385.0781 Q1462.9844,386.3281 1462.9844,388.7969 Q1462.9844,391.2656 1463.7813,392.5156 Q1464.5938,393.7656 1466.1719,393.7656 Q1466.9219,393.7656 1467.6094,393.4531 Q1468.3125,393.1406 1469.0625,392.4531 L1469.0625,395.6563 Z " fill="#000000"/><text fill="#000000" font-family="sans-serif" font-size="20" font-style="italic" lengthAdjust="spacing" textLength="64" x="1522" y="373.8613">«root»</text><text fill="#000000" font-family="sans-serif" font-size="20" lengthAdjust="spacing" textLength="126" x="1491" y="417.1426">eCourseUser</text><line style="stroke:#181818;stroke-width:0.5;" x1="1451" x2="1629" y1="436.8594" y2="436.8594"/><line style="stroke:#181818;stroke-width:0.5;" x1="1451" x2="1629" y1="444.8594" y2="444.8594"/></g><!--class ShortName--><g id="elem_ShortName"><rect codeLine="47" fill="#F1F1F1" height="112.5625" id="ShortName" rx="2.5" ry="2.5" style="stroke:#181818;stroke-width:0.5;" width="197" x="1172.5" y="340.2969"/><ellipse cx="1188.5" cy="388.5781" fill="#ADD1B2" rx="12" ry="12" style="stroke:#181818;stroke-width:1.0;"/><path d="M1191.5625,395.6563 Q1190.875,396.0156 1190.125,396.1875 Q1189.375,396.3594 1188.5469,396.3594 Q1185.5938,396.3594 1184.0313,394.4219 Q1182.4844,392.4688 1182.4844,388.7969 Q1182.4844,385.125 1184.0313,383.1875 Q1185.5938,381.2344 1188.5469,381.2344 Q1189.375,381.2344 1190.125,381.4063 Q1190.8906,381.5781 1191.5625,381.9375 L1191.5625,385.1406 Q1190.8125,384.4531 1190.1094,384.1406 Q1189.4219,383.8281 1188.6719,383.8281 Q1187.0938,383.8281 1186.2813,385.0781 Q1185.4844,386.3281 1185.4844,388.7969 Q1185.4844,391.2656 1186.2813,392.5156 Q1187.0938,393.7656 1188.6719,393.7656 Q1189.4219,393.7656 1190.1094,393.4531 Q1190.8125,393.1406 1191.5625,392.4531 L1191.5625,395.6563 Z " fill="#000000"/><text fill="#000000" font-family="sans-serif" font-size="20" font-style="italic" lengthAdjust="spacing" textLength="147" x="1211.5" y="373.8613">«value object»</text><text fill="#000000" font-family="sans-serif" font-size="20" lengthAdjust="spacing" textLength="113" x="1228.5" y="417.1426">ShortName</text><line style="stroke:#181818;stroke-width:0.5;" x1="1173.5" x2="1368.5" y1="436.8594" y2="436.8594"/><line style="stroke:#181818;stroke-width:0.5;" x1="1173.5" x2="1368.5" y1="444.8594" y2="444.8594"/></g><!--class FullName--><g id="elem_FullName"><rect codeLine="48" fill="#F1F1F1" height="112.5625" id="FullName" rx="2.5" ry="2.5" style="stroke:#181818;stroke-width:0.5;" width="197" x="1710.5" y="340.2969"/><ellipse cx="1726.5" cy="388.5781" fill="#ADD1B2" rx="12" ry="12" style="stroke:#181818;stroke-width:1.0;"/><path d="M1729.5625,395.6563 Q1728.875,396.0156 1728.125,396.1875 Q1727.375,396.3594 1726.5469,396.3594 Q1723.5938,396.3594 1722.0313,394.4219 Q1720.4844,392.4688 1720.4844,388.7969 Q1720.4844,385.125 1722.0313,383.1875 Q1723.5938,381.2344 1726.5469,381.2344 Q1727.375,381.2344 1728.125,381.4063 Q1728.8906,381.5781 1729.5625,381.9375 L1729.5625,385.1406 Q1728.8125,384.4531 1728.1094,384.1406 Q1727.4219,383.8281 1726.6719,383.8281 Q1725.0938,383.8281 1724.2813,385.0781 Q1723.4844,386.3281 1723.4844,388.7969 Q1723.4844,391.2656 1724.2813,392.5156 Q1725.0938,393.7656 1726.6719,393.7656 Q1727.4219,393.7656 1728.1094,393.4531 Q1728.8125,393.1406 1729.5625,392.4531 L1729.5625,395.6563 Z " fill="#000000"/><text fill="#000000" font-family="sans-serif" font-size="20" font-style="italic" lengthAdjust="spacing" textLength="147" x="1749.5" y="373.8613">«value object»</text><text fill="#000000" font-family="sans-serif" font-size="20" lengthAdjust="spacing" textLength="96" x="1775" y="417.1426">FullName</text><line style="stroke:#181818;stroke-width:0.5;" x1="1711.5" x2="1906.5" y1="436.8594" y2="436.8594"/><line style="stroke:#181818;stroke-width:0.5;" x1="1711.5" x2="1906.5" y1="444.8594" y2="444.8594"/></g><!--class BirthDate--><g id="elem_BirthDate"><rect codeLine="49" fill="#F1F1F1" height="112.5625" id="BirthDate" rx="2.5" ry="2.5" style="stroke:#181818;stroke-width:0.5;" width="197" x="1987.5" y="340.2969"/><ellipse cx="2003.5" cy="388.5781" fill="#ADD1B2" rx="12" ry="12" style="stroke:#181818;stroke-width:1.0;"/><path d="M2006.5625,395.6563 Q2005.875,396.0156 2005.125,396.1875 Q2004.375,396.3594 2003.5469,396.3594 Q2000.5938,396.3594 1999.0313,394.4219 Q1997.4844,392.4688 1997.4844,388.7969 Q1997.4844,385.125 1999.0313,383.1875 Q2000.5938,381.2344 2003.5469,381.2344 Q2004.375,381.2344 2005.125,381.4063 Q2005.8906,381.5781 2006.5625,381.9375 L2006.5625,385.1406 Q2005.8125,384.4531 2005.1094,384.1406 Q2004.4219,383.8281 2003.6719,383.8281 Q2002.0938,383.8281 2001.2813,385.0781 Q2000.4844,386.3281 2000.4844,388.7969 Q2000.4844,391.2656 2001.2813,392.5156 Q2002.0938,393.7656 2003.6719,393.7656 Q2004.4219,393.7656 2005.1094,393.4531 Q2005.8125,393.1406 2006.5625,392.4531 L2006.5625,395.6563 Z " fill="#000000"/><text fill="#000000" font-family="sans-serif" font-size="20" font-style="italic" lengthAdjust="spacing" textLength="147" x="2026.5" y="373.8613">«value object»</text><text fill="#000000" font-family="sans-serif" font-size="20" lengthAdjust="spacing" textLength="96" x="2052" y="417.1426">BirthDate</text><line style="stroke:#181818;stroke-width:0.5;" x1="1988.5" x2="2183.5" y1="436.8594" y2="436.8594"/><line style="stroke:#181818;stroke-width:0.5;" x1="1988.5" x2="2183.5" y1="444.8594" y2="444.8594"/></g><!--class Email--><g id="elem_Email"><rect codeLine="50" fill="#F1F1F1" height="112.5625" id="Email" rx="2.5" ry="2.5" style="stroke:#181818;stroke-width:0.5;" width="197" x="1172.5" y="553.2969"/><ellipse cx="1188.5" cy="601.5781" fill="#ADD1B2" rx="12" ry="12" style="stroke:#181818;stroke-width:1.0;"/><path d="M1191.5625,608.6563 Q1190.875,609.0156 1190.125,609.1875 Q1189.375,609.3594 1188.5469,609.3594 Q1185.5938,609.3594 1184.0313,607.4219 Q1182.4844,605.4688 1182.4844,601.7969 Q1182.4844,598.125 1184.0313,596.1875 Q1185.5938,594.2344 1188.5469,594.2344 Q1189.375,594.2344 1190.125,594.4063 Q1190.8906,594.5781 1191.5625,594.9375 L1191.5625,598.1406 Q1190.8125,597.4531 1190.1094,597.1406 Q1189.4219,596.8281 1188.6719,596.8281 Q1187.0938,596.8281 1186.2813,598.0781 Q1185.4844,599.3281 1185.4844,601.7969 Q1185.4844,604.2656 1186.2813,605.5156 Q1187.0938,606.7656 1188.6719,606.7656 Q1189.4219,606.7656 1190.1094,606.4531 Q1190.8125,606.1406 1191.5625,605.4531 L1191.5625,608.6563 Z " fill="#000000"/><text fill="#000000" font-family="sans-serif" font-size="20" font-style="italic" lengthAdjust="spacing" textLength="147" x="1211.5" y="586.8613">«value object»</text><text fill="#000000" font-family="sans-serif" font-size="20" lengthAdjust="spacing" textLength="57" x="1256.5" y="630.1426">Email</text><line style="stroke:#181818;stroke-width:0.5;" x1="1173.5" x2="1368.5" y1="649.8594" y2="649.8594"/><line style="stroke:#181818;stroke-width:0.5;" x1="1173.5" x2="1368.5" y1="657.8594" y2="657.8594"/></g><!--class TaxPayerNumber--><g id="elem_TaxPayerNumber"><rect codeLine="51" fill="#F1F1F1" height="112.5625" id="TaxPayerNumber" rx="2.5" ry="2.5" style="stroke:#181818;stroke-width:0.5;" width="225" x="1449.5" y="553.2969"/><ellipse cx="1465.5" cy="601.5781" fill="#ADD1B2" rx="12" ry="12" style="stroke:#181818;stroke-width:1.0;"/><path d="M1468.5625,608.6563 Q1467.875,609.0156 1467.125,609.1875 Q1466.375,609.3594 1465.5469,609.3594 Q1462.5938,609.3594 1461.0313,607.4219 Q1459.4844,605.4688 1459.4844,601.7969 Q1459.4844,598.125 1461.0313,596.1875 Q1462.5938,594.2344 1465.5469,594.2344 Q1466.375,594.2344 1467.125,594.4063 Q1467.8906,594.5781 1468.5625,594.9375 L1468.5625,598.1406 Q1467.8125,597.4531 1467.1094,597.1406 Q1466.4219,596.8281 1465.6719,596.8281 Q1464.0938,596.8281 1463.2813,598.0781 Q1462.4844,599.3281 1462.4844,601.7969 Q1462.4844,604.2656 1463.2813,605.5156 Q1464.0938,606.7656 1465.6719,606.7656 Q1466.4219,606.7656 1467.1094,606.4531 Q1467.8125,606.1406 1468.5625,605.4531 L1468.5625,608.6563 Z " fill="#000000"/><text fill="#000000" font-family="sans-serif" font-size="20" font-style="italic" lengthAdjust="spacing" textLength="147" x="1502.5" y="586.8613">«value object»</text><text fill="#000000" font-family="sans-serif" font-size="20" lengthAdjust="spacing" textLength="171" x="1490.5" y="630.1426">TaxPayerNumber</text><line style="stroke:#181818;stroke-width:0.5;" x1="1450.5" x2="1673.5" y1="649.8594" y2="649.8594"/><line style="stroke:#181818;stroke-width:0.5;" x1="1450.5" x2="1673.5" y1="657.8594" y2="657.8594"/></g><!--link Manager to SystemUser--><g id="link_Manager_SystemUser"><path codeLine="53" d="M139.75,238.5669 C139.75,238.5669 139.75,335.0869 139.75,335.0869 " fill="none" id="Manager-to-SystemUser" style="stroke:#181818;stroke-width:1.0;stroke-dasharray:7.0,7.0;"/><polygon fill="#181818" points="139.75,340.0869,143.7757,331.0983,139.7643,335.0869,135.7757,331.0755,139.75,340.0869" style="stroke:#181818;stroke-width:1.0;"/><text fill="#000000" font-family="sans-serif" font-size="20" lengthAdjust="spacing" textLength="73" x="55.75" y="271.3913">creates</text></g><!--link Manager to SystemUser--><g id="link_Manager_SystemUser"><path codeLine="55" d="M175,238.5669 C175,238.5669 175,335.0869 175,335.0869 " fill="none" id="Manager-to-SystemUser-1" style="stroke:#181818;stroke-width:1.0;stroke-dasharray:7.0,7.0;"/><polygon fill="#181818" points="175,340.0869,179.0257,331.0983,175.0143,335.0869,171.0257,331.0755,175,340.0869" style="stroke:#181818;stroke-width:1.0;"/><text fill="#000000" font-family="sans-serif" font-size="20" lengthAdjust="spacing" textLength="147" x="17" y="316.3913">enable/disable</text></g><!--link Manager to SystemUser--><g id="link_Manager_SystemUser"><path codeLine="56" d="M210.25,238.5669 C210.25,238.5669 210.25,335.0869 210.25,335.0869 " fill="none" id="Manager-to-SystemUser-2" style="stroke:#181818;stroke-width:1.0;stroke-dasharray:7.0,7.0;"/><polygon fill="#181818" points="210.25,340.0869,214.2757,331.0983,210.2643,335.0869,206.2757,331.0755,210.25,340.0869" style="stroke:#181818;stroke-width:1.0;"/><text fill="#000000" font-family="sans-serif" font-size="20" lengthAdjust="spacing" textLength="76" x="221.25" y="271.3913">view all</text></g><!--link Manager to eCourseUser--><g id="link_Manager_eCourseUser"><path codeLine="54" d="M245.61,163.2969 C529.19,163.2969 1570,163.2969 1570,163.2969 C1570,163.2969 1570,335.2769 1570,335.2769 " fill="none" id="Manager-to-eCourseUser" style="stroke:#181818;stroke-width:1.0;stroke-dasharray:7.0,7.0;"/><polygon fill="#181818" points="1570,340.2769,1574,331.2769,1570,335.2769,1566,331.2769,1570,340.2769" style="stroke:#181818;stroke-width:1.0;"/><text fill="#000000" font-family="sans-serif" font-size="20" lengthAdjust="spacing" textLength="73" x="909.8" y="147.8613">creates</text></g><!--link Manager to eCourseUser--><g id="link_Manager_eCourseUser"><path codeLine="57" d="M245.83,201.2969 C521.83,201.2969 1510,201.2969 1510,201.2969 C1510,201.2969 1510,335.2469 1510,335.2469 " fill="none" id="Manager-to-eCourseUser-1" style="stroke:#181818;stroke-width:1.0;stroke-dasharray:7.0,7.0;"/><polygon fill="#181818" points="1510,340.2469,1514,331.2469,1510,335.2469,1506,331.2469,1510,340.2469" style="stroke:#181818;stroke-width:1.0;"/><text fill="#000000" font-family="sans-serif" font-size="20" lengthAdjust="spacing" textLength="76" x="857.89" y="230.8613">view all</text></g><!--link eCourseUser to Teacher--><g id="link_eCourseUser_Teacher"><path codeLine="58" d="M1510,453.4769 C1510,478.9069 1510,503.2969 1510,503.2969 C1510,503.2969 2586,503.2969 2586,503.2969 C2586,503.2969 2586,548.1169 2586,548.1169 " fill="none" id="eCourseUser-to-Teacher" style="stroke:#181818;stroke-width:1.0;stroke-dasharray:7.0,7.0;"/><polygon fill="#181818" points="2586,553.1169,2590,544.1169,2586,548.1169,2582,544.1169,2586,553.1169" style="stroke:#181818;stroke-width:1.0;"/><text fill="#000000" font-family="sans-serif" font-size="20" lengthAdjust="spacing" textLength="34" x="2000.5" y="487.8613">is a</text></g><!--link eCourseUser to Student--><g id="link_eCourseUser_Student"><path codeLine="59" d="M1570,453.3969 C1570,467.3069 1570,478.2969 1570,478.2969 C1570,478.2969 3182,478.2969 3182,478.2969 C3182,478.2969 3182,548.2669 3182,548.2669 " fill="none" id="eCourseUser-to-Student" style="stroke:#181818;stroke-width:1.0;stroke-dasharray:7.0,7.0;"/><polygon fill="#181818" points="3182,553.2669,3186,544.2669,3182,548.2669,3178,544.2669,3182,553.2669" style="stroke:#181818;stroke-width:1.0;"/><text fill="#000000" font-family="sans-serif" font-size="20" lengthAdjust="spacing" textLength="34" x="2353.54" y="462.8613">is a</text></g><!--SRC=[bLFHRjim37ptLn3Tw-0bsyjM507QfWNsa61ekWzWP2RM8ek6HBVrXlxxf2HE5AHsqHXGWECTJHtFVgDjZGuhmsf31HIqmiR8FLjPwBy4NqUPQ3445rEkK5kOSK46xbx4eHBW5InQBrJ1RqyE7cYjVQY8PliPAhIufegi0De2J2XfkuQBpD1AG1YSNfS2XNQaeY8JhYEyP16k4jntGqADHH5xZ4S9QCD8dchude8ExIQ2ur6AhXqtzKzRajE2LX6CawBHbgIj2TX9oKaXzC7TfMAxjD-SXMvGRM9VMzooOGUVhd_4vsHgjGbEmByCmk-CF_qMdsrjwxkqmUybco9xpJhfpkLeScoY37gVO71rvPXbCed5r-p0eB0o4uhmXAO9zrh-2Ou6rkk1KOVZcLqnI5ffvyLYHOEiSBnFQiAqlQG3wu5DP9mJZeRCjk5oSBIZGpel80YE_4T2LQRkxO64VkhTjN9is-gjCPArI5E4V2SxsG515KujxTbAPgHAjBnsM9TQpPjgkPrXu1rqoutpTBhx1EnR_g8CEPxllExTntrZp7kS6ns-XodA8Ebk7xLUmYE-_CAMtD2LzolCkrNc-IH9UPu4_XAKep2IVrEJk9EdJWsh-jv45fU6lXJQn_yFIPyqFGCQyy4f3x8-IfJl0vntGRu4xG479VjqvbrATvB_]--></g></svg>