<?xml version="1.0" encoding="UTF-8" standalone="no"?><svg xmlns="http://www.w3.org/2000/svg" xmlns:xlink="http://www.w3.org/1999/xlink" contentStyleType="text/css" height="883px" preserveAspectRatio="none" style="width:951px;height:883px;background:#FFFFFF;" version="1.1" viewBox="0 0 951 883" width="951px" zoomAndPan="magnify"><defs/><g><text fill="#000000" font-family="sans-serif" font-size="14" font-weight="bold" lengthAdjust="spacing" textLength="160" x="388.5" y="22.9951">Disable system user</text><!--cluster repositories--><g id="cluster_repositories"><path d="M332,613.7969 L471,613.7969 A3.75,3.75 0 0 1 473.5,616.2969 L480.5,643.0781 L767,643.0781 A2.5,2.5 0 0 1 769.5,645.5781 L769.5,742.2969 A2.5,2.5 0 0 1 767,744.7969 L332,744.7969 A2.5,2.5 0 0 1 329.5,742.2969 L329.5,616.2969 A2.5,2.5 0 0 1 332,613.7969 " fill="none" style="stroke:#000000;stroke-width:1.5;"/><line style="stroke:#000000;stroke-width:1.5;" x1="329.5" x2="480.5" y1="643.0781" y2="643.0781"/><text fill="#000000" font-family="sans-serif" font-size="20" font-weight="bold" lengthAdjust="spacing" textLength="138" x="333.5" y="634.3613">repositories</text></g><!--cluster infraestructure.persistence--><g id="cluster_infraestructure.persistence"><path d="M427,314.2969 L743,314.2969 A3.75,3.75 0 0 1 745.5,316.7969 L752.5,343.5781 L796,343.5781 A2.5,2.5 0 0 1 798.5,346.0781 L798.5,587.2969 A2.5,2.5 0 0 1 796,589.7969 L427,589.7969 A2.5,2.5 0 0 1 424.5,587.2969 L424.5,316.7969 A2.5,2.5 0 0 1 427,314.2969 " fill="none" style="stroke:#000000;stroke-width:1.5;"/><line style="stroke:#000000;stroke-width:1.5;" x1="424.5" x2="752.5" y1="343.5781" y2="343.5781"/><text fill="#000000" font-family="sans-serif" font-size="20" font-weight="bold" lengthAdjust="spacing" textLength="315" x="428.5" y="334.8613">infraestructure.persistence</text></g><!--cluster SystemUser--><g id="cluster_SystemUser"><path d="M285,768.7969 L422,768.7969 A3.75,3.75 0 0 1 424.5,771.2969 L431.5,798.0781 L466,798.0781 A2.5,2.5 0 0 1 468.5,800.5781 L468.5,874.2969 A2.5,2.5 0 0 1 466,876.7969 L285,876.7969 A2.5,2.5 0 0 1 282.5,874.2969 L282.5,771.2969 A2.5,2.5 0 0 1 285,768.7969 " fill="none" style="stroke:#000000;stroke-width:1.5;"/><line style="stroke:#000000;stroke-width:1.5;" x1="282.5" x2="431.5" y1="798.0781" y2="798.0781"/><text fill="#000000" font-family="sans-serif" font-size="20" font-weight="bold" lengthAdjust="spacing" textLength="136" x="286.5" y="789.3613">SystemUser</text></g><!--class UserRepository--><g id="elem_UserRepository"><rect codeLine="9" fill="#F1F1F1" height="73.2813" id="UserRepository" rx="2.5" ry="2.5" style="stroke:#181818;stroke-width:0.5;" width="407" x="346" y="655.7969"/><ellipse cx="469" cy="672.7969" fill="#B4A7E5" rx="12" ry="12" style="stroke:#181818;stroke-width:1.0;"/><path d="M464.1875,668.25 L464.1875,665.7188 L472.8594,665.7188 L472.8594,668.25 L469.9688,668.25 L469.9688,677.75 L472.8594,677.75 L472.8594,680.2969 L464.1875,680.2969 L464.1875,677.75 L467.0781,677.75 L467.0781,668.25 L464.1875,668.25 Z " fill="#000000"/><text fill="#000000" font-family="sans-serif" font-size="20" font-style="italic" lengthAdjust="spacing" textLength="152" x="491" y="679.7207">UserRepository</text><line style="stroke:#181818;stroke-width:0.5;" x1="347" x2="752" y1="689.7969" y2="689.7969"/><line style="stroke:#181818;stroke-width:0.5;" x1="347" x2="752" y1="697.7969" y2="697.7969"/><ellipse cx="357" cy="714.9375" fill="#84BE84" rx="3" ry="3" style="stroke:#038048;stroke-width:1.0;"/><text fill="#000000" font-family="sans-serif" font-size="20" lengthAdjust="spacing" textLength="380" x="367" y="720.3613">activeUsers() : Iterable&lt;SystemUser&gt;</text></g><!--class PersistenceContext--><g id="elem_PersistenceContext"><rect codeLine="15" fill="#F1F1F1" height="73.2813" id="PersistenceContext" rx="2.5" ry="2.5" style="stroke:#181818;stroke-width:0.5;" width="343" x="440" y="356.2969"/><ellipse cx="511" cy="373.2969" fill="#ADD1B2" rx="12" ry="12" style="stroke:#181818;stroke-width:1.0;"/><path d="M514.0625,380.375 Q513.375,380.7344 512.625,380.9063 Q511.875,381.0781 511.0469,381.0781 Q508.0938,381.0781 506.5313,379.1406 Q504.9844,377.1875 504.9844,373.5156 Q504.9844,369.8438 506.5313,367.9063 Q508.0938,365.9531 511.0469,365.9531 Q511.875,365.9531 512.625,366.125 Q513.3906,366.2969 514.0625,366.6563 L514.0625,369.8594 Q513.3125,369.1719 512.6094,368.8594 Q511.9219,368.5469 511.1719,368.5469 Q509.5938,368.5469 508.7813,369.7969 Q507.9844,371.0469 507.9844,373.5156 Q507.9844,375.9844 508.7813,377.2344 Q509.5938,378.4844 511.1719,378.4844 Q511.9219,378.4844 512.6094,378.1719 Q513.3125,377.8594 514.0625,377.1719 L514.0625,380.375 Z " fill="#000000"/><text fill="#000000" font-family="sans-serif" font-size="20" lengthAdjust="spacing" textLength="192" x="533" y="380.2207">PersistenceContext</text><line style="stroke:#181818;stroke-width:0.5;" x1="441" x2="782" y1="390.2969" y2="390.2969"/><ellipse cx="451" cy="407.4375" fill="none" rx="3" ry="3" style="stroke:#038048;stroke-width:1.0;"/><text fill="#000000" font-family="sans-serif" font-size="20" lengthAdjust="spacing" textLength="316" x="461" y="412.8613">repositories : RepositoryFactory</text><line style="stroke:#181818;stroke-width:0.5;" x1="441" x2="782" y1="421.5781" y2="421.5781"/></g><!--class RepositoryFactory--><g id="elem_RepositoryFactory"><rect codeLine="19" fill="#F1F1F1" height="73.2813" id="RepositoryFactory" rx="2.5" ry="2.5" style="stroke:#181818;stroke-width:0.5;" width="339" x="443" y="500.7969"/><ellipse cx="517" cy="517.7969" fill="#B4A7E5" rx="12" ry="12" style="stroke:#181818;stroke-width:1.0;"/><path d="M512.1875,513.25 L512.1875,510.7188 L520.8594,510.7188 L520.8594,513.25 L517.9688,513.25 L517.9688,522.75 L520.8594,522.75 L520.8594,525.2969 L512.1875,525.2969 L512.1875,522.75 L515.0781,522.75 L515.0781,513.25 L512.1875,513.25 Z " fill="#000000"/><text fill="#000000" font-family="sans-serif" font-size="20" font-style="italic" lengthAdjust="spacing" textLength="182" x="539" y="524.7207">RepositoryFactory</text><line style="stroke:#181818;stroke-width:0.5;" x1="444" x2="781" y1="534.7969" y2="534.7969"/><line style="stroke:#181818;stroke-width:0.5;" x1="444" x2="781" y1="542.7969" y2="542.7969"/><ellipse cx="454" cy="559.9375" fill="#84BE84" rx="3" ry="3" style="stroke:#038048;stroke-width:1.0;"/><text fill="#000000" font-family="sans-serif" font-size="20" lengthAdjust="spacing" textLength="312" x="464" y="565.3613">systemUsers() : UserRepository</text></g><!--class SystemUser.SystemUser--><g id="elem_SystemUser.SystemUser"><rect fill="#F1F1F1" height="50" id="SystemUser.SystemUser" rx="2.5" ry="2.5" style="stroke:#181818;stroke-width:0.5;" width="153" x="299" y="810.7969"/><ellipse cx="315" cy="827.7969" fill="#ADD1B2" rx="12" ry="12" style="stroke:#181818;stroke-width:1.0;"/><path d="M318.0625,834.875 Q317.375,835.2344 316.625,835.4063 Q315.875,835.5781 315.0469,835.5781 Q312.0938,835.5781 310.5313,833.6406 Q308.9844,831.6875 308.9844,828.0156 Q308.9844,824.3438 310.5313,822.4063 Q312.0938,820.4531 315.0469,820.4531 Q315.875,820.4531 316.625,820.625 Q317.3906,820.7969 318.0625,821.1563 L318.0625,824.3594 Q317.3125,823.6719 316.6094,823.3594 Q315.9219,823.0469 315.1719,823.0469 Q313.5938,823.0469 312.7813,824.2969 Q311.9844,825.5469 311.9844,828.0156 Q311.9844,830.4844 312.7813,831.7344 Q313.5938,832.9844 315.1719,832.9844 Q315.9219,832.9844 316.6094,832.6719 Q317.3125,832.3594 318.0625,831.6719 L318.0625,834.875 Z " fill="#000000"/><text fill="#000000" font-family="sans-serif" font-size="20" lengthAdjust="spacing" textLength="119" x="330" y="834.7207">SystemUser</text><line style="stroke:#181818;stroke-width:0.5;" x1="300" x2="451" y1="844.7969" y2="844.7969"/><line style="stroke:#181818;stroke-width:0.5;" x1="300" x2="451" y1="852.7969" y2="852.7969"/></g><!--class EnableSystemUserUI--><g id="elem_EnableSystemUserUI"><rect codeLine="24" fill="#F1F1F1" height="72.5625" id="EnableSystemUserUI" rx="2.5" ry="2.5" style="stroke:#181818;stroke-width:0.5;" width="243" x="602" y="44.2969"/><ellipse cx="618" cy="72.5781" fill="#ADD1B2" rx="12" ry="12" style="stroke:#181818;stroke-width:1.0;"/><path d="M621.0625,79.6563 Q620.375,80.0156 619.625,80.1875 Q618.875,80.3594 618.0469,80.3594 Q615.0938,80.3594 613.5313,78.4219 Q611.9844,76.4688 611.9844,72.7969 Q611.9844,69.125 613.5313,67.1875 Q615.0938,65.2344 618.0469,65.2344 Q618.875,65.2344 619.625,65.4063 Q620.3906,65.5781 621.0625,65.9375 L621.0625,69.1406 Q620.3125,68.4531 619.6094,68.1406 Q618.9219,67.8281 618.1719,67.8281 Q616.5938,67.8281 615.7813,69.0781 Q614.9844,70.3281 614.9844,72.7969 Q614.9844,75.2656 615.7813,76.5156 Q616.5938,77.7656 618.1719,77.7656 Q618.9219,77.7656 619.6094,77.4531 Q620.3125,77.1406 621.0625,76.4531 L621.0625,79.6563 Z " fill="#000000"/><text fill="#000000" font-family="sans-serif" font-size="20" font-style="italic" lengthAdjust="spacing" textLength="151" x="662" y="67.8613">«presentation»</text><text fill="#000000" font-family="sans-serif" font-size="20" lengthAdjust="spacing" textLength="209" x="633" y="91.1426">EnableSystemUserUI</text><line style="stroke:#181818;stroke-width:0.5;" x1="603" x2="844" y1="100.8594" y2="100.8594"/><line style="stroke:#181818;stroke-width:0.5;" x1="603" x2="844" y1="108.8594" y2="108.8594"/></g><!--class EnableSystemUserController--><g id="elem_EnableSystemUserController"><rect codeLine="26" fill="#F1F1F1" height="119.125" id="EnableSystemUserController" rx="2.5" ry="2.5" style="stroke:#181818;stroke-width:0.5;" width="441" x="503" y="177.2969"/><ellipse cx="575.5" cy="205.5781" fill="#ADD1B2" rx="12" ry="12" style="stroke:#181818;stroke-width:1.0;"/><path d="M578.5625,212.6563 Q577.875,213.0156 577.125,213.1875 Q576.375,213.3594 575.5469,213.3594 Q572.5938,213.3594 571.0313,211.4219 Q569.4844,209.4688 569.4844,205.7969 Q569.4844,202.125 571.0313,200.1875 Q572.5938,198.2344 575.5469,198.2344 Q576.375,198.2344 577.125,198.4063 Q577.8906,198.5781 578.5625,198.9375 L578.5625,202.1406 Q577.8125,201.4531 577.1094,201.1406 Q576.4219,200.8281 575.6719,200.8281 Q574.0938,200.8281 573.2813,202.0781 Q572.4844,203.3281 572.4844,205.7969 Q572.4844,208.2656 573.2813,209.5156 Q574.0938,210.7656 575.6719,210.7656 Q576.4219,210.7656 577.1094,210.4531 Q577.8125,210.1406 578.5625,209.4531 L578.5625,212.6563 Z " fill="#000000"/><text fill="#000000" font-family="sans-serif" font-size="20" font-style="italic" lengthAdjust="spacing" textLength="136" x="673" y="200.8613">«application»</text><text fill="#000000" font-family="sans-serif" font-size="20" lengthAdjust="spacing" textLength="287" x="597.5" y="224.1426">EnableSystemUserController</text><line style="stroke:#181818;stroke-width:0.5;" x1="504" x2="943" y1="233.8594" y2="233.8594"/><line style="stroke:#181818;stroke-width:0.5;" x1="504" x2="943" y1="241.8594" y2="241.8594"/><ellipse cx="514" cy="259" fill="#84BE84" rx="3" ry="3" style="stroke:#038048;stroke-width:1.0;"/><text fill="#000000" font-family="sans-serif" font-size="20" lengthAdjust="spacing" textLength="414" x="524" y="264.4238">listSystemUser() : Iterable&lt;SystemUser&gt;</text><ellipse cx="514" cy="282.2813" fill="#84BE84" rx="3" ry="3" style="stroke:#038048;stroke-width:1.0;"/><text fill="#000000" font-family="sans-serif" font-size="20" lengthAdjust="spacing" textLength="384" x="524" y="287.7051">disableSystemUser(systemUser) : void</text></g><!--class UserManagementService--><g id="elem_UserManagementService"><rect codeLine="30" fill="#F1F1F1" height="95.8438" id="UserManagementService" rx="2.5" ry="2.5" style="stroke:#181818;stroke-width:0.5;" width="401" x="7" y="489.2969"/><ellipse cx="78" cy="517.5781" fill="#ADD1B2" rx="12" ry="12" style="stroke:#181818;stroke-width:1.0;"/><path d="M81.0625,524.6563 Q80.375,525.0156 79.625,525.1875 Q78.875,525.3594 78.0469,525.3594 Q75.0938,525.3594 73.5313,523.4219 Q71.9844,521.4688 71.9844,517.7969 Q71.9844,514.125 73.5313,512.1875 Q75.0938,510.2344 78.0469,510.2344 Q78.875,510.2344 79.625,510.4063 Q80.3906,510.5781 81.0625,510.9375 L81.0625,514.1406 Q80.3125,513.4531 79.6094,513.1406 Q78.9219,512.8281 78.1719,512.8281 Q76.5938,512.8281 75.7813,514.0781 Q74.9844,515.3281 74.9844,517.7969 Q74.9844,520.2656 75.7813,521.5156 Q76.5938,522.7656 78.1719,522.7656 Q78.9219,522.7656 79.6094,522.4531 Q80.3125,522.1406 81.0625,521.4531 L81.0625,524.6563 Z " fill="#000000"/><text fill="#000000" font-family="sans-serif" font-size="20" font-style="italic" lengthAdjust="spacing" textLength="95" x="177.5" y="512.8613">«service»</text><text fill="#000000" font-family="sans-serif" font-size="20" lengthAdjust="spacing" textLength="250" x="100" y="536.1426">UserManagementService</text><line style="stroke:#181818;stroke-width:0.5;" x1="8" x2="407" y1="545.8594" y2="545.8594"/><line style="stroke:#181818;stroke-width:0.5;" x1="8" x2="407" y1="553.8594" y2="553.8594"/><ellipse cx="18" cy="571" fill="#84BE84" rx="3" ry="3" style="stroke:#038048;stroke-width:1.0;"/><text fill="#000000" font-family="sans-serif" font-size="20" lengthAdjust="spacing" textLength="374" x="28" y="576.4238">activeUsers(): Iterable&lt;SystemUser&gt;</text></g><!--link EnableSystemUserUI to EnableSystemUserController--><g id="link_EnableSystemUserUI_EnableSystemUserController"><path codeLine="34" d="M723.5,117.3769 C723.5,117.3769 723.5,172.2569 723.5,172.2569 " fill="none" id="EnableSystemUserUI-to-EnableSystemUserController" style="stroke:#181818;stroke-width:1.0;stroke-dasharray:7.0,7.0;"/><polygon fill="#181818" points="723.5,177.2569,727.5,168.2569,723.5,172.2569,719.5,168.2569,723.5,177.2569" style="stroke:#181818;stroke-width:1.0;"/></g><!--link EnableSystemUserController to PersistenceContext--><g id="link_EnableSystemUserController_PersistenceContext"><path codeLine="35" d="M643,296.6669 C643,296.6669 643,350.8769 643,350.8769 " fill="none" id="EnableSystemUserController-to-PersistenceContext" style="stroke:#181818;stroke-width:1.0;stroke-dasharray:7.0,7.0;"/><polygon fill="#181818" points="643,355.8769,647,346.8769,643,350.8769,639,346.8769,643,355.8769" style="stroke:#181818;stroke-width:1.0;"/></g><!--link EnableSystemUserController to RepositoryFactory--><g id="link_EnableSystemUserController_RepositoryFactory"><path codeLine="36" d="M863.5,296.6269 C863.5,384.4069 863.5,537.7969 863.5,537.7969 C863.5,537.7969 787.01,537.7969 787.01,537.7969 " fill="none" id="EnableSystemUserController-to-RepositoryFactory" style="stroke:#181818;stroke-width:1.0;stroke-dasharray:7.0,7.0;"/><polygon fill="#181818" points="782.01,537.7969,791.01,541.7969,787.01,537.7969,791.01,533.7969,782.01,537.7969" style="stroke:#181818;stroke-width:1.0;"/></g><!--link EnableSystemUserController to UserRepository--><g id="link_EnableSystemUserController_UserRepository"><path codeLine="37" d="M502.69,256.7969 C457.8,256.7969 424,256.7969 424,256.7969 C424,256.7969 424,650.5369 424,650.5369 " fill="none" id="EnableSystemUserController-to-UserRepository" style="stroke:#181818;stroke-width:1.0;stroke-dasharray:7.0,7.0;"/><polygon fill="#181818" points="424,655.5369,428,646.5369,424,650.5369,420,646.5369,424,655.5369" style="stroke:#181818;stroke-width:1.0;"/></g><!--link EnableSystemUserController to UserManagementService--><g id="link_EnableSystemUserController_UserManagementService"><path codeLine="38" d="M502.8,217.7969 C362.65,217.7969 207.5,217.7969 207.5,217.7969 C207.5,217.7969 207.5,484.1169 207.5,484.1169 " fill="none" id="EnableSystemUserController-to-UserManagementService" style="stroke:#181818;stroke-width:1.0;stroke-dasharray:7.0,7.0;"/><polygon fill="#181818" points="207.5,489.1169,211.5,480.1169,207.5,484.1169,203.5,480.1169,207.5,489.1169" style="stroke:#181818;stroke-width:1.0;"/></g><!--link UserManagementService to UserRepository--><g id="link_UserManagementService_UserRepository"><path codeLine="39" d="M377,585.4869 C377,585.4869 377,650.4669 377,650.4669 " fill="none" id="UserManagementService-to-UserRepository" style="stroke:#181818;stroke-width:1.0;stroke-dasharray:7.0,7.0;"/><polygon fill="#181818" points="377,655.4669,381,646.4669,377,650.4669,373,646.4669,377,655.4669" style="stroke:#181818;stroke-width:1.0;"/></g><!--link UserManagementService to SystemUser.SystemUser--><g id="link_UserManagementService_SystemUser.SystemUser"><path codeLine="40" d="M322.5,585.5869 C322.5,585.5869 322.5,805.5269 322.5,805.5269 " fill="none" id="UserManagementService-to-SystemUser.SystemUser" style="stroke:#181818;stroke-width:1.0;stroke-dasharray:7.0,7.0;"/><polygon fill="#181818" points="322.5,810.5269,326.5,801.5269,322.5,805.5269,318.5,801.5269,322.5,810.5269" style="stroke:#181818;stroke-width:1.0;"/></g><!--link PersistenceContext to RepositoryFactory--><g id="link_PersistenceContext_RepositoryFactory"><path codeLine="41" d="M612.5,429.6369 C612.5,429.6369 612.5,495.7769 612.5,495.7769 " fill="none" id="PersistenceContext-to-RepositoryFactory" style="stroke:#181818;stroke-width:1.0;"/><polygon fill="#181818" points="612.5,500.7769,616.5,491.7769,612.5,495.7769,608.5,491.7769,612.5,500.7769" style="stroke:#181818;stroke-width:1.0;"/></g><!--link RepositoryFactory to UserRepository--><g id="link_RepositoryFactory_UserRepository"><path codeLine="42" d="M598,574.0269 C598,574.0269 598,650.5569 598,650.5569 " fill="none" id="RepositoryFactory-to-UserRepository" style="stroke:#181818;stroke-width:1.0;"/><polygon fill="#181818" points="598,655.5569,602,646.5569,598,650.5569,594,646.5569,598,655.5569" style="stroke:#181818;stroke-width:1.0;"/></g><!--link UserRepository to SystemUser.SystemUser--><g id="link_UserRepository_SystemUser.SystemUser"><path codeLine="43" d="M399,728.8769 C399,728.8769 399,805.5869 399,805.5869 " fill="none" id="UserRepository-to-SystemUser.SystemUser" style="stroke:#181818;stroke-width:1.0;"/><polygon fill="#181818" points="399,810.5869,403,801.5869,399,805.5869,395,801.5869,399,810.5869" style="stroke:#181818;stroke-width:1.0;"/></g><!--SRC=[ZLBBJiCm4BpxA_O6g6gAE5PHBpma3aY8gXzWaYrOTMpBkwaegF_EkYcOahJWYvDunlFOqCgueADkhAzMM4EDIzrQllEEv-OTuUfIdRqo1vfE9i5gnsrZYyetayfged5jz8kG5Hks23U6zBFij2761bh2gDW7O0_FdjatK9k85Hll57q9WpKEUHCGVEHNhsG5NQtq2qB4uCcmZmO9FXJ8CeunBdM5i93Rdxu0c-uqhH5eKLXZEgVp2vZ2lL2IhtA-yvKEPZluLcspc77Bg94ujXMt4OiWT2Du9rhTxRl8y9Y_NqjB-CRxuz6XtobaTtTYIRQzwAyWFHZy34FVdhimXx5pZCxShKj1Syx5FPHbY4ZeMAVUPxDZq1GcUcin2aM7O4srPtpdiv8x4qvtEv9Pqw72USwIg6jlQd7UkKaV7xIJGJHYTOvnRQIQigJkwOU9W-aUCI1z33HH5BCJgTM9GXApF_U_6Ftv_q7uDTj_e7kLgU4Y1su_3ioAHNvK0__zU3mKily_9zo0UdxT8OPbrIS0]--></g></svg>