<?xml version="1.0" encoding="UTF-8" standalone="no"?><svg xmlns="http://www.w3.org/2000/svg" xmlns:xlink="http://www.w3.org/1999/xlink" contentStyleType="text/css" height="1195px" preserveAspectRatio="none" style="width:1961px;height:1195px;background:#FFFFFF;" version="1.1" viewBox="0 0 1961 1195" width="1961px" zoomAndPan="magnify"><defs/><g><rect fill="#FFFFFF" height="932.0313" style="stroke:#181818;stroke-width:1.0;" width="10" x="532" y="136.8438"/><rect fill="#FFFFFF" height="372.8125" style="stroke:#181818;stroke-width:1.0;" width="10" x="884" y="211.4063"/><rect fill="#FFFFFF" height="335.5313" style="stroke:#181818;stroke-width:1.0;" width="10" x="884" y="696.0625"/><rect fill="#FFFFFF" height="260.9688" style="stroke:#181818;stroke-width:1.0;" width="10" x="1236" y="285.9688"/><rect fill="#FFFFFF" height="260.9688" style="stroke:#181818;stroke-width:1.0;" width="10" x="1236" y="733.3438"/><rect fill="#FFFFFF" height="74.5625" style="stroke:#181818;stroke-width:1.0;" width="10" x="1481" y="323.25"/><rect fill="#FFFFFF" height="74.5625" style="stroke:#181818;stroke-width:1.0;" width="10" x="1481" y="770.625"/><rect fill="#FFFFFF" height="37.2813" style="stroke:#181818;stroke-width:1.0;" width="10" x="1691" y="397.8125"/><rect fill="#FFFFFF" height="37.2813" style="stroke:#181818;stroke-width:1.0;" width="10" x="1691" y="845.1875"/><rect fill="#FFFFFF" height="37.2813" style="stroke:#181818;stroke-width:1.0;" width="10" x="1876.5" y="472.375"/><rect fill="#FFFFFF" height="37.2813" style="stroke:#181818;stroke-width:1.0;" width="10" x="1876.5" y="919.75"/><line style="stroke:#181818;stroke-width:0.5;stroke-dasharray:5.0,5.0;" x1="41" x2="41" y1="97.5625" y2="1086.875"/><line style="stroke:#181818;stroke-width:0.5;stroke-dasharray:5.0,5.0;" x1="536.5" x2="536.5" y1="97.5625" y2="1086.875"/><line style="stroke:#181818;stroke-width:0.5;stroke-dasharray:5.0,5.0;" x1="888.5" x2="888.5" y1="97.5625" y2="1086.875"/><line style="stroke:#181818;stroke-width:0.5;stroke-dasharray:5.0,5.0;" x1="1241" x2="1241" y1="97.5625" y2="1086.875"/><line style="stroke:#181818;stroke-width:0.5;stroke-dasharray:5.0,5.0;" x1="1486" x2="1486" y1="97.5625" y2="1086.875"/><line style="stroke:#181818;stroke-width:0.5;stroke-dasharray:5.0,5.0;" x1="1696" x2="1696" y1="97.5625" y2="1086.875"/><line style="stroke:#181818;stroke-width:0.5;stroke-dasharray:5.0,5.0;" x1="1881" x2="1881" y1="97.5625" y2="1086.875"/><text fill="#000000" font-family="FG Virgil" font-size="20" lengthAdjust="spacing" textLength="66" x="5" y="92.8457">Admin</text><ellipse cx="41" cy="22.7813" fill="#E3E3E3" rx="8" ry="8" style="stroke:#181818;stroke-width:0.5;"/><path d="M41,30.7813 L41,57.7813 M28,38.7813 L54,38.7813 M41,57.7813 L28,72.7813 M41,57.7813 L54,72.7813 " fill="none" style="stroke:#181818;stroke-width:0.5;"/><text fill="#000000" font-family="FG Virgil" font-size="20" lengthAdjust="spacing" textLength="66" x="5" y="1104.4395">Admin</text><ellipse cx="41" cy="1117.6563" fill="#E3E3E3" rx="8" ry="8" style="stroke:#181818;stroke-width:0.5;"/><path d="M41,1125.6563 L41,1152.6563 M28,1133.6563 L54,1133.6563 M41,1152.6563 L28,1167.6563 M41,1152.6563 L54,1167.6563 " fill="none" style="stroke:#181818;stroke-width:0.5;"/><rect fill="#E3E3E3" height="60.5625" rx="2.5" ry="2.5" style="stroke:#181818;stroke-width:0.5;" width="223" x="425.5" y="36"/><text fill="#000000" font-family="FG Virgil" font-size="20" font-style="italic" lengthAdjust="spacing" textLength="151" x="461.5" y="61.5645">«presentation»</text><text fill="#000000" font-family="FG Virgil" font-size="20" lengthAdjust="spacing" textLength="209" x="432.5" y="84.8457">EnableSystemUserUI</text><rect fill="#E3E3E3" height="60.5625" rx="2.5" ry="2.5" style="stroke:#181818;stroke-width:0.5;" width="223" x="425.5" y="1085.875"/><text fill="#000000" font-family="FG Virgil" font-size="20" font-style="italic" lengthAdjust="spacing" textLength="151" x="461.5" y="1111.4395">«presentation»</text><text fill="#000000" font-family="FG Virgil" font-size="20" lengthAdjust="spacing" textLength="209" x="432.5" y="1134.7207">EnableSystemUserUI</text><rect fill="#E3E3E3" height="60.5625" rx="2.5" ry="2.5" style="stroke:#181818;stroke-width:0.5;" width="301" x="738.5" y="36"/><text fill="#000000" font-family="FG Virgil" font-size="20" font-style="italic" lengthAdjust="spacing" textLength="136" x="821" y="61.5645">«application»</text><text fill="#000000" font-family="FG Virgil" font-size="20" lengthAdjust="spacing" textLength="287" x="745.5" y="84.8457">EnableSystemUserController</text><rect fill="#E3E3E3" height="60.5625" rx="2.5" ry="2.5" style="stroke:#181818;stroke-width:0.5;" width="301" x="738.5" y="1085.875"/><text fill="#000000" font-family="FG Virgil" font-size="20" font-style="italic" lengthAdjust="spacing" textLength="136" x="821" y="1111.4395">«application»</text><text fill="#000000" font-family="FG Virgil" font-size="20" lengthAdjust="spacing" textLength="287" x="745.5" y="1134.7207">EnableSystemUserController</text><rect fill="#E3E3E3" height="60.5625" rx="2.5" ry="2.5" style="stroke:#181818;stroke-width:0.5;" width="264" x="1109" y="36"/><text fill="#000000" font-family="FG Virgil" font-size="20" font-style="italic" lengthAdjust="spacing" textLength="95" x="1193.5" y="61.5645">«service»</text><text fill="#000000" font-family="FG Virgil" font-size="20" lengthAdjust="spacing" textLength="250" x="1116" y="84.8457">UserManagementService</text><rect fill="#E3E3E3" height="60.5625" rx="2.5" ry="2.5" style="stroke:#181818;stroke-width:0.5;" width="264" x="1109" y="1085.875"/><text fill="#000000" font-family="FG Virgil" font-size="20" font-style="italic" lengthAdjust="spacing" textLength="95" x="1193.5" y="1111.4395">«service»</text><text fill="#000000" font-family="FG Virgil" font-size="20" lengthAdjust="spacing" textLength="250" x="1116" y="1134.7207">UserManagementService</text><rect fill="#E3E3E3" height="60.5625" rx="2.5" ry="2.5" style="stroke:#181818;stroke-width:0.5;" width="206" x="1383" y="36"/><text fill="#000000" font-family="FG Virgil" font-size="20" font-style="italic" lengthAdjust="spacing" textLength="139" x="1416.5" y="61.5645">«persistence»</text><text fill="#000000" font-family="FG Virgil" font-size="20" lengthAdjust="spacing" textLength="192" x="1390" y="84.8457">PersistenceContext</text><rect fill="#E3E3E3" height="60.5625" rx="2.5" ry="2.5" style="stroke:#181818;stroke-width:0.5;" width="206" x="1383" y="1085.875"/><text fill="#000000" font-family="FG Virgil" font-size="20" font-style="italic" lengthAdjust="spacing" textLength="139" x="1416.5" y="1111.4395">«persistence»</text><text fill="#000000" font-family="FG Virgil" font-size="20" lengthAdjust="spacing" textLength="192" x="1390" y="1134.7207">PersistenceContext</text><rect fill="#E3E3E3" height="60.5625" rx="2.5" ry="2.5" style="stroke:#181818;stroke-width:0.5;" width="194" x="1599" y="36"/><text fill="#000000" font-family="FG Virgil" font-size="20" font-style="italic" lengthAdjust="spacing" textLength="94" x="1649" y="61.5645">«factory»</text><text fill="#000000" font-family="FG Virgil" font-size="20" lengthAdjust="spacing" textLength="180" x="1606" y="84.8457">RepositoryFactory</text><rect fill="#E3E3E3" height="60.5625" rx="2.5" ry="2.5" style="stroke:#181818;stroke-width:0.5;" width="194" x="1599" y="1085.875"/><text fill="#000000" font-family="FG Virgil" font-size="20" font-style="italic" lengthAdjust="spacing" textLength="94" x="1649" y="1111.4395">«factory»</text><text fill="#000000" font-family="FG Virgil" font-size="20" lengthAdjust="spacing" textLength="180" x="1606" y="1134.7207">RepositoryFactory</text><text fill="#000000" font-family="FG Virgil" font-size="20" font-style="italic" lengthAdjust="spacing" textLength="125" x="1816" y="69.5645">«repository»</text><text fill="#000000" font-family="FG Virgil" font-size="20" lengthAdjust="spacing" textLength="151" x="1803" y="92.8457">UserRepository</text><path d="M1863.5,15 C1863.5,5 1881.5,5 1881.5,5 C1881.5,5 1899.5,5 1899.5,15 L1899.5,41 C1899.5,51 1881.5,51 1881.5,51 C1881.5,51 1863.5,51 1863.5,41 L1863.5,15 " fill="#E3E3E3" style="stroke:#181818;stroke-width:1.5;"/><path d="M1863.5,15 C1863.5,25 1881.5,25 1881.5,25 C1881.5,25 1899.5,25 1899.5,15 " fill="none" style="stroke:#181818;stroke-width:1.5;"/><text fill="#000000" font-family="FG Virgil" font-size="20" font-style="italic" lengthAdjust="spacing" textLength="125" x="1816" y="1104.4395">«repository»</text><text fill="#000000" font-family="FG Virgil" font-size="20" lengthAdjust="spacing" textLength="151" x="1803" y="1127.7207">UserRepository</text><path d="M1863.5,1142.4375 C1863.5,1132.4375 1881.5,1132.4375 1881.5,1132.4375 C1881.5,1132.4375 1899.5,1132.4375 1899.5,1142.4375 L1899.5,1168.4375 C1899.5,1178.4375 1881.5,1178.4375 1881.5,1178.4375 C1881.5,1178.4375 1863.5,1178.4375 1863.5,1168.4375 L1863.5,1142.4375 " fill="#E3E3E3" style="stroke:#181818;stroke-width:1.5;"/><path d="M1863.5,1142.4375 C1863.5,1152.4375 1881.5,1152.4375 1881.5,1152.4375 C1881.5,1152.4375 1899.5,1152.4375 1899.5,1142.4375 " fill="none" style="stroke:#181818;stroke-width:1.5;"/><rect fill="#FFFFFF" height="932.0313" style="stroke:#181818;stroke-width:1.0;" width="10" x="532" y="136.8438"/><rect fill="#FFFFFF" height="372.8125" style="stroke:#181818;stroke-width:1.0;" width="10" x="884" y="211.4063"/><rect fill="#FFFFFF" height="335.5313" style="stroke:#181818;stroke-width:1.0;" width="10" x="884" y="696.0625"/><rect fill="#FFFFFF" height="260.9688" style="stroke:#181818;stroke-width:1.0;" width="10" x="1236" y="285.9688"/><rect fill="#FFFFFF" height="260.9688" style="stroke:#181818;stroke-width:1.0;" width="10" x="1236" y="733.3438"/><rect fill="#FFFFFF" height="74.5625" style="stroke:#181818;stroke-width:1.0;" width="10" x="1481" y="323.25"/><rect fill="#FFFFFF" height="74.5625" style="stroke:#181818;stroke-width:1.0;" width="10" x="1481" y="770.625"/><rect fill="#FFFFFF" height="37.2813" style="stroke:#181818;stroke-width:1.0;" width="10" x="1691" y="397.8125"/><rect fill="#FFFFFF" height="37.2813" style="stroke:#181818;stroke-width:1.0;" width="10" x="1691" y="845.1875"/><rect fill="#FFFFFF" height="37.2813" style="stroke:#181818;stroke-width:1.0;" width="10" x="1876.5" y="472.375"/><rect fill="#FFFFFF" height="37.2813" style="stroke:#181818;stroke-width:1.0;" width="10" x="1876.5" y="919.75"/><polygon fill="#181818" points="520,132.8438,530,136.8438,520,140.8438,524,136.8438" style="stroke:#181818;stroke-width:1.0;"/><line style="stroke:#181818;stroke-width:1.0;" x1="41" x2="526" y1="136.8438" y2="136.8438"/><text fill="#000000" font-family="FG Virgil" font-size="20" lengthAdjust="spacing" textLength="198" x="48" y="130.127">disable system user</text><polygon fill="#181818" points="877,170.125,887,174.125,877,178.125,881,174.125" style="stroke:#181818;stroke-width:1.0;"/><line style="stroke:#181818;stroke-width:1.0;" x1="542" x2="883" y1="174.125" y2="174.125"/><text fill="#000000" font-family="FG Virgil" font-size="20" lengthAdjust="spacing" textLength="63" x="549" y="167.4082">create</text><polygon fill="#181818" points="872,207.4063,882,211.4063,872,215.4063,876,211.4063" style="stroke:#181818;stroke-width:1.0;"/><line style="stroke:#181818;stroke-width:1.0;" x1="542" x2="878" y1="211.4063" y2="211.4063"/><text fill="#000000" font-family="FG Virgil" font-size="20" lengthAdjust="spacing" textLength="165" x="549" y="204.6895">listSystemUser()</text><polygon fill="#181818" points="1229,244.6875,1239,248.6875,1229,252.6875,1233,248.6875" style="stroke:#181818;stroke-width:1.0;"/><line style="stroke:#181818;stroke-width:1.0;" x1="894" x2="1235" y1="248.6875" y2="248.6875"/><text fill="#000000" font-family="FG Virgil" font-size="20" lengthAdjust="spacing" textLength="79" x="901" y="241.9707">create()</text><polygon fill="#181818" points="1224,281.9688,1234,285.9688,1224,289.9688,1228,285.9688" style="stroke:#181818;stroke-width:1.0;"/><line style="stroke:#181818;stroke-width:1.0;stroke-dasharray:2.0,2.0;" x1="894" x2="1230" y1="285.9688" y2="285.9688"/><text fill="#000000" font-family="FG Virgil" font-size="20" lengthAdjust="spacing" textLength="131" x="901" y="279.252">activeUsers()</text><polygon fill="#181818" points="1469,319.25,1479,323.25,1469,327.25,1473,323.25" style="stroke:#181818;stroke-width:1.0;"/><line style="stroke:#181818;stroke-width:1.0;" x1="1246" x2="1475" y1="323.25" y2="323.25"/><text fill="#000000" font-family="FG Virgil" font-size="20" lengthAdjust="spacing" textLength="133" x="1253" y="316.5332">repositories()</text><polygon fill="#181818" points="1684,356.5313,1694,360.5313,1684,364.5313,1688,360.5313" style="stroke:#181818;stroke-width:1.0;"/><line style="stroke:#181818;stroke-width:1.0;" x1="1491" x2="1690" y1="360.5313" y2="360.5313"/><text fill="#000000" font-family="FG Virgil" font-size="20" lengthAdjust="spacing" textLength="79" x="1498" y="353.8145">create()</text><polygon fill="#181818" points="1679,393.8125,1689,397.8125,1679,401.8125,1683,397.8125" style="stroke:#181818;stroke-width:1.0;"/><line style="stroke:#181818;stroke-width:1.0;" x1="1486" x2="1685" y1="397.8125" y2="397.8125"/><text fill="#000000" font-family="FG Virgil" font-size="20" lengthAdjust="spacing" textLength="142" x="1493" y="391.0957">systemUsers()</text><polygon fill="#181818" points="1869.5,431.0938,1879.5,435.0938,1869.5,439.0938,1873.5,435.0938" style="stroke:#181818;stroke-width:1.0;"/><line style="stroke:#181818;stroke-width:1.0;" x1="1696" x2="1875.5" y1="435.0938" y2="435.0938"/><text fill="#000000" font-family="FG Virgil" font-size="20" lengthAdjust="spacing" textLength="79" x="1703" y="428.377">create()</text><polygon fill="#181818" points="1864.5,468.375,1874.5,472.375,1864.5,476.375,1868.5,472.375" style="stroke:#181818;stroke-width:1.0;"/><line style="stroke:#181818;stroke-width:1.0;" x1="1246" x2="1870.5" y1="472.375" y2="472.375"/><text fill="#000000" font-family="FG Virgil" font-size="20" lengthAdjust="spacing" textLength="131" x="1253" y="465.6582">activeUsers()</text><polygon fill="#181818" points="1257,505.6563,1247,509.6563,1257,513.6563,1253,509.6563" style="stroke:#181818;stroke-width:1.0;"/><line style="stroke:#181818;stroke-width:1.0;stroke-dasharray:2.0,2.0;" x1="1251" x2="1880.5" y1="509.6563" y2="509.6563"/><text fill="#000000" font-family="FG Virgil" font-size="20" lengthAdjust="spacing" textLength="53" x="1263" y="502.9395">users</text><polygon fill="#181818" points="905,542.9375,895,546.9375,905,550.9375,901,546.9375" style="stroke:#181818;stroke-width:1.0;"/><line style="stroke:#181818;stroke-width:1.0;stroke-dasharray:2.0,2.0;" x1="899" x2="1240" y1="546.9375" y2="546.9375"/><text fill="#000000" font-family="FG Virgil" font-size="20" lengthAdjust="spacing" textLength="53" x="911" y="540.2207">users</text><polygon fill="#181818" points="553,580.2188,543,584.2188,553,588.2188,549,584.2188" style="stroke:#181818;stroke-width:1.0;"/><line style="stroke:#181818;stroke-width:1.0;stroke-dasharray:2.0,2.0;" x1="547" x2="888" y1="584.2188" y2="584.2188"/><text fill="#000000" font-family="FG Virgil" font-size="20" lengthAdjust="spacing" textLength="53" x="559" y="577.502">users</text><polygon fill="#181818" points="52,617.5,42,621.5,52,625.5,48,621.5" style="stroke:#181818;stroke-width:1.0;"/><line style="stroke:#181818;stroke-width:1.0;stroke-dasharray:2.0,2.0;" x1="46" x2="531" y1="621.5" y2="621.5"/><text fill="#000000" font-family="FG Virgil" font-size="20" lengthAdjust="spacing" textLength="467" x="58" y="614.7832">show list of system users and ask to select one</text><polygon fill="#181818" points="520,654.7813,530,658.7813,520,662.7813,524,658.7813" style="stroke:#181818;stroke-width:1.0;"/><line style="stroke:#181818;stroke-width:1.0;" x1="41" x2="526" y1="658.7813" y2="658.7813"/><text fill="#000000" font-family="FG Virgil" font-size="20" lengthAdjust="spacing" textLength="185" x="48" y="652.0645">select system user</text><polygon fill="#181818" points="872,692.0625,882,696.0625,872,700.0625,876,696.0625" style="stroke:#181818;stroke-width:1.0;"/><line style="stroke:#181818;stroke-width:1.0;" x1="542" x2="878" y1="696.0625" y2="696.0625"/><text fill="#000000" font-family="FG Virgil" font-size="20" lengthAdjust="spacing" textLength="323" x="549" y="689.3457">disableSystemUser(systemUser)</text><polygon fill="#181818" points="1224,729.3438,1234,733.3438,1224,737.3438,1228,733.3438" style="stroke:#181818;stroke-width:1.0;"/><line style="stroke:#181818;stroke-width:1.0;" x1="894" x2="1230" y1="733.3438" y2="733.3438"/><text fill="#000000" font-family="FG Virgil" font-size="20" lengthAdjust="spacing" textLength="323" x="901" y="726.627">disableSystemUser(systemUser)</text><polygon fill="#181818" points="1469,766.625,1479,770.625,1469,774.625,1473,770.625" style="stroke:#181818;stroke-width:1.0;"/><line style="stroke:#181818;stroke-width:1.0;" x1="1246" x2="1475" y1="770.625" y2="770.625"/><text fill="#000000" font-family="FG Virgil" font-size="20" lengthAdjust="spacing" textLength="133" x="1253" y="763.9082">repositories()</text><polygon fill="#181818" points="1684,803.9063,1694,807.9063,1684,811.9063,1688,807.9063" style="stroke:#181818;stroke-width:1.0;"/><line style="stroke:#181818;stroke-width:1.0;" x1="1491" x2="1690" y1="807.9063" y2="807.9063"/><text fill="#000000" font-family="FG Virgil" font-size="20" lengthAdjust="spacing" textLength="79" x="1498" y="801.1895">create()</text><polygon fill="#181818" points="1679,841.1875,1689,845.1875,1679,849.1875,1683,845.1875" style="stroke:#181818;stroke-width:1.0;"/><line style="stroke:#181818;stroke-width:1.0;" x1="1486" x2="1685" y1="845.1875" y2="845.1875"/><text fill="#000000" font-family="FG Virgil" font-size="20" lengthAdjust="spacing" textLength="142" x="1493" y="838.4707">systemUsers()</text><polygon fill="#181818" points="1869.5,878.4688,1879.5,882.4688,1869.5,886.4688,1873.5,882.4688" style="stroke:#181818;stroke-width:1.0;"/><line style="stroke:#181818;stroke-width:1.0;" x1="1696" x2="1875.5" y1="882.4688" y2="882.4688"/><text fill="#000000" font-family="FG Virgil" font-size="20" lengthAdjust="spacing" textLength="79" x="1703" y="875.752">create()</text><polygon fill="#181818" points="1864.5,915.75,1874.5,919.75,1864.5,923.75,1868.5,919.75" style="stroke:#181818;stroke-width:1.0;"/><line style="stroke:#181818;stroke-width:1.0;" x1="1246" x2="1870.5" y1="919.75" y2="919.75"/><text fill="#000000" font-family="FG Virgil" font-size="20" lengthAdjust="spacing" textLength="204" x="1253" y="913.0332">disable(systemUser)</text><polygon fill="#181818" points="1257,953.0313,1247,957.0313,1257,961.0313,1253,957.0313" style="stroke:#181818;stroke-width:1.0;"/><line style="stroke:#181818;stroke-width:1.0;stroke-dasharray:2.0,2.0;" x1="1251" x2="1880.5" y1="957.0313" y2="957.0313"/><text fill="#000000" font-family="FG Virgil" font-size="20" lengthAdjust="spacing" textLength="116" x="1263" y="950.3145">systemUser</text><polygon fill="#181818" points="905,990.3125,895,994.3125,905,998.3125,901,994.3125" style="stroke:#181818;stroke-width:1.0;"/><line style="stroke:#181818;stroke-width:1.0;stroke-dasharray:2.0,2.0;" x1="899" x2="1240" y1="994.3125" y2="994.3125"/><text fill="#000000" font-family="FG Virgil" font-size="20" lengthAdjust="spacing" textLength="116" x="911" y="987.5957">systemUser</text><polygon fill="#181818" points="553,1027.5938,543,1031.5938,553,1035.5938,549,1031.5938" style="stroke:#181818;stroke-width:1.0;"/><line style="stroke:#181818;stroke-width:1.0;stroke-dasharray:2.0,2.0;" x1="547" x2="888" y1="1031.5938" y2="1031.5938"/><text fill="#000000" font-family="FG Virgil" font-size="20" lengthAdjust="spacing" textLength="116" x="559" y="1024.877">systemUser</text><polygon fill="#181818" points="52,1064.875,42,1068.875,52,1072.875,48,1068.875" style="stroke:#181818;stroke-width:1.0;"/><line style="stroke:#181818;stroke-width:1.0;stroke-dasharray:2.0,2.0;" x1="46" x2="536" y1="1068.875" y2="1068.875"/><text fill="#000000" font-family="FG Virgil" font-size="20" lengthAdjust="spacing" textLength="332" x="58" y="1062.1582">show operation success message</text><!--SRC=[pLMnRjim4Dtv5RUb7H877GN1G53KWOSMHGrtPwYpJPWY1PAEwtvzZueadXMfQT6bYqJgtdiatprGuQXj8xsiZLD7hA32dJoPk78sRlHFX0_tukOGOrCi5esHDfvgSwTSlGWzx-uGQoDkXZaSfAtENiU85g8_eSYbsbcd3jxLEAuqKXtb7ZVnOX0ygiXgR4jV955NZ_1T-xqs31CEid9dRVUmaoQW4595v-6XghK56U0XJGLXerQweNF09okV36uk8MAz3UYtwuIZPras7WFQAADsThdyBUiZRSexOz0dDfkLfMmQezMKI29-bfREMzCo6_JFMc7YzyEo32-Z4V4h-g1fQQimBOK_OcAnhsdpUJPYVyF61Kq-N5QjEvT4xeTbkNiP4QcIKJx9WEr6Col1sQmi_J0XaX2jnt2x91CBg7H8Ja5ehO8JAQMUw6SPINSjo6X2PiCAK1wfDb4mT9pi-BltMIUZ1BEUw9sHlIXnU9q3e1N3f1ouT0SGeky9aPZH1Go7rtX5P20XU6j8e3Ex67OrKm_3QPDqXPFYmyUE9RhtxJ8tAQ_4H7eyFngZp3cI8I8FkPUfnu4ln1XvhL5pNv46uqSTIw5w1MO1sAuJgirWGTU1ExUv0RVZ4Gn0bnFb-0ZHGK135mquYzVHxRxpv4waiWiu2sRksbz5z0-5Ub_-9O__THndqjZPCstAcvdCh9bWpkLocjWtOIARquIhWC8ueOukw_O70U6a58O0DJtelq2tAHFPhdy1]--></g></svg>