<?xml version="1.0" encoding="UTF-8" standalone="no"?><svg xmlns="http://www.w3.org/2000/svg" xmlns:xlink="http://www.w3.org/1999/xlink" contentStyleType="text/css" height="3394px" preserveAspectRatio="none" style="width:1786px;height:3394px;background:#FFFFFF;" version="1.1" viewBox="0 0 1786 3394" width="1786px" zoomAndPan="magnify"><defs/><g><!--entity Teacher--><g id="elem_Teacher"><ellipse cx="49.5" cy="2742.5" fill="#F1F1F1" rx="8" ry="8" style="stroke:#181818;stroke-width:0.5;"/><path d="M49.5,2750.5 L49.5,2777.5 M36.5,2758.5 L62.5,2758.5 M49.5,2777.5 L36.5,2792.5 M49.5,2777.5 L62.5,2792.5 " fill="none" style="stroke:#181818;stroke-width:0.5;"/><text fill="#000000" font-family="sans-serif" font-size="20" lengthAdjust="spacing" textLength="80" x="9.5" y="2812.5645">Teacher</text></g><!--entity Student--><g id="elem_Student"><ellipse cx="49.5" cy="2195.5" fill="#F1F1F1" rx="8" ry="8" style="stroke:#181818;stroke-width:0.5;"/><path d="M49.5,2203.5 L49.5,2230.5 M36.5,2211.5 L62.5,2211.5 M49.5,2230.5 L36.5,2245.5 M49.5,2230.5 L62.5,2245.5 " fill="none" style="stroke:#181818;stroke-width:0.5;"/><text fill="#000000" font-family="sans-serif" font-size="20" lengthAdjust="spacing" textLength="80" x="9.5" y="2265.5645">Student</text></g><!--entity Manager--><g id="elem_Manager"><ellipse cx="49.5" cy="1525.5" fill="#F1F1F1" rx="8" ry="8" style="stroke:#181818;stroke-width:0.5;"/><path d="M49.5,1533.5 L49.5,1560.5 M36.5,1541.5 L62.5,1541.5 M49.5,1560.5 L36.5,1575.5 M49.5,1560.5 L62.5,1575.5 " fill="none" style="stroke:#181818;stroke-width:0.5;"/><text fill="#000000" font-family="sans-serif" font-size="20" lengthAdjust="spacing" textLength="87" x="6" y="1595.5645">Manager</text></g><!--entity Team--><g id="elem_Team"><ellipse cx="49.5" cy="758.5" fill="#F1F1F1" rx="8" ry="8" style="stroke:#181818;stroke-width:0.5;"/><path d="M49.5,766.5 L49.5,793.5 M36.5,774.5 L62.5,774.5 M49.5,793.5 L36.5,808.5 M49.5,793.5 L62.5,808.5 " fill="none" style="stroke:#181818;stroke-width:0.5;"/><text fill="#000000" font-family="sans-serif" font-size="20" lengthAdjust="spacing" textLength="56" x="21.5" y="828.5645">Team</text></g><!--entity User--><g id="elem_User"><ellipse cx="49.5" cy="156.5" fill="#F1F1F1" rx="8" ry="8" style="stroke:#181818;stroke-width:0.5;"/><path d="M49.5,164.5 L49.5,191.5 M36.5,172.5 L62.5,172.5 M49.5,191.5 L36.5,206.5 M49.5,191.5 L62.5,206.5 " fill="none" style="stroke:#181818;stroke-width:0.5;"/><text fill="#000000" font-family="sans-serif" font-size="20" lengthAdjust="spacing" textLength="45" x="27" y="226.5645">User</text></g><g id="elem_UC1001"><ellipse cx="966.2501" cy="1172.55" fill="#F1F1F1" rx="328.2501" ry="68.05" style="stroke:#181818;stroke-width:0.5;"/><text fill="#000000" font-family="sans-serif" font-size="20" lengthAdjust="spacing" textLength="628" x="652.2501" y="1177.4738">UC1001 - Register, disable/enable, and list users of the system</text></g><g id="elem_UC1002"><ellipse cx="966.739" cy="1307.6478" fill="#F1F1F1" rx="146.239" ry="31.6478" style="stroke:#181818;stroke-width:0.5;"/><text fill="#000000" font-family="sans-serif" font-size="20" lengthAdjust="spacing" textLength="248" x="839.739" y="1314.18">UC1002 - Create courses</text></g><g id="elem_UC1003"><ellipse cx="966.6858" cy="1428.3372" fill="#F1F1F1" rx="259.6858" ry="54.3372" style="stroke:#181818;stroke-width:0.5;"/><text fill="#000000" font-family="sans-serif" font-size="20" lengthAdjust="spacing" textLength="488" x="722.6858" y="1433.261">UC1003 - Open and close enrollments in courses</text></g><g id="elem_UC1004"><ellipse cx="966.463" cy="1558.2926" fill="#F1F1F1" rx="186.963" ry="39.7926" style="stroke:#181818;stroke-width:0.5;"/><text fill="#000000" font-family="sans-serif" font-size="20" lengthAdjust="spacing" textLength="337" x="797.2901" y="1563.6199">UC1004 - Open and close courses</text></g><g id="elem_UC1005"><ellipse cx="966.48" cy="1677.296" fill="#F1F1F1" rx="206.98" ry="43.796" style="stroke:#181818;stroke-width:0.5;"/><text fill="#000000" font-family="sans-serif" font-size="20" lengthAdjust="spacing" textLength="379" x="776.98" y="1682.2198">UC1005 - Set the teachers of a course</text></g><g id="elem_UC1006"><ellipse cx="966.6686" cy="64.5337" fill="#F1F1F1" rx="280.6686" ry="58.5337" style="stroke:#181818;stroke-width:0.5;"/><text fill="#000000" font-family="sans-serif" font-size="20" lengthAdjust="spacing" textLength="531" x="701.1686" y="69.4575">UC1006 - List all the courses that are available to me</text></g><g id="elem_UC1007"><ellipse cx="966.6052" cy="1833.521" fill="#F1F1F1" rx="373.1052" ry="77.021" style="stroke:#181818;stroke-width:0.5;"/><text fill="#000000" font-family="sans-serif" font-size="20" lengthAdjust="spacing" textLength="719" x="607.1052" y="1838.4449">UC1007 - Enroll students in bulk by importing their data using a csv file</text></g><g id="elem_UC1008"><ellipse cx="966.7197" cy="2162.6439" fill="#F1F1F1" rx="241.2197" ry="50.6439" style="stroke:#181818;stroke-width:0.5;"/><text fill="#000000" font-family="sans-serif" font-size="20" lengthAdjust="spacing" textLength="450" x="741.7197" y="2167.5678">UC1008 - Request my enrollment in a course</text></g><g id="elem_UC1009"><ellipse cx="966.4773" cy="2011.3955" fill="#F1F1F1" rx="314.9773" ry="65.3955" style="stroke:#181818;stroke-width:0.5;"/><text fill="#000000" font-family="sans-serif" font-size="20" lengthAdjust="spacing" textLength="601" x="665.9773" y="2016.3193">UC1009 - Approve or reject students applications to courses</text></g><g id="elem_UC1010"><ellipse cx="966.276" cy="2409.2552" fill="#F1F1F1" rx="154.276" ry="33.2552" style="stroke:#181818;stroke-width:0.5;"/><text fill="#000000" font-family="sans-serif" font-size="20" lengthAdjust="spacing" textLength="266" x="830.276" y="2415.7874">UC1010 - Schedule a class</text></g><g id="elem_UC1011"><ellipse cx="966.7215" cy="2525.6443" fill="#F1F1F1" rx="226.2215" ry="47.6443" style="stroke:#181818;stroke-width:0.5;"/><text fill="#000000" font-family="sans-serif" font-size="20" lengthAdjust="spacing" textLength="419" x="757.2215" y="2530.5681">UC1011 - Schedule an extraordinary class</text></g><g id="elem_UC1012"><ellipse cx="966.453" cy="2654.3906" fill="#F1F1F1" rx="219.953" ry="46.3906" style="stroke:#181818;stroke-width:0.5;"/><text fill="#000000" font-family="sans-serif" font-size="20" lengthAdjust="spacing" textLength="406" x="763.453" y="2659.3144">UC1012 - Update the schedule of a class</text></g><g id="elem_UC2001"><ellipse cx="966.4909" cy="2775.6982" fill="#F1F1F1" rx="186.4909" ry="39.6982" style="stroke:#181818;stroke-width:0.5;"/><text fill="#000000" font-family="sans-serif" font-size="20" lengthAdjust="spacing" textLength="336" x="797.7608" y="2781.0585">UC2001 - Create/update an exam</text></g><g id="elem_UC2002"><ellipse cx="966.5084" cy="2294.6017" fill="#F1F1F1" rx="218.5084" ry="46.1017" style="stroke:#181818;stroke-width:0.5;"/><text fill="#000000" font-family="sans-serif" font-size="20" lengthAdjust="spacing" textLength="403" x="765.0084" y="2299.5255">UC2002 - View a list of my future exams</text></g><g id="elem_UC2003"><ellipse cx="966.3117" cy="2900.5623" fill="#F1F1F1" rx="238.3117" ry="50.0623" style="stroke:#181818;stroke-width:0.5;"/><text fill="#000000" font-family="sans-serif" font-size="20" lengthAdjust="spacing" textLength="444" x="744.3117" y="2905.4862">UC2003 - View a list of all exams in a course</text></g><g id="elem_UC2007"><ellipse cx="966.4382" cy="3104.5876" fill="#F1F1F1" rx="580.9382" ry="118.5876" style="stroke:#181818;stroke-width:0.5;"/><text fill="#000000" font-family="sans-serif" font-size="20" lengthAdjust="spacing" textLength="1138" x="397.4382" y="3109.5115">UC2007 - Add/update exam questions to a repository of exam questions to be used in automatic formative exams</text></g><g id="elem_UC2008"><ellipse cx="966.736" cy="3316.4472" fill="#F1F1F1" rx="277.736" ry="57.9472" style="stroke:#181818;stroke-width:0.5;"/><text fill="#000000" font-family="sans-serif" font-size="20" lengthAdjust="spacing" textLength="525" x="704.236" y="3321.371">UC2008 - Create/update automatic formative exams</text></g><g id="elem_UC3001"><ellipse cx="966.5711" cy="477.6142" fill="#F1F1F1" rx="556.0711" ry="113.6142" style="stroke:#181818;stroke-width:0.5;"/><text fill="#000000" font-family="sans-serif" font-size="20" lengthAdjust="spacing" textLength="1088" x="422.5711" y="482.538">UC3001 - Prepare the communication infrastruture for the Shared Boards and the depoyment of the solution</text></g><g id="elem_UC3002"><ellipse cx="966.739" cy="189.6478" fill="#F1F1F1" rx="146.239" ry="31.6478" style="stroke:#181818;stroke-width:0.5;"/><text fill="#000000" font-family="sans-serif" font-size="20" lengthAdjust="spacing" textLength="248" x="839.739" y="196.18">UC3002 - Create a board</text></g><g id="elem_UC3003"><ellipse cx="966.5923" cy="791.6185" fill="#F1F1F1" rx="813.5923" ry="165.1185" style="stroke:#181818;stroke-width:0.5;"/><text fill="#000000" font-family="sans-serif" font-size="20" lengthAdjust="spacing" textLength="1599" x="164.0923" y="796.5423">UC3003 - Explore" the synchronization problems related to the shyncronization of shared boards and design a conceptual solution based on practical evidence.</text></g><g id="elem_UC4001"><ellipse cx="966.6846" cy="292.4369" fill="#F1F1F1" rx="170.1846" ry="36.4369" style="stroke:#181818;stroke-width:0.5;"/><text fill="#000000" font-family="sans-serif" font-size="20" lengthAdjust="spacing" textLength="301" x="813.2507" y="298.9385">UC4001 - Schedule a meeting</text></g><g id="elem_UC5001"><ellipse cx="966.7256" cy="1030.4451" fill="#F1F1F1" rx="182.7256" ry="38.9451" style="stroke:#181818;stroke-width:0.5;"/><text fill="#000000" font-family="sans-serif" font-size="20" lengthAdjust="spacing" textLength="328" x="801.5273" y="1036.069">UC5001 - Prepare a presentation</text></g><!--link Manager to UC1001--><g id="link_Manager_UC1001"><path d="M51.4,1517 C55.28,1450.75 73.3,1322.1 153,1258.5 C305.03,1137.18 527.31,1121.15 700.97,1132.43 " fill="none" id="Manager-UC1001" style="stroke:#181818;stroke-width:1.0;"/></g><!--link Manager to UC1002--><g id="link_Manager_UC1002"><path d="M58.82,1516.58 C70.72,1468.86 97.6,1392.85 153,1356.5 C260,1286.29 622.31,1290.9 825.1,1299.6 " fill="none" id="Manager-UC1002" style="stroke:#181818;stroke-width:1.0;"/></g><!--link Manager to UC1003--><g id="link_Manager_UC1003"><path d="M93.09,1529.56 C110.85,1518.92 132.18,1507.91 153,1501.5 C332.86,1446.15 544.9,1428.59 707.26,1424.5 " fill="none" id="Manager-UC1003" style="stroke:#181818;stroke-width:1.0;"/></g><!--link Manager to UC1004--><g id="link_Manager_UC1004"><path d="M93.1,1558.5 C213.36,1558.5 560.85,1558.5 779.26,1558.5 " fill="none" id="Manager-UC1004" style="stroke:#181818;stroke-width:1.0;"/></g><!--link Manager to UC1005--><g id="link_Manager_UC1005"><path d="M93.47,1588.41 C111.12,1599.17 132.26,1610.2 153,1616.5 C354.5,1677.71 596.42,1688.36 763.6,1686.55 " fill="none" id="Manager-UC1005" style="stroke:#181818;stroke-width:1.0;"/></g><!--link Manager to UC1007--><g id="link_Manager_UC1007"><path d="M61.96,1600.32 C75.97,1642.89 104.09,1707.08 153,1739.5 C288.3,1829.18 464.77,1857.52 618.67,1861.41 " fill="none" id="Manager-UC1007" style="stroke:#181818;stroke-width:1.0;"/></g><!--link Manager to UC1009--><g id="link_Manager_UC1009"><path d="M56.14,1600.32 C68.84,1687.87 102.58,1885.93 153,1928.5 C308.88,2060.11 546.18,2070 724.15,2053.42 " fill="none" id="Manager-UC1009" style="stroke:#181818;stroke-width:1.0;"/></g><!--link Teacher to UC1010--><g id="link_Teacher_UC1010"><path d="M50.29,2733.82 C52.45,2664.47 67.89,2526.48 153,2460.5 C253.32,2382.73 612.88,2388.99 818.49,2399.64 " fill="none" id="Teacher-UC1010" style="stroke:#181818;stroke-width:1.0;"/></g><!--link Teacher to UC1011--><g id="link_Teacher_UC1011"><path d="M61.09,2733.63 C74.55,2689.87 102.38,2623.11 153,2590.5 C344.97,2466.82 617.78,2473.24 793.22,2494.88 " fill="none" id="Teacher-UC1011" style="stroke:#181818;stroke-width:1.0;"/></g><!--link Teacher to UC1012--><g id="link_Teacher_UC1012"><path d="M89.61,2748.53 C108.02,2737.24 130.78,2725.21 153,2718.5 C348.91,2659.38 582.78,2646.64 749.2,2646.73 " fill="none" id="Teacher-UC1012" style="stroke:#181818;stroke-width:1.0;"/></g><!--link Teacher to UC2001--><g id="link_Teacher_UC2001"><path d="M89.52,2775.5 C206.44,2775.5 559.38,2775.5 779.95,2775.5 " fill="none" id="Teacher-UC2001" style="stroke:#181818;stroke-width:1.0;"/></g><!--link Teacher to UC2003--><g id="link_Teacher_UC2003"><path d="M89.63,2802.42 C108.04,2813.7 130.79,2825.74 153,2832.5 C341.4,2889.85 564.99,2904.95 729.88,2906.78 " fill="none" id="Teacher-UC2003" style="stroke:#181818;stroke-width:1.0;"/></g><!--link Teacher to UC2007--><g id="link_Teacher_UC2007"><path d="M60.77,2817.05 C74.14,2861.89 102.05,2931.8 153,2968.5 C225.68,3020.85 311.42,3055.72 399.48,3078.54 " fill="none" id="Teacher-UC2007" style="stroke:#181818;stroke-width:1.0;"/></g><!--link Teacher to UC2008--><g id="link_Teacher_UC2008"><path d="M53.55,2817.21 C62.04,2920.61 89.57,3184.47 153,3240.5 C319.57,3387.64 587.1,3382.99 769.31,3357.32 " fill="none" id="Teacher-UC2008" style="stroke:#181818;stroke-width:1.0;"/></g><!--link Student to UC1008--><g id="link_Student_UC1008"><path d="M89.52,2225.69 C199.36,2217.76 517.51,2194.81 738.51,2178.87 " fill="none" id="Student-UC1008" style="stroke:#181818;stroke-width:1.0;"/></g><!--link Student to UC2002--><g id="link_Student_UC2002"><path d="M89.52,2231.31 C202.86,2239.49 537.98,2263.66 759.31,2279.63 " fill="none" id="Student-UC2002" style="stroke:#181818;stroke-width:1.0;"/></g><!--link User to UC1006--><g id="link_User_UC1006"><path d="M72.01,176.44 C92.17,164.89 123.53,148.64 153,140.5 C326.26,92.62 527.35,73.54 686.13,66.46 " fill="none" id="User-UC1006" style="stroke:#181818;stroke-width:1.0;"/></g><!--link User to UC3002--><g id="link_User_UC3002"><path d="M72.22,189.5 C172.28,189.5 593.69,189.5 820.13,189.5 " fill="none" id="User-UC3002" style="stroke:#181818;stroke-width:1.0;"/></g><!--link User to UC4001--><g id="link_User_UC4001"><path d="M72.36,202.97 C92.49,214.64 123.62,230.8 153,238.5 C371.3,295.67 633.26,302.54 799.56,299.61 " fill="none" id="User-UC4001" style="stroke:#181818;stroke-width:1.0;"/></g><!--link Team to UC3001--><g id="link_Team_UC3001"><path d="M62.2,749.9 C76.4,707.47 104.68,643.23 153,609.5 C231.44,554.74 324.4,519.59 418.94,497.55 " fill="none" id="Team-UC3001" style="stroke:#181818;stroke-width:1.0;"/></g><!--link Team to UC3003--><g id="link_Team_UC3003"><path d="M77.88,791.5 C95.65,791.5 121.36,791.5 152.91,791.5 " fill="none" id="Team-UC3003" style="stroke:#181818;stroke-width:1.0;"/></g><!--link Team to UC5001--><g id="link_Team_UC5001"><path d="M61.15,833.04 C74.67,876.43 102.55,942.55 153,974.5 C361.15,1106.31 662.37,1084.63 833.53,1057.34 " fill="none" id="Team-UC5001" style="stroke:#181818;stroke-width:1.0;"/></g><!--SRC=[ZLN1SjCm4BtxAtOumKmBYPqq9JVeb1CC3ANSDzOc4PKb8ycXuUjPILRYr3xGIpKlRvzMRvzazoHrYnORPUed4Y1eYvtodups3_8lGJah56qzU0DMxlOUXBHKUsbqiVv1ME_9hW4TzEjY_U0xGTf7i5yNwo-eSTSp-tKiRt9jKwmVNKy8Yw9u_NWtdytcS0tVQIUT9tl5UplSA7f7Elox0jG25Fy67PSuC5lmUm9tP7Rp9aZr8czwjPBLxYoX9wXDPnsv0QlCh8fPNrlIKRvMnX6GjaQfXi_YGEg9uYeNByR5O_OYivVCVY0Vs_R9mNWCx8i6DSjSSyCrdyEXKQbOsElp6Xcq17X0gO93OMhDKEGcYwnOv3uU2bmQKZpOfbDFi3c2R5fZlTIxi86q8D0Zcnm0RiqTO2lLK7ULTM_Zl7vtnFqrnu5lGNtYLBUvy3qNVcXRQmu4neAbNvooSs_OjahM67Bdmgd6dhxlbUQpu2axAJesWBTKw0Qy-IppvXSy3VJiBHehf4Px79Nb3Cr3XXvR4J8KmvOLqjHULALCbId7ANdlkbGSTyHJJCiSqpB5zAUaFomOqytIxEMsynqFDnIvGTLfYsfS5H8I-LFkbpcrPOh31o5oRw46uX2ptyWJQOsJth0th3ncR2ZSGX5twhnfU5OrR8qDYyEuxLNU-dRip7-KfznKoTXlt5l8VReCJTFfFYhSpDQYypPPntAHyx1dje2F1grmyQ86LF01Zp6g-HqngWigUTigZwYwU4aGDa5em2epAupa_hbLnjAh_cdIzTuQBV-c_ZZlV4rvFfOKQubWPEJjcJZWSKSkDRqvDot8oLsQgwwfzHsgKy-mmJ2Ck0NoSrtpRtIGV9bgUWk3NbC45id8mRLfYCBzpyn5Flloqd9aVN9i6WwTMaPs-kkVUxY-Fh_68woSmAe9R361BIUmrGJ63qJHVwLEO7WDHjXy0YjVOkc-Zh1g0bjDO9pVelywdZjay19Brxi87yGpYz_m0P3YDW0MlVVXethcf5u7G7K1n87z0m00]--></g></svg>