<?xml version="1.0" encoding="UTF-8" standalone="no"?><svg xmlns="http://www.w3.org/2000/svg" xmlns:xlink="http://www.w3.org/1999/xlink" contentStyleType="text/css" height="1670px" preserveAspectRatio="none" style="width:3570px;height:1670px;background:#FFFFFF;" version="1.1" viewBox="0 0 3570 1670" width="3570px" zoomAndPan="magnify"><defs/><g><text fill="#000000" font-family="sans-serif" font-size="14" font-weight="bold" lengthAdjust="spacing" textLength="110" x="1723" y="32.9951">Domain Model</text><!--cluster eCourseUser--><g id="cluster_eCourseUser"><path d="M1300.5,602.2969 L1466.5,602.2969 A3.75,3.75 0 0 1 1469,604.7969 L1476,651.5781 L2519.5,651.5781 A2.5,2.5 0 0 1 2522,654.0781 L2522,1030.7969 A2.5,2.5 0 0 1 2519.5,1033.2969 L1300.5,1033.2969 A2.5,2.5 0 0 1 1298,1030.7969 L1298,604.7969 A2.5,2.5 0 0 1 1300.5,602.2969 " fill="#D3D3D3" style="stroke:#000000;stroke-width:1.5;"/><line style="stroke:#000000;stroke-width:1.5;" x1="1298" x2="1476" y1="651.5781" y2="651.5781"/><text fill="#000000" font-family="sans-serif" font-size="20" font-weight="bold" lengthAdjust="spacing" textLength="145" x="1312" y="632.8613">eCourseUser</text></g><!--cluster Teacher--><g id="cluster_Teacher"><path d="M1472.5,311.2969 L1585.5,311.2969 A3.75,3.75 0 0 1 1588,313.7969 L1595,360.5781 L1854.5,360.5781 A2.5,2.5 0 0 1 1857,363.0781 L1857,491.7969 A2.5,2.5 0 0 1 1854.5,494.2969 L1472.5,494.2969 A2.5,2.5 0 0 1 1470,491.7969 L1470,313.7969 A2.5,2.5 0 0 1 1472.5,311.2969 " fill="#D3D3D3" style="stroke:#000000;stroke-width:1.5;"/><line style="stroke:#000000;stroke-width:1.5;" x1="1470" x2="1595" y1="360.5781" y2="360.5781"/><text fill="#000000" font-family="sans-serif" font-size="20" font-weight="bold" lengthAdjust="spacing" textLength="92" x="1484" y="341.8613">Teacher</text></g><!--cluster Student--><g id="cluster_Student"><path d="M1883.5,63.2969 L1994.5,63.2969 A3.75,3.75 0 0 1 1997,65.7969 L2004,112.5781 L2184.5,112.5781 A2.5,2.5 0 0 1 2187,115.0781 L2187,491.7969 A2.5,2.5 0 0 1 2184.5,494.2969 L1883.5,494.2969 A2.5,2.5 0 0 1 1881,491.7969 L1881,65.7969 A2.5,2.5 0 0 1 1883.5,63.2969 " fill="#D3D3D3" style="stroke:#000000;stroke-width:1.5;"/><line style="stroke:#000000;stroke-width:1.5;" x1="1881" x2="2004" y1="112.5781" y2="112.5781"/><text fill="#000000" font-family="sans-serif" font-size="20" font-weight="bold" lengthAdjust="spacing" textLength="90" x="1895" y="93.8613">Student</text></g><!--cluster Board--><g id="cluster_Board"><path d="M2548.5,268.2969 L2636.5,268.2969 A3.75,3.75 0 0 1 2639,270.7969 L2646,317.5781 L3300.5,317.5781 A2.5,2.5 0 0 1 3303,320.0781 L3303,1016.7969 A2.5,2.5 0 0 1 3300.5,1019.2969 L2548.5,1019.2969 A2.5,2.5 0 0 1 2546,1016.7969 L2546,270.7969 A2.5,2.5 0 0 1 2548.5,268.2969 " fill="#D3D3D3" style="stroke:#000000;stroke-width:1.5;"/><line style="stroke:#000000;stroke-width:1.5;" x1="2546" x2="2646" y1="317.5781" y2="317.5781"/><text fill="#000000" font-family="sans-serif" font-size="20" font-weight="bold" lengthAdjust="spacing" textLength="67" x="2560" y="298.8613">Board</text></g><!--cluster BoardUpdate--><g id="cluster_BoardUpdate"><path d="M8.5,289.7969 L178.5,289.7969 A3.75,3.75 0 0 1 181,292.2969 L188,339.0781 L755.5,339.0781 A2.5,2.5 0 0 1 758,341.5781 L758,1030.7969 A2.5,2.5 0 0 1 755.5,1033.2969 L8.5,1033.2969 A2.5,2.5 0 0 1 6,1030.7969 L6,292.2969 A2.5,2.5 0 0 1 8.5,289.7969 " fill="#D3D3D3" style="stroke:#000000;stroke-width:1.5;"/><line style="stroke:#000000;stroke-width:1.5;" x1="6" x2="188" y1="339.0781" y2="339.0781"/><text fill="#000000" font-family="sans-serif" font-size="20" font-weight="bold" lengthAdjust="spacing" textLength="149" x="20" y="320.3613">BoardUpdate</text></g><!--cluster PostIt--><g id="cluster_PostIt"><path d="M930.5,850.2969 L1019.5,850.2969 A3.75,3.75 0 0 1 1022,852.7969 L1029,899.5781 L1125.5,899.5781 A2.5,2.5 0 0 1 1128,902.0781 L1128,1660.7969 A2.5,2.5 0 0 1 1125.5,1663.2969 L930.5,1663.2969 A2.5,2.5 0 0 1 928,1660.7969 L928,852.7969 A2.5,2.5 0 0 1 930.5,850.2969 " fill="#D3D3D3" style="stroke:#000000;stroke-width:1.5;"/><line style="stroke:#000000;stroke-width:1.5;" x1="928" x2="1029" y1="899.5781" y2="899.5781"/><text fill="#000000" font-family="sans-serif" font-size="20" font-weight="bold" lengthAdjust="spacing" textLength="68" x="942" y="880.8613">PostIt</text></g><!--cluster BoardShare--><g id="cluster_BoardShare"><path d="M3353.5,311.2969 L3507.5,311.2969 A3.75,3.75 0 0 1 3510,313.7969 L3517,360.5781 L3560.5,360.5781 A2.5,2.5 0 0 1 3563,363.0781 L3563,1016.7969 A2.5,2.5 0 0 1 3560.5,1019.2969 L3353.5,1019.2969 A2.5,2.5 0 0 1 3351,1016.7969 L3351,313.7969 A2.5,2.5 0 0 1 3353.5,311.2969 " fill="#D3D3D3" style="stroke:#000000;stroke-width:1.5;"/><line style="stroke:#000000;stroke-width:1.5;" x1="3351" x2="3517" y1="360.5781" y2="360.5781"/><text fill="#000000" font-family="sans-serif" font-size="20" font-weight="bold" lengthAdjust="spacing" textLength="133" x="3365" y="341.8613">BoardShare</text></g><!--class eCourseUser--><g id="elem_eCourseUser"><rect codeLine="20" fill="#F1F1F1" height="104.5625" id="eCourseUser" rx="2.5" ry="2.5" style="stroke:#181818;stroke-width:0.5;" width="152" x="1820" y="664.2969"/><text fill="#000000" font-family="sans-serif" font-size="20" font-style="italic" lengthAdjust="spacing" textLength="64" x="1864" y="697.8613">«root»</text><text fill="#000000" font-family="sans-serif" font-size="20" lengthAdjust="spacing" textLength="126" x="1833" y="741.1426">eCourseUser</text><line style="stroke:#181818;stroke-width:0.5;" x1="1821" x2="1971" y1="760.8594" y2="760.8594"/></g><!--class ShortName--><g id="elem_ShortName"><rect codeLine="23" fill="#F1F1F1" height="104.5625" id="ShortName" rx="2.5" ry="2.5" style="stroke:#181818;stroke-width:0.5;" width="169" x="2337.5" y="912.2969"/><text fill="#000000" font-family="sans-serif" font-size="20" font-style="italic" lengthAdjust="spacing" textLength="147" x="2348.5" y="945.8613">«value object»</text><text fill="#000000" font-family="sans-serif" font-size="20" lengthAdjust="spacing" textLength="113" x="2365.5" y="989.1426">ShortName</text><line style="stroke:#181818;stroke-width:0.5;" x1="2338.5" x2="2505.5" y1="1008.8594" y2="1008.8594"/></g><!--class FullName--><g id="elem_FullName"><rect codeLine="24" fill="#F1F1F1" height="104.5625" id="FullName" rx="2.5" ry="2.5" style="stroke:#181818;stroke-width:0.5;" width="169" x="1313.5" y="912.2969"/><text fill="#000000" font-family="sans-serif" font-size="20" font-style="italic" lengthAdjust="spacing" textLength="147" x="1324.5" y="945.8613">«value object»</text><text fill="#000000" font-family="sans-serif" font-size="20" lengthAdjust="spacing" textLength="96" x="1350" y="989.1426">FullName</text><line style="stroke:#181818;stroke-width:0.5;" x1="1314.5" x2="1481.5" y1="1008.8594" y2="1008.8594"/></g><!--class BirthDate--><g id="elem_BirthDate"><rect codeLine="25" fill="#F1F1F1" height="104.5625" id="BirthDate" rx="2.5" ry="2.5" style="stroke:#181818;stroke-width:0.5;" width="169" x="1562.5" y="912.2969"/><text fill="#000000" font-family="sans-serif" font-size="20" font-style="italic" lengthAdjust="spacing" textLength="147" x="1573.5" y="945.8613">«value object»</text><text fill="#000000" font-family="sans-serif" font-size="20" lengthAdjust="spacing" textLength="96" x="1599" y="989.1426">BirthDate</text><line style="stroke:#181818;stroke-width:0.5;" x1="1563.5" x2="1730.5" y1="1008.8594" y2="1008.8594"/></g><!--class Email--><g id="elem_Email"><rect codeLine="26" fill="#F1F1F1" height="104.5625" id="Email" rx="2.5" ry="2.5" style="stroke:#181818;stroke-width:0.5;" width="169" x="1811.5" y="912.2969"/><text fill="#000000" font-family="sans-serif" font-size="20" font-style="italic" lengthAdjust="spacing" textLength="147" x="1822.5" y="945.8613">«value object»</text><text fill="#000000" font-family="sans-serif" font-size="20" lengthAdjust="spacing" textLength="57" x="1867.5" y="989.1426">Email</text><line style="stroke:#181818;stroke-width:0.5;" x1="1812.5" x2="1979.5" y1="1008.8594" y2="1008.8594"/></g><!--class TaxPayerNumber--><g id="elem_TaxPayerNumber"><rect codeLine="27" fill="#F1F1F1" height="104.5625" id="TaxPayerNumber" rx="2.5" ry="2.5" style="stroke:#181818;stroke-width:0.5;" width="197" x="2060.5" y="912.2969"/><text fill="#000000" font-family="sans-serif" font-size="20" font-style="italic" lengthAdjust="spacing" textLength="147" x="2085.5" y="945.8613">«value object»</text><text fill="#000000" font-family="sans-serif" font-size="20" lengthAdjust="spacing" textLength="171" x="2073.5" y="989.1426">TaxPayerNumber</text><line style="stroke:#181818;stroke-width:0.5;" x1="2061.5" x2="2256.5" y1="1008.8594" y2="1008.8594"/></g><!--class Teacher--><g id="elem_Teacher"><rect codeLine="31" fill="#F1F1F1" height="104.5625" id="Teacher" rx="2.5" ry="2.5" style="stroke:#181818;stroke-width:0.5;" width="106" x="1735" y="373.2969"/><text fill="#000000" font-family="sans-serif" font-size="20" font-style="italic" lengthAdjust="spacing" textLength="64" x="1756" y="406.8613">«root»</text><text fill="#000000" font-family="sans-serif" font-size="20" lengthAdjust="spacing" textLength="80" x="1748" y="450.1426">Teacher</text><line style="stroke:#181818;stroke-width:0.5;" x1="1736" x2="1840" y1="469.8594" y2="469.8594"/></g><!--class Acronym--><g id="elem_Acronym"><rect codeLine="34" fill="#F1F1F1" height="104.5625" id="Acronym" rx="2.5" ry="2.5" style="stroke:#181818;stroke-width:0.5;" width="169" x="1485.5" y="373.2969"/><text fill="#000000" font-family="sans-serif" font-size="20" font-style="italic" lengthAdjust="spacing" textLength="147" x="1496.5" y="406.8613">«value object»</text><text fill="#000000" font-family="sans-serif" font-size="20" lengthAdjust="spacing" textLength="89" x="1525.5" y="450.1426">Acronym</text><line style="stroke:#181818;stroke-width:0.5;" x1="1486.5" x2="1653.5" y1="469.8594" y2="469.8594"/></g><!--class Student--><g id="elem_Student"><rect codeLine="38" fill="#F1F1F1" height="104.5625" id="Student" rx="2.5" ry="2.5" style="stroke:#181818;stroke-width:0.5;" width="106" x="1951" y="373.2969"/><text fill="#000000" font-family="sans-serif" font-size="20" font-style="italic" lengthAdjust="spacing" textLength="83" x="1962.5" y="406.8613">«entity»</text><text fill="#000000" font-family="sans-serif" font-size="20" lengthAdjust="spacing" textLength="80" x="1964" y="450.1426">Student</text><line style="stroke:#181818;stroke-width:0.5;" x1="1952" x2="2056" y1="469.8594" y2="469.8594"/></g><!--class MechanographicNumber--><g id="elem_MechanographicNumber"><rect codeLine="41" fill="#F1F1F1" height="104.5625" id="MechanographicNumber" rx="2.5" ry="2.5" style="stroke:#181818;stroke-width:0.5;" width="273" x="1897.5" y="125.2969"/><text fill="#000000" font-family="sans-serif" font-size="20" font-style="italic" lengthAdjust="spacing" textLength="147" x="1960.5" y="158.8613">«value object»</text><text fill="#000000" font-family="sans-serif" font-size="20" lengthAdjust="spacing" textLength="247" x="1910.5" y="202.1426">MechanographicNumber</text><line style="stroke:#181818;stroke-width:0.5;" x1="1898.5" x2="2169.5" y1="221.8594" y2="221.8594"/></g><!--class Board--><g id="elem_Board"><rect codeLine="45" fill="#F1F1F1" height="191.125" id="Board" rx="2.5" ry="2.5" style="stroke:#181818;stroke-width:0.5;" width="178" x="2562" y="330.2969"/><text fill="#000000" font-family="sans-serif" font-size="20" font-style="italic" lengthAdjust="spacing" textLength="64" x="2619" y="363.8613">«root»</text><text fill="#000000" font-family="sans-serif" font-size="20" lengthAdjust="spacing" textLength="59" x="2621.5" y="407.1426">Board</text><line style="stroke:#181818;stroke-width:0.5;" x1="2563" x2="2739" y1="426.8594" y2="426.8594"/><rect fill="none" height="6" style="stroke:#C82930;stroke-width:1.0;" width="6" x="2570" y="451"/><text fill="#000000" font-family="sans-serif" font-size="20" lengthAdjust="spacing" textLength="131" x="2593" y="459.4238">maxColumns</text><rect fill="none" height="6" style="stroke:#C82930;stroke-width:1.0;" width="6" x="2570" y="494.2813"/><text fill="#000000" font-family="sans-serif" font-size="20" lengthAdjust="spacing" textLength="96" x="2593" y="502.7051">maxRows</text></g><!--class Title--><g id="elem_Title"><rect codeLine="50" fill="#F1F1F1" height="104.5625" id="Title" rx="2.5" ry="2.5" style="stroke:#181818;stroke-width:0.5;" width="169" x="2932.5" y="664.2969"/><text fill="#000000" font-family="sans-serif" font-size="20" font-style="italic" lengthAdjust="spacing" textLength="147" x="2943.5" y="697.8613">«value object»</text><text fill="#000000" font-family="sans-serif" font-size="20" lengthAdjust="spacing" textLength="44" x="2995" y="741.1426">Title</text><line style="stroke:#181818;stroke-width:0.5;" x1="2933.5" x2="3100.5" y1="760.8594" y2="760.8594"/></g><!--class Column--><g id="elem_Column"><rect codeLine="52" fill="#F1F1F1" height="191.125" id="Column" rx="2.5" ry="2.5" style="stroke:#181818;stroke-width:0.5;" width="105" x="3181.5" y="621.2969"/><text fill="#000000" font-family="sans-serif" font-size="20" font-style="italic" lengthAdjust="spacing" textLength="83" x="3192.5" y="654.8613">«entity»</text><text fill="#000000" font-family="sans-serif" font-size="20" lengthAdjust="spacing" textLength="78" x="3195" y="698.1426">Column</text><line style="stroke:#181818;stroke-width:0.5;" x1="3182.5" x2="3285.5" y1="717.8594" y2="717.8594"/><rect fill="none" height="6" style="stroke:#C82930;stroke-width:1.0;" width="6" x="3189.5" y="742"/><text fill="#000000" font-family="sans-serif" font-size="20" lengthAdjust="spacing" textLength="40" x="3212.5" y="750.4238">title</text><rect fill="none" height="6" style="stroke:#C82930;stroke-width:1.0;" width="6" x="3189.5" y="785.2813"/><text fill="#000000" font-family="sans-serif" font-size="20" lengthAdjust="spacing" textLength="19" x="3212.5" y="793.7051">id</text></g><!--class Row--><g id="elem_Row"><rect codeLine="57" fill="#F1F1F1" height="191.125" id="Row" rx="2.5" ry="2.5" style="stroke:#181818;stroke-width:0.5;" width="105" x="2562.5" y="621.2969"/><text fill="#000000" font-family="sans-serif" font-size="20" font-style="italic" lengthAdjust="spacing" textLength="83" x="2573.5" y="654.8613">«entity»</text><text fill="#000000" font-family="sans-serif" font-size="20" lengthAdjust="spacing" textLength="43" x="2593.5" y="698.1426">Row</text><line style="stroke:#181818;stroke-width:0.5;" x1="2563.5" x2="2666.5" y1="717.8594" y2="717.8594"/><rect fill="none" height="6" style="stroke:#C82930;stroke-width:1.0;" width="6" x="2570.5" y="742"/><text fill="#000000" font-family="sans-serif" font-size="20" lengthAdjust="spacing" textLength="40" x="2593.5" y="750.4238">title</text><rect fill="none" height="6" style="stroke:#C82930;stroke-width:1.0;" width="6" x="2570.5" y="785.2813"/><text fill="#000000" font-family="sans-serif" font-size="20" lengthAdjust="spacing" textLength="19" x="2593.5" y="793.7051">id</text></g><!--class State--><g id="elem_State"><rect codeLine="62" fill="#F1F1F1" height="104.5625" id="State" rx="2.5" ry="2.5" style="stroke:#181818;stroke-width:0.5;" width="104" x="2748" y="664.2969"/><text fill="#000000" font-family="sans-serif" font-size="20" font-style="italic" lengthAdjust="spacing" textLength="82" x="2759" y="697.8613">«enum»</text><text fill="#000000" font-family="sans-serif" font-size="20" lengthAdjust="spacing" textLength="53" x="2773.5" y="741.1426">State</text><line style="stroke:#181818;stroke-width:0.5;" x1="2749" x2="2851" y1="760.8594" y2="760.8594"/></g><g id="elem_GMN21"><path d="M2736.5,926.2969 L2736.5,1002.8594 A0,0 0 0 0 2736.5,1002.8594 L2863.5,1002.8594 A0,0 0 0 0 2863.5,1002.8594 L2863.5,936.2969 L2853.5,926.2969 L2804,926.2969 L2800,769.3869 L2796,926.2969 L2736.5,926.2969 A0,0 0 0 0 2736.5,926.2969 " fill="#A9A9A9" style="stroke:#181818;stroke-width:0.5;"/><path d="M2853.5,926.2969 L2853.5,936.2969 L2863.5,936.2969 L2853.5,926.2969 " fill="#A9A9A9" style="stroke:#181818;stroke-width:0.5;"/><text fill="#000000" font-family="sans-serif" font-size="20" lengthAdjust="spacing" textLength="60" x="2752.5" y="959.8613">active</text><text fill="#000000" font-family="sans-serif" font-size="20" lengthAdjust="spacing" textLength="86" x="2752.5" y="983.1426">archived</text></g><!--class Update--><g id="elem_Update"><rect codeLine="71" fill="#F1F1F1" height="147.8438" id="Update" rx="2.5" ry="2.5" style="stroke:#181818;stroke-width:0.5;" width="156" x="586" y="351.7969"/><text fill="#000000" font-family="sans-serif" font-size="20" font-style="italic" lengthAdjust="spacing" textLength="64" x="632" y="385.3613">«root»</text><text fill="#000000" font-family="sans-serif" font-size="20" lengthAdjust="spacing" textLength="73" x="627.5" y="428.6426">Update</text><line style="stroke:#181818;stroke-width:0.5;" x1="587" x2="741" y1="448.3594" y2="448.3594"/><rect fill="none" height="6" style="stroke:#C82930;stroke-width:1.0;" width="6" x="594" y="472.5"/><text fill="#000000" font-family="sans-serif" font-size="20" lengthAdjust="spacing" textLength="109" x="617" y="480.9238">timestamp</text></g><!--class BoardUpdate--><g id="elem_BoardUpdate"><rect codeLine="77" fill="#F1F1F1" height="104.5625" id="BoardUpdate" rx="2.5" ry="2.5" style="stroke:#181818;stroke-width:0.5;" width="158" x="314" y="664.2969"/><text fill="#000000" font-family="sans-serif" font-size="20" font-style="italic" lengthAdjust="spacing" textLength="83" x="351.5" y="697.8613">«entity»</text><text fill="#000000" font-family="sans-serif" font-size="20" lengthAdjust="spacing" textLength="132" x="327" y="741.1426">BoardUpdate</text><line style="stroke:#181818;stroke-width:0.5;" x1="315" x2="471" y1="760.8594" y2="760.8594"/></g><!--class CellUpdate--><g id="elem_CellUpdate"><rect codeLine="79" fill="#F1F1F1" height="104.5625" id="CellUpdate" rx="2.5" ry="2.5" style="stroke:#181818;stroke-width:0.5;" width="137" x="600.5" y="664.2969"/><text fill="#000000" font-family="sans-serif" font-size="20" font-style="italic" lengthAdjust="spacing" textLength="83" x="627.5" y="697.8613">«entity»</text><text fill="#000000" font-family="sans-serif" font-size="20" lengthAdjust="spacing" textLength="111" x="613.5" y="741.1426">CellUpdate</text><line style="stroke:#181818;stroke-width:0.5;" x1="601.5" x2="736.5" y1="760.8594" y2="760.8594"/></g><!--class BoardUpdateType--><g id="elem_BoardUpdateType"><rect codeLine="81" fill="#F1F1F1" height="104.5625" id="BoardUpdateType" rx="2.5" ry="2.5" style="stroke:#181818;stroke-width:0.5;" width="206" x="22" y="912.2969"/><text fill="#000000" font-family="sans-serif" font-size="20" font-style="italic" lengthAdjust="spacing" textLength="82" x="84" y="945.8613">«enum»</text><text fill="#000000" font-family="sans-serif" font-size="20" lengthAdjust="spacing" textLength="180" x="35" y="989.1426">BoardUpdateType</text><line style="stroke:#181818;stroke-width:0.5;" x1="23" x2="227" y1="1008.8594" y2="1008.8594"/></g><!--class CellUpdateType--><g id="elem_CellUpdateType"><rect codeLine="83" fill="#F1F1F1" height="104.5625" id="CellUpdateType" rx="2.5" ry="2.5" style="stroke:#181818;stroke-width:0.5;" width="185" x="557.5" y="912.2969"/><text fill="#000000" font-family="sans-serif" font-size="20" font-style="italic" lengthAdjust="spacing" textLength="82" x="609" y="945.8613">«enum»</text><text fill="#000000" font-family="sans-serif" font-size="20" lengthAdjust="spacing" textLength="159" x="570.5" y="989.1426">CellUpdateType</text><line style="stroke:#181818;stroke-width:0.5;" x1="558.5" x2="741.5" y1="1008.8594" y2="1008.8594"/></g><!--class BoardChange--><g id="elem_BoardChange"><rect codeLine="85" fill="#F1F1F1" height="104.5625" id="BoardChange" rx="2.5" ry="2.5" style="stroke:#181818;stroke-width:0.5;" width="169" x="308.5" y="912.2969"/><text fill="#000000" font-family="sans-serif" font-size="20" font-style="italic" lengthAdjust="spacing" textLength="147" x="319.5" y="945.8613">«value object»</text><text fill="#000000" font-family="sans-serif" font-size="20" lengthAdjust="spacing" textLength="136" x="325" y="989.1426">BoardChange</text><line style="stroke:#181818;stroke-width:0.5;" x1="309.5" x2="476.5" y1="1008.8594" y2="1008.8594"/></g><!--class PostIt--><g id="elem_PostIt"><rect codeLine="90" fill="#F1F1F1" height="104.5625" id="PostIt" rx="2.5" ry="2.5" style="stroke:#181818;stroke-width:0.5;" width="86" x="985" y="912.2969"/><text fill="#000000" font-family="sans-serif" font-size="20" font-style="italic" lengthAdjust="spacing" textLength="64" x="996" y="945.8613">«root»</text><text fill="#000000" font-family="sans-serif" font-size="20" lengthAdjust="spacing" textLength="56" x="1000" y="989.1426">PostIt</text><line style="stroke:#181818;stroke-width:0.5;" x1="986" x2="1070" y1="1008.8594" y2="1008.8594"/></g><!--class ContentType--><g id="elem_ContentType"><rect codeLine="92" fill="#F1F1F1" height="104.5625" id="ContentType" rx="2.5" ry="2.5" style="stroke:#181818;stroke-width:0.5;" width="154" x="951" y="1365.2969"/><text fill="#000000" font-family="sans-serif" font-size="20" font-style="italic" lengthAdjust="spacing" textLength="82" x="987" y="1398.8613">«enum»</text><text fill="#000000" font-family="sans-serif" font-size="20" lengthAdjust="spacing" textLength="128" x="964" y="1442.1426">ContentType</text><line style="stroke:#181818;stroke-width:0.5;" x1="952" x2="1104" y1="1461.8594" y2="1461.8594"/></g><g id="elem_GMN34"><path d="M976,1570.2969 L976,1646.8594 A0,0 0 0 0 976,1646.8594 L1080,1646.8594 A0,0 0 0 0 1080,1646.8594 L1080,1580.2969 L1070,1570.2969 L1032,1570.2969 L1028,1470.4969 L1024,1570.2969 L976,1570.2969 A0,0 0 0 0 976,1570.2969 " fill="#A9A9A9" style="stroke:#181818;stroke-width:0.5;"/><path d="M1070,1570.2969 L1070,1580.2969 L1080,1580.2969 L1070,1570.2969 " fill="#A9A9A9" style="stroke:#181818;stroke-width:0.5;"/><text fill="#000000" font-family="sans-serif" font-size="20" lengthAdjust="spacing" textLength="39" x="992" y="1603.8613">text</text><text fill="#000000" font-family="sans-serif" font-size="20" lengthAdjust="spacing" textLength="63" x="992" y="1627.1426">image</text></g><!--class Content--><g id="elem_Content"><rect codeLine="99" fill="#F1F1F1" height="147.8438" id="Content" rx="2.5" ry="2.5" style="stroke:#181818;stroke-width:0.5;" width="169" x="943.5" y="1117.2969"/><text fill="#000000" font-family="sans-serif" font-size="20" font-style="italic" lengthAdjust="spacing" textLength="147" x="954.5" y="1150.8613">«value object»</text><text fill="#000000" font-family="sans-serif" font-size="20" lengthAdjust="spacing" textLength="80" x="988" y="1194.1426">Content</text><line style="stroke:#181818;stroke-width:0.5;" x1="944.5" x2="1111.5" y1="1213.8594" y2="1213.8594"/><rect fill="none" height="6" style="stroke:#C82930;stroke-width:1.0;" width="6" x="951.5" y="1238"/><text fill="#000000" font-family="sans-serif" font-size="20" lengthAdjust="spacing" textLength="109" x="974.5" y="1246.4238">timestamp</text></g><!--class BoardShare--><g id="elem_BoardShare"><rect codeLine="105" fill="#F1F1F1" height="104.5625" id="BoardShare" rx="2.5" ry="2.5" style="stroke:#181818;stroke-width:0.5;" width="143" x="3367.5" y="373.2969"/><text fill="#000000" font-family="sans-serif" font-size="20" font-style="italic" lengthAdjust="spacing" textLength="64" x="3407" y="406.8613">«root»</text><text fill="#000000" font-family="sans-serif" font-size="20" lengthAdjust="spacing" textLength="117" x="3380.5" y="450.1426">BoardShare</text><line style="stroke:#181818;stroke-width:0.5;" x1="3368.5" x2="3509.5" y1="469.8594" y2="469.8594"/></g><!--class UserPermission--><g id="elem_UserPermission"><rect codeLine="107" fill="#F1F1F1" height="104.5625" id="UserPermission" rx="2.5" ry="2.5" style="stroke:#181818;stroke-width:0.5;" width="180" x="3367" y="664.2969"/><text fill="#000000" font-family="sans-serif" font-size="20" font-style="italic" lengthAdjust="spacing" textLength="82" x="3416" y="697.8613">«enum»</text><text fill="#000000" font-family="sans-serif" font-size="20" lengthAdjust="spacing" textLength="154" x="3380" y="741.1426">UserPermission</text><line style="stroke:#181818;stroke-width:0.5;" x1="3368" x2="3546" y1="760.8594" y2="760.8594"/></g><g id="elem_GMN41"><path d="M3411,926.2969 L3411,1002.8594 A0,0 0 0 0 3411,1002.8594 L3503,1002.8594 A0,0 0 0 0 3503,1002.8594 L3503,936.2969 L3493,926.2969 L3461,926.2969 L3457,769.3869 L3453,926.2969 L3411,926.2969 A0,0 0 0 0 3411,926.2969 " fill="#A9A9A9" style="stroke:#181818;stroke-width:0.5;"/><path d="M3493,926.2969 L3493,936.2969 L3503,936.2969 L3493,926.2969 " fill="#A9A9A9" style="stroke:#181818;stroke-width:0.5;"/><text fill="#000000" font-family="sans-serif" font-size="20" lengthAdjust="spacing" textLength="45" x="3427" y="959.8613">read</text><text fill="#000000" font-family="sans-serif" font-size="20" lengthAdjust="spacing" textLength="51" x="3427" y="983.1426">write</text></g><!--reverse link MechanographicNumber to Student--><g id="link_MechanographicNumber_Student"><path codeLine="116" d="M2004,235.3869 C2004,235.3869 2004,373.2769 2004,373.2769 " fill="none" id="MechanographicNumber-backto-Student" style="stroke:#181818;stroke-width:1.0;"/><polygon fill="#181818" points="2004,230.3869,2000,239.3869,2004,235.3869,2008,239.3869,2004,230.3869" style="stroke:#181818;stroke-width:1.0;"/><text fill="#000000" font-family="sans-serif" font-size="20" lengthAdjust="spacing" textLength="35" x="1958" y="288.9013">has</text></g><!--link Teacher to eCourseUser--><g id="link_Teacher_eCourseUser"><path codeLine="118" d="M1834,478.4969 C1834,478.4969 1834,643.9969 1834,643.9969 " fill="none" id="Teacher-to-eCourseUser" style="stroke:#181818;stroke-width:1.0;"/><polygon fill="none" points="1841,643.9969,1834,663.9969,1827,643.9969,1841,643.9969" style="stroke:#181818;stroke-width:1.0;"/><text fill="#000000" font-family="sans-serif" font-size="20" lengthAdjust="spacing" textLength="34" x="1789" y="545.8113">is a</text></g><!--link Student to eCourseUser--><g id="link_Student_eCourseUser"><path codeLine="119" d="M1953.62,478.4969 C1953.62,478.4969 1953.62,643.9969 1953.62,643.9969 " fill="none" id="Student-to-eCourseUser" style="stroke:#181818;stroke-width:1.0;"/><polygon fill="none" points="1960.63,643.9969,1953.62,663.9969,1946.63,643.9969,1960.63,643.9969" style="stroke:#181818;stroke-width:1.0;"/><text fill="#000000" font-family="sans-serif" font-size="20" lengthAdjust="spacing" textLength="34" x="1908.62" y="545.8113">is a</text></g><!--link eCourseUser to ShortName--><g id="link_eCourseUser_ShortName"><path codeLine="121" d="M1972.2,699.2969 C2117.98,699.2969 2422,699.2969 2422,699.2969 C2422,699.2969 2422,907.0269 2422,907.0269 " fill="none" id="eCourseUser-to-ShortName" style="stroke:#181818;stroke-width:1.0;"/><polygon fill="#181818" points="2422,912.0269,2426,903.0269,2422,907.0269,2418,903.0269,2422,912.0269" style="stroke:#181818;stroke-width:1.0;"/><text fill="#000000" font-family="sans-serif" font-size="20" lengthAdjust="spacing" textLength="35" x="2254.97" y="683.8613">has</text></g><!--link eCourseUser to FullName--><g id="link_eCourseUser_FullName"><path codeLine="122" d="M1819.82,717.2969 C1680.32,717.2969 1398,717.2969 1398,717.2969 C1398,717.2969 1398,907.0069 1398,907.0069 " fill="none" id="eCourseUser-to-FullName" style="stroke:#181818;stroke-width:1.0;"/><polygon fill="#181818" points="1398,912.0069,1402,903.0069,1398,907.0069,1394,903.0069,1398,912.0069" style="stroke:#181818;stroke-width:1.0;"/><text fill="#000000" font-family="sans-serif" font-size="20" lengthAdjust="spacing" textLength="35" x="1468.06" y="701.8613">has</text></g><!--link eCourseUser to BirthDate--><g id="link_eCourseUser_BirthDate"><path codeLine="123" d="M1819.83,756.2969 C1762.23,756.2969 1693,756.2969 1693,756.2969 C1693,756.2969 1693,907.1869 1693,907.1869 " fill="none" id="eCourseUser-to-BirthDate" style="stroke:#181818;stroke-width:1.0;"/><polygon fill="#181818" points="1693,912.1869,1697,903.1869,1693,907.1869,1689,903.1869,1693,912.1869" style="stroke:#181818;stroke-width:1.0;"/><text fill="#000000" font-family="sans-serif" font-size="20" lengthAdjust="spacing" textLength="35" x="1647" y="752.8913">has</text></g><!--link eCourseUser to Email--><g id="link_eCourseUser_Email"><path codeLine="124" d="M1896,769.3869 C1896,769.3869 1896,907.2769 1896,907.2769 " fill="none" id="eCourseUser-to-Email" style="stroke:#181818;stroke-width:1.0;"/><polygon fill="#181818" points="1896,912.2769,1900,903.2769,1896,907.2769,1892,903.2769,1896,912.2769" style="stroke:#181818;stroke-width:1.0;"/><text fill="#000000" font-family="sans-serif" font-size="20" lengthAdjust="spacing" textLength="35" x="1850" y="822.9013">has</text></g><!--link eCourseUser to TaxPayerNumber--><g id="link_eCourseUser_TaxPayerNumber"><path codeLine="125" d="M1972.15,734.2969 C2035.55,734.2969 2115.5,734.2969 2115.5,734.2969 C2115.5,734.2969 2115.5,907.2069 2115.5,907.2069 " fill="none" id="eCourseUser-to-TaxPayerNumber" style="stroke:#181818;stroke-width:1.0;"/><polygon fill="#181818" points="2115.5,912.2069,2119.5,903.2069,2115.5,907.2069,2111.5,903.2069,2115.5,912.2069" style="stroke:#181818;stroke-width:1.0;"/><text fill="#000000" font-family="sans-serif" font-size="20" lengthAdjust="spacing" textLength="35" x="2069.5" y="733.6413">has</text></g><!--link eCourseUser to Board--><g id="link_eCourseUser_Board"><path codeLine="126" d="M1956.25,664.1969 C1956.25,602.1469 1956.25,507.2969 1956.25,507.2969 C1956.25,507.2969 2556.95,507.2969 2556.95,507.2969 " fill="none" id="eCourseUser-to-Board" style="stroke:#181818;stroke-width:1.0;stroke-dasharray:7.0,7.0;"/><polygon fill="#181818" points="2561.95,507.2969,2552.95,503.2969,2556.95,507.2969,2552.95,511.2969,2561.95,507.2969" style="stroke:#181818;stroke-width:1.0;"/><text fill="#000000" font-family="sans-serif" font-size="20" lengthAdjust="spacing" textLength="73" x="2094.15" y="491.8613">archive</text></g><!--link Board to eCourseUser--><g id="link_Board_eCourseUser"><path codeLine="135" d="M2561.93,511.2969 C2375,511.2969 1958.88,511.2969 1958.88,511.2969 C1958.88,511.2969 1958.88,659.1469 1958.88,659.1469 " fill="none" id="Board-to-eCourseUser" style="stroke:#181818;stroke-width:1.0;"/><polygon fill="#181818" points="1958.88,664.1469,1962.88,655.1469,1958.88,659.1469,1954.88,655.1469,1958.88,664.1469" style="stroke:#181818;stroke-width:1.0;"/><text fill="#000000" font-family="sans-serif" font-size="20" lengthAdjust="spacing" textLength="97" x="2078.48" y="540.8613">owned by</text></g><!--link Board to eCourseUser--><g id="link_Board_eCourseUser"><path codeLine="138" d="M2561.92,514.2969 C2375.53,514.2969 1961.5,514.2969 1961.5,514.2969 C1961.5,514.2969 1961.5,659.1169 1961.5,659.1169 " fill="none" id="Board-to-eCourseUser-1" style="stroke:#181818;stroke-width:1.0;stroke-dasharray:7.0,7.0;"/><polygon fill="#181818" points="1961.5,664.1169,1965.5,655.1169,1961.5,659.1169,1957.5,655.1169,1961.5,664.1169" style="stroke:#181818;stroke-width:1.0;"/><text fill="#000000" font-family="sans-serif" font-size="20" lengthAdjust="spacing" textLength="106" x="2200.3" y="498.8613">created by</text></g><!--link Board to eCourseUser--><g id="link_Board_eCourseUser"><path codeLine="139" d="M2561.91,518.2969 C2376.06,518.2969 1964.12,518.2969 1964.12,518.2969 C1964.12,518.2969 1964.12,659.1269 1964.12,659.1269 " fill="none" id="Board-to-eCourseUser-2" style="stroke:#181818;stroke-width:1.0;stroke-dasharray:7.0,7.0;"/><polygon fill="#181818" points="1964.12,664.1269,1968.12,655.1269,1964.12,659.1269,1960.12,655.1269,1964.12,664.1269" style="stroke:#181818;stroke-width:1.0;"/><text fill="#000000" font-family="sans-serif" font-size="20" lengthAdjust="spacing" textLength="101" x="2203.6" y="547.8613">viewed by</text></g><!--link eCourseUser to BoardShare--><g id="link_eCourseUser_BoardShare"><path codeLine="127" d="M1966.75,663.9169 C1966.75,616.8169 1966.75,555.2969 1966.75,555.2969 C1966.75,555.2969 3403.25,555.2969 3403.25,555.2969 C3403.25,555.2969 3403.25,483.4669 3403.25,483.4669 " fill="none" id="eCourseUser-to-BoardShare" style="stroke:#181818;stroke-width:1.0;stroke-dasharray:7.0,7.0;"/><polygon fill="#181818" points="3403.25,478.4669,3399.25,487.4669,3403.25,483.4669,3407.25,487.4669,3403.25,478.4669" style="stroke:#181818;stroke-width:1.0;"/><text fill="#000000" font-family="sans-serif" font-size="20" lengthAdjust="spacing" textLength="63" x="2635.1" y="584.8613">create</text></g><!--link BoardShare to eCourseUser--><g id="link_BoardShare_eCourseUser"><path codeLine="157" d="M3439,478.5569 C3439,526.0069 3439,588.2969 3439,588.2969 C3439,588.2969 1969.38,588.2969 1969.38,588.2969 C1969.38,588.2969 1969.38,659.1569 1969.38,659.1569 " fill="none" id="BoardShare-to-eCourseUser" style="stroke:#181818;stroke-width:1.0;"/><polygon fill="#181818" points="1969.38,664.1569,1973.38,655.1569,1969.38,659.1569,1965.38,655.1569,1969.38,664.1569" style="stroke:#181818;stroke-width:1.0;"/><text fill="#000000" font-family="sans-serif" font-size="20" lengthAdjust="spacing" textLength="35" x="2734.63" y="617.8613">has</text></g><!--link eCourseUser to PostIt--><g id="link_eCourseUser_PostIt"><path codeLine="128" d="M1819.73,678.2969 C1609.41,678.2969 1036.6,678.2969 1036.6,678.2969 C1036.6,678.2969 1036.6,907.2469 1036.6,907.2469 " fill="none" id="eCourseUser-to-PostIt" style="stroke:#181818;stroke-width:1.0;stroke-dasharray:7.0,7.0;"/><polygon fill="#181818" points="1036.6,912.2469,1040.6,903.2469,1036.6,907.2469,1032.6,903.2469,1036.6,912.2469" style="stroke:#181818;stroke-width:1.0;"/><text fill="#000000" font-family="sans-serif" font-size="20" lengthAdjust="spacing" textLength="63" x="1239.69" y="662.8613">create</text></g><!--link eCourseUser to PostIt--><g id="link_eCourseUser_PostIt"><path codeLine="129" d="M1819.77,691.2969 C1612.46,691.2969 1053.8,691.2969 1053.8,691.2969 C1053.8,691.2969 1053.8,907.0669 1053.8,907.0669 " fill="none" id="eCourseUser-to-PostIt-1" style="stroke:#181818;stroke-width:1.0;stroke-dasharray:7.0,7.0;"/><polygon fill="#181818" points="1053.8,912.0669,1057.8,903.0669,1053.8,907.0669,1049.8,903.0669,1053.8,912.0669" style="stroke:#181818;stroke-width:1.0;"/><text fill="#000000" font-family="sans-serif" font-size="20" lengthAdjust="spacing" textLength="71" x="1339.9" y="675.8613">update</text></g><!--link Board to Title--><g id="link_Board_Title"><path codeLine="131" d="M2740.07,493.2969 C2848.4,493.2969 3017,493.2969 3017,493.2969 C3017,493.2969 3017,659.1169 3017,659.1169 " fill="none" id="Board-to-Title" style="stroke:#181818;stroke-width:1.0;"/><polygon fill="#181818" points="3017,664.1169,3021,655.1169,3017,659.1169,3013,655.1169,3017,664.1169" style="stroke:#181818;stroke-width:1.0;"/><text fill="#000000" font-family="sans-serif" font-size="20" lengthAdjust="spacing" textLength="35" x="2915.44" y="477.8613">has</text></g><!--link Board to PostIt--><g id="link_Board_PostIt"><path codeLine="132" d="M2561.83,504.2969 C2220.96,504.2969 1019.4,504.2969 1019.4,504.2969 C1019.4,504.2969 1019.4,906.9669 1019.4,906.9669 " fill="none" id="Board-to-PostIt" style="stroke:#181818;stroke-width:1.0;"/><polygon fill="#181818" points="1019.4,911.9669,1023.4,902.9669,1019.4,906.9669,1015.4,902.9669,1019.4,911.9669" style="stroke:#181818;stroke-width:1.0;"/><text fill="#000000" font-family="sans-serif" font-size="20" lengthAdjust="spacing" textLength="35" x="1543.28" y="533.8613">has</text><text fill="#000000" font-family="sans-serif" font-size="20" lengthAdjust="spacing" textLength="10" x="996.8188" y="889.4408">*</text></g><!--link Board to Column--><g id="link_Board_Column"><path codeLine="133" d="M2702,521.5169 C2702,579.8669 2702,643.2969 2702,643.2969 C2702,643.2969 3176.04,643.2969 3176.04,643.2969 " fill="none" id="Board-to-Column" style="stroke:#181818;stroke-width:1.0;"/><polygon fill="#181818" points="3181.04,643.2969,3172.04,639.2969,3176.04,643.2969,3172.04,647.2969,3181.04,643.2969" style="stroke:#181818;stroke-width:1.0;"/><text fill="#000000" font-family="sans-serif" font-size="20" lengthAdjust="spacing" textLength="35" x="2832.13" y="627.8613">has</text><text fill="#000000" font-family="sans-serif" font-size="20" lengthAdjust="spacing" textLength="10" x="3153.6069" y="618.4792">*</text></g><!--link Board to Row--><g id="link_Board_Row"><path codeLine="134" d="M2615,521.4869 C2615,521.4869 2615,616.0569 2615,616.0569 " fill="none" id="Board-to-Row" style="stroke:#181818;stroke-width:1.0;"/><polygon fill="#181818" points="2615,621.0569,2619,612.0569,2615,616.0569,2611,612.0569,2615,621.0569" style="stroke:#181818;stroke-width:1.0;"/><text fill="#000000" font-family="sans-serif" font-size="20" lengthAdjust="spacing" textLength="35" x="2569" y="553.3313">has</text><text fill="#000000" font-family="sans-serif" font-size="20" lengthAdjust="spacing" textLength="10" x="2593.9922" y="598.7495">*</text></g><!--link Board to State--><g id="link_Board_State"><path codeLine="136" d="M2740.25,507.2969 C2771.99,507.2969 2800,507.2969 2800,507.2969 C2800,507.2969 2800,659.1969 2800,659.1969 " fill="none" id="Board-to-State" style="stroke:#181818;stroke-width:1.0;"/><polygon fill="#181818" points="2800,664.1969,2804,655.1969,2800,659.1969,2796,655.1969,2800,664.1969" style="stroke:#181818;stroke-width:1.0;"/><text fill="#000000" font-family="sans-serif" font-size="20" lengthAdjust="spacing" textLength="35" x="2754" y="537.9413">has</text></g><!--link Board to BoardShare--><g id="link_Board_BoardShare"><path codeLine="137" d="M2740.24,408.2969 C2740.24,408.2969 3362.32,408.2969 3362.32,408.2969 " fill="none" id="Board-to-BoardShare" style="stroke:#181818;stroke-width:1.0;stroke-dasharray:7.0,7.0;"/><polygon fill="#181818" points="3367.32,408.2969,3358.32,404.2969,3362.32,408.2969,3358.32,412.2969,3367.32,408.2969" style="stroke:#181818;stroke-width:1.0;"/><text fill="#000000" font-family="sans-serif" font-size="20" lengthAdjust="spacing" textLength="123" x="2917.28" y="392.8613">notifies user</text></g><!--link BoardShare to Board--><g id="link_BoardShare_Board"><path codeLine="156" d="M3367.33,443.2969 C3367.33,443.2969 2745.23,443.2969 2745.23,443.2969 " fill="none" id="BoardShare-to-Board" style="stroke:#181818;stroke-width:1.0;"/><polygon fill="#181818" points="2740.23,443.2969,2749.23,447.2969,2745.23,443.2969,2749.23,439.2969,2740.23,443.2969" style="stroke:#181818;stroke-width:1.0;"/><text fill="#000000" font-family="sans-serif" font-size="20" lengthAdjust="spacing" textLength="65" x="2980.28" y="472.8613">shares</text><text fill="#000000" font-family="sans-serif" font-size="20" lengthAdjust="spacing" textLength="15" x="3334.3883" y="428.5371">N</text><text fill="#000000" font-family="sans-serif" font-size="20" lengthAdjust="spacing" textLength="13" x="2757.9945" y="428.5733">1</text></g><!--link PostIt to Content--><g id="link_PostIt_Content"><path codeLine="141" d="M1028,1017.3269 C1028,1017.3269 1028,1112.1669 1028,1112.1669 " fill="none" id="PostIt-to-Content" style="stroke:#181818;stroke-width:1.0;"/><polygon fill="#181818" points="1028,1117.1669,1032,1108.1669,1028,1112.1669,1024,1108.1669,1028,1117.1669" style="stroke:#181818;stroke-width:1.0;"/><text fill="#000000" font-family="sans-serif" font-size="20" lengthAdjust="spacing" textLength="35" x="982" y="1049.3113">has</text></g><!--link Content to ContentType--><g id="link_Content_ContentType"><path codeLine="142" d="M1028,1265.4569 C1028,1265.4569 1028,1359.9969 1028,1359.9969 " fill="none" id="Content-to-ContentType" style="stroke:#181818;stroke-width:1.0;"/><polygon fill="#181818" points="1028,1364.9969,1032,1355.9969,1028,1359.9969,1024,1355.9969,1028,1364.9969" style="stroke:#181818;stroke-width:1.0;"/><text fill="#000000" font-family="sans-serif" font-size="20" lengthAdjust="spacing" textLength="35" x="982" y="1297.2913">has</text></g><!--link Content to eCourseUser--><g id="link_Content_eCourseUser"><path codeLine="143" d="M1091.75,1117.0669 C1091.75,980.7369 1091.75,704.2969 1091.75,704.2969 C1091.75,704.2969 1814.98,704.2969 1814.98,704.2969 " fill="none" id="Content-to-eCourseUser" style="stroke:#181818;stroke-width:1.0;"/><polygon fill="#181818" points="1819.98,704.2969,1810.98,700.2969,1814.98,704.2969,1810.98,708.2969,1819.98,704.2969" style="stroke:#181818;stroke-width:1.0;"/><text fill="#000000" font-family="sans-serif" font-size="20" lengthAdjust="spacing" textLength="106" x="1129.98" y="733.8613">created by</text><text fill="#000000" font-family="sans-serif" font-size="20" lengthAdjust="spacing" textLength="15" x="1070.5801" y="1094.7218">N</text><text fill="#000000" font-family="sans-serif" font-size="20" lengthAdjust="spacing" textLength="13" x="1789.0291" y="686.9703">1</text></g><!--link Board to Update--><g id="link_Board_Update"><path codeLine="145" d="M2561.76,486.2969 C2561.76,486.2969 747,486.2969 747,486.2969 " fill="none" id="Board-to-Update" style="stroke:#181818;stroke-width:1.0;"/><polygon fill="#181818" points="742,486.2969,751,490.2969,747,486.2969,751,482.2969,742,486.2969" style="stroke:#181818;stroke-width:1.0;"/><text fill="#000000" font-family="sans-serif" font-size="20" lengthAdjust="spacing" textLength="35" x="1608.38" y="515.8613">has</text><text fill="#000000" font-family="sans-serif" font-size="20" lengthAdjust="spacing" textLength="10" x="759.9922" y="475.2317">*</text></g><!--reverse link Update to CellUpdate--><g id="link_Update_CellUpdate"><path codeLine="146" d="M669,519.9769 C669,519.9769 669,663.8669 669,663.8669 " fill="none" id="Update-backto-CellUpdate" style="stroke:#181818;stroke-width:1.0;"/><polygon fill="none" points="662,519.9769,669,499.9769,676,519.9769,662,519.9769" style="stroke:#181818;stroke-width:1.0;"/><text fill="#000000" font-family="sans-serif" font-size="20" lengthAdjust="spacing" textLength="34" x="624" y="576.4913">is a</text></g><!--reverse link Update to BoardUpdate--><g id="link_Update_BoardUpdate"><path codeLine="147" d="M593.25,520.1069 C593.25,520.1069 593.25,717.2969 593.25,717.2969 C593.25,717.2969 528.12,717.2969 472.14,717.2969 " fill="none" id="Update-backto-BoardUpdate" style="stroke:#181818;stroke-width:1.0;"/><polygon fill="none" points="586.25,520.1069,593.25,500.1069,600.25,520.1069,586.25,520.1069" style="stroke:#181818;stroke-width:1.0;"/><text fill="#000000" font-family="sans-serif" font-size="20" lengthAdjust="spacing" textLength="34" x="548.25" y="663.8213">is a</text></g><!--link Update to eCourseUser--><g id="link_Update_eCourseUser"><path codeLine="148" d="M742.11,493.2969 C1002.87,493.2969 1827,493.2969 1827,493.2969 C1827,493.2969 1827,659.1169 1827,659.1169 " fill="none" id="Update-to-eCourseUser" style="stroke:#181818;stroke-width:1.0;"/><polygon fill="#181818" points="1827,664.1169,1831,655.1169,1827,659.1169,1823,655.1169,1827,664.1169" style="stroke:#181818;stroke-width:1.0;"/><text fill="#000000" font-family="sans-serif" font-size="20" lengthAdjust="spacing" textLength="109" x="1247.47" y="477.8613">is made by</text></g><!--link CellUpdate to CellUpdateType--><g id="link_CellUpdate_CellUpdateType"><path codeLine="150" d="M669,769.3869 C669,769.3869 669,907.2769 669,907.2769 " fill="none" id="CellUpdate-to-CellUpdateType" style="stroke:#181818;stroke-width:1.0;"/><polygon fill="#181818" points="669,912.2769,673,903.2769,669,907.2769,665,903.2769,669,912.2769" style="stroke:#181818;stroke-width:1.0;"/><text fill="#000000" font-family="sans-serif" font-size="20" lengthAdjust="spacing" textLength="35" x="623" y="822.9013">has</text></g><!--link BoardUpdate to BoardUpdateType--><g id="link_BoardUpdate_BoardUpdateType"><path codeLine="151" d="M313.68,717.2969 C234.65,717.2969 125,717.2969 125,717.2969 C125,717.2969 125,907.0069 125,907.0069 " fill="none" id="BoardUpdate-to-BoardUpdateType" style="stroke:#181818;stroke-width:1.0;"/><polygon fill="#181818" points="125,912.0069,129,903.0069,125,907.0069,121,903.0069,125,912.0069" style="stroke:#181818;stroke-width:1.0;"/><text fill="#000000" font-family="sans-serif" font-size="20" lengthAdjust="spacing" textLength="35" x="79" y="702.3713">has</text></g><!--link BoardUpdate to BoardChange--><g id="link_BoardUpdate_BoardChange"><path codeLine="152" d="M393,769.3869 C393,769.3869 393,907.2769 393,907.2769 " fill="none" id="BoardUpdate-to-BoardChange" style="stroke:#181818;stroke-width:1.0;"/><polygon fill="#181818" points="393,912.2769,397,903.2769,393,907.2769,389,903.2769,393,912.2769" style="stroke:#181818;stroke-width:1.0;"/><text fill="#000000" font-family="sans-serif" font-size="20" lengthAdjust="spacing" textLength="35" x="347" y="822.9013">has</text></g><!--link CellUpdate to PostIt--><g id="link_CellUpdate_PostIt"><path codeLine="153" d="M737.64,730.2969 C835.18,730.2969 1002.2,730.2969 1002.2,730.2969 C1002.2,730.2969 1002.2,907.1669 1002.2,907.1669 " fill="none" id="CellUpdate-to-PostIt" style="stroke:#181818;stroke-width:1.0;"/><polygon fill="#181818" points="1002.2,912.1669,1006.2,903.1669,1002.2,907.1669,998.2,903.1669,1002.2,912.1669" style="stroke:#181818;stroke-width:1.0;"/><text fill="#000000" font-family="sans-serif" font-size="20" lengthAdjust="spacing" textLength="123" x="824.35" y="714.8613">is relative to</text></g><!--link CellUpdate to Content--><g id="link_CellUpdate_Content"><path codeLine="154" d="M737.85,743.2969 C825.09,743.2969 964.25,743.2969 964.25,743.2969 C964.25,743.2969 964.25,1112.0669 964.25,1112.0669 " fill="none" id="CellUpdate-to-Content" style="stroke:#181818;stroke-width:1.0;"/><polygon fill="#181818" points="964.25,1117.0669,968.25,1108.0669,964.25,1112.0669,960.25,1108.0669,964.25,1117.0669" style="stroke:#181818;stroke-width:1.0;"/><text fill="#000000" font-family="sans-serif" font-size="20" lengthAdjust="spacing" textLength="35" x="918.25" y="799.0513">has</text></g><!--link BoardShare to UserPermission--><g id="link_BoardShare_UserPermission"><path codeLine="158" d="M3474.75,478.4969 C3474.75,478.4969 3474.75,658.9969 3474.75,658.9969 " fill="none" id="BoardShare-to-UserPermission" style="stroke:#181818;stroke-width:1.0;"/><polygon fill="#181818" points="3474.75,663.9969,3478.75,654.9969,3474.75,658.9969,3470.75,654.9969,3474.75,663.9969" style="stroke:#181818;stroke-width:1.0;"/><text fill="#000000" font-family="sans-serif" font-size="20" lengthAdjust="spacing" textLength="35" x="3428.75" y="553.3113">has</text></g><!--SRC=[dLVTRfim5BxdAQpiOj8aKBFTR54LgJ-hr8j6rT8zW0CdmOknaMsQPctVVSSOY850iYPIWEFlEpx_9dhBH4uLpRYCjv2G1DQquEPE2hDaVu5ylGWCCnp8v5Pcb0do81FWau33sX0ZYMARr924AOWDao8mChVYbJH6PfvSr_kGd2O94niolV240hLgoCbtNwYes5hXzCANRfGiydkHWcA6YXZ8r5laJ83Pvq2aCgdq5b0FNgqfLfslRo4DNDDuQ_MAv4PogSYdgn_ssx8wtj8DaDU0uAU7l_rcl-LQ6Jgpnv2j94-2zo18MG8aPYhcuEupGECI7GIrLhYHXTBmMuEo6yISQkqBoUMbajBCvtOLDTQGPOf-BcW627Ycl42_LtymuWXyRq1t1UUdCDSCutLBpIZe9nO07mCyqPT7kWUrAB9LQNGF-Nxm-GbedFh-LeB6Lz9nzYfMKkop4sgNfaX0c8FQIe0q_6LctmlY0yGf5NAZQ9wo-2pRhoLLoM6Byh5jDo4XoUWBbaUH2NqG_98xtTx-gMolxdxarOCuBHqFhCAoDQjxbhJruax_oLWQLm0WYgonG61xrEqirnN6QQFOsizE6LLnYlTEOJTGl_Ea9hcDAa4lO8Pbe0tDyjgkpot2astiZdbU0XgjjS_j60BdumXFoV1E1pKdhBd1cjeCvDKBqAFKvjvuiQa4JSEtoa0OjBoryT4a-K0NMmClfhnX6UxQJdk5xfUyoqexATtSBbEg_DHwmcCks67s22fZMjjHtFQYvqS7xGoo7mKqQHvsU12uAdIXFTxFOLWDWgYwpaXASGHNKoUgfqyOlitzqHlvOtX6c2Oqw6WwYnCChOVXt9lZpgenR3FEJqCFK_qqrWttqxZEZ1ydHD7SLKHK_ixgEN6QK9PGv5NJZCIOTJDETSqJLJtq8KfHDdSGU6QxM9RFRbWxfxk8oPT9JziGpicgkNuAPYVvSSnmpScTmBUvrNx03pV6-qh7ue_DoTOCD2bmYnvhs1INX9unuwHd1Zl72TenjJvKadfmEJSwmZwk78T7iPF51E6JwUGyBuPJvKw6g3fdlF2s5oxVmh15y0wdQboSm_9FlM7QU9qWAwFuIjgurRUegPhUaXVH8RkwvEuX-m5sTRBscHsRkxs8hYhWrBwpu5-KCvZj-WgEzyMXTlogc15jL_K0QJmdZLz7UTvAvtmicVy0]--></g></svg>