<?xml version="1.0" encoding="UTF-8" standalone="no"?><svg xmlns="http://www.w3.org/2000/svg" xmlns:xlink="http://www.w3.org/1999/xlink" contentStyleType="text/css" height="797px" preserveAspectRatio="none" style="width:897px;height:797px;background:#FFFFFF;" version="1.1" viewBox="0 0 897 797" width="897px" zoomAndPan="magnify"><defs/><g><!--cluster persistence--><g id="cluster_persistence"><path d="M8.5,492.2168 L142.5,492.2168 A3.75,3.75 0 0 1 145,494.7168 L152,521.498 L389.5,521.498 A2.5,2.5 0 0 1 392,523.998 L392,620.7168 A2.5,2.5 0 0 1 389.5,623.2168 L8.5,623.2168 A2.5,2.5 0 0 1 6,620.7168 L6,494.7168 A2.5,2.5 0 0 1 8.5,492.2168 " fill="none" style="stroke:#000000;stroke-width:1.5;"/><line style="stroke:#000000;stroke-width:1.5;" x1="6" x2="152" y1="521.498" y2="521.498"/><text fill="#000000" font-family="sans-serif" font-size="20" font-weight="bold" lengthAdjust="spacing" textLength="133" x="10" y="512.7813">persistence</text></g><!--cluster repositories--><g id="cluster_repositories"><path d="M468.5,480.2168 L607.5,480.2168 A3.75,3.75 0 0 1 610,482.7168 L617,509.498 L887.5,509.498 A2.5,2.5 0 0 1 890,511.998 L890,632.7168 A2.5,2.5 0 0 1 887.5,635.2168 L468.5,635.2168 A2.5,2.5 0 0 1 466,632.7168 L466,482.7168 A2.5,2.5 0 0 1 468.5,480.2168 " fill="none" style="stroke:#000000;stroke-width:1.5;"/><line style="stroke:#000000;stroke-width:1.5;" x1="466" x2="617" y1="509.498" y2="509.498"/><text fill="#000000" font-family="sans-serif" font-size="20" font-weight="bold" lengthAdjust="spacing" textLength="138" x="470" y="500.7813">repositories</text></g><!--cluster domain--><g id="cluster_domain"><path d="M511.5,659.2168 L596.5,659.2168 A3.75,3.75 0 0 1 599,661.7168 L606,688.498 L844.5,688.498 A2.5,2.5 0 0 1 847,690.998 L847,787.7168 A2.5,2.5 0 0 1 844.5,790.2168 L511.5,790.2168 A2.5,2.5 0 0 1 509,787.7168 L509,661.7168 A2.5,2.5 0 0 1 511.5,659.2168 " fill="none" style="stroke:#000000;stroke-width:1.5;"/><line style="stroke:#000000;stroke-width:1.5;" x1="509" x2="606" y1="688.498" y2="688.498"/><text fill="#000000" font-family="sans-serif" font-size="20" font-weight="bold" lengthAdjust="spacing" textLength="84" x="513" y="679.7813">domain</text></g><!--cluster presentation--><g id="cluster_presentation"><path d="M166.5,7.2168 L314.5,7.2168 A3.75,3.75 0 0 1 317,9.7168 L324,36.498 L691.5,36.498 A2.5,2.5 0 0 1 694,38.998 L694,228.7168 A2.5,2.5 0 0 1 691.5,231.2168 L166.5,231.2168 A2.5,2.5 0 0 1 164,228.7168 L164,9.7168 A2.5,2.5 0 0 1 166.5,7.2168 " fill="none" style="stroke:#000000;stroke-width:1.5;"/><line style="stroke:#000000;stroke-width:1.5;" x1="164" x2="324" y1="36.498" y2="36.498"/><text fill="#000000" font-family="sans-serif" font-size="20" font-weight="bold" lengthAdjust="spacing" textLength="147" x="168" y="27.7813">presentation</text></g><!--cluster application--><g id="cluster_application"><path d="M182.5,255.2168 L310.5,255.2168 A3.75,3.75 0 0 1 313,257.7168 L320,284.498 L675.5,284.498 A2.5,2.5 0 0 1 678,286.998 L678,453.7168 A2.5,2.5 0 0 1 675.5,456.2168 L182.5,456.2168 A2.5,2.5 0 0 1 180,453.7168 L180,257.7168 A2.5,2.5 0 0 1 182.5,255.2168 " fill="none" style="stroke:#000000;stroke-width:1.5;"/><line style="stroke:#000000;stroke-width:1.5;" x1="180" x2="320" y1="284.498" y2="284.498"/><text fill="#000000" font-family="sans-serif" font-size="20" font-weight="bold" lengthAdjust="spacing" textLength="127" x="184" y="275.7813">application</text></g><!--cluster factory--><g id="cluster_factory"><path d="M90.5,659.2168 L173.5,659.2168 A3.75,3.75 0 0 1 176,661.7168 L183,688.498 L423.5,688.498 A2.5,2.5 0 0 1 426,690.998 L426,787.7168 A2.5,2.5 0 0 1 423.5,790.2168 L90.5,790.2168 A2.5,2.5 0 0 1 88,787.7168 L88,661.7168 A2.5,2.5 0 0 1 90.5,659.2168 " fill="none" style="stroke:#000000;stroke-width:1.5;"/><line style="stroke:#000000;stroke-width:1.5;" x1="88" x2="183" y1="688.498" y2="688.498"/><text fill="#000000" font-family="sans-serif" font-size="20" font-weight="bold" lengthAdjust="spacing" textLength="82" x="92" y="679.7813">factory</text></g><!--class PersistenceContext--><g id="elem_PersistenceContext"><rect codeLine="4" fill="#F1F1F1" height="73.2813" id="PersistenceContext" rx="2.5" ry="2.5" style="stroke:#181818;stroke-width:0.5;" width="353" x="22.5" y="534.2168"/><ellipse cx="98.5" cy="551.2168" fill="#ADD1B2" rx="12" ry="12" style="stroke:#181818;stroke-width:1.0;"/><path d="M101.5625,558.2949 Q100.875,558.6543 100.125,558.8262 Q99.375,558.998 98.5469,558.998 Q95.5938,558.998 94.0313,557.0605 Q92.4844,555.1074 92.4844,551.4355 Q92.4844,547.7637 94.0313,545.8262 Q95.5938,543.873 98.5469,543.873 Q99.375,543.873 100.125,544.0449 Q100.8906,544.2168 101.5625,544.5762 L101.5625,547.7793 Q100.8125,547.0918 100.1094,546.7793 Q99.4219,546.4668 98.6719,546.4668 Q97.0938,546.4668 96.2813,547.7168 Q95.4844,548.9668 95.4844,551.4355 Q95.4844,553.9043 96.2813,555.1543 Q97.0938,556.4043 98.6719,556.4043 Q99.4219,556.4043 100.1094,556.0918 Q100.8125,555.7793 101.5625,555.0918 L101.5625,558.2949 Z " fill="#000000"/><text fill="#000000" font-family="sans-serif" font-size="20" lengthAdjust="spacing" textLength="192" x="120.5" y="558.1406">PersistenceContext</text><line style="stroke:#181818;stroke-width:0.5;" x1="23.5" x2="374.5" y1="568.2168" y2="568.2168"/><line style="stroke:#181818;stroke-width:0.5;" x1="23.5" x2="374.5" y1="576.2168" y2="576.2168"/><ellipse cx="33.5" cy="593.3574" fill="#84BE84" rx="3" ry="3" style="stroke:#038048;stroke-width:1.0;"/><text fill="#000000" font-family="sans-serif" font-size="20" lengthAdjust="spacing" textLength="326" x="43.5" y="598.7813">repositories(): RepositoryFactory</text></g><!--class CourseRepository--><g id="elem_CourseRepository"><rect codeLine="10" fill="#F1F1F1" height="96.5625" id="CourseRepository" rx="2.5" ry="2.5" style="stroke:#181818;stroke-width:0.5;" width="392" x="482" y="522.2168"/><ellipse cx="585.5" cy="539.2168" fill="#B4A7E5" rx="12" ry="12" style="stroke:#181818;stroke-width:1.0;"/><path d="M580.6875,534.6699 L580.6875,532.1387 L589.3594,532.1387 L589.3594,534.6699 L586.4688,534.6699 L586.4688,544.1699 L589.3594,544.1699 L589.3594,546.7168 L580.6875,546.7168 L580.6875,544.1699 L583.5781,544.1699 L583.5781,534.6699 L580.6875,534.6699 Z " fill="#000000"/><text fill="#000000" font-family="sans-serif" font-size="20" font-style="italic" lengthAdjust="spacing" textLength="176" x="607.5" y="546.1406">CourseRepository</text><line style="stroke:#181818;stroke-width:0.5;" x1="483" x2="873" y1="556.2168" y2="556.2168"/><line style="stroke:#181818;stroke-width:0.5;" x1="483" x2="873" y1="564.2168" y2="564.2168"/><ellipse cx="493" cy="581.3574" fill="#84BE84" rx="3" ry="3" style="stroke:#038048;stroke-width:1.0;"/><text fill="#000000" font-family="sans-serif" font-size="20" lengthAdjust="spacing" textLength="365" x="503" y="586.7813">findCourse(courseId: String): Course</text><ellipse cx="493" cy="604.6387" fill="#84BE84" rx="3" ry="3" style="stroke:#038048;stroke-width:1.0;"/><text fill="#000000" font-family="sans-serif" font-size="20" lengthAdjust="spacing" textLength="333" x="503" y="610.0625">saveCourse(course: Course): void</text></g><!--class Course--><g id="elem_Course"><rect codeLine="17" fill="#F1F1F1" height="73.2813" id="Course" rx="2.5" ry="2.5" style="stroke:#181818;stroke-width:0.5;" width="305" x="525.5" y="701.2168"/><ellipse cx="639" cy="718.2168" fill="#ADD1B2" rx="12" ry="12" style="stroke:#181818;stroke-width:1.0;"/><path d="M642.0625,725.2949 Q641.375,725.6543 640.625,725.8262 Q639.875,725.998 639.0469,725.998 Q636.0938,725.998 634.5313,724.0605 Q632.9844,722.1074 632.9844,718.4355 Q632.9844,714.7637 634.5313,712.8262 Q636.0938,710.873 639.0469,710.873 Q639.875,710.873 640.625,711.0449 Q641.3906,711.2168 642.0625,711.5762 L642.0625,714.7793 Q641.3125,714.0918 640.6094,713.7793 Q639.9219,713.4668 639.1719,713.4668 Q637.5938,713.4668 636.7813,714.7168 Q635.9844,715.9668 635.9844,718.4355 Q635.9844,720.9043 636.7813,722.1543 Q637.5938,723.4043 639.1719,723.4043 Q639.9219,723.4043 640.6094,723.0918 Q641.3125,722.7793 642.0625,722.0918 L642.0625,725.2949 Z " fill="#000000"/><text fill="#000000" font-family="sans-serif" font-size="20" lengthAdjust="spacing" textLength="69" x="661" y="725.1406">Course</text><line style="stroke:#181818;stroke-width:0.5;" x1="526.5" x2="829.5" y1="735.2168" y2="735.2168"/><line style="stroke:#181818;stroke-width:0.5;" x1="526.5" x2="829.5" y1="743.2168" y2="743.2168"/><ellipse cx="536.5" cy="760.3574" fill="#84BE84" rx="3" ry="3" style="stroke:#038048;stroke-width:1.0;"/><text fill="#000000" font-family="sans-serif" font-size="20" lengthAdjust="spacing" textLength="278" x="546.5" y="765.7813">setState(state: String): void</text></g><!--class SetEnrollmentStateUI--><g id="elem_SetEnrollmentStateUI"><rect codeLine="23" fill="#F1F1F1" height="166.4063" id="SetEnrollmentStateUI" rx="2.5" ry="2.5" style="stroke:#181818;stroke-width:0.5;" width="498" x="180" y="49.2168"/><ellipse cx="315.5" cy="66.2168" fill="#ADD1B2" rx="12" ry="12" style="stroke:#181818;stroke-width:1.0;"/><path d="M318.5625,73.2949 Q317.875,73.6543 317.125,73.8262 Q316.375,73.998 315.5469,73.998 Q312.5938,73.998 311.0313,72.0605 Q309.4844,70.1074 309.4844,66.4355 Q309.4844,62.7637 311.0313,60.8262 Q312.5938,58.873 315.5469,58.873 Q316.375,58.873 317.125,59.0449 Q317.8906,59.2168 318.5625,59.5762 L318.5625,62.7793 Q317.8125,62.0918 317.1094,61.7793 Q316.4219,61.4668 315.6719,61.4668 Q314.0938,61.4668 313.2813,62.7168 Q312.4844,63.9668 312.4844,66.4355 Q312.4844,68.9043 313.2813,70.1543 Q314.0938,71.4043 315.6719,71.4043 Q316.4219,71.4043 317.1094,71.0918 Q317.8125,70.7793 318.5625,70.0918 L318.5625,73.2949 Z " fill="#000000"/><text fill="#000000" font-family="sans-serif" font-size="20" lengthAdjust="spacing" textLength="218" x="337.5" y="73.1406">SetEnrollmentStateUI</text><line style="stroke:#181818;stroke-width:0.5;" x1="181" x2="677" y1="83.2168" y2="83.2168"/><line style="stroke:#181818;stroke-width:0.5;" x1="181" x2="677" y1="91.2168" y2="91.2168"/><ellipse cx="191" cy="108.3574" fill="#84BE84" rx="3" ry="3" style="stroke:#038048;stroke-width:1.0;"/><text fill="#000000" font-family="sans-serif" font-size="20" lengthAdjust="spacing" textLength="134" x="201" y="113.7813">create(): void</text><ellipse cx="191" cy="131.6387" fill="#84BE84" rx="3" ry="3" style="stroke:#038048;stroke-width:1.0;"/><text fill="#000000" font-family="sans-serif" font-size="20" lengthAdjust="spacing" textLength="471" x="201" y="137.0625">showCourses(courses: Iterable&lt;Course&gt;): void</text><ellipse cx="191" cy="154.9199" fill="#84BE84" rx="3" ry="3" style="stroke:#038048;stroke-width:1.0;"/><text fill="#000000" font-family="sans-serif" font-size="20" lengthAdjust="spacing" textLength="334" x="201" y="160.3438">promptCourseSelection(): Course</text><ellipse cx="191" cy="178.2012" fill="#84BE84" rx="3" ry="3" style="stroke:#038048;stroke-width:1.0;"/><text fill="#000000" font-family="sans-serif" font-size="20" lengthAdjust="spacing" textLength="310" x="201" y="183.625">promptStateSelection(): String</text><ellipse cx="191" cy="201.4824" fill="#84BE84" rx="3" ry="3" style="stroke:#038048;stroke-width:1.0;"/><text fill="#000000" font-family="sans-serif" font-size="20" lengthAdjust="spacing" textLength="303" x="201" y="206.9063">showOperationSuccess(): void</text></g><!--class SetEnrollmentStateController--><g id="elem_SetEnrollmentStateController"><rect codeLine="33" fill="#F1F1F1" height="143.125" id="SetEnrollmentStateController" rx="2.5" ry="2.5" style="stroke:#181818;stroke-width:0.5;" width="465" x="196.5" y="297.2168"/><ellipse cx="276.5" cy="314.2168" fill="#ADD1B2" rx="12" ry="12" style="stroke:#181818;stroke-width:1.0;"/><path d="M279.5625,321.2949 Q278.875,321.6543 278.125,321.8262 Q277.375,321.998 276.5469,321.998 Q273.5938,321.998 272.0313,320.0605 Q270.4844,318.1074 270.4844,314.4355 Q270.4844,310.7637 272.0313,308.8262 Q273.5938,306.873 276.5469,306.873 Q277.375,306.873 278.125,307.0449 Q278.8906,307.2168 279.5625,307.5762 L279.5625,310.7793 Q278.8125,310.0918 278.1094,309.7793 Q277.4219,309.4668 276.6719,309.4668 Q275.0938,309.4668 274.2813,310.7168 Q273.4844,311.9668 273.4844,314.4355 Q273.4844,316.9043 274.2813,318.1543 Q275.0938,319.4043 276.6719,319.4043 Q277.4219,319.4043 278.1094,319.0918 Q278.8125,318.7793 279.5625,318.0918 L279.5625,321.2949 Z " fill="#000000"/><text fill="#000000" font-family="sans-serif" font-size="20" lengthAdjust="spacing" textLength="296" x="298.5" y="321.1406">SetEnrollmentStateController</text><line style="stroke:#181818;stroke-width:0.5;" x1="197.5" x2="660.5" y1="331.2168" y2="331.2168"/><line style="stroke:#181818;stroke-width:0.5;" x1="197.5" x2="660.5" y1="339.2168" y2="339.2168"/><ellipse cx="207.5" cy="356.3574" fill="#84BE84" rx="3" ry="3" style="stroke:#038048;stroke-width:1.0;"/><text fill="#000000" font-family="sans-serif" font-size="20" lengthAdjust="spacing" textLength="134" x="217.5" y="361.7813">create(): void</text><ellipse cx="207.5" cy="379.6387" fill="#84BE84" rx="3" ry="3" style="stroke:#038048;stroke-width:1.0;"/><text fill="#000000" font-family="sans-serif" font-size="20" lengthAdjust="spacing" textLength="326" x="217.5" y="385.0625">repositories(): RepositoryFactory</text><ellipse cx="207.5" cy="402.9199" fill="#84BE84" rx="3" ry="3" style="stroke:#038048;stroke-width:1.0;"/><text fill="#000000" font-family="sans-serif" font-size="20" lengthAdjust="spacing" textLength="365" x="217.5" y="408.3438">findCourse(courseId: String): Course</text><ellipse cx="207.5" cy="426.2012" fill="#84BE84" rx="3" ry="3" style="stroke:#038048;stroke-width:1.0;"/><text fill="#000000" font-family="sans-serif" font-size="20" lengthAdjust="spacing" textLength="438" x="217.5" y="431.625">setState(course: Course, state: String): void</text></g><!--class RepositoryFactory--><g id="elem_RepositoryFactory"><rect codeLine="42" fill="#F1F1F1" height="73.2813" id="RepositoryFactory" rx="2.5" ry="2.5" style="stroke:#181818;stroke-width:0.5;" width="307" x="103.5" y="701.2168"/><ellipse cx="162.5" cy="718.2168" fill="#ADD1B2" rx="12" ry="12" style="stroke:#181818;stroke-width:1.0;"/><path d="M165.5625,725.2949 Q164.875,725.6543 164.125,725.8262 Q163.375,725.998 162.5469,725.998 Q159.5938,725.998 158.0313,724.0605 Q156.4844,722.1074 156.4844,718.4355 Q156.4844,714.7637 158.0313,712.8262 Q159.5938,710.873 162.5469,710.873 Q163.375,710.873 164.125,711.0449 Q164.8906,711.2168 165.5625,711.5762 L165.5625,714.7793 Q164.8125,714.0918 164.1094,713.7793 Q163.4219,713.4668 162.6719,713.4668 Q161.0938,713.4668 160.2813,714.7168 Q159.4844,715.9668 159.4844,718.4355 Q159.4844,720.9043 160.2813,722.1543 Q161.0938,723.4043 162.6719,723.4043 Q163.4219,723.4043 164.1094,723.0918 Q164.8125,722.7793 165.5625,722.0918 L165.5625,725.2949 Z " fill="#000000"/><text fill="#000000" font-family="sans-serif" font-size="20" lengthAdjust="spacing" textLength="180" x="184.5" y="725.1406">RepositoryFactory</text><line style="stroke:#181818;stroke-width:0.5;" x1="104.5" x2="409.5" y1="735.2168" y2="735.2168"/><line style="stroke:#181818;stroke-width:0.5;" x1="104.5" x2="409.5" y1="743.2168" y2="743.2168"/><ellipse cx="114.5" cy="760.3574" fill="#84BE84" rx="3" ry="3" style="stroke:#038048;stroke-width:1.0;"/><text fill="#000000" font-family="sans-serif" font-size="20" lengthAdjust="spacing" textLength="280" x="124.5" y="765.7813">courses(): CourseRepository</text></g><!--link PersistenceContext to RepositoryFactory--><g id="link_PersistenceContext_RepositoryFactory"><path codeLine="47" d="M211.59,607.5168 C220.74,633.5768 233.16,668.8968 242.69,696.0168 " fill="none" id="PersistenceContext-to-RepositoryFactory" style="stroke:#181818;stroke-width:1.0;"/><polygon fill="#181818" points="244.44,700.9868,245.229,691.1696,242.7819,696.2697,237.6817,693.8226,244.44,700.9868" style="stroke:#181818;stroke-width:1.0;"/></g><!--reverse link CourseRepository to Course--><g id="link_CourseRepository_Course"><path codeLine="48" d="M678,624.7068 C678,649.7068 678,678.8568 678,701.1568 " fill="none" id="CourseRepository-backto-Course" style="stroke:#181818;stroke-width:1.0;"/><polygon fill="#181818" points="678,619.4368,674,628.4368,678,624.4368,682,628.4368,678,619.4368" style="stroke:#181818;stroke-width:1.0;"/></g><!--link SetEnrollmentStateController to PersistenceContext--><g id="link_SetEnrollmentStateController_PersistenceContext"><path codeLine="49" d="M347.91,440.2268 C313.01,470.5768 273.52,504.9168 243.99,530.5968 " fill="none" id="SetEnrollmentStateController-to-PersistenceContext" style="stroke:#181818;stroke-width:1.0;"/><polygon fill="#181818" points="240.07,534.0068,249.495,531.1487,243.8532,530.7376,244.2643,525.0957,240.07,534.0068" style="stroke:#181818;stroke-width:1.0;"/></g><!--link SetEnrollmentStateController to RepositoryFactory--><g id="link_SetEnrollmentStateController_RepositoryFactory"><path codeLine="50" d="M434.54,440.3268 C435.78,498.8468 429.49,582.0368 392,643.2168 C378.31,665.5468 357.06,683.8968 335.44,698.2368 " fill="none" id="SetEnrollmentStateController-to-RepositoryFactory" style="stroke:#181818;stroke-width:1.0;"/><polygon fill="#181818" points="331.11,701.0568,340.8339,699.4929,335.2986,698.3263,336.4651,692.7911,331.11,701.0568" style="stroke:#181818;stroke-width:1.0;"/></g><!--link SetEnrollmentStateController to CourseRepository--><g id="link_SetEnrollmentStateController_CourseRepository"><path codeLine="51" d="M516.79,440.2268 C549.08,466.1668 585,495.0168 614.71,518.8868 " fill="none" id="SetEnrollmentStateController-to-CourseRepository" style="stroke:#181818;stroke-width:1.0;"/><polygon fill="#181818" points="618.68,522.0668,614.1822,513.305,614.7868,518.9294,609.1624,519.5341,618.68,522.0668" style="stroke:#181818;stroke-width:1.0;"/></g><!--link SetEnrollmentStateUI to SetEnrollmentStateController--><g id="link_SetEnrollmentStateUI_SetEnrollmentStateController"><path codeLine="52" d="M429,215.2368 C429,240.1368 429,267.3868 429,291.8668 " fill="none" id="SetEnrollmentStateUI-to-SetEnrollmentStateController" style="stroke:#181818;stroke-width:1.0;"/><polygon fill="#181818" points="429,297.0468,433,288.0468,429,292.0468,425,288.0468,429,297.0468" style="stroke:#181818;stroke-width:1.0;"/></g><!--SRC=[bLFBReCm4Bpp5RwLgeLKFQAebwYHScfLr0zmpIQnOcpBQzANykyrc839WoON4CnuPiUxYnikDJMq58fje205B6abx5n9c_CV88yFqStQMetPPA85bROgHSfKEM628YO5fojtE8eqPHkw0gB184SBaW7vZGXfQEIr_pjpol1b6v2GEs90A-HM6GuOtsRaRV_zFQUiVZdUBjhr3k61HeKxGREapd2cAeFGAtGcIouB3yQiUIsAZEJMSBbobXvfgKYtCA3kSKVSAbuSbbEead8PPFNipXh1vfPQYB5-1gwdnBG11Ec8N8MIETXdQPGGfGCRjVT5Py0CrFAzOkEwLf- -46nZO4OMxfxeXu2fHvw6HxHHfROUoa40guk83w_7iveQ1YGVAt1_SPFGvCWhnW0nFXEPQYqu-pznFJVr3p3ZoI-Pfsj7Oj_2uK3SaqjQklIkGRQZYlf0RSUw0dfg9zjlKdfYgvBaQU-O7YSFxoOzMfPfahJJt69Hq9jqj2ErxNXbrscTZt2Lp6ZUA5oszEIArHgN6aP_]--></g></svg>