<?xml version="1.0" encoding="UTF-8" standalone="no"?><svg xmlns="http://www.w3.org/2000/svg" xmlns:xlink="http://www.w3.org/1999/xlink" contentStyleType="text/css" height="579px" preserveAspectRatio="none" style="width:492px;height:579px;background:#FFFFFF;" version="1.1" viewBox="0 0 492 579" width="492px" zoomAndPan="magnify"><defs/><g><text fill="#000000" font-family="sans-serif" font-size="14" font-weight="bold" lengthAdjust="spacing" textLength="173" x="161" y="27.9951">User Exam Interaction</text><rect fill="none" height="108.125" style="stroke:#000000;stroke-width:1.5;" width="476" x="10" y="254.4219"/><line style="stroke:#181818;stroke-width:0.5;stroke-dasharray:5.0,5.0;" x1="45" x2="45" y1="125.5781" y2="491.3906"/><line style="stroke:#181818;stroke-width:0.5;stroke-dasharray:5.0,5.0;" x1="335.5" x2="335.5" y1="125.5781" y2="491.3906"/><text fill="#000000" font-family="sans-serif" font-size="20" lengthAdjust="spacing" textLength="45" x="20" y="120.8613">User</text><ellipse cx="45.5" cy="50.7969" fill="#E2E2F0" rx="8" ry="8" style="stroke:#181818;stroke-width:0.5;"/><path d="M45.5,58.7969 L45.5,85.7969 M32.5,66.7969 L58.5,66.7969 M45.5,85.7969 L32.5,100.7969 M45.5,85.7969 L58.5,100.7969 " fill="none" style="stroke:#181818;stroke-width:0.5;"/><text fill="#000000" font-family="sans-serif" font-size="20" lengthAdjust="spacing" textLength="45" x="20" y="508.9551">User</text><ellipse cx="45.5" cy="522.1719" fill="#E2E2F0" rx="8" ry="8" style="stroke:#181818;stroke-width:0.5;"/><path d="M45.5,530.1719 L45.5,557.1719 M32.5,538.1719 L58.5,538.1719 M45.5,557.1719 L32.5,572.1719 M45.5,557.1719 L58.5,572.1719 " fill="none" style="stroke:#181818;stroke-width:0.5;"/><rect fill="#E2E2F0" height="37.2813" rx="2.5" ry="2.5" style="stroke:#181818;stroke-width:0.5;" width="88" x="291.5" y="87.2969"/><text fill="#000000" font-family="sans-serif" font-size="20" lengthAdjust="spacing" textLength="74" x="298.5" y="112.8613">System</text><rect fill="#E2E2F0" height="37.2813" rx="2.5" ry="2.5" style="stroke:#181818;stroke-width:0.5;" width="88" x="291.5" y="490.3906"/><text fill="#000000" font-family="sans-serif" font-size="20" lengthAdjust="spacing" textLength="74" x="298.5" y="515.9551">System</text><polygon fill="#181818" points="323.5,160.8594,333.5,164.8594,323.5,168.8594,327.5,164.8594" style="stroke:#181818;stroke-width:1.0;"/><line style="stroke:#181818;stroke-width:1.0;" x1="45.5" x2="329.5" y1="164.8594" y2="164.8594"/><text fill="#000000" font-family="sans-serif" font-size="20" font-weight="bold" lengthAdjust="spacing" textLength="14" x="52.5" y="158.1426">1</text><text fill="#000000" font-family="sans-serif" font-size="20" lengthAdjust="spacing" textLength="248" x="70.5" y="158.1426">Select Take Exam option</text><polygon fill="#181818" points="56.5,198.1406,46.5,202.1406,56.5,206.1406,52.5,202.1406" style="stroke:#181818;stroke-width:1.0;"/><line style="stroke:#181818;stroke-width:1.0;stroke-dasharray:2.0,2.0;" x1="50.5" x2="334.5" y1="202.1406" y2="202.1406"/><text fill="#000000" font-family="sans-serif" font-size="20" font-weight="bold" lengthAdjust="spacing" textLength="14" x="62.5" y="195.4238">2</text><text fill="#000000" font-family="sans-serif" font-size="20" lengthAdjust="spacing" textLength="243" x="80.5" y="195.4238">Display Available Exams</text><polygon fill="#181818" points="323.5,235.4219,333.5,239.4219,323.5,243.4219,327.5,239.4219" style="stroke:#181818;stroke-width:1.0;"/><line style="stroke:#181818;stroke-width:1.0;" x1="45.5" x2="329.5" y1="239.4219" y2="239.4219"/><text fill="#000000" font-family="sans-serif" font-size="20" font-weight="bold" lengthAdjust="spacing" textLength="14" x="52.5" y="232.7051">3</text><text fill="#000000" font-family="sans-serif" font-size="20" lengthAdjust="spacing" textLength="124" x="70.5" y="232.7051">Select Exam</text><path d="M10,254.4219 L104,254.4219 L104,269.7031 L94,279.7031 L10,279.7031 L10,254.4219 " fill="#EEEEEE" style="stroke:#000000;stroke-width:1.5;"/><rect fill="none" height="108.125" style="stroke:#000000;stroke-width:1.5;" width="476" x="10" y="254.4219"/><text fill="#000000" font-family="sans-serif" font-size="20" font-weight="bold" lengthAdjust="spacing" textLength="49" x="25" y="273.9863">loop</text><text fill="#000000" font-family="sans-serif" font-size="20" font-weight="bold" lengthAdjust="spacing" textLength="362" x="119" y="274.9863">[for each question of the exam]</text><polygon fill="#181818" points="56.5,313.2656,46.5,317.2656,56.5,321.2656,52.5,317.2656" style="stroke:#181818;stroke-width:1.0;"/><line style="stroke:#181818;stroke-width:1.0;stroke-dasharray:2.0,2.0;" x1="50.5" x2="334.5" y1="317.2656" y2="317.2656"/><text fill="#000000" font-family="sans-serif" font-size="20" font-weight="bold" lengthAdjust="spacing" textLength="14" x="62.5" y="310.5488">4</text><text fill="#000000" font-family="sans-serif" font-size="20" lengthAdjust="spacing" textLength="166" x="80.5" y="310.5488">Display question</text><polygon fill="#181818" points="323.5,350.5469,333.5,354.5469,323.5,358.5469,327.5,354.5469" style="stroke:#181818;stroke-width:1.0;"/><line style="stroke:#181818;stroke-width:1.0;" x1="45.5" x2="329.5" y1="354.5469" y2="354.5469"/><text fill="#000000" font-family="sans-serif" font-size="20" font-weight="bold" lengthAdjust="spacing" textLength="14" x="52.5" y="347.8301">5</text><text fill="#000000" font-family="sans-serif" font-size="20" lengthAdjust="spacing" textLength="154" x="70.5" y="347.8301">Provide Answer</text><polygon fill="#181818" points="323.5,394.8281,333.5,398.8281,323.5,402.8281,327.5,398.8281" style="stroke:#181818;stroke-width:1.0;"/><line style="stroke:#181818;stroke-width:1.0;" x1="45.5" x2="329.5" y1="398.8281" y2="398.8281"/><text fill="#000000" font-family="sans-serif" font-size="20" font-weight="bold" lengthAdjust="spacing" textLength="14" x="52.5" y="392.1113">6</text><text fill="#000000" font-family="sans-serif" font-size="20" lengthAdjust="spacing" textLength="122" x="70.5" y="392.1113">Finish Exam</text><polygon fill="#181818" points="56.5,432.1094,46.5,436.1094,56.5,440.1094,52.5,436.1094" style="stroke:#181818;stroke-width:1.0;"/><line style="stroke:#181818;stroke-width:1.0;stroke-dasharray:2.0,2.0;" x1="50.5" x2="334.5" y1="436.1094" y2="436.1094"/><text fill="#000000" font-family="sans-serif" font-size="20" font-weight="bold" lengthAdjust="spacing" textLength="14" x="62.5" y="429.3926">7</text><text fill="#000000" font-family="sans-serif" font-size="20" lengthAdjust="spacing" textLength="216" x="80.5" y="429.3926">Calculate Final Grade</text><polygon fill="#181818" points="56.5,469.3906,46.5,473.3906,56.5,477.3906,52.5,473.3906" style="stroke:#181818;stroke-width:1.0;"/><line style="stroke:#181818;stroke-width:1.0;stroke-dasharray:2.0,2.0;" x1="50.5" x2="334.5" y1="473.3906" y2="473.3906"/><text fill="#000000" font-family="sans-serif" font-size="20" font-weight="bold" lengthAdjust="spacing" textLength="14" x="62.5" y="466.6738">8</text><text fill="#000000" font-family="sans-serif" font-size="20" lengthAdjust="spacing" textLength="176" x="80.5" y="466.6738">Display Feedback</text><!--SRC=[TOz1JiGm34NtEOKlC19YEGka4L343gbm03TnLQjk4X9dO3WzIGkhggiiti_xttbc7p7X8i7EvC3HY4Mq2rvx_Y6ulpFAAWGVcH8yV-C2hrufeLKEtfZwXhH2KpNAbYDwXVwMbHQ3HOClor2fMGMdXpzqXfw4hC8xphHvGroL6uTJZROlPtZY70LlSBaY2mwonVEHi45Z98G8Ovr6Q2VuB9IR7C88EX5GonmM_QTt3MyfNDaHN7p-gYUHTz1wzhTrx3bFsvHTpIEABO9ABOO2BmaT7Q_fYDo0Tlu5]--></g></svg>