<?xml version="1.0" encoding="UTF-8" standalone="no"?><svg xmlns="http://www.w3.org/2000/svg" xmlns:xlink="http://www.w3.org/1999/xlink" contentStyleType="text/css" height="1033px" preserveAspectRatio="none" style="width:1735px;height:1033px;background:#FFFFFF;" version="1.1" viewBox="0 0 1735 1033" width="1735px" zoomAndPan="magnify"><defs/><g><rect fill="#FFFFFF" height="769.625" style="stroke:#181818;stroke-width:1.0;" width="10" x="351" y="136.8438"/><rect fill="#FFFFFF" height="232.6875" style="stroke:#181818;stroke-width:1.0;" width="10" x="664" y="177.125"/><rect fill="#FFFFFF" height="419.0938" style="stroke:#181818;stroke-width:1.0;" width="10" x="664" y="450.0938"/><rect fill="#FFFFFF" height="40.2813" style="stroke:#181818;stroke-width:1.0;" width="10" x="918.5" y="217.4063"/><rect fill="#FFFFFF" height="37.2813" style="stroke:#181818;stroke-width:1.0;" width="10" x="1128.5" y="297.9688"/><rect fill="#FFFFFF" height="37.2813" style="stroke:#181818;stroke-width:1.0;" width="10" x="1128.5" y="372.5313"/><rect fill="#FFFFFF" height="37.2813" style="stroke:#181818;stroke-width:1.0;" width="10" x="1331.5" y="490.375"/><rect fill="#FFFFFF" height="37.2813" style="stroke:#181818;stroke-width:1.0;" width="10" x="1494.5" y="564.9375"/><rect fill="#FFFFFF" height="37.2813" style="stroke:#181818;stroke-width:1.0;" width="10" x="1645.5" y="794.625"/><line style="stroke:#181818;stroke-width:0.5;stroke-dasharray:5.0,5.0;" x1="46" x2="46" y1="97.5625" y2="924.4688"/><line style="stroke:#181818;stroke-width:0.5;stroke-dasharray:5.0,5.0;" x1="355.5" x2="355.5" y1="97.5625" y2="924.4688"/><line style="stroke:#181818;stroke-width:0.5;stroke-dasharray:5.0,5.0;" x1="668.5" x2="668.5" y1="97.5625" y2="924.4688"/><line style="stroke:#181818;stroke-width:0.5;stroke-dasharray:5.0,5.0;" x1="923.5" x2="923.5" y1="97.5625" y2="924.4688"/><line style="stroke:#181818;stroke-width:0.5;stroke-dasharray:5.0,5.0;" x1="1133.5" x2="1133.5" y1="97.5625" y2="924.4688"/><line style="stroke:#181818;stroke-width:0.5;stroke-dasharray:5.0,5.0;" x1="1336.5" x2="1336.5" y1="97.5625" y2="924.4688"/><line style="stroke:#181818;stroke-width:0.5;stroke-dasharray:5.0,5.0;" x1="1499.5" x2="1499.5" y1="97.5625" y2="924.4688"/><line style="stroke:#181818;stroke-width:0.5;stroke-dasharray:5.0,5.0;" x1="1650.5" x2="1650.5" y1="97.5625" y2="924.4688"/><text fill="#000000" font-family="sans-serif" font-size="20" lengthAdjust="spacing" textLength="76" x="5" y="92.8457">teacher</text><ellipse cx="46" cy="22.7813" fill="#E2E2F0" rx="8" ry="8" style="stroke:#181818;stroke-width:0.5;"/><path d="M46,30.7813 L46,57.7813 M33,38.7813 L59,38.7813 M46,57.7813 L33,72.7813 M46,57.7813 L59,72.7813 " fill="none" style="stroke:#181818;stroke-width:0.5;"/><text fill="#000000" font-family="sans-serif" font-size="20" lengthAdjust="spacing" textLength="76" x="5" y="942.0332">teacher</text><ellipse cx="46" cy="955.25" fill="#E2E2F0" rx="8" ry="8" style="stroke:#181818;stroke-width:0.5;"/><path d="M46,963.25 L46,990.25 M33,971.25 L59,971.25 M46,990.25 L33,1005.25 M46,990.25 L59,1005.25 " fill="none" style="stroke:#181818;stroke-width:0.5;"/><rect fill="#E2E2F0" height="60.5625" rx="2.5" ry="2.5" style="stroke:#181818;stroke-width:0.5;" width="205" x="253.5" y="36"/><text fill="#000000" font-family="sans-serif" font-size="20" font-style="italic" lengthAdjust="spacing" textLength="151" x="280.5" y="61.5645">«presentation»</text><text fill="#000000" font-family="sans-serif" font-size="20" lengthAdjust="spacing" textLength="191" x="260.5" y="84.8457">ListCourseExamsUI</text><rect fill="#E2E2F0" height="60.5625" rx="2.5" ry="2.5" style="stroke:#181818;stroke-width:0.5;" width="205" x="253.5" y="923.4688"/><text fill="#000000" font-family="sans-serif" font-size="20" font-style="italic" lengthAdjust="spacing" textLength="151" x="280.5" y="949.0332">«presentation»</text><text fill="#000000" font-family="sans-serif" font-size="20" lengthAdjust="spacing" textLength="191" x="260.5" y="972.3145">ListCourseExamsUI</text><rect fill="#E2E2F0" height="60.5625" rx="2.5" ry="2.5" style="stroke:#181818;stroke-width:0.5;" width="283" x="527.5" y="36"/><text fill="#000000" font-family="sans-serif" font-size="20" font-style="italic" lengthAdjust="spacing" textLength="136" x="601" y="61.5645">«application»</text><text fill="#000000" font-family="sans-serif" font-size="20" lengthAdjust="spacing" textLength="269" x="534.5" y="84.8457">ListCourseExamsController</text><rect fill="#E2E2F0" height="60.5625" rx="2.5" ry="2.5" style="stroke:#181818;stroke-width:0.5;" width="283" x="527.5" y="923.4688"/><text fill="#000000" font-family="sans-serif" font-size="20" font-style="italic" lengthAdjust="spacing" textLength="136" x="601" y="949.0332">«application»</text><text fill="#000000" font-family="sans-serif" font-size="20" lengthAdjust="spacing" textLength="269" x="534.5" y="972.3145">ListCourseExamsController</text><rect fill="#E2E2F0" height="60.5625" rx="2.5" ry="2.5" style="stroke:#181818;stroke-width:0.5;" width="206" x="820.5" y="36"/><text fill="#000000" font-family="sans-serif" font-size="20" font-style="italic" lengthAdjust="spacing" textLength="139" x="854" y="61.5645">«persistence»</text><text fill="#000000" font-family="sans-serif" font-size="20" lengthAdjust="spacing" textLength="192" x="827.5" y="84.8457">PersistenceContext</text><rect fill="#E2E2F0" height="60.5625" rx="2.5" ry="2.5" style="stroke:#181818;stroke-width:0.5;" width="206" x="820.5" y="923.4688"/><text fill="#000000" font-family="sans-serif" font-size="20" font-style="italic" lengthAdjust="spacing" textLength="139" x="854" y="949.0332">«persistence»</text><text fill="#000000" font-family="sans-serif" font-size="20" lengthAdjust="spacing" textLength="192" x="827.5" y="972.3145">PersistenceContext</text><rect fill="#E2E2F0" height="60.5625" rx="2.5" ry="2.5" style="stroke:#181818;stroke-width:0.5;" width="194" x="1036.5" y="36"/><text fill="#000000" font-family="sans-serif" font-size="20" font-style="italic" lengthAdjust="spacing" textLength="94" x="1086.5" y="61.5645">«factory»</text><text fill="#000000" font-family="sans-serif" font-size="20" lengthAdjust="spacing" textLength="180" x="1043.5" y="84.8457">RepositoryFactory</text><rect fill="#E2E2F0" height="60.5625" rx="2.5" ry="2.5" style="stroke:#181818;stroke-width:0.5;" width="194" x="1036.5" y="923.4688"/><text fill="#000000" font-family="sans-serif" font-size="20" font-style="italic" lengthAdjust="spacing" textLength="94" x="1086.5" y="949.0332">«factory»</text><text fill="#000000" font-family="sans-serif" font-size="20" lengthAdjust="spacing" textLength="180" x="1043.5" y="972.3145">RepositoryFactory</text><text fill="#000000" font-family="sans-serif" font-size="20" font-style="italic" lengthAdjust="spacing" textLength="125" x="1271" y="69.5645">«repository»</text><text fill="#000000" font-family="sans-serif" font-size="20" lengthAdjust="spacing" textLength="186" x="1240.5" y="92.8457">TeacherRepository</text><path d="M1318.5,15 C1318.5,5 1336.5,5 1336.5,5 C1336.5,5 1354.5,5 1354.5,15 L1354.5,41 C1354.5,51 1336.5,51 1336.5,51 C1336.5,51 1318.5,51 1318.5,41 L1318.5,15 " fill="#E2E2F0" style="stroke:#181818;stroke-width:1.5;"/><path d="M1318.5,15 C1318.5,25 1336.5,25 1336.5,25 C1336.5,25 1354.5,25 1354.5,15 " fill="none" style="stroke:#181818;stroke-width:1.5;"/><text fill="#000000" font-family="sans-serif" font-size="20" font-style="italic" lengthAdjust="spacing" textLength="125" x="1271" y="942.0332">«repository»</text><text fill="#000000" font-family="sans-serif" font-size="20" lengthAdjust="spacing" textLength="186" x="1240.5" y="965.3145">TeacherRepository</text><path d="M1318.5,980.0313 C1318.5,970.0313 1336.5,970.0313 1336.5,970.0313 C1336.5,970.0313 1354.5,970.0313 1354.5,980.0313 L1354.5,1006.0313 C1354.5,1016.0313 1336.5,1016.0313 1336.5,1016.0313 C1336.5,1016.0313 1318.5,1016.0313 1318.5,1006.0313 L1318.5,980.0313 " fill="#E2E2F0" style="stroke:#181818;stroke-width:1.5;"/><path d="M1318.5,980.0313 C1318.5,990.0313 1336.5,990.0313 1336.5,990.0313 C1336.5,990.0313 1354.5,990.0313 1354.5,980.0313 " fill="none" style="stroke:#181818;stroke-width:1.5;"/><rect fill="#E2E2F0" height="60.5625" rx="2.5" ry="2.5" style="stroke:#181818;stroke-width:0.5;" width="114" x="1442.5" y="36"/><text fill="#000000" font-family="sans-serif" font-size="20" font-style="italic" lengthAdjust="spacing" textLength="100" x="1449.5" y="61.5645">«domain»</text><text fill="#000000" font-family="sans-serif" font-size="20" lengthAdjust="spacing" textLength="80" x="1459.5" y="84.8457">Teacher</text><rect fill="#E2E2F0" height="60.5625" rx="2.5" ry="2.5" style="stroke:#181818;stroke-width:0.5;" width="114" x="1442.5" y="923.4688"/><text fill="#000000" font-family="sans-serif" font-size="20" font-style="italic" lengthAdjust="spacing" textLength="100" x="1449.5" y="949.0332">«domain»</text><text fill="#000000" font-family="sans-serif" font-size="20" lengthAdjust="spacing" textLength="80" x="1459.5" y="972.3145">Teacher</text><text fill="#000000" font-family="sans-serif" font-size="20" font-style="italic" lengthAdjust="spacing" textLength="125" x="1585" y="69.5645">«repository»</text><text fill="#000000" font-family="sans-serif" font-size="20" lengthAdjust="spacing" textLength="162" x="1566.5" y="92.8457">ExamRepository</text><path d="M1632.5,15 C1632.5,5 1650.5,5 1650.5,5 C1650.5,5 1668.5,5 1668.5,15 L1668.5,41 C1668.5,51 1650.5,51 1650.5,51 C1650.5,51 1632.5,51 1632.5,41 L1632.5,15 " fill="#E2E2F0" style="stroke:#181818;stroke-width:1.5;"/><path d="M1632.5,15 C1632.5,25 1650.5,25 1650.5,25 C1650.5,25 1668.5,25 1668.5,15 " fill="none" style="stroke:#181818;stroke-width:1.5;"/><text fill="#000000" font-family="sans-serif" font-size="20" font-style="italic" lengthAdjust="spacing" textLength="125" x="1585" y="942.0332">«repository»</text><text fill="#000000" font-family="sans-serif" font-size="20" lengthAdjust="spacing" textLength="162" x="1566.5" y="965.3145">ExamRepository</text><path d="M1632.5,980.0313 C1632.5,970.0313 1650.5,970.0313 1650.5,970.0313 C1650.5,970.0313 1668.5,970.0313 1668.5,980.0313 L1668.5,1006.0313 C1668.5,1016.0313 1650.5,1016.0313 1650.5,1016.0313 C1650.5,1016.0313 1632.5,1016.0313 1632.5,1006.0313 L1632.5,980.0313 " fill="#E2E2F0" style="stroke:#181818;stroke-width:1.5;"/><path d="M1632.5,980.0313 C1632.5,990.0313 1650.5,990.0313 1650.5,990.0313 C1650.5,990.0313 1668.5,990.0313 1668.5,980.0313 " fill="none" style="stroke:#181818;stroke-width:1.5;"/><rect fill="#FFFFFF" height="769.625" style="stroke:#181818;stroke-width:1.0;" width="10" x="351" y="136.8438"/><rect fill="#FFFFFF" height="232.6875" style="stroke:#181818;stroke-width:1.0;" width="10" x="664" y="177.125"/><rect fill="#FFFFFF" height="419.0938" style="stroke:#181818;stroke-width:1.0;" width="10" x="664" y="450.0938"/><rect fill="#FFFFFF" height="40.2813" style="stroke:#181818;stroke-width:1.0;" width="10" x="918.5" y="217.4063"/><rect fill="#FFFFFF" height="37.2813" style="stroke:#181818;stroke-width:1.0;" width="10" x="1128.5" y="297.9688"/><rect fill="#FFFFFF" height="37.2813" style="stroke:#181818;stroke-width:1.0;" width="10" x="1128.5" y="372.5313"/><rect fill="#FFFFFF" height="37.2813" style="stroke:#181818;stroke-width:1.0;" width="10" x="1331.5" y="490.375"/><rect fill="#FFFFFF" height="37.2813" style="stroke:#181818;stroke-width:1.0;" width="10" x="1494.5" y="564.9375"/><rect fill="#FFFFFF" height="37.2813" style="stroke:#181818;stroke-width:1.0;" width="10" x="1645.5" y="794.625"/><polygon fill="#181818" points="339,132.8438,349,136.8438,339,140.8438,343,136.8438" style="stroke:#181818;stroke-width:1.0;"/><line style="stroke:#181818;stroke-width:1.0;stroke-dasharray:2.0,2.0;" x1="46" x2="345" y1="136.8438" y2="136.8438"/><text fill="#000000" font-family="sans-serif" font-size="20" font-weight="bold" lengthAdjust="spacing" textLength="14" x="53" y="130.127">1</text><text fill="#000000" font-family="sans-serif" font-size="20" lengthAdjust="spacing" textLength="268" x="71" y="130.127">Request exams of a course</text><polygon fill="#181818" points="652,173.125,662,177.125,652,181.125,656,177.125" style="stroke:#181818;stroke-width:1.0;"/><line style="stroke:#181818;stroke-width:1.0;" x1="361" x2="658" y1="177.125" y2="177.125"/><text fill="#000000" font-family="sans-serif" font-size="20" font-weight="bold" lengthAdjust="spacing" textLength="14" x="368" y="170.4082">2</text><text fill="#000000" font-family="sans-serif" font-size="20" lengthAdjust="spacing" textLength="63" x="386" y="170.4082">create</text><path d="M679,149.8438 L679,182.8438 L971,182.8438 L971,159.8438 L961,149.8438 L679,149.8438 " fill="#FEFFDD" style="stroke:#181818;stroke-width:0.5;"/><path d="M961,149.8438 L961,159.8438 L971,159.8438 L961,149.8438 " fill="#FEFFDD" style="stroke:#181818;stroke-width:0.5;"/><text fill="#000000" font-family="sans-serif" font-size="20" lengthAdjust="spacing" textLength="271" x="685" y="173.4082">Authenticate if is a teacher</text><polygon fill="#181818" points="906.5,213.4063,916.5,217.4063,906.5,221.4063,910.5,217.4063" style="stroke:#181818;stroke-width:1.0;"/><line style="stroke:#181818;stroke-width:1.0;" x1="674" x2="912.5" y1="217.4063" y2="217.4063"/><text fill="#000000" font-family="sans-serif" font-size="20" font-weight="bold" lengthAdjust="spacing" textLength="14" x="681" y="210.6895">3</text><text fill="#000000" font-family="sans-serif" font-size="20" lengthAdjust="spacing" textLength="133" x="699" y="210.6895">repositories()</text><polygon fill="#181818" points="685,253.6875,675,257.6875,685,261.6875,681,257.6875" style="stroke:#181818;stroke-width:1.0;"/><line style="stroke:#181818;stroke-width:1.0;stroke-dasharray:2.0,2.0;" x1="679" x2="922.5" y1="257.6875" y2="257.6875"/><text fill="#000000" font-family="sans-serif" font-size="20" font-weight="bold" lengthAdjust="spacing" textLength="14" x="691" y="250.9707">4</text><text fill="#000000" font-family="sans-serif" font-size="20" lengthAdjust="spacing" textLength="180" x="709" y="250.9707">RepositoryFactory</text><path d="M933,230.4063 L933,263.4063 L1356,263.4063 L1356,240.4063 L1346,230.4063 L933,230.4063 " fill="#FEFFDD" style="stroke:#181818;stroke-width:0.5;"/><path d="M1346,230.4063 L1346,240.4063 L1356,240.4063 L1346,230.4063 " fill="#FEFFDD" style="stroke:#181818;stroke-width:0.5;"/><text fill="#000000" font-family="sans-serif" font-size="20" lengthAdjust="spacing" textLength="402" x="939" y="253.9707">The repositories can be JPA or InMemory</text><polygon fill="#181818" points="1116.5,293.9688,1126.5,297.9688,1116.5,301.9688,1120.5,297.9688" style="stroke:#181818;stroke-width:1.0;"/><line style="stroke:#181818;stroke-width:1.0;" x1="674" x2="1122.5" y1="297.9688" y2="297.9688"/><text fill="#000000" font-family="sans-serif" font-size="20" font-weight="bold" lengthAdjust="spacing" textLength="14" x="681" y="291.252">5</text><text fill="#000000" font-family="sans-serif" font-size="20" lengthAdjust="spacing" textLength="102" x="699" y="291.252">teachers()</text><polygon fill="#181818" points="685,331.25,675,335.25,685,339.25,681,335.25" style="stroke:#181818;stroke-width:1.0;"/><line style="stroke:#181818;stroke-width:1.0;stroke-dasharray:2.0,2.0;" x1="679" x2="1132.5" y1="335.25" y2="335.25"/><text fill="#000000" font-family="sans-serif" font-size="20" font-weight="bold" lengthAdjust="spacing" textLength="14" x="691" y="328.5332">6</text><text fill="#000000" font-family="sans-serif" font-size="20" lengthAdjust="spacing" textLength="186" x="709" y="328.5332">TeacherRepository</text><polygon fill="#181818" points="1116.5,368.5313,1126.5,372.5313,1116.5,376.5313,1120.5,372.5313" style="stroke:#181818;stroke-width:1.0;"/><line style="stroke:#181818;stroke-width:1.0;" x1="674" x2="1122.5" y1="372.5313" y2="372.5313"/><text fill="#000000" font-family="sans-serif" font-size="20" font-weight="bold" lengthAdjust="spacing" textLength="14" x="681" y="365.8145">7</text><text fill="#000000" font-family="sans-serif" font-size="20" lengthAdjust="spacing" textLength="81" x="699" y="365.8145">exams()</text><polygon fill="#181818" points="680,405.8125,670,409.8125,680,413.8125,676,409.8125" style="stroke:#181818;stroke-width:1.0;"/><line style="stroke:#181818;stroke-width:1.0;stroke-dasharray:2.0,2.0;" x1="674" x2="1132.5" y1="409.8125" y2="409.8125"/><text fill="#000000" font-family="sans-serif" font-size="20" font-weight="bold" lengthAdjust="spacing" textLength="14" x="686" y="403.0957">8</text><text fill="#000000" font-family="sans-serif" font-size="20" lengthAdjust="spacing" textLength="162" x="704" y="403.0957">ExamRepository</text><polygon fill="#181818" points="652,446.0938,662,450.0938,652,454.0938,656,450.0938" style="stroke:#181818;stroke-width:1.0;"/><line style="stroke:#181818;stroke-width:1.0;" x1="361" x2="658" y1="450.0938" y2="450.0938"/><text fill="#000000" font-family="sans-serif" font-size="20" font-weight="bold" lengthAdjust="spacing" textLength="14" x="368" y="443.377">9</text><text fill="#000000" font-family="sans-serif" font-size="20" lengthAdjust="spacing" textLength="125" x="386" y="443.377">listCourses()</text><path d="M679,422.8125 L679,455.8125 L971,455.8125 L971,432.8125 L961,422.8125 L679,422.8125 " fill="#FEFFDD" style="stroke:#181818;stroke-width:0.5;"/><path d="M961,422.8125 L961,432.8125 L971,432.8125 L961,422.8125 " fill="#FEFFDD" style="stroke:#181818;stroke-width:0.5;"/><text fill="#000000" font-family="sans-serif" font-size="20" lengthAdjust="spacing" textLength="271" x="685" y="446.377">Authenticate if is a teacher</text><polygon fill="#181818" points="1319.5,486.375,1329.5,490.375,1319.5,494.375,1323.5,490.375" style="stroke:#181818;stroke-width:1.0;"/><line style="stroke:#181818;stroke-width:1.0;" x1="674" x2="1325.5" y1="490.375" y2="490.375"/><text fill="#000000" font-family="sans-serif" font-size="20" font-weight="bold" lengthAdjust="spacing" textLength="28" x="681" y="483.6582">10</text><text fill="#000000" font-family="sans-serif" font-size="20" lengthAdjust="spacing" textLength="99" x="713" y="483.6582">findById()</text><polygon fill="#181818" points="685,523.6563,675,527.6563,685,531.6563,681,527.6563" style="stroke:#181818;stroke-width:1.0;"/><line style="stroke:#181818;stroke-width:1.0;stroke-dasharray:2.0,2.0;" x1="679" x2="1335.5" y1="527.6563" y2="527.6563"/><text fill="#000000" font-family="sans-serif" font-size="20" font-weight="bold" lengthAdjust="spacing" textLength="28" x="691" y="520.9395">11</text><text fill="#000000" font-family="sans-serif" font-size="20" lengthAdjust="spacing" textLength="76" x="723" y="520.9395">teacher</text><polygon fill="#181818" points="1482.5,560.9375,1492.5,564.9375,1482.5,568.9375,1486.5,564.9375" style="stroke:#181818;stroke-width:1.0;"/><line style="stroke:#181818;stroke-width:1.0;" x1="674" x2="1488.5" y1="564.9375" y2="564.9375"/><text fill="#000000" font-family="sans-serif" font-size="20" font-weight="bold" lengthAdjust="spacing" textLength="28" x="681" y="558.2207">12</text><text fill="#000000" font-family="sans-serif" font-size="20" lengthAdjust="spacing" textLength="92" x="713" y="558.2207">courses()</text><polygon fill="#181818" points="685,598.2188,675,602.2188,685,606.2188,681,602.2188" style="stroke:#181818;stroke-width:1.0;"/><line style="stroke:#181818;stroke-width:1.0;stroke-dasharray:2.0,2.0;" x1="679" x2="1498.5" y1="602.2188" y2="602.2188"/><text fill="#000000" font-family="sans-serif" font-size="20" font-weight="bold" lengthAdjust="spacing" textLength="28" x="691" y="595.502">13</text><text fill="#000000" font-family="sans-serif" font-size="20" lengthAdjust="spacing" textLength="190" x="723" y="595.502">Iterable&lt;Courses&gt;</text><polygon fill="#181818" points="372,635.5,362,639.5,372,643.5,368,639.5" style="stroke:#181818;stroke-width:1.0;"/><line style="stroke:#181818;stroke-width:1.0;stroke-dasharray:2.0,2.0;" x1="366" x2="663" y1="639.5" y2="639.5"/><text fill="#000000" font-family="sans-serif" font-size="20" font-weight="bold" lengthAdjust="spacing" textLength="28" x="378" y="632.7832">14</text><text fill="#000000" font-family="sans-serif" font-size="20" lengthAdjust="spacing" textLength="190" x="410" y="632.7832">Iterable&lt;Courses&gt;</text><polygon fill="#181818" points="57,672.7813,47,676.7813,57,680.7813,53,676.7813" style="stroke:#181818;stroke-width:1.0;"/><line style="stroke:#181818;stroke-width:1.0;stroke-dasharray:2.0,2.0;" x1="51" x2="350" y1="676.7813" y2="676.7813"/><text fill="#000000" font-family="sans-serif" font-size="20" font-weight="bold" lengthAdjust="spacing" textLength="28" x="63" y="670.0645">15</text><text fill="#000000" font-family="sans-serif" font-size="20" lengthAdjust="spacing" textLength="206" x="95" y="670.0645">Ask teacher's course</text><polygon fill="#181818" points="339,710.0625,349,714.0625,339,718.0625,343,714.0625" style="stroke:#181818;stroke-width:1.0;"/><line style="stroke:#181818;stroke-width:1.0;stroke-dasharray:2.0,2.0;" x1="46" x2="345" y1="714.0625" y2="714.0625"/><text fill="#000000" font-family="sans-serif" font-size="20" font-weight="bold" lengthAdjust="spacing" textLength="28" x="53" y="707.3457">16</text><text fill="#000000" font-family="sans-serif" font-size="20" lengthAdjust="spacing" textLength="134" x="85" y="707.3457">Select course</text><polygon fill="#181818" points="652,750.3438,662,754.3438,652,758.3438,656,754.3438" style="stroke:#181818;stroke-width:1.0;"/><line style="stroke:#181818;stroke-width:1.0;" x1="361" x2="658" y1="754.3438" y2="754.3438"/><text fill="#000000" font-family="sans-serif" font-size="20" font-weight="bold" lengthAdjust="spacing" textLength="28" x="368" y="747.627">17</text><text fill="#000000" font-family="sans-serif" font-size="20" lengthAdjust="spacing" textLength="247" x="400" y="747.627">listCourseExams(course)</text><path d="M679,727.0625 L679,760.0625 L971,760.0625 L971,737.0625 L961,727.0625 L679,727.0625 " fill="#FEFFDD" style="stroke:#181818;stroke-width:0.5;"/><path d="M961,727.0625 L961,737.0625 L971,737.0625 L961,727.0625 " fill="#FEFFDD" style="stroke:#181818;stroke-width:0.5;"/><text fill="#000000" font-family="sans-serif" font-size="20" lengthAdjust="spacing" textLength="271" x="685" y="750.627">Authenticate if is a teacher</text><polygon fill="#181818" points="1633.5,790.625,1643.5,794.625,1633.5,798.625,1637.5,794.625" style="stroke:#181818;stroke-width:1.0;"/><line style="stroke:#181818;stroke-width:1.0;" x1="674" x2="1639.5" y1="794.625" y2="794.625"/><text fill="#000000" font-family="sans-serif" font-size="20" font-weight="bold" lengthAdjust="spacing" textLength="28" x="681" y="787.9082">18</text><text fill="#000000" font-family="sans-serif" font-size="20" lengthAdjust="spacing" textLength="149" x="713" y="787.9082">findByCourse()</text><polygon fill="#181818" points="685,827.9063,675,831.9063,685,835.9063,681,831.9063" style="stroke:#181818;stroke-width:1.0;"/><line style="stroke:#181818;stroke-width:1.0;stroke-dasharray:2.0,2.0;" x1="679" x2="1649.5" y1="831.9063" y2="831.9063"/><text fill="#000000" font-family="sans-serif" font-size="20" font-weight="bold" lengthAdjust="spacing" textLength="28" x="691" y="825.1895">19</text><text fill="#000000" font-family="sans-serif" font-size="20" lengthAdjust="spacing" textLength="177" x="723" y="825.1895">Iterable&lt;Exams&gt;</text><polygon fill="#181818" points="372,865.1875,362,869.1875,372,873.1875,368,869.1875" style="stroke:#181818;stroke-width:1.0;"/><line style="stroke:#181818;stroke-width:1.0;stroke-dasharray:2.0,2.0;" x1="366" x2="668" y1="869.1875" y2="869.1875"/><text fill="#000000" font-family="sans-serif" font-size="20" font-weight="bold" lengthAdjust="spacing" textLength="28" x="378" y="862.4707">20</text><text fill="#000000" font-family="sans-serif" font-size="20" lengthAdjust="spacing" textLength="177" x="410" y="862.4707">Iterable&lt;Exams&gt;</text><polygon fill="#181818" points="57,902.4688,47,906.4688,57,910.4688,53,906.4688" style="stroke:#181818;stroke-width:1.0;"/><line style="stroke:#181818;stroke-width:1.0;stroke-dasharray:2.0,2.0;" x1="51" x2="355" y1="906.4688" y2="906.4688"/><text fill="#000000" font-family="sans-serif" font-size="20" font-weight="bold" lengthAdjust="spacing" textLength="28" x="63" y="899.752">21</text><text fill="#000000" font-family="sans-serif" font-size="20" lengthAdjust="spacing" textLength="242" x="95" y="899.752">List exams of the course</text><!--SRC=[fLLDRzim3BtxL_3Mzf1bsD4m0dJ52gJOW6BjVe0YqxKGMt8bUcZswqVPLlmXDmFMIo15ZtoFZvJiZaetmegwClA8EUHOYBQYUwFfIVr1-F8vkIg96fTkjqqbDBLrzKcQUklmjKKjSPChySBnII9QChgj3sXvBSbO81IoH0l2GUlytyn4Igg6yy1tvUZEjDRXjpTHkrzx3-DVoBB6eaDDWfJHkzsbg3lMQKrLzIIJNPQ9fgcKNClnYDPn6g_UH-0RXM2_PFhnV17v4nlZ59TskkygF36ww5UCp0M9Wt08pttT8vfXzhnPv1p03CbDBPGNEsRoHRwV9l6kmcQpyxwbh8vRuWZGEmEc006oiygtG_qMX8nB6Ce14wjIa1RvS4IDXuaslBVgfIJ6tRPKSb-ygmYg0EMOOcXoCiauvFTkfd1MhD1Ttyn96944v6QfAZ9xBkQvn5bka4B30U7XyHPuzlRw1zO-ACTLob5gtDGq53KJ7Ek98wCYeb6Oweap_bjPrzmFovhFrMLD2mE7mLYRe-fyEQDEVt2SuXkLGg5q_lMqpwTKiTrnP6H6e9mK6kTPrUFlJbplS1YeOy8zeHM72hF1hDqAzOmmtF0ui6i37tSl0LlgZg6SAnTk__oLUC8A9OMpYrtidjZh7ddptxrRl66XSJt5rBV5K2xYtdUnapdpS97fefLnz6HUv-xwZy_ukh81mSL9CB-mVm40]--></g></svg>