<?xml version="1.0" encoding="UTF-8" standalone="no"?><svg xmlns="http://www.w3.org/2000/svg" xmlns:xlink="http://www.w3.org/1999/xlink" contentStyleType="text/css" height="1097px" preserveAspectRatio="none" style="width:939px;height:1097px;background:#FFFFFF;" version="1.1" viewBox="0 0 939 1097" width="939px" zoomAndPan="magnify"><defs/><g><text fill="#000000" font-family="sans-serif" font-size="14" font-weight="bold" lengthAdjust="spacing" textLength="228" x="348.5" y="22.9951">List Teacher's Course Exams</text><!--cluster Teacher--><g id="cluster_Teacher"><path d="M24,781.2969 L117,781.2969 A3.75,3.75 0 0 1 119.5,783.7969 L126.5,810.5781 L369,810.5781 A2.5,2.5 0 0 1 371.5,813.0781 L371.5,932.7969 A2.5,2.5 0 0 1 369,935.2969 L24,935.2969 A2.5,2.5 0 0 1 21.5,932.7969 L21.5,783.7969 A2.5,2.5 0 0 1 24,781.2969 " fill="none" style="stroke:#000000;stroke-width:1.5;"/><line style="stroke:#000000;stroke-width:1.5;" x1="21.5" x2="126.5" y1="810.5781" y2="810.5781"/><text fill="#000000" font-family="sans-serif" font-size="20" font-weight="bold" lengthAdjust="spacing" textLength="92" x="25.5" y="801.8613">Teacher</text></g><!--cluster Exam--><g id="cluster_Exam"><path d="M589,792.7969 L652,792.7969 A3.75,3.75 0 0 1 654.5,795.2969 L661.5,822.0781 L710,822.0781 A2.5,2.5 0 0 1 712.5,824.5781 L712.5,921.2969 A2.5,2.5 0 0 1 710,923.7969 L589,923.7969 A2.5,2.5 0 0 1 586.5,921.2969 L586.5,795.2969 A2.5,2.5 0 0 1 589,792.7969 " fill="none" style="stroke:#000000;stroke-width:1.5;"/><line style="stroke:#000000;stroke-width:1.5;" x1="586.5" x2="661.5" y1="822.0781" y2="822.0781"/><text fill="#000000" font-family="sans-serif" font-size="20" font-weight="bold" lengthAdjust="spacing" textLength="62" x="590.5" y="813.3613">Exam</text></g><!--cluster Course--><g id="cluster_Course"><path d="M584,959.2969 L664,959.2969 A3.75,3.75 0 0 1 666.5,961.7969 L673.5,988.5781 L715,988.5781 A2.5,2.5 0 0 1 717.5,991.0781 L717.5,1087.7969 A2.5,2.5 0 0 1 715,1090.2969 L584,1090.2969 A2.5,2.5 0 0 1 581.5,1087.7969 L581.5,961.7969 A2.5,2.5 0 0 1 584,959.2969 " fill="none" style="stroke:#000000;stroke-width:1.5;"/><line style="stroke:#000000;stroke-width:1.5;" x1="581.5" x2="673.5" y1="988.5781" y2="988.5781"/><text fill="#000000" font-family="sans-serif" font-size="20" font-weight="bold" lengthAdjust="spacing" textLength="79" x="585.5" y="979.8613">Course</text></g><!--cluster repositories--><g id="cluster_repositories"><path d="M11,626.2969 L150,626.2969 A3.75,3.75 0 0 1 152.5,628.7969 L159.5,655.5781 L780,655.5781 A2.5,2.5 0 0 1 782.5,658.0781 L782.5,754.7969 A2.5,2.5 0 0 1 780,757.2969 L11,757.2969 A2.5,2.5 0 0 1 8.5,754.7969 L8.5,628.7969 A2.5,2.5 0 0 1 11,626.2969 " fill="none" style="stroke:#000000;stroke-width:1.5;"/><line style="stroke:#000000;stroke-width:1.5;" x1="8.5" x2="159.5" y1="655.5781" y2="655.5781"/><text fill="#000000" font-family="sans-serif" font-size="20" font-weight="bold" lengthAdjust="spacing" textLength="138" x="12.5" y="646.8613">repositories</text></g><!--cluster infraestructure.persistence--><g id="cluster_infraestructure.persistence"><path d="M185,314.2969 L501,314.2969 A3.75,3.75 0 0 1 503.5,316.7969 L510.5,343.5781 L554,343.5781 A2.5,2.5 0 0 1 556.5,346.0781 L556.5,599.7969 A2.5,2.5 0 0 1 554,602.2969 L185,602.2969 A2.5,2.5 0 0 1 182.5,599.7969 L182.5,316.7969 A2.5,2.5 0 0 1 185,314.2969 " fill="none" style="stroke:#000000;stroke-width:1.5;"/><line style="stroke:#000000;stroke-width:1.5;" x1="182.5" x2="510.5" y1="343.5781" y2="343.5781"/><text fill="#000000" font-family="sans-serif" font-size="20" font-weight="bold" lengthAdjust="spacing" textLength="315" x="186.5" y="334.8613">infraestructure.persistence</text></g><!--class Teacher--><g id="elem_Teacher"><rect codeLine="7" fill="#F1F1F1" height="95.8438" id="Teacher" rx="2.5" ry="2.5" style="stroke:#181818;stroke-width:0.5;" width="318" x="37.5" y="823.2969"/><ellipse cx="152" cy="851.5781" fill="#ADD1B2" rx="12" ry="12" style="stroke:#181818;stroke-width:1.0;"/><path d="M155.0625,858.6563 Q154.375,859.0156 153.625,859.1875 Q152.875,859.3594 152.0469,859.3594 Q149.0938,859.3594 147.5313,857.4219 Q145.9844,855.4688 145.9844,851.7969 Q145.9844,848.125 147.5313,846.1875 Q149.0938,844.2344 152.0469,844.2344 Q152.875,844.2344 153.625,844.4063 Q154.3906,844.5781 155.0625,844.9375 L155.0625,848.1406 Q154.3125,847.4531 153.6094,847.1406 Q152.9219,846.8281 152.1719,846.8281 Q150.5938,846.8281 149.7813,848.0781 Q148.9844,849.3281 148.9844,851.7969 Q148.9844,854.2656 149.7813,855.5156 Q150.5938,856.7656 152.1719,856.7656 Q152.9219,856.7656 153.6094,856.4531 Q154.3125,856.1406 155.0625,855.4531 L155.0625,858.6563 Z " fill="#000000"/><text fill="#000000" font-family="sans-serif" font-size="20" font-style="italic" lengthAdjust="spacing" textLength="64" x="182" y="846.8613">«root»</text><text fill="#000000" font-family="sans-serif" font-size="20" lengthAdjust="spacing" textLength="80" x="174" y="870.1426">Teacher</text><line style="stroke:#181818;stroke-width:0.5;" x1="38.5" x2="354.5" y1="879.8594" y2="879.8594"/><line style="stroke:#181818;stroke-width:0.5;" x1="38.5" x2="354.5" y1="887.8594" y2="887.8594"/><ellipse cx="48.5" cy="905" fill="#84BE84" rx="3" ry="3" style="stroke:#038048;stroke-width:1.0;"/><text fill="#000000" font-family="sans-serif" font-size="20" lengthAdjust="spacing" textLength="291" x="58.5" y="910.4238">courses() : Iterable&lt;Course&gt;</text></g><!--class Exam--><g id="elem_Exam"><rect codeLine="13" fill="#F1F1F1" height="72.5625" id="Exam" rx="2.5" ry="2.5" style="stroke:#181818;stroke-width:0.5;" width="94" x="602.5" y="834.7969"/><ellipse cx="618.5" cy="863.0781" fill="#ADD1B2" rx="12" ry="12" style="stroke:#181818;stroke-width:1.0;"/><path d="M621.5625,870.1563 Q620.875,870.5156 620.125,870.6875 Q619.375,870.8594 618.5469,870.8594 Q615.5938,870.8594 614.0313,868.9219 Q612.4844,866.9688 612.4844,863.2969 Q612.4844,859.625 614.0313,857.6875 Q615.5938,855.7344 618.5469,855.7344 Q619.375,855.7344 620.125,855.9063 Q620.8906,856.0781 621.5625,856.4375 L621.5625,859.6406 Q620.8125,858.9531 620.1094,858.6406 Q619.4219,858.3281 618.6719,858.3281 Q617.0938,858.3281 616.2813,859.5781 Q615.4844,860.8281 615.4844,863.2969 Q615.4844,865.7656 616.2813,867.0156 Q617.0938,868.2656 618.6719,868.2656 Q619.4219,868.2656 620.1094,867.9531 Q620.8125,867.6406 621.5625,866.9531 L621.5625,870.1563 Z " fill="#000000"/><text fill="#000000" font-family="sans-serif" font-size="20" font-style="italic" lengthAdjust="spacing" textLength="64" x="631.5" y="858.3613">«root»</text><text fill="#000000" font-family="sans-serif" font-size="20" lengthAdjust="spacing" textLength="56" x="635.5" y="881.6426">Exam</text><line style="stroke:#181818;stroke-width:0.5;" x1="603.5" x2="695.5" y1="891.3594" y2="891.3594"/><line style="stroke:#181818;stroke-width:0.5;" x1="603.5" x2="695.5" y1="899.3594" y2="899.3594"/></g><!--class Course--><g id="elem_Course"><rect codeLine="17" fill="#F1F1F1" height="72.5625" id="Course" rx="2.5" ry="2.5" style="stroke:#181818;stroke-width:0.5;" width="103" x="598" y="1001.2969"/><ellipse cx="614" cy="1029.5781" fill="#ADD1B2" rx="12" ry="12" style="stroke:#181818;stroke-width:1.0;"/><path d="M617.0625,1036.6563 Q616.375,1037.0156 615.625,1037.1875 Q614.875,1037.3594 614.0469,1037.3594 Q611.0938,1037.3594 609.5313,1035.4219 Q607.9844,1033.4688 607.9844,1029.7969 Q607.9844,1026.125 609.5313,1024.1875 Q611.0938,1022.2344 614.0469,1022.2344 Q614.875,1022.2344 615.625,1022.4063 Q616.3906,1022.5781 617.0625,1022.9375 L617.0625,1026.1406 Q616.3125,1025.4531 615.6094,1025.1406 Q614.9219,1024.8281 614.1719,1024.8281 Q612.5938,1024.8281 611.7813,1026.0781 Q610.9844,1027.3281 610.9844,1029.7969 Q610.9844,1032.2656 611.7813,1033.5156 Q612.5938,1034.7656 614.1719,1034.7656 Q614.9219,1034.7656 615.6094,1034.4531 Q616.3125,1034.1406 617.0625,1033.4531 L617.0625,1036.6563 Z " fill="#000000"/><text fill="#000000" font-family="sans-serif" font-size="20" font-style="italic" lengthAdjust="spacing" textLength="64" x="631.5" y="1024.8613">«root»</text><text fill="#000000" font-family="sans-serif" font-size="20" lengthAdjust="spacing" textLength="69" x="629" y="1048.1426">Course</text><line style="stroke:#181818;stroke-width:0.5;" x1="599" x2="700" y1="1057.8594" y2="1057.8594"/><line style="stroke:#181818;stroke-width:0.5;" x1="599" x2="700" y1="1065.8594" y2="1065.8594"/></g><!--class TeacherRepository--><g id="elem_TeacherRepository"><rect codeLine="21" fill="#F1F1F1" height="73.2813" id="TeacherRepository" rx="2.5" ry="2.5" style="stroke:#181818;stroke-width:0.5;" width="345" x="24" y="668.2969"/><ellipse cx="98.5" cy="685.2969" fill="#B4A7E5" rx="12" ry="12" style="stroke:#181818;stroke-width:1.0;"/><path d="M93.6875,680.75 L93.6875,678.2188 L102.3594,678.2188 L102.3594,680.75 L99.4688,680.75 L99.4688,690.25 L102.3594,690.25 L102.3594,692.7969 L93.6875,692.7969 L93.6875,690.25 L96.5781,690.25 L96.5781,680.75 L93.6875,680.75 Z " fill="#000000"/><text fill="#000000" font-family="sans-serif" font-size="20" font-style="italic" lengthAdjust="spacing" textLength="187" x="120.5" y="692.2207">TeacherRepository</text><line style="stroke:#181818;stroke-width:0.5;" x1="25" x2="368" y1="702.2969" y2="702.2969"/><line style="stroke:#181818;stroke-width:0.5;" x1="25" x2="368" y1="710.2969" y2="710.2969"/><ellipse cx="35" cy="727.4375" fill="#84BE84" rx="3" ry="3" style="stroke:#038048;stroke-width:1.0;"/><text fill="#000000" font-family="sans-serif" font-size="20" lengthAdjust="spacing" textLength="318" x="45" y="732.8613">findById() : Optional&lt;Teacher&gt;</text></g><!--class ExamRepository--><g id="elem_ExamRepository"><rect codeLine="25" fill="#F1F1F1" height="73.2813" id="ExamRepository" rx="2.5" ry="2.5" style="stroke:#181818;stroke-width:0.5;" width="362" x="404.5" y="668.2969"/><ellipse cx="499" cy="685.2969" fill="#B4A7E5" rx="12" ry="12" style="stroke:#181818;stroke-width:1.0;"/><path d="M494.1875,680.75 L494.1875,678.2188 L502.8594,678.2188 L502.8594,680.75 L499.9688,680.75 L499.9688,690.25 L502.8594,690.25 L502.8594,692.7969 L494.1875,692.7969 L494.1875,690.25 L497.0781,690.25 L497.0781,680.75 L494.1875,680.75 Z " fill="#000000"/><text fill="#000000" font-family="sans-serif" font-size="20" font-style="italic" lengthAdjust="spacing" textLength="164" x="521" y="692.2207">ExamRepository</text><line style="stroke:#181818;stroke-width:0.5;" x1="405.5" x2="765.5" y1="702.2969" y2="702.2969"/><line style="stroke:#181818;stroke-width:0.5;" x1="405.5" x2="765.5" y1="710.2969" y2="710.2969"/><ellipse cx="415.5" cy="727.4375" fill="#84BE84" rx="3" ry="3" style="stroke:#038048;stroke-width:1.0;"/><text fill="#000000" font-family="sans-serif" font-size="20" lengthAdjust="spacing" textLength="335" x="425.5" y="732.8613">findByCourse() : Iterable&lt;Exam&gt;</text></g><!--class PersistenceContext--><g id="elem_PersistenceContext"><rect codeLine="31" fill="#F1F1F1" height="73.2813" id="PersistenceContext" rx="2.5" ry="2.5" style="stroke:#181818;stroke-width:0.5;" width="343" x="198" y="356.2969"/><ellipse cx="269" cy="373.2969" fill="#ADD1B2" rx="12" ry="12" style="stroke:#181818;stroke-width:1.0;"/><path d="M272.0625,380.375 Q271.375,380.7344 270.625,380.9063 Q269.875,381.0781 269.0469,381.0781 Q266.0938,381.0781 264.5313,379.1406 Q262.9844,377.1875 262.9844,373.5156 Q262.9844,369.8438 264.5313,367.9063 Q266.0938,365.9531 269.0469,365.9531 Q269.875,365.9531 270.625,366.125 Q271.3906,366.2969 272.0625,366.6563 L272.0625,369.8594 Q271.3125,369.1719 270.6094,368.8594 Q269.9219,368.5469 269.1719,368.5469 Q267.5938,368.5469 266.7813,369.7969 Q265.9844,371.0469 265.9844,373.5156 Q265.9844,375.9844 266.7813,377.2344 Q267.5938,378.4844 269.1719,378.4844 Q269.9219,378.4844 270.6094,378.1719 Q271.3125,377.8594 272.0625,377.1719 L272.0625,380.375 Z " fill="#000000"/><text fill="#000000" font-family="sans-serif" font-size="20" lengthAdjust="spacing" textLength="192" x="291" y="380.2207">PersistenceContext</text><line style="stroke:#181818;stroke-width:0.5;" x1="199" x2="540" y1="390.2969" y2="390.2969"/><ellipse cx="209" cy="407.4375" fill="none" rx="3" ry="3" style="stroke:#038048;stroke-width:1.0;"/><text fill="#000000" font-family="sans-serif" font-size="20" lengthAdjust="spacing" textLength="316" x="219" y="412.8613">repositories : RepositoryFactory</text><line style="stroke:#181818;stroke-width:0.5;" x1="199" x2="540" y1="421.5781" y2="421.5781"/></g><!--class RepositoryFactory--><g id="elem_RepositoryFactory"><rect codeLine="35" fill="#F1F1F1" height="96.5625" id="RepositoryFactory" rx="2.5" ry="2.5" style="stroke:#181818;stroke-width:0.5;" width="334" x="204.5" y="489.2969"/><ellipse cx="276" cy="506.2969" fill="#B4A7E5" rx="12" ry="12" style="stroke:#181818;stroke-width:1.0;"/><path d="M271.1875,501.75 L271.1875,499.2188 L279.8594,499.2188 L279.8594,501.75 L276.9688,501.75 L276.9688,511.25 L279.8594,511.25 L279.8594,513.7969 L271.1875,513.7969 L271.1875,511.25 L274.0781,511.25 L274.0781,501.75 L271.1875,501.75 Z " fill="#000000"/><text fill="#000000" font-family="sans-serif" font-size="20" font-style="italic" lengthAdjust="spacing" textLength="182" x="298" y="513.2207">RepositoryFactory</text><line style="stroke:#181818;stroke-width:0.5;" x1="205.5" x2="537.5" y1="523.2969" y2="523.2969"/><line style="stroke:#181818;stroke-width:0.5;" x1="205.5" x2="537.5" y1="531.2969" y2="531.2969"/><ellipse cx="215.5" cy="548.4375" fill="#84BE84" rx="3" ry="3" style="stroke:#038048;stroke-width:1.0;"/><text fill="#000000" font-family="sans-serif" font-size="20" lengthAdjust="spacing" textLength="307" x="225.5" y="553.8613">teachers() : TeacherRepository</text><ellipse cx="215.5" cy="571.7188" fill="#84BE84" rx="3" ry="3" style="stroke:#038048;stroke-width:1.0;"/><text fill="#000000" font-family="sans-serif" font-size="20" lengthAdjust="spacing" textLength="262" x="225.5" y="577.1426">exams() : ExamRepository</text></g><!--class ListCourseExamsUI--><g id="elem_ListCourseExamsUI"><rect codeLine="41" fill="#F1F1F1" height="72.5625" id="ListCourseExamsUI" rx="2.5" ry="2.5" style="stroke:#181818;stroke-width:0.5;" width="225" x="707" y="44.2969"/><ellipse cx="723" cy="72.5781" fill="#ADD1B2" rx="12" ry="12" style="stroke:#181818;stroke-width:1.0;"/><path d="M726.0625,79.6563 Q725.375,80.0156 724.625,80.1875 Q723.875,80.3594 723.0469,80.3594 Q720.0938,80.3594 718.5313,78.4219 Q716.9844,76.4688 716.9844,72.7969 Q716.9844,69.125 718.5313,67.1875 Q720.0938,65.2344 723.0469,65.2344 Q723.875,65.2344 724.625,65.4063 Q725.3906,65.5781 726.0625,65.9375 L726.0625,69.1406 Q725.3125,68.4531 724.6094,68.1406 Q723.9219,67.8281 723.1719,67.8281 Q721.5938,67.8281 720.7813,69.0781 Q719.9844,70.3281 719.9844,72.7969 Q719.9844,75.2656 720.7813,76.5156 Q721.5938,77.7656 723.1719,77.7656 Q723.9219,77.7656 724.6094,77.4531 Q725.3125,77.1406 726.0625,76.4531 L726.0625,79.6563 Z " fill="#000000"/><text fill="#000000" font-family="sans-serif" font-size="20" font-style="italic" lengthAdjust="spacing" textLength="151" x="758" y="67.8613">«presentation»</text><text fill="#000000" font-family="sans-serif" font-size="20" lengthAdjust="spacing" textLength="191" x="738" y="91.1426">ListCourseExamsUI</text><line style="stroke:#181818;stroke-width:0.5;" x1="708" x2="931" y1="100.8594" y2="100.8594"/><line style="stroke:#181818;stroke-width:0.5;" x1="708" x2="931" y1="108.8594" y2="108.8594"/></g><!--class ListCourseExamsController--><g id="elem_ListCourseExamsController"><rect codeLine="43" fill="#F1F1F1" height="119.125" id="ListCourseExamsController" rx="2.5" ry="2.5" style="stroke:#181818;stroke-width:0.5;" width="394" x="345.5" y="177.2969"/><ellipse cx="403.5" cy="205.5781" fill="#ADD1B2" rx="12" ry="12" style="stroke:#181818;stroke-width:1.0;"/><path d="M406.5625,212.6563 Q405.875,213.0156 405.125,213.1875 Q404.375,213.3594 403.5469,213.3594 Q400.5938,213.3594 399.0313,211.4219 Q397.4844,209.4688 397.4844,205.7969 Q397.4844,202.125 399.0313,200.1875 Q400.5938,198.2344 403.5469,198.2344 Q404.375,198.2344 405.125,198.4063 Q405.8906,198.5781 406.5625,198.9375 L406.5625,202.1406 Q405.8125,201.4531 405.1094,201.1406 Q404.4219,200.8281 403.6719,200.8281 Q402.0938,200.8281 401.2813,202.0781 Q400.4844,203.3281 400.4844,205.7969 Q400.4844,208.2656 401.2813,209.5156 Q402.0938,210.7656 403.6719,210.7656 Q404.4219,210.7656 405.1094,210.4531 Q405.8125,210.1406 406.5625,209.4531 L406.5625,212.6563 Z " fill="#000000"/><text fill="#000000" font-family="sans-serif" font-size="20" font-style="italic" lengthAdjust="spacing" textLength="136" x="492" y="200.8613">«application»</text><text fill="#000000" font-family="sans-serif" font-size="20" lengthAdjust="spacing" textLength="269" x="425.5" y="224.1426">ListCourseExamsController</text><line style="stroke:#181818;stroke-width:0.5;" x1="346.5" x2="738.5" y1="233.8594" y2="233.8594"/><line style="stroke:#181818;stroke-width:0.5;" x1="346.5" x2="738.5" y1="241.8594" y2="241.8594"/><ellipse cx="356.5" cy="259" fill="#84BE84" rx="3" ry="3" style="stroke:#038048;stroke-width:1.0;"/><text fill="#000000" font-family="sans-serif" font-size="20" lengthAdjust="spacing" textLength="324" x="366.5" y="264.4238">listCourses() : Iterable&lt;Course&gt;</text><ellipse cx="356.5" cy="282.2813" fill="#84BE84" rx="3" ry="3" style="stroke:#038048;stroke-width:1.0;"/><text fill="#000000" font-family="sans-serif" font-size="20" lengthAdjust="spacing" textLength="367" x="366.5" y="287.7051">listCourseExams() : Iterable&lt;Exam&gt;</text></g><!--link ListCourseExamsUI to ListCourseExamsController--><g id="link_ListCourseExamsUI_ListCourseExamsController"><path codeLine="48" d="M723.25,117.3769 C723.25,117.3769 723.25,172.2569 723.25,172.2569 " fill="none" id="ListCourseExamsUI-to-ListCourseExamsController" style="stroke:#181818;stroke-width:1.0;stroke-dasharray:7.0,7.0;"/><polygon fill="#181818" points="723.25,177.2569,727.25,168.2569,723.25,172.2569,719.25,168.2569,723.25,177.2569" style="stroke:#181818;stroke-width:1.0;"/></g><!--link ListCourseExamsUI to Exam--><g id="link_ListCourseExamsUI_Exam"><path codeLine="49" d="M821.67,117.3369 C821.67,272.8069 821.67,871.2969 821.67,871.2969 C821.67,871.2969 701.55,871.2969 701.55,871.2969 " fill="none" id="ListCourseExamsUI-to-Exam" style="stroke:#181818;stroke-width:1.0;stroke-dasharray:7.0,7.0;"/><polygon fill="#181818" points="696.55,871.2969,705.55,875.2969,701.55,871.2969,705.55,867.2969,696.55,871.2969" style="stroke:#181818;stroke-width:1.0;"/></g><!--link ListCourseExamsUI to Course--><g id="link_ListCourseExamsUI_Course"><path codeLine="50" d="M876.83,117.4569 C876.83,292.8869 876.83,1038.2969 876.83,1038.2969 C876.83,1038.2969 706.09,1038.2969 706.09,1038.2969 " fill="none" id="ListCourseExamsUI-to-Course" style="stroke:#181818;stroke-width:1.0;stroke-dasharray:7.0,7.0;"/><polygon fill="#181818" points="701.09,1038.2969,710.09,1042.2969,706.09,1038.2969,710.09,1034.2969,701.09,1038.2969" style="stroke:#181818;stroke-width:1.0;"/></g><!--link ListCourseExamsController to PersistenceContext--><g id="link_ListCourseExamsController_PersistenceContext"><path codeLine="51" d="M443.25,296.6669 C443.25,296.6669 443.25,350.8769 443.25,350.8769 " fill="none" id="ListCourseExamsController-to-PersistenceContext" style="stroke:#181818;stroke-width:1.0;stroke-dasharray:7.0,7.0;"/><polygon fill="#181818" points="443.25,355.8769,447.25,346.8769,443.25,350.8769,439.25,346.8769,443.25,355.8769" style="stroke:#181818;stroke-width:1.0;"/></g><!--link ListCourseExamsController to RepositoryFactory--><g id="link_ListCourseExamsController_RepositoryFactory"><path codeLine="52" d="M607.17,296.3669 C607.17,384.2269 607.17,538.2969 607.17,538.2969 C607.17,538.2969 543.69,538.2969 543.69,538.2969 " fill="none" id="ListCourseExamsController-to-RepositoryFactory" style="stroke:#181818;stroke-width:1.0;stroke-dasharray:7.0,7.0;"/><polygon fill="#181818" points="538.69,538.2969,547.69,542.2969,543.69,538.2969,547.69,534.2969,538.69,538.2969" style="stroke:#181818;stroke-width:1.0;"/></g><!--link ListCourseExamsController to TeacherRepository--><g id="link_ListCourseExamsController_TeacherRepository"><path codeLine="53" d="M345.38,257.2969 C231.66,257.2969 111,257.2969 111,257.2969 C111,257.2969 111,663.1769 111,663.1769 " fill="none" id="ListCourseExamsController-to-TeacherRepository" style="stroke:#181818;stroke-width:1.0;stroke-dasharray:7.0,7.0;"/><polygon fill="#181818" points="111,668.1769,115,659.1769,111,663.1769,107,659.1769,111,668.1769" style="stroke:#181818;stroke-width:1.0;"/></g><!--link ListCourseExamsController to ExamRepository--><g id="link_ListCourseExamsController_ExamRepository"><path codeLine="54" d="M673.33,296.5469 C673.33,296.5469 673.33,663.2869 673.33,663.2869 " fill="none" id="ListCourseExamsController-to-ExamRepository" style="stroke:#181818;stroke-width:1.0;stroke-dasharray:7.0,7.0;"/><polygon fill="#181818" points="673.33,668.2869,677.33,659.2869,673.33,663.2869,669.33,659.2869,673.33,668.2869" style="stroke:#181818;stroke-width:1.0;"/></g><!--link ListCourseExamsController to Teacher--><g id="link_ListCourseExamsController_Teacher"><path codeLine="55" d="M345.39,217.2969 C192.35,217.2969 6,217.2969 6,217.2969 C6,217.2969 6,871.2969 6,871.2969 C6,871.2969 32.46,871.2969 32.46,871.2969 " fill="none" id="ListCourseExamsController-to-Teacher" style="stroke:#181818;stroke-width:1.0;stroke-dasharray:7.0,7.0;"/><polygon fill="#181818" points="37.46,871.2969,28.46,867.2969,32.46,871.2969,28.46,875.2969,37.46,871.2969" style="stroke:#181818;stroke-width:1.0;"/></g><!--link Teacher to Course--><g id="link_Teacher_Course"><path codeLine="56" d="M355.62,914.2969 C480.67,914.2969 633.83,914.2969 633.83,914.2969 C633.83,914.2969 633.83,996.0769 633.83,996.0769 " fill="none" id="Teacher-to-Course" style="stroke:#181818;stroke-width:1.0;"/><polygon fill="#181818" points="633.83,1001.0769,637.83,992.0769,633.83,996.0769,629.83,992.0769,633.83,1001.0769" style="stroke:#181818;stroke-width:1.0;"/></g><!--link Exam to Course--><g id="link_Exam_Course"><path codeLine="57" d="M665.17,907.8369 C665.17,907.8369 665.17,996.0569 665.17,996.0569 " fill="none" id="Exam-to-Course" style="stroke:#181818;stroke-width:1.0;"/><polygon fill="#181818" points="665.17,1001.0569,669.17,992.0569,665.17,996.0569,661.17,992.0569,665.17,1001.0569" style="stroke:#181818;stroke-width:1.0;"/></g><!--link PersistenceContext to RepositoryFactory--><g id="link_PersistenceContext_RepositoryFactory"><path codeLine="58" d="M371.5,429.3869 C371.5,429.3869 371.5,484.1569 371.5,484.1569 " fill="none" id="PersistenceContext-to-RepositoryFactory" style="stroke:#181818;stroke-width:1.0;"/><polygon fill="#181818" points="371.5,489.1569,375.5,480.1569,371.5,484.1569,367.5,480.1569,371.5,489.1569" style="stroke:#181818;stroke-width:1.0;"/></g><!--link RepositoryFactory to TeacherRepository--><g id="link_RepositoryFactory_TeacherRepository"><path codeLine="59" d="M286.75,586.5469 C286.75,586.5469 286.75,663.2069 286.75,663.2069 " fill="none" id="RepositoryFactory-to-TeacherRepository" style="stroke:#181818;stroke-width:1.0;"/><polygon fill="#181818" points="286.75,668.2069,290.75,659.2069,286.75,663.2069,282.75,659.2069,286.75,668.2069" style="stroke:#181818;stroke-width:1.0;"/></g><!--link RepositoryFactory to ExamRepository--><g id="link_RepositoryFactory_ExamRepository"><path codeLine="60" d="M471.5,586.5469 C471.5,586.5469 471.5,663.2069 471.5,663.2069 " fill="none" id="RepositoryFactory-to-ExamRepository" style="stroke:#181818;stroke-width:1.0;"/><polygon fill="#181818" points="471.5,668.2069,475.5,659.2069,471.5,663.2069,467.5,659.2069,471.5,668.2069" style="stroke:#181818;stroke-width:1.0;"/></g><!--link TeacherRepository to Teacher--><g id="link_TeacherRepository_Teacher"><path codeLine="61" d="M196.5,741.3369 C196.5,741.3369 196.5,818.1469 196.5,818.1469 " fill="none" id="TeacherRepository-to-Teacher" style="stroke:#181818;stroke-width:1.0;"/><polygon fill="#181818" points="196.5,823.1469,200.5,814.1469,196.5,818.1469,192.5,814.1469,196.5,823.1469" style="stroke:#181818;stroke-width:1.0;"/></g><!--link ExamRepository to Exam--><g id="link_ExamRepository_Exam"><path codeLine="62" d="M649.5,741.3369 C649.5,741.3369 649.5,829.5569 649.5,829.5569 " fill="none" id="ExamRepository-to-Exam" style="stroke:#181818;stroke-width:1.0;"/><polygon fill="#181818" points="649.5,834.5569,653.5,825.5569,649.5,829.5569,645.5,825.5569,649.5,834.5569" style="stroke:#181818;stroke-width:1.0;"/></g><!--SRC=[ZLFBRjim4BppA_QM5e7beaV3yA510XWeqAAF3zXGwvWmHHBa2eXRvDyhYf8iYR9J7KnxERkQcHs7ap8EFLRQoXELKD81QyrFrl1FzOVWyoTnTsHsORDUEus6wqeNqbPhgJ64LQdmfMaMh5WJV5M1uHUXF9A_2_1WQny87b-n2eAj0xRmR9bj1QNo95bP8q9F0BGon6T7O3qVhH0EvGbVg1y8VmKqJ_lUeRRTUcjvj-ikutCFidrl-F0HDh1dylYiQPl8x5hOctYxZ8_q9hFRGZzuZEpqZB5TQGdjoTcWs7f5eUjHfc5pG3be-j5ZpcF-1sNAB-TzsGhuvg9DgBTTIwzWDZ2IlZKj4PrQ4diM357cu942-rfoxQbmv4EpM39ogltxfVxGn8LUkRk-dshVm8NO4yfuB6l8O9EjSjAVrfhvDm9Ip5kBcffoKPhunxGcMzg4_jutQtIU0Xd6w7cppcLaLEkjrct-q3cjPDSm6A27ZXin7CCU1zApzJHqSw95iRjEwWe-VY_YnvNxL2dI8QvBZjXyzUyqv0cuZS_tUni_s_H_3I-wKyn-mserTsFmRk5kuMyGGRdYFDuHbojTniqKPctZOOEoQTCm9yNW7m00]--></g></svg>