<?xml version="1.0" encoding="UTF-8" standalone="no"?><svg xmlns="http://www.w3.org/2000/svg" xmlns:xlink="http://www.w3.org/1999/xlink" contentStyleType="text/css" height="1372px" preserveAspectRatio="none" style="width:1645px;height:1372px;background:#FFFFFF;" version="1.1" viewBox="0 0 1645 1372" width="1645px" zoomAndPan="magnify"><defs/><g><text fill="#000000" font-family="sans-serif" font-size="14" font-weight="bold" lengthAdjust="spacing" textLength="341" x="645.165" y="32.9951">Domain Model Extract of List Course Exams</text><!--cluster Teacher--><g id="cluster_Teacher"><path d="M80.83,63.2969 L193.83,63.2969 A3.75,3.75 0 0 1 196.33,65.7969 L203.33,112.5781 L275.83,112.5781 A2.5,2.5 0 0 1 278.33,115.0781 L278.33,513.2969 A2.5,2.5 0 0 1 275.83,515.7969 L80.83,515.7969 A2.5,2.5 0 0 1 78.33,513.2969 L78.33,65.7969 A2.5,2.5 0 0 1 80.83,63.2969 " fill="#D3D3D3" style="stroke:#000000;stroke-width:1.5;"/><line style="stroke:#000000;stroke-width:1.5;" x1="78.33" x2="203.33" y1="112.5781" y2="112.5781"/><text fill="#000000" font-family="sans-serif" font-size="20" font-weight="bold" lengthAdjust="spacing" textLength="92" x="92.33" y="93.8613">Teacher</text></g><!--cluster Exam--><g id="cluster_Exam"><path d="M304.83,268.2969 L387.83,268.2969 A3.75,3.75 0 0 1 390.33,270.7969 L397.33,317.5781 L977.83,317.5781 A2.5,2.5 0 0 1 980.33,320.0781 L980.33,1339.7969 A2.5,2.5 0 0 1 977.83,1342.2969 L304.83,1342.2969 A2.5,2.5 0 0 1 302.33,1339.7969 L302.33,270.7969 A2.5,2.5 0 0 1 304.83,268.2969 " fill="#D3D3D3" style="stroke:#000000;stroke-width:1.5;"/><line style="stroke:#000000;stroke-width:1.5;" x1="302.33" x2="397.33" y1="317.5781" y2="317.5781"/><text fill="#000000" font-family="sans-serif" font-size="20" font-weight="bold" lengthAdjust="spacing" textLength="62" x="316.33" y="298.8613">Exam</text></g><!--cluster Course--><g id="cluster_Course"><path d="M1006.83,602.2969 L1106.83,602.2969 A3.75,3.75 0 0 1 1109.33,604.7969 L1116.33,651.5781 L1635.83,651.5781 A2.5,2.5 0 0 1 1638.33,654.0781 L1638.33,1362.7969 A2.5,2.5 0 0 1 1635.83,1365.2969 L1006.83,1365.2969 A2.5,2.5 0 0 1 1004.33,1362.7969 L1004.33,604.7969 A2.5,2.5 0 0 1 1006.83,602.2969 " fill="#D3D3D3" style="stroke:#000000;stroke-width:1.5;"/><line style="stroke:#000000;stroke-width:1.5;" x1="1004.33" x2="1116.33" y1="651.5781" y2="651.5781"/><text fill="#000000" font-family="sans-serif" font-size="20" font-weight="bold" lengthAdjust="spacing" textLength="79" x="1018.33" y="632.8613">Course</text></g><!--class Teacher--><g id="elem_Teacher"><rect codeLine="20" fill="#F1F1F1" height="104.5625" id="Teacher" rx="2.5" ry="2.5" style="stroke:#181818;stroke-width:0.5;" width="106" x="156.33" y="125.2969"/><text fill="#000000" font-family="sans-serif" font-size="20" font-style="italic" lengthAdjust="spacing" textLength="64" x="177.33" y="158.8613">«root»</text><text fill="#000000" font-family="sans-serif" font-size="20" lengthAdjust="spacing" textLength="80" x="169.33" y="202.1426">Teacher</text><line style="stroke:#181818;stroke-width:0.5;" x1="157.33" x2="261.33" y1="221.8594" y2="221.8594"/></g><!--class Acronym--><g id="elem_Acronym"><rect codeLine="23" fill="#F1F1F1" height="104.5625" id="Acronym" rx="2.5" ry="2.5" style="stroke:#181818;stroke-width:0.5;" width="169" x="93.83" y="394.7969"/><text fill="#000000" font-family="sans-serif" font-size="20" font-style="italic" lengthAdjust="spacing" textLength="147" x="104.83" y="428.3613">«value object»</text><text fill="#000000" font-family="sans-serif" font-size="20" lengthAdjust="spacing" textLength="89" x="133.83" y="471.6426">Acronym</text><line style="stroke:#181818;stroke-width:0.5;" x1="94.83" x2="261.83" y1="491.3594" y2="491.3594"/></g><!--class Exam--><g id="elem_Exam"><rect codeLine="27" fill="#F1F1F1" height="234.4063" id="Exam" rx="2.5" ry="2.5" style="stroke:#181818;stroke-width:0.5;" width="159" x="342.83" y="330.2969"/><text fill="#000000" font-family="sans-serif" font-size="20" font-style="italic" lengthAdjust="spacing" textLength="64" x="390.33" y="363.8613">«root»</text><text fill="#000000" font-family="sans-serif" font-size="20" lengthAdjust="spacing" textLength="56" x="394.33" y="407.1426">Exam</text><line style="stroke:#181818;stroke-width:0.5;" x1="343.83" x2="500.83" y1="426.8594" y2="426.8594"/><rect fill="none" height="6" style="stroke:#C82930;stroke-width:1.0;" width="6" x="350.83" y="451"/><text fill="#000000" font-family="sans-serif" font-size="20" lengthAdjust="spacing" textLength="112" x="373.83" y="459.4238">description</text><rect fill="none" height="6" style="stroke:#C82930;stroke-width:1.0;" width="6" x="350.83" y="494.2813"/><text fill="#000000" font-family="sans-serif" font-size="20" lengthAdjust="spacing" textLength="97" x="373.83" y="502.7051">openDate</text><rect fill="none" height="6" style="stroke:#C82930;stroke-width:1.0;" width="6" x="350.83" y="537.5625"/><text fill="#000000" font-family="sans-serif" font-size="20" lengthAdjust="spacing" textLength="98" x="373.83" y="545.9863">closeDate</text></g><!--class ExamHeader--><g id="elem_ExamHeader"><rect codeLine="33" fill="#F1F1F1" height="147.8438" id="ExamHeader" rx="2.5" ry="2.5" style="stroke:#181818;stroke-width:0.5;" width="159" x="317.83" y="707.2969"/><text fill="#000000" font-family="sans-serif" font-size="20" font-style="italic" lengthAdjust="spacing" textLength="83" x="355.83" y="740.8613">«entity»</text><text fill="#000000" font-family="sans-serif" font-size="20" lengthAdjust="spacing" textLength="128" x="333.33" y="784.1426">ExamHeader</text><line style="stroke:#181818;stroke-width:0.5;" x1="318.83" x2="475.83" y1="803.8594" y2="803.8594"/><rect fill="none" height="6" style="stroke:#C82930;stroke-width:1.0;" width="6" x="325.83" y="828"/><text fill="#000000" font-family="sans-serif" font-size="20" lengthAdjust="spacing" textLength="112" x="348.83" y="836.4238">description</text></g><!--class GradeType--><g id="elem_GradeType"><rect codeLine="37" fill="#F1F1F1" height="104.5625" id="GradeType" rx="2.5" ry="2.5" style="stroke:#181818;stroke-width:0.5;" width="135" x="337.83" y="998.2969"/><text fill="#000000" font-family="sans-serif" font-size="20" font-style="italic" lengthAdjust="spacing" textLength="82" x="364.33" y="1031.8613">«enum»</text><text fill="#000000" font-family="sans-serif" font-size="20" lengthAdjust="spacing" textLength="109" x="350.83" y="1075.1426">GradeType</text><line style="stroke:#181818;stroke-width:0.5;" x1="338.83" x2="471.83" y1="1094.8594" y2="1094.8594"/></g><g id="elem_GMN9"><path d="M318.83,1226.2969 L318.83,1326.1406 A0,0 0 0 0 318.83,1326.1406 L507.83,1326.1406 A0,0 0 0 0 507.83,1326.1406 L507.83,1236.2969 L497.83,1226.2969 L409.33,1226.2969 L405.33,1103.3869 L401.33,1226.2969 L318.83,1226.2969 A0,0 0 0 0 318.83,1226.2969 " fill="#A9A9A9" style="stroke:#181818;stroke-width:0.5;"/><path d="M497.83,1226.2969 L497.83,1236.2969 L507.83,1236.2969 L497.83,1226.2969 " fill="#A9A9A9" style="stroke:#181818;stroke-width:0.5;"/><text fill="#000000" font-family="sans-serif" font-size="20" lengthAdjust="spacing" textLength="50" x="334.83" y="1259.8613">none</text><text fill="#000000" font-family="sans-serif" font-size="20" lengthAdjust="spacing" textLength="148" x="334.83" y="1283.1426">on_submission</text><text fill="#000000" font-family="sans-serif" font-size="20" lengthAdjust="spacing" textLength="128" x="334.83" y="1306.4238">after_closing</text></g><!--class FeedbackType--><g id="elem_FeedbackType"><rect codeLine="45" fill="#F1F1F1" height="104.5625" id="FeedbackType" rx="2.5" ry="2.5" style="stroke:#181818;stroke-width:0.5;" width="171" x="578.83" y="998.2969"/><text fill="#000000" font-family="sans-serif" font-size="20" font-style="italic" lengthAdjust="spacing" textLength="82" x="623.33" y="1031.8613">«enum»</text><text fill="#000000" font-family="sans-serif" font-size="20" lengthAdjust="spacing" textLength="145" x="591.83" y="1075.1426">FeedbackType</text><line style="stroke:#181818;stroke-width:0.5;" x1="579.83" x2="748.83" y1="1094.8594" y2="1094.8594"/></g><g id="elem_GMN13"><path d="M587.83,1226.2969 L587.83,1326.1406 A0,0 0 0 0 587.83,1326.1406 L776.83,1326.1406 A0,0 0 0 0 776.83,1326.1406 L776.83,1236.2969 L766.83,1226.2969 L672.83,1226.2969 L668.83,1103.3869 L664.83,1226.2969 L587.83,1226.2969 A0,0 0 0 0 587.83,1226.2969 " fill="#A9A9A9" style="stroke:#181818;stroke-width:0.5;"/><path d="M766.83,1226.2969 L766.83,1236.2969 L776.83,1236.2969 L766.83,1226.2969 " fill="#A9A9A9" style="stroke:#181818;stroke-width:0.5;"/><text fill="#000000" font-family="sans-serif" font-size="20" lengthAdjust="spacing" textLength="50" x="603.83" y="1259.8613">none</text><text fill="#000000" font-family="sans-serif" font-size="20" lengthAdjust="spacing" textLength="148" x="603.83" y="1283.1426">on_submission</text><text fill="#000000" font-family="sans-serif" font-size="20" lengthAdjust="spacing" textLength="128" x="603.83" y="1306.4238">after_closing</text></g><!--class Title--><g id="elem_Title"><rect codeLine="53" fill="#F1F1F1" height="104.5625" id="Title" rx="2.5" ry="2.5" style="stroke:#181818;stroke-width:0.5;" width="169" x="556.83" y="728.7969"/><text fill="#000000" font-family="sans-serif" font-size="20" font-style="italic" lengthAdjust="spacing" textLength="147" x="567.83" y="762.3613">«value object»</text><text fill="#000000" font-family="sans-serif" font-size="20" lengthAdjust="spacing" textLength="44" x="619.33" y="805.6426">Title</text><line style="stroke:#181818;stroke-width:0.5;" x1="557.83" x2="724.83" y1="825.3594" y2="825.3594"/></g><!--class Section--><g id="elem_Section"><rect codeLine="55" fill="#F1F1F1" height="147.8438" id="Section" rx="2.5" ry="2.5" style="stroke:#181818;stroke-width:0.5;" width="159" x="805.83" y="707.2969"/><text fill="#000000" font-family="sans-serif" font-size="20" font-style="italic" lengthAdjust="spacing" textLength="83" x="843.83" y="740.8613">«entity»</text><text fill="#000000" font-family="sans-serif" font-size="20" lengthAdjust="spacing" textLength="75" x="847.83" y="784.1426">Section</text><line style="stroke:#181818;stroke-width:0.5;" x1="806.83" x2="963.83" y1="803.8594" y2="803.8594"/><rect fill="none" height="6" style="stroke:#C82930;stroke-width:1.0;" width="6" x="813.83" y="828"/><text fill="#000000" font-family="sans-serif" font-size="20" lengthAdjust="spacing" textLength="112" x="836.83" y="836.4238">description</text></g><!--class Course--><g id="elem_Course"><rect codeLine="61" fill="#F1F1F1" height="234.4063" id="Course" rx="2.5" ry="2.5" style="stroke:#181818;stroke-width:0.5;" width="263" x="1044.83" y="664.2969"/><text fill="#000000" font-family="sans-serif" font-size="20" font-style="italic" lengthAdjust="spacing" textLength="64" x="1144.33" y="697.8613">«root»</text><text fill="#000000" font-family="sans-serif" font-size="20" lengthAdjust="spacing" textLength="69" x="1141.83" y="741.1426">Course</text><line style="stroke:#181818;stroke-width:0.5;" x1="1045.83" x2="1306.83" y1="760.8594" y2="760.8594"/><rect fill="none" height="6" style="stroke:#C82930;stroke-width:1.0;" width="6" x="1052.83" y="785"/><text fill="#000000" font-family="sans-serif" font-size="20" lengthAdjust="spacing" textLength="87" x="1075.83" y="793.4238">courseID</text><rect fill="none" height="6" style="stroke:#C82930;stroke-width:1.0;" width="6" x="1052.83" y="828.2813"/><text fill="#000000" font-family="sans-serif" font-size="20" lengthAdjust="spacing" textLength="212" x="1075.83" y="836.7051">minEnrolledStudents</text><rect fill="none" height="6" style="stroke:#C82930;stroke-width:1.0;" width="6" x="1052.83" y="871.5625"/><text fill="#000000" font-family="sans-serif" font-size="20" lengthAdjust="spacing" textLength="216" x="1075.83" y="879.9863">maxEnrolledStudents</text></g><!--class State--><g id="elem_State"><rect codeLine="67" fill="#F1F1F1" height="104.5625" id="State" rx="2.5" ry="2.5" style="stroke:#181818;stroke-width:0.5;" width="104" x="1020.33" y="998.2969"/><text fill="#000000" font-family="sans-serif" font-size="20" font-style="italic" lengthAdjust="spacing" textLength="82" x="1031.33" y="1031.8613">«enum»</text><text fill="#000000" font-family="sans-serif" font-size="20" lengthAdjust="spacing" textLength="53" x="1045.83" y="1075.1426">State</text><line style="stroke:#181818;stroke-width:0.5;" x1="1021.33" x2="1123.33" y1="1094.8594" y2="1094.8594"/></g><g id="elem_GMN21"><path d="M1020.33,1203.2969 L1020.33,1349.7031 A0,0 0 0 0 1020.33,1349.7031 L1176.33,1349.7031 A0,0 0 0 0 1176.33,1349.7031 L1176.33,1213.2969 L1166.33,1203.2969 L1076.33,1203.2969 L1072.33,1103.3869 L1068.33,1203.2969 L1020.33,1203.2969 A0,0 0 0 0 1020.33,1203.2969 " fill="#A9A9A9" style="stroke:#181818;stroke-width:0.5;"/><path d="M1166.33,1203.2969 L1166.33,1213.2969 L1176.33,1213.2969 L1166.33,1203.2969 " fill="#A9A9A9" style="stroke:#181818;stroke-width:0.5;"/><text fill="#000000" font-family="sans-serif" font-size="20" lengthAdjust="spacing" textLength="50" x="1036.33" y="1236.8613">open</text><text fill="#000000" font-family="sans-serif" font-size="20" lengthAdjust="spacing" textLength="51" x="1036.33" y="1260.1426">close</text><text fill="#000000" font-family="sans-serif" font-size="20" lengthAdjust="spacing" textLength="57" x="1036.33" y="1283.4238">enroll</text><text fill="#000000" font-family="sans-serif" font-size="20" lengthAdjust="spacing" textLength="115" x="1036.33" y="1306.7051">in_progress</text><text fill="#000000" font-family="sans-serif" font-size="20" lengthAdjust="spacing" textLength="64" x="1036.33" y="1329.9863">closed</text></g><!--class title--><g id="elem_title"><rect codeLine="77" fill="#F1F1F1" height="104.5625" id="title" rx="2.5" ry="2.5" style="stroke:#181818;stroke-width:0.5;" width="169" x="1204.83" y="998.2969"/><text fill="#000000" font-family="sans-serif" font-size="20" font-style="italic" lengthAdjust="spacing" textLength="147" x="1215.83" y="1031.8613">«value object»</text><text fill="#000000" font-family="sans-serif" font-size="20" lengthAdjust="spacing" textLength="40" x="1269.33" y="1075.1426">title</text><line style="stroke:#181818;stroke-width:0.5;" x1="1205.83" x2="1372.83" y1="1094.8594" y2="1094.8594"/></g><!--class description--><g id="elem_description"><rect codeLine="78" fill="#F1F1F1" height="104.5625" id="description" rx="2.5" ry="2.5" style="stroke:#181818;stroke-width:0.5;" width="169" x="1453.83" y="998.2969"/><text fill="#000000" font-family="sans-serif" font-size="20" font-style="italic" lengthAdjust="spacing" textLength="147" x="1464.83" y="1031.8613">«value object»</text><text fill="#000000" font-family="sans-serif" font-size="20" lengthAdjust="spacing" textLength="112" x="1482.33" y="1075.1426">description</text><line style="stroke:#181818;stroke-width:0.5;" x1="1454.83" x2="1621.83" y1="1094.8594" y2="1094.8594"/></g><!--link Exam to ExamHeader--><g id="link_Exam_ExamHeader"><path codeLine="81" d="M409.83,564.5869 C409.83,564.5869 409.83,702.0469 409.83,702.0469 " fill="none" id="Exam-to-ExamHeader" style="stroke:#181818;stroke-width:1.0;"/><polygon fill="#181818" points="409.83,707.0469,413.83,698.0469,409.83,702.0469,405.83,698.0469,409.83,707.0469" style="stroke:#181818;stroke-width:1.0;"/><text fill="#000000" font-family="sans-serif" font-size="20" lengthAdjust="spacing" textLength="35" x="363.83" y="617.8813">has</text></g><!--link Exam to Title--><g id="link_Exam_Title"><path codeLine="82" d="M483.08,564.5869 C483.08,660.8269 483.08,781.2969 483.08,781.2969 C483.08,781.2969 551.65,781.2969 551.65,781.2969 " fill="none" id="Exam-to-Title" style="stroke:#181818;stroke-width:1.0;"/><polygon fill="#181818" points="556.65,781.2969,547.65,777.2969,551.65,781.2969,547.65,785.2969,556.65,781.2969" style="stroke:#181818;stroke-width:1.0;"/><text fill="#000000" font-family="sans-serif" font-size="20" lengthAdjust="spacing" textLength="35" x="437.08" y="691.7913">has</text></g><!--link Exam to Section--><g id="link_Exam_Section"><path codeLine="83" d="M489.33,564.5869 C489.33,637.8269 489.33,718.2969 489.33,718.2969 C489.33,718.2969 800.67,718.2969 800.67,718.2969 " fill="none" id="Exam-to-Section" style="stroke:#181818;stroke-width:1.0;"/><polygon fill="#181818" points="805.67,718.2969,796.67,714.2969,800.67,718.2969,796.67,722.2969,805.67,718.2969" style="stroke:#181818;stroke-width:1.0;"/><text fill="#000000" font-family="sans-serif" font-size="20" lengthAdjust="spacing" textLength="35" x="522.15" y="702.8613">has</text><text fill="#000000" font-family="sans-serif" font-size="20" lengthAdjust="spacing" textLength="10" x="777.831" y="696.8818">*</text></g><!--link Exam to Course--><g id="link_Exam_Course"><path codeLine="84" d="M495.58,564.3469 C495.58,624.9069 495.58,686.2969 495.58,686.2969 C495.58,686.2969 1039.67,686.2969 1039.67,686.2969 " fill="none" id="Exam-to-Course" style="stroke:#181818;stroke-width:1.0;"/><polygon fill="#181818" points="1044.67,686.2969,1035.67,682.2969,1039.67,686.2969,1035.67,690.2969,1044.67,686.2969" style="stroke:#181818;stroke-width:1.0;"/><text fill="#000000" font-family="sans-serif" font-size="20" lengthAdjust="spacing" textLength="41" x="654.65" y="670.8613">is of</text></g><!--link ExamHeader to FeedbackType--><g id="link_ExamHeader_FeedbackType"><path codeLine="85" d="M476.97,845.2969 C551.79,845.2969 652.33,845.2969 652.33,845.2969 C652.33,845.2969 652.33,993.1469 652.33,993.1469 " fill="none" id="ExamHeader-to-FeedbackType" style="stroke:#181818;stroke-width:1.0;"/><polygon fill="#181818" points="652.33,998.1469,656.33,989.1469,652.33,993.1469,648.33,989.1469,652.33,998.1469" style="stroke:#181818;stroke-width:1.0;"/><text fill="#000000" font-family="sans-serif" font-size="20" lengthAdjust="spacing" textLength="35" x="592.57" y="874.8613">has</text></g><!--link ExamHeader to GradeType--><g id="link_ExamHeader_GradeType"><path codeLine="86" d="M405.33,855.6569 C405.33,855.6569 405.33,993.0369 405.33,993.0369 " fill="none" id="ExamHeader-to-GradeType" style="stroke:#181818;stroke-width:1.0;"/><polygon fill="#181818" points="405.33,998.0369,409.33,989.0369,405.33,993.0369,401.33,989.0369,405.33,998.0369" style="stroke:#181818;stroke-width:1.0;"/><text fill="#000000" font-family="sans-serif" font-size="20" lengthAdjust="spacing" textLength="35" x="359.33" y="908.9113">has</text></g><!--link Course to description--><g id="link_Course_description"><path codeLine="88" d="M1308.05,781.2969 C1411.55,781.2969 1538.33,781.2969 1538.33,781.2969 C1538.33,781.2969 1538.33,993.1969 1538.33,993.1969 " fill="none" id="Course-to-description" style="stroke:#181818;stroke-width:1.0;"/><polygon fill="#181818" points="1538.33,998.1969,1542.33,989.1969,1538.33,993.1969,1534.33,989.1969,1538.33,998.1969" style="stroke:#181818;stroke-width:1.0;"/><text fill="#000000" font-family="sans-serif" font-size="20" lengthAdjust="spacing" textLength="35" x="1483.14" y="765.8613">has</text></g><!--link Course to title--><g id="link_Course_title"><path codeLine="89" d="M1256.33,898.3269 C1256.33,898.3269 1256.33,993.0469 1256.33,993.0469 " fill="none" id="Course-to-title" style="stroke:#181818;stroke-width:1.0;"/><polygon fill="#181818" points="1256.33,998.0469,1260.33,989.0469,1256.33,993.0469,1252.33,989.0469,1256.33,998.0469" style="stroke:#181818;stroke-width:1.0;"/><text fill="#000000" font-family="sans-serif" font-size="20" lengthAdjust="spacing" textLength="35" x="1210.33" y="930.2513">has</text></g><!--link Course to State--><g id="link_Course_State"><path codeLine="90" d="M1084.58,898.3269 C1084.58,898.3269 1084.58,993.0469 1084.58,993.0469 " fill="none" id="Course-to-State" style="stroke:#181818;stroke-width:1.0;"/><polygon fill="#181818" points="1084.58,998.0469,1088.58,989.0469,1084.58,993.0469,1080.58,989.0469,1084.58,998.0469" style="stroke:#181818;stroke-width:1.0;"/><text fill="#000000" font-family="sans-serif" font-size="20" lengthAdjust="spacing" textLength="35" x="1038.58" y="930.2513">has</text></g><!--link Teacher to Acronym--><g id="link_Teacher_Acronym"><path codeLine="92" d="M174,230.3969 C174,230.3969 174,389.3669 174,389.3669 " fill="none" id="Teacher-to-Acronym" style="stroke:#181818;stroke-width:1.0;"/><polygon fill="#181818" points="174,394.3669,178,385.3669,174,389.3669,170,385.3669,174,394.3669" style="stroke:#181818;stroke-width:1.0;"/><text fill="#000000" font-family="sans-serif" font-size="20" lengthAdjust="spacing" textLength="35" x="128" y="294.4513">has</text></g><!--link Teacher to Course--><g id="link_Teacher_Course"><path codeLine="94" d="M262.36,178.2969 C464.61,178.2969 1176.33,178.2969 1176.33,178.2969 C1176.33,178.2969 1176.33,658.9569 1176.33,658.9569 " fill="none" id="Teacher-to-Course" style="stroke:#181818;stroke-width:1.0;"/><polygon fill="#181818" points="1176.33,663.9569,1180.33,654.9569,1176.33,658.9569,1172.33,654.9569,1176.33,663.9569" style="stroke:#181818;stroke-width:1.0;"/><text fill="#000000" font-family="sans-serif" font-size="20" lengthAdjust="spacing" textLength="103" x="845.68" y="162.8613">teaches in</text><text fill="#000000" font-family="sans-serif" font-size="20" lengthAdjust="spacing" textLength="15" x="280.515" y="161.4748">N</text><text fill="#000000" font-family="sans-serif" font-size="20" lengthAdjust="spacing" textLength="15" x="1150.3183" y="641.491">N</text></g><!--link Teacher to Exam--><g id="link_Teacher_Exam"><path codeLine="96" d="M244.67,230.6169 C244.67,279.0469 244.67,343.2969 244.67,343.2969 C244.67,343.2969 337.59,343.2969 337.59,343.2969 " fill="none" id="Teacher-to-Exam" style="stroke:#181818;stroke-width:1.0;stroke-dasharray:7.0,7.0;"/><polygon fill="#181818" points="342.59,343.2969,333.59,339.2969,337.59,343.2969,333.59,347.2969,342.59,343.2969" style="stroke:#181818;stroke-width:1.0;"/><text fill="#000000" font-family="sans-serif" font-size="20" lengthAdjust="spacing" textLength="73" x="255.67" y="317.9813">creates</text></g><!--link Teacher to Exam--><g id="link_Teacher_Exam"><path codeLine="97" d="M227,230.3869 C227,283.0369 227,356.2969 227,356.2969 C227,356.2969 337.6,356.2969 337.6,356.2969 " fill="none" id="Teacher-to-Exam-1" style="stroke:#181818;stroke-width:1.0;stroke-dasharray:7.0,7.0;"/><polygon fill="#181818" points="342.6,356.2969,333.6,352.2969,337.6,356.2969,333.6,360.2969,342.6,356.2969" style="stroke:#181818;stroke-width:1.0;"/><text fill="#000000" font-family="sans-serif" font-size="20" lengthAdjust="spacing" textLength="199" x="17" y="378.2113">views course exams</text></g><!--link Teacher to Exam--><g id="link_Teacher_Exam"><path codeLine="98" d="M209.33,230.3769 C209.33,287.0669 209.33,369.2969 209.33,369.2969 C209.33,369.2969 337.72,369.2969 337.72,369.2969 " fill="none" id="Teacher-to-Exam-2" style="stroke:#181818;stroke-width:1.0;"/><polygon fill="#181818" points="342.72,369.2969,333.72,365.2969,337.72,369.2969,333.72,373.2969,342.72,369.2969" style="stroke:#181818;stroke-width:1.0;"/><text fill="#000000" font-family="sans-serif" font-size="20" lengthAdjust="spacing" textLength="73" x="125.33" y="348.5913">creates</text><text fill="#000000" font-family="sans-serif" font-size="20" lengthAdjust="spacing" textLength="15" x="221.1347" y="266.6179">N</text><text fill="#000000" font-family="sans-serif" font-size="20" lengthAdjust="spacing" textLength="15" x="309.9815" y="393.354">N</text></g><!--link Teacher to Exam--><g id="link_Teacher_Exam"><path codeLine="99" d="M191.67,230.4569 C191.67,291.0569 191.67,382.2969 191.67,382.2969 C191.67,382.2969 337.63,382.2969 337.63,382.2969 " fill="none" id="Teacher-to-Exam-3" style="stroke:#181818;stroke-width:1.0;"/><polygon fill="#181818" points="342.63,382.2969,333.63,378.2969,337.63,382.2969,333.63,386.2969,342.63,382.2969" style="stroke:#181818;stroke-width:1.0;"/><text fill="#000000" font-family="sans-serif" font-size="20" lengthAdjust="spacing" textLength="56" x="202.67" y="363.9213">views</text><text fill="#000000" font-family="sans-serif" font-size="20" lengthAdjust="spacing" textLength="15" x="182.4316" y="266.3568">N</text><text fill="#000000" font-family="sans-serif" font-size="20" lengthAdjust="spacing" textLength="15" x="309.8844" y="360.9634">N</text></g><!--SRC=[fLN1Rjim3BtxAuZiDg11kbsse0ZGDUrMOEiblHUAn2HQPCcGcAvPqNyV9SkrNNjTWSL08fDFZ_Hxb1FssbR2Yz8ukKS52ZVYOEZAMLhftmWVPWLfCWYJfIk5jl33AJHm-K1UI0AtWUyw45ouWm_8OL66IM5mGq0ElDxk29JsA4axMv2hOdZjY5pPYOUc2QY4KjfkuNJM2Lek6R22JzsW5tOVWwUpRdJhtQ6wjZlqceIL2AUTfD4MwLWXE4yxrqam3__6LY9Tb-_64NuHSXzvhRfmndbuT_uvNhskvLvi4HuBuCy0l_mOhvHBkjAHzLmxeugdejXfXI2rbmRhTOdSd0f5qR3Uef3yG95S6X524u2pC-ySBHQfBbCr-NFfdJsMdByNvi2Fk_x9GYyMZq-nO4CRlMevuzqpOVqS9pmCGNfT9O_gYAlGBWLXlfN61SptdGOYsJSKAlM8bWVecBiSidQsVVMyvJOQ57STohWdfIsxq4mDJroBgocjitL3pjw5mxhK8JGTYmsXlujjybJrgrqXgZLhyOQ2FUZ_rBnDHsd4bsV4gZuIGzrOkPTszEoiJs1hQ3wHlHb9bgNuzJBVbjfUMk-CGRMYW-AYeSc8Xv5CQZLg1IjYt_yXN8sfIyVHIOiqD6c5YJyjjRshlDjw3A45gRvwbDM3WNmDegFGA8x9ucnEqxIVd2mwapg7dGWZsMdoR2mxUJ-f4TcpCKpjmZIRCGSTM9OMamz9HFPcx0LL1zREVeqf-XKYf2D2ZHb2g7scOJ97adUvI7xZJ9itJuGrRvc_G2Ot4qRnzq03IeZ0bWztJQTPzQJW7AH7xYAyZfl3lSPV8OysOFmJUgMVj_2Fe7ELelW3]--></g></svg>