<?xml version="1.0" encoding="UTF-8" standalone="no"?><svg xmlns="http://www.w3.org/2000/svg" xmlns:xlink="http://www.w3.org/1999/xlink" contentStyleType="text/css" height="1265px" preserveAspectRatio="none" style="width:1844px;height:1265px;background:#FFFFFF;" version="1.1" viewBox="0 0 1844 1265" width="1844px" zoomAndPan="magnify"><defs/><g><rect fill="#DDDDDD" height="1246.7188" style="stroke:#181818;stroke-width:0.5;" width="526.5" x="304" y="6"/><text fill="#000000" font-family="FG Virgil" font-size="20" font-weight="bold" lengthAdjust="spacing" textLength="268" x="433.25" y="24.5645">ECourse TCP Client App</text><rect fill="#DDDDDD" height="1246.7188" style="stroke:#181818;stroke-width:0.5;" width="873.5" x="892.5" y="6"/><text fill="#000000" font-family="FG Virgil" font-size="20" font-weight="bold" lengthAdjust="spacing" textLength="276" x="1191.25" y="24.5645">ECourse TCP Server App</text><rect fill="#FFFFFF" height="416.0938" style="stroke:#181818;stroke-width:1.0;" width="10" x="387.5" y="165.125"/><rect fill="#FFFFFF" height="529.6563" style="stroke:#181818;stroke-width:1.0;" width="10" x="387.5" y="618.5"/><rect fill="#FFFFFF" height="304.25" style="stroke:#181818;stroke-width:1.0;" width="10" x="698.5" y="239.6875"/><rect fill="#FFFFFF" height="446.0938" style="stroke:#181818;stroke-width:1.0;" width="10" x="698.5" y="655.7813"/><rect fill="#FFFFFF" height="229.6875" style="stroke:#181818;stroke-width:1.0;" width="10" x="1017.5" y="276.9688"/><rect fill="#FFFFFF" height="371.5313" style="stroke:#181818;stroke-width:1.0;" width="10" x="1017.5" y="693.0625"/><rect fill="#FFFFFF" height="111.8438" style="stroke:#181818;stroke-width:1.0;" width="10" x="1328.5" y="357.5313"/><rect fill="#FFFFFF" height="253.6875" style="stroke:#181818;stroke-width:1.0;" width="10" x="1328.5" y="773.625"/><rect fill="#FFFFFF" height="30" style="stroke:#181818;stroke-width:1.0;" width="10" x="1519" y="885.4688"/><rect fill="#FFFFFF" height="37.2813" style="stroke:#181818;stroke-width:1.0;" width="10" x="1671.5" y="394.8125"/><rect fill="#FFFFFF" height="37.2813" style="stroke:#181818;stroke-width:1.0;" width="10" x="1671.5" y="810.9063"/><rect fill="#FFFFFF" height="37.2813" style="stroke:#181818;stroke-width:1.0;" width="10" x="1671.5" y="952.75"/><line style="stroke:#181818;stroke-width:0.5;stroke-dasharray:5.0,5.0;" x1="30" x2="30" y1="125.8438" y2="1157.1563"/><line style="stroke:#181818;stroke-width:0.5;stroke-dasharray:5.0,5.0;" x1="392" x2="392" y1="125.8438" y2="1157.1563"/><line style="stroke:#181818;stroke-width:0.5;stroke-dasharray:5.0,5.0;" x1="703.5" x2="703.5" y1="125.8438" y2="1157.1563"/><line style="stroke:#181818;stroke-width:0.5;stroke-dasharray:5.0,5.0;" x1="1022.5" x2="1022.5" y1="125.8438" y2="1157.1563"/><line style="stroke:#181818;stroke-width:0.5;stroke-dasharray:5.0,5.0;" x1="1333" x2="1333" y1="125.8438" y2="1157.1563"/><line style="stroke:#181818;stroke-width:0.5;stroke-dasharray:5.0,5.0;" x1="1524" x2="1524" y1="125.8438" y2="1157.1563"/><line style="stroke:#181818;stroke-width:0.5;stroke-dasharray:5.0,5.0;" x1="1676" x2="1676" y1="125.8438" y2="1157.1563"/><text fill="#000000" font-family="FG Virgil" font-size="20" lengthAdjust="spacing" textLength="45" x="5" y="121.127">User</text><ellipse cx="30.5" cy="51.0625" fill="#E3E3E3" rx="8" ry="8" style="stroke:#181818;stroke-width:0.5;"/><path d="M30.5,59.0625 L30.5,86.0625 M17.5,67.0625 L43.5,67.0625 M30.5,86.0625 L17.5,101.0625 M30.5,86.0625 L43.5,101.0625 " fill="none" style="stroke:#181818;stroke-width:0.5;"/><text fill="#000000" font-family="FG Virgil" font-size="20" lengthAdjust="spacing" textLength="45" x="5" y="1174.7207">User</text><ellipse cx="30.5" cy="1187.9375" fill="#E3E3E3" rx="8" ry="8" style="stroke:#181818;stroke-width:0.5;"/><path d="M30.5,1195.9375 L30.5,1222.9375 M17.5,1203.9375 L43.5,1203.9375 M30.5,1222.9375 L17.5,1237.9375 M30.5,1222.9375 L43.5,1237.9375 " fill="none" style="stroke:#181818;stroke-width:0.5;"/><rect fill="#E3E3E3" height="60.5625" rx="2.5" ry="2.5" style="stroke:#181818;stroke-width:0.5;" width="169" x="308" y="64.2813"/><text fill="#000000" font-family="FG Virgil" font-size="20" font-style="italic" lengthAdjust="spacing" textLength="151" x="317" y="89.8457">«presentation»</text><text fill="#000000" font-family="FG Virgil" font-size="20" lengthAdjust="spacing" textLength="155" x="315" y="113.127">ArchiveBoardUI</text><rect fill="#E3E3E3" height="60.5625" rx="2.5" ry="2.5" style="stroke:#181818;stroke-width:0.5;" width="169" x="308" y="1156.1563"/><text fill="#000000" font-family="FG Virgil" font-size="20" font-style="italic" lengthAdjust="spacing" textLength="151" x="317" y="1181.7207">«presentation»</text><text fill="#000000" font-family="FG Virgil" font-size="20" lengthAdjust="spacing" textLength="155" x="315" y="1205.002">ArchiveBoardUI</text><rect fill="#E3E3E3" height="83.8438" rx="2.5" ry="2.5" style="stroke:#181818;stroke-width:0.5;" width="246" x="580.5" y="41"/><text fill="#000000" font-family="FG Virgil" font-size="20" font-style="italic" lengthAdjust="spacing" textLength="232" x="587.5" y="66.5645">«TCP Client Controller»</text><text fill="#000000" font-family="FG Virgil" font-size="20" lengthAdjust="spacing" textLength="134" x="636.5" y="89.8457">ArchiveBoard</text><text fill="#000000" font-family="FG Virgil" font-size="20" lengthAdjust="spacing" textLength="196" x="605.5" y="113.127">TCPClientController</text><rect fill="#E3E3E3" height="83.8438" rx="2.5" ry="2.5" style="stroke:#181818;stroke-width:0.5;" width="246" x="580.5" y="1156.1563"/><text fill="#000000" font-family="FG Virgil" font-size="20" font-style="italic" lengthAdjust="spacing" textLength="232" x="587.5" y="1181.7207">«TCP Client Controller»</text><text fill="#000000" font-family="FG Virgil" font-size="20" lengthAdjust="spacing" textLength="134" x="636.5" y="1205.002">ArchiveBoard</text><text fill="#000000" font-family="FG Virgil" font-size="20" lengthAdjust="spacing" textLength="196" x="605.5" y="1228.2832">TCPClientController</text><rect fill="#E3E3E3" height="83.8438" rx="2.5" ry="2.5" style="stroke:#181818;stroke-width:0.5;" width="252" x="896.5" y="41"/><text fill="#000000" font-family="FG Virgil" font-size="20" font-style="italic" lengthAdjust="spacing" textLength="238" x="903.5" y="66.5645">«TCP Server Controller»</text><text fill="#000000" font-family="FG Virgil" font-size="20" lengthAdjust="spacing" textLength="134" x="955.5" y="89.8457">ArchiveBoard</text><text fill="#000000" font-family="FG Virgil" font-size="20" lengthAdjust="spacing" textLength="201" x="922" y="113.127">TCPServerController</text><rect fill="#E3E3E3" height="83.8438" rx="2.5" ry="2.5" style="stroke:#181818;stroke-width:0.5;" width="252" x="896.5" y="1156.1563"/><text fill="#000000" font-family="FG Virgil" font-size="20" font-style="italic" lengthAdjust="spacing" textLength="238" x="903.5" y="1181.7207">«TCP Server Controller»</text><text fill="#000000" font-family="FG Virgil" font-size="20" lengthAdjust="spacing" textLength="134" x="955.5" y="1205.002">ArchiveBoard</text><text fill="#000000" font-family="FG Virgil" font-size="20" lengthAdjust="spacing" textLength="201" x="922" y="1228.2832">TCPServerController</text><rect fill="#E3E3E3" height="60.5625" rx="2.5" ry="2.5" style="stroke:#181818;stroke-width:0.5;" width="247" x="1210" y="64.2813"/><text fill="#000000" font-family="FG Virgil" font-size="20" font-style="italic" lengthAdjust="spacing" textLength="136" x="1265.5" y="89.8457">«application»</text><text fill="#000000" font-family="FG Virgil" font-size="20" lengthAdjust="spacing" textLength="233" x="1217" y="113.127">ArchiveBoardController</text><rect fill="#E3E3E3" height="60.5625" rx="2.5" ry="2.5" style="stroke:#181818;stroke-width:0.5;" width="247" x="1210" y="1156.1563"/><text fill="#000000" font-family="FG Virgil" font-size="20" font-style="italic" lengthAdjust="spacing" textLength="136" x="1265.5" y="1181.7207">«application»</text><text fill="#000000" font-family="FG Virgil" font-size="20" lengthAdjust="spacing" textLength="233" x="1217" y="1205.002">ArchiveBoardController</text><rect fill="#E3E3E3" height="60.5625" rx="2.5" ry="2.5" style="stroke:#181818;stroke-width:0.5;" width="114" x="1467" y="64.2813"/><text fill="#000000" font-family="FG Virgil" font-size="20" font-style="italic" lengthAdjust="spacing" textLength="100" x="1474" y="89.8457">«domain»</text><text fill="#000000" font-family="FG Virgil" font-size="20" lengthAdjust="spacing" textLength="59" x="1494.5" y="113.127">Board</text><rect fill="#E3E3E3" height="60.5625" rx="2.5" ry="2.5" style="stroke:#181818;stroke-width:0.5;" width="114" x="1467" y="1156.1563"/><text fill="#000000" font-family="FG Virgil" font-size="20" font-style="italic" lengthAdjust="spacing" textLength="100" x="1474" y="1181.7207">«domain»</text><text fill="#000000" font-family="FG Virgil" font-size="20" lengthAdjust="spacing" textLength="59" x="1494.5" y="1205.002">Board</text><text fill="#000000" font-family="FG Virgil" font-size="20" font-style="italic" lengthAdjust="spacing" textLength="125" x="1611" y="97.8457">«repository»</text><text fill="#000000" font-family="FG Virgil" font-size="20" lengthAdjust="spacing" textLength="165" x="1591" y="121.127">BoardRepository</text><path d="M1658.5,43.2813 C1658.5,33.2813 1676.5,33.2813 1676.5,33.2813 C1676.5,33.2813 1694.5,33.2813 1694.5,43.2813 L1694.5,69.2813 C1694.5,79.2813 1676.5,79.2813 1676.5,79.2813 C1676.5,79.2813 1658.5,79.2813 1658.5,69.2813 L1658.5,43.2813 " fill="#E3E3E3" style="stroke:#181818;stroke-width:1.5;"/><path d="M1658.5,43.2813 C1658.5,53.2813 1676.5,53.2813 1676.5,53.2813 C1676.5,53.2813 1694.5,53.2813 1694.5,43.2813 " fill="none" style="stroke:#181818;stroke-width:1.5;"/><text fill="#000000" font-family="FG Virgil" font-size="20" font-style="italic" lengthAdjust="spacing" textLength="125" x="1611" y="1174.7207">«repository»</text><text fill="#000000" font-family="FG Virgil" font-size="20" lengthAdjust="spacing" textLength="165" x="1591" y="1198.002">BoardRepository</text><path d="M1658.5,1212.7188 C1658.5,1202.7188 1676.5,1202.7188 1676.5,1202.7188 C1676.5,1202.7188 1694.5,1202.7188 1694.5,1212.7188 L1694.5,1238.7188 C1694.5,1248.7188 1676.5,1248.7188 1676.5,1248.7188 C1676.5,1248.7188 1658.5,1248.7188 1658.5,1238.7188 L1658.5,1212.7188 " fill="#E3E3E3" style="stroke:#181818;stroke-width:1.5;"/><path d="M1658.5,1212.7188 C1658.5,1222.7188 1676.5,1222.7188 1676.5,1222.7188 C1676.5,1222.7188 1694.5,1222.7188 1694.5,1212.7188 " fill="none" style="stroke:#181818;stroke-width:1.5;"/><rect fill="#FFFFFF" height="416.0938" style="stroke:#181818;stroke-width:1.0;" width="10" x="387.5" y="165.125"/><rect fill="#FFFFFF" height="529.6563" style="stroke:#181818;stroke-width:1.0;" width="10" x="387.5" y="618.5"/><rect fill="#FFFFFF" height="304.25" style="stroke:#181818;stroke-width:1.0;" width="10" x="698.5" y="239.6875"/><rect fill="#FFFFFF" height="446.0938" style="stroke:#181818;stroke-width:1.0;" width="10" x="698.5" y="655.7813"/><rect fill="#FFFFFF" height="229.6875" style="stroke:#181818;stroke-width:1.0;" width="10" x="1017.5" y="276.9688"/><rect fill="#FFFFFF" height="371.5313" style="stroke:#181818;stroke-width:1.0;" width="10" x="1017.5" y="693.0625"/><rect fill="#FFFFFF" height="111.8438" style="stroke:#181818;stroke-width:1.0;" width="10" x="1328.5" y="357.5313"/><rect fill="#FFFFFF" height="253.6875" style="stroke:#181818;stroke-width:1.0;" width="10" x="1328.5" y="773.625"/><rect fill="#FFFFFF" height="30" style="stroke:#181818;stroke-width:1.0;" width="10" x="1519" y="885.4688"/><rect fill="#FFFFFF" height="37.2813" style="stroke:#181818;stroke-width:1.0;" width="10" x="1671.5" y="394.8125"/><rect fill="#FFFFFF" height="37.2813" style="stroke:#181818;stroke-width:1.0;" width="10" x="1671.5" y="810.9063"/><rect fill="#FFFFFF" height="37.2813" style="stroke:#181818;stroke-width:1.0;" width="10" x="1671.5" y="952.75"/><polygon fill="#181818" points="375.5,161.125,385.5,165.125,375.5,169.125,379.5,165.125" style="stroke:#181818;stroke-width:1.0;"/><line style="stroke:#181818;stroke-width:1.0;stroke-dasharray:2.0,2.0;" x1="30.5" x2="381.5" y1="165.125" y2="165.125"/><text fill="#000000" font-family="FG Virgil" font-size="20" font-weight="bold" lengthAdjust="spacing" textLength="14" x="37.5" y="158.4082">1</text><text fill="#000000" font-family="FG Virgil" font-size="20" lengthAdjust="spacing" textLength="320" x="55.5" y="158.4082">selects "archive a board" option</text><polygon fill="#181818" points="691.5,198.4063,701.5,202.4063,691.5,206.4063,695.5,202.4063" style="stroke:#181818;stroke-width:1.0;"/><line style="stroke:#181818;stroke-width:1.0;" x1="397.5" x2="697.5" y1="202.4063" y2="202.4063"/><text fill="#000000" font-family="FG Virgil" font-size="20" font-weight="bold" lengthAdjust="spacing" textLength="14" x="404.5" y="195.6895">2</text><text fill="#000000" font-family="FG Virgil" font-size="20" lengthAdjust="spacing" textLength="63" x="422.5" y="195.6895">create</text><polygon fill="#181818" points="686.5,235.6875,696.5,239.6875,686.5,243.6875,690.5,239.6875" style="stroke:#181818;stroke-width:1.0;"/><line style="stroke:#181818;stroke-width:1.0;" x1="397.5" x2="692.5" y1="239.6875" y2="239.6875"/><text fill="#000000" font-family="FG Virgil" font-size="20" font-weight="bold" lengthAdjust="spacing" textLength="14" x="404.5" y="232.9707">3</text><text fill="#000000" font-family="FG Virgil" font-size="20" lengthAdjust="spacing" textLength="177" x="422.5" y="232.9707">listActiveBoards()</text><polygon fill="#181818" points="1005.5,272.9688,1015.5,276.9688,1005.5,280.9688,1009.5,276.9688" style="stroke:#181818;stroke-width:1.0;"/><line style="stroke:#181818;stroke-width:1.0;stroke-dasharray:2.0,2.0;" x1="708.5" x2="1011.5" y1="276.9688" y2="276.9688"/><text fill="#000000" font-family="FG Virgil" font-size="20" font-weight="bold" lengthAdjust="spacing" textLength="14" x="715.5" y="270.252">4</text><text fill="#000000" font-family="FG Virgil" font-size="20" lengthAdjust="spacing" textLength="155" x="733.5" y="270.252">TCP connection</text><path d="M1032,289.9688 L1032,322.9688 L1837,322.9688 L1837,299.9688 L1827,289.9688 L1032,289.9688 " fill="#FAFAFA" style="stroke:#181818;stroke-width:0.5;"/><path d="M1827,289.9688 L1827,299.9688 L1837,299.9688 L1827,289.9688 " fill="#FAFAFA" style="stroke:#181818;stroke-width:0.5;"/><text fill="#000000" font-family="FG Virgil" font-size="20" lengthAdjust="spacing" textLength="784" x="1038" y="313.5332">verify if the user is logged in and retrieve the email, using the sessionManager</text><polygon fill="#181818" points="1316.5,353.5313,1326.5,357.5313,1316.5,361.5313,1320.5,357.5313" style="stroke:#181818;stroke-width:1.0;"/><line style="stroke:#181818;stroke-width:1.0;" x1="1027.5" x2="1322.5" y1="357.5313" y2="357.5313"/><text fill="#000000" font-family="FG Virgil" font-size="20" font-weight="bold" lengthAdjust="spacing" textLength="14" x="1034.5" y="350.8145">5</text><text fill="#000000" font-family="FG Virgil" font-size="20" lengthAdjust="spacing" textLength="233" x="1052.5" y="350.8145">listActiveBoards(email)</text><polygon fill="#181818" points="1659.5,390.8125,1669.5,394.8125,1659.5,398.8125,1663.5,394.8125" style="stroke:#181818;stroke-width:1.0;"/><line style="stroke:#181818;stroke-width:1.0;" x1="1338.5" x2="1665.5" y1="394.8125" y2="394.8125"/><text fill="#000000" font-family="FG Virgil" font-size="20" font-weight="bold" lengthAdjust="spacing" textLength="14" x="1345.5" y="388.0957">6</text><text fill="#000000" font-family="FG Virgil" font-size="20" lengthAdjust="spacing" textLength="264" x="1363.5" y="388.0957">findActiveByOwner(email)</text><polygon fill="#181818" points="1349.5,428.0938,1339.5,432.0938,1349.5,436.0938,1345.5,432.0938" style="stroke:#181818;stroke-width:1.0;"/><line style="stroke:#181818;stroke-width:1.0;" x1="1343.5" x2="1675.5" y1="432.0938" y2="432.0938"/><text fill="#000000" font-family="FG Virgil" font-size="20" font-weight="bold" lengthAdjust="spacing" textLength="14" x="1355.5" y="425.377">7</text><text fill="#000000" font-family="FG Virgil" font-size="20" lengthAdjust="spacing" textLength="170" x="1373.5" y="425.377">Iterable&lt;Board&gt;</text><polygon fill="#181818" points="1038.5,465.375,1028.5,469.375,1038.5,473.375,1034.5,469.375" style="stroke:#181818;stroke-width:1.0;"/><line style="stroke:#181818;stroke-width:1.0;" x1="1032.5" x2="1332.5" y1="469.375" y2="469.375"/><text fill="#000000" font-family="FG Virgil" font-size="20" font-weight="bold" lengthAdjust="spacing" textLength="14" x="1044.5" y="462.6582">8</text><text fill="#000000" font-family="FG Virgil" font-size="20" lengthAdjust="spacing" textLength="170" x="1062.5" y="462.6582">Iterable&lt;Board&gt;</text><polygon fill="#181818" points="719.5,502.6563,709.5,506.6563,719.5,510.6563,715.5,506.6563" style="stroke:#181818;stroke-width:1.0;"/><line style="stroke:#181818;stroke-width:1.0;stroke-dasharray:2.0,2.0;" x1="713.5" x2="1021.5" y1="506.6563" y2="506.6563"/><text fill="#000000" font-family="FG Virgil" font-size="20" font-weight="bold" lengthAdjust="spacing" textLength="14" x="725.5" y="499.9395">9</text><text fill="#000000" font-family="FG Virgil" font-size="20" lengthAdjust="spacing" textLength="155" x="743.5" y="499.9395">TCP connection</text><polygon fill="#181818" points="408.5,539.9375,398.5,543.9375,408.5,547.9375,404.5,543.9375" style="stroke:#181818;stroke-width:1.0;"/><line style="stroke:#181818;stroke-width:1.0;" x1="402.5" x2="702.5" y1="543.9375" y2="543.9375"/><text fill="#000000" font-family="FG Virgil" font-size="20" font-weight="bold" lengthAdjust="spacing" textLength="28" x="414.5" y="537.2207">10</text><text fill="#000000" font-family="FG Virgil" font-size="20" lengthAdjust="spacing" textLength="170" x="446.5" y="537.2207">Iterable&lt;Board&gt;</text><polygon fill="#181818" points="41.5,577.2188,31.5,581.2188,41.5,585.2188,37.5,581.2188" style="stroke:#181818;stroke-width:1.0;"/><line style="stroke:#181818;stroke-width:1.0;" x1="35.5" x2="391.5" y1="581.2188" y2="581.2188"/><text fill="#000000" font-family="FG Virgil" font-size="20" font-weight="bold" lengthAdjust="spacing" textLength="28" x="47.5" y="574.502">11</text><text fill="#000000" font-family="FG Virgil" font-size="20" lengthAdjust="spacing" textLength="280" x="79.5" y="574.502">shows active Owned Boards</text><polygon fill="#181818" points="375.5,614.5,385.5,618.5,375.5,622.5,379.5,618.5" style="stroke:#181818;stroke-width:1.0;"/><line style="stroke:#181818;stroke-width:1.0;stroke-dasharray:2.0,2.0;" x1="30.5" x2="381.5" y1="618.5" y2="618.5"/><text fill="#000000" font-family="FG Virgil" font-size="20" font-weight="bold" lengthAdjust="spacing" textLength="28" x="37.5" y="611.7832">12</text><text fill="#000000" font-family="FG Virgil" font-size="20" lengthAdjust="spacing" textLength="238" x="69.5" y="611.7832">selects board to archive</text><polygon fill="#181818" points="686.5,651.7813,696.5,655.7813,686.5,659.7813,690.5,655.7813" style="stroke:#181818;stroke-width:1.0;"/><line style="stroke:#181818;stroke-width:1.0;" x1="397.5" x2="692.5" y1="655.7813" y2="655.7813"/><text fill="#000000" font-family="FG Virgil" font-size="20" font-weight="bold" lengthAdjust="spacing" textLength="28" x="404.5" y="649.0645">13</text><text fill="#000000" font-family="FG Virgil" font-size="20" lengthAdjust="spacing" textLength="250" x="436.5" y="649.0645">archiveBoard(boardTitle)</text><polygon fill="#181818" points="1005.5,689.0625,1015.5,693.0625,1005.5,697.0625,1009.5,693.0625" style="stroke:#181818;stroke-width:1.0;"/><line style="stroke:#181818;stroke-width:1.0;stroke-dasharray:2.0,2.0;" x1="708.5" x2="1011.5" y1="693.0625" y2="693.0625"/><text fill="#000000" font-family="FG Virgil" font-size="20" font-weight="bold" lengthAdjust="spacing" textLength="28" x="715.5" y="686.3457">14</text><text fill="#000000" font-family="FG Virgil" font-size="20" lengthAdjust="spacing" textLength="155" x="747.5" y="686.3457">TCP connection</text><path d="M1032,706.0625 L1032,739.0625 L1837,739.0625 L1837,716.0625 L1827,706.0625 L1032,706.0625 " fill="#FAFAFA" style="stroke:#181818;stroke-width:0.5;"/><path d="M1827,706.0625 L1827,716.0625 L1837,716.0625 L1827,706.0625 " fill="#FAFAFA" style="stroke:#181818;stroke-width:0.5;"/><text fill="#000000" font-family="FG Virgil" font-size="20" lengthAdjust="spacing" textLength="784" x="1038" y="729.627">verify if the user is logged in and retrieve the email, using the sessionManager</text><polygon fill="#181818" points="1316.5,769.625,1326.5,773.625,1316.5,777.625,1320.5,773.625" style="stroke:#181818;stroke-width:1.0;"/><line style="stroke:#181818;stroke-width:1.0;" x1="1027.5" x2="1322.5" y1="773.625" y2="773.625"/><text fill="#000000" font-family="FG Virgil" font-size="20" font-weight="bold" lengthAdjust="spacing" textLength="28" x="1034.5" y="766.9082">15</text><text fill="#000000" font-family="FG Virgil" font-size="20" lengthAdjust="spacing" textLength="250" x="1066.5" y="766.9082">archiveBoard(boardTitle)</text><polygon fill="#181818" points="1659.5,806.9063,1669.5,810.9063,1659.5,814.9063,1663.5,810.9063" style="stroke:#181818;stroke-width:1.0;"/><line style="stroke:#181818;stroke-width:1.0;" x1="1338.5" x2="1665.5" y1="810.9063" y2="810.9063"/><text fill="#000000" font-family="FG Virgil" font-size="20" font-weight="bold" lengthAdjust="spacing" textLength="28" x="1345.5" y="804.1895">16</text><text fill="#000000" font-family="FG Virgil" font-size="20" lengthAdjust="spacing" textLength="226" x="1377.5" y="804.1895">findByTitle(boardTitle)</text><polygon fill="#181818" points="1349.5,844.1875,1339.5,848.1875,1349.5,852.1875,1345.5,848.1875" style="stroke:#181818;stroke-width:1.0;"/><line style="stroke:#181818;stroke-width:1.0;" x1="1343.5" x2="1675.5" y1="848.1875" y2="848.1875"/><text fill="#000000" font-family="FG Virgil" font-size="20" font-weight="bold" lengthAdjust="spacing" textLength="28" x="1355.5" y="841.4707">17</text><text fill="#000000" font-family="FG Virgil" font-size="20" lengthAdjust="spacing" textLength="58" x="1387.5" y="841.4707">board</text><polygon fill="#181818" points="1507,881.4688,1517,885.4688,1507,889.4688,1511,885.4688" style="stroke:#181818;stroke-width:1.0;"/><line style="stroke:#181818;stroke-width:1.0;" x1="1338.5" x2="1513" y1="885.4688" y2="885.4688"/><text fill="#000000" font-family="FG Virgil" font-size="20" font-weight="bold" lengthAdjust="spacing" textLength="28" x="1345.5" y="878.752">18</text><text fill="#000000" font-family="FG Virgil" font-size="20" lengthAdjust="spacing" textLength="89" x="1377.5" y="878.752">archive()</text><polygon fill="#181818" points="1659.5,948.75,1669.5,952.75,1659.5,956.75,1663.5,952.75" style="stroke:#181818;stroke-width:1.0;"/><line style="stroke:#181818;stroke-width:1.0;" x1="1338.5" x2="1665.5" y1="952.75" y2="952.75"/><text fill="#000000" font-family="FG Virgil" font-size="20" font-weight="bold" lengthAdjust="spacing" textLength="28" x="1345.5" y="946.0332">19</text><text fill="#000000" font-family="FG Virgil" font-size="20" lengthAdjust="spacing" textLength="119" x="1377.5" y="946.0332">save(board)</text><polygon fill="#181818" points="1349.5,986.0313,1339.5,990.0313,1349.5,994.0313,1345.5,990.0313" style="stroke:#181818;stroke-width:1.0;"/><line style="stroke:#181818;stroke-width:1.0;" x1="1343.5" x2="1675.5" y1="990.0313" y2="990.0313"/><text fill="#000000" font-family="FG Virgil" font-size="20" font-weight="bold" lengthAdjust="spacing" textLength="28" x="1355.5" y="983.3145">20</text><text fill="#000000" font-family="FG Virgil" font-size="20" lengthAdjust="spacing" textLength="58" x="1387.5" y="983.3145">board</text><polygon fill="#181818" points="1038.5,1023.3125,1028.5,1027.3125,1038.5,1031.3125,1034.5,1027.3125" style="stroke:#181818;stroke-width:1.0;"/><line style="stroke:#181818;stroke-width:1.0;" x1="1032.5" x2="1332.5" y1="1027.3125" y2="1027.3125"/><text fill="#000000" font-family="FG Virgil" font-size="20" font-weight="bold" lengthAdjust="spacing" textLength="28" x="1044.5" y="1020.5957">21</text><text fill="#000000" font-family="FG Virgil" font-size="20" lengthAdjust="spacing" textLength="58" x="1076.5" y="1020.5957">board</text><polygon fill="#181818" points="719.5,1060.5938,709.5,1064.5938,719.5,1068.5938,715.5,1064.5938" style="stroke:#181818;stroke-width:1.0;"/><line style="stroke:#181818;stroke-width:1.0;stroke-dasharray:2.0,2.0;" x1="713.5" x2="1021.5" y1="1064.5938" y2="1064.5938"/><text fill="#000000" font-family="FG Virgil" font-size="20" font-weight="bold" lengthAdjust="spacing" textLength="28" x="725.5" y="1057.877">22</text><text fill="#000000" font-family="FG Virgil" font-size="20" lengthAdjust="spacing" textLength="155" x="757.5" y="1057.877">TCP connection</text><polygon fill="#181818" points="408.5,1097.875,398.5,1101.875,408.5,1105.875,404.5,1101.875" style="stroke:#181818;stroke-width:1.0;"/><line style="stroke:#181818;stroke-width:1.0;" x1="402.5" x2="702.5" y1="1101.875" y2="1101.875"/><text fill="#000000" font-family="FG Virgil" font-size="20" font-weight="bold" lengthAdjust="spacing" textLength="28" x="414.5" y="1095.1582">23</text><text fill="#000000" font-family="FG Virgil" font-size="20" lengthAdjust="spacing" textLength="77" x="446.5" y="1095.1582">success</text><polygon fill="#181818" points="41.5,1135.1563,31.5,1139.1563,41.5,1143.1563,37.5,1139.1563" style="stroke:#181818;stroke-width:1.0;"/><line style="stroke:#181818;stroke-width:1.0;" x1="35.5" x2="386.5" y1="1139.1563" y2="1139.1563"/><text fill="#000000" font-family="FG Virgil" font-size="20" font-weight="bold" lengthAdjust="spacing" textLength="28" x="47.5" y="1132.4395">24</text><text fill="#000000" font-family="FG Virgil" font-size="20" lengthAdjust="spacing" textLength="145" x="79.5" y="1132.4395">shows success</text><!--SRC=[xLHDJnin4BtxLunoAPNAXzfR5251MYgaVY08d7gPx4wo5bvxPNi3wQ_ls1jOPnreUgXwQGvHRBzvVfvvB-vUwWOjrieKzrH2IGjibRymsj_8dmJlJyIRoljcV7pSADI-hTLHOUfZzrHtLFbQYUSbd9l7AonBgPVmuKHWwurkwpbPaM1geqrHMLCJUDjISj9WSOzBkl5hHM2fyCbP8kqRSkd5PxYJTYdJsrs5fNa8bozGEH822syit3goW0xEmag8kNc4JrFJMaSmcrx1L4dI7iwQHZ2DbuLiCAnjKSaLdHkqvUrbgEVloQInv1YENXfzUhfLCKfBVcZcxgYdhDaQfSYE0irmaqaJ6Vq-ivCkWUNccc_8hhXog3bNq0472eQR6mKRqYq5BtKaAMR2ZwP6gQUpwozCXKsZPB6hGR6onpEsZ3yOLgB7EVBh8kQQ6kCaJsiTqCbgCh7FYxG_SRHmU7ZAGng38yNcSJ32JZ4WevXs1AO9ie8lv0ezCLhmLBbiE9Gn59OOyUAnaiwV1Pgk7-xWRSywH8jiv47fS0hZEDd2QCtYjrGEaK8RthLoMNamY_mO-CCxSh46kG1V4RGX0jA1CiibvvnxZzmwIzvAulu42F4ar3j6Xlo43KVEiOolg3cJDlOwt2ioz_1RUWFiw4naJjhJWqLY76Rf1ps6XTJbXcNz_K6JpMXwj4WSCX1pwSdYND4aQc6VqQxwRHdvO5vXIHwJDsQdSmPJJhYoGUQ-wGp-YfxCUvs1Oq0u6PLvS1311A6jPHSubr9mA7RdAOO8l85DhlRA4IR_6WUHOIQzelznsJZqz_tPEo_dwrYwcsMlkCJAlKBIhPxb7sHwyv2yejxXQYFxxodE3PJL_fCmkxOes3j_6kAdCl4B]--></g></svg>