<?xml version="1.0" encoding="us-ascii" standalone="no"?><svg xmlns="http://www.w3.org/2000/svg" xmlns:xlink="http://www.w3.org/1999/xlink" contentStyleType="text/css" height="998px" preserveAspectRatio="none" style="width:1324px;height:998px;background:#FFFFFF;" version="1.1" viewBox="0 0 1324 998" width="1324px" zoomAndPan="magnify"><defs/><g><text fill="#000000" font-family="sans-serif" font-size="14" font-weight="bold" lengthAdjust="spacing" textLength="112" x="599" y="22.9951">Archive Board</text><!--cluster Board--><g id="cluster_Board"><path d="M883.5,318.2969 L931.5,318.2969 A3.75,3.75 0 0 1 934,320.7969 L941,340.5938 L1314.5,340.5938 A2.5,2.5 0 0 1 1317,343.0938 L1317,988.7969 A2.5,2.5 0 0 1 1314.5,991.2969 L883.5,991.2969 A2.5,2.5 0 0 1 881,988.7969 L881,320.7969 A2.5,2.5 0 0 1 883.5,318.2969 " fill="none" style="stroke:#000000;stroke-width:1.5;"/><line style="stroke:#000000;stroke-width:1.5;" x1="881" x2="941" y1="340.5938" y2="340.5938"/><text fill="#000000" font-family="sans-serif" font-size="14" font-weight="bold" lengthAdjust="spacing" textLength="47" x="885" y="333.292">Board</text></g><!--cluster TCP--><g id="cluster_TCP"><path d="M8.5,43.2969 L39.5,43.2969 A3.75,3.75 0 0 1 42,45.7969 L49,65.5938 L854.5,65.5938 A2.5,2.5 0 0 1 857,68.0938 L857,672.7969 A2.5,2.5 0 0 1 854.5,675.2969 L8.5,675.2969 A2.5,2.5 0 0 1 6,672.7969 L6,45.7969 A2.5,2.5 0 0 1 8.5,43.2969 " fill="none" style="stroke:#000000;stroke-width:1.5;"/><line style="stroke:#000000;stroke-width:1.5;" x1="6" x2="49" y1="65.5938" y2="65.5938"/><text fill="#000000" font-family="sans-serif" font-size="14" font-weight="bold" lengthAdjust="spacing" textLength="30" x="10" y="58.292">TCP</text></g><!--cluster common--><g id="cluster_common"><path d="M416.5,290.2969 L485.5,290.2969 A3.75,3.75 0 0 1 488,292.7969 L495,312.5938 L822.5,312.5938 A2.5,2.5 0 0 1 825,315.0938 L825,640.7969 A2.5,2.5 0 0 1 822.5,643.2969 L416.5,643.2969 A2.5,2.5 0 0 1 414,640.7969 L414,292.7969 A2.5,2.5 0 0 1 416.5,290.2969 " fill="none" style="stroke:#000000;stroke-width:1.5;"/><line style="stroke:#000000;stroke-width:1.5;" x1="414" x2="495" y1="312.5938" y2="312.5938"/><text fill="#000000" font-family="sans-serif" font-size="14" font-weight="bold" lengthAdjust="spacing" textLength="68" x="418" y="305.292">common</text></g><!--cluster server--><g id="cluster_server"><path d="M443.5,94.2969 L495.5,94.2969 A3.75,3.75 0 0 1 498,96.7969 L505,116.5938 L795.5,116.5938 A2.5,2.5 0 0 1 798,119.0938 L798,247.7969 A2.5,2.5 0 0 1 795.5,250.2969 L443.5,250.2969 A2.5,2.5 0 0 1 441,247.7969 L441,96.7969 A2.5,2.5 0 0 1 443.5,94.2969 " fill="none" style="stroke:#000000;stroke-width:1.5;"/><line style="stroke:#000000;stroke-width:1.5;" x1="441" x2="505" y1="116.5938" y2="116.5938"/><text fill="#000000" font-family="sans-serif" font-size="14" font-weight="bold" lengthAdjust="spacing" textLength="51" x="445" y="109.292">server</text></g><!--cluster client--><g id="cluster_client"><path d="M40.5,110.7969 L86.5,110.7969 A3.75,3.75 0 0 1 89,113.2969 L96,133.0938 L371.5,133.0938 A2.5,2.5 0 0 1 374,135.5938 L374,463.7969 A2.5,2.5 0 0 1 371.5,466.2969 L40.5,466.2969 A2.5,2.5 0 0 1 38,463.7969 L38,113.2969 A2.5,2.5 0 0 1 40.5,110.7969 " fill="none" style="stroke:#000000;stroke-width:1.5;"/><line style="stroke:#000000;stroke-width:1.5;" x1="38" x2="96" y1="133.0938" y2="133.0938"/><text fill="#000000" font-family="sans-serif" font-size="14" font-weight="bold" lengthAdjust="spacing" textLength="45" x="42" y="125.792">client</text></g><!--class ArchiveBoardController--><g id="elem_ArchiveBoardController"><rect codeLine="9" fill="#F1F1F1" height="88.8594" id="ArchiveBoardController" rx="2.5" ry="2.5" style="stroke:#181818;stroke-width:0.5;" width="378" x="903" y="353.2969"/><ellipse cx="1003.75" cy="373.4297" fill="#ADD1B2" rx="11" ry="11" style="stroke:#181818;stroke-width:1.0;"/><path d="M1006.7188,379.0703 Q1006.1406,379.3672 1005.5,379.5078 Q1004.8594,379.6641 1004.1563,379.6641 Q1001.6563,379.6641 1000.3281,378.0234 Q999.0156,376.3672 999.0156,373.2422 Q999.0156,370.1172 1000.3281,368.4609 Q1001.6563,366.8047 1004.1563,366.8047 Q1004.8594,366.8047 1005.5,366.9609 Q1006.1563,367.1172 1006.7188,367.4141 L1006.7188,370.1328 Q1006.0938,369.5547 1005.5,369.2891 Q1004.9063,369.0078 1004.2813,369.0078 Q1002.9375,369.0078 1002.25,370.0859 Q1001.5625,371.1484 1001.5625,373.2422 Q1001.5625,375.3359 1002.25,376.4141 Q1002.9375,377.4766 1004.2813,377.4766 Q1004.9063,377.4766 1005.5,377.2109 Q1006.0938,376.9297 1006.7188,376.3516 L1006.7188,379.0703 Z " fill="#000000"/><text fill="#000000" font-family="sans-serif" font-size="12" font-style="italic" lengthAdjust="spacing" textLength="80" x="1068.25" y="369.4355">&#171;application&#187;</text><text fill="#000000" font-family="sans-serif" font-size="14" lengthAdjust="spacing" textLength="168" x="1024.25" y="385.2607">ArchiveBoardController</text><line style="stroke:#181818;stroke-width:0.5;" x1="904" x2="1280" y1="393.5625" y2="393.5625"/><line style="stroke:#181818;stroke-width:0.5;" x1="904" x2="1280" y1="401.5625" y2="401.5625"/><ellipse cx="914" cy="415.2109" fill="#84BE84" rx="3" ry="3" style="stroke:#038048;stroke-width:1.0;"/><text fill="#000000" font-family="sans-serif" font-size="14" lengthAdjust="spacing" textLength="352" x="923" y="418.5576">listActiveBoards(EmailAddress): Iterable&lt;Board&gt;</text><ellipse cx="914" cy="431.5078" fill="#84BE84" rx="3" ry="3" style="stroke:#038048;stroke-width:1.0;"/><text fill="#000000" font-family="sans-serif" font-size="14" lengthAdjust="spacing" textLength="153" x="923" y="434.8545">archive(String):Board</text></g><!--class Board--><g id="elem_Board"><rect codeLine="13" fill="#F1F1F1" height="284.4219" id="Board" rx="2.5" ry="2.5" style="stroke:#181818;stroke-width:0.5;" width="352" x="923" y="691.2969"/><ellipse cx="1073.25" cy="711.4297" fill="#ADD1B2" rx="11" ry="11" style="stroke:#181818;stroke-width:1.0;"/><path d="M1076.2188,717.0703 Q1075.6406,717.3672 1075,717.5078 Q1074.3594,717.6641 1073.6563,717.6641 Q1071.1563,717.6641 1069.8281,716.0234 Q1068.5156,714.3672 1068.5156,711.2422 Q1068.5156,708.1172 1069.8281,706.4609 Q1071.1563,704.8047 1073.6563,704.8047 Q1074.3594,704.8047 1075,704.9609 Q1075.6563,705.1172 1076.2188,705.4141 L1076.2188,708.1328 Q1075.5938,707.5547 1075,707.2891 Q1074.4063,707.0078 1073.7813,707.0078 Q1072.4375,707.0078 1071.75,708.0859 Q1071.0625,709.1484 1071.0625,711.2422 Q1071.0625,713.3359 1071.75,714.4141 Q1072.4375,715.4766 1073.7813,715.4766 Q1074.4063,715.4766 1075,715.2109 Q1075.5938,714.9297 1076.2188,714.3516 L1076.2188,717.0703 Z " fill="#000000"/><text fill="#000000" font-family="sans-serif" font-size="12" font-style="italic" lengthAdjust="spacing" textLength="38" x="1096.25" y="707.4355">&#171;root&#187;</text><text fill="#000000" font-family="sans-serif" font-size="14" lengthAdjust="spacing" textLength="43" x="1093.75" y="723.2607">Board</text><line style="stroke:#181818;stroke-width:0.5;" x1="924" x2="1274" y1="731.5625" y2="731.5625"/><rect fill="none" height="6" style="stroke:#C82930;stroke-width:1.0;" width="6" x="931" y="742.2109"/><text fill="#000000" font-family="sans-serif" font-size="14" lengthAdjust="spacing" textLength="53" x="943" y="748.5576">id: long</text><rect fill="none" height="6" style="stroke:#C82930;stroke-width:1.0;" width="6" x="931" y="758.5078"/><text fill="#000000" font-family="sans-serif" font-size="14" lengthAdjust="spacing" textLength="78" x="943" y="764.8545">title: String</text><rect fill="none" height="6" style="stroke:#C82930;stroke-width:1.0;" width="6" x="931" y="774.8047"/><text fill="#000000" font-family="sans-serif" font-size="14" lengthAdjust="spacing" textLength="85" x="943" y="781.1514">state : State</text><rect fill="none" height="6" style="stroke:#C82930;stroke-width:1.0;" width="6" x="931" y="791.1016"/><text fill="#000000" font-family="sans-serif" font-size="14" lengthAdjust="spacing" textLength="316" x="943" y="797.4482">postIts: Map&lt;Pair&lt;Integer, Integer&gt;, PostIt&gt;</text><line style="stroke:#181818;stroke-width:0.5;" x1="924" x2="1274" y1="804.75" y2="804.75"/><ellipse cx="934" cy="818.3984" fill="#84BE84" rx="3" ry="3" style="stroke:#038048;stroke-width:1.0;"/><text fill="#000000" font-family="sans-serif" font-size="14" lengthAdjust="spacing" textLength="137" x="943" y="821.7451">board_title(): String</text><ellipse cx="934" cy="834.6953" fill="#84BE84" rx="3" ry="3" style="stroke:#038048;stroke-width:1.0;"/><text fill="#000000" font-family="sans-serif" font-size="14" lengthAdjust="spacing" textLength="166" x="943" y="838.042">history(): List&lt;Update&gt;</text><ellipse cx="934" cy="850.9922" fill="#84BE84" rx="3" ry="3" style="stroke:#038048;stroke-width:1.0;"/><text fill="#000000" font-family="sans-serif" font-size="14" lengthAdjust="spacing" textLength="204" x="943" y="854.3389">addPostIt(PostIt, int, int): void</text><ellipse cx="934" cy="867.2891" fill="#84BE84" rx="3" ry="3" style="stroke:#038048;stroke-width:1.0;"/><text fill="#000000" font-family="sans-serif" font-size="14" lengthAdjust="spacing" textLength="194" x="943" y="870.6357">removePostIt(int, int): PostIt</text><ellipse cx="934" cy="883.5859" fill="#84BE84" rx="3" ry="3" style="stroke:#038048;stroke-width:1.0;"/><text fill="#000000" font-family="sans-serif" font-size="14" lengthAdjust="spacing" textLength="326" x="943" y="886.9326">postIts(): Map&lt;Pair&lt;Integer, Integer&gt;, PostIt&gt;</text><ellipse cx="934" cy="899.8828" fill="#84BE84" rx="3" ry="3" style="stroke:#038048;stroke-width:1.0;"/><text fill="#000000" font-family="sans-serif" font-size="14" lengthAdjust="spacing" textLength="107" x="943" y="903.2295">identity(): Long</text><ellipse cx="934" cy="916.1797" fill="#84BE84" rx="3" ry="3" style="stroke:#038048;stroke-width:1.0;"/><text fill="#000000" font-family="sans-serif" font-size="14" lengthAdjust="spacing" textLength="67" x="943" y="919.5264">id(): Long</text><ellipse cx="934" cy="932.4766" fill="#84BE84" rx="3" ry="3" style="stroke:#038048;stroke-width:1.0;"/><text fill="#000000" font-family="sans-serif" font-size="14" lengthAdjust="spacing" textLength="132" x="943" y="935.8232">isActive(): boolean</text><ellipse cx="934" cy="948.7734" fill="#84BE84" rx="3" ry="3" style="stroke:#038048;stroke-width:1.0;"/><text fill="#000000" font-family="sans-serif" font-size="14" lengthAdjust="spacing" textLength="162" x="943" y="952.1201">getPostIt(int, int): PostIt</text><ellipse cx="934" cy="965.0703" fill="#84BE84" rx="3" ry="3" style="stroke:#038048;stroke-width:1.0;"/><text fill="#000000" font-family="sans-serif" font-size="14" lengthAdjust="spacing" textLength="164" x="943" y="968.417">isFree(int, int): boolean</text></g><!--class BoardRepository--><g id="elem_BoardRepository"><rect codeLine="29" fill="#F1F1F1" height="88.8594" id="BoardRepository" rx="2.5" ry="2.5" style="stroke:#181818;stroke-width:0.5;" width="404" x="897" y="526.2969"/><ellipse cx="1035.25" cy="546.4297" fill="#B4A7E5" rx="11" ry="11" style="stroke:#181818;stroke-width:1.0;"/><path d="M1031.1719,542.1953 L1031.1719,540.0391 L1038.5625,540.0391 L1038.5625,542.1953 L1036.0938,542.1953 L1036.0938,550.2734 L1038.5625,550.2734 L1038.5625,552.4297 L1031.1719,552.4297 L1031.1719,550.2734 L1033.6406,550.2734 L1033.6406,542.1953 L1031.1719,542.1953 Z " fill="#000000"/><text fill="#000000" font-family="sans-serif" font-size="12" font-style="italic" lengthAdjust="spacing" textLength="83" x="1073.75" y="542.4355">&#171;persistence&#187;</text><text fill="#000000" font-family="sans-serif" font-size="14" font-style="italic" lengthAdjust="spacing" textLength="119" x="1055.75" y="558.2607">BoardRepository</text><line style="stroke:#181818;stroke-width:0.5;" x1="898" x2="1300" y1="566.5625" y2="566.5625"/><line style="stroke:#181818;stroke-width:0.5;" x1="898" x2="1300" y1="574.5625" y2="574.5625"/><ellipse cx="908" cy="588.2109" fill="#84BE84" rx="3" ry="3" style="stroke:#038048;stroke-width:1.0;"/><text fill="#000000" font-family="sans-serif" font-size="14" lengthAdjust="spacing" textLength="378" x="917" y="591.5576">findActiveByOwner(EmailAddress): Optional&lt;Board&gt;</text><ellipse cx="908" cy="604.5078" fill="#84BE84" rx="3" ry="3" style="stroke:#038048;stroke-width:1.0;"/><text fill="#000000" font-family="sans-serif" font-size="14" lengthAdjust="spacing" textLength="138" x="917" y="607.8545">save(Board): Board</text></g><!--class MessageCodesTCP--><g id="elem_MessageCodesTCP"><rect codeLine="36" fill="#F1F1F1" height="80.5938" id="MessageCodesTCP" rx="2.5" ry="2.5" style="stroke:#181818;stroke-width:0.5;" width="176" x="446" y="530.2969"/><ellipse cx="465.95" cy="546.2969" fill="#ADD1B2" rx="11" ry="11" style="stroke:#181818;stroke-width:1.0;"/><path d="M468.9188,551.9375 Q468.3406,552.2344 467.7,552.375 Q467.0594,552.5313 466.3563,552.5313 Q463.8563,552.5313 462.5281,550.8906 Q461.2156,549.2344 461.2156,546.1094 Q461.2156,542.9844 462.5281,541.3281 Q463.8563,539.6719 466.3563,539.6719 Q467.0594,539.6719 467.7,539.8281 Q468.3563,539.9844 468.9188,540.2813 L468.9188,543 Q468.2938,542.4219 467.7,542.1563 Q467.1063,541.875 466.4813,541.875 Q465.1375,541.875 464.45,542.9531 Q463.7625,544.0156 463.7625,546.1094 Q463.7625,548.2031 464.45,549.2813 Q465.1375,550.3438 466.4813,550.3438 Q467.1063,550.3438 467.7,550.0781 Q468.2938,549.7969 468.9188,549.2188 L468.9188,551.9375 Z " fill="#000000"/><text fill="#000000" font-family="sans-serif" font-size="14" lengthAdjust="spacing" textLength="133" x="481.05" y="551.1436">MessageCodesTCP</text><line style="stroke:#181818;stroke-width:0.5;" x1="447" x2="621" y1="562.2969" y2="562.2969"/><ellipse cx="457" cy="575.9453" fill="none" rx="3" ry="3" style="stroke:#038048;stroke-width:1.0;"/><text fill="#000000" font-family="sans-serif" font-size="14" lengthAdjust="spacing" textLength="147" x="466" y="579.292">ACTIVE_BOARDS: int</text><ellipse cx="457" cy="592.2422" fill="none" rx="3" ry="3" style="stroke:#038048;stroke-width:1.0;"/><text fill="#000000" font-family="sans-serif" font-size="14" lengthAdjust="spacing" textLength="150" x="466" y="595.5889">ARCHIVE_BOARD: int</text><line style="stroke:#181818;stroke-width:0.5;" x1="447" x2="621" y1="602.8906" y2="602.8906"/></g><!--class MessageFormatTCP--><g id="elem_MessageFormatTCP"><rect codeLine="41" fill="#F1F1F1" height="129.4844" id="MessageFormatTCP" rx="2.5" ry="2.5" style="stroke:#181818;stroke-width:0.5;" width="308" x="475" y="333.2969"/><ellipse cx="554.75" cy="349.2969" fill="#ADD1B2" rx="11" ry="11" style="stroke:#181818;stroke-width:1.0;"/><path d="M557.7188,354.9375 Q557.1406,355.2344 556.5,355.375 Q555.8594,355.5313 555.1563,355.5313 Q552.6563,355.5313 551.3281,353.8906 Q550.0156,352.2344 550.0156,349.1094 Q550.0156,345.9844 551.3281,344.3281 Q552.6563,342.6719 555.1563,342.6719 Q555.8594,342.6719 556.5,342.8281 Q557.1563,342.9844 557.7188,343.2813 L557.7188,346 Q557.0938,345.4219 556.5,345.1563 Q555.9063,344.875 555.2813,344.875 Q553.9375,344.875 553.25,345.9531 Q552.5625,347.0156 552.5625,349.1094 Q552.5625,351.2031 553.25,352.2813 Q553.9375,353.3438 555.2813,353.3438 Q555.9063,353.3438 556.5,353.0781 Q557.0938,352.7969 557.7188,352.2188 L557.7188,354.9375 Z " fill="#000000"/><text fill="#000000" font-family="sans-serif" font-size="14" lengthAdjust="spacing" textLength="140" x="575.25" y="354.1436">MessageFormatTCP</text><line style="stroke:#181818;stroke-width:0.5;" x1="476" x2="782" y1="365.2969" y2="365.2969"/><line style="stroke:#181818;stroke-width:0.5;" x1="476" x2="782" y1="373.2969" y2="373.2969"/><ellipse cx="486" cy="386.9453" fill="#84BE84" rx="3" ry="3" style="stroke:#038048;stroke-width:1.0;"/><text fill="#000000" font-family="sans-serif" font-size="14" lengthAdjust="spacing" textLength="238" x="495" y="390.292">sendMessage(int, int, byte[]): void</text><ellipse cx="486" cy="403.2422" fill="#84BE84" rx="3" ry="3" style="stroke:#038048;stroke-width:1.0;"/><text fill="#000000" font-family="sans-serif" font-size="14" lengthAdjust="spacing" textLength="281" x="495" y="406.5889">sendMessage(int, int, byte[], Long): void</text><ellipse cx="486" cy="419.5391" fill="#84BE84" rx="3" ry="3" style="stroke:#038048;stroke-width:1.0;"/><text fill="#000000" font-family="sans-serif" font-size="14" lengthAdjust="spacing" textLength="239" x="495" y="422.8857">sendMessage(int, int, String): void</text><ellipse cx="486" cy="435.8359" fill="#84BE84" rx="3" ry="3" style="stroke:#038048;stroke-width:1.0;"/><text fill="#000000" font-family="sans-serif" font-size="14" lengthAdjust="spacing" textLength="282" x="495" y="439.1826">sendMessage(int, int, String, Long): void</text><ellipse cx="486" cy="452.1328" fill="#84BE84" rx="3" ry="3" style="stroke:#038048;stroke-width:1.0;"/><text fill="#000000" font-family="sans-serif" font-size="14" lengthAdjust="spacing" textLength="203" x="495" y="455.4795">readMessage(): MessageTCP</text></g><!--class MessageTCP--><g id="elem_MessageTCP"><rect codeLine="49" fill="#F1F1F1" height="96.8906" id="MessageTCP" rx="2.5" ry="2.5" style="stroke:#181818;stroke-width:0.5;" width="143" x="657.5" y="522.2969"/><ellipse cx="682.4" cy="538.2969" fill="#ADD1B2" rx="11" ry="11" style="stroke:#181818;stroke-width:1.0;"/><path d="M685.3688,543.9375 Q684.7906,544.2344 684.15,544.375 Q683.5094,544.5313 682.8063,544.5313 Q680.3063,544.5313 678.9781,542.8906 Q677.6656,541.2344 677.6656,538.1094 Q677.6656,534.9844 678.9781,533.3281 Q680.3063,531.6719 682.8063,531.6719 Q683.5094,531.6719 684.15,531.8281 Q684.8063,531.9844 685.3688,532.2813 L685.3688,535 Q684.7438,534.4219 684.15,534.1563 Q683.5563,533.875 682.9313,533.875 Q681.5875,533.875 680.9,534.9531 Q680.2125,536.0156 680.2125,538.1094 Q680.2125,540.2031 680.9,541.2813 Q681.5875,542.3438 682.9313,542.3438 Q683.5563,542.3438 684.15,542.0781 Q684.7438,541.7969 685.3688,541.2188 L685.3688,543.9375 Z " fill="#000000"/><text fill="#000000" font-family="sans-serif" font-size="14" lengthAdjust="spacing" textLength="89" x="698.6" y="543.1436">MessageTCP</text><line style="stroke:#181818;stroke-width:0.5;" x1="658.5" x2="799.5" y1="554.2969" y2="554.2969"/><line style="stroke:#181818;stroke-width:0.5;" x1="658.5" x2="799.5" y1="562.2969" y2="562.2969"/><ellipse cx="668.5" cy="575.9453" fill="#84BE84" rx="3" ry="3" style="stroke:#038048;stroke-width:1.0;"/><text fill="#000000" font-family="sans-serif" font-size="14" lengthAdjust="spacing" textLength="117" x="677.5" y="579.292">sessionID(): long</text><ellipse cx="668.5" cy="592.2422" fill="#84BE84" rx="3" ry="3" style="stroke:#038048;stroke-width:1.0;"/><text fill="#000000" font-family="sans-serif" font-size="14" lengthAdjust="spacing" textLength="92" x="677.5" y="595.5889">data(): byte[]</text><ellipse cx="668.5" cy="608.5391" fill="#84BE84" rx="3" ry="3" style="stroke:#038048;stroke-width:1.0;"/><text fill="#000000" font-family="sans-serif" font-size="14" lengthAdjust="spacing" textLength="72" x="677.5" y="611.8857">code(): int</text></g><!--class ArchiveBoardTCPServerController--><g id="elem_ArchiveBoardTCPServerController"><rect codeLine="56" fill="#F1F1F1" height="88.8594" id="ArchiveBoardTCPServerController" rx="2.5" ry="2.5" style="stroke:#181818;stroke-width:0.5;" width="290" x="484" y="137.2969"/><ellipse cx="506.2" cy="157.4297" fill="#ADD1B2" rx="11" ry="11" style="stroke:#181818;stroke-width:1.0;"/><path d="M509.1688,163.0703 Q508.5906,163.3672 507.95,163.5078 Q507.3094,163.6641 506.6063,163.6641 Q504.1063,163.6641 502.7781,162.0234 Q501.4656,160.3672 501.4656,157.2422 Q501.4656,154.1172 502.7781,152.4609 Q504.1063,150.8047 506.6063,150.8047 Q507.3094,150.8047 507.95,150.9609 Q508.6063,151.1172 509.1688,151.4141 L509.1688,154.1328 Q508.5438,153.5547 507.95,153.2891 Q507.3563,153.0078 506.7313,153.0078 Q505.3875,153.0078 504.7,154.0859 Q504.0125,155.1484 504.0125,157.2422 Q504.0125,159.3359 504.7,160.4141 Q505.3875,161.4766 506.7313,161.4766 Q507.3563,161.4766 507.95,161.2109 Q508.5438,160.9297 509.1688,160.3516 L509.1688,163.0703 Z " fill="#000000"/><text fill="#000000" font-family="sans-serif" font-size="12" font-style="italic" lengthAdjust="spacing" textLength="141" x="572.3" y="153.4355">&#171;TCP Server Controller&#187;</text><text fill="#000000" font-family="sans-serif" font-size="14" lengthAdjust="spacing" textLength="242" x="521.8" y="169.2607">ArchiveBoardTCPServerController</text><line style="stroke:#181818;stroke-width:0.5;" x1="485" x2="773" y1="177.5625" y2="177.5625"/><line style="stroke:#181818;stroke-width:0.5;" x1="485" x2="773" y1="185.5625" y2="185.5625"/><ellipse cx="495" cy="199.2109" fill="#84BE84" rx="3" ry="3" style="stroke:#038048;stroke-width:1.0;"/><text fill="#000000" font-family="sans-serif" font-size="14" lengthAdjust="spacing" textLength="264" x="504" y="202.5576">listActiveBoards(MessageTCP): String</text><ellipse cx="495" cy="215.5078" fill="#84BE84" rx="3" ry="3" style="stroke:#038048;stroke-width:1.0;"/><text fill="#000000" font-family="sans-serif" font-size="14" lengthAdjust="spacing" textLength="234" x="504" y="218.8545">archiveBoard(MessageTCP): void</text></g><!--class ArchiveBoardTCPClientController--><g id="elem_ArchiveBoardTCPClientController"><rect codeLine="63" fill="#F1F1F1" height="88.8594" id="ArchiveBoardTCPClientController" rx="2.5" ry="2.5" style="stroke:#181818;stroke-width:0.5;" width="280" x="62" y="353.2969"/><ellipse cx="82.4" cy="373.4297" fill="#ADD1B2" rx="11" ry="11" style="stroke:#181818;stroke-width:1.0;"/><path d="M85.3688,379.0703 Q84.7906,379.3672 84.15,379.5078 Q83.5094,379.6641 82.8063,379.6641 Q80.3063,379.6641 78.9781,378.0234 Q77.6656,376.3672 77.6656,373.2422 Q77.6656,370.1172 78.9781,368.4609 Q80.3063,366.8047 82.8063,366.8047 Q83.5094,366.8047 84.15,366.9609 Q84.8063,367.1172 85.3688,367.4141 L85.3688,370.1328 Q84.7438,369.5547 84.15,369.2891 Q83.5563,369.0078 82.9313,369.0078 Q81.5875,369.0078 80.9,370.0859 Q80.2125,371.1484 80.2125,373.2422 Q80.2125,375.3359 80.9,376.4141 Q81.5875,377.4766 82.9313,377.4766 Q83.5563,377.4766 84.15,377.2109 Q84.7438,376.9297 85.3688,376.3516 L85.3688,379.0703 Z " fill="#000000"/><text fill="#000000" font-family="sans-serif" font-size="12" font-style="italic" lengthAdjust="spacing" textLength="136" x="147.6" y="369.4355">&#171;TCP Client Controller&#187;</text><text fill="#000000" font-family="sans-serif" font-size="14" lengthAdjust="spacing" textLength="236" x="97.6" y="385.2607">ArchiveBoardTCPClientController</text><line style="stroke:#181818;stroke-width:0.5;" x1="63" x2="341" y1="393.5625" y2="393.5625"/><line style="stroke:#181818;stroke-width:0.5;" x1="63" x2="341" y1="401.5625" y2="401.5625"/><ellipse cx="73" cy="415.2109" fill="#84BE84" rx="3" ry="3" style="stroke:#038048;stroke-width:1.0;"/><text fill="#000000" font-family="sans-serif" font-size="14" lengthAdjust="spacing" textLength="254" x="82" y="418.5576">listActiveBoards(): Iterable&lt;String&gt;</text><ellipse cx="73" cy="431.5078" fill="#84BE84" rx="3" ry="3" style="stroke:#038048;stroke-width:1.0;"/><text fill="#000000" font-family="sans-serif" font-size="14" lengthAdjust="spacing" textLength="187" x="82" y="434.8545">archiveBoard(String): void</text></g><!--class ArchiveBoardUI--><g id="elem_ArchiveBoardUI"><rect codeLine="68" fill="#F1F1F1" height="56.2656" id="ArchiveBoardUI" rx="2.5" ry="2.5" style="stroke:#181818;stroke-width:0.5;" width="143" x="130.5" y="153.7969"/><ellipse cx="145.5" cy="173.9297" fill="#ADD1B2" rx="11" ry="11" style="stroke:#181818;stroke-width:1.0;"/><path d="M148.4688,179.5703 Q147.8906,179.8672 147.25,180.0078 Q146.6094,180.1641 145.9063,180.1641 Q143.4063,180.1641 142.0781,178.5234 Q140.7656,176.8672 140.7656,173.7422 Q140.7656,170.6172 142.0781,168.9609 Q143.4063,167.3047 145.9063,167.3047 Q146.6094,167.3047 147.25,167.4609 Q147.9063,167.6172 148.4688,167.9141 L148.4688,170.6328 Q147.8438,170.0547 147.25,169.7891 Q146.6563,169.5078 146.0313,169.5078 Q144.6875,169.5078 144,170.5859 Q143.3125,171.6484 143.3125,173.7422 Q143.3125,175.8359 144,176.9141 Q144.6875,177.9766 146.0313,177.9766 Q146.6563,177.9766 147.25,177.7109 Q147.8438,177.4297 148.4688,176.8516 L148.4688,179.5703 Z " fill="#000000"/><text fill="#000000" font-family="sans-serif" font-size="12" font-style="italic" lengthAdjust="spacing" textLength="90" x="170" y="169.9355">&#171;presentation&#187;</text><text fill="#000000" font-family="sans-serif" font-size="14" lengthAdjust="spacing" textLength="111" x="159.5" y="185.7607">ArchiveBoardUI</text><line style="stroke:#181818;stroke-width:0.5;" x1="131.5" x2="272.5" y1="194.0625" y2="194.0625"/><line style="stroke:#181818;stroke-width:0.5;" x1="131.5" x2="272.5" y1="202.0625" y2="202.0625"/></g><!--link ArchiveBoardController to BoardRepository--><g id="link_ArchiveBoardController_BoardRepository"><path codeLine="74" d="M1092,442.3469 C1092,442.3469 1092,521.0969 1092,521.0969 " fill="none" id="ArchiveBoardController-to-BoardRepository" style="stroke:#181818;stroke-width:1.0;stroke-dasharray:7.0,7.0;"/><polygon fill="#181818" points="1092,526.0969,1096,517.0969,1092,521.0969,1088,517.0969,1092,526.0969" style="stroke:#181818;stroke-width:1.0;"/></g><!--link ArchiveBoardUI to ArchiveBoardTCPClientController--><g id="link_ArchiveBoardUI_ArchiveBoardTCPClientController"><path codeLine="75" d="M202,210.0369 C202,210.0369 202,348.0169 202,348.0169 " fill="none" id="ArchiveBoardUI-to-ArchiveBoardTCPClientController" style="stroke:#181818;stroke-width:1.0;"/><polygon fill="#181818" points="202,353.0169,206,344.0169,202,348.0169,198,344.0169,202,353.0169" style="stroke:#181818;stroke-width:1.0;"/></g><!--link client to common--><g id="link_client_common"><path codeLine="76" d="M374.0921,182.2969 C374.1693,182.2969 374.2469,182.2969 374.3249,182.2969 C374.9489,182.2969 375.5993,182.2969 376.273,182.2969 C381.6622,182.2969 388.5394,182.2969 395.3138,182.2969 C408.8625,182.2969 422,182.2969 422,182.2969 C422,182.2969 422,232.8569 422,284.9969 C422,286.6263 422,288.2572 422,289.8881 " fill="none" id="client-to-common" style="stroke:#181818;stroke-width:1.0;stroke-dasharray:7.0,7.0;"/><polygon fill="#181818" points="422,289.8881,426,280.8881,422,284.8881,418,280.8881,422,289.8881" style="stroke:#181818;stroke-width:1.0;"/></g><!--link server to common--><g id="link_server_common"><path codeLine="77" d="M449,250.4845 C449,250.8688 449,251.2538 449,251.6397 C449,253.1829 449,254.7381 449,256.3037 C449,262.5663 449,268.9963 449,275.4976 C449,278.7483 449,282.0168 449,285.2911 C449,286.9282 449,288.5668 449,290.2054 " fill="none" id="server-to-common" style="stroke:#181818;stroke-width:1.0;stroke-dasharray:7.0,7.0;"/><polygon fill="#181818" points="449,290.2054,453,281.2054,449,285.2054,445,281.2054,449,290.2054" style="stroke:#181818;stroke-width:1.0;"/></g><!--link MessageFormatTCP to MessageTCP--><g id="link_MessageFormatTCP_MessageTCP"><path codeLine="78" d="M720.25,462.7069 C720.25,462.7069 720.25,517.2869 720.25,517.2869 " fill="none" id="MessageFormatTCP-to-MessageTCP" style="stroke:#181818;stroke-width:1.0;stroke-dasharray:7.0,7.0;"/><polygon fill="#181818" points="720.25,522.2869,724.25,513.2869,720.25,517.2869,716.25,513.2869,720.25,522.2869" style="stroke:#181818;stroke-width:1.0;"/></g><!--link MessageFormatTCP to MessageCodesTCP--><g id="link_MessageFormatTCP_MessageCodesTCP"><path codeLine="79" d="M548.5,462.7069 C548.5,462.7069 548.5,525.1569 548.5,525.1569 " fill="none" id="MessageFormatTCP-to-MessageCodesTCP" style="stroke:#181818;stroke-width:1.0;stroke-dasharray:7.0,7.0;"/><polygon fill="#181818" points="548.5,530.1569,552.5,521.1569,548.5,525.1569,544.5,521.1569,548.5,530.1569" style="stroke:#181818;stroke-width:1.0;"/></g><!--link BoardRepository to Board--><g id="link_BoardRepository_Board"><path codeLine="80" d="M1099,615.3269 C1099,615.3269 1099,686.1269 1099,686.1269 " fill="none" id="BoardRepository-to-Board" style="stroke:#181818;stroke-width:1.0;"/><polygon fill="#181818" points="1099,691.1269,1103,682.1269,1099,686.1269,1095,682.1269,1099,691.1269" style="stroke:#181818;stroke-width:1.0;"/></g><!--link ArchiveBoardTCPServerController to ArchiveBoardController--><g id="link_ArchiveBoardTCPServerController_ArchiveBoardController"><path codeLine="81" d="M774.23,182.2969 C910.01,182.2969 1092,182.2969 1092,182.2969 C1092,182.2969 1092,348.1469 1092,348.1469 " fill="none" id="ArchiveBoardTCPServerController-to-ArchiveBoardController" style="stroke:#181818;stroke-width:1.0;stroke-dasharray:7.0,7.0;"/><polygon fill="#181818" points="1092,353.1469,1096,344.1469,1092,348.1469,1088,344.1469,1092,353.1469" style="stroke:#181818;stroke-width:1.0;"/></g><!--SRC=[bLLDR-8m4BtdL_YsL0LwZr0aIbijqbQjeDtBQbMPU0fM7TkolQnGnN_ViHqIaxJGpO54y_bcvitmRUESjldLbHPKkZ-L69UgkYe5jNR4E5qRMcMEEm5aQieDtmAvLjImp2bDd28hvPog2EC6IiULpEmRbvgY5n5SWjjf8CguZShmqRHye-iw0ddFGfP3t22SAUcC4W8CcKm8rLhmalguf2ZGWOJd4aDRDyLyjPSTt5QKYobZ1gozoCdSWQ4h0PEWBXe_6bCDbivmkRx8OobUjm-_4L24X_cDKWuJ7_AE26Sv4Kgk6q7eJ4vYl4Pg7NL0l1ZVZLGhw-REvkIUwiaZvMOobmxMO8Qa_YY6v34OjOXN7ijBI3Euw2Iw91liWp8xh_c1dvDdpJ1ZKYzZCU0WleQ4o_Y37bl5MMDfe59Rg8qJeoXfpEeQVCB_gO8pa5X31AgI0ZZhYsoSh5Uib190PQDRWpiBaTix0v0Qf57Yd54EvfMMDHKNW7Lntqa_TGt6OZD1elg8TQzSiffrkuU_4aoNTW_QKvMABkqinNA238rIpktRdNYQFVhDgv3gxmaNxp4ogcUAWKMJ1CrqzZJ_UVjo_J1Tt2npNrAhMio-DxfMXTbwWU-KgQWxZcn1ibhTj758LZi7ltvtUNFATXW6-pMFmqP-tVRZw0Peu-596Z-nlayxqAtTMfpX_CPxYvINk5aqS3BKreXBd8mNjqtU7ytKWjdYDKjdcXuyD5a6Y-FBvq55EKaKfszWMq__KD0avR5Xqxq-6mN7hJs5V1Oi-iYZ_El8quiTWHSV8- -pv6YYARpdUTXbt4o4qlaB2QLcsIT_FEDnqJqBMIVoQ5ISwqMMjD17RFSxIsZHqVIMqkiJ3f_I7qv4rZrf7coGZUFfEKS_ZFbnPtpF_W40]--></g></svg>