<?xml version="1.0" encoding="us-ascii" standalone="no"?><svg xmlns="http://www.w3.org/2000/svg" xmlns:xlink="http://www.w3.org/1999/xlink" contentStyleType="text/css" height="911px" preserveAspectRatio="none" style="width:1581px;height:911px;background:#FFFFFF;" version="1.1" viewBox="0 0 1581 911" width="1581px" zoomAndPan="magnify"><defs/><g><text fill="#000000" font-family="sans-serif" font-size="14" font-weight="bold" lengthAdjust="spacing" textLength="295" x="636" y="32.9951">Domain Model Extract-Archive Board</text><!--cluster Board--><g id="cluster_Board"><path d="M969.5,251.2969 L1037.5,251.2969 A3.75,3.75 0 0 1 1040,253.7969 L1047,293.5938 L1571.5,293.5938 A2.5,2.5 0 0 1 1574,296.0938 L1574,901.7969 A2.5,2.5 0 0 1 1571.5,904.2969 L969.5,904.2969 A2.5,2.5 0 0 1 967,901.7969 L967,253.7969 A2.5,2.5 0 0 1 969.5,251.2969 " fill="#D3D3D3" style="stroke:#000000;stroke-width:1.5;"/><line style="stroke:#000000;stroke-width:1.5;" x1="967" x2="1047" y1="293.5938" y2="293.5938"/><text fill="#000000" font-family="sans-serif" font-size="14" font-weight="bold" lengthAdjust="spacing" textLength="47" x="981" y="276.292">Board</text></g><!--cluster eCourseUser--><g id="cluster_eCourseUser"><path d="M8.5,63.2969 L130.5,63.2969 A3.75,3.75 0 0 1 133,65.7969 L140,105.5938 L940.5,105.5938 A2.5,2.5 0 0 1 943,108.0938 L943,444.2969 A2.5,2.5 0 0 1 940.5,446.7969 L8.5,446.7969 A2.5,2.5 0 0 1 6,444.2969 L6,65.7969 A2.5,2.5 0 0 1 8.5,63.2969 " fill="#D3D3D3" style="stroke:#000000;stroke-width:1.5;"/><line style="stroke:#000000;stroke-width:1.5;" x1="6" x2="140" y1="105.5938" y2="105.5938"/><text fill="#000000" font-family="sans-serif" font-size="14" font-weight="bold" lengthAdjust="spacing" textLength="101" x="20" y="88.292">eCourseUser</text></g><!--class Board--><g id="elem_Board"><rect codeLine="19" fill="#F1F1F1" height="160.8594" id="Board" rx="2.5" ry="2.5" style="stroke:#181818;stroke-width:0.5;" width="139" x="1143.5" y="306.2969"/><text fill="#000000" font-family="sans-serif" font-size="12" font-style="italic" lengthAdjust="spacing" textLength="38" x="1194" y="332.4355">&#171;root&#187;</text><text fill="#000000" font-family="sans-serif" font-size="14" lengthAdjust="spacing" textLength="43" x="1191.5" y="368.2607">Board</text><line style="stroke:#181818;stroke-width:0.5;" x1="1144.5" x2="1281.5" y1="386.5625" y2="386.5625"/><rect fill="none" height="6" style="stroke:#C82930;stroke-width:1.0;" width="6" x="1151.5" y="407.2109"/><text fill="#000000" font-family="sans-serif" font-size="14" lengthAdjust="spacing" textLength="93" x="1173.5" y="413.5576">maxColumns</text><rect fill="none" height="6" style="stroke:#C82930;stroke-width:1.0;" width="6" x="1151.5" y="443.5078"/><text fill="#000000" font-family="sans-serif" font-size="14" lengthAdjust="spacing" textLength="68" x="1173.5" y="449.8545">maxRows</text></g><!--class Title--><g id="elem_Title"><rect codeLine="24" fill="#F1F1F1" height="88.2656" id="Title" rx="2.5" ry="2.5" style="stroke:#181818;stroke-width:0.5;" width="109" x="983.5" y="603.7969"/><text fill="#000000" font-family="sans-serif" font-size="12" font-style="italic" lengthAdjust="spacing" textLength="87" x="994.5" y="629.9355">&#171;value object&#187;</text><text fill="#000000" font-family="sans-serif" font-size="14" lengthAdjust="spacing" textLength="31" x="1022.5" y="665.7607">Title</text><line style="stroke:#181818;stroke-width:0.5;" x1="984.5" x2="1091.5" y1="684.0625" y2="684.0625"/></g><!--class Column--><g id="elem_Column"><rect codeLine="26" fill="#F1F1F1" height="160.8594" id="Column" rx="2.5" ry="2.5" style="stroke:#181818;stroke-width:0.5;" width="81" x="1172.5" y="567.2969"/><text fill="#000000" font-family="sans-serif" font-size="12" font-style="italic" lengthAdjust="spacing" textLength="49" x="1188.5" y="593.4355">&#171;entity&#187;</text><text fill="#000000" font-family="sans-serif" font-size="14" lengthAdjust="spacing" textLength="55" x="1185.5" y="629.2607">Column</text><line style="stroke:#181818;stroke-width:0.5;" x1="1173.5" x2="1252.5" y1="647.5625" y2="647.5625"/><rect fill="none" height="6" style="stroke:#C82930;stroke-width:1.0;" width="6" x="1180.5" y="668.2109"/><text fill="#000000" font-family="sans-serif" font-size="14" lengthAdjust="spacing" textLength="27" x="1202.5" y="674.5576">title</text><rect fill="none" height="6" style="stroke:#C82930;stroke-width:1.0;" width="6" x="1180.5" y="704.5078"/><text fill="#000000" font-family="sans-serif" font-size="14" lengthAdjust="spacing" textLength="13" x="1202.5" y="710.8545">id</text></g><!--class Row--><g id="elem_Row"><rect codeLine="31" fill="#F1F1F1" height="160.8594" id="Row" rx="2.5" ry="2.5" style="stroke:#181818;stroke-width:0.5;" width="73" x="1333.5" y="567.2969"/><text fill="#000000" font-family="sans-serif" font-size="12" font-style="italic" lengthAdjust="spacing" textLength="49" x="1345.5" y="593.4355">&#171;entity&#187;</text><text fill="#000000" font-family="sans-serif" font-size="14" lengthAdjust="spacing" textLength="30" x="1355" y="629.2607">Row</text><line style="stroke:#181818;stroke-width:0.5;" x1="1334.5" x2="1405.5" y1="647.5625" y2="647.5625"/><rect fill="none" height="6" style="stroke:#C82930;stroke-width:1.0;" width="6" x="1341.5" y="668.2109"/><text fill="#000000" font-family="sans-serif" font-size="14" lengthAdjust="spacing" textLength="27" x="1363.5" y="674.5576">title</text><rect fill="none" height="6" style="stroke:#C82930;stroke-width:1.0;" width="6" x="1341.5" y="704.5078"/><text fill="#000000" font-family="sans-serif" font-size="14" lengthAdjust="spacing" textLength="13" x="1363.5" y="710.8545">id</text></g><!--class State--><g id="elem_State"><rect codeLine="36" fill="#F1F1F1" height="88.2656" id="State" rx="2.5" ry="2.5" style="stroke:#181818;stroke-width:0.5;" width="71" x="1486.5" y="603.7969"/><text fill="#000000" font-family="sans-serif" font-size="12" font-style="italic" lengthAdjust="spacing" textLength="49" x="1497.5" y="629.9355">&#171;enum&#187;</text><text fill="#000000" font-family="sans-serif" font-size="14" lengthAdjust="spacing" textLength="37" x="1503.5" y="665.7607">State</text><line style="stroke:#181818;stroke-width:0.5;" x1="1487.5" x2="1556.5" y1="684.0625" y2="684.0625"/></g><g id="elem_GMN8"><path d="M1461.5,828.2969 L1461.5,888.5625 A0,0 0 0 0 1461.5,888.5625 L1558.5,888.5625 A0,0 0 0 0 1558.5,888.5625 L1558.5,838.2969 L1548.5,828.2969 L1526,828.2969 L1522,691.9269 L1518,828.2969 L1461.5,828.2969 A0,0 0 0 0 1461.5,828.2969 " fill="#A9A9A9" style="stroke:#181818;stroke-width:0.5;"/><path d="M1548.5,828.2969 L1548.5,838.2969 L1558.5,838.2969 L1548.5,828.2969 " fill="#A9A9A9" style="stroke:#181818;stroke-width:0.5;"/><text fill="#000000" font-family="sans-serif" font-size="13" lengthAdjust="spacing" textLength="40" x="1477.5" y="855.3638">active</text><text fill="#000000" font-family="sans-serif" font-size="13" lengthAdjust="spacing" textLength="56" x="1477.5" y="870.4966">archived</text></g><!--class eCourseUser--><g id="elem_eCourseUser"><rect codeLine="44" fill="#F1F1F1" height="88.2656" id="eCourseUser" rx="2.5" ry="2.5" style="stroke:#181818;stroke-width:0.5;" width="117" x="490.5" y="118.2969"/><text fill="#000000" font-family="sans-serif" font-size="12" font-style="italic" lengthAdjust="spacing" textLength="38" x="530" y="144.4355">&#171;root&#187;</text><text fill="#000000" font-family="sans-serif" font-size="14" lengthAdjust="spacing" textLength="91" x="503.5" y="180.2607">eCourseUser</text><line style="stroke:#181818;stroke-width:0.5;" x1="491.5" x2="606.5" y1="198.5625" y2="198.5625"/></g><!--class ShortName--><g id="elem_ShortName"><rect codeLine="47" fill="#F1F1F1" height="88.2656" id="ShortName" rx="2.5" ry="2.5" style="stroke:#181818;stroke-width:0.5;" width="109" x="22.5" y="342.7969"/><text fill="#000000" font-family="sans-serif" font-size="12" font-style="italic" lengthAdjust="spacing" textLength="87" x="33.5" y="368.9355">&#171;value object&#187;</text><text fill="#000000" font-family="sans-serif" font-size="14" lengthAdjust="spacing" textLength="80" x="37" y="404.7607">ShortName</text><line style="stroke:#181818;stroke-width:0.5;" x1="23.5" x2="130.5" y1="423.0625" y2="423.0625"/></g><!--class FullName--><g id="elem_FullName"><rect codeLine="48" fill="#F1F1F1" height="88.2656" id="FullName" rx="2.5" ry="2.5" style="stroke:#181818;stroke-width:0.5;" width="109" x="211.5" y="342.7969"/><text fill="#000000" font-family="sans-serif" font-size="12" font-style="italic" lengthAdjust="spacing" textLength="87" x="222.5" y="368.9355">&#171;value object&#187;</text><text fill="#000000" font-family="sans-serif" font-size="14" lengthAdjust="spacing" textLength="67" x="232.5" y="404.7607">FullName</text><line style="stroke:#181818;stroke-width:0.5;" x1="212.5" x2="319.5" y1="423.0625" y2="423.0625"/></g><!--class BirthDate--><g id="elem_BirthDate"><rect codeLine="49" fill="#F1F1F1" height="88.2656" id="BirthDate" rx="2.5" ry="2.5" style="stroke:#181818;stroke-width:0.5;" width="109" x="400.5" y="342.7969"/><text fill="#000000" font-family="sans-serif" font-size="12" font-style="italic" lengthAdjust="spacing" textLength="87" x="411.5" y="368.9355">&#171;value object&#187;</text><text fill="#000000" font-family="sans-serif" font-size="14" lengthAdjust="spacing" textLength="68" x="421" y="404.7607">BirthDate</text><line style="stroke:#181818;stroke-width:0.5;" x1="401.5" x2="508.5" y1="423.0625" y2="423.0625"/></g><!--class Email--><g id="elem_Email"><rect codeLine="50" fill="#F1F1F1" height="88.2656" id="Email" rx="2.5" ry="2.5" style="stroke:#181818;stroke-width:0.5;" width="109" x="589.5" y="342.7969"/><text fill="#000000" font-family="sans-serif" font-size="12" font-style="italic" lengthAdjust="spacing" textLength="87" x="600.5" y="368.9355">&#171;value object&#187;</text><text fill="#000000" font-family="sans-serif" font-size="14" lengthAdjust="spacing" textLength="40" x="624" y="404.7607">Email</text><line style="stroke:#181818;stroke-width:0.5;" x1="590.5" x2="697.5" y1="423.0625" y2="423.0625"/></g><!--class TaxPayerNumber--><g id="elem_TaxPayerNumber"><rect codeLine="51" fill="#F1F1F1" height="88.2656" id="TaxPayerNumber" rx="2.5" ry="2.5" style="stroke:#181818;stroke-width:0.5;" width="149" x="778.5" y="342.7969"/><text fill="#000000" font-family="sans-serif" font-size="12" font-style="italic" lengthAdjust="spacing" textLength="87" x="809.5" y="368.9355">&#171;value object&#187;</text><text fill="#000000" font-family="sans-serif" font-size="14" lengthAdjust="spacing" textLength="123" x="791.5" y="404.7607">TaxPayerNumber</text><line style="stroke:#181818;stroke-width:0.5;" x1="779.5" x2="926.5" y1="423.0625" y2="423.0625"/></g><!--link eCourseUser to Board--><g id="link_eCourseUser_Board"><path codeLine="53" d="M601.5,206.4069 C601.5,254.6769 601.5,325.2969 601.5,325.2969 C601.5,325.2969 1138.45,325.2969 1138.45,325.2969 " fill="none" id="eCourseUser-to-Board" style="stroke:#181818;stroke-width:1.0;stroke-dasharray:7.0,7.0;"/><polygon fill="#181818" points="1143.45,325.2969,1134.45,321.2969,1138.45,325.2969,1134.45,329.2969,1143.45,325.2969" style="stroke:#181818;stroke-width:1.0;"/><text fill="#000000" font-family="sans-serif" font-size="13" lengthAdjust="spacing" textLength="48" x="751.53" y="311.3638">archive</text></g><!--link eCourseUser to ShortName--><g id="link_eCourseUser_ShortName"><path codeLine="54" d="M490.18,148.2969 C363.65,148.2969 77,148.2969 77,148.2969 C77,148.2969 77,337.7769 77,337.7769 " fill="none" id="eCourseUser-to-ShortName" style="stroke:#181818;stroke-width:1.0;"/><polygon fill="#181818" points="77,342.7769,81,333.7769,77,337.7769,73,333.7769,77,342.7769" style="stroke:#181818;stroke-width:1.0;"/><text fill="#000000" font-family="sans-serif" font-size="13" lengthAdjust="spacing" textLength="23" x="154.85" y="134.3638">has</text></g><!--link eCourseUser to FullName--><g id="link_eCourseUser_FullName"><path codeLine="55" d="M490.36,177.2969 C407.47,177.2969 266,177.2969 266,177.2969 C266,177.2969 266,337.6269 266,337.6269 " fill="none" id="eCourseUser-to-FullName" style="stroke:#181818;stroke-width:1.0;"/><polygon fill="#181818" points="266,342.6269,270,333.6269,266,337.6269,262,333.6269,266,342.6269" style="stroke:#181818;stroke-width:1.0;"/><text fill="#000000" font-family="sans-serif" font-size="13" lengthAdjust="spacing" textLength="23" x="264.02" y="163.3638">has</text></g><!--link eCourseUser to BirthDate--><g id="link_eCourseUser_BirthDate"><path codeLine="56" d="M500,206.3869 C500,206.3869 500,337.4269 500,337.4269 " fill="none" id="eCourseUser-to-BirthDate" style="stroke:#181818;stroke-width:1.0;"/><polygon fill="#181818" points="500,342.4269,504,333.4269,500,337.4269,496,333.4269,500,342.4269" style="stroke:#181818;stroke-width:1.0;"/><text fill="#000000" font-family="sans-serif" font-size="13" lengthAdjust="spacing" textLength="23" x="466" y="257.9738">has</text></g><!--link eCourseUser to Email--><g id="link_eCourseUser_Email"><path codeLine="57" d="M595.5,206.3869 C595.5,206.3869 595.5,337.4269 595.5,337.4269 " fill="none" id="eCourseUser-to-Email" style="stroke:#181818;stroke-width:1.0;"/><polygon fill="#181818" points="595.5,342.4269,599.5,333.4269,595.5,337.4269,591.5,333.4269,595.5,342.4269" style="stroke:#181818;stroke-width:1.0;"/><text fill="#000000" font-family="sans-serif" font-size="13" lengthAdjust="spacing" textLength="23" x="561.5" y="257.9738">has</text></g><!--link eCourseUser to TaxPayerNumber--><g id="link_eCourseUser_TaxPayerNumber"><path codeLine="58" d="M607.61,162.2969 C695.95,162.2969 853,162.2969 853,162.2969 C853,162.2969 853,337.7069 853,337.7069 " fill="none" id="eCourseUser-to-TaxPayerNumber" style="stroke:#181818;stroke-width:1.0;"/><polygon fill="#181818" points="853,342.7069,857,333.7069,853,337.7069,849,333.7069,853,342.7069" style="stroke:#181818;stroke-width:1.0;"/><text fill="#000000" font-family="sans-serif" font-size="13" lengthAdjust="spacing" textLength="23" x="784.01" y="148.3638">has</text></g><!--link Board to Title--><g id="link_Board_Title"><path codeLine="59" d="M1158,467.3869 C1158,544.2269 1158,648.2969 1158,648.2969 C1158,648.2969 1097.73,648.2969 1097.73,648.2969 " fill="none" id="Board-to-Title" style="stroke:#181818;stroke-width:1.0;"/><polygon fill="#181818" points="1092.73,648.2969,1101.73,652.2969,1097.73,648.2969,1101.73,644.2969,1092.73,648.2969" style="stroke:#181818;stroke-width:1.0;"/><text fill="#000000" font-family="sans-serif" font-size="13" lengthAdjust="spacing" textLength="23" x="1124" y="574.0438">has</text></g><!--link Board to Column--><g id="link_Board_Column"><path codeLine="60" d="M1213,467.5869 C1213,467.5869 1213,561.9369 1213,561.9369 " fill="none" id="Board-to-Column" style="stroke:#181818;stroke-width:1.0;"/><polygon fill="#181818" points="1213,566.9369,1217,557.9369,1213,561.9369,1209,557.9369,1213,566.9369" style="stroke:#181818;stroke-width:1.0;"/><text fill="#000000" font-family="sans-serif" font-size="13" lengthAdjust="spacing" textLength="23" x="1179" y="500.8338">has</text><text fill="#000000" font-family="sans-serif" font-size="13" lengthAdjust="spacing" textLength="7" x="1194.9242" y="546.1766">*</text></g><!--link Board to Row--><g id="link_Board_Row"><path codeLine="61" d="M1268,467.3869 C1268,544.2269 1268,648.2969 1268,648.2969 C1268,648.2969 1328.46,648.2969 1328.46,648.2969 " fill="none" id="Board-to-Row" style="stroke:#181818;stroke-width:1.0;"/><polygon fill="#181818" points="1333.46,648.2969,1324.46,644.2969,1328.46,648.2969,1324.46,652.2969,1333.46,648.2969" style="stroke:#181818;stroke-width:1.0;"/><text fill="#000000" font-family="sans-serif" font-size="13" lengthAdjust="spacing" textLength="23" x="1279" y="574.1438">has</text><text fill="#000000" font-family="sans-serif" font-size="13" lengthAdjust="spacing" textLength="7" x="1308.4849" y="632.6762">*</text></g><!--link Board to State--><g id="link_Board_State"><path codeLine="62" d="M1282.73,387.2969 C1373.87,387.2969 1522,387.2969 1522,387.2969 C1522,387.2969 1522,598.6069 1522,598.6069 " fill="none" id="Board-to-State" style="stroke:#181818;stroke-width:1.0;"/><polygon fill="#181818" points="1522,603.6069,1526,594.6069,1522,598.6069,1518,594.6069,1522,603.6069" style="stroke:#181818;stroke-width:1.0;"/><text fill="#000000" font-family="sans-serif" font-size="13" lengthAdjust="spacing" textLength="23" x="1474.02" y="373.3638">has</text></g><!--SRC=[bLF1Rjim3BtxAuZiDY11Wrss8Z3GD2smmu9XxJv0iTXOYomQCjqbAFBlewmuKPisncp0bgZ7H_BvcGrRXD62AcKS_22D5kwsx5N1unjVbEOPOKxAwr5cyOc12RnPbmpQU2pOaCkOwX1U4JDLIRpP65ShhogebTR6hM5wbGITr6gmXgzfq2kt2S7fLHfTUshhxwv4RrYv0c6Q75hZa7Sr0dakAJaG7dc7LW9TohSanhagDe7NwLkovE7JpRTml-gwsAWrmai6SftX5r_2tPtTa-C7tecGAx8wssTPQJH2ONnXCQuhbEPqa_MadQQ1kR2gQU8MPZDFn7b-A3c6IcsbMbkvvXJuHN_3JehqoO_TDvpDdfLjHORL7_a0WII1H1R1e6F3kpplAt38FQoDViqhbVupuu4LOvVJLiSEdAZTkuEU3fZ89YuJWyLbD5iat1zrmbjgVOE_6_GdjPBWKRENDvsKOeUbgivraQPwq7rhxH1cRiHMYpZMXw0x-Nli9S2ZslvKE_JBjbfrJPyXzraorIITS3B9epyctVEwb-h3XF4uJ-Q_Xb8r5x576OQX9pM6iL6KOTmRRM92Cd0itEsZqzz7Z3wF3gY3sOTWmTwNYaMZHiG_]--></g></svg>