<?xml version="1.0" encoding="UTF-8" standalone="no"?><svg xmlns="http://www.w3.org/2000/svg" xmlns:xlink="http://www.w3.org/1999/xlink" contentStyleType="text/css" height="1012px" preserveAspectRatio="none" style="width:2017px;height:1012px;background:#FFFFFF;" version="1.1" viewBox="0 0 2017 1012" width="2017px" zoomAndPan="magnify"><defs/><g><text fill="#000000" font-family="sans-serif" font-size="14" font-weight="bold" lengthAdjust="spacing" textLength="287" x="858" y="32.9951">Domain Model Extract-Archive Board</text><!--cluster Board--><g id="cluster_Board"><path d="M1257.5,268.2969 L1345.5,268.2969 A3.75,3.75 0 0 1 1348,270.7969 L1355,317.5781 L2007.5,317.5781 A2.5,2.5 0 0 1 2010,320.0781 L2010,1002.7969 A2.5,2.5 0 0 1 2007.5,1005.2969 L1257.5,1005.2969 A2.5,2.5 0 0 1 1255,1002.7969 L1255,270.7969 A2.5,2.5 0 0 1 1257.5,268.2969 " fill="#D3D3D3" style="stroke:#000000;stroke-width:1.5;"/><line style="stroke:#000000;stroke-width:1.5;" x1="1255" x2="1355" y1="317.5781" y2="317.5781"/><text fill="#000000" font-family="sans-serif" font-size="20" font-weight="bold" lengthAdjust="spacing" textLength="67" x="1269" y="298.8613">Board</text></g><!--cluster eCourseUser--><g id="cluster_eCourseUser"><path d="M8.5,63.2969 L174.5,63.2969 A3.75,3.75 0 0 1 177,65.7969 L184,112.5781 L1228.5,112.5781 A2.5,2.5 0 0 1 1231,115.0781 L1231,491.7969 A2.5,2.5 0 0 1 1228.5,494.2969 L8.5,494.2969 A2.5,2.5 0 0 1 6,491.7969 L6,65.7969 A2.5,2.5 0 0 1 8.5,63.2969 " fill="#D3D3D3" style="stroke:#000000;stroke-width:1.5;"/><line style="stroke:#000000;stroke-width:1.5;" x1="6" x2="184" y1="112.5781" y2="112.5781"/><text fill="#000000" font-family="sans-serif" font-size="20" font-weight="bold" lengthAdjust="spacing" textLength="145" x="20" y="93.8613">eCourseUser</text></g><!--class Board--><g id="elem_Board"><rect codeLine="19" fill="#F1F1F1" height="191.125" id="Board" rx="2.5" ry="2.5" style="stroke:#181818;stroke-width:0.5;" width="178" x="1483" y="330.2969"/><text fill="#000000" font-family="sans-serif" font-size="20" font-style="italic" lengthAdjust="spacing" textLength="64" x="1540" y="363.8613">«root»</text><text fill="#000000" font-family="sans-serif" font-size="20" lengthAdjust="spacing" textLength="59" x="1542.5" y="407.1426">Board</text><line style="stroke:#181818;stroke-width:0.5;" x1="1484" x2="1660" y1="426.8594" y2="426.8594"/><rect fill="none" height="6" style="stroke:#C82930;stroke-width:1.0;" width="6" x="1491" y="451"/><text fill="#000000" font-family="sans-serif" font-size="20" lengthAdjust="spacing" textLength="131" x="1514" y="459.4238">maxColumns</text><rect fill="none" height="6" style="stroke:#C82930;stroke-width:1.0;" width="6" x="1491" y="494.2813"/><text fill="#000000" font-family="sans-serif" font-size="20" lengthAdjust="spacing" textLength="96" x="1514" y="502.7051">maxRows</text></g><!--class Title--><g id="elem_Title"><rect codeLine="24" fill="#F1F1F1" height="104.5625" id="Title" rx="2.5" ry="2.5" style="stroke:#181818;stroke-width:0.5;" width="169" x="1270.5" y="664.2969"/><text fill="#000000" font-family="sans-serif" font-size="20" font-style="italic" lengthAdjust="spacing" textLength="147" x="1281.5" y="697.8613">«value object»</text><text fill="#000000" font-family="sans-serif" font-size="20" lengthAdjust="spacing" textLength="44" x="1333" y="741.1426">Title</text><line style="stroke:#181818;stroke-width:0.5;" x1="1271.5" x2="1438.5" y1="760.8594" y2="760.8594"/></g><!--class Column--><g id="elem_Column"><rect codeLine="26" fill="#F1F1F1" height="191.125" id="Column" rx="2.5" ry="2.5" style="stroke:#181818;stroke-width:0.5;" width="105" x="1519.5" y="621.2969"/><text fill="#000000" font-family="sans-serif" font-size="20" font-style="italic" lengthAdjust="spacing" textLength="83" x="1530.5" y="654.8613">«entity»</text><text fill="#000000" font-family="sans-serif" font-size="20" lengthAdjust="spacing" textLength="78" x="1533" y="698.1426">Column</text><line style="stroke:#181818;stroke-width:0.5;" x1="1520.5" x2="1623.5" y1="717.8594" y2="717.8594"/><rect fill="none" height="6" style="stroke:#C82930;stroke-width:1.0;" width="6" x="1527.5" y="742"/><text fill="#000000" font-family="sans-serif" font-size="20" lengthAdjust="spacing" textLength="40" x="1550.5" y="750.4238">title</text><rect fill="none" height="6" style="stroke:#C82930;stroke-width:1.0;" width="6" x="1527.5" y="785.2813"/><text fill="#000000" font-family="sans-serif" font-size="20" lengthAdjust="spacing" textLength="19" x="1550.5" y="793.7051">id</text></g><!--class Row--><g id="elem_Row"><rect codeLine="31" fill="#F1F1F1" height="191.125" id="Row" rx="2.5" ry="2.5" style="stroke:#181818;stroke-width:0.5;" width="105" x="1704.5" y="621.2969"/><text fill="#000000" font-family="sans-serif" font-size="20" font-style="italic" lengthAdjust="spacing" textLength="83" x="1715.5" y="654.8613">«entity»</text><text fill="#000000" font-family="sans-serif" font-size="20" lengthAdjust="spacing" textLength="43" x="1735.5" y="698.1426">Row</text><line style="stroke:#181818;stroke-width:0.5;" x1="1705.5" x2="1808.5" y1="717.8594" y2="717.8594"/><rect fill="none" height="6" style="stroke:#C82930;stroke-width:1.0;" width="6" x="1712.5" y="742"/><text fill="#000000" font-family="sans-serif" font-size="20" lengthAdjust="spacing" textLength="40" x="1735.5" y="750.4238">title</text><rect fill="none" height="6" style="stroke:#C82930;stroke-width:1.0;" width="6" x="1712.5" y="785.2813"/><text fill="#000000" font-family="sans-serif" font-size="20" lengthAdjust="spacing" textLength="19" x="1735.5" y="793.7051">id</text></g><!--class State--><g id="elem_State"><rect codeLine="36" fill="#F1F1F1" height="104.5625" id="State" rx="2.5" ry="2.5" style="stroke:#181818;stroke-width:0.5;" width="104" x="1890" y="664.2969"/><text fill="#000000" font-family="sans-serif" font-size="20" font-style="italic" lengthAdjust="spacing" textLength="82" x="1901" y="697.8613">«enum»</text><text fill="#000000" font-family="sans-serif" font-size="20" lengthAdjust="spacing" textLength="53" x="1915.5" y="741.1426">State</text><line style="stroke:#181818;stroke-width:0.5;" x1="1891" x2="1993" y1="760.8594" y2="760.8594"/></g><g id="elem_GMN8"><path d="M1866.5,912.2969 L1866.5,988.8594 A0,0 0 0 0 1866.5,988.8594 L1993.5,988.8594 A0,0 0 0 0 1993.5,988.8594 L1993.5,922.2969 L1983.5,912.2969 L1945.75,912.2969 L1941.75,769.3069 L1937.75,912.2969 L1866.5,912.2969 A0,0 0 0 0 1866.5,912.2969 " fill="#A9A9A9" style="stroke:#181818;stroke-width:0.5;"/><path d="M1983.5,912.2969 L1983.5,922.2969 L1993.5,922.2969 L1983.5,912.2969 " fill="#A9A9A9" style="stroke:#181818;stroke-width:0.5;"/><text fill="#000000" font-family="sans-serif" font-size="20" lengthAdjust="spacing" textLength="60" x="1882.5" y="945.8613">active</text><text fill="#000000" font-family="sans-serif" font-size="20" lengthAdjust="spacing" textLength="86" x="1882.5" y="969.1426">archived</text></g><!--class eCourseUser--><g id="elem_eCourseUser"><rect codeLine="44" fill="#F1F1F1" height="104.5625" id="eCourseUser" rx="2.5" ry="2.5" style="stroke:#181818;stroke-width:0.5;" width="152" x="652" y="125.2969"/><text fill="#000000" font-family="sans-serif" font-size="20" font-style="italic" lengthAdjust="spacing" textLength="64" x="696" y="158.8613">«root»</text><text fill="#000000" font-family="sans-serif" font-size="20" lengthAdjust="spacing" textLength="126" x="665" y="202.1426">eCourseUser</text><line style="stroke:#181818;stroke-width:0.5;" x1="653" x2="803" y1="221.8594" y2="221.8594"/></g><!--class ShortName--><g id="elem_ShortName"><rect codeLine="47" fill="#F1F1F1" height="104.5625" id="ShortName" rx="2.5" ry="2.5" style="stroke:#181818;stroke-width:0.5;" width="169" x="21.5" y="373.2969"/><text fill="#000000" font-family="sans-serif" font-size="20" font-style="italic" lengthAdjust="spacing" textLength="147" x="32.5" y="406.8613">«value object»</text><text fill="#000000" font-family="sans-serif" font-size="20" lengthAdjust="spacing" textLength="113" x="49.5" y="450.1426">ShortName</text><line style="stroke:#181818;stroke-width:0.5;" x1="22.5" x2="189.5" y1="469.8594" y2="469.8594"/></g><!--class FullName--><g id="elem_FullName"><rect codeLine="48" fill="#F1F1F1" height="104.5625" id="FullName" rx="2.5" ry="2.5" style="stroke:#181818;stroke-width:0.5;" width="169" x="270.5" y="373.2969"/><text fill="#000000" font-family="sans-serif" font-size="20" font-style="italic" lengthAdjust="spacing" textLength="147" x="281.5" y="406.8613">«value object»</text><text fill="#000000" font-family="sans-serif" font-size="20" lengthAdjust="spacing" textLength="96" x="307" y="450.1426">FullName</text><line style="stroke:#181818;stroke-width:0.5;" x1="271.5" x2="438.5" y1="469.8594" y2="469.8594"/></g><!--class BirthDate--><g id="elem_BirthDate"><rect codeLine="49" fill="#F1F1F1" height="104.5625" id="BirthDate" rx="2.5" ry="2.5" style="stroke:#181818;stroke-width:0.5;" width="169" x="519.5" y="373.2969"/><text fill="#000000" font-family="sans-serif" font-size="20" font-style="italic" lengthAdjust="spacing" textLength="147" x="530.5" y="406.8613">«value object»</text><text fill="#000000" font-family="sans-serif" font-size="20" lengthAdjust="spacing" textLength="96" x="556" y="450.1426">BirthDate</text><line style="stroke:#181818;stroke-width:0.5;" x1="520.5" x2="687.5" y1="469.8594" y2="469.8594"/></g><!--class Email--><g id="elem_Email"><rect codeLine="50" fill="#F1F1F1" height="104.5625" id="Email" rx="2.5" ry="2.5" style="stroke:#181818;stroke-width:0.5;" width="169" x="768.5" y="373.2969"/><text fill="#000000" font-family="sans-serif" font-size="20" font-style="italic" lengthAdjust="spacing" textLength="147" x="779.5" y="406.8613">«value object»</text><text fill="#000000" font-family="sans-serif" font-size="20" lengthAdjust="spacing" textLength="57" x="824.5" y="450.1426">Email</text><line style="stroke:#181818;stroke-width:0.5;" x1="769.5" x2="936.5" y1="469.8594" y2="469.8594"/></g><!--class TaxPayerNumber--><g id="elem_TaxPayerNumber"><rect codeLine="51" fill="#F1F1F1" height="104.5625" id="TaxPayerNumber" rx="2.5" ry="2.5" style="stroke:#181818;stroke-width:0.5;" width="197" x="1017.5" y="373.2969"/><text fill="#000000" font-family="sans-serif" font-size="20" font-style="italic" lengthAdjust="spacing" textLength="147" x="1042.5" y="406.8613">«value object»</text><text fill="#000000" font-family="sans-serif" font-size="20" lengthAdjust="spacing" textLength="171" x="1030.5" y="450.1426">TaxPayerNumber</text><line style="stroke:#181818;stroke-width:0.5;" x1="1018.5" x2="1213.5" y1="469.8594" y2="469.8594"/></g><!--link eCourseUser to Board--><g id="link_eCourseUser_Board"><path codeLine="53" d="M792.17,230.6269 C792.17,281.9869 792.17,352.2969 792.17,352.2969 C792.17,352.2969 1477.92,352.2969 1477.92,352.2969 " fill="none" id="eCourseUser-to-Board" style="stroke:#181818;stroke-width:1.0;stroke-dasharray:7.0,7.0;"/><polygon fill="#181818" points="1482.92,352.2969,1473.92,348.2969,1477.92,352.2969,1473.92,356.2969,1482.92,352.2969" style="stroke:#181818;stroke-width:1.0;"/><text fill="#000000" font-family="sans-serif" font-size="20" lengthAdjust="spacing" textLength="73" x="990.21" y="336.8613">archive</text></g><!--link eCourseUser to ShortName--><g id="link_eCourseUser_ShortName"><path codeLine="54" d="M651.73,160.2969 C485.64,160.2969 106,160.2969 106,160.2969 C106,160.2969 106,368.0269 106,368.0269 " fill="none" id="eCourseUser-to-ShortName" style="stroke:#181818;stroke-width:1.0;"/><polygon fill="#181818" points="106,373.0269,110,364.0269,106,368.0269,102,364.0269,106,373.0269" style="stroke:#181818;stroke-width:1.0;"/><text fill="#000000" font-family="sans-serif" font-size="20" lengthAdjust="spacing" textLength="35" x="229" y="144.8613">has</text></g><!--link eCourseUser to FullName--><g id="link_eCourseUser_FullName"><path codeLine="55" d="M651.62,195.2969 C542.49,195.2969 355,195.2969 355,195.2969 C355,195.2969 355,368.2069 355,368.2069 " fill="none" id="eCourseUser-to-FullName" style="stroke:#181818;stroke-width:1.0;"/><polygon fill="#181818" points="355,373.2069,359,364.2069,355,368.2069,351,364.2069,355,373.2069" style="stroke:#181818;stroke-width:1.0;"/><text fill="#000000" font-family="sans-serif" font-size="20" lengthAdjust="spacing" textLength="35" x="370.86" y="179.8613">has</text></g><!--link eCourseUser to BirthDate--><g id="link_eCourseUser_BirthDate"><path codeLine="56" d="M670.25,230.3869 C670.25,230.3869 670.25,368.2769 670.25,368.2769 " fill="none" id="eCourseUser-to-BirthDate" style="stroke:#181818;stroke-width:1.0;"/><polygon fill="#181818" points="670.25,373.2769,674.25,364.2769,670.25,368.2769,666.25,364.2769,670.25,373.2769" style="stroke:#181818;stroke-width:1.0;"/><text fill="#000000" font-family="sans-serif" font-size="20" lengthAdjust="spacing" textLength="35" x="624.25" y="283.9013">has</text></g><!--link eCourseUser to Email--><g id="link_eCourseUser_Email"><path codeLine="57" d="M780.33,230.3869 C780.33,230.3869 780.33,368.2769 780.33,368.2769 " fill="none" id="eCourseUser-to-Email" style="stroke:#181818;stroke-width:1.0;"/><polygon fill="#181818" points="780.33,373.2769,784.33,364.2769,780.33,368.2769,776.33,364.2769,780.33,373.2769" style="stroke:#181818;stroke-width:1.0;"/><text fill="#000000" font-family="sans-serif" font-size="20" lengthAdjust="spacing" textLength="35" x="734.33" y="283.9013">has</text></g><!--link eCourseUser to TaxPayerNumber--><g id="link_eCourseUser_TaxPayerNumber"><path codeLine="58" d="M804.19,178.2969 C917.19,178.2969 1116,178.2969 1116,178.2969 C1116,178.2969 1116,368.0069 1116,368.0069 " fill="none" id="eCourseUser-to-TaxPayerNumber" style="stroke:#181818;stroke-width:1.0;"/><polygon fill="#181818" points="1116,373.0069,1120,364.0069,1116,368.0069,1112,364.0069,1116,373.0069" style="stroke:#181818;stroke-width:1.0;"/><text fill="#000000" font-family="sans-serif" font-size="20" lengthAdjust="spacing" textLength="35" x="1008.95" y="162.8613">has</text></g><!--link Board to Title--><g id="link_Board_Title"><path codeLine="59" d="M1501.25,521.6469 C1501.25,606.6069 1501.25,717.2969 1501.25,717.2969 C1501.25,717.2969 1444.65,717.2969 1444.65,717.2969 " fill="none" id="Board-to-Title" style="stroke:#181818;stroke-width:1.0;"/><polygon fill="#181818" points="1439.65,717.2969,1448.65,721.2969,1444.65,717.2969,1448.65,713.2969,1439.65,717.2969" style="stroke:#181818;stroke-width:1.0;"/><text fill="#000000" font-family="sans-serif" font-size="20" lengthAdjust="spacing" textLength="35" x="1455.25" y="632.3413">has</text></g><!--link Board to Column--><g id="link_Board_Column"><path codeLine="60" d="M1572,521.4869 C1572,521.4869 1572,616.0569 1572,616.0569 " fill="none" id="Board-to-Column" style="stroke:#181818;stroke-width:1.0;"/><polygon fill="#181818" points="1572,621.0569,1576,612.0569,1572,616.0569,1568,612.0569,1572,621.0569" style="stroke:#181818;stroke-width:1.0;"/><text fill="#000000" font-family="sans-serif" font-size="20" lengthAdjust="spacing" textLength="35" x="1526" y="553.3313">has</text><text fill="#000000" font-family="sans-serif" font-size="20" lengthAdjust="spacing" textLength="10" x="1550.9922" y="598.7495">*</text></g><!--link Board to Row--><g id="link_Board_Row"><path codeLine="61" d="M1642.75,521.6469 C1642.75,606.6069 1642.75,717.2969 1642.75,717.2969 C1642.75,717.2969 1699.22,717.2969 1699.22,717.2969 " fill="none" id="Board-to-Row" style="stroke:#181818;stroke-width:1.0;"/><polygon fill="#181818" points="1704.22,717.2969,1695.22,713.2969,1699.22,717.2969,1695.22,721.2969,1704.22,717.2969" style="stroke:#181818;stroke-width:1.0;"/><text fill="#000000" font-family="sans-serif" font-size="20" lengthAdjust="spacing" textLength="35" x="1653.75" y="632.2713">has</text><text fill="#000000" font-family="sans-serif" font-size="20" lengthAdjust="spacing" textLength="10" x="1676.3829" y="700.4422">*</text></g><!--link Board to State--><g id="link_Board_State"><path codeLine="62" d="M1661.1,426.2969 C1770.58,426.2969 1942,426.2969 1942,426.2969 C1942,426.2969 1942,659.1869 1942,659.1869 " fill="none" id="Board-to-State" style="stroke:#181818;stroke-width:1.0;"/><polygon fill="#181818" points="1942,664.1869,1946,655.1869,1942,659.1869,1938,655.1869,1942,664.1869" style="stroke:#181818;stroke-width:1.0;"/><text fill="#000000" font-family="sans-serif" font-size="20" lengthAdjust="spacing" textLength="35" x="1871.99" y="410.8613">has</text></g><!--SRC=[bLDHRzem47xFhpYnjqaWw5ws2aKgfPNsC3IjtGymyK7SEBx8kNImYly-Eqx0BItH4YdOv- - -k_lyKHVALCAAKbDMe0I96z5elYV33-elmjKqOSKQORIaKYW3FqYYXhiTMv7n-CPckNf6M92mSfHet30mWLNRd44gYnahCWbJvSDhOgOoYjTzTQY4bCfiOJQDWiRLgh62ht7G2bFuu6mQHxUMckgxoT4g5YP3c4M7MXdaVOL0bdEA3XoF-_MjUBgORqMC2v4LdjV8Mz9auTFDD_- -wZehn1RX9G7tdE6NN_pRdhM2yju9kIOjaqEIv4eYPCfc6iEwHDUSh9EUjDNKCsTQr7NOmdnkYJXDkv9ZACNELMjAKvy2l-YFtxaYVV9ZUuVp-RFGZPDX_UGkm9D4aC3YC6ZSZU_JjA_Gtd-tLl8rhwlqdnaFB1ZRdAOyTc2SshqxQDDX0fjpcJDOM0Qp1SB3KIUyfSRM-Bj6Ur8h2XurUtdJIUxii1BbkIwkgHvqtsWzX5aePwjb6Ej3q9txz-XBW4Un-odsQ5TDkMwRFaCUacYgIJpXP986VqpQxtKlrOS9ut4QpNyDkQWlOeyo34DFQWnZWoZ3k3VQX8Heu52utGUdluyOVHvrgCxiGp1lxql5Wb43uXy0]--></g></svg>