<?xml version="1.0" encoding="UTF-8" standalone="no"?><svg xmlns="http://www.w3.org/2000/svg" xmlns:xlink="http://www.w3.org/1999/xlink" contentStyleType="text/css" height="1154px" preserveAspectRatio="none" style="width:1652px;height:1154px;background:#FFFFFF;" version="1.1" viewBox="0 0 1652 1154" width="1652px" zoomAndPan="magnify"><defs/><g><text fill="#000000" font-family="sans-serif" font-size="14" font-weight="bold" lengthAdjust="spacing" textLength="111" x="763.5" y="22.9951">Archive Board</text><!--cluster Board--><g id="cluster_Board"><path d="M8.5,309.0137 L76.5,309.0137 A3.75,3.75 0 0 1 79,311.5137 L86,338.2949 L599.5,338.2949 A2.5,2.5 0 0 1 602,340.7949 L602,1145.0137 A2.5,2.5 0 0 1 599.5,1147.5137 L8.5,1147.5137 A2.5,2.5 0 0 1 6,1145.0137 L6,311.5137 A2.5,2.5 0 0 1 8.5,309.0137 " fill="none" style="stroke:#000000;stroke-width:1.5;"/><line style="stroke:#000000;stroke-width:1.5;" x1="6" x2="86" y1="338.2949" y2="338.2949"/><text fill="#000000" font-family="sans-serif" font-size="20" font-weight="bold" lengthAdjust="spacing" textLength="67" x="10" y="329.5781">Board</text></g><!--cluster TCP.common--><g id="cluster_TCP.common"><path d="M636.5,277.5137 L785.5,277.5137 A3.75,3.75 0 0 1 788,280.0137 L795,306.7949 L1156.5,306.7949 A2.5,2.5 0 0 1 1159,309.2949 L1159,695.0137 A2.5,2.5 0 0 1 1156.5,697.5137 L636.5,697.5137 A2.5,2.5 0 0 1 634,695.0137 L634,280.0137 A2.5,2.5 0 0 1 636.5,277.5137 " fill="none" style="stroke:#000000;stroke-width:1.5;"/><line style="stroke:#000000;stroke-width:1.5;" x1="634" x2="795" y1="306.7949" y2="306.7949"/><text fill="#000000" font-family="sans-serif" font-size="20" font-weight="bold" lengthAdjust="spacing" textLength="148" x="638" y="298.0781">TCP.common</text></g><!--cluster TCP.server--><g id="cluster_TCP.server"><path d="M142.5,44.5137 L268.5,44.5137 A3.75,3.75 0 0 1 271,47.0137 L278,73.7949 L606.5,73.7949 A2.5,2.5 0 0 1 609,76.2949 L609,235.0137 A2.5,2.5 0 0 1 606.5,237.5137 L142.5,237.5137 A2.5,2.5 0 0 1 140,235.0137 L140,47.0137 A2.5,2.5 0 0 1 142.5,44.5137 " fill="none" style="stroke:#000000;stroke-width:1.5;"/><line style="stroke:#000000;stroke-width:1.5;" x1="140" x2="278" y1="73.7949" y2="73.7949"/><text fill="#000000" font-family="sans-serif" font-size="20" font-weight="bold" lengthAdjust="spacing" textLength="125" x="144" y="65.0781">TCP.server</text></g><!--cluster TCP.client--><g id="cluster_TCP.client"><path d="M1201.5,67.5137 L1318.5,67.5137 A3.75,3.75 0 0 1 1321,70.0137 L1328,96.7949 L1642.5,96.7949 A2.5,2.5 0 0 1 1645,99.2949 L1645,491.5137 A2.5,2.5 0 0 1 1642.5,494.0137 L1201.5,494.0137 A2.5,2.5 0 0 1 1199,491.5137 L1199,70.0137 A2.5,2.5 0 0 1 1201.5,67.5137 " fill="none" style="stroke:#000000;stroke-width:1.5;"/><line style="stroke:#000000;stroke-width:1.5;" x1="1199" x2="1328" y1="96.7949" y2="96.7949"/><text fill="#000000" font-family="sans-serif" font-size="20" font-weight="bold" lengthAdjust="spacing" textLength="116" x="1203" y="88.0781">TCP.client</text></g><!--class ArchiveBoardController--><g id="elem_ArchiveBoardController"><rect codeLine="9" fill="#F1F1F1" height="119.125" id="ArchiveBoardController" rx="2.5" ry="2.5" style="stroke:#181818;stroke-width:0.5;" width="524" x="52" y="351.0137"/><ellipse cx="193" cy="379.2949" fill="#ADD1B2" rx="12" ry="12" style="stroke:#181818;stroke-width:1.0;"/><path d="M196.0625,386.373 Q195.375,386.7324 194.625,386.9043 Q193.875,387.0762 193.0469,387.0762 Q190.0938,387.0762 188.5313,385.1387 Q186.9844,383.1855 186.9844,379.5137 Q186.9844,375.8418 188.5313,373.9043 Q190.0938,371.9512 193.0469,371.9512 Q193.875,371.9512 194.625,372.123 Q195.3906,372.2949 196.0625,372.6543 L196.0625,375.8574 Q195.3125,375.1699 194.6094,374.8574 Q193.9219,374.5449 193.1719,374.5449 Q191.5938,374.5449 190.7813,375.7949 Q189.9844,377.0449 189.9844,379.5137 Q189.9844,381.9824 190.7813,383.2324 Q191.5938,384.4824 193.1719,384.4824 Q193.9219,384.4824 194.6094,384.1699 Q195.3125,383.8574 196.0625,383.1699 L196.0625,386.373 Z " fill="#000000"/><text fill="#000000" font-family="sans-serif" font-size="20" font-style="italic" lengthAdjust="spacing" textLength="136" x="263.5" y="374.5781">«application»</text><text fill="#000000" font-family="sans-serif" font-size="20" lengthAdjust="spacing" textLength="233" x="215" y="397.8594">ArchiveBoardController</text><line style="stroke:#181818;stroke-width:0.5;" x1="53" x2="575" y1="407.5762" y2="407.5762"/><line style="stroke:#181818;stroke-width:0.5;" x1="53" x2="575" y1="415.5762" y2="415.5762"/><ellipse cx="63" cy="432.7168" fill="#84BE84" rx="3" ry="3" style="stroke:#038048;stroke-width:1.0;"/><text fill="#000000" font-family="sans-serif" font-size="20" lengthAdjust="spacing" textLength="497" x="73" y="438.1406">listActiveBoards(EmailAddress): Iterable&lt;Board&gt;</text><ellipse cx="63" cy="455.998" fill="#84BE84" rx="3" ry="3" style="stroke:#038048;stroke-width:1.0;"/><text fill="#000000" font-family="sans-serif" font-size="20" lengthAdjust="spacing" textLength="216" x="73" y="461.4219">archive(String):Board</text></g><!--class Board--><g id="elem_Board"><rect codeLine="13" fill="#F1F1F1" height="398.5" id="Board" rx="2.5" ry="2.5" style="stroke:#181818;stroke-width:0.5;" width="495" x="56.5" y="733.5137"/><ellipse cx="269.5" cy="761.7949" fill="#ADD1B2" rx="12" ry="12" style="stroke:#181818;stroke-width:1.0;"/><path d="M272.5625,768.873 Q271.875,769.2324 271.125,769.4043 Q270.375,769.5762 269.5469,769.5762 Q266.5938,769.5762 265.0313,767.6387 Q263.4844,765.6855 263.4844,762.0137 Q263.4844,758.3418 265.0313,756.4043 Q266.5938,754.4512 269.5469,754.4512 Q270.375,754.4512 271.125,754.623 Q271.8906,754.7949 272.5625,755.1543 L272.5625,758.3574 Q271.8125,757.6699 271.1094,757.3574 Q270.4219,757.0449 269.6719,757.0449 Q268.0938,757.0449 267.2813,758.2949 Q266.4844,759.5449 266.4844,762.0137 Q266.4844,764.4824 267.2813,765.7324 Q268.0938,766.9824 269.6719,766.9824 Q270.4219,766.9824 271.1094,766.6699 Q271.8125,766.3574 272.5625,765.6699 L272.5625,768.873 Z " fill="#000000"/><text fill="#000000" font-family="sans-serif" font-size="20" font-style="italic" lengthAdjust="spacing" textLength="64" x="289.5" y="757.0781">«root»</text><text fill="#000000" font-family="sans-serif" font-size="20" lengthAdjust="spacing" textLength="59" x="292" y="780.3594">Board</text><line style="stroke:#181818;stroke-width:0.5;" x1="57.5" x2="550.5" y1="790.0762" y2="790.0762"/><rect fill="none" height="6" style="stroke:#C82930;stroke-width:1.0;" width="6" x="64.5" y="804.2168"/><text fill="#000000" font-family="sans-serif" font-size="20" lengthAdjust="spacing" textLength="76" x="77.5" y="812.6406">id: long</text><rect fill="none" height="6" style="stroke:#C82930;stroke-width:1.0;" width="6" x="64.5" y="827.498"/><text fill="#000000" font-family="sans-serif" font-size="20" lengthAdjust="spacing" textLength="114" x="77.5" y="835.9219">title: String</text><rect fill="none" height="6" style="stroke:#C82930;stroke-width:1.0;" width="6" x="64.5" y="850.7793"/><text fill="#000000" font-family="sans-serif" font-size="20" lengthAdjust="spacing" textLength="122" x="77.5" y="859.2031">state : State</text><rect fill="none" height="6" style="stroke:#C82930;stroke-width:1.0;" width="6" x="64.5" y="874.0605"/><text fill="#000000" font-family="sans-serif" font-size="20" lengthAdjust="spacing" textLength="452" x="77.5" y="882.4844">postIts: Map&lt;Pair&lt;Integer, Integer&gt;, PostIt&gt;</text><line style="stroke:#181818;stroke-width:0.5;" x1="57.5" x2="550.5" y1="891.2012" y2="891.2012"/><ellipse cx="67.5" cy="908.3418" fill="#84BE84" rx="3" ry="3" style="stroke:#038048;stroke-width:1.0;"/><text fill="#000000" font-family="sans-serif" font-size="20" lengthAdjust="spacing" textLength="198" x="77.5" y="913.7656">board_title(): String</text><ellipse cx="67.5" cy="931.623" fill="#84BE84" rx="3" ry="3" style="stroke:#038048;stroke-width:1.0;"/><text fill="#000000" font-family="sans-serif" font-size="20" lengthAdjust="spacing" textLength="239" x="77.5" y="937.0469">history(): List&lt;Update&gt;</text><ellipse cx="67.5" cy="954.9043" fill="#84BE84" rx="3" ry="3" style="stroke:#038048;stroke-width:1.0;"/><text fill="#000000" font-family="sans-serif" font-size="20" lengthAdjust="spacing" textLength="299" x="77.5" y="960.3281">addPostIt(PostIt, int, int): void</text><ellipse cx="67.5" cy="978.1855" fill="#84BE84" rx="3" ry="3" style="stroke:#038048;stroke-width:1.0;"/><text fill="#000000" font-family="sans-serif" font-size="20" lengthAdjust="spacing" textLength="282" x="77.5" y="983.6094">removePostIt(int, int): PostIt</text><ellipse cx="67.5" cy="1001.4668" fill="#84BE84" rx="3" ry="3" style="stroke:#038048;stroke-width:1.0;"/><text fill="#000000" font-family="sans-serif" font-size="20" lengthAdjust="spacing" textLength="468" x="77.5" y="1006.8906">postIts(): Map&lt;Pair&lt;Integer, Integer&gt;, PostIt&gt;</text><ellipse cx="67.5" cy="1024.748" fill="#84BE84" rx="3" ry="3" style="stroke:#038048;stroke-width:1.0;"/><text fill="#000000" font-family="sans-serif" font-size="20" lengthAdjust="spacing" textLength="155" x="77.5" y="1030.1719">identity(): Long</text><ellipse cx="67.5" cy="1048.0293" fill="#84BE84" rx="3" ry="3" style="stroke:#038048;stroke-width:1.0;"/><text fill="#000000" font-family="sans-serif" font-size="20" lengthAdjust="spacing" textLength="97" x="77.5" y="1053.4531">id(): Long</text><ellipse cx="67.5" cy="1071.3105" fill="#84BE84" rx="3" ry="3" style="stroke:#038048;stroke-width:1.0;"/><text fill="#000000" font-family="sans-serif" font-size="20" lengthAdjust="spacing" textLength="187" x="77.5" y="1076.7344">isActive(): boolean</text><ellipse cx="67.5" cy="1094.5918" fill="#84BE84" rx="3" ry="3" style="stroke:#038048;stroke-width:1.0;"/><text fill="#000000" font-family="sans-serif" font-size="20" lengthAdjust="spacing" textLength="240" x="77.5" y="1100.0156">getPostIt(int, int): PostIt</text><ellipse cx="67.5" cy="1117.873" fill="#84BE84" rx="3" ry="3" style="stroke:#038048;stroke-width:1.0;"/><text fill="#000000" font-family="sans-serif" font-size="20" lengthAdjust="spacing" textLength="235" x="77.5" y="1123.2969">isFree(int, int): boolean</text></g><!--class BoardRepository--><g id="elem_BoardRepository"><rect codeLine="29" fill="#F1F1F1" height="119.125" id="BoardRepository" rx="2.5" ry="2.5" style="stroke:#181818;stroke-width:0.5;" width="564" x="22" y="554.0137"/><ellipse cx="216.5" cy="582.2949" fill="#B4A7E5" rx="12" ry="12" style="stroke:#181818;stroke-width:1.0;"/><path d="M211.6875,577.748 L211.6875,575.2168 L220.3594,575.2168 L220.3594,577.748 L217.4688,577.748 L217.4688,587.248 L220.3594,587.248 L220.3594,589.7949 L211.6875,589.7949 L211.6875,587.248 L214.5781,587.248 L214.5781,577.748 L211.6875,577.748 Z " fill="#000000"/><text fill="#000000" font-family="sans-serif" font-size="20" font-style="italic" lengthAdjust="spacing" textLength="139" x="252" y="577.5781">«persistence»</text><text fill="#000000" font-family="sans-serif" font-size="20" font-style="italic" lengthAdjust="spacing" textLength="166" x="238.5" y="600.8594">BoardRepository</text><line style="stroke:#181818;stroke-width:0.5;" x1="23" x2="585" y1="610.5762" y2="610.5762"/><line style="stroke:#181818;stroke-width:0.5;" x1="23" x2="585" y1="618.5762" y2="618.5762"/><ellipse cx="33" cy="635.7168" fill="#84BE84" rx="3" ry="3" style="stroke:#038048;stroke-width:1.0;"/><text fill="#000000" font-family="sans-serif" font-size="20" lengthAdjust="spacing" textLength="537" x="43" y="641.1406">findActiveByOwner(EmailAddress): Optional&lt;Board&gt;</text><ellipse cx="33" cy="658.998" fill="#84BE84" rx="3" ry="3" style="stroke:#038048;stroke-width:1.0;"/><text fill="#000000" font-family="sans-serif" font-size="20" lengthAdjust="spacing" textLength="192" x="43" y="664.4219">save(Board): Board</text></g><!--class MessageCodesTCP--><g id="elem_MessageCodesTCP"><rect codeLine="36" fill="#F1F1F1" height="96.5625" id="MessageCodesTCP" rx="2.5" ry="2.5" style="stroke:#181818;stroke-width:0.5;" width="240" x="666" y="565.0137"/><ellipse cx="691.45" cy="582.0137" fill="#ADD1B2" rx="12" ry="12" style="stroke:#181818;stroke-width:1.0;"/><path d="M694.5125,589.0918 Q693.825,589.4512 693.075,589.623 Q692.325,589.7949 691.4969,589.7949 Q688.5438,589.7949 686.9813,587.8574 Q685.4344,585.9043 685.4344,582.2324 Q685.4344,578.5605 686.9813,576.623 Q688.5438,574.6699 691.4969,574.6699 Q692.325,574.6699 693.075,574.8418 Q693.8406,575.0137 694.5125,575.373 L694.5125,578.5762 Q693.7625,577.8887 693.0594,577.5762 Q692.3719,577.2637 691.6219,577.2637 Q690.0438,577.2637 689.2313,578.5137 Q688.4344,579.7637 688.4344,582.2324 Q688.4344,584.7012 689.2313,585.9512 Q690.0438,587.2012 691.6219,587.2012 Q692.3719,587.2012 693.0594,586.8887 Q693.7625,586.5762 694.5125,585.8887 L694.5125,589.0918 Z " fill="#000000"/><text fill="#000000" font-family="sans-serif" font-size="20" lengthAdjust="spacing" textLength="185" x="708.55" y="588.9375">MessageCodesTCP</text><line style="stroke:#181818;stroke-width:0.5;" x1="667" x2="905" y1="599.0137" y2="599.0137"/><ellipse cx="677" cy="616.1543" fill="none" rx="3" ry="3" style="stroke:#038048;stroke-width:1.0;"/><text fill="#000000" font-family="sans-serif" font-size="20" lengthAdjust="spacing" textLength="209" x="687" y="621.5781">ACTIVE_BOARDS: int</text><ellipse cx="677" cy="639.4355" fill="none" rx="3" ry="3" style="stroke:#038048;stroke-width:1.0;"/><text fill="#000000" font-family="sans-serif" font-size="20" lengthAdjust="spacing" textLength="213" x="687" y="644.8594">ARCHIVE_BOARD: int</text><line style="stroke:#181818;stroke-width:0.5;" x1="667" x2="905" y1="653.5762" y2="653.5762"/></g><!--class MessageFormatTCP--><g id="elem_MessageFormatTCP"><rect codeLine="41" fill="#F1F1F1" height="166.4063" id="MessageFormatTCP" rx="2.5" ry="2.5" style="stroke:#181818;stroke-width:0.5;" width="432" x="690" y="327.5137"/><ellipse cx="803.5" cy="344.5137" fill="#ADD1B2" rx="12" ry="12" style="stroke:#181818;stroke-width:1.0;"/><path d="M806.5625,351.5918 Q805.875,351.9512 805.125,352.123 Q804.375,352.2949 803.5469,352.2949 Q800.5938,352.2949 799.0313,350.3574 Q797.4844,348.4043 797.4844,344.7324 Q797.4844,341.0605 799.0313,339.123 Q800.5938,337.1699 803.5469,337.1699 Q804.375,337.1699 805.125,337.3418 Q805.8906,337.5137 806.5625,337.873 L806.5625,341.0762 Q805.8125,340.3887 805.1094,340.0762 Q804.4219,339.7637 803.6719,339.7637 Q802.0938,339.7637 801.2813,341.0137 Q800.4844,342.2637 800.4844,344.7324 Q800.4844,347.2012 801.2813,348.4512 Q802.0938,349.7012 803.6719,349.7012 Q804.4219,349.7012 805.1094,349.3887 Q805.8125,349.0762 806.5625,348.3887 L806.5625,351.5918 Z " fill="#000000"/><text fill="#000000" font-family="sans-serif" font-size="20" lengthAdjust="spacing" textLength="196" x="825.5" y="351.4375">MessageFormatTCP</text><line style="stroke:#181818;stroke-width:0.5;" x1="691" x2="1121" y1="361.5137" y2="361.5137"/><line style="stroke:#181818;stroke-width:0.5;" x1="691" x2="1121" y1="369.5137" y2="369.5137"/><ellipse cx="701" cy="386.6543" fill="#84BE84" rx="3" ry="3" style="stroke:#038048;stroke-width:1.0;"/><text fill="#000000" font-family="sans-serif" font-size="20" lengthAdjust="spacing" textLength="343" x="711" y="392.0781">sendMessage(int, int, byte[]): void</text><ellipse cx="701" cy="409.9355" fill="#84BE84" rx="3" ry="3" style="stroke:#038048;stroke-width:1.0;"/><text fill="#000000" font-family="sans-serif" font-size="20" lengthAdjust="spacing" textLength="404" x="711" y="415.3594">sendMessage(int, int, byte[], Long): void</text><ellipse cx="701" cy="433.2168" fill="#84BE84" rx="3" ry="3" style="stroke:#038048;stroke-width:1.0;"/><text fill="#000000" font-family="sans-serif" font-size="20" lengthAdjust="spacing" textLength="344" x="711" y="438.6406">sendMessage(int, int, String): void</text><ellipse cx="701" cy="456.498" fill="#84BE84" rx="3" ry="3" style="stroke:#038048;stroke-width:1.0;"/><text fill="#000000" font-family="sans-serif" font-size="20" lengthAdjust="spacing" textLength="405" x="711" y="461.9219">sendMessage(int, int, String, Long): void</text><ellipse cx="701" cy="479.7793" fill="#84BE84" rx="3" ry="3" style="stroke:#038048;stroke-width:1.0;"/><text fill="#000000" font-family="sans-serif" font-size="20" lengthAdjust="spacing" textLength="284" x="711" y="485.2031">readMessage(): MessageTCP</text></g><!--class MessageTCP--><g id="elem_MessageTCP"><rect codeLine="49" fill="#F1F1F1" height="119.8438" id="MessageTCP" rx="2.5" ry="2.5" style="stroke:#181818;stroke-width:0.5;" width="194" x="941" y="553.5137"/><ellipse cx="973.2" cy="570.5137" fill="#ADD1B2" rx="12" ry="12" style="stroke:#181818;stroke-width:1.0;"/><path d="M976.2625,577.5918 Q975.575,577.9512 974.825,578.123 Q974.075,578.2949 973.2469,578.2949 Q970.2938,578.2949 968.7313,576.3574 Q967.1844,574.4043 967.1844,570.7324 Q967.1844,567.0605 968.7313,565.123 Q970.2938,563.1699 973.2469,563.1699 Q974.075,563.1699 974.825,563.3418 Q975.5906,563.5137 976.2625,563.873 L976.2625,567.0762 Q975.5125,566.3887 974.8094,566.0762 Q974.1219,565.7637 973.3719,565.7637 Q971.7938,565.7637 970.9813,567.0137 Q970.1844,568.2637 970.1844,570.7324 Q970.1844,573.2012 970.9813,574.4512 Q971.7938,575.7012 973.3719,575.7012 Q974.1219,575.7012 974.8094,575.3887 Q975.5125,575.0762 976.2625,574.3887 L976.2625,577.5918 Z " fill="#000000"/><text fill="#000000" font-family="sans-serif" font-size="20" lengthAdjust="spacing" textLength="124" x="991.8" y="577.4375">MessageTCP</text><line style="stroke:#181818;stroke-width:0.5;" x1="942" x2="1134" y1="587.5137" y2="587.5137"/><line style="stroke:#181818;stroke-width:0.5;" x1="942" x2="1134" y1="595.5137" y2="595.5137"/><ellipse cx="952" cy="612.6543" fill="#84BE84" rx="3" ry="3" style="stroke:#038048;stroke-width:1.0;"/><text fill="#000000" font-family="sans-serif" font-size="20" lengthAdjust="spacing" textLength="167" x="962" y="618.0781">sessionID(): long</text><ellipse cx="952" cy="635.9355" fill="#84BE84" rx="3" ry="3" style="stroke:#038048;stroke-width:1.0;"/><text fill="#000000" font-family="sans-serif" font-size="20" lengthAdjust="spacing" textLength="134" x="962" y="641.3594">data(): byte[]</text><ellipse cx="952" cy="659.2168" fill="#84BE84" rx="3" ry="3" style="stroke:#038048;stroke-width:1.0;"/><text fill="#000000" font-family="sans-serif" font-size="20" lengthAdjust="spacing" textLength="104" x="962" y="664.6406">code(): int</text></g><!--class ArchiveBoardTCPServerController--><g id="elem_ArchiveBoardTCPServerController"><rect codeLine="56" fill="#F1F1F1" height="119.125" id="ArchiveBoardTCPServerController" rx="2.5" ry="2.5" style="stroke:#181818;stroke-width:0.5;" width="402" x="164" y="94.5137"/><ellipse cx="194.85" cy="122.7949" fill="#ADD1B2" rx="12" ry="12" style="stroke:#181818;stroke-width:1.0;"/><path d="M197.9125,129.873 Q197.225,130.2324 196.475,130.4043 Q195.725,130.5762 194.8969,130.5762 Q191.9438,130.5762 190.3813,128.6387 Q188.8344,126.6855 188.8344,123.0137 Q188.8344,119.3418 190.3813,117.4043 Q191.9438,115.4512 194.8969,115.4512 Q195.725,115.4512 196.475,115.623 Q197.2406,115.7949 197.9125,116.1543 L197.9125,119.3574 Q197.1625,118.6699 196.4594,118.3574 Q195.7719,118.0449 195.0219,118.0449 Q193.4438,118.0449 192.6313,119.2949 Q191.8344,120.5449 191.8344,123.0137 Q191.8344,125.4824 192.6313,126.7324 Q193.4438,127.9824 195.0219,127.9824 Q195.7719,127.9824 196.4594,127.6699 Q197.1625,127.3574 197.9125,126.6699 L197.9125,129.873 Z " fill="#000000"/><text fill="#000000" font-family="sans-serif" font-size="20" font-style="italic" lengthAdjust="spacing" textLength="238" x="261.65" y="118.0781">«TCP Server Controller»</text><text fill="#000000" font-family="sans-serif" font-size="20" lengthAdjust="spacing" textLength="335" x="213.15" y="141.3594">ArchiveBoardTCPServerController</text><line style="stroke:#181818;stroke-width:0.5;" x1="165" x2="565" y1="151.0762" y2="151.0762"/><line style="stroke:#181818;stroke-width:0.5;" x1="165" x2="565" y1="159.0762" y2="159.0762"/><ellipse cx="175" cy="176.2168" fill="#84BE84" rx="3" ry="3" style="stroke:#038048;stroke-width:1.0;"/><text fill="#000000" font-family="sans-serif" font-size="20" lengthAdjust="spacing" textLength="375" x="185" y="181.6406">listActiveBoards(MessageTCP): String</text><ellipse cx="175" cy="199.498" fill="#84BE84" rx="3" ry="3" style="stroke:#038048;stroke-width:1.0;"/><text fill="#000000" font-family="sans-serif" font-size="20" lengthAdjust="spacing" textLength="327" x="185" y="204.9219">archiveBoard(MessageTCP): void</text></g><!--class ArchiveBoardTCPClientController--><g id="elem_ArchiveBoardTCPClientController"><rect codeLine="63" fill="#F1F1F1" height="119.125" id="ArchiveBoardTCPClientController" rx="2.5" ry="2.5" style="stroke:#181818;stroke-width:0.5;" width="389" x="1231.5" y="351.0137"/><ellipse cx="1258.75" cy="379.2949" fill="#ADD1B2" rx="12" ry="12" style="stroke:#181818;stroke-width:1.0;"/><path d="M1261.8125,386.373 Q1261.125,386.7324 1260.375,386.9043 Q1259.625,387.0762 1258.7969,387.0762 Q1255.8438,387.0762 1254.2813,385.1387 Q1252.7344,383.1855 1252.7344,379.5137 Q1252.7344,375.8418 1254.2813,373.9043 Q1255.8438,371.9512 1258.7969,371.9512 Q1259.625,371.9512 1260.375,372.123 Q1261.1406,372.2949 1261.8125,372.6543 L1261.8125,375.8574 Q1261.0625,375.1699 1260.3594,374.8574 Q1259.6719,374.5449 1258.9219,374.5449 Q1257.3438,374.5449 1256.5313,375.7949 Q1255.7344,377.0449 1255.7344,379.5137 Q1255.7344,381.9824 1256.5313,383.2324 Q1257.3438,384.4824 1258.9219,384.4824 Q1259.6719,384.4824 1260.3594,384.1699 Q1261.0625,383.8574 1261.8125,383.1699 L1261.8125,386.373 Z " fill="#000000"/><text fill="#000000" font-family="sans-serif" font-size="20" font-style="italic" lengthAdjust="spacing" textLength="232" x="1325.25" y="374.5781">«TCP Client Controller»</text><text fill="#000000" font-family="sans-serif" font-size="20" lengthAdjust="spacing" textLength="330" x="1276.25" y="397.8594">ArchiveBoardTCPClientController</text><line style="stroke:#181818;stroke-width:0.5;" x1="1232.5" x2="1619.5" y1="407.5762" y2="407.5762"/><line style="stroke:#181818;stroke-width:0.5;" x1="1232.5" x2="1619.5" y1="415.5762" y2="415.5762"/><ellipse cx="1242.5" cy="432.7168" fill="#84BE84" rx="3" ry="3" style="stroke:#038048;stroke-width:1.0;"/><text fill="#000000" font-family="sans-serif" font-size="20" lengthAdjust="spacing" textLength="362" x="1252.5" y="438.1406">listActiveBoards(): Iterable&lt;String&gt;</text><ellipse cx="1242.5" cy="455.998" fill="#84BE84" rx="3" ry="3" style="stroke:#038048;stroke-width:1.0;"/><text fill="#000000" font-family="sans-serif" font-size="20" lengthAdjust="spacing" textLength="264" x="1252.5" y="461.4219">archiveBoard(String): void</text></g><!--class ArchiveBoardUI--><g id="elem_ArchiveBoardUI"><rect codeLine="68" fill="#F1F1F1" height="72.5625" id="ArchiveBoardUI" rx="2.5" ry="2.5" style="stroke:#181818;stroke-width:0.5;" width="189" x="1331.5" y="117.5137"/><ellipse cx="1347.5" cy="145.7949" fill="#ADD1B2" rx="12" ry="12" style="stroke:#181818;stroke-width:1.0;"/><path d="M1350.5625,152.873 Q1349.875,153.2324 1349.125,153.4043 Q1348.375,153.5762 1347.5469,153.5762 Q1344.5938,153.5762 1343.0313,151.6387 Q1341.4844,149.6855 1341.4844,146.0137 Q1341.4844,142.3418 1343.0313,140.4043 Q1344.5938,138.4512 1347.5469,138.4512 Q1348.375,138.4512 1349.125,138.623 Q1349.8906,138.7949 1350.5625,139.1543 L1350.5625,142.3574 Q1349.8125,141.6699 1349.1094,141.3574 Q1348.4219,141.0449 1347.6719,141.0449 Q1346.0938,141.0449 1345.2813,142.2949 Q1344.4844,143.5449 1344.4844,146.0137 Q1344.4844,148.4824 1345.2813,149.7324 Q1346.0938,150.9824 1347.6719,150.9824 Q1348.4219,150.9824 1349.1094,150.6699 Q1349.8125,150.3574 1350.5625,149.6699 L1350.5625,152.873 Z " fill="#000000"/><text fill="#000000" font-family="sans-serif" font-size="20" font-style="italic" lengthAdjust="spacing" textLength="151" x="1364.5" y="141.0781">«presentation»</text><text fill="#000000" font-family="sans-serif" font-size="20" lengthAdjust="spacing" textLength="155" x="1362.5" y="164.3594">ArchiveBoardUI</text><line style="stroke:#181818;stroke-width:0.5;" x1="1332.5" x2="1519.5" y1="174.0762" y2="174.0762"/><line style="stroke:#181818;stroke-width:0.5;" x1="1332.5" x2="1519.5" y1="182.0762" y2="182.0762"/></g><!--link ArchiveBoardController to BoardRepository--><g id="link_ArchiveBoardController_BoardRepository"><path codeLine="74" d="M314,470.0537 C314,470.0537 314,548.9837 314,548.9837 " fill="none" id="ArchiveBoardController-to-BoardRepository" style="stroke:#181818;stroke-width:1.0;stroke-dasharray:7.0,7.0;"/><polygon fill="#181818" points="314,553.9837,318,544.9837,314,548.9837,310,544.9837,314,553.9837" style="stroke:#181818;stroke-width:1.0;"/></g><!--link ArchiveBoardUI to ArchiveBoardTCPClientController--><g id="link_ArchiveBoardUI_ArchiveBoardTCPClientController"><path codeLine="75" d="M1426,190.7637 C1426,190.7637 1426,345.5537 1426,345.5537 " fill="none" id="ArchiveBoardUI-to-ArchiveBoardTCPClientController" style="stroke:#181818;stroke-width:1.0;"/><polygon fill="#181818" points="1426,350.5537,1430,341.5537,1426,345.5537,1422,341.5537,1426,350.5537" style="stroke:#181818;stroke-width:1.0;"/></g><!--link TCP.client to TCP.common--><g id="link_TCP.client_TCP.common"><path d="M1198.4397,154.5137 C1198.1473,154.5137 1197.8479,154.5137 1197.5414,154.5137 C1196.9285,154.5137 1196.2875,154.5137 1195.619,154.5137 C1194.282,154.5137 1192.8348,154.5137 1191.2817,154.5137 C1188.1754,154.5137 1184.6451,154.5137 1180.7236,154.5137 C1165.0379,154.5137 1143.0945,154.5137 1117.0016,154.5137 C1064.8156,154.5137 996.0313,154.5137 927.5125,154.5137 C790.475,154.5137 654.5,154.5137 654.5,154.5137 C654.5,154.5137 654.5,170.5137 654.5,194.5137 C654.5,206.5137 654.5,220.5137 654.5,235.5137 C654.5,243.0137 654.5,250.7637 654.5,258.6387 C654.5,262.5762 654.5,266.5449 654.5,270.5293 C654.5,272.5215 654.5,274.5176 654.5,276.5156 " fill="none" id="TCP.client-to-TCP.common" style="stroke:#181818;stroke-width:1.0;stroke-dasharray:7.0,7.0;"/><polygon fill="#181818" points="654.5,276.5156,658.5,267.5156,654.5,271.5156,650.5,267.5156,654.5,276.5156" style="stroke:#181818;stroke-width:1.0;"/></g><!--link TCP.server to TCP.common--><g id="link_TCP.server_TCP.common"><path d="M609.0818,154.5137 C609.145,154.5137 609.2085,154.5137 609.2722,154.5137 C609.527,154.5137 609.7857,154.5137 610.0482,154.5137 C610.5731,154.5137 611.1128,154.5137 611.6649,154.5137 C612.7692,154.5137 613.9234,154.5137 615.1094,154.5137 C617.4813,154.5137 619.98,154.5137 622.46,154.5137 C632.38,154.5137 642,154.5137 642,154.5137 C642,154.5137 642,169.7724 642,192.8393 C642,204.3727 642,217.8582 642,232.3644 C642,239.6175 642,247.1257 642,254.7727 C642,258.5963 642,262.4545 642,266.3328 C642,268.272 642,270.2162 642,272.1636 C642,273.1373 642,274.1118 642,275.0869 C642,275.5744 642,276.0621 642,276.5499 " fill="none" id="TCP.server-to-TCP.common" style="stroke:#181818;stroke-width:1.0;stroke-dasharray:7.0,7.0;"/><polygon fill="#181818" points="642,276.5499,646,267.5499,642,271.5499,638,267.5499,642,276.5499" style="stroke:#181818;stroke-width:1.0;"/></g><!--link MessageFormatTCP to MessageTCP--><g id="link_MessageFormatTCP_MessageTCP"><path codeLine="78" d="M1031.5,493.6637 C1031.5,493.6637 1031.5,548.4737 1031.5,548.4737 " fill="none" id="MessageFormatTCP-to-MessageTCP" style="stroke:#181818;stroke-width:1.0;stroke-dasharray:7.0,7.0;"/><polygon fill="#181818" points="1031.5,553.4737,1035.5,544.4737,1031.5,548.4737,1027.5,544.4737,1031.5,553.4737" style="stroke:#181818;stroke-width:1.0;"/></g><!--link MessageFormatTCP to MessageCodesTCP--><g id="link_MessageFormatTCP_MessageCodesTCP"><path codeLine="79" d="M798,493.6637 C798,493.6637 798,559.8237 798,559.8237 " fill="none" id="MessageFormatTCP-to-MessageCodesTCP" style="stroke:#181818;stroke-width:1.0;stroke-dasharray:7.0,7.0;"/><polygon fill="#181818" points="798,564.8237,802,555.8237,798,559.8237,794,555.8237,798,564.8237" style="stroke:#181818;stroke-width:1.0;"/></g><!--link BoardRepository to Board--><g id="link_BoardRepository_Board"><path codeLine="80" d="M304,673.1437 C304,673.1437 304,728.3337 304,728.3337 " fill="none" id="BoardRepository-to-Board" style="stroke:#181818;stroke-width:1.0;"/><polygon fill="#181818" points="304,733.3337,308,724.3337,304,728.3337,300,724.3337,304,733.3337" style="stroke:#181818;stroke-width:1.0;"/></g><!--link ArchiveBoardTCPServerController to ArchiveBoardController--><g id="link_ArchiveBoardTCPServerController_ArchiveBoardController"><path codeLine="81" d="M365,213.8237 C365,213.8237 365,345.6037 365,345.6037 " fill="none" id="ArchiveBoardTCPServerController-to-ArchiveBoardController" style="stroke:#181818;stroke-width:1.0;stroke-dasharray:7.0,7.0;"/><polygon fill="#181818" points="365,350.6037,369,341.6037,365,345.6037,361,341.6037,365,350.6037" style="stroke:#181818;stroke-width:1.0;"/></g><!--SRC=[bLNVJzim47xFN-6t5T6MQOzH5QaKq2eDWIZiPPgG6n-jXMDRjkdK8VxtdUqqSPDIM1wQw7v-T_VTrJvpgQcXbL3bCp32u8c-27Ubf5lmlq2-VSs-h9tJDZyxqu9AzrA9SQcgir9GQqUCqnKwPuux0MHgoZNV03bNrB3CAKsS8albdAe8umPAnvNCx2ub4Lo2sseWohYrol3Hj7ocgpe2USr2bbtS89mXCgE404Cc4qAr5hoaFYuf2dGWuJd5qDPDCL_jPGUN5ULYofW1QqzoCdTWw5B09AYBne_6L8E5CrokJl9OYjUzXTy8ACB3_4OfXubtUKU4ivm89LUD87Gc9p5U8xMEEY1UZEz6gfLrSsTpSatrv9PoCvbB1oimGr9_54Do6unQn4kFvJ6a6Pnq4fsIDVP1cQtN_C3FoODcc36fbx4OS11VGy9b_46FZUAiiJHGgGtKnebHb3HcTGq-uVzKmHb8h242LKa1dFL5DaxMAvPA2Q2oqQt0VGYHsoi3a1gaKUASKGxcYPOr5Uy0w-A-atxg6ep5Pe94zHxhdhXaDUksDtyac2xjRhIdAXLTsbcAvGGP6gMSUsjtudvswpUlGgg_9boyniYedYa65aqIDDFP_VpdvUFvpVJkOf7xabhLtUnxesjLcAqN-4gPYhhzo1OagzLD6uTakNNmwtUNDyTiXs6md_FORUJdRGz7Dq0R3q_I-8drlTk1RktMuWpd5zvRfBp4pQA1aw6sHbpYPBouRVBRtamjc0rUitIcwS53aqMmsBzy7bIKaqHn_0QszVGF1KrIxXistUkpKN3SscF8Py6YZppAFuyylTWHU74OUPybUnDDuJtCmoxZPYAKpbz8A3NBtldZ6O-Bxbd8Ef57e-AZNcH92tt4Th-pX1OTJMyflJxXy37zxaHatPFcmGRPE9wUZ-Y7CGztnlVi7m00]--></g></svg>