<?xml version="1.0" encoding="UTF-8" standalone="no"?><svg xmlns="http://www.w3.org/2000/svg" xmlns:xlink="http://www.w3.org/1999/xlink" contentStyleType="text/css" height="997px" preserveAspectRatio="none" style="width:1490px;height:997px;background:#FFFFFF;" version="1.1" viewBox="0 0 1490 997" width="1490px" zoomAndPan="magnify"><defs/><g><text fill="#000000" font-family="sans-serif" font-size="14" font-weight="bold" lengthAdjust="spacing" textLength="104" x="686.25" y="22.9951">Create Board</text><!--cluster repositories--><g id="cluster_repositories"><path d="M63,672.7969 L202,672.7969 A3.75,3.75 0 0 1 204.5,675.2969 L211.5,702.0781 L611,702.0781 A2.5,2.5 0 0 1 613.5,704.5781 L613.5,801.2969 A2.5,2.5 0 0 1 611,803.7969 L63,803.7969 A2.5,2.5 0 0 1 60.5,801.2969 L60.5,675.2969 A2.5,2.5 0 0 1 63,672.7969 " fill="none" style="stroke:#000000;stroke-width:1.5;"/><line style="stroke:#000000;stroke-width:1.5;" x1="60.5" x2="211.5" y1="702.0781" y2="702.0781"/><text fill="#000000" font-family="sans-serif" font-size="20" font-weight="bold" lengthAdjust="spacing" textLength="138" x="64.5" y="693.3613">repositories</text></g><!--cluster builder--><g id="cluster_builder"><path d="M640,626.2969 L721,626.2969 A3.75,3.75 0 0 1 723.5,628.7969 L730.5,655.5781 L1481,655.5781 A2.5,2.5 0 0 1 1483.5,658.0781 L1483.5,847.7969 A2.5,2.5 0 0 1 1481,850.2969 L640,850.2969 A2.5,2.5 0 0 1 637.5,847.7969 L637.5,628.7969 A2.5,2.5 0 0 1 640,626.2969 " fill="none" style="stroke:#000000;stroke-width:1.5;"/><line style="stroke:#000000;stroke-width:1.5;" x1="637.5" x2="730.5" y1="655.5781" y2="655.5781"/><text fill="#000000" font-family="sans-serif" font-size="20" font-weight="bold" lengthAdjust="spacing" textLength="80" x="641.5" y="646.8613">builder</text></g><!--cluster infraestructure.persistence--><g id="cluster_infraestructure.persistence"><path d="M347,314.2969 L663,314.2969 A3.75,3.75 0 0 1 665.5,316.7969 L672.5,343.5781 L792,343.5781 A2.5,2.5 0 0 1 794.5,346.0781 L794.5,599.7969 A2.5,2.5 0 0 1 792,602.2969 L347,602.2969 A2.5,2.5 0 0 1 344.5,599.7969 L344.5,316.7969 A2.5,2.5 0 0 1 347,314.2969 " fill="none" style="stroke:#000000;stroke-width:1.5;"/><line style="stroke:#000000;stroke-width:1.5;" x1="344.5" x2="672.5" y1="343.5781" y2="343.5781"/><text fill="#000000" font-family="sans-serif" font-size="20" font-weight="bold" lengthAdjust="spacing" textLength="315" x="348.5" y="334.8613">infraestructure.persistence</text></g><!--class BoardRepository--><g id="elem_BoardRepository"><rect codeLine="9" fill="#F1F1F1" height="73.2813" id="BoardRepository" rx="2.5" ry="2.5" style="stroke:#181818;stroke-width:0.5;" width="207" x="77" y="714.7969"/><ellipse cx="96.15" cy="731.7969" fill="#B4A7E5" rx="12" ry="12" style="stroke:#181818;stroke-width:1.0;"/><path d="M91.3375,727.25 L91.3375,724.7188 L100.0094,724.7188 L100.0094,727.25 L97.1188,727.25 L97.1188,736.75 L100.0094,736.75 L100.0094,739.2969 L91.3375,739.2969 L91.3375,736.75 L94.2281,736.75 L94.2281,727.25 L91.3375,727.25 Z " fill="#000000"/><text fill="#000000" font-family="sans-serif" font-size="20" font-style="italic" lengthAdjust="spacing" textLength="166" x="111.85" y="738.7207">BoardRepository</text><line style="stroke:#181818;stroke-width:0.5;" x1="78" x2="283" y1="748.7969" y2="748.7969"/><line style="stroke:#181818;stroke-width:0.5;" x1="78" x2="283" y1="756.7969" y2="756.7969"/><ellipse cx="88" cy="773.9375" fill="#84BE84" rx="3" ry="3" style="stroke:#038048;stroke-width:1.0;"/><text fill="#000000" font-family="sans-serif" font-size="20" lengthAdjust="spacing" textLength="180" x="98" y="779.3613">save(board) : void</text></g><!--class SharedBoardRepository--><g id="elem_SharedBoardRepository"><rect codeLine="13" fill="#F1F1F1" height="73.2813" id="SharedBoardRepository" rx="2.5" ry="2.5" style="stroke:#181818;stroke-width:0.5;" width="278" x="319.5" y="714.7969"/><ellipse cx="338.65" cy="731.7969" fill="#B4A7E5" rx="12" ry="12" style="stroke:#181818;stroke-width:1.0;"/><path d="M333.8375,727.25 L333.8375,724.7188 L342.5094,724.7188 L342.5094,727.25 L339.6188,727.25 L339.6188,736.75 L342.5094,736.75 L342.5094,739.2969 L333.8375,739.2969 L333.8375,736.75 L336.7281,736.75 L336.7281,727.25 L333.8375,727.25 Z " fill="#000000"/><text fill="#000000" font-family="sans-serif" font-size="20" font-style="italic" lengthAdjust="spacing" textLength="237" x="354.35" y="738.7207">SharedBoardRepository</text><line style="stroke:#181818;stroke-width:0.5;" x1="320.5" x2="596.5" y1="748.7969" y2="748.7969"/><line style="stroke:#181818;stroke-width:0.5;" x1="320.5" x2="596.5" y1="756.7969" y2="756.7969"/><ellipse cx="330.5" cy="773.9375" fill="#84BE84" rx="3" ry="3" style="stroke:#038048;stroke-width:1.0;"/><text fill="#000000" font-family="sans-serif" font-size="20" lengthAdjust="spacing" textLength="251" x="340.5" y="779.3613">save(boardShared) : void</text></g><!--class BoardBuilder--><g id="elem_BoardBuilder"><rect codeLine="18" fill="#F1F1F1" height="166.4063" id="BoardBuilder" rx="2.5" ry="2.5" style="stroke:#181818;stroke-width:0.5;" width="393" x="654" y="668.2969"/><ellipse cx="780.5" cy="685.2969" fill="#B4A7E5" rx="12" ry="12" style="stroke:#181818;stroke-width:1.0;"/><path d="M775.6875,680.75 L775.6875,678.2188 L784.3594,678.2188 L784.3594,680.75 L781.4688,680.75 L781.4688,690.25 L784.3594,690.25 L784.3594,692.7969 L775.6875,692.7969 L775.6875,690.25 L778.5781,690.25 L778.5781,680.75 L775.6875,680.75 Z " fill="#000000"/><text fill="#000000" font-family="sans-serif" font-size="20" font-style="italic" lengthAdjust="spacing" textLength="131" x="802.5" y="692.2207">BoardBuilder</text><line style="stroke:#181818;stroke-width:0.5;" x1="655" x2="1046" y1="702.2969" y2="702.2969"/><line style="stroke:#181818;stroke-width:0.5;" x1="655" x2="1046" y1="710.2969" y2="710.2969"/><ellipse cx="665" cy="727.4375" fill="#84BE84" rx="3" ry="3" style="stroke:#038048;stroke-width:1.0;"/><text fill="#000000" font-family="sans-serif" font-size="20" lengthAdjust="spacing" textLength="366" x="675" y="732.8613">setMaxColumns(maxColumns) : void</text><ellipse cx="665" cy="750.7188" fill="#84BE84" rx="3" ry="3" style="stroke:#038048;stroke-width:1.0;"/><text fill="#000000" font-family="sans-serif" font-size="20" lengthAdjust="spacing" textLength="191" x="675" y="756.1426">setTitle(title) : void</text><ellipse cx="665" cy="774" fill="#84BE84" rx="3" ry="3" style="stroke:#038048;stroke-width:1.0;"/><text fill="#000000" font-family="sans-serif" font-size="20" lengthAdjust="spacing" textLength="348" x="675" y="779.4238">setColumnTitle(columnTitle) : void</text><ellipse cx="665" cy="797.2813" fill="#84BE84" rx="3" ry="3" style="stroke:#038048;stroke-width:1.0;"/><text fill="#000000" font-family="sans-serif" font-size="20" lengthAdjust="spacing" textLength="275" x="675" y="802.7051">setRowTitle(rowTitle) : void</text><ellipse cx="665" cy="820.5625" fill="#84BE84" rx="3" ry="3" style="stroke:#038048;stroke-width:1.0;"/><text fill="#000000" font-family="sans-serif" font-size="20" lengthAdjust="spacing" textLength="216" x="675" y="825.9863">createBoard() : Board</text></g><!--class SharedBoardBuilder--><g id="elem_SharedBoardBuilder"><rect codeLine="25" fill="#F1F1F1" height="119.8438" id="SharedBoardBuilder" rx="2.5" ry="2.5" style="stroke:#181818;stroke-width:0.5;" width="385" x="1082" y="691.2969"/><ellipse cx="1169" cy="708.2969" fill="#B4A7E5" rx="12" ry="12" style="stroke:#181818;stroke-width:1.0;"/><path d="M1164.1875,703.75 L1164.1875,701.2188 L1172.8594,701.2188 L1172.8594,703.75 L1169.9688,703.75 L1169.9688,713.25 L1172.8594,713.25 L1172.8594,715.7969 L1164.1875,715.7969 L1164.1875,713.25 L1167.0781,713.25 L1167.0781,703.75 L1164.1875,703.75 Z " fill="#000000"/><text fill="#000000" font-family="sans-serif" font-size="20" font-style="italic" lengthAdjust="spacing" textLength="202" x="1191" y="715.2207">SharedBoardBuilder</text><line style="stroke:#181818;stroke-width:0.5;" x1="1083" x2="1466" y1="725.2969" y2="725.2969"/><line style="stroke:#181818;stroke-width:0.5;" x1="1083" x2="1466" y1="733.2969" y2="733.2969"/><ellipse cx="1093" cy="750.4375" fill="#84BE84" rx="3" ry="3" style="stroke:#038048;stroke-width:1.0;"/><text fill="#000000" font-family="sans-serif" font-size="20" lengthAdjust="spacing" textLength="224" x="1103" y="755.8613">setBoard(board) : void</text><ellipse cx="1093" cy="773.7188" fill="#84BE84" rx="3" ry="3" style="stroke:#038048;stroke-width:1.0;"/><text fill="#000000" font-family="sans-serif" font-size="20" lengthAdjust="spacing" textLength="326" x="1103" y="779.1426">setPermission(permission) : void</text><ellipse cx="1093" cy="797" fill="#84BE84" rx="3" ry="3" style="stroke:#038048;stroke-width:1.0;"/><text fill="#000000" font-family="sans-serif" font-size="20" lengthAdjust="spacing" textLength="358" x="1103" y="802.4238">createSharedBoard() : BoardShared</text></g><!--class PersistenceContext--><g id="elem_PersistenceContext"><rect codeLine="41" fill="#F1F1F1" height="73.2813" id="PersistenceContext" rx="2.5" ry="2.5" style="stroke:#181818;stroke-width:0.5;" width="343" x="362" y="356.2969"/><ellipse cx="433" cy="373.2969" fill="#ADD1B2" rx="12" ry="12" style="stroke:#181818;stroke-width:1.0;"/><path d="M436.0625,380.375 Q435.375,380.7344 434.625,380.9063 Q433.875,381.0781 433.0469,381.0781 Q430.0938,381.0781 428.5313,379.1406 Q426.9844,377.1875 426.9844,373.5156 Q426.9844,369.8438 428.5313,367.9063 Q430.0938,365.9531 433.0469,365.9531 Q433.875,365.9531 434.625,366.125 Q435.3906,366.2969 436.0625,366.6563 L436.0625,369.8594 Q435.3125,369.1719 434.6094,368.8594 Q433.9219,368.5469 433.1719,368.5469 Q431.5938,368.5469 430.7813,369.7969 Q429.9844,371.0469 429.9844,373.5156 Q429.9844,375.9844 430.7813,377.2344 Q431.5938,378.4844 433.1719,378.4844 Q433.9219,378.4844 434.6094,378.1719 Q435.3125,377.8594 436.0625,377.1719 L436.0625,380.375 Z " fill="#000000"/><text fill="#000000" font-family="sans-serif" font-size="20" lengthAdjust="spacing" textLength="192" x="455" y="380.2207">PersistenceContext</text><line style="stroke:#181818;stroke-width:0.5;" x1="363" x2="704" y1="390.2969" y2="390.2969"/><ellipse cx="373" cy="407.4375" fill="none" rx="3" ry="3" style="stroke:#038048;stroke-width:1.0;"/><text fill="#000000" font-family="sans-serif" font-size="20" lengthAdjust="spacing" textLength="316" x="383" y="412.8613">repositories : RepositoryFactory</text><line style="stroke:#181818;stroke-width:0.5;" x1="363" x2="704" y1="421.5781" y2="421.5781"/></g><!--class RepositoryFactory--><g id="elem_RepositoryFactory"><rect codeLine="45" fill="#F1F1F1" height="96.5625" id="RepositoryFactory" rx="2.5" ry="2.5" style="stroke:#181818;stroke-width:0.5;" width="418" x="360.5" y="489.2969"/><ellipse cx="474" cy="506.2969" fill="#B4A7E5" rx="12" ry="12" style="stroke:#181818;stroke-width:1.0;"/><path d="M469.1875,501.75 L469.1875,499.2188 L477.8594,499.2188 L477.8594,501.75 L474.9688,501.75 L474.9688,511.25 L477.8594,511.25 L477.8594,513.7969 L469.1875,513.7969 L469.1875,511.25 L472.0781,511.25 L472.0781,501.75 L469.1875,501.75 Z " fill="#000000"/><text fill="#000000" font-family="sans-serif" font-size="20" font-style="italic" lengthAdjust="spacing" textLength="182" x="496" y="513.2207">RepositoryFactory</text><line style="stroke:#181818;stroke-width:0.5;" x1="361.5" x2="777.5" y1="523.2969" y2="523.2969"/><line style="stroke:#181818;stroke-width:0.5;" x1="361.5" x2="777.5" y1="531.2969" y2="531.2969"/><ellipse cx="371.5" cy="548.4375" fill="#84BE84" rx="3" ry="3" style="stroke:#038048;stroke-width:1.0;"/><text fill="#000000" font-family="sans-serif" font-size="20" lengthAdjust="spacing" textLength="262" x="381.5" y="553.8613">boards(): BoardRepository</text><ellipse cx="371.5" cy="571.7188" fill="#84BE84" rx="3" ry="3" style="stroke:#038048;stroke-width:1.0;"/><text fill="#000000" font-family="sans-serif" font-size="20" lengthAdjust="spacing" textLength="391" x="381.5" y="577.1426">boardShares(): SharedBoardRepository</text></g><!--class Board--><g id="elem_Board"><rect codeLine="31" fill="#F1F1F1" height="96.5625" id="Board" rx="2.5" ry="2.5" style="stroke:#181818;stroke-width:0.5;" width="751" x="7" y="894.2969"/><ellipse cx="348.5" cy="911.2969" fill="#ADD1B2" rx="12" ry="12" style="stroke:#181818;stroke-width:1.0;"/><path d="M351.5625,918.375 Q350.875,918.7344 350.125,918.9063 Q349.375,919.0781 348.5469,919.0781 Q345.5938,919.0781 344.0313,917.1406 Q342.4844,915.1875 342.4844,911.5156 Q342.4844,907.8438 344.0313,905.9063 Q345.5938,903.9531 348.5469,903.9531 Q349.375,903.9531 350.125,904.125 Q350.8906,904.2969 351.5625,904.6563 L351.5625,907.8594 Q350.8125,907.1719 350.1094,906.8594 Q349.4219,906.5469 348.6719,906.5469 Q347.0938,906.5469 346.2813,907.7969 Q345.4844,909.0469 345.4844,911.5156 Q345.4844,913.9844 346.2813,915.2344 Q347.0938,916.4844 348.6719,916.4844 Q349.4219,916.4844 350.1094,916.1719 Q350.8125,915.8594 351.5625,915.1719 L351.5625,918.375 Z " fill="#000000"/><text fill="#000000" font-family="sans-serif" font-size="20" lengthAdjust="spacing" textLength="59" x="370.5" y="918.2207">Board</text><line style="stroke:#181818;stroke-width:0.5;" x1="8" x2="757" y1="928.2969" y2="928.2969"/><line style="stroke:#181818;stroke-width:0.5;" x1="8" x2="757" y1="936.2969" y2="936.2969"/><ellipse cx="18" cy="953.4375" fill="#84BE84" rx="3" ry="3" style="stroke:#038048;stroke-width:1.0;"/><text fill="#000000" font-family="sans-serif" font-size="20" lengthAdjust="spacing" textLength="724" x="28" y="958.8613">createBoard(maxRows,maxColumns,Title,Column title,Row title) : Board</text><ellipse cx="18" cy="976.7188" fill="#84BE84" rx="3" ry="3" style="stroke:#038048;stroke-width:1.0;"/><text fill="#000000" font-family="sans-serif" font-size="20" lengthAdjust="spacing" textLength="160" x="28" y="982.1426">setState() : void</text></g><!--class BoardShared--><g id="elem_BoardShared"><rect codeLine="35" fill="#F1F1F1" height="73.2813" id="BoardShared" rx="2.5" ry="2.5" style="stroke:#181818;stroke-width:0.5;" width="559" x="894" y="906.2969"/><ellipse cx="1104" cy="923.2969" fill="#ADD1B2" rx="12" ry="12" style="stroke:#181818;stroke-width:1.0;"/><path d="M1107.0625,930.375 Q1106.375,930.7344 1105.625,930.9063 Q1104.875,931.0781 1104.0469,931.0781 Q1101.0938,931.0781 1099.5313,929.1406 Q1097.9844,927.1875 1097.9844,923.5156 Q1097.9844,919.8438 1099.5313,917.9063 Q1101.0938,915.9531 1104.0469,915.9531 Q1104.875,915.9531 1105.625,916.125 Q1106.3906,916.2969 1107.0625,916.6563 L1107.0625,919.8594 Q1106.3125,919.1719 1105.6094,918.8594 Q1104.9219,918.5469 1104.1719,918.5469 Q1102.5938,918.5469 1101.7813,919.7969 Q1100.9844,921.0469 1100.9844,923.5156 Q1100.9844,925.9844 1101.7813,927.2344 Q1102.5938,928.4844 1104.1719,928.4844 Q1104.9219,928.4844 1105.6094,928.1719 Q1106.3125,927.8594 1107.0625,927.1719 L1107.0625,930.375 Z " fill="#000000"/><text fill="#000000" font-family="sans-serif" font-size="20" lengthAdjust="spacing" textLength="130" x="1126" y="930.2207">BoardShared</text><line style="stroke:#181818;stroke-width:0.5;" x1="895" x2="1452" y1="940.2969" y2="940.2969"/><line style="stroke:#181818;stroke-width:0.5;" x1="895" x2="1452" y1="948.2969" y2="948.2969"/><ellipse cx="905" cy="965.4375" fill="#84BE84" rx="3" ry="3" style="stroke:#038048;stroke-width:1.0;"/><text fill="#000000" font-family="sans-serif" font-size="20" lengthAdjust="spacing" textLength="532" x="915" y="970.8613">createSharedBoard(board,permission) : BoardShared</text></g><!--class CreateBoardUI--><g id="elem_CreateBoardUI"><rect codeLine="52" fill="#F1F1F1" height="72.5625" id="CreateBoardUI" rx="2.5" ry="2.5" style="stroke:#181818;stroke-width:0.5;" width="181" x="555" y="44.2969"/><ellipse cx="571" cy="72.5781" fill="#ADD1B2" rx="12" ry="12" style="stroke:#181818;stroke-width:1.0;"/><path d="M574.0625,79.6563 Q573.375,80.0156 572.625,80.1875 Q571.875,80.3594 571.0469,80.3594 Q568.0938,80.3594 566.5313,78.4219 Q564.9844,76.4688 564.9844,72.7969 Q564.9844,69.125 566.5313,67.1875 Q568.0938,65.2344 571.0469,65.2344 Q571.875,65.2344 572.625,65.4063 Q573.3906,65.5781 574.0625,65.9375 L574.0625,69.1406 Q573.3125,68.4531 572.6094,68.1406 Q571.9219,67.8281 571.1719,67.8281 Q569.5938,67.8281 568.7813,69.0781 Q567.9844,70.3281 567.9844,72.7969 Q567.9844,75.2656 568.7813,76.5156 Q569.5938,77.7656 571.1719,77.7656 Q571.9219,77.7656 572.6094,77.4531 Q573.3125,77.1406 574.0625,76.4531 L574.0625,79.6563 Z " fill="#000000"/><text fill="#000000" font-family="sans-serif" font-size="20" font-style="italic" lengthAdjust="spacing" textLength="151" x="584" y="67.8613">«presentation»</text><text fill="#000000" font-family="sans-serif" font-size="20" lengthAdjust="spacing" textLength="146" x="586.5" y="91.1426">CreateBoardUI</text><line style="stroke:#181818;stroke-width:0.5;" x1="556" x2="735" y1="100.8594" y2="100.8594"/><line style="stroke:#181818;stroke-width:0.5;" x1="556" x2="735" y1="108.8594" y2="108.8594"/></g><!--class CreateBoardController--><g id="elem_CreateBoardController"><rect codeLine="54" fill="#F1F1F1" height="119.125" id="CreateBoardController" rx="2.5" ry="2.5" style="stroke:#181818;stroke-width:0.5;" width="1054" x="118.5" y="177.2969"/><ellipse cx="529" cy="205.5781" fill="#ADD1B2" rx="12" ry="12" style="stroke:#181818;stroke-width:1.0;"/><path d="M532.0625,212.6563 Q531.375,213.0156 530.625,213.1875 Q529.875,213.3594 529.0469,213.3594 Q526.0938,213.3594 524.5313,211.4219 Q522.9844,209.4688 522.9844,205.7969 Q522.9844,202.125 524.5313,200.1875 Q526.0938,198.2344 529.0469,198.2344 Q529.875,198.2344 530.625,198.4063 Q531.3906,198.5781 532.0625,198.9375 L532.0625,202.1406 Q531.3125,201.4531 530.6094,201.1406 Q529.9219,200.8281 529.1719,200.8281 Q527.5938,200.8281 526.7813,202.0781 Q525.9844,203.3281 525.9844,205.7969 Q525.9844,208.2656 526.7813,209.5156 Q527.5938,210.7656 529.1719,210.7656 Q529.9219,210.7656 530.6094,210.4531 Q531.3125,210.1406 532.0625,209.4531 L532.0625,212.6563 Z " fill="#000000"/><text fill="#000000" font-family="sans-serif" font-size="20" font-style="italic" lengthAdjust="spacing" textLength="136" x="595" y="200.8613">«application»</text><text fill="#000000" font-family="sans-serif" font-size="20" lengthAdjust="spacing" textLength="224" x="551" y="224.1426">CreateBoardController</text><line style="stroke:#181818;stroke-width:0.5;" x1="119.5" x2="1171.5" y1="233.8594" y2="233.8594"/><line style="stroke:#181818;stroke-width:0.5;" x1="119.5" x2="1171.5" y1="241.8594" y2="241.8594"/><ellipse cx="129.5" cy="259" fill="#84BE84" rx="3" ry="3" style="stroke:#038048;stroke-width:1.0;"/><text fill="#000000" font-family="sans-serif" font-size="20" lengthAdjust="spacing" textLength="1027" x="139.5" y="264.4238">createBoard(maxRows: int, maxColumns: int, title: String, columnTitle: String, rowTitle: String): Board</text><ellipse cx="129.5" cy="282.2813" fill="#84BE84" rx="3" ry="3" style="stroke:#038048;stroke-width:1.0;"/><text fill="#000000" font-family="sans-serif" font-size="20" lengthAdjust="spacing" textLength="575" x="139.5" y="287.7051">defineBoardSharePermissions(board: Board): ShareBoard</text></g><!--link CreateBoardUI to CreateBoardController--><g id="link_CreateBoardUI_CreateBoardController"><path codeLine="59" d="M645.5,117.3769 C645.5,117.3769 645.5,172.2569 645.5,172.2569 " fill="none" id="CreateBoardUI-to-CreateBoardController" style="stroke:#181818;stroke-width:1.0;stroke-dasharray:7.0,7.0;"/><polygon fill="#181818" points="645.5,177.2569,649.5,168.2569,645.5,172.2569,641.5,168.2569,645.5,177.2569" style="stroke:#181818;stroke-width:1.0;"/></g><!--link CreateBoardController to PersistenceContext--><g id="link_CreateBoardController_PersistenceContext"><path codeLine="60" d="M533.5,296.6669 C533.5,296.6669 533.5,350.8769 533.5,350.8769 " fill="none" id="CreateBoardController-to-PersistenceContext" style="stroke:#181818;stroke-width:1.0;stroke-dasharray:7.0,7.0;"/><polygon fill="#181818" points="533.5,355.8769,537.5,346.8769,533.5,350.8769,529.5,346.8769,533.5,355.8769" style="stroke:#181818;stroke-width:1.0;"/></g><!--link CreateBoardController to BoardBuilder--><g id="link_CreateBoardController_BoardBuilder"><path codeLine="61" d="M912.75,296.3169 C912.75,296.3169 912.75,663.1469 912.75,663.1469 " fill="none" id="CreateBoardController-to-BoardBuilder" style="stroke:#181818;stroke-width:1.0;stroke-dasharray:7.0,7.0;"/><polygon fill="#181818" points="912.75,668.1469,916.75,659.1469,912.75,663.1469,908.75,659.1469,912.75,668.1469" style="stroke:#181818;stroke-width:1.0;"/></g><!--link CreateBoardController to SharedBoardBuilder--><g id="link_CreateBoardController_SharedBoardBuilder"><path codeLine="62" d="M1127.25,296.3169 C1127.25,296.3169 1127.25,686.1169 1127.25,686.1169 " fill="none" id="CreateBoardController-to-SharedBoardBuilder" style="stroke:#181818;stroke-width:1.0;stroke-dasharray:7.0,7.0;"/><polygon fill="#181818" points="1127.25,691.1169,1131.25,682.1169,1127.25,686.1169,1123.25,682.1169,1127.25,691.1169" style="stroke:#181818;stroke-width:1.0;"/></g><!--link CreateBoardController to RepositoryFactory--><g id="link_CreateBoardController_RepositoryFactory"><path codeLine="63" d="M741.75,296.6269 C741.75,296.6269 741.75,484.0069 741.75,484.0069 " fill="none" id="CreateBoardController-to-RepositoryFactory" style="stroke:#181818;stroke-width:1.0;stroke-dasharray:7.0,7.0;"/><polygon fill="#181818" points="741.75,489.0069,745.75,480.0069,741.75,484.0069,737.75,480.0069,741.75,489.0069" style="stroke:#181818;stroke-width:1.0;"/></g><!--link CreateBoardController to BoardRepository--><g id="link_CreateBoardController_BoardRepository"><path codeLine="64" d="M173.67,296.3169 C173.67,296.3169 173.67,709.6769 173.67,709.6769 " fill="none" id="CreateBoardController-to-BoardRepository" style="stroke:#181818;stroke-width:1.0;stroke-dasharray:7.0,7.0;"/><polygon fill="#181818" points="173.67,714.6769,177.67,705.6769,173.67,709.6769,169.67,705.6769,173.67,714.6769" style="stroke:#181818;stroke-width:1.0;"/></g><!--link CreateBoardController to SharedBoardRepository--><g id="link_CreateBoardController_SharedBoardRepository"><path codeLine="65" d="M340,296.3169 C340,296.3169 340,709.6769 340,709.6769 " fill="none" id="CreateBoardController-to-SharedBoardRepository" style="stroke:#181818;stroke-width:1.0;stroke-dasharray:7.0,7.0;"/><polygon fill="#181818" points="340,714.6769,344,705.6769,340,709.6769,336,705.6769,340,714.6769" style="stroke:#181818;stroke-width:1.0;"/></g><!--link PersistenceContext to RepositoryFactory--><g id="link_PersistenceContext_RepositoryFactory"><path codeLine="66" d="M533.5,429.3869 C533.5,429.3869 533.5,484.1569 533.5,484.1569 " fill="none" id="PersistenceContext-to-RepositoryFactory" style="stroke:#181818;stroke-width:1.0;"/><polygon fill="#181818" points="533.5,489.1569,537.5,480.1569,533.5,484.1569,529.5,480.1569,533.5,489.1569" style="stroke:#181818;stroke-width:1.0;"/></g><!--link RepositoryFactory to BoardRepository--><g id="link_RepositoryFactory_BoardRepository"><path codeLine="67" d="M360.06,538.2969 C289.75,538.2969 228.83,538.2969 228.83,538.2969 C228.83,538.2969 228.83,709.6769 228.83,709.6769 " fill="none" id="RepositoryFactory-to-BoardRepository" style="stroke:#181818;stroke-width:1.0;"/><polygon fill="#181818" points="228.83,714.6769,232.83,705.6769,228.83,709.6769,224.83,705.6769,228.83,714.6769" style="stroke:#181818;stroke-width:1.0;"/></g><!--link RepositoryFactory to SharedBoardRepository--><g id="link_RepositoryFactory_SharedBoardRepository"><path codeLine="68" d="M479,586.5069 C479,586.5069 479,709.7769 479,709.7769 " fill="none" id="RepositoryFactory-to-SharedBoardRepository" style="stroke:#181818;stroke-width:1.0;"/><polygon fill="#181818" points="479,714.7769,483,705.7769,479,709.7769,475,705.7769,479,714.7769" style="stroke:#181818;stroke-width:1.0;"/></g><!--link BoardRepository to Board--><g id="link_BoardRepository_Board"><path codeLine="69" d="M180.5,788.2169 C180.5,788.2169 180.5,889.0269 180.5,889.0269 " fill="none" id="BoardRepository-to-Board" style="stroke:#181818;stroke-width:1.0;"/><polygon fill="#181818" points="180.5,894.0269,184.5,885.0269,180.5,889.0269,176.5,885.0269,180.5,894.0269" style="stroke:#181818;stroke-width:1.0;"/></g><!--link SharedBoardRepository to BoardShared--><g id="link_SharedBoardRepository_BoardShared"><path codeLine="70" d="M458.5,787.9869 C458.5,820.9769 458.5,864.2969 458.5,864.2969 C458.5,864.2969 970.5,864.2969 970.5,864.2969 C970.5,864.2969 970.5,900.8469 970.5,900.8469 " fill="none" id="SharedBoardRepository-to-BoardShared" style="stroke:#181818;stroke-width:1.0;"/><polygon fill="#181818" points="970.5,905.8469,974.5,896.8469,970.5,900.8469,966.5,896.8469,970.5,905.8469" style="stroke:#181818;stroke-width:1.0;"/></g><!--link BoardBuilder to Board--><g id="link_BoardBuilder_Board"><path codeLine="71" d="M706,834.4569 C706,834.4569 706,889.1669 706,889.1669 " fill="none" id="BoardBuilder-to-Board" style="stroke:#181818;stroke-width:1.0;"/><polygon fill="#181818" points="706,894.1669,710,885.1669,706,889.1669,702,885.1669,706,894.1669" style="stroke:#181818;stroke-width:1.0;"/></g><!--link SharedBoardBuilder to BoardShared--><g id="link_SharedBoardBuilder_BoardShared"><path codeLine="72" d="M1267.5,811.3669 C1267.5,811.3669 1267.5,901.0669 1267.5,901.0669 " fill="none" id="SharedBoardBuilder-to-BoardShared" style="stroke:#181818;stroke-width:1.0;"/><polygon fill="#181818" points="1267.5,906.0669,1271.5,897.0669,1267.5,901.0669,1263.5,897.0669,1267.5,906.0669" style="stroke:#181818;stroke-width:1.0;"/></g><!--SRC=[ZLHDRzim3BthL_0s1tEIOKUZoA412kmme6Ys7w3OJ294jWo9xjeD-U-J9TloXv3M5ylY8_duIDfSHLLppKkfyYiMKE29DvAUL4K7yHVX-pVsvK9KcsoxhIMlg2db9bVbDfVSc7KX-DawCn8a4VOQEI4yAguBHge6Kd1KHAg4GcZCIQYAcJuZI54XlTS8IjD5CVlKFB_oCuB6MXb1IWiqy8-1VKH5g4yyxyA_z8XtRswVhs3uAoR7rhw235wLA9YptcOX3XUkiVXK80yTmlbeju7fiH6oG6rzPmGV1uCFYFIJl-sLRChA9ELmd0Hsi5-jb8aJT6dqNXwIX_CI-AB-U9Jk3ZD8xbhbc2QjoVUi5Iggqh8QxphLUZ0-eow5CRRTIJqSemn6EG8FVycSq6xE_BNDFYLkPRHrcZJ8cRfQK_y5JiJKGc2GiwlJiJoGZPGCj2QvF8LHnZ5HLtKwhMnC_3OQPL6TD4T3kicfqRYnNaOOmieAxENqMP_3_Tuk7xuHz6fFjY63CB5FF6zVtL3EPdm1W_60kn9CiihcwpJ7k98SCBeqRDY8JhrzwC_l7_3mK5jlhApILgVTBe9ggzLAIjGMpUjQYhm33m94UfwrbQOGEjzTk4PRhgH5TKvXj2FXib-9_cOrZ8NBPd-1ziSK-Xc6sVZET_1U4kzh1PYMljdiucMoUF4jVZa4Ty3ZnRm3Msxn7V1ojZx8Fvg4Jr4OuICJlrx7A2mdkSNDmyLHyTIpxn2FHV71tYtuMCsuyyBOURB_]--></g></svg>