<?xml version="1.0" encoding="UTF-8" standalone="no"?><svg xmlns="http://www.w3.org/2000/svg" xmlns:xlink="http://www.w3.org/1999/xlink" contentStyleType="text/css" height="2189px" preserveAspectRatio="none" style="width:3292px;height:2189px;background:#FFFFFF;" version="1.1" viewBox="0 0 3292 2189" width="3292px" zoomAndPan="magnify"><defs/><g><rect fill="#FFFFFF" height="1211.2813" style="stroke:#181818;stroke-width:1.0;" width="10" x="293.5" y="136.8438"/><rect fill="#FFFFFF" height="677.0625" style="stroke:#181818;stroke-width:1.0;" width="10" x="293.5" y="1385.4063"/><rect fill="#FFFFFF" height="888.4688" style="stroke:#181818;stroke-width:1.0;" width="10" x="1036.5" y="422.375"/><rect fill="#FFFFFF" height="648.7813" style="stroke:#181818;stroke-width:1.0;" width="10" x="1036.5" y="1422.6875"/><rect fill="#FFFFFF" height="205.4063" style="stroke:#181818;stroke-width:1.0;" width="10" x="1370.5" y="763.9063"/><rect fill="#FFFFFF" height="111.8438" style="stroke:#181818;stroke-width:1.0;" width="10" x="1561" y="1571.8125"/><rect fill="#FFFFFF" height="130.8438" style="stroke:#181818;stroke-width:1.0;" width="10" x="2113.5" y="801.1875"/><rect fill="#FFFFFF" height="117.8438" style="stroke:#181818;stroke-width:1.0;" width="10" x="2295.5" y="1006.5938"/><rect fill="#FFFFFF" height="117.8438" style="stroke:#181818;stroke-width:1.0;" width="10" x="2295.5" y="1720.9375"/><rect fill="#FFFFFF" height="74.5625" style="stroke:#181818;stroke-width:1.0;" width="10" x="2505.5" y="1161.7188"/><rect fill="#FFFFFF" height="74.5625" style="stroke:#181818;stroke-width:1.0;" width="10" x="2505.5" y="1876.0625"/><line style="stroke:#181818;stroke-width:0.5;stroke-dasharray:5.0,5.0;" x1="30" x2="30" y1="97.5625" y2="2080.4688"/><line style="stroke:#181818;stroke-width:0.5;stroke-dasharray:5.0,5.0;" x1="298" x2="298" y1="97.5625" y2="2080.4688"/><line style="stroke:#181818;stroke-width:0.5;stroke-dasharray:5.0,5.0;" x1="1041.5" x2="1041.5" y1="97.5625" y2="2080.4688"/><line style="stroke:#181818;stroke-width:0.5;stroke-dasharray:5.0,5.0;" x1="1375" x2="1375" y1="97.5625" y2="2080.4688"/><line style="stroke:#181818;stroke-width:0.5;stroke-dasharray:5.0,5.0;" x1="1566" x2="1566" y1="97.5625" y2="2080.4688"/><line style="stroke:#181818;stroke-width:0.5;stroke-dasharray:5.0,5.0;" x1="1741" x2="1741" y1="97.5625" y2="2080.4688"/><line style="stroke:#181818;stroke-width:0.5;stroke-dasharray:5.0,5.0;" x1="2118.5" x2="2118.5" y1="97.5625" y2="2080.4688"/><line style="stroke:#181818;stroke-width:0.5;stroke-dasharray:5.0,5.0;" x1="2300.5" x2="2300.5" y1="97.5625" y2="2080.4688"/><line style="stroke:#181818;stroke-width:0.5;stroke-dasharray:5.0,5.0;" x1="2510.5" x2="2510.5" y1="97.5625" y2="2080.4688"/><line style="stroke:#181818;stroke-width:0.5;stroke-dasharray:5.0,5.0;" x1="2744.5" x2="2744.5" y1="97.5625" y2="2080.4688"/><line style="stroke:#181818;stroke-width:0.5;stroke-dasharray:5.0,5.0;" x1="2995.5" x2="2995.5" y1="97.5625" y2="2080.4688"/><line style="stroke:#181818;stroke-width:0.5;stroke-dasharray:5.0,5.0;" x1="3205.5" x2="3205.5" y1="97.5625" y2="2080.4688"/><text fill="#000000" font-family="FG Virgil" font-size="20" lengthAdjust="spacing" textLength="45" x="5" y="92.8457">User</text><ellipse cx="30.5" cy="22.7813" fill="#E3E3E3" rx="8" ry="8" style="stroke:#181818;stroke-width:0.5;"/><path d="M30.5,30.7813 L30.5,57.7813 M17.5,38.7813 L43.5,38.7813 M30.5,57.7813 L17.5,72.7813 M30.5,57.7813 L43.5,72.7813 " fill="none" style="stroke:#181818;stroke-width:0.5;"/><text fill="#000000" font-family="FG Virgil" font-size="20" lengthAdjust="spacing" textLength="45" x="5" y="2098.0332">User</text><ellipse cx="30.5" cy="2111.25" fill="#E3E3E3" rx="8" ry="8" style="stroke:#181818;stroke-width:0.5;"/><path d="M30.5,2119.25 L30.5,2146.25 M17.5,2127.25 L43.5,2127.25 M30.5,2146.25 L17.5,2161.25 M30.5,2146.25 L43.5,2161.25 " fill="none" style="stroke:#181818;stroke-width:0.5;"/><rect fill="#E3E3E3" height="60.5625" rx="2.5" ry="2.5" style="stroke:#181818;stroke-width:0.5;" width="165" x="216" y="36"/><text fill="#000000" font-family="FG Virgil" font-size="20" font-style="italic" lengthAdjust="spacing" textLength="151" x="223" y="61.5645">«presentation»</text><text fill="#000000" font-family="FG Virgil" font-size="20" lengthAdjust="spacing" textLength="146" x="225.5" y="84.8457">CreateBoardUI</text><rect fill="#E3E3E3" height="60.5625" rx="2.5" ry="2.5" style="stroke:#181818;stroke-width:0.5;" width="165" x="216" y="2079.4688"/><text fill="#000000" font-family="FG Virgil" font-size="20" font-style="italic" lengthAdjust="spacing" textLength="151" x="223" y="2105.0332">«presentation»</text><text fill="#000000" font-family="FG Virgil" font-size="20" lengthAdjust="spacing" textLength="146" x="225.5" y="2128.3145">CreateBoardUI</text><rect fill="#E3E3E3" height="60.5625" rx="2.5" ry="2.5" style="stroke:#181818;stroke-width:0.5;" width="238" x="922.5" y="36"/><text fill="#000000" font-family="FG Virgil" font-size="20" font-style="italic" lengthAdjust="spacing" textLength="136" x="973.5" y="61.5645">«application»</text><text fill="#000000" font-family="FG Virgil" font-size="20" lengthAdjust="spacing" textLength="224" x="929.5" y="84.8457">CreateBoardController</text><rect fill="#E3E3E3" height="60.5625" rx="2.5" ry="2.5" style="stroke:#181818;stroke-width:0.5;" width="238" x="922.5" y="2079.4688"/><text fill="#000000" font-family="FG Virgil" font-size="20" font-style="italic" lengthAdjust="spacing" textLength="136" x="973.5" y="2105.0332">«application»</text><text fill="#000000" font-family="FG Virgil" font-size="20" lengthAdjust="spacing" textLength="224" x="929.5" y="2128.3145">CreateBoardController</text><rect fill="#E3E3E3" height="60.5625" rx="2.5" ry="2.5" style="stroke:#181818;stroke-width:0.5;" width="145" x="1303" y="36"/><text fill="#000000" font-family="FG Virgil" font-size="20" font-style="italic" lengthAdjust="spacing" textLength="95" x="1328" y="61.5645">«builder»</text><text fill="#000000" font-family="FG Virgil" font-size="20" lengthAdjust="spacing" textLength="131" x="1310" y="84.8457">BoardBuilder</text><rect fill="#E3E3E3" height="60.5625" rx="2.5" ry="2.5" style="stroke:#181818;stroke-width:0.5;" width="145" x="1303" y="2079.4688"/><text fill="#000000" font-family="FG Virgil" font-size="20" font-style="italic" lengthAdjust="spacing" textLength="95" x="1328" y="2105.0332">«builder»</text><text fill="#000000" font-family="FG Virgil" font-size="20" lengthAdjust="spacing" textLength="131" x="1310" y="2128.3145">BoardBuilder</text><rect fill="#E3E3E3" height="60.5625" rx="2.5" ry="2.5" style="stroke:#181818;stroke-width:0.5;" width="216" x="1458" y="36"/><text fill="#000000" font-family="FG Virgil" font-size="20" font-style="italic" lengthAdjust="spacing" textLength="95" x="1518.5" y="61.5645">«builder»</text><text fill="#000000" font-family="FG Virgil" font-size="20" lengthAdjust="spacing" textLength="202" x="1465" y="84.8457">SharedBoardBuilder</text><rect fill="#E3E3E3" height="60.5625" rx="2.5" ry="2.5" style="stroke:#181818;stroke-width:0.5;" width="216" x="1458" y="2079.4688"/><text fill="#000000" font-family="FG Virgil" font-size="20" font-style="italic" lengthAdjust="spacing" textLength="95" x="1518.5" y="2105.0332">«builder»</text><text fill="#000000" font-family="FG Virgil" font-size="20" lengthAdjust="spacing" textLength="202" x="1465" y="2128.3145">SharedBoardBuilder</text><rect fill="#E3E3E3" height="60.5625" rx="2.5" ry="2.5" style="stroke:#181818;stroke-width:0.5;" width="114" x="1684" y="36"/><text fill="#000000" font-family="FG Virgil" font-size="20" font-style="italic" lengthAdjust="spacing" textLength="100" x="1691" y="61.5645">«domain»</text><text fill="#000000" font-family="FG Virgil" font-size="20" lengthAdjust="spacing" textLength="80" x="1701" y="84.8457">cell:Cell</text><rect fill="#E3E3E3" height="60.5625" rx="2.5" ry="2.5" style="stroke:#181818;stroke-width:0.5;" width="114" x="1684" y="2079.4688"/><text fill="#000000" font-family="FG Virgil" font-size="20" font-style="italic" lengthAdjust="spacing" textLength="100" x="1691" y="2105.0332">«domain»</text><text fill="#000000" font-family="FG Virgil" font-size="20" lengthAdjust="spacing" textLength="80" x="1701" y="2128.3145">cell:Cell</text><rect fill="#E3E3E3" height="60.5625" rx="2.5" ry="2.5" style="stroke:#181818;stroke-width:0.5;" width="138" x="2049.5" y="36"/><text fill="#000000" font-family="FG Virgil" font-size="20" font-style="italic" lengthAdjust="spacing" textLength="100" x="2068.5" y="61.5645">«domain»</text><text fill="#000000" font-family="FG Virgil" font-size="20" lengthAdjust="spacing" textLength="124" x="2056.5" y="84.8457">board:Board</text><rect fill="#E3E3E3" height="60.5625" rx="2.5" ry="2.5" style="stroke:#181818;stroke-width:0.5;" width="138" x="2049.5" y="2079.4688"/><text fill="#000000" font-family="FG Virgil" font-size="20" font-style="italic" lengthAdjust="spacing" textLength="100" x="2068.5" y="2105.0332">«domain»</text><text fill="#000000" font-family="FG Virgil" font-size="20" lengthAdjust="spacing" textLength="124" x="2056.5" y="2128.3145">board:Board</text><rect fill="#E3E3E3" height="60.5625" rx="2.5" ry="2.5" style="stroke:#181818;stroke-width:0.5;" width="206" x="2197.5" y="36"/><text fill="#000000" font-family="FG Virgil" font-size="20" font-style="italic" lengthAdjust="spacing" textLength="139" x="2231" y="61.5645">«persistence»</text><text fill="#000000" font-family="FG Virgil" font-size="20" lengthAdjust="spacing" textLength="192" x="2204.5" y="84.8457">PersistenceContext</text><rect fill="#E3E3E3" height="60.5625" rx="2.5" ry="2.5" style="stroke:#181818;stroke-width:0.5;" width="206" x="2197.5" y="2079.4688"/><text fill="#000000" font-family="FG Virgil" font-size="20" font-style="italic" lengthAdjust="spacing" textLength="139" x="2231" y="2105.0332">«persistence»</text><text fill="#000000" font-family="FG Virgil" font-size="20" lengthAdjust="spacing" textLength="192" x="2204.5" y="2128.3145">PersistenceContext</text><rect fill="#E3E3E3" height="60.5625" rx="2.5" ry="2.5" style="stroke:#181818;stroke-width:0.5;" width="194" x="2413.5" y="36"/><text fill="#000000" font-family="FG Virgil" font-size="20" font-style="italic" lengthAdjust="spacing" textLength="94" x="2463.5" y="61.5645">«factory»</text><text fill="#000000" font-family="FG Virgil" font-size="20" lengthAdjust="spacing" textLength="180" x="2420.5" y="84.8457">RepositoryFactory</text><rect fill="#E3E3E3" height="60.5625" rx="2.5" ry="2.5" style="stroke:#181818;stroke-width:0.5;" width="194" x="2413.5" y="2079.4688"/><text fill="#000000" font-family="FG Virgil" font-size="20" font-style="italic" lengthAdjust="spacing" textLength="94" x="2463.5" y="2105.0332">«factory»</text><text fill="#000000" font-family="FG Virgil" font-size="20" lengthAdjust="spacing" textLength="180" x="2420.5" y="2128.3145">RepositoryFactory</text><rect fill="#E3E3E3" height="60.5625" rx="2.5" ry="2.5" style="stroke:#181818;stroke-width:0.5;" width="254" x="2617.5" y="36"/><text fill="#000000" font-family="FG Virgil" font-size="20" font-style="italic" lengthAdjust="spacing" textLength="100" x="2694.5" y="61.5645">«domain»</text><text fill="#000000" font-family="FG Virgil" font-size="20" lengthAdjust="spacing" textLength="240" x="2624.5" y="84.8457">boardShare:BoardShare</text><rect fill="#E3E3E3" height="60.5625" rx="2.5" ry="2.5" style="stroke:#181818;stroke-width:0.5;" width="254" x="2617.5" y="2079.4688"/><text fill="#000000" font-family="FG Virgil" font-size="20" font-style="italic" lengthAdjust="spacing" textLength="100" x="2694.5" y="2105.0332">«domain»</text><text fill="#000000" font-family="FG Virgil" font-size="20" lengthAdjust="spacing" textLength="240" x="2624.5" y="2128.3145">boardShare:BoardShare</text><text fill="#000000" font-family="FG Virgil" font-size="20" font-style="italic" lengthAdjust="spacing" textLength="125" x="2930.5" y="69.5645">«repository»</text><text fill="#000000" font-family="FG Virgil" font-size="20" lengthAdjust="spacing" textLength="223" x="2881.5" y="92.8457">BoardShareRepository</text><path d="M2978,15 C2978,5 2996,5 2996,5 C2996,5 3014,5 3014,15 L3014,41 C3014,51 2996,51 2996,51 C2996,51 2978,51 2978,41 L2978,15 " fill="#E3E3E3" style="stroke:#181818;stroke-width:1.5;"/><path d="M2978,15 C2978,25 2996,25 2996,25 C2996,25 3014,25 3014,15 " fill="none" style="stroke:#181818;stroke-width:1.5;"/><text fill="#000000" font-family="FG Virgil" font-size="20" font-style="italic" lengthAdjust="spacing" textLength="125" x="2930.5" y="2098.0332">«repository»</text><text fill="#000000" font-family="FG Virgil" font-size="20" lengthAdjust="spacing" textLength="223" x="2881.5" y="2121.3145">BoardShareRepository</text><path d="M2978,2136.0313 C2978,2126.0313 2996,2126.0313 2996,2126.0313 C2996,2126.0313 3014,2126.0313 3014,2136.0313 L3014,2162.0313 C3014,2172.0313 2996,2172.0313 2996,2172.0313 C2996,2172.0313 2978,2172.0313 2978,2162.0313 L2978,2136.0313 " fill="#E3E3E3" style="stroke:#181818;stroke-width:1.5;"/><path d="M2978,2136.0313 C2978,2146.0313 2996,2146.0313 2996,2146.0313 C2996,2146.0313 3014,2146.0313 3014,2136.0313 " fill="none" style="stroke:#181818;stroke-width:1.5;"/><text fill="#000000" font-family="FG Virgil" font-size="20" font-style="italic" lengthAdjust="spacing" textLength="125" x="3140.5" y="69.5645">«repository»</text><text fill="#000000" font-family="FG Virgil" font-size="20" lengthAdjust="spacing" textLength="165" x="3120.5" y="92.8457">BoardRepository</text><path d="M3188,15 C3188,5 3206,5 3206,5 C3206,5 3224,5 3224,15 L3224,41 C3224,51 3206,51 3206,51 C3206,51 3188,51 3188,41 L3188,15 " fill="#E3E3E3" style="stroke:#181818;stroke-width:1.5;"/><path d="M3188,15 C3188,25 3206,25 3206,25 C3206,25 3224,25 3224,15 " fill="none" style="stroke:#181818;stroke-width:1.5;"/><text fill="#000000" font-family="FG Virgil" font-size="20" font-style="italic" lengthAdjust="spacing" textLength="125" x="3140.5" y="2098.0332">«repository»</text><text fill="#000000" font-family="FG Virgil" font-size="20" lengthAdjust="spacing" textLength="165" x="3120.5" y="2121.3145">BoardRepository</text><path d="M3188,2136.0313 C3188,2126.0313 3206,2126.0313 3206,2126.0313 C3206,2126.0313 3224,2126.0313 3224,2136.0313 L3224,2162.0313 C3224,2172.0313 3206,2172.0313 3206,2172.0313 C3206,2172.0313 3188,2172.0313 3188,2162.0313 L3188,2136.0313 " fill="#E3E3E3" style="stroke:#181818;stroke-width:1.5;"/><path d="M3188,2136.0313 C3188,2146.0313 3206,2146.0313 3206,2146.0313 C3206,2146.0313 3224,2146.0313 3224,2136.0313 " fill="none" style="stroke:#181818;stroke-width:1.5;"/><rect fill="#FFFFFF" height="1211.2813" style="stroke:#181818;stroke-width:1.0;" width="10" x="293.5" y="136.8438"/><rect fill="#FFFFFF" height="677.0625" style="stroke:#181818;stroke-width:1.0;" width="10" x="293.5" y="1385.4063"/><rect fill="#FFFFFF" height="888.4688" style="stroke:#181818;stroke-width:1.0;" width="10" x="1036.5" y="422.375"/><rect fill="#FFFFFF" height="648.7813" style="stroke:#181818;stroke-width:1.0;" width="10" x="1036.5" y="1422.6875"/><rect fill="#FFFFFF" height="205.4063" style="stroke:#181818;stroke-width:1.0;" width="10" x="1370.5" y="763.9063"/><rect fill="#FFFFFF" height="111.8438" style="stroke:#181818;stroke-width:1.0;" width="10" x="1561" y="1571.8125"/><rect fill="#FFFFFF" height="130.8438" style="stroke:#181818;stroke-width:1.0;" width="10" x="2113.5" y="801.1875"/><rect fill="#FFFFFF" height="117.8438" style="stroke:#181818;stroke-width:1.0;" width="10" x="2295.5" y="1006.5938"/><rect fill="#FFFFFF" height="117.8438" style="stroke:#181818;stroke-width:1.0;" width="10" x="2295.5" y="1720.9375"/><rect fill="#FFFFFF" height="74.5625" style="stroke:#181818;stroke-width:1.0;" width="10" x="2505.5" y="1161.7188"/><rect fill="#FFFFFF" height="74.5625" style="stroke:#181818;stroke-width:1.0;" width="10" x="2505.5" y="1876.0625"/><polygon fill="#181818" points="281.5,132.8438,291.5,136.8438,281.5,140.8438,285.5,136.8438" style="stroke:#181818;stroke-width:1.0;"/><line style="stroke:#181818;stroke-width:1.0;stroke-dasharray:2.0,2.0;" x1="30.5" x2="287.5" y1="136.8438" y2="136.8438"/><text fill="#000000" font-family="FG Virgil" font-size="20" lengthAdjust="spacing" textLength="130" x="37.5" y="130.127">Create board</text><polygon fill="#181818" points="1029.5,170.125,1039.5,174.125,1029.5,178.125,1033.5,174.125" style="stroke:#181818;stroke-width:1.0;"/><line style="stroke:#181818;stroke-width:1.0;" x1="303.5" x2="1035.5" y1="174.125" y2="174.125"/><text fill="#000000" font-family="FG Virgil" font-size="20" lengthAdjust="spacing" textLength="63" x="310.5" y="167.4082">create</text><polygon fill="#181818" points="41.5,207.4063,31.5,211.4063,41.5,215.4063,37.5,211.4063" style="stroke:#181818;stroke-width:1.0;"/><line style="stroke:#181818;stroke-width:1.0;stroke-dasharray:2.0,2.0;" x1="35.5" x2="292.5" y1="211.4063" y2="211.4063"/><text fill="#000000" font-family="FG Virgil" font-size="20" lengthAdjust="spacing" textLength="223" x="47.5" y="204.6895">Ask board information</text><polygon fill="#181818" points="281.5,337.8125,291.5,341.8125,281.5,345.8125,285.5,341.8125" style="stroke:#181818;stroke-width:1.0;"/><line style="stroke:#181818;stroke-width:1.0;stroke-dasharray:2.0,2.0;" x1="30.5" x2="287.5" y1="341.8125" y2="341.8125"/><text fill="#000000" font-family="FG Virgil" font-size="20" lengthAdjust="spacing" textLength="102" x="37.5" y="241.9707">maxRows,</text><text fill="#000000" font-family="FG Virgil" font-size="20" lengthAdjust="spacing" textLength="137" x="43.5" y="265.252">maxColumns,</text><text fill="#000000" font-family="FG Virgil" font-size="20" lengthAdjust="spacing" textLength="50" x="43.5" y="288.5332">Title,</text><text fill="#000000" font-family="FG Virgil" font-size="20" lengthAdjust="spacing" textLength="130" x="43.5" y="311.8145">Column title,</text><text fill="#000000" font-family="FG Virgil" font-size="20" lengthAdjust="spacing" textLength="89" x="43.5" y="335.0957">Row title</text><path d="M308,354.8125 L308,387.8125 L1146,387.8125 L1146,364.8125 L1136,354.8125 L308,354.8125 " fill="#FAFAFA" style="stroke:#181818;stroke-width:0.5;"/><path d="M1136,354.8125 L1136,364.8125 L1146,364.8125 L1136,354.8125 " fill="#FAFAFA" style="stroke:#181818;stroke-width:0.5;"/><text fill="#000000" font-family="FG Virgil" font-size="20" lengthAdjust="spacing" textLength="817" x="314" y="378.377">Get the authenticated user (owner of the board) and the associated ecourse user.</text><polygon fill="#181818" points="1024.5,418.375,1034.5,422.375,1024.5,426.375,1028.5,422.375" style="stroke:#181818;stroke-width:1.0;"/><line style="stroke:#181818;stroke-width:1.0;" x1="303.5" x2="1030.5" y1="422.375" y2="422.375"/><text fill="#000000" font-family="FG Virgil" font-size="20" lengthAdjust="spacing" textLength="714" x="310.5" y="415.6582">createBoard(maxRows,maxColumns,Title,Column title,Row title,owner)</text><path d="M1380,435.375 L1380,468.375 L2196,468.375 L2196,445.375 L2186,435.375 L1380,435.375 " fill="#FAFAFA" style="stroke:#181818;stroke-width:0.5;"/><path d="M2186,435.375 L2186,445.375 L2196,445.375 L2186,435.375 " fill="#FAFAFA" style="stroke:#181818;stroke-width:0.5;"/><text fill="#000000" font-family="FG Virgil" font-size="20" lengthAdjust="spacing" textLength="795" x="1386" y="458.9395">BoardBuilder é usado para criar uma entidade do tipo Board num estado válido</text><polygon fill="#181818" points="1363.5,498.9375,1373.5,502.9375,1363.5,506.9375,1367.5,502.9375" style="stroke:#181818;stroke-width:1.0;"/><line style="stroke:#181818;stroke-width:1.0;" x1="1046.5" x2="1369.5" y1="502.9375" y2="502.9375"/><text fill="#000000" font-family="FG Virgil" font-size="20" lengthAdjust="spacing" textLength="63" x="1053.5" y="496.2207">create</text><polygon fill="#181818" points="1363.5,536.2188,1373.5,540.2188,1363.5,544.2188,1367.5,540.2188" style="stroke:#181818;stroke-width:1.0;"/><line style="stroke:#181818;stroke-width:1.0;" x1="1046.5" x2="1369.5" y1="540.2188" y2="540.2188"/><text fill="#000000" font-family="FG Virgil" font-size="20" lengthAdjust="spacing" textLength="235" x="1053.5" y="533.502">setMaxRows(maxRows)</text><polygon fill="#181818" points="1363.5,573.5,1373.5,577.5,1363.5,581.5,1367.5,577.5" style="stroke:#181818;stroke-width:1.0;"/><line style="stroke:#181818;stroke-width:1.0;" x1="1046.5" x2="1369.5" y1="577.5" y2="577.5"/><text fill="#000000" font-family="FG Virgil" font-size="20" lengthAdjust="spacing" textLength="305" x="1053.5" y="570.7832">setMaxColumns(maxColumns)</text><polygon fill="#181818" points="1363.5,610.7813,1373.5,614.7813,1363.5,618.7813,1367.5,614.7813" style="stroke:#181818;stroke-width:1.0;"/><line style="stroke:#181818;stroke-width:1.0;" x1="1046.5" x2="1369.5" y1="614.7813" y2="614.7813"/><text fill="#000000" font-family="FG Virgil" font-size="20" lengthAdjust="spacing" textLength="130" x="1053.5" y="608.0645">setTitle(title)</text><polygon fill="#181818" points="1363.5,648.0625,1373.5,652.0625,1363.5,656.0625,1367.5,652.0625" style="stroke:#181818;stroke-width:1.0;"/><line style="stroke:#181818;stroke-width:1.0;" x1="1046.5" x2="1369.5" y1="652.0625" y2="652.0625"/><text fill="#000000" font-family="FG Virgil" font-size="20" lengthAdjust="spacing" textLength="287" x="1053.5" y="645.3457">setColumnTitle(columnTitle)</text><polygon fill="#181818" points="1363.5,685.3438,1373.5,689.3438,1363.5,693.3438,1367.5,689.3438" style="stroke:#181818;stroke-width:1.0;"/><line style="stroke:#181818;stroke-width:1.0;" x1="1046.5" x2="1369.5" y1="689.3438" y2="689.3438"/><text fill="#000000" font-family="FG Virgil" font-size="20" lengthAdjust="spacing" textLength="214" x="1053.5" y="682.627">setRowTitle(rowTitle)</text><polygon fill="#181818" points="1363.5,722.625,1373.5,726.625,1363.5,730.625,1367.5,726.625" style="stroke:#181818;stroke-width:1.0;"/><line style="stroke:#181818;stroke-width:1.0;" x1="1046.5" x2="1369.5" y1="726.625" y2="726.625"/><text fill="#000000" font-family="FG Virgil" font-size="20" lengthAdjust="spacing" textLength="174" x="1053.5" y="719.9082">setOwner(owner)</text><polygon fill="#181818" points="1358.5,759.9063,1368.5,763.9063,1358.5,767.9063,1362.5,763.9063" style="stroke:#181818;stroke-width:1.0;"/><line style="stroke:#181818;stroke-width:1.0;" x1="1046.5" x2="1364.5" y1="763.9063" y2="763.9063"/><text fill="#000000" font-family="FG Virgil" font-size="20" lengthAdjust="spacing" textLength="138" x="1053.5" y="757.1895">createBoard()</text><polygon fill="#181818" points="2101.5,797.1875,2111.5,801.1875,2101.5,805.1875,2105.5,801.1875" style="stroke:#181818;stroke-width:1.0;"/><line style="stroke:#181818;stroke-width:1.0;" x1="1380.5" x2="2107.5" y1="801.1875" y2="801.1875"/><text fill="#000000" font-family="FG Virgil" font-size="20" lengthAdjust="spacing" textLength="714" x="1387.5" y="794.4707">createBoard(maxRows,maxColumns,Title,Column title,Row title,owner)</text><line style="stroke:#181818;stroke-width:1.0;" x1="2123.5" x2="2165.5" y1="838.4688" y2="838.4688"/><line style="stroke:#181818;stroke-width:1.0;" x1="2165.5" x2="2165.5" y1="838.4688" y2="851.4688"/><line style="stroke:#181818;stroke-width:1.0;" x1="2124.5" x2="2165.5" y1="851.4688" y2="851.4688"/><polygon fill="#181818" points="2134.5,847.4688,2124.5,851.4688,2134.5,855.4688,2130.5,851.4688" style="stroke:#181818;stroke-width:1.0;"/><text fill="#000000" font-family="FG Virgil" font-size="20" lengthAdjust="spacing" textLength="99" x="2130.5" y="831.752">setState()</text><path d="M2128,864.4688 L2128,897.4688 L2546,897.4688 L2546,874.4688 L2536,864.4688 L2128,864.4688 " fill="#FAFAFA" style="stroke:#181818;stroke-width:0.5;"/><path d="M2536,864.4688 L2536,874.4688 L2546,874.4688 L2536,864.4688 " fill="#FAFAFA" style="stroke:#181818;stroke-width:0.5;"/><text fill="#000000" font-family="FG Virgil" font-size="20" lengthAdjust="spacing" textLength="397" x="2134" y="888.0332">setState() define o board como "active"</text><polygon fill="#181818" points="1391.5,928.0313,1381.5,932.0313,1391.5,936.0313,1387.5,932.0313" style="stroke:#181818;stroke-width:1.0;"/><line style="stroke:#181818;stroke-width:1.0;" x1="1385.5" x2="2117.5" y1="932.0313" y2="932.0313"/><text fill="#000000" font-family="FG Virgil" font-size="20" lengthAdjust="spacing" textLength="58" x="1397.5" y="925.3145">board</text><polygon fill="#181818" points="1057.5,965.3125,1047.5,969.3125,1057.5,973.3125,1053.5,969.3125" style="stroke:#181818;stroke-width:1.0;"/><line style="stroke:#181818;stroke-width:1.0;" x1="1051.5" x2="1374.5" y1="969.3125" y2="969.3125"/><text fill="#000000" font-family="FG Virgil" font-size="20" lengthAdjust="spacing" textLength="58" x="1063.5" y="962.5957">board</text><polygon fill="#181818" points="2283.5,1002.5938,2293.5,1006.5938,2283.5,1010.5938,2287.5,1006.5938" style="stroke:#181818;stroke-width:1.0;"/><line style="stroke:#181818;stroke-width:1.0;" x1="1046.5" x2="2289.5" y1="1006.5938" y2="1006.5938"/><text fill="#000000" font-family="FG Virgil" font-size="20" lengthAdjust="spacing" textLength="133" x="1053.5" y="999.877">repositories()</text><path d="M2310,1019.5938 L2310,1052.5938 L2748,1052.5938 L2748,1029.5938 L2738,1019.5938 L2310,1019.5938 " fill="#FAFAFA" style="stroke:#181818;stroke-width:0.5;"/><path d="M2738,1019.5938 L2738,1029.5938 L2748,1029.5938 L2738,1019.5938 " fill="#FAFAFA" style="stroke:#181818;stroke-width:0.5;"/><text fill="#000000" font-family="FG Virgil" font-size="20" lengthAdjust="spacing" textLength="417" x="2316" y="1043.1582">pode criar repositório em memória ou JPA</text><polygon fill="#181818" points="2498.5,1083.1563,2508.5,1087.1563,2498.5,1091.1563,2502.5,1087.1563" style="stroke:#181818;stroke-width:1.0;"/><line style="stroke:#181818;stroke-width:1.0;" x1="2305.5" x2="2504.5" y1="1087.1563" y2="1087.1563"/><text fill="#000000" font-family="FG Virgil" font-size="20" lengthAdjust="spacing" textLength="63" x="2312.5" y="1080.4395">create</text><polygon fill="#181818" points="1057.5,1120.4375,1047.5,1124.4375,1057.5,1128.4375,1053.5,1124.4375" style="stroke:#181818;stroke-width:1.0;"/><line style="stroke:#181818;stroke-width:1.0;" x1="1051.5" x2="2299.5" y1="1124.4375" y2="1124.4375"/><text fill="#000000" font-family="FG Virgil" font-size="20" lengthAdjust="spacing" textLength="69" x="1063.5" y="1117.7207">factory</text><polygon fill="#181818" points="2493.5,1157.7188,2503.5,1161.7188,2493.5,1165.7188,2497.5,1161.7188" style="stroke:#181818;stroke-width:1.0;"/><line style="stroke:#181818;stroke-width:1.0;" x1="1046.5" x2="2499.5" y1="1161.7188" y2="1161.7188"/><text fill="#000000" font-family="FG Virgil" font-size="20" lengthAdjust="spacing" textLength="84" x="1053.5" y="1155.002">boards()</text><polygon fill="#181818" points="3194,1195,3204,1199,3194,1203,3198,1199" style="stroke:#181818;stroke-width:1.0;"/><line style="stroke:#181818;stroke-width:1.0;" x1="2515.5" x2="3200" y1="1199" y2="1199"/><text fill="#000000" font-family="FG Virgil" font-size="20" lengthAdjust="spacing" textLength="63" x="2522.5" y="1192.2832">create</text><polygon fill="#181818" points="1057.5,1232.2813,1047.5,1236.2813,1057.5,1240.2813,1053.5,1236.2813" style="stroke:#181818;stroke-width:1.0;"/><line style="stroke:#181818;stroke-width:1.0;" x1="1051.5" x2="2509.5" y1="1236.2813" y2="1236.2813"/><text fill="#000000" font-family="FG Virgil" font-size="20" lengthAdjust="spacing" textLength="164" x="1063.5" y="1229.5645">boardRepository</text><polygon fill="#181818" points="3194,1269.5625,3204,1273.5625,3194,1277.5625,3198,1273.5625" style="stroke:#181818;stroke-width:1.0;"/><line style="stroke:#181818;stroke-width:1.0;" x1="1046.5" x2="3200" y1="1273.5625" y2="1273.5625"/><text fill="#000000" font-family="FG Virgil" font-size="20" lengthAdjust="spacing" textLength="119" x="1053.5" y="1266.8457">save(board)</text><polygon fill="#181818" points="314.5,1306.8438,304.5,1310.8438,314.5,1314.8438,310.5,1310.8438" style="stroke:#181818;stroke-width:1.0;"/><line style="stroke:#181818;stroke-width:1.0;" x1="308.5" x2="1040.5" y1="1310.8438" y2="1310.8438"/><text fill="#000000" font-family="FG Virgil" font-size="20" lengthAdjust="spacing" textLength="58" x="320.5" y="1304.127">board</text><polygon fill="#181818" points="41.5,1344.125,31.5,1348.125,41.5,1352.125,37.5,1348.125" style="stroke:#181818;stroke-width:1.0;"/><line style="stroke:#181818;stroke-width:1.0;stroke-dasharray:2.0,2.0;" x1="35.5" x2="297.5" y1="1348.125" y2="1348.125"/><text fill="#000000" font-family="FG Virgil" font-size="20" lengthAdjust="spacing" textLength="168" x="47.5" y="1341.4082">displayBoardInfo</text><polygon fill="#181818" points="281.5,1381.4063,291.5,1385.4063,281.5,1389.4063,285.5,1385.4063" style="stroke:#181818;stroke-width:1.0;"/><line style="stroke:#181818;stroke-width:1.0;" x1="30.5" x2="287.5" y1="1385.4063" y2="1385.4063"/><text fill="#000000" font-family="FG Virgil" font-size="20" lengthAdjust="spacing" textLength="155" x="37.5" y="1378.6895">set Permissions</text><polygon fill="#181818" points="1024.5,1418.6875,1034.5,1422.6875,1024.5,1426.6875,1028.5,1422.6875" style="stroke:#181818;stroke-width:1.0;"/><line style="stroke:#181818;stroke-width:1.0;" x1="303.5" x2="1030.5" y1="1422.6875" y2="1422.6875"/><text fill="#000000" font-family="FG Virgil" font-size="20" lengthAdjust="spacing" textLength="499" x="310.5" y="1415.9707">defineBoardSharePermissions(board,permissions)</text><polygon fill="#181818" points="1554,1455.9688,1564,1459.9688,1554,1463.9688,1558,1459.9688" style="stroke:#181818;stroke-width:1.0;"/><line style="stroke:#181818;stroke-width:1.0;" x1="1046.5" x2="1560" y1="1459.9688" y2="1459.9688"/><text fill="#000000" font-family="FG Virgil" font-size="20" lengthAdjust="spacing" textLength="63" x="1053.5" y="1453.252">create</text><polygon fill="#181818" points="1554,1493.25,1564,1497.25,1554,1501.25,1558,1497.25" style="stroke:#181818;stroke-width:1.0;"/><line style="stroke:#181818;stroke-width:1.0;" x1="1046.5" x2="1560" y1="1497.25" y2="1497.25"/><text fill="#000000" font-family="FG Virgil" font-size="20" lengthAdjust="spacing" textLength="163" x="1053.5" y="1490.5332">setBoard(board)</text><polygon fill="#181818" points="1554,1530.5313,1564,1534.5313,1554,1538.5313,1558,1534.5313" style="stroke:#181818;stroke-width:1.0;"/><line style="stroke:#181818;stroke-width:1.0;" x1="1046.5" x2="1560" y1="1534.5313" y2="1534.5313"/><text fill="#000000" font-family="FG Virgil" font-size="20" lengthAdjust="spacing" textLength="285" x="1053.5" y="1527.8145">setPermissions(permissions)</text><polygon fill="#181818" points="1549,1567.8125,1559,1571.8125,1549,1575.8125,1553,1571.8125" style="stroke:#181818;stroke-width:1.0;"/><line style="stroke:#181818;stroke-width:1.0;" x1="1046.5" x2="1555" y1="1571.8125" y2="1571.8125"/><text fill="#000000" font-family="FG Virgil" font-size="20" lengthAdjust="spacing" textLength="196" x="1053.5" y="1565.0957">createBoardShare()</text><polygon fill="#181818" points="2732.5,1605.0938,2742.5,1609.0938,2732.5,1613.0938,2736.5,1609.0938" style="stroke:#181818;stroke-width:1.0;"/><line style="stroke:#181818;stroke-width:1.0;" x1="1571" x2="2738.5" y1="1609.0938" y2="1609.0938"/><text fill="#000000" font-family="FG Virgil" font-size="20" lengthAdjust="spacing" textLength="380" x="1578" y="1602.377">createBoardShare(board,permissions)</text><polygon fill="#181818" points="1582,1642.375,1572,1646.375,1582,1650.375,1578,1646.375" style="stroke:#181818;stroke-width:1.0;"/><line style="stroke:#181818;stroke-width:1.0;" x1="1576" x2="2743.5" y1="1646.375" y2="1646.375"/><text fill="#000000" font-family="FG Virgil" font-size="20" lengthAdjust="spacing" textLength="116" x="1588" y="1639.6582">boardShare</text><polygon fill="#181818" points="1057.5,1679.6563,1047.5,1683.6563,1057.5,1687.6563,1053.5,1683.6563" style="stroke:#181818;stroke-width:1.0;"/><line style="stroke:#181818;stroke-width:1.0;" x1="1051.5" x2="1565" y1="1683.6563" y2="1683.6563"/><text fill="#000000" font-family="FG Virgil" font-size="20" lengthAdjust="spacing" textLength="116" x="1063.5" y="1676.9395">boardShare</text><polygon fill="#181818" points="2283.5,1716.9375,2293.5,1720.9375,2283.5,1724.9375,2287.5,1720.9375" style="stroke:#181818;stroke-width:1.0;"/><line style="stroke:#181818;stroke-width:1.0;" x1="1046.5" x2="2289.5" y1="1720.9375" y2="1720.9375"/><text fill="#000000" font-family="FG Virgil" font-size="20" lengthAdjust="spacing" textLength="133" x="1053.5" y="1714.2207">repositories()</text><path d="M2310,1733.9375 L2310,1766.9375 L2748,1766.9375 L2748,1743.9375 L2738,1733.9375 L2310,1733.9375 " fill="#FAFAFA" style="stroke:#181818;stroke-width:0.5;"/><path d="M2738,1733.9375 L2738,1743.9375 L2748,1743.9375 L2738,1733.9375 " fill="#FAFAFA" style="stroke:#181818;stroke-width:0.5;"/><text fill="#000000" font-family="FG Virgil" font-size="20" lengthAdjust="spacing" textLength="417" x="2316" y="1757.502">pode criar repositório em memória ou JPA</text><polygon fill="#181818" points="2498.5,1797.5,2508.5,1801.5,2498.5,1805.5,2502.5,1801.5" style="stroke:#181818;stroke-width:1.0;"/><line style="stroke:#181818;stroke-width:1.0;" x1="2305.5" x2="2504.5" y1="1801.5" y2="1801.5"/><text fill="#000000" font-family="FG Virgil" font-size="20" lengthAdjust="spacing" textLength="63" x="2312.5" y="1794.7832">create</text><polygon fill="#181818" points="1057.5,1834.7813,1047.5,1838.7813,1057.5,1842.7813,1053.5,1838.7813" style="stroke:#181818;stroke-width:1.0;"/><line style="stroke:#181818;stroke-width:1.0;" x1="1051.5" x2="2299.5" y1="1838.7813" y2="1838.7813"/><text fill="#000000" font-family="FG Virgil" font-size="20" lengthAdjust="spacing" textLength="69" x="1063.5" y="1832.0645">factory</text><polygon fill="#181818" points="2493.5,1872.0625,2503.5,1876.0625,2493.5,1880.0625,2497.5,1876.0625" style="stroke:#181818;stroke-width:1.0;"/><line style="stroke:#181818;stroke-width:1.0;" x1="1046.5" x2="2499.5" y1="1876.0625" y2="1876.0625"/><text fill="#000000" font-family="FG Virgil" font-size="20" lengthAdjust="spacing" textLength="142" x="1053.5" y="1869.3457">boardShares()</text><polygon fill="#181818" points="2984,1909.3438,2994,1913.3438,2984,1917.3438,2988,1913.3438" style="stroke:#181818;stroke-width:1.0;"/><line style="stroke:#181818;stroke-width:1.0;" x1="2515.5" x2="2990" y1="1913.3438" y2="1913.3438"/><text fill="#000000" font-family="FG Virgil" font-size="20" lengthAdjust="spacing" textLength="63" x="2522.5" y="1906.627">create</text><polygon fill="#181818" points="1057.5,1946.625,1047.5,1950.625,1057.5,1954.625,1053.5,1950.625" style="stroke:#181818;stroke-width:1.0;"/><line style="stroke:#181818;stroke-width:1.0;" x1="1051.5" x2="2509.5" y1="1950.625" y2="1950.625"/><text fill="#000000" font-family="FG Virgil" font-size="20" lengthAdjust="spacing" textLength="222" x="1063.5" y="1943.9082">boardShareRepository</text><polygon fill="#181818" points="2984,1983.9063,2994,1987.9063,2984,1991.9063,2988,1987.9063" style="stroke:#181818;stroke-width:1.0;"/><line style="stroke:#181818;stroke-width:1.0;" x1="1046.5" x2="2990" y1="1987.9063" y2="1987.9063"/><text fill="#000000" font-family="FG Virgil" font-size="20" lengthAdjust="spacing" textLength="177" x="1053.5" y="1981.1895">save(boardShare)</text><polygon fill="#181818" points="314.5,2021.1875,304.5,2025.1875,314.5,2029.1875,310.5,2025.1875" style="stroke:#181818;stroke-width:1.0;"/><line style="stroke:#181818;stroke-width:1.0;" x1="308.5" x2="1035.5" y1="2025.1875" y2="2025.1875"/><text fill="#000000" font-family="FG Virgil" font-size="20" lengthAdjust="spacing" textLength="116" x="320.5" y="2018.4707">boardShare</text><polygon fill="#181818" points="41.5,2058.4688,31.5,2062.4688,41.5,2066.4688,37.5,2062.4688" style="stroke:#181818;stroke-width:1.0;"/><line style="stroke:#181818;stroke-width:1.0;stroke-dasharray:2.0,2.0;" x1="35.5" x2="297.5" y1="2062.4688" y2="2062.4688"/><text fill="#000000" font-family="FG Virgil" font-size="20" lengthAdjust="spacing" textLength="239" x="47.5" y="2055.752">displaySharedBoardInfo</text><!--SRC=[jLZDRjiu4BxhAOXSR0FvATIROHX8KxX8WTqMzMPFUs4aEYOYYG999Ss-pHxtl8-G5ziXAOaZYRITeit18Stvvf_VC56FlAgff6KXiaUMavpjQ5FeZQZqbl_DIFekcUsrhfTNLtL1AzsKnMKcoYlLuIxtkYoIfD-JKbGYsqjHCg9bmz19JRD7-i2s-gLWHB9CepDaztSAqCqdyYUN3xn0CcfFS_7CgmUoeuLYIK8pBIIvKqmIgiYrsIKWgdd6Q_2Lt4X6DViWgCplReq8VAvMjMIALPfgBghrEWQu0K-aA0gd6-rMArhN1Sz2U8lyqF0YTx1kkLhTkzL8VhkdakKHL1g5dMMiA9Oty75cv3-AalBAR06HsyqOS6zCBAqX18c9VsLISQLPbJ4JEFkk3GPzQxBeToFqDrOBnQ4MBnjRe1S3xfQhrSwjWXxQV3WtxHBvcc9dSwhfFLMCU55lrM3ypk1alvjWOx0nQjR3J9vZgFTZcEr9Sd6nXjPRjkr5RAYcUVcJsTxT9WH-e3T1p3VQacHMt1pEtEdqq3WpNrZyh5VenUm1e0bkOB3YEoQWo09wPLwqFRJg26wwiTj8binoTa0LcGtzGYss97qYELEzQpXE9DsVMkyg0QUIF-mr4RkXqbha34BcL7RwN_-JN106nCLAiwP4DEJprsklqkZ4pG-EjksCQ-I5Hx8uDstp1zCJ2cUK7syMaXXEocPamIQaktsW0ZLhmFlPG7PSLOyD1Z0sZPo_M6ExYZwnkL6uY0LgRalVHzZ6gBVDjG1nUysMv5ezkij5UBKJihGKRUM6zx2atx-9PtN-LsMMDw9eoihk_k2wO6RXlYEwsuEusoHMtR31ZCfFJ1EzPuGsy5bfCnvWcZPcDCt5SmM_GD08MFyMX5QvarTAPDmAiqmq4WZ6W2wJv20fMEwQTt6W85m40_Txty-j8oxdKRAOHDTEe-LWIht-2sx2D2PcChVtgIafCQ7d5AuO76bU2qUof6fAmfGsWAVNVmgUYzxOiEwTiN5dXgKKqx-v57IfM2I-euPXu1nkssB1Gq1tTS4TSvBPDkDpd_p5SPmjpznMumHffzTXChy-0GcvS33PBax0V37TCKSz4fV6JUXb-vvgnJ0hza-XVlhyj5QUc7Vw1sVjUmSPXu2ty0Payw6IOTDCXSr3bLUCY9Peu2qio9arpSu29Y_MVKkxiOz59hCnbZ7Kl4CjI4ENz4ZfJXcjXoVhBnYiRvchRnchaQaQIKrlrEOsc939L8qDrQ3daP5wFto0Xhplx0OynoFLJLGtMeAYPaJvpWdFKs_axXOcPJjJSwxW3xyNUqjlWID3NhOls7xGEdjmQKpsIwuKaAgQ9XN1mE8mD-wQ-USzKkJYFA_zDuZr9qO2ymt_1Faj3LRn20J2TLGsAiDfK1pV8B8tg45yQdCs3wF7Z946fH03fPutqm5hEok1SiGKjafwKapRhhIAJd9Zp8Hnv9GQqnEIUGfD1fCPeynVIvy_IAK_IAkHz1uB_H3RsleTJUxcW2DHAawFXdw8bqV_L3YMWqCUXZaxHQHjZIsEWdiMTrqVZUi0ZwF_E5as7x3u_m00]--></g></svg>