<?xml version="1.0" encoding="UTF-8" standalone="no"?><svg xmlns="http://www.w3.org/2000/svg" xmlns:xlink="http://www.w3.org/1999/xlink" contentStyleType="text/css" height="1249px" preserveAspectRatio="none" style="width:4179px;height:1249px;background:#FFFFFF;" version="1.1" viewBox="0 0 4179 1249" width="4179px" zoomAndPan="magnify"><defs/><g><text fill="#000000" font-family="sans-serif" font-size="14" font-weight="bold" lengthAdjust="spacing" textLength="314" x="1923" y="32.9951">Domain Model Extract of Board Creation</text><!--cluster Board--><g id="cluster_Board"><path d="M8.5,63.2969 L96.5,63.2969 A3.75,3.75 0 0 1 99,65.7969 L106,112.5781 L871.5,112.5781 A2.5,2.5 0 0 1 874,115.0781 L874,831.7969 A2.5,2.5 0 0 1 871.5,834.2969 L8.5,834.2969 A2.5,2.5 0 0 1 6,831.7969 L6,65.7969 A2.5,2.5 0 0 1 8.5,63.2969 " fill="#D3D3D3" style="stroke:#000000;stroke-width:1.5;"/><line style="stroke:#000000;stroke-width:1.5;" x1="6" x2="106" y1="112.5781" y2="112.5781"/><text fill="#000000" font-family="sans-serif" font-size="20" font-weight="bold" lengthAdjust="spacing" textLength="67" x="20" y="93.8613">Board</text></g><!--cluster BoardShare--><g id="cluster_BoardShare"><path d="M3934.5,661.2969 L4088.5,661.2969 A3.75,3.75 0 0 1 4091,663.7969 L4098,710.5781 L4169.5,710.5781 A2.5,2.5 0 0 1 4172,713.0781 L4172,1239.7969 A2.5,2.5 0 0 1 4169.5,1242.2969 L3934.5,1242.2969 A2.5,2.5 0 0 1 3932,1239.7969 L3932,663.7969 A2.5,2.5 0 0 1 3934.5,661.2969 " fill="#D3D3D3" style="stroke:#000000;stroke-width:1.5;"/><line style="stroke:#000000;stroke-width:1.5;" x1="3932" x2="4098" y1="710.5781" y2="710.5781"/><text fill="#000000" font-family="sans-serif" font-size="20" font-weight="bold" lengthAdjust="spacing" textLength="133" x="3946" y="691.8613">BoardShare</text></g><!--cluster SystemUser--><g id="cluster_SystemUser"><path d="M900.5,661.2969 L1057.5,661.2969 A3.75,3.75 0 0 1 1060,663.7969 L1067,710.5781 L2510.5,710.5781 A2.5,2.5 0 0 1 2513,713.0781 L2513,1062.7969 A2.5,2.5 0 0 1 2510.5,1065.2969 L900.5,1065.2969 A2.5,2.5 0 0 1 898,1062.7969 L898,663.7969 A2.5,2.5 0 0 1 900.5,661.2969 " fill="#D3D3D3" style="stroke:#000000;stroke-width:1.5;"/><line style="stroke:#000000;stroke-width:1.5;" x1="898" x2="1067" y1="710.5781" y2="710.5781"/><text fill="#000000" font-family="sans-serif" font-size="20" font-weight="bold" lengthAdjust="spacing" textLength="136" x="912" y="691.8613">SystemUser</text></g><!--cluster eCourseUser--><g id="cluster_eCourseUser"><path d="M2539.5,405.2969 L2705.5,405.2969 A3.75,3.75 0 0 1 2708,407.7969 L2715,454.5781 L3900.5,454.5781 A2.5,2.5 0 0 1 3903,457.0781 L3903,849.7969 A2.5,2.5 0 0 1 3900.5,852.2969 L2539.5,852.2969 A2.5,2.5 0 0 1 2537,849.7969 L2537,407.7969 A2.5,2.5 0 0 1 2539.5,405.2969 " fill="#D3D3D3" style="stroke:#000000;stroke-width:1.5;"/><line style="stroke:#000000;stroke-width:1.5;" x1="2537" x2="2715" y1="454.5781" y2="454.5781"/><text fill="#000000" font-family="sans-serif" font-size="20" font-weight="bold" lengthAdjust="spacing" textLength="145" x="2551" y="435.8613">eCourseUser</text></g><!--class Board--><g id="elem_Board"><rect codeLine="17" fill="#F1F1F1" height="199.125" id="Board" rx="2.5" ry="2.5" style="stroke:#181818;stroke-width:0.5;" width="178" x="680" y="125.2969"/><ellipse cx="724.8" cy="173.5781" fill="#ADD1B2" rx="12" ry="12" style="stroke:#181818;stroke-width:1.0;"/><path d="M727.8625,180.6563 Q727.175,181.0156 726.425,181.1875 Q725.675,181.3594 724.8469,181.3594 Q721.8938,181.3594 720.3313,179.4219 Q718.7844,177.4688 718.7844,173.7969 Q718.7844,170.125 720.3313,168.1875 Q721.8938,166.2344 724.8469,166.2344 Q725.675,166.2344 726.425,166.4063 Q727.1906,166.5781 727.8625,166.9375 L727.8625,170.1406 Q727.1125,169.4531 726.4094,169.1406 Q725.7219,168.8281 724.9719,168.8281 Q723.3938,168.8281 722.5813,170.0781 Q721.7844,171.3281 721.7844,173.7969 Q721.7844,176.2656 722.5813,177.5156 Q723.3938,178.7656 724.9719,178.7656 Q725.7219,178.7656 726.4094,178.4531 Q727.1125,178.1406 727.8625,177.4531 L727.8625,180.6563 Z " fill="#000000"/><text fill="#000000" font-family="sans-serif" font-size="20" font-style="italic" lengthAdjust="spacing" textLength="64" x="754.2" y="158.8613">«root»</text><text fill="#000000" font-family="sans-serif" font-size="20" lengthAdjust="spacing" textLength="59" x="756.7" y="202.1426">Board</text><line style="stroke:#181818;stroke-width:0.5;" x1="681" x2="857" y1="221.8594" y2="221.8594"/><rect fill="none" height="6" style="stroke:#C82930;stroke-width:1.0;" width="6" x="688" y="246"/><text fill="#000000" font-family="sans-serif" font-size="20" lengthAdjust="spacing" textLength="131" x="711" y="254.4238">maxColumns</text><rect fill="none" height="6" style="stroke:#C82930;stroke-width:1.0;" width="6" x="688" y="289.2813"/><text fill="#000000" font-family="sans-serif" font-size="20" lengthAdjust="spacing" textLength="96" x="711" y="297.7051">maxRows</text><line style="stroke:#181818;stroke-width:0.5;" x1="681" x2="857" y1="316.4219" y2="316.4219"/></g><!--class Title--><g id="elem_Title"><rect codeLine="22" fill="#F1F1F1" height="112.5625" id="Title" rx="2.5" ry="2.5" style="stroke:#181818;stroke-width:0.5;" width="197" x="22.5" y="467.2969"/><ellipse cx="38.5" cy="515.5781" fill="#ADD1B2" rx="12" ry="12" style="stroke:#181818;stroke-width:1.0;"/><path d="M41.5625,522.6563 Q40.875,523.0156 40.125,523.1875 Q39.375,523.3594 38.5469,523.3594 Q35.5938,523.3594 34.0313,521.4219 Q32.4844,519.4688 32.4844,515.7969 Q32.4844,512.125 34.0313,510.1875 Q35.5938,508.2344 38.5469,508.2344 Q39.375,508.2344 40.125,508.4063 Q40.8906,508.5781 41.5625,508.9375 L41.5625,512.1406 Q40.8125,511.4531 40.1094,511.1406 Q39.4219,510.8281 38.6719,510.8281 Q37.0938,510.8281 36.2813,512.0781 Q35.4844,513.3281 35.4844,515.7969 Q35.4844,518.2656 36.2813,519.5156 Q37.0938,520.7656 38.6719,520.7656 Q39.4219,520.7656 40.1094,520.4531 Q40.8125,520.1406 41.5625,519.4531 L41.5625,522.6563 Z " fill="#000000"/><text fill="#000000" font-family="sans-serif" font-size="20" font-style="italic" lengthAdjust="spacing" textLength="147" x="61.5" y="500.8613">«value object»</text><text fill="#000000" font-family="sans-serif" font-size="20" lengthAdjust="spacing" textLength="44" x="113" y="544.1426">Title</text><line style="stroke:#181818;stroke-width:0.5;" x1="23.5" x2="218.5" y1="563.8594" y2="563.8594"/><line style="stroke:#181818;stroke-width:0.5;" x1="23.5" x2="218.5" y1="571.8594" y2="571.8594"/></g><!--class Column--><g id="elem_Column"><rect codeLine="24" fill="#F1F1F1" height="199.125" id="Column" rx="2.5" ry="2.5" style="stroke:#181818;stroke-width:0.5;" width="133" x="299.5" y="424.2969"/><ellipse cx="315.5" cy="472.5781" fill="#ADD1B2" rx="12" ry="12" style="stroke:#181818;stroke-width:1.0;"/><path d="M318.5625,479.6563 Q317.875,480.0156 317.125,480.1875 Q316.375,480.3594 315.5469,480.3594 Q312.5938,480.3594 311.0313,478.4219 Q309.4844,476.4688 309.4844,472.7969 Q309.4844,469.125 311.0313,467.1875 Q312.5938,465.2344 315.5469,465.2344 Q316.375,465.2344 317.125,465.4063 Q317.8906,465.5781 318.5625,465.9375 L318.5625,469.1406 Q317.8125,468.4531 317.1094,468.1406 Q316.4219,467.8281 315.6719,467.8281 Q314.0938,467.8281 313.2813,469.0781 Q312.4844,470.3281 312.4844,472.7969 Q312.4844,475.2656 313.2813,476.5156 Q314.0938,477.7656 315.6719,477.7656 Q316.4219,477.7656 317.1094,477.4531 Q317.8125,477.1406 318.5625,476.4531 L318.5625,479.6563 Z " fill="#000000"/><text fill="#000000" font-family="sans-serif" font-size="20" font-style="italic" lengthAdjust="spacing" textLength="83" x="338.5" y="457.8613">«entity»</text><text fill="#000000" font-family="sans-serif" font-size="20" lengthAdjust="spacing" textLength="78" x="341" y="501.1426">Column</text><line style="stroke:#181818;stroke-width:0.5;" x1="300.5" x2="431.5" y1="520.8594" y2="520.8594"/><rect fill="none" height="6" style="stroke:#C82930;stroke-width:1.0;" width="6" x="307.5" y="545"/><text fill="#000000" font-family="sans-serif" font-size="20" lengthAdjust="spacing" textLength="40" x="330.5" y="553.4238">title</text><rect fill="none" height="6" style="stroke:#C82930;stroke-width:1.0;" width="6" x="307.5" y="588.2813"/><text fill="#000000" font-family="sans-serif" font-size="20" lengthAdjust="spacing" textLength="19" x="330.5" y="596.7051">id</text><line style="stroke:#181818;stroke-width:0.5;" x1="300.5" x2="431.5" y1="615.4219" y2="615.4219"/></g><!--class Row--><g id="elem_Row"><rect codeLine="29" fill="#F1F1F1" height="199.125" id="Row" rx="2.5" ry="2.5" style="stroke:#181818;stroke-width:0.5;" width="133" x="512.5" y="424.2969"/><ellipse cx="528.5" cy="472.5781" fill="#ADD1B2" rx="12" ry="12" style="stroke:#181818;stroke-width:1.0;"/><path d="M531.5625,479.6563 Q530.875,480.0156 530.125,480.1875 Q529.375,480.3594 528.5469,480.3594 Q525.5938,480.3594 524.0313,478.4219 Q522.4844,476.4688 522.4844,472.7969 Q522.4844,469.125 524.0313,467.1875 Q525.5938,465.2344 528.5469,465.2344 Q529.375,465.2344 530.125,465.4063 Q530.8906,465.5781 531.5625,465.9375 L531.5625,469.1406 Q530.8125,468.4531 530.1094,468.1406 Q529.4219,467.8281 528.6719,467.8281 Q527.0938,467.8281 526.2813,469.0781 Q525.4844,470.3281 525.4844,472.7969 Q525.4844,475.2656 526.2813,476.5156 Q527.0938,477.7656 528.6719,477.7656 Q529.4219,477.7656 530.1094,477.4531 Q530.8125,477.1406 531.5625,476.4531 L531.5625,479.6563 Z " fill="#000000"/><text fill="#000000" font-family="sans-serif" font-size="20" font-style="italic" lengthAdjust="spacing" textLength="83" x="551.5" y="457.8613">«entity»</text><text fill="#000000" font-family="sans-serif" font-size="20" lengthAdjust="spacing" textLength="43" x="571.5" y="501.1426">Row</text><line style="stroke:#181818;stroke-width:0.5;" x1="513.5" x2="644.5" y1="520.8594" y2="520.8594"/><rect fill="none" height="6" style="stroke:#C82930;stroke-width:1.0;" width="6" x="520.5" y="545"/><text fill="#000000" font-family="sans-serif" font-size="20" lengthAdjust="spacing" textLength="40" x="543.5" y="553.4238">title</text><rect fill="none" height="6" style="stroke:#C82930;stroke-width:1.0;" width="6" x="520.5" y="588.2813"/><text fill="#000000" font-family="sans-serif" font-size="20" lengthAdjust="spacing" textLength="19" x="543.5" y="596.7051">id</text><line style="stroke:#181818;stroke-width:0.5;" x1="513.5" x2="644.5" y1="615.4219" y2="615.4219"/></g><!--class State--><g id="elem_State"><rect codeLine="34" fill="#F1F1F1" height="112.5625" id="State" rx="2.5" ry="2.5" style="stroke:#181818;stroke-width:0.5;" width="132" x="726" y="467.2969"/><ellipse cx="742" cy="515.5781" fill="#ADD1B2" rx="12" ry="12" style="stroke:#181818;stroke-width:1.0;"/><path d="M745.0625,522.6563 Q744.375,523.0156 743.625,523.1875 Q742.875,523.3594 742.0469,523.3594 Q739.0938,523.3594 737.5313,521.4219 Q735.9844,519.4688 735.9844,515.7969 Q735.9844,512.125 737.5313,510.1875 Q739.0938,508.2344 742.0469,508.2344 Q742.875,508.2344 743.625,508.4063 Q744.3906,508.5781 745.0625,508.9375 L745.0625,512.1406 Q744.3125,511.4531 743.6094,511.1406 Q742.9219,510.8281 742.1719,510.8281 Q740.5938,510.8281 739.7813,512.0781 Q738.9844,513.3281 738.9844,515.7969 Q738.9844,518.2656 739.7813,519.5156 Q740.5938,520.7656 742.1719,520.7656 Q742.9219,520.7656 743.6094,520.4531 Q744.3125,520.1406 745.0625,519.4531 L745.0625,522.6563 Z " fill="#000000"/><text fill="#000000" font-family="sans-serif" font-size="20" font-style="italic" lengthAdjust="spacing" textLength="82" x="765" y="500.8613">«enum»</text><text fill="#000000" font-family="sans-serif" font-size="20" lengthAdjust="spacing" textLength="53" x="779.5" y="544.1426">State</text><line style="stroke:#181818;stroke-width:0.5;" x1="727" x2="857" y1="563.8594" y2="563.8594"/><line style="stroke:#181818;stroke-width:0.5;" x1="727" x2="857" y1="571.8594" y2="571.8594"/></g><g id="elem_GMN8"><path d="M728.5,741.2969 L728.5,817.8594 A0,0 0 0 0 728.5,817.8594 L855.5,817.8594 A0,0 0 0 0 855.5,817.8594 L855.5,751.2969 L845.5,741.2969 L796,741.2969 L792,580.6069 L788,741.2969 L728.5,741.2969 A0,0 0 0 0 728.5,741.2969 " fill="#A9A9A9" style="stroke:#181818;stroke-width:0.5;"/><path d="M845.5,741.2969 L845.5,751.2969 L855.5,751.2969 L845.5,741.2969 " fill="#A9A9A9" style="stroke:#181818;stroke-width:0.5;"/><text fill="#000000" font-family="sans-serif" font-size="20" lengthAdjust="spacing" textLength="60" x="744.5" y="774.8613">active</text><text fill="#000000" font-family="sans-serif" font-size="20" lengthAdjust="spacing" textLength="86" x="744.5" y="798.1426">archived</text></g><!--class BoardShare--><g id="elem_BoardShare"><rect codeLine="42" fill="#F1F1F1" height="112.5625" id="BoardShare" rx="2.5" ry="2.5" style="stroke:#181818;stroke-width:0.5;" width="171" x="3966.5" y="723.2969"/><ellipse cx="3982.5" cy="771.5781" fill="#ADD1B2" rx="12" ry="12" style="stroke:#181818;stroke-width:1.0;"/><path d="M3985.5625,778.6563 Q3984.875,779.0156 3984.125,779.1875 Q3983.375,779.3594 3982.5469,779.3594 Q3979.5938,779.3594 3978.0313,777.4219 Q3976.4844,775.4688 3976.4844,771.7969 Q3976.4844,768.125 3978.0313,766.1875 Q3979.5938,764.2344 3982.5469,764.2344 Q3983.375,764.2344 3984.125,764.4063 Q3984.8906,764.5781 3985.5625,764.9375 L3985.5625,768.1406 Q3984.8125,767.4531 3984.1094,767.1406 Q3983.4219,766.8281 3982.6719,766.8281 Q3981.0938,766.8281 3980.2813,768.0781 Q3979.4844,769.3281 3979.4844,771.7969 Q3979.4844,774.2656 3980.2813,775.5156 Q3981.0938,776.7656 3982.6719,776.7656 Q3983.4219,776.7656 3984.1094,776.4531 Q3984.8125,776.1406 3985.5625,775.4531 L3985.5625,778.6563 Z " fill="#000000"/><text fill="#000000" font-family="sans-serif" font-size="20" font-style="italic" lengthAdjust="spacing" textLength="64" x="4034" y="756.8613">«root»</text><text fill="#000000" font-family="sans-serif" font-size="20" lengthAdjust="spacing" textLength="117" x="4007.5" y="800.1426">BoardShare</text><line style="stroke:#181818;stroke-width:0.5;" x1="3967.5" x2="4136.5" y1="819.8594" y2="819.8594"/><line style="stroke:#181818;stroke-width:0.5;" x1="3967.5" x2="4136.5" y1="827.8594" y2="827.8594"/></g><!--class UserPermission--><g id="elem_UserPermission"><rect codeLine="44" fill="#F1F1F1" height="112.5625" id="UserPermission" rx="2.5" ry="2.5" style="stroke:#181818;stroke-width:0.5;" width="208" x="3948" y="936.2969"/><ellipse cx="3964" cy="984.5781" fill="#ADD1B2" rx="12" ry="12" style="stroke:#181818;stroke-width:1.0;"/><path d="M3967.0625,991.6563 Q3966.375,992.0156 3965.625,992.1875 Q3964.875,992.3594 3964.0469,992.3594 Q3961.0938,992.3594 3959.5313,990.4219 Q3957.9844,988.4688 3957.9844,984.7969 Q3957.9844,981.125 3959.5313,979.1875 Q3961.0938,977.2344 3964.0469,977.2344 Q3964.875,977.2344 3965.625,977.4063 Q3966.3906,977.5781 3967.0625,977.9375 L3967.0625,981.1406 Q3966.3125,980.4531 3965.6094,980.1406 Q3964.9219,979.8281 3964.1719,979.8281 Q3962.5938,979.8281 3961.7813,981.0781 Q3960.9844,982.3281 3960.9844,984.7969 Q3960.9844,987.2656 3961.7813,988.5156 Q3962.5938,989.7656 3964.1719,989.7656 Q3964.9219,989.7656 3965.6094,989.4531 Q3966.3125,989.1406 3967.0625,988.4531 L3967.0625,991.6563 Z " fill="#000000"/><text fill="#000000" font-family="sans-serif" font-size="20" font-style="italic" lengthAdjust="spacing" textLength="82" x="4025" y="969.8613">«enum»</text><text fill="#000000" font-family="sans-serif" font-size="20" lengthAdjust="spacing" textLength="154" x="3989" y="1013.1426">UserPermission</text><line style="stroke:#181818;stroke-width:0.5;" x1="3949" x2="4155" y1="1032.8594" y2="1032.8594"/><line style="stroke:#181818;stroke-width:0.5;" x1="3949" x2="4155" y1="1040.8594" y2="1040.8594"/></g><g id="elem_GMN14"><path d="M4006,1149.2969 L4006,1225.8594 A0,0 0 0 0 4006,1225.8594 L4098,1225.8594 A0,0 0 0 0 4098,1225.8594 L4098,1159.2969 L4088,1149.2969 L4056,1149.2969 L4052,1049.4569 L4048,1149.2969 L4006,1149.2969 A0,0 0 0 0 4006,1149.2969 " fill="#A9A9A9" style="stroke:#181818;stroke-width:0.5;"/><path d="M4088,1149.2969 L4088,1159.2969 L4098,1159.2969 L4088,1149.2969 " fill="#A9A9A9" style="stroke:#181818;stroke-width:0.5;"/><text fill="#000000" font-family="sans-serif" font-size="20" lengthAdjust="spacing" textLength="45" x="4022" y="1182.8613">read</text><text fill="#000000" font-family="sans-serif" font-size="20" lengthAdjust="spacing" textLength="51" x="4022" y="1206.1426">write</text></g><!--class SystemUser--><g id="elem_SystemUser"><rect codeLine="54" fill="#F1F1F1" height="112.5625" id="SystemUser" rx="2.5" ry="2.5" style="stroke:#181818;stroke-width:0.5;" width="173" x="1757.5" y="723.2969"/><ellipse cx="1773.5" cy="771.5781" fill="#ADD1B2" rx="12" ry="12" style="stroke:#181818;stroke-width:1.0;"/><path d="M1776.5625,778.6563 Q1775.875,779.0156 1775.125,779.1875 Q1774.375,779.3594 1773.5469,779.3594 Q1770.5938,779.3594 1769.0313,777.4219 Q1767.4844,775.4688 1767.4844,771.7969 Q1767.4844,768.125 1769.0313,766.1875 Q1770.5938,764.2344 1773.5469,764.2344 Q1774.375,764.2344 1775.125,764.4063 Q1775.8906,764.5781 1776.5625,764.9375 L1776.5625,768.1406 Q1775.8125,767.4531 1775.1094,767.1406 Q1774.4219,766.8281 1773.6719,766.8281 Q1772.0938,766.8281 1771.2813,768.0781 Q1770.4844,769.3281 1770.4844,771.7969 Q1770.4844,774.2656 1771.2813,775.5156 Q1772.0938,776.7656 1773.6719,776.7656 Q1774.4219,776.7656 1775.1094,776.4531 Q1775.8125,776.1406 1776.5625,775.4531 L1776.5625,778.6563 Z " fill="#000000"/><text fill="#000000" font-family="sans-serif" font-size="20" font-style="italic" lengthAdjust="spacing" textLength="64" x="1826" y="756.8613">«root»</text><text fill="#000000" font-family="sans-serif" font-size="20" lengthAdjust="spacing" textLength="119" x="1798.5" y="800.1426">SystemUser</text><line style="stroke:#181818;stroke-width:0.5;" x1="1758.5" x2="1929.5" y1="819.8594" y2="819.8594"/><line style="stroke:#181818;stroke-width:0.5;" x1="1758.5" x2="1929.5" y1="827.8594" y2="827.8594"/></g><!--class email--><g id="elem_email"><rect codeLine="57" fill="#F1F1F1" height="112.5625" id="email" rx="2.5" ry="2.5" style="stroke:#181818;stroke-width:0.5;" width="197" x="914.5" y="936.2969"/><ellipse cx="930.5" cy="984.5781" fill="#ADD1B2" rx="12" ry="12" style="stroke:#181818;stroke-width:1.0;"/><path d="M933.5625,991.6563 Q932.875,992.0156 932.125,992.1875 Q931.375,992.3594 930.5469,992.3594 Q927.5938,992.3594 926.0313,990.4219 Q924.4844,988.4688 924.4844,984.7969 Q924.4844,981.125 926.0313,979.1875 Q927.5938,977.2344 930.5469,977.2344 Q931.375,977.2344 932.125,977.4063 Q932.8906,977.5781 933.5625,977.9375 L933.5625,981.1406 Q932.8125,980.4531 932.1094,980.1406 Q931.4219,979.8281 930.6719,979.8281 Q929.0938,979.8281 928.2813,981.0781 Q927.4844,982.3281 927.4844,984.7969 Q927.4844,987.2656 928.2813,988.5156 Q929.0938,989.7656 930.6719,989.7656 Q931.4219,989.7656 932.1094,989.4531 Q932.8125,989.1406 933.5625,988.4531 L933.5625,991.6563 Z " fill="#000000"/><text fill="#000000" font-family="sans-serif" font-size="20" font-style="italic" lengthAdjust="spacing" textLength="147" x="953.5" y="969.8613">«value object»</text><text fill="#000000" font-family="sans-serif" font-size="20" lengthAdjust="spacing" textLength="56" x="999" y="1013.1426">email</text><line style="stroke:#181818;stroke-width:0.5;" x1="915.5" x2="1110.5" y1="1032.8594" y2="1032.8594"/><line style="stroke:#181818;stroke-width:0.5;" x1="915.5" x2="1110.5" y1="1040.8594" y2="1040.8594"/></g><!--class password--><g id="elem_password"><rect codeLine="58" fill="#F1F1F1" height="112.5625" id="password" rx="2.5" ry="2.5" style="stroke:#181818;stroke-width:0.5;" width="197" x="1191.5" y="936.2969"/><ellipse cx="1207.5" cy="984.5781" fill="#ADD1B2" rx="12" ry="12" style="stroke:#181818;stroke-width:1.0;"/><path d="M1210.5625,991.6563 Q1209.875,992.0156 1209.125,992.1875 Q1208.375,992.3594 1207.5469,992.3594 Q1204.5938,992.3594 1203.0313,990.4219 Q1201.4844,988.4688 1201.4844,984.7969 Q1201.4844,981.125 1203.0313,979.1875 Q1204.5938,977.2344 1207.5469,977.2344 Q1208.375,977.2344 1209.125,977.4063 Q1209.8906,977.5781 1210.5625,977.9375 L1210.5625,981.1406 Q1209.8125,980.4531 1209.1094,980.1406 Q1208.4219,979.8281 1207.6719,979.8281 Q1206.0938,979.8281 1205.2813,981.0781 Q1204.4844,982.3281 1204.4844,984.7969 Q1204.4844,987.2656 1205.2813,988.5156 Q1206.0938,989.7656 1207.6719,989.7656 Q1208.4219,989.7656 1209.1094,989.4531 Q1209.8125,989.1406 1210.5625,988.4531 L1210.5625,991.6563 Z " fill="#000000"/><text fill="#000000" font-family="sans-serif" font-size="20" font-style="italic" lengthAdjust="spacing" textLength="147" x="1230.5" y="969.8613">«value object»</text><text fill="#000000" font-family="sans-serif" font-size="20" lengthAdjust="spacing" textLength="95" x="1256.5" y="1013.1426">password</text><line style="stroke:#181818;stroke-width:0.5;" x1="1192.5" x2="1387.5" y1="1032.8594" y2="1032.8594"/><line style="stroke:#181818;stroke-width:0.5;" x1="1192.5" x2="1387.5" y1="1040.8594" y2="1040.8594"/></g><!--class firstname--><g id="elem_firstname"><rect codeLine="59" fill="#F1F1F1" height="112.5625" id="firstname" rx="2.5" ry="2.5" style="stroke:#181818;stroke-width:0.5;" width="197" x="1468.5" y="936.2969"/><ellipse cx="1484.5" cy="984.5781" fill="#ADD1B2" rx="12" ry="12" style="stroke:#181818;stroke-width:1.0;"/><path d="M1487.5625,991.6563 Q1486.875,992.0156 1486.125,992.1875 Q1485.375,992.3594 1484.5469,992.3594 Q1481.5938,992.3594 1480.0313,990.4219 Q1478.4844,988.4688 1478.4844,984.7969 Q1478.4844,981.125 1480.0313,979.1875 Q1481.5938,977.2344 1484.5469,977.2344 Q1485.375,977.2344 1486.125,977.4063 Q1486.8906,977.5781 1487.5625,977.9375 L1487.5625,981.1406 Q1486.8125,980.4531 1486.1094,980.1406 Q1485.4219,979.8281 1484.6719,979.8281 Q1483.0938,979.8281 1482.2813,981.0781 Q1481.4844,982.3281 1481.4844,984.7969 Q1481.4844,987.2656 1482.2813,988.5156 Q1483.0938,989.7656 1484.6719,989.7656 Q1485.4219,989.7656 1486.1094,989.4531 Q1486.8125,989.1406 1487.5625,988.4531 L1487.5625,991.6563 Z " fill="#000000"/><text fill="#000000" font-family="sans-serif" font-size="20" font-style="italic" lengthAdjust="spacing" textLength="147" x="1507.5" y="969.8613">«value object»</text><text fill="#000000" font-family="sans-serif" font-size="20" lengthAdjust="spacing" textLength="96" x="1533" y="1013.1426">firstname</text><line style="stroke:#181818;stroke-width:0.5;" x1="1469.5" x2="1664.5" y1="1032.8594" y2="1032.8594"/><line style="stroke:#181818;stroke-width:0.5;" x1="1469.5" x2="1664.5" y1="1040.8594" y2="1040.8594"/></g><!--class lastname--><g id="elem_lastname"><rect codeLine="60" fill="#F1F1F1" height="112.5625" id="lastname" rx="2.5" ry="2.5" style="stroke:#181818;stroke-width:0.5;" width="197" x="1745.5" y="936.2969"/><ellipse cx="1761.5" cy="984.5781" fill="#ADD1B2" rx="12" ry="12" style="stroke:#181818;stroke-width:1.0;"/><path d="M1764.5625,991.6563 Q1763.875,992.0156 1763.125,992.1875 Q1762.375,992.3594 1761.5469,992.3594 Q1758.5938,992.3594 1757.0313,990.4219 Q1755.4844,988.4688 1755.4844,984.7969 Q1755.4844,981.125 1757.0313,979.1875 Q1758.5938,977.2344 1761.5469,977.2344 Q1762.375,977.2344 1763.125,977.4063 Q1763.8906,977.5781 1764.5625,977.9375 L1764.5625,981.1406 Q1763.8125,980.4531 1763.1094,980.1406 Q1762.4219,979.8281 1761.6719,979.8281 Q1760.0938,979.8281 1759.2813,981.0781 Q1758.4844,982.3281 1758.4844,984.7969 Q1758.4844,987.2656 1759.2813,988.5156 Q1760.0938,989.7656 1761.6719,989.7656 Q1762.4219,989.7656 1763.1094,989.4531 Q1763.8125,989.1406 1764.5625,988.4531 L1764.5625,991.6563 Z " fill="#000000"/><text fill="#000000" font-family="sans-serif" font-size="20" font-style="italic" lengthAdjust="spacing" textLength="147" x="1784.5" y="969.8613">«value object»</text><text fill="#000000" font-family="sans-serif" font-size="20" lengthAdjust="spacing" textLength="93" x="1811.5" y="1013.1426">lastname</text><line style="stroke:#181818;stroke-width:0.5;" x1="1746.5" x2="1941.5" y1="1032.8594" y2="1032.8594"/><line style="stroke:#181818;stroke-width:0.5;" x1="1746.5" x2="1941.5" y1="1040.8594" y2="1040.8594"/></g><!--class username--><g id="elem_username"><rect codeLine="61" fill="#F1F1F1" height="112.5625" id="username" rx="2.5" ry="2.5" style="stroke:#181818;stroke-width:0.5;" width="197" x="2022.5" y="936.2969"/><ellipse cx="2038.5" cy="984.5781" fill="#ADD1B2" rx="12" ry="12" style="stroke:#181818;stroke-width:1.0;"/><path d="M2041.5625,991.6563 Q2040.875,992.0156 2040.125,992.1875 Q2039.375,992.3594 2038.5469,992.3594 Q2035.5938,992.3594 2034.0313,990.4219 Q2032.4844,988.4688 2032.4844,984.7969 Q2032.4844,981.125 2034.0313,979.1875 Q2035.5938,977.2344 2038.5469,977.2344 Q2039.375,977.2344 2040.125,977.4063 Q2040.8906,977.5781 2041.5625,977.9375 L2041.5625,981.1406 Q2040.8125,980.4531 2040.1094,980.1406 Q2039.4219,979.8281 2038.6719,979.8281 Q2037.0938,979.8281 2036.2813,981.0781 Q2035.4844,982.3281 2035.4844,984.7969 Q2035.4844,987.2656 2036.2813,988.5156 Q2037.0938,989.7656 2038.6719,989.7656 Q2039.4219,989.7656 2040.1094,989.4531 Q2040.8125,989.1406 2041.5625,988.4531 L2041.5625,991.6563 Z " fill="#000000"/><text fill="#000000" font-family="sans-serif" font-size="20" font-style="italic" lengthAdjust="spacing" textLength="147" x="2061.5" y="969.8613">«value object»</text><text fill="#000000" font-family="sans-serif" font-size="20" lengthAdjust="spacing" textLength="100" x="2085" y="1013.1426">username</text><line style="stroke:#181818;stroke-width:0.5;" x1="2023.5" x2="2218.5" y1="1032.8594" y2="1032.8594"/><line style="stroke:#181818;stroke-width:0.5;" x1="2023.5" x2="2218.5" y1="1040.8594" y2="1040.8594"/></g><!--class Role--><g id="elem_Role"><rect codeLine="63" fill="#F1F1F1" height="112.5625" id="Role" rx="2.5" ry="2.5" style="stroke:#181818;stroke-width:0.5;" width="197" x="2299.5" y="936.2969"/><ellipse cx="2315.5" cy="984.5781" fill="#ADD1B2" rx="12" ry="12" style="stroke:#181818;stroke-width:1.0;"/><path d="M2318.5625,991.6563 Q2317.875,992.0156 2317.125,992.1875 Q2316.375,992.3594 2315.5469,992.3594 Q2312.5938,992.3594 2311.0313,990.4219 Q2309.4844,988.4688 2309.4844,984.7969 Q2309.4844,981.125 2311.0313,979.1875 Q2312.5938,977.2344 2315.5469,977.2344 Q2316.375,977.2344 2317.125,977.4063 Q2317.8906,977.5781 2318.5625,977.9375 L2318.5625,981.1406 Q2317.8125,980.4531 2317.1094,980.1406 Q2316.4219,979.8281 2315.6719,979.8281 Q2314.0938,979.8281 2313.2813,981.0781 Q2312.4844,982.3281 2312.4844,984.7969 Q2312.4844,987.2656 2313.2813,988.5156 Q2314.0938,989.7656 2315.6719,989.7656 Q2316.4219,989.7656 2317.1094,989.4531 Q2317.8125,989.1406 2318.5625,988.4531 L2318.5625,991.6563 Z " fill="#000000"/><text fill="#000000" font-family="sans-serif" font-size="20" font-style="italic" lengthAdjust="spacing" textLength="147" x="2338.5" y="969.8613">«value object»</text><text fill="#000000" font-family="sans-serif" font-size="20" lengthAdjust="spacing" textLength="44" x="2390" y="1013.1426">Role</text><line style="stroke:#181818;stroke-width:0.5;" x1="2300.5" x2="2495.5" y1="1032.8594" y2="1032.8594"/><line style="stroke:#181818;stroke-width:0.5;" x1="2300.5" x2="2495.5" y1="1040.8594" y2="1040.8594"/></g><!--class eCourseUser--><g id="elem_eCourseUser"><rect codeLine="68" fill="#F1F1F1" height="112.5625" id="eCourseUser" rx="2.5" ry="2.5" style="stroke:#181818;stroke-width:0.5;" width="180" x="2977" y="467.2969"/><ellipse cx="2993" cy="515.5781" fill="#ADD1B2" rx="12" ry="12" style="stroke:#181818;stroke-width:1.0;"/><path d="M2996.0625,522.6563 Q2995.375,523.0156 2994.625,523.1875 Q2993.875,523.3594 2993.0469,523.3594 Q2990.0938,523.3594 2988.5313,521.4219 Q2986.9844,519.4688 2986.9844,515.7969 Q2986.9844,512.125 2988.5313,510.1875 Q2990.0938,508.2344 2993.0469,508.2344 Q2993.875,508.2344 2994.625,508.4063 Q2995.3906,508.5781 2996.0625,508.9375 L2996.0625,512.1406 Q2995.3125,511.4531 2994.6094,511.1406 Q2993.9219,510.8281 2993.1719,510.8281 Q2991.5938,510.8281 2990.7813,512.0781 Q2989.9844,513.3281 2989.9844,515.7969 Q2989.9844,518.2656 2990.7813,519.5156 Q2991.5938,520.7656 2993.1719,520.7656 Q2993.9219,520.7656 2994.6094,520.4531 Q2995.3125,520.1406 2996.0625,519.4531 L2996.0625,522.6563 Z " fill="#000000"/><text fill="#000000" font-family="sans-serif" font-size="20" font-style="italic" lengthAdjust="spacing" textLength="64" x="3049" y="500.8613">«root»</text><text fill="#000000" font-family="sans-serif" font-size="20" lengthAdjust="spacing" textLength="126" x="3018" y="544.1426">eCourseUser</text><line style="stroke:#181818;stroke-width:0.5;" x1="2978" x2="3156" y1="563.8594" y2="563.8594"/><line style="stroke:#181818;stroke-width:0.5;" x1="2978" x2="3156" y1="571.8594" y2="571.8594"/></g><!--class ShortName--><g id="elem_ShortName"><rect codeLine="71" fill="#F1F1F1" height="112.5625" id="ShortName" rx="2.5" ry="2.5" style="stroke:#181818;stroke-width:0.5;" width="197" x="2553.5" y="723.2969"/><ellipse cx="2569.5" cy="771.5781" fill="#ADD1B2" rx="12" ry="12" style="stroke:#181818;stroke-width:1.0;"/><path d="M2572.5625,778.6563 Q2571.875,779.0156 2571.125,779.1875 Q2570.375,779.3594 2569.5469,779.3594 Q2566.5938,779.3594 2565.0313,777.4219 Q2563.4844,775.4688 2563.4844,771.7969 Q2563.4844,768.125 2565.0313,766.1875 Q2566.5938,764.2344 2569.5469,764.2344 Q2570.375,764.2344 2571.125,764.4063 Q2571.8906,764.5781 2572.5625,764.9375 L2572.5625,768.1406 Q2571.8125,767.4531 2571.1094,767.1406 Q2570.4219,766.8281 2569.6719,766.8281 Q2568.0938,766.8281 2567.2813,768.0781 Q2566.4844,769.3281 2566.4844,771.7969 Q2566.4844,774.2656 2567.2813,775.5156 Q2568.0938,776.7656 2569.6719,776.7656 Q2570.4219,776.7656 2571.1094,776.4531 Q2571.8125,776.1406 2572.5625,775.4531 L2572.5625,778.6563 Z " fill="#000000"/><text fill="#000000" font-family="sans-serif" font-size="20" font-style="italic" lengthAdjust="spacing" textLength="147" x="2592.5" y="756.8613">«value object»</text><text fill="#000000" font-family="sans-serif" font-size="20" lengthAdjust="spacing" textLength="113" x="2609.5" y="800.1426">ShortName</text><line style="stroke:#181818;stroke-width:0.5;" x1="2554.5" x2="2749.5" y1="819.8594" y2="819.8594"/><line style="stroke:#181818;stroke-width:0.5;" x1="2554.5" x2="2749.5" y1="827.8594" y2="827.8594"/></g><!--class FullName--><g id="elem_FullName"><rect codeLine="72" fill="#F1F1F1" height="112.5625" id="FullName" rx="2.5" ry="2.5" style="stroke:#181818;stroke-width:0.5;" width="197" x="2830.5" y="723.2969"/><ellipse cx="2846.5" cy="771.5781" fill="#ADD1B2" rx="12" ry="12" style="stroke:#181818;stroke-width:1.0;"/><path d="M2849.5625,778.6563 Q2848.875,779.0156 2848.125,779.1875 Q2847.375,779.3594 2846.5469,779.3594 Q2843.5938,779.3594 2842.0313,777.4219 Q2840.4844,775.4688 2840.4844,771.7969 Q2840.4844,768.125 2842.0313,766.1875 Q2843.5938,764.2344 2846.5469,764.2344 Q2847.375,764.2344 2848.125,764.4063 Q2848.8906,764.5781 2849.5625,764.9375 L2849.5625,768.1406 Q2848.8125,767.4531 2848.1094,767.1406 Q2847.4219,766.8281 2846.6719,766.8281 Q2845.0938,766.8281 2844.2813,768.0781 Q2843.4844,769.3281 2843.4844,771.7969 Q2843.4844,774.2656 2844.2813,775.5156 Q2845.0938,776.7656 2846.6719,776.7656 Q2847.4219,776.7656 2848.1094,776.4531 Q2848.8125,776.1406 2849.5625,775.4531 L2849.5625,778.6563 Z " fill="#000000"/><text fill="#000000" font-family="sans-serif" font-size="20" font-style="italic" lengthAdjust="spacing" textLength="147" x="2869.5" y="756.8613">«value object»</text><text fill="#000000" font-family="sans-serif" font-size="20" lengthAdjust="spacing" textLength="96" x="2895" y="800.1426">FullName</text><line style="stroke:#181818;stroke-width:0.5;" x1="2831.5" x2="3026.5" y1="819.8594" y2="819.8594"/><line style="stroke:#181818;stroke-width:0.5;" x1="2831.5" x2="3026.5" y1="827.8594" y2="827.8594"/></g><!--class BirthDate--><g id="elem_BirthDate"><rect codeLine="73" fill="#F1F1F1" height="112.5625" id="BirthDate" rx="2.5" ry="2.5" style="stroke:#181818;stroke-width:0.5;" width="197" x="3107.5" y="723.2969"/><ellipse cx="3123.5" cy="771.5781" fill="#ADD1B2" rx="12" ry="12" style="stroke:#181818;stroke-width:1.0;"/><path d="M3126.5625,778.6563 Q3125.875,779.0156 3125.125,779.1875 Q3124.375,779.3594 3123.5469,779.3594 Q3120.5938,779.3594 3119.0313,777.4219 Q3117.4844,775.4688 3117.4844,771.7969 Q3117.4844,768.125 3119.0313,766.1875 Q3120.5938,764.2344 3123.5469,764.2344 Q3124.375,764.2344 3125.125,764.4063 Q3125.8906,764.5781 3126.5625,764.9375 L3126.5625,768.1406 Q3125.8125,767.4531 3125.1094,767.1406 Q3124.4219,766.8281 3123.6719,766.8281 Q3122.0938,766.8281 3121.2813,768.0781 Q3120.4844,769.3281 3120.4844,771.7969 Q3120.4844,774.2656 3121.2813,775.5156 Q3122.0938,776.7656 3123.6719,776.7656 Q3124.4219,776.7656 3125.1094,776.4531 Q3125.8125,776.1406 3126.5625,775.4531 L3126.5625,778.6563 Z " fill="#000000"/><text fill="#000000" font-family="sans-serif" font-size="20" font-style="italic" lengthAdjust="spacing" textLength="147" x="3146.5" y="756.8613">«value object»</text><text fill="#000000" font-family="sans-serif" font-size="20" lengthAdjust="spacing" textLength="96" x="3172" y="800.1426">BirthDate</text><line style="stroke:#181818;stroke-width:0.5;" x1="3108.5" x2="3303.5" y1="819.8594" y2="819.8594"/><line style="stroke:#181818;stroke-width:0.5;" x1="3108.5" x2="3303.5" y1="827.8594" y2="827.8594"/></g><!--class Email--><g id="elem_Email"><rect codeLine="74" fill="#F1F1F1" height="112.5625" id="Email" rx="2.5" ry="2.5" style="stroke:#181818;stroke-width:0.5;" width="197" x="3384.5" y="723.2969"/><ellipse cx="3400.5" cy="771.5781" fill="#ADD1B2" rx="12" ry="12" style="stroke:#181818;stroke-width:1.0;"/><path d="M3403.5625,778.6563 Q3402.875,779.0156 3402.125,779.1875 Q3401.375,779.3594 3400.5469,779.3594 Q3397.5938,779.3594 3396.0313,777.4219 Q3394.4844,775.4688 3394.4844,771.7969 Q3394.4844,768.125 3396.0313,766.1875 Q3397.5938,764.2344 3400.5469,764.2344 Q3401.375,764.2344 3402.125,764.4063 Q3402.8906,764.5781 3403.5625,764.9375 L3403.5625,768.1406 Q3402.8125,767.4531 3402.1094,767.1406 Q3401.4219,766.8281 3400.6719,766.8281 Q3399.0938,766.8281 3398.2813,768.0781 Q3397.4844,769.3281 3397.4844,771.7969 Q3397.4844,774.2656 3398.2813,775.5156 Q3399.0938,776.7656 3400.6719,776.7656 Q3401.4219,776.7656 3402.1094,776.4531 Q3402.8125,776.1406 3403.5625,775.4531 L3403.5625,778.6563 Z " fill="#000000"/><text fill="#000000" font-family="sans-serif" font-size="20" font-style="italic" lengthAdjust="spacing" textLength="147" x="3423.5" y="756.8613">«value object»</text><text fill="#000000" font-family="sans-serif" font-size="20" lengthAdjust="spacing" textLength="57" x="3468.5" y="800.1426">Email</text><line style="stroke:#181818;stroke-width:0.5;" x1="3385.5" x2="3580.5" y1="819.8594" y2="819.8594"/><line style="stroke:#181818;stroke-width:0.5;" x1="3385.5" x2="3580.5" y1="827.8594" y2="827.8594"/></g><!--class TaxPayerNumber--><g id="elem_TaxPayerNumber"><rect codeLine="75" fill="#F1F1F1" height="112.5625" id="TaxPayerNumber" rx="2.5" ry="2.5" style="stroke:#181818;stroke-width:0.5;" width="225" x="3661.5" y="723.2969"/><ellipse cx="3677.5" cy="771.5781" fill="#ADD1B2" rx="12" ry="12" style="stroke:#181818;stroke-width:1.0;"/><path d="M3680.5625,778.6563 Q3679.875,779.0156 3679.125,779.1875 Q3678.375,779.3594 3677.5469,779.3594 Q3674.5938,779.3594 3673.0313,777.4219 Q3671.4844,775.4688 3671.4844,771.7969 Q3671.4844,768.125 3673.0313,766.1875 Q3674.5938,764.2344 3677.5469,764.2344 Q3678.375,764.2344 3679.125,764.4063 Q3679.8906,764.5781 3680.5625,764.9375 L3680.5625,768.1406 Q3679.8125,767.4531 3679.1094,767.1406 Q3678.4219,766.8281 3677.6719,766.8281 Q3676.0938,766.8281 3675.2813,768.0781 Q3674.4844,769.3281 3674.4844,771.7969 Q3674.4844,774.2656 3675.2813,775.5156 Q3676.0938,776.7656 3677.6719,776.7656 Q3678.4219,776.7656 3679.1094,776.4531 Q3679.8125,776.1406 3680.5625,775.4531 L3680.5625,778.6563 Z " fill="#000000"/><text fill="#000000" font-family="sans-serif" font-size="20" font-style="italic" lengthAdjust="spacing" textLength="147" x="3714.5" y="756.8613">«value object»</text><text fill="#000000" font-family="sans-serif" font-size="20" lengthAdjust="spacing" textLength="171" x="3702.5" y="800.1426">TaxPayerNumber</text><line style="stroke:#181818;stroke-width:0.5;" x1="3662.5" x2="3885.5" y1="819.8594" y2="819.8594"/><line style="stroke:#181818;stroke-width:0.5;" x1="3662.5" x2="3885.5" y1="827.8594" y2="827.8594"/></g><!--link Board to Title--><g id="link_Board_Title"><path codeLine="77" d="M679.92,192.2969 C502.3,192.2969 121,192.2969 121,192.2969 C121,192.2969 121,462.1869 121,462.1869 " fill="none" id="Board-to-Title" style="stroke:#181818;stroke-width:1.0;"/><polygon fill="#181818" points="121,467.1869,125,458.1869,121,462.1869,117,458.1869,121,467.1869" style="stroke:#181818;stroke-width:1.0;"/><text fill="#000000" font-family="sans-serif" font-size="20" lengthAdjust="spacing" textLength="35" x="219.51" y="176.8613">has</text></g><!--link SystemUser to email--><g id="link_SystemUser_email"><path codeLine="78" d="M1757.42,823.2969 C1544.58,823.2969 1013,823.2969 1013,823.2969 C1013,823.2969 1013,930.8869 1013,930.8869 " fill="none" id="SystemUser-to-email" style="stroke:#181818;stroke-width:1.0;"/><polygon fill="#181818" points="1013,935.8869,1017,926.8869,1013,930.8869,1009,926.8869,1013,935.8869" style="stroke:#181818;stroke-width:1.0;"/><text fill="#000000" font-family="sans-serif" font-size="20" lengthAdjust="spacing" textLength="35" x="1285.42" y="807.8613">has</text></g><!--link SystemUser to firstname--><g id="link_SystemUser_firstname"><path codeLine="79" d="M1757.49,832.2969 C1676.22,832.2969 1567,832.2969 1567,832.2969 C1567,832.2969 1567,931.2069 1567,931.2069 " fill="none" id="SystemUser-to-firstname" style="stroke:#181818;stroke-width:1.0;"/><polygon fill="#181818" points="1567,936.2069,1571,927.2069,1567,931.2069,1563,927.2069,1567,936.2069" style="stroke:#181818;stroke-width:1.0;"/><text fill="#000000" font-family="sans-serif" font-size="20" lengthAdjust="spacing" textLength="35" x="1566.79" y="816.8613">has</text></g><!--link SystemUser to lastname--><g id="link_SystemUser_lastname"><path codeLine="80" d="M1844,836.3169 C1844,836.3169 1844,931.0169 1844,931.0169 " fill="none" id="SystemUser-to-lastname" style="stroke:#181818;stroke-width:1.0;"/><polygon fill="#181818" points="1844,936.0169,1848.0257,927.0283,1844.0143,931.0169,1840.0257,927.0055,1844,936.0169" style="stroke:#181818;stroke-width:1.0;"/><text fill="#000000" font-family="sans-serif" font-size="20" lengthAdjust="spacing" textLength="35" x="1798" y="868.2313">has</text></g><!--link SystemUser to username--><g id="link_SystemUser_username"><path codeLine="81" d="M1930.51,799.2969 C2011.78,799.2969 2121,799.2969 2121,799.2969 C2121,799.2969 2121,931.0469 2121,931.0469 " fill="none" id="SystemUser-to-username" style="stroke:#181818;stroke-width:1.0;"/><polygon fill="#181818" points="2121,936.0469,2125,927.0469,2121,931.0469,2117,927.0469,2121,936.0469" style="stroke:#181818;stroke-width:1.0;"/><text fill="#000000" font-family="sans-serif" font-size="20" lengthAdjust="spacing" textLength="35" x="2045.63" y="783.8613">has</text></g><!--link SystemUser to password--><g id="link_SystemUser_password"><path codeLine="82" d="M1757.44,827.2969 C1601.62,827.2969 1290,827.2969 1290,827.2969 C1290,827.2969 1290,930.8369 1290,930.8369 " fill="none" id="SystemUser-to-password" style="stroke:#181818;stroke-width:1.0;"/><polygon fill="#181818" points="1290,935.8369,1294,926.8369,1290,930.8369,1286,926.8369,1290,935.8369" style="stroke:#181818;stroke-width:1.0;"/><text fill="#000000" font-family="sans-serif" font-size="20" lengthAdjust="spacing" textLength="35" x="1425.95" y="811.8613">has</text></g><!--link SystemUser to Role--><g id="link_SystemUser_Role"><path codeLine="83" d="M1930.56,761.2969 C2086.38,761.2969 2398,761.2969 2398,761.2969 C2398,761.2969 2398,931.1669 2398,931.1669 " fill="none" id="SystemUser-to-Role" style="stroke:#181818;stroke-width:1.0;"/><polygon fill="#181818" points="2398,936.1669,2402,927.1669,2398,931.1669,2394,927.1669,2398,936.1669" style="stroke:#181818;stroke-width:1.0;"/><text fill="#000000" font-family="sans-serif" font-size="20" lengthAdjust="spacing" textLength="35" x="2203.22" y="745.8613">has</text></g><!--link Board to Column--><g id="link_Board_Column"><path codeLine="84" d="M679.56,258.2969 C560.83,258.2969 366,258.2969 366,258.2969 C366,258.2969 366,419.1769 366,419.1769 " fill="none" id="Board-to-Column" style="stroke:#181818;stroke-width:1.0;"/><polygon fill="#181818" points="366,424.1769,370,415.1769,366,419.1769,362,415.1769,366,424.1769" style="stroke:#181818;stroke-width:1.0;"/><text fill="#000000" font-family="sans-serif" font-size="20" lengthAdjust="spacing" textLength="35" x="396.34" y="242.8613">has</text><text fill="#000000" font-family="sans-serif" font-size="20" lengthAdjust="spacing" textLength="10" x="344.9922" y="401.6088">*</text></g><!--link Board to Row--><g id="link_Board_Row"><path codeLine="85" d="M703,324.5269 C703,383.3269 703,446.2969 703,446.2969 C703,446.2969 650.72,446.2969 650.72,446.2969 " fill="none" id="Board-to-Row" style="stroke:#181818;stroke-width:1.0;"/><polygon fill="#181818" points="645.72,446.2969,654.72,450.2969,650.72,446.2969,654.72,442.2969,645.72,446.2969" style="stroke:#181818;stroke-width:1.0;"/><text fill="#000000" font-family="sans-serif" font-size="20" lengthAdjust="spacing" textLength="35" x="714" y="396.1213">has</text><text fill="#000000" font-family="sans-serif" font-size="20" lengthAdjust="spacing" textLength="10" x="663.5089" y="422.4328">*</text></g><!--link Board to eCourseUser--><g id="link_Board_eCourseUser"><path codeLine="86" d="M858.12,225.2969 C1284.66,225.2969 3097,225.2969 3097,225.2969 C3097,225.2969 3097,461.9469 3097,461.9469 " fill="none" id="Board-to-eCourseUser" style="stroke:#181818;stroke-width:1.0;"/><polygon fill="#181818" points="3097,466.9469,3101,457.9469,3097,461.9469,3093,457.9469,3097,466.9469" style="stroke:#181818;stroke-width:1.0;"/><text fill="#000000" font-family="sans-serif" font-size="20" lengthAdjust="spacing" textLength="97" x="1987.89" y="209.8613">owned by</text></g><!--link Board to eCourseUser--><g id="link_Board_eCourseUser"><path codeLine="89" d="M858.26,275.2969 C1278.2,275.2969 3037,275.2969 3037,275.2969 C3037,275.2969 3037,462.0969 3037,462.0969 " fill="none" id="Board-to-eCourseUser-1" style="stroke:#181818;stroke-width:1.0;stroke-dasharray:7.0,7.0;"/><polygon fill="#181818" points="3037,467.0969,3041,458.0969,3037,462.0969,3033,458.0969,3037,467.0969" style="stroke:#181818;stroke-width:1.0;"/><text fill="#000000" font-family="sans-serif" font-size="20" lengthAdjust="spacing" textLength="106" x="1924.03" y="259.8613">created by</text></g><!--link Board to State--><g id="link_Board_State"><path codeLine="87" d="M792,324.3569 C792,324.3569 792,461.9269 792,461.9269 " fill="none" id="Board-to-State" style="stroke:#181818;stroke-width:1.0;"/><polygon fill="#181818" points="792,466.9269,796,457.9269,792,461.9269,788,457.9269,792,466.9269" style="stroke:#181818;stroke-width:1.0;"/><text fill="#000000" font-family="sans-serif" font-size="20" lengthAdjust="spacing" textLength="35" x="803" y="377.7113">has</text></g><!--link Board to BoardShare--><g id="link_Board_BoardShare"><path codeLine="88" d="M858.18,175.2969 C1388.43,175.2969 4103.3,175.2969 4103.3,175.2969 C4103.3,175.2969 4103.3,718.1969 4103.3,718.1969 " fill="none" id="Board-to-BoardShare" style="stroke:#181818;stroke-width:1.0;stroke-dasharray:7.0,7.0;"/><polygon fill="#181818" points="4103.3,723.1969,4107.3,714.1969,4103.3,718.1969,4099.3,714.1969,4103.3,723.1969" style="stroke:#181818;stroke-width:1.0;"/><text fill="#000000" font-family="sans-serif" font-size="20" lengthAdjust="spacing" textLength="123" x="2618.19" y="159.8613">notifies user</text></g><!--link eCourseUser to BoardShare--><g id="link_eCourseUser_BoardShare"><path codeLine="90" d="M3157.19,505.2969 C3397.47,505.2969 4034.9,505.2969 4034.9,505.2969 C4034.9,505.2969 4034.9,718.2569 4034.9,718.2569 " fill="none" id="eCourseUser-to-BoardShare" style="stroke:#181818;stroke-width:1.0;stroke-dasharray:7.0,7.0;"/><polygon fill="#181818" points="4034.9,723.2569,4038.9,714.2569,4034.9,718.2569,4030.9,714.2569,4034.9,723.2569" style="stroke:#181818;stroke-width:1.0;"/><text fill="#000000" font-family="sans-serif" font-size="20" lengthAdjust="spacing" textLength="63" x="3713.52" y="534.8613">create</text></g><!--link BoardShare to eCourseUser--><g id="link_BoardShare_eCourseUser"><path codeLine="91" d="M4069.1,723.2069 C4069.1,637.9169 4069.1,486.2969 4069.1,486.2969 C4069.1,486.2969 3162.25,486.2969 3162.25,486.2969 " fill="none" id="BoardShare-to-eCourseUser" style="stroke:#181818;stroke-width:1.0;"/><polygon fill="#181818" points="3157.25,486.2969,3166.25,490.2969,3162.25,486.2969,3166.25,482.2969,3157.25,486.2969" style="stroke:#181818;stroke-width:1.0;"/><text fill="#000000" font-family="sans-serif" font-size="20" lengthAdjust="spacing" textLength="35" x="3688.13" y="470.8613">has</text></g><!--link eCourseUser to BoardShare--><g id="link_eCourseUser_BoardShare"><path codeLine="99" d="M3157.38,524.2969 C3391.7,524.2969 4000.7,524.2969 4000.7,524.2969 C4000.7,524.2969 4000.7,718.0969 4000.7,718.0969 " fill="none" id="eCourseUser-to-BoardShare-1" style="stroke:#181818;stroke-width:1.0;stroke-dasharray:7.0,7.0;"/><polygon fill="#181818" points="4000.7,723.0969,4004.7,714.0969,4000.7,718.0969,3996.7,714.0969,4000.7,723.0969" style="stroke:#181818;stroke-width:1.0;"/><text fill="#000000" font-family="sans-serif" font-size="20" lengthAdjust="spacing" textLength="63" x="3601.94" y="508.8613">create</text></g><!--link BoardShare to UserPermission--><g id="link_BoardShare_UserPermission"><path codeLine="92" d="M4052,836.3169 C4052,836.3169 4052,931.0169 4052,931.0169 " fill="none" id="BoardShare-to-UserPermission" style="stroke:#181818;stroke-width:1.0;"/><polygon fill="#181818" points="4052,936.0169,4056.0257,927.0283,4052.0143,931.0169,4048.0257,927.0055,4052,936.0169" style="stroke:#181818;stroke-width:1.0;"/><text fill="#000000" font-family="sans-serif" font-size="20" lengthAdjust="spacing" textLength="35" x="4006" y="868.2313">has</text></g><!--link eCourseUser to SystemUser--><g id="link_eCourseUser_SystemUser"><path codeLine="93" d="M2976.57,505.2969 C2693.64,505.2969 1844,505.2969 1844,505.2969 C1844,505.2969 1844,718.2569 1844,718.2569 " fill="none" id="eCourseUser-to-SystemUser" style="stroke:#181818;stroke-width:1.0;stroke-dasharray:7.0,7.0;"/><polygon fill="#181818" points="1844,723.2569,1848,714.2569,1844,718.2569,1840,714.2569,1844,723.2569" style="stroke:#181818;stroke-width:1.0;"/><text fill="#000000" font-family="sans-serif" font-size="20" lengthAdjust="spacing" textLength="53" x="2239.81" y="489.8613">has a</text></g><!--link eCourseUser to ShortName--><g id="link_eCourseUser_ShortName"><path codeLine="94" d="M2976.95,543.2969 C2854.9,543.2969 2652,543.2969 2652,543.2969 C2652,543.2969 2652,718.1469 2652,718.1469 " fill="none" id="eCourseUser-to-ShortName" style="stroke:#181818;stroke-width:1.0;"/><polygon fill="#181818" points="2652,723.1469,2656,714.1469,2652,718.1469,2648,714.1469,2652,723.1469" style="stroke:#181818;stroke-width:1.0;"/><text fill="#000000" font-family="sans-serif" font-size="20" lengthAdjust="spacing" textLength="35" x="2681.05" y="527.8613">has</text></g><!--link eCourseUser to FullName--><g id="link_eCourseUser_FullName"><path codeLine="95" d="M3002.25,580.6069 C3002.25,580.6069 3002.25,718.1369 3002.25,718.1369 " fill="none" id="eCourseUser-to-FullName" style="stroke:#181818;stroke-width:1.0;"/><polygon fill="#181818" points="3002.25,723.1369,3006.25,714.1369,3002.25,718.1369,2998.25,714.1369,3002.25,723.1369" style="stroke:#181818;stroke-width:1.0;"/><text fill="#000000" font-family="sans-serif" font-size="20" lengthAdjust="spacing" textLength="35" x="2956.25" y="633.9413">has</text></g><!--link eCourseUser to BirthDate--><g id="link_eCourseUser_BirthDate"><path codeLine="96" d="M3132.25,580.6069 C3132.25,580.6069 3132.25,718.1369 3132.25,718.1369 " fill="none" id="eCourseUser-to-BirthDate" style="stroke:#181818;stroke-width:1.0;"/><polygon fill="#181818" points="3132.25,723.1369,3136.25,714.1369,3132.25,718.1369,3128.25,714.1369,3132.25,723.1369" style="stroke:#181818;stroke-width:1.0;"/><text fill="#000000" font-family="sans-serif" font-size="20" lengthAdjust="spacing" textLength="35" x="3086.25" y="633.9413">has</text></g><!--link eCourseUser to Email--><g id="link_eCourseUser_Email"><path codeLine="97" d="M3157.01,562.2969 C3279.33,562.2969 3483,562.2969 3483,562.2969 C3483,562.2969 3483,718.2169 3483,718.2169 " fill="none" id="eCourseUser-to-Email" style="stroke:#181818;stroke-width:1.0;"/><polygon fill="#181818" points="3483,723.2169,3487,714.2169,3483,718.2169,3479,714.2169,3483,723.2169" style="stroke:#181818;stroke-width:1.0;"/><text fill="#000000" font-family="sans-serif" font-size="20" lengthAdjust="spacing" textLength="35" x="3351.97" y="546.8613">has</text></g><!--link eCourseUser to TaxPayerNumber--><g id="link_eCourseUser_TaxPayerNumber"><path codeLine="98" d="M3157.26,543.2969 C3347.86,543.2969 3774,543.2969 3774,543.2969 C3774,543.2969 3774,718.1469 3774,718.1469 " fill="none" id="eCourseUser-to-TaxPayerNumber" style="stroke:#181818;stroke-width:1.0;"/><polygon fill="#181818" points="3774,723.1469,3778,714.1469,3774,718.1469,3770,714.1469,3774,723.1469" style="stroke:#181818;stroke-width:1.0;"/><text fill="#000000" font-family="sans-serif" font-size="20" lengthAdjust="spacing" textLength="35" x="3507.06" y="527.8613">has</text></g><!--SRC=[bLNRZjem47tFLupeMoKYjdrf4Ogqx4NgGrUhilq0amp4nR4ZsrcWA_wzuvWG1mXH4md8-CpnoSmPOpPSbaopGgXqWnbak6ALiCzAsWN_Y_1b4bbk1SBeKHMCI_YfCXJmjBEQfHRK2kQAwGmUD3BBbOHH971bmIhGV9rRoBZ6rAr4LfKkl5JMgYA8cqO2b2pBk5p3tIG8IjhGO0dVmg1cSkE2TvCmkjQgAd_873MtJAO8Ty6Yu1BjlaHGskOgM20U-gx54rt8zw8ipbcwSRmoUr12QVXq_ztT7TNfXgqHFYAWwmB_-DNTzLfTLRkdQYwLoA9353MvTH4TGIgOCSUQpcPQAPiaH-On56n7f5KXJHlufRRkYRYQvBUwNxFPEnCLlUto3zNPaGGGpq8ObDJTVP8qEzIzFlxcMPUNTlhFZ8Lb5kkSgZWfa5JKnWHa7u_nREGe_kx9c4vp-kq93zqwBNAcVKfGBHziIXQ-x6-3-XLrmOrnFMxaUCY5dZEq5-OkCdXsUjYImxnGOWdwkDWRYuNZQEMriLPUjqv8aoLe4Rej8uKDegIFhQezqGzQSMsiP0NUHD77CAWYjRsWm15NZFRHhGW-g4eRx9Oa2FRLP97JdBvu2RqodoiXXZ1pJlF-w8tO2tewTg0NyCPshsoF-gKgbhNe2-GXgdqO-zaTZnFlozYFunHoPgBM2d7W2eUjBJ04EZLu2DZqU0ZNj7a8rzXl2ESCuJ7djHXz7XthSJnxXc3kjBcE2SmJXqQQWjfA-WjRxdiwuO-QIz8uJe8p90wEawax7VYAev-8Ywn-AQdxF_HY-a2tjlNfqVNbsqKulTtLl63bxAJpcRV4NkzxdGUiDzFjsWxpxLqSzZJJmz1sj8UnViA7SMU3FboLsoty1m00]--></g></svg>