<?xml version="1.0" encoding="UTF-8" standalone="no"?><svg xmlns="http://www.w3.org/2000/svg" xmlns:xlink="http://www.w3.org/1999/xlink" contentStyleType="text/css" height="419px" preserveAspectRatio="none" style="width:764px;height:419px;background:#FFFFFF;" version="1.1" viewBox="0 0 764 419" width="764px" zoomAndPan="magnify"><defs/><g><rect fill="#FFFFFF" height="215.6875" style="stroke:#181818;stroke-width:1.0;" width="10" x="46.5" y="98.2813"/><rect fill="#FFFFFF" height="37.2813" style="stroke:#181818;stroke-width:1.0;" width="10" x="705.5" y="127.5625"/><rect fill="#FFFFFF" height="37.2813" style="stroke:#181818;stroke-width:1.0;" width="10" x="705.5" y="202.125"/><rect fill="#FFFFFF" height="46.2813" style="stroke:#181818;stroke-width:1.0;" width="10" x="705.5" y="276.6875"/><line style="stroke:#181818;stroke-width:0.5;stroke-dasharray:5.0,5.0;" x1="51" x2="51" y1="88.2813" y2="331.9688"/><line style="stroke:#181818;stroke-width:0.5;stroke-dasharray:5.0,5.0;" x1="710" x2="710" y1="88.2813" y2="331.9688"/><text fill="#000000" font-family="sans-serif" font-size="20" lengthAdjust="spacing" textLength="87" x="5" y="83.5645">Manager</text><ellipse cx="51.5" cy="13.5" fill="#E2E2F0" rx="8" ry="8" style="stroke:#181818;stroke-width:0.5;"/><path d="M51.5,21.5 L51.5,48.5 M38.5,29.5 L64.5,29.5 M51.5,48.5 L38.5,63.5 M51.5,48.5 L64.5,63.5 " fill="none" style="stroke:#181818;stroke-width:0.5;"/><text fill="#000000" font-family="sans-serif" font-size="20" lengthAdjust="spacing" textLength="87" x="5" y="349.5332">Manager</text><ellipse cx="51.5" cy="362.75" fill="#E2E2F0" rx="8" ry="8" style="stroke:#181818;stroke-width:0.5;"/><path d="M51.5,370.75 L51.5,397.75 M38.5,378.75 L64.5,378.75 M51.5,397.75 L38.5,412.75 M51.5,397.75 L64.5,412.75 " fill="none" style="stroke:#181818;stroke-width:0.5;"/><rect fill="#E2E2F0" height="37.2813" rx="2.5" ry="2.5" style="stroke:#181818;stroke-width:0.5;" width="95" x="663" y="50"/><text fill="#000000" font-family="sans-serif" font-size="20" lengthAdjust="spacing" textLength="81" x="670" y="75.5645">:System</text><rect fill="#E2E2F0" height="37.2813" rx="2.5" ry="2.5" style="stroke:#181818;stroke-width:0.5;" width="95" x="663" y="330.9688"/><text fill="#000000" font-family="sans-serif" font-size="20" lengthAdjust="spacing" textLength="81" x="670" y="356.5332">:System</text><rect fill="#FFFFFF" height="215.6875" style="stroke:#181818;stroke-width:1.0;" width="10" x="46.5" y="98.2813"/><rect fill="#FFFFFF" height="37.2813" style="stroke:#181818;stroke-width:1.0;" width="10" x="705.5" y="127.5625"/><rect fill="#FFFFFF" height="37.2813" style="stroke:#181818;stroke-width:1.0;" width="10" x="705.5" y="202.125"/><rect fill="#FFFFFF" height="46.2813" style="stroke:#181818;stroke-width:1.0;" width="10" x="705.5" y="276.6875"/><polygon fill="#181818" points="693.5,123.5625,703.5,127.5625,693.5,131.5625,697.5,127.5625" style="stroke:#181818;stroke-width:1.0;"/><line style="stroke:#181818;stroke-width:1.0;" x1="56.5" x2="699.5" y1="127.5625" y2="127.5625"/><text fill="#000000" font-family="sans-serif" font-size="20" font-weight="bold" lengthAdjust="spacing" textLength="14" x="63.5" y="120.8457">1</text><text fill="#000000" font-family="sans-serif" font-size="20" lengthAdjust="spacing" textLength="552" x="81.5" y="120.8457">selects option "Approve/Reject Enlistment to a Course"</text><polygon fill="#181818" points="67.5,160.8438,57.5,164.8438,67.5,168.8438,63.5,164.8438" style="stroke:#181818;stroke-width:1.0;"/><line style="stroke:#181818;stroke-width:1.0;stroke-dasharray:2.0,2.0;" x1="61.5" x2="709.5" y1="164.8438" y2="164.8438"/><text fill="#000000" font-family="sans-serif" font-size="20" font-weight="bold" lengthAdjust="spacing" textLength="14" x="73.5" y="158.127">2</text><text fill="#000000" font-family="sans-serif" font-size="20" lengthAdjust="spacing" textLength="243" x="91.5" y="158.127">shows pending requests</text><polygon fill="#181818" points="693.5,198.125,703.5,202.125,693.5,206.125,697.5,202.125" style="stroke:#181818;stroke-width:1.0;"/><line style="stroke:#181818;stroke-width:1.0;" x1="56.5" x2="699.5" y1="202.125" y2="202.125"/><text fill="#000000" font-family="sans-serif" font-size="20" font-weight="bold" lengthAdjust="spacing" textLength="14" x="63.5" y="195.4082">3</text><text fill="#000000" font-family="sans-serif" font-size="20" lengthAdjust="spacing" textLength="151" x="81.5" y="195.4082">selects request</text><polygon fill="#181818" points="67.5,235.4063,57.5,239.4063,67.5,243.4063,63.5,239.4063" style="stroke:#181818;stroke-width:1.0;"/><line style="stroke:#181818;stroke-width:1.0;stroke-dasharray:2.0,2.0;" x1="61.5" x2="709.5" y1="239.4063" y2="239.4063"/><text fill="#000000" font-family="sans-serif" font-size="20" font-weight="bold" lengthAdjust="spacing" textLength="14" x="73.5" y="232.6895">4</text><text fill="#000000" font-family="sans-serif" font-size="20" lengthAdjust="spacing" textLength="607" x="91.5" y="232.6895">shows possible options (accept or reject) and request details</text><polygon fill="#181818" points="693.5,272.6875,703.5,276.6875,693.5,280.6875,697.5,276.6875" style="stroke:#181818;stroke-width:1.0;"/><line style="stroke:#181818;stroke-width:1.0;" x1="56.5" x2="699.5" y1="276.6875" y2="276.6875"/><text fill="#000000" font-family="sans-serif" font-size="20" font-weight="bold" lengthAdjust="spacing" textLength="14" x="63.5" y="269.9707">5</text><text fill="#000000" font-family="sans-serif" font-size="20" lengthAdjust="spacing" textLength="139" x="81.5" y="269.9707">selects option</text><polygon fill="#181818" points="62.5,309.9688,52.5,313.9688,62.5,317.9688,58.5,313.9688" style="stroke:#181818;stroke-width:1.0;"/><line style="stroke:#181818;stroke-width:1.0;stroke-dasharray:2.0,2.0;" x1="56.5" x2="704.5" y1="313.9688" y2="313.9688"/><text fill="#000000" font-family="sans-serif" font-size="20" font-weight="bold" lengthAdjust="spacing" textLength="14" x="68.5" y="307.252">6</text><text fill="#000000" font-family="sans-serif" font-size="20" lengthAdjust="spacing" textLength="271" x="86.5" y="307.252">informs operations success</text><!--SRC=[ZP6nJaCn34NtV8ML2OOAnDW12I7ez1Rw1MxYbj0yEyHE4NmzUL2eg01rjALxxlMrRXCNh3Xc2LkA46cDBTkzi2tJ6y7LfSDcmcrSKNKOJ2hu0HatL3sWmh1mqphjq6WQXWNChi7FbwzgD7gOWrAcO0fIB0c3locboeuk7kYfx-6ESr8RYGrC0E5MMbNo1-Wtonsei-xHdJhyKLuK2d5Cl85AputKr4NwHVvtjBtkNyzZIr5DgqpxinJEC0Gg1hsW-d7PEI37BtGlrZ3bqv8TTtPQhiHhgUEaeOgVcRJrJFh3jB_e7G00]--></g></svg>