<?xml version="1.0" encoding="UTF-8" standalone="no"?><svg xmlns="http://www.w3.org/2000/svg" xmlns:xlink="http://www.w3.org/1999/xlink" contentStyleType="text/css" height="1251px" preserveAspectRatio="none" style="width:1386px;height:1251px;background:#FFFFFF;" version="1.1" viewBox="0 0 1386 1251" width="1386px" zoomAndPan="magnify"><defs/><g><text fill="#000000" font-family="sans-serif" font-size="14" font-weight="bold" lengthAdjust="spacing" textLength="530" x="421" y="22.9951">Class Diagram - Approve or Reject Student Applications to Courses</text><!--cluster presentation--><g id="cluster_presentation"><path d="M30.5,44.5137 L178.5,44.5137 A3.75,3.75 0 0 1 181,47.0137 L188,73.7949 L661.5,73.7949 A2.5,2.5 0 0 1 664,76.2949 L664,243.0137 A2.5,2.5 0 0 1 661.5,245.5137 L30.5,245.5137 A2.5,2.5 0 0 1 28,243.0137 L28,47.0137 A2.5,2.5 0 0 1 30.5,44.5137 " fill="none" style="stroke:#000000;stroke-width:1.5;"/><line style="stroke:#000000;stroke-width:1.5;" x1="28" x2="188" y1="73.7949" y2="73.7949"/><text fill="#000000" font-family="sans-serif" font-size="20" font-weight="bold" lengthAdjust="spacing" textLength="147" x="32" y="65.0781">presentation</text></g><!--cluster application--><g id="cluster_application"><path d="M8.5,269.5137 L136.5,269.5137 A3.75,3.75 0 0 1 139,272.0137 L146,298.7949 L683.5,298.7949 A2.5,2.5 0 0 1 686,301.2949 L686,538.0137 A2.5,2.5 0 0 1 683.5,540.5137 L8.5,540.5137 A2.5,2.5 0 0 1 6,538.0137 L6,272.0137 A2.5,2.5 0 0 1 8.5,269.5137 " fill="none" style="stroke:#000000;stroke-width:1.5;"/><line style="stroke:#000000;stroke-width:1.5;" x1="6" x2="146" y1="298.7949" y2="298.7949"/><text fill="#000000" font-family="sans-serif" font-size="20" font-weight="bold" lengthAdjust="spacing" textLength="127" x="10" y="290.0781">application</text></g><!--cluster domain--><g id="cluster_domain"><path d="M977.5,744.5137 L1062.5,744.5137 A3.75,3.75 0 0 1 1065,747.0137 L1072,773.7949 L1376.5,773.7949 A2.5,2.5 0 0 1 1379,776.2949 L1379,1040.0137 A2.5,2.5 0 0 1 1376.5,1042.5137 L977.5,1042.5137 A2.5,2.5 0 0 1 975,1040.0137 L975,747.0137 A2.5,2.5 0 0 1 977.5,744.5137 " fill="none" style="stroke:#000000;stroke-width:1.5;"/><line style="stroke:#000000;stroke-width:1.5;" x1="975" x2="1072" y1="773.7949" y2="773.7949"/><text fill="#000000" font-family="sans-serif" font-size="20" font-weight="bold" lengthAdjust="spacing" textLength="84" x="979" y="765.0781">domain</text></g><!--cluster persistence--><g id="cluster_persistence"><path d="M483.5,911.5137 L617.5,911.5137 A3.75,3.75 0 0 1 620,914.0137 L627,940.7949 L864.5,940.7949 A2.5,2.5 0 0 1 867,943.2949 L867,1040.0137 A2.5,2.5 0 0 1 864.5,1042.5137 L483.5,1042.5137 A2.5,2.5 0 0 1 481,1040.0137 L481,914.0137 A2.5,2.5 0 0 1 483.5,911.5137 " fill="none" style="stroke:#000000;stroke-width:1.5;"/><line style="stroke:#000000;stroke-width:1.5;" x1="481" x2="627" y1="940.7949" y2="940.7949"/><text fill="#000000" font-family="sans-serif" font-size="20" font-weight="bold" lengthAdjust="spacing" textLength="133" x="485" y="932.0781">persistence</text></g><!--cluster factory--><g id="cluster_factory"><path d="M383.5,1066.5137 L466.5,1066.5137 A3.75,3.75 0 0 1 469,1069.0137 L476,1095.7949 L964.5,1095.7949 A2.5,2.5 0 0 1 967,1098.2949 L967,1242.0137 A2.5,2.5 0 0 1 964.5,1244.5137 L383.5,1244.5137 A2.5,2.5 0 0 1 381,1242.0137 L381,1069.0137 A2.5,2.5 0 0 1 383.5,1066.5137 " fill="none" style="stroke:#000000;stroke-width:1.5;"/><line style="stroke:#000000;stroke-width:1.5;" x1="381" x2="476" y1="1095.7949" y2="1095.7949"/><text fill="#000000" font-family="sans-serif" font-size="20" font-weight="bold" lengthAdjust="spacing" textLength="82" x="385" y="1087.0781">factory</text></g><!--cluster repositories--><g id="cluster_repositories"><path d="M20.5,564.5137 L159.5,564.5137 A3.75,3.75 0 0 1 162,567.0137 L169,593.7949 L900.5,593.7949 A2.5,2.5 0 0 1 903,596.2949 L903,885.0137 A2.5,2.5 0 0 1 900.5,887.5137 L20.5,887.5137 A2.5,2.5 0 0 1 18,885.0137 L18,567.0137 A2.5,2.5 0 0 1 20.5,564.5137 " fill="none" style="stroke:#000000;stroke-width:1.5;"/><line style="stroke:#000000;stroke-width:1.5;" x1="18" x2="169" y1="593.7949" y2="593.7949"/><text fill="#000000" font-family="sans-serif" font-size="20" font-weight="bold" lengthAdjust="spacing" textLength="138" x="22" y="585.0781">repositories</text></g><!--class ApprovalUI--><g id="elem_ApprovalUI"><rect codeLine="4" fill="#F1F1F1" height="143.125" id="ApprovalUI" rx="2.5" ry="2.5" style="stroke:#181818;stroke-width:0.5;" width="603" x="44.5" y="86.5137"/><ellipse cx="286.5" cy="103.5137" fill="#ADD1B2" rx="12" ry="12" style="stroke:#181818;stroke-width:1.0;"/><path d="M289.5625,110.5918 Q288.875,110.9512 288.125,111.123 Q287.375,111.2949 286.5469,111.2949 Q283.5938,111.2949 282.0313,109.3574 Q280.4844,107.4043 280.4844,103.7324 Q280.4844,100.0605 282.0313,98.123 Q283.5938,96.1699 286.5469,96.1699 Q287.375,96.1699 288.125,96.3418 Q288.8906,96.5137 289.5625,96.873 L289.5625,100.0762 Q288.8125,99.3887 288.1094,99.0762 Q287.4219,98.7637 286.6719,98.7637 Q285.0938,98.7637 284.2813,100.0137 Q283.4844,101.2637 283.4844,103.7324 Q283.4844,106.2012 284.2813,107.4512 Q285.0938,108.7012 286.6719,108.7012 Q287.4219,108.7012 288.1094,108.3887 Q288.8125,108.0762 289.5625,107.3887 L289.5625,110.5918 Z " fill="#000000"/><text fill="#000000" font-family="sans-serif" font-size="20" lengthAdjust="spacing" textLength="110" x="308.5" y="110.4375">ApprovalUI</text><line style="stroke:#181818;stroke-width:0.5;" x1="45.5" x2="646.5" y1="120.5137" y2="120.5137"/><line style="stroke:#181818;stroke-width:0.5;" x1="45.5" x2="646.5" y1="128.5137" y2="128.5137"/><ellipse cx="55.5" cy="145.6543" fill="#84BE84" rx="3" ry="3" style="stroke:#038048;stroke-width:1.0;"/><text fill="#000000" font-family="sans-serif" font-size="20" lengthAdjust="spacing" textLength="134" x="65.5" y="151.0781">create(): void</text><ellipse cx="55.5" cy="168.9355" fill="#84BE84" rx="3" ry="3" style="stroke:#038048;stroke-width:1.0;"/><text fill="#000000" font-family="sans-serif" font-size="20" lengthAdjust="spacing" textLength="576" x="65.5" y="174.3594">showPendingRequests(requests: List&lt;Enrollment&gt;): void</text><ellipse cx="55.5" cy="192.2168" fill="#84BE84" rx="3" ry="3" style="stroke:#038048;stroke-width:1.0;"/><text fill="#000000" font-family="sans-serif" font-size="20" lengthAdjust="spacing" textLength="474" x="65.5" y="197.6406">showRequestDetails(request: Enrollment): void</text><ellipse cx="55.5" cy="215.498" fill="#84BE84" rx="3" ry="3" style="stroke:#038048;stroke-width:1.0;"/><text fill="#000000" font-family="sans-serif" font-size="20" lengthAdjust="spacing" textLength="389" x="65.5" y="220.9219">showOperationSuccessMessage(): void</text></g><!--class ApprovalController--><g id="elem_ApprovalController"><rect codeLine="13" fill="#F1F1F1" height="212.9688" id="ApprovalController" rx="2.5" ry="2.5" style="stroke:#181818;stroke-width:0.5;" width="647" x="22.5" y="311.5137"/><ellipse cx="247.5" cy="328.5137" fill="#ADD1B2" rx="12" ry="12" style="stroke:#181818;stroke-width:1.0;"/><path d="M250.5625,335.5918 Q249.875,335.9512 249.125,336.123 Q248.375,336.2949 247.5469,336.2949 Q244.5938,336.2949 243.0313,334.3574 Q241.4844,332.4043 241.4844,328.7324 Q241.4844,325.0605 243.0313,323.123 Q244.5938,321.1699 247.5469,321.1699 Q248.375,321.1699 249.125,321.3418 Q249.8906,321.5137 250.5625,321.873 L250.5625,325.0762 Q249.8125,324.3887 249.1094,324.0762 Q248.4219,323.7637 247.6719,323.7637 Q246.0938,323.7637 245.2813,325.0137 Q244.4844,326.2637 244.4844,328.7324 Q244.4844,331.2012 245.2813,332.4512 Q246.0938,333.7012 247.6719,333.7012 Q248.4219,333.7012 249.1094,333.3887 Q249.8125,333.0762 250.5625,332.3887 L250.5625,335.5918 Z " fill="#000000"/><text fill="#000000" font-family="sans-serif" font-size="20" lengthAdjust="spacing" textLength="188" x="269.5" y="335.4375">ApprovalController</text><line style="stroke:#181818;stroke-width:0.5;" x1="23.5" x2="668.5" y1="345.5137" y2="345.5137"/><rect fill="none" height="6" style="stroke:#C82930;stroke-width:1.0;" width="6" x="30.5" y="359.6543"/><text fill="#000000" font-family="sans-serif" font-size="20" lengthAdjust="spacing" textLength="446" x="43.5" y="368.0781">enrollmentRepository: EnrollmentRepository</text><rect fill="none" height="6" style="stroke:#C82930;stroke-width:1.0;" width="6" x="30.5" y="382.9355"/><text fill="#000000" font-family="sans-serif" font-size="20" lengthAdjust="spacing" textLength="360" x="43.5" y="391.3594">courseRepository: CourseRepository</text><rect fill="none" height="6" style="stroke:#C82930;stroke-width:1.0;" width="6" x="30.5" y="406.2168"/><text fill="#000000" font-family="sans-serif" font-size="20" lengthAdjust="spacing" textLength="382" x="43.5" y="414.6406">studentRepository: StudentRepository</text><line style="stroke:#181818;stroke-width:0.5;" x1="23.5" x2="668.5" y1="423.3574" y2="423.3574"/><ellipse cx="33.5" cy="440.498" fill="#84BE84" rx="3" ry="3" style="stroke:#038048;stroke-width:1.0;"/><text fill="#000000" font-family="sans-serif" font-size="20" lengthAdjust="spacing" textLength="134" x="43.5" y="445.9219">create(): void</text><ellipse cx="33.5" cy="463.7793" fill="#84BE84" rx="3" ry="3" style="stroke:#038048;stroke-width:1.0;"/><text fill="#000000" font-family="sans-serif" font-size="20" lengthAdjust="spacing" textLength="420" x="43.5" y="469.2031">listPendingApprovals(): List&lt;Enrollment&gt;</text><ellipse cx="33.5" cy="487.0605" fill="#84BE84" rx="3" ry="3" style="stroke:#038048;stroke-width:1.0;"/><text fill="#000000" font-family="sans-serif" font-size="20" lengthAdjust="spacing" textLength="430" x="43.5" y="492.4844">findRequest(requestId: String): Enrollment</text><ellipse cx="33.5" cy="510.3418" fill="#84BE84" rx="3" ry="3" style="stroke:#038048;stroke-width:1.0;"/><text fill="#000000" font-family="sans-serif" font-size="20" lengthAdjust="spacing" textLength="620" x="43.5" y="515.7656">processApproval(enrollment: Enrollment, option: String): void</text></g><!--class CourseEnrollment--><g id="elem_CourseEnrollment"><rect codeLine="26" fill="#F1F1F1" height="96.5625" id="CourseEnrollment" rx="2.5" ry="2.5" style="stroke:#181818;stroke-width:0.5;" width="327" x="992.5" y="786.5137"/><ellipse cx="1061.5" cy="803.5137" fill="#ADD1B2" rx="12" ry="12" style="stroke:#181818;stroke-width:1.0;"/><path d="M1064.5625,810.5918 Q1063.875,810.9512 1063.125,811.123 Q1062.375,811.2949 1061.5469,811.2949 Q1058.5938,811.2949 1057.0313,809.3574 Q1055.4844,807.4043 1055.4844,803.7324 Q1055.4844,800.0605 1057.0313,798.123 Q1058.5938,796.1699 1061.5469,796.1699 Q1062.375,796.1699 1063.125,796.3418 Q1063.8906,796.5137 1064.5625,796.873 L1064.5625,800.0762 Q1063.8125,799.3887 1063.1094,799.0762 Q1062.4219,798.7637 1061.6719,798.7637 Q1060.0938,798.7637 1059.2813,800.0137 Q1058.4844,801.2637 1058.4844,803.7324 Q1058.4844,806.2012 1059.2813,807.4512 Q1060.0938,808.7012 1061.6719,808.7012 Q1062.4219,808.7012 1063.1094,808.3887 Q1063.8125,808.0762 1064.5625,807.3887 L1064.5625,810.5918 Z " fill="#000000"/><text fill="#000000" font-family="sans-serif" font-size="20" lengthAdjust="spacing" textLength="180" x="1083.5" y="810.4375">CourseEnrollment</text><line style="stroke:#181818;stroke-width:0.5;" x1="993.5" x2="1318.5" y1="820.5137" y2="820.5137"/><line style="stroke:#181818;stroke-width:0.5;" x1="993.5" x2="1318.5" y1="828.5137" y2="828.5137"/><ellipse cx="1003.5" cy="845.6543" fill="#84BE84" rx="3" ry="3" style="stroke:#038048;stroke-width:1.0;"/><text fill="#000000" font-family="sans-serif" font-size="20" lengthAdjust="spacing" textLength="187" x="1013.5" y="851.0781">getStatus(): String</text><ellipse cx="1003.5" cy="868.9355" fill="#84BE84" rx="3" ry="3" style="stroke:#038048;stroke-width:1.0;"/><text fill="#000000" font-family="sans-serif" font-size="20" lengthAdjust="spacing" textLength="300" x="1013.5" y="874.3594">setStatus(status: String): void</text></g><!--class Course--><g id="elem_Course"><rect codeLine="31" fill="#F1F1F1" height="73.2813" id="Course" rx="2.5" ry="2.5" style="stroke:#181818;stroke-width:0.5;" width="169" x="990.5" y="953.5137"/><ellipse cx="1036.2" cy="970.5137" fill="#ADD1B2" rx="12" ry="12" style="stroke:#181818;stroke-width:1.0;"/><path d="M1039.2625,977.5918 Q1038.575,977.9512 1037.825,978.123 Q1037.075,978.2949 1036.2469,978.2949 Q1033.2938,978.2949 1031.7313,976.3574 Q1030.1844,974.4043 1030.1844,970.7324 Q1030.1844,967.0605 1031.7313,965.123 Q1033.2938,963.1699 1036.2469,963.1699 Q1037.075,963.1699 1037.825,963.3418 Q1038.5906,963.5137 1039.2625,963.873 L1039.2625,967.0762 Q1038.5125,966.3887 1037.8094,966.0762 Q1037.1219,965.7637 1036.3719,965.7637 Q1034.7938,965.7637 1033.9813,967.0137 Q1033.1844,968.2637 1033.1844,970.7324 Q1033.1844,973.2012 1033.9813,974.4512 Q1034.7938,975.7012 1036.3719,975.7012 Q1037.1219,975.7012 1037.8094,975.3887 Q1038.5125,975.0762 1039.2625,974.3887 L1039.2625,977.5918 Z " fill="#000000"/><text fill="#000000" font-family="sans-serif" font-size="20" lengthAdjust="spacing" textLength="69" x="1057.8" y="977.4375">Course</text><line style="stroke:#181818;stroke-width:0.5;" x1="991.5" x2="1158.5" y1="987.5137" y2="987.5137"/><line style="stroke:#181818;stroke-width:0.5;" x1="991.5" x2="1158.5" y1="995.5137" y2="995.5137"/><ellipse cx="1001.5" cy="1012.6543" fill="#84BE84" rx="3" ry="3" style="stroke:#038048;stroke-width:1.0;"/><text fill="#000000" font-family="sans-serif" font-size="20" lengthAdjust="spacing" textLength="142" x="1011.5" y="1018.0781">getId(): String</text></g><!--class Student--><g id="elem_Student"><rect codeLine="35" fill="#F1F1F1" height="73.2813" id="Student" rx="2.5" ry="2.5" style="stroke:#181818;stroke-width:0.5;" width="169" x="1194.5" y="953.5137"/><ellipse cx="1235.25" cy="970.5137" fill="#ADD1B2" rx="12" ry="12" style="stroke:#181818;stroke-width:1.0;"/><path d="M1238.3125,977.5918 Q1237.625,977.9512 1236.875,978.123 Q1236.125,978.2949 1235.2969,978.2949 Q1232.3438,978.2949 1230.7813,976.3574 Q1229.2344,974.4043 1229.2344,970.7324 Q1229.2344,967.0605 1230.7813,965.123 Q1232.3438,963.1699 1235.2969,963.1699 Q1236.125,963.1699 1236.875,963.3418 Q1237.6406,963.5137 1238.3125,963.873 L1238.3125,967.0762 Q1237.5625,966.3887 1236.8594,966.0762 Q1236.1719,965.7637 1235.4219,965.7637 Q1233.8438,965.7637 1233.0313,967.0137 Q1232.2344,968.2637 1232.2344,970.7324 Q1232.2344,973.2012 1233.0313,974.4512 Q1233.8438,975.7012 1235.4219,975.7012 Q1236.1719,975.7012 1236.8594,975.3887 Q1237.5625,975.0762 1238.3125,974.3887 L1238.3125,977.5918 Z " fill="#000000"/><text fill="#000000" font-family="sans-serif" font-size="20" lengthAdjust="spacing" textLength="80" x="1255.75" y="977.4375">Student</text><line style="stroke:#181818;stroke-width:0.5;" x1="1195.5" x2="1362.5" y1="987.5137" y2="987.5137"/><line style="stroke:#181818;stroke-width:0.5;" x1="1195.5" x2="1362.5" y1="995.5137" y2="995.5137"/><ellipse cx="1205.5" cy="1012.6543" fill="#84BE84" rx="3" ry="3" style="stroke:#038048;stroke-width:1.0;"/><text fill="#000000" font-family="sans-serif" font-size="20" lengthAdjust="spacing" textLength="142" x="1215.5" y="1018.0781">getId(): String</text></g><!--class PersistenceContext--><g id="elem_PersistenceContext"><rect codeLine="41" fill="#F1F1F1" height="73.2813" id="PersistenceContext" rx="2.5" ry="2.5" style="stroke:#181818;stroke-width:0.5;" width="353" x="497.5" y="953.5137"/><ellipse cx="573.5" cy="970.5137" fill="#ADD1B2" rx="12" ry="12" style="stroke:#181818;stroke-width:1.0;"/><path d="M576.5625,977.5918 Q575.875,977.9512 575.125,978.123 Q574.375,978.2949 573.5469,978.2949 Q570.5938,978.2949 569.0313,976.3574 Q567.4844,974.4043 567.4844,970.7324 Q567.4844,967.0605 569.0313,965.123 Q570.5938,963.1699 573.5469,963.1699 Q574.375,963.1699 575.125,963.3418 Q575.8906,963.5137 576.5625,963.873 L576.5625,967.0762 Q575.8125,966.3887 575.1094,966.0762 Q574.4219,965.7637 573.6719,965.7637 Q572.0938,965.7637 571.2813,967.0137 Q570.4844,968.2637 570.4844,970.7324 Q570.4844,973.2012 571.2813,974.4512 Q572.0938,975.7012 573.6719,975.7012 Q574.4219,975.7012 575.1094,975.3887 Q575.8125,975.0762 576.5625,974.3887 L576.5625,977.5918 Z " fill="#000000"/><text fill="#000000" font-family="sans-serif" font-size="20" lengthAdjust="spacing" textLength="192" x="595.5" y="977.4375">PersistenceContext</text><line style="stroke:#181818;stroke-width:0.5;" x1="498.5" x2="849.5" y1="987.5137" y2="987.5137"/><line style="stroke:#181818;stroke-width:0.5;" x1="498.5" x2="849.5" y1="995.5137" y2="995.5137"/><ellipse cx="508.5" cy="1012.6543" fill="#84BE84" rx="3" ry="3" style="stroke:#038048;stroke-width:1.0;"/><text fill="#000000" font-family="sans-serif" font-size="20" lengthAdjust="spacing" textLength="326" x="518.5" y="1018.0781">repositories(): RepositoryFactory</text></g><!--class RepositoryFactory--><g id="elem_RepositoryFactory"><rect codeLine="47" fill="#F1F1F1" height="119.8438" id="RepositoryFactory" rx="2.5" ry="2.5" style="stroke:#181818;stroke-width:0.5;" width="553" x="397.5" y="1108.5137"/><ellipse cx="579.5" cy="1125.5137" fill="#ADD1B2" rx="12" ry="12" style="stroke:#181818;stroke-width:1.0;"/><path d="M582.5625,1132.5918 Q581.875,1132.9512 581.125,1133.123 Q580.375,1133.2949 579.5469,1133.2949 Q576.5938,1133.2949 575.0313,1131.3574 Q573.4844,1129.4043 573.4844,1125.7324 Q573.4844,1122.0605 575.0313,1120.123 Q576.5938,1118.1699 579.5469,1118.1699 Q580.375,1118.1699 581.125,1118.3418 Q581.8906,1118.5137 582.5625,1118.873 L582.5625,1122.0762 Q581.8125,1121.3887 581.1094,1121.0762 Q580.4219,1120.7637 579.6719,1120.7637 Q578.0938,1120.7637 577.2813,1122.0137 Q576.4844,1123.2637 576.4844,1125.7324 Q576.4844,1128.2012 577.2813,1129.4512 Q578.0938,1130.7012 579.6719,1130.7012 Q580.4219,1130.7012 581.1094,1130.3887 Q581.8125,1130.0762 582.5625,1129.3887 L582.5625,1132.5918 Z " fill="#000000"/><text fill="#000000" font-family="sans-serif" font-size="20" lengthAdjust="spacing" textLength="180" x="601.5" y="1132.4375">RepositoryFactory</text><line style="stroke:#181818;stroke-width:0.5;" x1="398.5" x2="949.5" y1="1142.5137" y2="1142.5137"/><line style="stroke:#181818;stroke-width:0.5;" x1="398.5" x2="949.5" y1="1150.5137" y2="1150.5137"/><ellipse cx="408.5" cy="1167.6543" fill="#84BE84" rx="3" ry="3" style="stroke:#038048;stroke-width:1.0;"/><text fill="#000000" font-family="sans-serif" font-size="20" lengthAdjust="spacing" textLength="526" x="418.5" y="1173.0781">createEnrollmentRepository(): EnrollmentRepository</text><ellipse cx="408.5" cy="1190.9355" fill="#84BE84" rx="3" ry="3" style="stroke:#038048;stroke-width:1.0;"/><text fill="#000000" font-family="sans-serif" font-size="20" lengthAdjust="spacing" textLength="442" x="418.5" y="1196.3594">createCourseRepository(): CourseRepository</text><ellipse cx="408.5" cy="1214.2168" fill="#84BE84" rx="3" ry="3" style="stroke:#038048;stroke-width:1.0;"/><text fill="#000000" font-family="sans-serif" font-size="20" lengthAdjust="spacing" textLength="464" x="418.5" y="1219.6406">createStudentRepository(): StudentRepository</text></g><!--class EnrollmentRepository--><g id="elem_EnrollmentRepository"><rect codeLine="55" fill="#F1F1F1" height="119.8438" id="EnrollmentRepository" rx="2.5" ry="2.5" style="stroke:#181818;stroke-width:0.5;" width="488" x="399" y="606.5137"/><ellipse cx="529.5" cy="623.5137" fill="#B4A7E5" rx="12" ry="12" style="stroke:#181818;stroke-width:1.0;"/><path d="M524.6875,618.9668 L524.6875,616.4355 L533.3594,616.4355 L533.3594,618.9668 L530.4688,618.9668 L530.4688,628.4668 L533.3594,628.4668 L533.3594,631.0137 L524.6875,631.0137 L524.6875,628.4668 L527.5781,628.4668 L527.5781,618.9668 L524.6875,618.9668 Z " fill="#000000"/><text fill="#000000" font-family="sans-serif" font-size="20" font-style="italic" lengthAdjust="spacing" textLength="218" x="551.5" y="630.4375">EnrollmentRepository</text><line style="stroke:#181818;stroke-width:0.5;" x1="400" x2="886" y1="640.5137" y2="640.5137"/><line style="stroke:#181818;stroke-width:0.5;" x1="400" x2="886" y1="648.5137" y2="648.5137"/><ellipse cx="410" cy="665.6543" fill="#84BE84" rx="3" ry="3" style="stroke:#038048;stroke-width:1.0;"/><text fill="#000000" font-family="sans-serif" font-size="20" lengthAdjust="spacing" textLength="420" x="420" y="671.0781">listPendingApprovals(): List&lt;Enrollment&gt;</text><ellipse cx="410" cy="688.9355" fill="#84BE84" rx="3" ry="3" style="stroke:#038048;stroke-width:1.0;"/><text fill="#000000" font-family="sans-serif" font-size="20" lengthAdjust="spacing" textLength="430" x="420" y="694.3594">findRequest(requestId: String): Enrollment</text><ellipse cx="410" cy="712.2168" fill="#84BE84" rx="3" ry="3" style="stroke:#038048;stroke-width:1.0;"/><text fill="#000000" font-family="sans-serif" font-size="20" lengthAdjust="spacing" textLength="461" x="420" y="717.6406">saveEnrollment(enrollment: Enrollment): void</text></g><!--class CourseRepository--><g id="elem_CourseRepository"><rect codeLine="61" fill="#F1F1F1" height="73.2813" id="CourseRepository" rx="2.5" ry="2.5" style="stroke:#181818;stroke-width:0.5;" width="392" x="34" y="798.5137"/><ellipse cx="137.5" cy="815.5137" fill="#B4A7E5" rx="12" ry="12" style="stroke:#181818;stroke-width:1.0;"/><path d="M132.6875,810.9668 L132.6875,808.4355 L141.3594,808.4355 L141.3594,810.9668 L138.4688,810.9668 L138.4688,820.4668 L141.3594,820.4668 L141.3594,823.0137 L132.6875,823.0137 L132.6875,820.4668 L135.5781,820.4668 L135.5781,810.9668 L132.6875,810.9668 Z " fill="#000000"/><text fill="#000000" font-family="sans-serif" font-size="20" font-style="italic" lengthAdjust="spacing" textLength="176" x="159.5" y="822.4375">CourseRepository</text><line style="stroke:#181818;stroke-width:0.5;" x1="35" x2="425" y1="832.5137" y2="832.5137"/><line style="stroke:#181818;stroke-width:0.5;" x1="35" x2="425" y1="840.5137" y2="840.5137"/><ellipse cx="45" cy="857.6543" fill="#84BE84" rx="3" ry="3" style="stroke:#038048;stroke-width:1.0;"/><text fill="#000000" font-family="sans-serif" font-size="20" lengthAdjust="spacing" textLength="365" x="55" y="863.0781">findCourse(courseId: String): Course</text></g><!--class StudentRepository--><g id="elem_StudentRepository"><rect codeLine="65" fill="#F1F1F1" height="73.2813" id="StudentRepository" rx="2.5" ry="2.5" style="stroke:#181818;stroke-width:0.5;" width="425" x="461.5" y="798.5137"/><ellipse cx="576" cy="815.5137" fill="#B4A7E5" rx="12" ry="12" style="stroke:#181818;stroke-width:1.0;"/><path d="M571.1875,810.9668 L571.1875,808.4355 L579.8594,808.4355 L579.8594,810.9668 L576.9688,810.9668 L576.9688,820.4668 L579.8594,820.4668 L579.8594,823.0137 L571.1875,823.0137 L571.1875,820.4668 L574.0781,820.4668 L574.0781,810.9668 L571.1875,810.9668 Z " fill="#000000"/><text fill="#000000" font-family="sans-serif" font-size="20" font-style="italic" lengthAdjust="spacing" textLength="187" x="598" y="822.4375">StudentRepository</text><line style="stroke:#181818;stroke-width:0.5;" x1="462.5" x2="885.5" y1="832.5137" y2="832.5137"/><line style="stroke:#181818;stroke-width:0.5;" x1="462.5" x2="885.5" y1="840.5137" y2="840.5137"/><ellipse cx="472.5" cy="857.6543" fill="#84BE84" rx="3" ry="3" style="stroke:#038048;stroke-width:1.0;"/><text fill="#000000" font-family="sans-serif" font-size="20" lengthAdjust="spacing" textLength="398" x="482.5" y="863.0781">findStudent(studentId: String): Student</text></g><!--link ApprovalUI to ApprovalController--><g id="link_ApprovalUI_ApprovalController"><path codeLine="70" d="M346,229.8537 C346,253.4937 346,280.4237 346,306.3437 " fill="none" id="ApprovalUI-to-ApprovalController" style="stroke:#181818;stroke-width:1.0;"/><polygon fill="#181818" points="346,311.5137,350,302.5137,346,306.5137,342,302.5137,346,311.5137" style="stroke:#181818;stroke-width:1.0;"/></g><!--link ApprovalController to EnrollmentRepository--><g id="link_ApprovalController_EnrollmentRepository"><path codeLine="71" d="M473.25,524.6237 C505.36,551.2737 538.83,579.0537 567.47,602.8337 " fill="none" id="ApprovalController-to-EnrollmentRepository" style="stroke:#181818;stroke-width:1.0;"/><polygon fill="#181818" points="571.66,606.3037,567.268,597.4883,567.8049,603.1196,562.1736,603.6565,571.66,606.3037" style="stroke:#181818;stroke-width:1.0;"/></g><!--link ApprovalController to CourseRepository--><g id="link_ApprovalController_CourseRepository"><path codeLine="72" d="M316.5,524.5437 C292.09,611.8937 258.7,731.3437 241.41,793.1837 " fill="none" id="ApprovalController-to-CourseRepository" style="stroke:#181818;stroke-width:1.0;"/><polygon fill="#181818" points="239.99,798.2637,246.2552,790.6645,241.3297,793.4465,238.5477,788.521,239.99,798.2637" style="stroke:#181818;stroke-width:1.0;"/></g><!--link ApprovalController to StudentRepository--><g id="link_ApprovalController_StudentRepository"><path codeLine="73" d="M328.91,524.6737 C324.52,591.1537 331.72,674.0037 382,726.5137 C391.65,736.5937 430.59,732.6537 444,736.5137 C496.88,751.7437 553.84,775.8237 597.84,796.2437 " fill="none" id="ApprovalController-to-StudentRepository" style="stroke:#181818;stroke-width:1.0;"/><polygon fill="#181818" points="602.6,798.4637,596.1372,791.0319,598.0694,796.3485,592.7528,798.2807,602.6,798.4637" style="stroke:#181818;stroke-width:1.0;"/></g><!--link CourseEnrollment to Course--><g id="link_CourseEnrollment_Course"><path codeLine="74" d="M1130.82,883.5837 C1119.76,904.4637 1106.92,928.7137 1096.35,948.6837 " fill="none" id="CourseEnrollment-to-Course" style="stroke:#181818;stroke-width:1.0;"/><polygon fill="#181818" points="1093.99,953.1437,1101.7343,947.0588,1096.3281,948.724,1094.6629,943.3178,1093.99,953.1437" style="stroke:#181818;stroke-width:1.0;"/></g><!--link CourseEnrollment to Student--><g id="link_CourseEnrollment_Student"><path codeLine="75" d="M1194.24,883.5837 C1211.17,904.6337 1230.85,929.1237 1246.98,949.1937 " fill="none" id="CourseEnrollment-to-Student" style="stroke:#181818;stroke-width:1.0;"/><polygon fill="#181818" points="1250.16,953.1437,1247.6102,943.6306,1247.0157,949.2561,1241.3901,948.6615,1250.16,953.1437" style="stroke:#181818;stroke-width:1.0;"/></g><!--link EnrollmentRepository to PersistenceContext--><g id="link_EnrollmentRepository_PersistenceContext"><path codeLine="76" d="M887.05,722.5837 C894.41,726.9537 900.21,731.5937 904,736.5137 C947.11,792.5037 943.45,836.8837 904,895.5137 C887.62,919.8537 863.69,937.8637 837.39,951.1837 " fill="none" id="EnrollmentRepository-to-PersistenceContext" style="stroke:#181818;stroke-width:1.0;"/><polygon fill="#181818" points="832.8,953.4437,842.6409,953.0467,837.2835,951.2305,839.0997,945.8731,832.8,953.4437" style="stroke:#181818;stroke-width:1.0;"/></g><!--link CourseRepository to PersistenceContext--><g id="link_CourseRepository_PersistenceContext"><path codeLine="77" d="M333.26,871.5937 C403.07,895.6537 495.07,927.3537 565.88,951.7537 " fill="none" id="CourseRepository-to-PersistenceContext" style="stroke:#181818;stroke-width:1.0;"/><polygon fill="#181818" points="570.94,953.5037,563.7331,946.7909,566.2125,951.8755,561.128,954.3549,570.94,953.5037" style="stroke:#181818;stroke-width:1.0;"/></g><!--link StudentRepository to PersistenceContext--><g id="link_StudentRepository_PersistenceContext"><path codeLine="78" d="M674,871.8837 C674,894.7137 674,924.3437 674,948.0837 " fill="none" id="StudentRepository-to-PersistenceContext" style="stroke:#181818;stroke-width:1.0;"/><polygon fill="#181818" points="674,953.3637,678,944.3637,674,948.3637,670,944.3637,674,953.3637" style="stroke:#181818;stroke-width:1.0;"/></g><!--link PersistenceContext to RepositoryFactory--><g id="link_PersistenceContext_RepositoryFactory"><path codeLine="79" d="M674,1026.7337 C674,1048.6437 674,1077.3437 674,1103.1037 " fill="none" id="PersistenceContext-to-RepositoryFactory" style="stroke:#181818;stroke-width:1.0;"/><polygon fill="#181818" points="674,1108.2237,678,1099.2237,674,1103.2237,670,1099.2237,674,1108.2237" style="stroke:#181818;stroke-width:1.0;"/></g><!--link EnrollmentRepository to CourseEnrollment--><g id="link_EnrollmentRepository_CourseEnrollment"><path codeLine="83" d="M887.01,712.4137 C913.95,719.5037 940.75,727.5137 966,736.5137 C1001.29,749.0837 1038.31,766.9237 1070.21,783.9037 " fill="none" id="EnrollmentRepository-to-CourseEnrollment" style="stroke:#181818;stroke-width:1.0;stroke-dasharray:7.0,7.0;"/><polygon fill="#181818" points="1074.88,786.4037,1068.8552,778.6126,1070.4786,784.0315,1065.0596,785.6549,1074.88,786.4037" style="stroke:#181818;stroke-width:1.0;"/></g><!--link EnrollmentRepository to CourseRepository--><g id="link_EnrollmentRepository_CourseRepository"><path codeLine="84" d="M469.52,726.5737 C460.87,729.8637 452.32,733.1837 444,736.5137 C398.47,754.7337 348.55,777.3237 308.39,796.1637 " fill="none" id="EnrollmentRepository-to-CourseRepository" style="stroke:#181818;stroke-width:1.0;stroke-dasharray:7.0,7.0;"/><polygon fill="#181818" points="303.54,798.4437,313.3867,798.2353,308.0651,796.3167,309.9836,790.9952,303.54,798.4437" style="stroke:#181818;stroke-width:1.0;"/></g><!--link EnrollmentRepository to StudentRepository--><g id="link_EnrollmentRepository_StudentRepository"><path codeLine="85" d="M654.02,726.6837 C658.12,748.7437 662.69,773.2737 666.42,793.3037 " fill="none" id="EnrollmentRepository-to-StudentRepository" style="stroke:#181818;stroke-width:1.0;stroke-dasharray:7.0,7.0;"/><polygon fill="#181818" points="667.35,798.2937,669.6363,788.7139,666.4355,793.378,661.7713,790.1771,667.35,798.2937" style="stroke:#181818;stroke-width:1.0;"/></g><!--SRC=[jLHTZziW47pthzX7HsrEfpv6LQGgrvCYNTLJhFu0X3Sf3J4kuFHBzzyB1W8s-FhKI54Yc1rsXbdKcNKzaUJ21JrZ2oqUoS3re-XqmtuZlBklDDCSOSU9Kl30oCc0OGqV-bwAAuAGSC1lI3KqUcYnqtQ7Cqeq4vq2BM0d1gbGLLLFw9cS47g9oW171Fof0EZ8xHW9_x8V5m7UK8b4OxtQm5Mmrgsfh-B7CtOjwqu7_3wWqggM_iy6dfZIxpzsKd1-CKTiir9Vyu2QC7wht42ioKe-zoZ7Nfk1KbJga_aQ6KbRBzLBL4UY_8AudJ7MdeJIYrpZxUG3za8nBUIlj9-uwl1qj3F5xcOh3gVSTQJ0PhvKBVlCZPFUvz2xieYvmmvzP5thhGsUxbjxe3JrgrIEmnj2QsLWhgC9AVOjYDxwc12L76_5XR3KR6T8v0bvEg5kJEo6KOYZzDTysr3ZJ-d06Nl2kMydV0aqZCGhs4I7oPaoxc97CH7p75TjUF3dZKw6UsGuAeht-aYe3yBaWADRJiYpakdebL9Ohrv9fw-R9zBM55FgyLamdKdpjCxafFh7lfcnHngHM6mmIFk_oLRacjYs4EnPhcBVSvD2pxOBjrUx-P_qu7Pojip1bCvlrlwTc13wlM1uyZAlrzl2MrOLdZUBBEPa0PlbOm6Nno8RzqXNtWloYYcnW7pcgknc5d2vvml0mbnRP3x4vbDizEvkcxrq_q8chYqYSuF_0W00]--></g></svg>