<?xml version="1.0" encoding="UTF-8" standalone="no"?><svg xmlns="http://www.w3.org/2000/svg" xmlns:xlink="http://www.w3.org/1999/xlink" contentStyleType="text/css" height="1456px" preserveAspectRatio="none" style="width:2809px;height:1456px;background:#FFFFFF;" version="1.1" viewBox="0 0 2809 1456" width="2809px" zoomAndPan="magnify"><defs/><g><text fill="#000000" font-family="sans-serif" font-size="14" font-weight="bold" lengthAdjust="spacing" textLength="440" x="1183.5" y="27.9951">SD - Approve or Reject Student Applications to Courses</text><rect fill="#FFFFFF" height="1185" style="stroke:#181818;stroke-width:1.0;" width="10" x="46.5" y="144.8594"/><rect fill="#FFFFFF" height="1155.7188" style="stroke:#181818;stroke-width:1.0;" width="10" x="719.5" y="174.1406"/><rect fill="#FFFFFF" height="410.0938" style="stroke:#181818;stroke-width:1.0;" width="10" x="1147.5" y="211.4219"/><rect fill="#FFFFFF" height="260.9688" style="stroke:#181818;stroke-width:1.0;" width="10" x="1147.5" y="733.3594"/><rect fill="#FFFFFF" height="186.4063" style="stroke:#181818;stroke-width:1.0;" width="10" x="1147.5" y="1106.1719"/><rect fill="#FFFFFF" height="37.2813" style="stroke:#181818;stroke-width:1.0;" width="10" x="1490.5" y="546.9531"/><rect fill="#FFFFFF" height="37.2813" style="stroke:#181818;stroke-width:1.0;" width="10" x="1490.5" y="770.6406"/><rect fill="#FFFFFF" height="37.2813" style="stroke:#181818;stroke-width:1.0;" width="10" x="1490.5" y="1218.0156"/><rect fill="#FFFFFF" height="37.2813" style="stroke:#181818;stroke-width:1.0;" width="10" x="1674.5" y="1143.4531"/><rect fill="#FFFFFF" height="37.2813" style="stroke:#181818;stroke-width:1.0;" width="10" x="1837.5" y="845.2031"/><rect fill="#FFFFFF" height="37.2813" style="stroke:#181818;stroke-width:1.0;" width="10" x="2158" y="919.7656"/><rect fill="#FFFFFF" height="37.2813" style="stroke:#181818;stroke-width:1.0;" width="10" x="2491" y="248.7031"/><rect fill="#FFFFFF" height="37.2813" style="stroke:#181818;stroke-width:1.0;" width="10" x="2701" y="323.2656"/><rect fill="#FFFFFF" height="37.2813" style="stroke:#181818;stroke-width:1.0;" width="10" x="2701" y="397.8281"/><rect fill="#FFFFFF" height="37.2813" style="stroke:#181818;stroke-width:1.0;" width="10" x="2701" y="472.3906"/><line style="stroke:#181818;stroke-width:0.5;stroke-dasharray:5.0,5.0;" x1="51" x2="51" y1="134.8594" y2="1347.8594"/><line style="stroke:#181818;stroke-width:0.5;stroke-dasharray:5.0,5.0;" x1="724" x2="724" y1="134.8594" y2="1347.8594"/><line style="stroke:#181818;stroke-width:0.5;stroke-dasharray:5.0,5.0;" x1="1152.5" x2="1152.5" y1="134.8594" y2="1347.8594"/><line style="stroke:#181818;stroke-width:0.5;stroke-dasharray:5.0,5.0;" x1="1495" x2="1495" y1="134.8594" y2="1347.8594"/><line style="stroke:#181818;stroke-width:0.5;stroke-dasharray:5.0,5.0;" x1="1679" x2="1679" y1="134.8594" y2="1347.8594"/><line style="stroke:#181818;stroke-width:0.5;stroke-dasharray:5.0,5.0;" x1="1842" x2="1842" y1="134.8594" y2="1347.8594"/><line style="stroke:#181818;stroke-width:0.5;stroke-dasharray:5.0,5.0;" x1="2000" x2="2000" y1="134.8594" y2="1347.8594"/><line style="stroke:#181818;stroke-width:0.5;stroke-dasharray:5.0,5.0;" x1="2163" x2="2163" y1="134.8594" y2="1347.8594"/><line style="stroke:#181818;stroke-width:0.5;stroke-dasharray:5.0,5.0;" x1="2326" x2="2326" y1="134.8594" y2="1347.8594"/><line style="stroke:#181818;stroke-width:0.5;stroke-dasharray:5.0,5.0;" x1="2496" x2="2496" y1="134.8594" y2="1347.8594"/><line style="stroke:#181818;stroke-width:0.5;stroke-dasharray:5.0,5.0;" x1="2706" x2="2706" y1="134.8594" y2="1347.8594"/><text fill="#000000" font-family="sans-serif" font-size="20" lengthAdjust="spacing" textLength="87" x="5" y="130.1426">Manager</text><ellipse cx="51.5" cy="60.0781" fill="#E2E2F0" rx="8" ry="8" style="stroke:#181818;stroke-width:0.5;"/><path d="M51.5,68.0781 L51.5,95.0781 M38.5,76.0781 L64.5,76.0781 M51.5,95.0781 L38.5,110.0781 M51.5,95.0781 L64.5,110.0781 " fill="none" style="stroke:#181818;stroke-width:0.5;"/><text fill="#000000" font-family="sans-serif" font-size="20" lengthAdjust="spacing" textLength="87" x="5" y="1365.4238">Manager</text><ellipse cx="51.5" cy="1378.6406" fill="#E2E2F0" rx="8" ry="8" style="stroke:#181818;stroke-width:0.5;"/><path d="M51.5,1386.6406 L51.5,1413.6406 M38.5,1394.6406 L64.5,1394.6406 M51.5,1413.6406 L38.5,1428.6406 M51.5,1413.6406 L64.5,1428.6406 " fill="none" style="stroke:#181818;stroke-width:0.5;"/><rect fill="#E2E2F0" height="60.5625" rx="2.5" ry="2.5" style="stroke:#181818;stroke-width:0.5;" width="165" x="642" y="73.2969"/><text fill="#000000" font-family="sans-serif" font-size="20" font-style="italic" lengthAdjust="spacing" textLength="151" x="649" y="98.8613">«presentation»</text><text fill="#000000" font-family="sans-serif" font-size="20" lengthAdjust="spacing" textLength="110" x="669.5" y="122.1426">ApprovalUI</text><rect fill="#E2E2F0" height="60.5625" rx="2.5" ry="2.5" style="stroke:#181818;stroke-width:0.5;" width="165" x="642" y="1346.8594"/><text fill="#000000" font-family="sans-serif" font-size="20" font-style="italic" lengthAdjust="spacing" textLength="151" x="649" y="1372.4238">«presentation»</text><text fill="#000000" font-family="sans-serif" font-size="20" lengthAdjust="spacing" textLength="110" x="669.5" y="1395.7051">ApprovalUI</text><rect fill="#E2E2F0" height="60.5625" rx="2.5" ry="2.5" style="stroke:#181818;stroke-width:0.5;" width="202" x="1051.5" y="73.2969"/><text fill="#000000" font-family="sans-serif" font-size="20" font-style="italic" lengthAdjust="spacing" textLength="136" x="1084.5" y="98.8613">«application»</text><text fill="#000000" font-family="sans-serif" font-size="20" lengthAdjust="spacing" textLength="188" x="1058.5" y="122.1426">ApprovalController</text><rect fill="#E2E2F0" height="60.5625" rx="2.5" ry="2.5" style="stroke:#181818;stroke-width:0.5;" width="202" x="1051.5" y="1346.8594"/><text fill="#000000" font-family="sans-serif" font-size="20" font-style="italic" lengthAdjust="spacing" textLength="136" x="1084.5" y="1372.4238">«application»</text><text fill="#000000" font-family="sans-serif" font-size="20" lengthAdjust="spacing" textLength="188" x="1058.5" y="1395.7051">ApprovalController</text><text fill="#000000" font-family="sans-serif" font-size="20" font-style="italic" lengthAdjust="spacing" textLength="116" x="1434.5" y="106.8613">«database»</text><text fill="#000000" font-family="sans-serif" font-size="20" lengthAdjust="spacing" textLength="217" x="1384" y="130.1426">EnrollmentRepository</text><path d="M1477.5,52.2969 C1477.5,42.2969 1495.5,42.2969 1495.5,42.2969 C1495.5,42.2969 1513.5,42.2969 1513.5,52.2969 L1513.5,78.2969 C1513.5,88.2969 1495.5,88.2969 1495.5,88.2969 C1495.5,88.2969 1477.5,88.2969 1477.5,78.2969 L1477.5,52.2969 " fill="#E2E2F0" style="stroke:#181818;stroke-width:1.5;"/><path d="M1477.5,52.2969 C1477.5,62.2969 1495.5,62.2969 1495.5,62.2969 C1495.5,62.2969 1513.5,62.2969 1513.5,52.2969 " fill="none" style="stroke:#181818;stroke-width:1.5;"/><text fill="#000000" font-family="sans-serif" font-size="20" font-style="italic" lengthAdjust="spacing" textLength="116" x="1434.5" y="1365.4238">«database»</text><text fill="#000000" font-family="sans-serif" font-size="20" lengthAdjust="spacing" textLength="217" x="1384" y="1388.7051">EnrollmentRepository</text><path d="M1477.5,1403.4219 C1477.5,1393.4219 1495.5,1393.4219 1495.5,1393.4219 C1495.5,1393.4219 1513.5,1393.4219 1513.5,1403.4219 L1513.5,1429.4219 C1513.5,1439.4219 1495.5,1439.4219 1495.5,1439.4219 C1495.5,1439.4219 1477.5,1439.4219 1477.5,1429.4219 L1477.5,1403.4219 " fill="#E2E2F0" style="stroke:#181818;stroke-width:1.5;"/><path d="M1477.5,1403.4219 C1477.5,1413.4219 1495.5,1413.4219 1495.5,1413.4219 C1495.5,1413.4219 1513.5,1413.4219 1513.5,1403.4219 " fill="none" style="stroke:#181818;stroke-width:1.5;"/><rect fill="#E2E2F0" height="60.5625" rx="2.5" ry="2.5" style="stroke:#181818;stroke-width:0.5;" width="125" x="1617" y="73.2969"/><text fill="#000000" font-family="sans-serif" font-size="20" font-style="italic" lengthAdjust="spacing" textLength="100" x="1629.5" y="98.8613">«domain»</text><text fill="#000000" font-family="sans-serif" font-size="20" lengthAdjust="spacing" textLength="111" x="1624" y="122.1426">Enrollment</text><rect fill="#E2E2F0" height="60.5625" rx="2.5" ry="2.5" style="stroke:#181818;stroke-width:0.5;" width="125" x="1617" y="1346.8594"/><text fill="#000000" font-family="sans-serif" font-size="20" font-style="italic" lengthAdjust="spacing" textLength="100" x="1629.5" y="1372.4238">«domain»</text><text fill="#000000" font-family="sans-serif" font-size="20" lengthAdjust="spacing" textLength="111" x="1624" y="1395.7051">Enrollment</text><text fill="#000000" font-family="sans-serif" font-size="20" font-style="italic" lengthAdjust="spacing" textLength="116" x="1781.5" y="106.8613">«database»</text><text fill="#000000" font-family="sans-serif" font-size="20" lengthAdjust="spacing" textLength="175" x="1752" y="130.1426">CourseRepository</text><path d="M1824.5,52.2969 C1824.5,42.2969 1842.5,42.2969 1842.5,42.2969 C1842.5,42.2969 1860.5,42.2969 1860.5,52.2969 L1860.5,78.2969 C1860.5,88.2969 1842.5,88.2969 1842.5,88.2969 C1842.5,88.2969 1824.5,88.2969 1824.5,78.2969 L1824.5,52.2969 " fill="#E2E2F0" style="stroke:#181818;stroke-width:1.5;"/><path d="M1824.5,52.2969 C1824.5,62.2969 1842.5,62.2969 1842.5,62.2969 C1842.5,62.2969 1860.5,62.2969 1860.5,52.2969 " fill="none" style="stroke:#181818;stroke-width:1.5;"/><text fill="#000000" font-family="sans-serif" font-size="20" font-style="italic" lengthAdjust="spacing" textLength="116" x="1781.5" y="1365.4238">«database»</text><text fill="#000000" font-family="sans-serif" font-size="20" lengthAdjust="spacing" textLength="175" x="1752" y="1388.7051">CourseRepository</text><path d="M1824.5,1403.4219 C1824.5,1393.4219 1842.5,1393.4219 1842.5,1393.4219 C1842.5,1393.4219 1860.5,1393.4219 1860.5,1403.4219 L1860.5,1429.4219 C1860.5,1439.4219 1842.5,1439.4219 1842.5,1439.4219 C1842.5,1439.4219 1824.5,1439.4219 1824.5,1429.4219 L1824.5,1403.4219 " fill="#E2E2F0" style="stroke:#181818;stroke-width:1.5;"/><path d="M1824.5,1403.4219 C1824.5,1413.4219 1842.5,1413.4219 1842.5,1413.4219 C1842.5,1413.4219 1860.5,1413.4219 1860.5,1403.4219 " fill="none" style="stroke:#181818;stroke-width:1.5;"/><rect fill="#E2E2F0" height="60.5625" rx="2.5" ry="2.5" style="stroke:#181818;stroke-width:0.5;" width="114" x="1943" y="73.2969"/><text fill="#000000" font-family="sans-serif" font-size="20" font-style="italic" lengthAdjust="spacing" textLength="100" x="1950" y="98.8613">«domain»</text><text fill="#000000" font-family="sans-serif" font-size="20" lengthAdjust="spacing" textLength="69" x="1965.5" y="122.1426">Course</text><rect fill="#E2E2F0" height="60.5625" rx="2.5" ry="2.5" style="stroke:#181818;stroke-width:0.5;" width="114" x="1943" y="1346.8594"/><text fill="#000000" font-family="sans-serif" font-size="20" font-style="italic" lengthAdjust="spacing" textLength="100" x="1950" y="1372.4238">«domain»</text><text fill="#000000" font-family="sans-serif" font-size="20" lengthAdjust="spacing" textLength="69" x="1965.5" y="1395.7051">Course</text><text fill="#000000" font-family="sans-serif" font-size="20" font-style="italic" lengthAdjust="spacing" textLength="116" x="2102" y="106.8613">«database»</text><text fill="#000000" font-family="sans-serif" font-size="20" lengthAdjust="spacing" textLength="186" x="2067" y="130.1426">StudentRepository</text><path d="M2145,52.2969 C2145,42.2969 2163,42.2969 2163,42.2969 C2163,42.2969 2181,42.2969 2181,52.2969 L2181,78.2969 C2181,88.2969 2163,88.2969 2163,88.2969 C2163,88.2969 2145,88.2969 2145,78.2969 L2145,52.2969 " fill="#E2E2F0" style="stroke:#181818;stroke-width:1.5;"/><path d="M2145,52.2969 C2145,62.2969 2163,62.2969 2163,62.2969 C2163,62.2969 2181,62.2969 2181,52.2969 " fill="none" style="stroke:#181818;stroke-width:1.5;"/><text fill="#000000" font-family="sans-serif" font-size="20" font-style="italic" lengthAdjust="spacing" textLength="116" x="2102" y="1365.4238">«database»</text><text fill="#000000" font-family="sans-serif" font-size="20" lengthAdjust="spacing" textLength="186" x="2067" y="1388.7051">StudentRepository</text><path d="M2145,1403.4219 C2145,1393.4219 2163,1393.4219 2163,1393.4219 C2163,1393.4219 2181,1393.4219 2181,1403.4219 L2181,1429.4219 C2181,1439.4219 2163,1439.4219 2163,1439.4219 C2163,1439.4219 2145,1439.4219 2145,1429.4219 L2145,1403.4219 " fill="#E2E2F0" style="stroke:#181818;stroke-width:1.5;"/><path d="M2145,1403.4219 C2145,1413.4219 2163,1413.4219 2163,1413.4219 C2163,1413.4219 2181,1413.4219 2181,1403.4219 " fill="none" style="stroke:#181818;stroke-width:1.5;"/><rect fill="#E2E2F0" height="60.5625" rx="2.5" ry="2.5" style="stroke:#181818;stroke-width:0.5;" width="114" x="2269" y="73.2969"/><text fill="#000000" font-family="sans-serif" font-size="20" font-style="italic" lengthAdjust="spacing" textLength="100" x="2276" y="98.8613">«domain»</text><text fill="#000000" font-family="sans-serif" font-size="20" lengthAdjust="spacing" textLength="80" x="2286" y="122.1426">Student</text><rect fill="#E2E2F0" height="60.5625" rx="2.5" ry="2.5" style="stroke:#181818;stroke-width:0.5;" width="114" x="2269" y="1346.8594"/><text fill="#000000" font-family="sans-serif" font-size="20" font-style="italic" lengthAdjust="spacing" textLength="100" x="2276" y="1372.4238">«domain»</text><text fill="#000000" font-family="sans-serif" font-size="20" lengthAdjust="spacing" textLength="80" x="2286" y="1395.7051">Student</text><rect fill="#E2E2F0" height="60.5625" rx="2.5" ry="2.5" style="stroke:#181818;stroke-width:0.5;" width="206" x="2393" y="73.2969"/><text fill="#000000" font-family="sans-serif" font-size="20" font-style="italic" lengthAdjust="spacing" textLength="139" x="2426.5" y="98.8613">«persistence»</text><text fill="#000000" font-family="sans-serif" font-size="20" lengthAdjust="spacing" textLength="192" x="2400" y="122.1426">PersistenceContext</text><rect fill="#E2E2F0" height="60.5625" rx="2.5" ry="2.5" style="stroke:#181818;stroke-width:0.5;" width="206" x="2393" y="1346.8594"/><text fill="#000000" font-family="sans-serif" font-size="20" font-style="italic" lengthAdjust="spacing" textLength="139" x="2426.5" y="1372.4238">«persistence»</text><text fill="#000000" font-family="sans-serif" font-size="20" lengthAdjust="spacing" textLength="192" x="2400" y="1395.7051">PersistenceContext</text><rect fill="#E2E2F0" height="60.5625" rx="2.5" ry="2.5" style="stroke:#181818;stroke-width:0.5;" width="194" x="2609" y="73.2969"/><text fill="#000000" font-family="sans-serif" font-size="20" font-style="italic" lengthAdjust="spacing" textLength="94" x="2659" y="98.8613">«factory»</text><text fill="#000000" font-family="sans-serif" font-size="20" lengthAdjust="spacing" textLength="180" x="2616" y="122.1426">RepositoryFactory</text><rect fill="#E2E2F0" height="60.5625" rx="2.5" ry="2.5" style="stroke:#181818;stroke-width:0.5;" width="194" x="2609" y="1346.8594"/><text fill="#000000" font-family="sans-serif" font-size="20" font-style="italic" lengthAdjust="spacing" textLength="94" x="2659" y="1372.4238">«factory»</text><text fill="#000000" font-family="sans-serif" font-size="20" lengthAdjust="spacing" textLength="180" x="2616" y="1395.7051">RepositoryFactory</text><rect fill="#FFFFFF" height="1185" style="stroke:#181818;stroke-width:1.0;" width="10" x="46.5" y="144.8594"/><rect fill="#FFFFFF" height="1155.7188" style="stroke:#181818;stroke-width:1.0;" width="10" x="719.5" y="174.1406"/><rect fill="#FFFFFF" height="410.0938" style="stroke:#181818;stroke-width:1.0;" width="10" x="1147.5" y="211.4219"/><rect fill="#FFFFFF" height="260.9688" style="stroke:#181818;stroke-width:1.0;" width="10" x="1147.5" y="733.3594"/><rect fill="#FFFFFF" height="186.4063" style="stroke:#181818;stroke-width:1.0;" width="10" x="1147.5" y="1106.1719"/><rect fill="#FFFFFF" height="37.2813" style="stroke:#181818;stroke-width:1.0;" width="10" x="1490.5" y="546.9531"/><rect fill="#FFFFFF" height="37.2813" style="stroke:#181818;stroke-width:1.0;" width="10" x="1490.5" y="770.6406"/><rect fill="#FFFFFF" height="37.2813" style="stroke:#181818;stroke-width:1.0;" width="10" x="1490.5" y="1218.0156"/><rect fill="#FFFFFF" height="37.2813" style="stroke:#181818;stroke-width:1.0;" width="10" x="1674.5" y="1143.4531"/><rect fill="#FFFFFF" height="37.2813" style="stroke:#181818;stroke-width:1.0;" width="10" x="1837.5" y="845.2031"/><rect fill="#FFFFFF" height="37.2813" style="stroke:#181818;stroke-width:1.0;" width="10" x="2158" y="919.7656"/><rect fill="#FFFFFF" height="37.2813" style="stroke:#181818;stroke-width:1.0;" width="10" x="2491" y="248.7031"/><rect fill="#FFFFFF" height="37.2813" style="stroke:#181818;stroke-width:1.0;" width="10" x="2701" y="323.2656"/><rect fill="#FFFFFF" height="37.2813" style="stroke:#181818;stroke-width:1.0;" width="10" x="2701" y="397.8281"/><rect fill="#FFFFFF" height="37.2813" style="stroke:#181818;stroke-width:1.0;" width="10" x="2701" y="472.3906"/><polygon fill="#181818" points="707.5,170.1406,717.5,174.1406,707.5,178.1406,711.5,174.1406" style="stroke:#181818;stroke-width:1.0;"/><line style="stroke:#181818;stroke-width:1.0;" x1="56.5" x2="713.5" y1="174.1406" y2="174.1406"/><text fill="#000000" font-family="sans-serif" font-size="20" font-weight="bold" lengthAdjust="spacing" textLength="14" x="63.5" y="167.4238">1</text><text fill="#000000" font-family="sans-serif" font-size="20" lengthAdjust="spacing" textLength="552" x="81.5" y="167.4238">selects option "Approve/Reject Enlistment to a Course"</text><polygon fill="#181818" points="1135.5,207.4219,1145.5,211.4219,1135.5,215.4219,1139.5,211.4219" style="stroke:#181818;stroke-width:1.0;"/><line style="stroke:#181818;stroke-width:1.0;" x1="729.5" x2="1141.5" y1="211.4219" y2="211.4219"/><text fill="#000000" font-family="sans-serif" font-size="20" font-weight="bold" lengthAdjust="spacing" textLength="14" x="736.5" y="204.7051">2</text><text fill="#000000" font-family="sans-serif" font-size="20" lengthAdjust="spacing" textLength="79" x="754.5" y="204.7051">create()</text><polygon fill="#181818" points="2479,244.7031,2489,248.7031,2479,252.7031,2483,248.7031" style="stroke:#181818;stroke-width:1.0;"/><line style="stroke:#181818;stroke-width:1.0;" x1="1157.5" x2="2485" y1="248.7031" y2="248.7031"/><text fill="#000000" font-family="sans-serif" font-size="20" font-weight="bold" lengthAdjust="spacing" textLength="14" x="1164.5" y="241.9863">3</text><text fill="#000000" font-family="sans-serif" font-size="20" lengthAdjust="spacing" textLength="133" x="1182.5" y="241.9863">repositories()</text><polygon fill="#181818" points="1168.5,281.9844,1158.5,285.9844,1168.5,289.9844,1164.5,285.9844" style="stroke:#181818;stroke-width:1.0;"/><line style="stroke:#181818;stroke-width:1.0;stroke-dasharray:2.0,2.0;" x1="1162.5" x2="2495" y1="285.9844" y2="285.9844"/><text fill="#000000" font-family="sans-serif" font-size="20" font-weight="bold" lengthAdjust="spacing" textLength="14" x="1174.5" y="279.2676">4</text><text fill="#000000" font-family="sans-serif" font-size="20" lengthAdjust="spacing" textLength="180" x="1192.5" y="279.2676">RepositoryFactory</text><polygon fill="#181818" points="2689,319.2656,2699,323.2656,2689,327.2656,2693,323.2656" style="stroke:#181818;stroke-width:1.0;"/><line style="stroke:#181818;stroke-width:1.0;" x1="1157.5" x2="2695" y1="323.2656" y2="323.2656"/><text fill="#000000" font-family="sans-serif" font-size="20" font-weight="bold" lengthAdjust="spacing" textLength="14" x="1164.5" y="316.5488">5</text><text fill="#000000" font-family="sans-serif" font-size="20" lengthAdjust="spacing" textLength="136" x="1182.5" y="316.5488">enrollments()</text><polygon fill="#181818" points="1168.5,356.5469,1158.5,360.5469,1168.5,364.5469,1164.5,360.5469" style="stroke:#181818;stroke-width:1.0;"/><line style="stroke:#181818;stroke-width:1.0;stroke-dasharray:2.0,2.0;" x1="1162.5" x2="2705" y1="360.5469" y2="360.5469"/><text fill="#000000" font-family="sans-serif" font-size="20" font-weight="bold" lengthAdjust="spacing" textLength="14" x="1174.5" y="353.8301">6</text><text fill="#000000" font-family="sans-serif" font-size="20" lengthAdjust="spacing" textLength="217" x="1192.5" y="353.8301">EnrollmentRepository</text><polygon fill="#181818" points="2689,393.8281,2699,397.8281,2689,401.8281,2693,397.8281" style="stroke:#181818;stroke-width:1.0;"/><line style="stroke:#181818;stroke-width:1.0;" x1="1157.5" x2="2695" y1="397.8281" y2="397.8281"/><text fill="#000000" font-family="sans-serif" font-size="20" font-weight="bold" lengthAdjust="spacing" textLength="14" x="1164.5" y="391.1113">7</text><text fill="#000000" font-family="sans-serif" font-size="20" lengthAdjust="spacing" textLength="92" x="1182.5" y="391.1113">courses()</text><polygon fill="#181818" points="1168.5,431.1094,1158.5,435.1094,1168.5,439.1094,1164.5,435.1094" style="stroke:#181818;stroke-width:1.0;"/><line style="stroke:#181818;stroke-width:1.0;stroke-dasharray:2.0,2.0;" x1="1162.5" x2="2705" y1="435.1094" y2="435.1094"/><text fill="#000000" font-family="sans-serif" font-size="20" font-weight="bold" lengthAdjust="spacing" textLength="14" x="1174.5" y="428.3926">8</text><text fill="#000000" font-family="sans-serif" font-size="20" lengthAdjust="spacing" textLength="175" x="1192.5" y="428.3926">CourseRepository</text><polygon fill="#181818" points="2689,468.3906,2699,472.3906,2689,476.3906,2693,472.3906" style="stroke:#181818;stroke-width:1.0;"/><line style="stroke:#181818;stroke-width:1.0;" x1="1157.5" x2="2695" y1="472.3906" y2="472.3906"/><text fill="#000000" font-family="sans-serif" font-size="20" font-weight="bold" lengthAdjust="spacing" textLength="14" x="1164.5" y="465.6738">9</text><text fill="#000000" font-family="sans-serif" font-size="20" lengthAdjust="spacing" textLength="103" x="1182.5" y="465.6738">students()</text><polygon fill="#181818" points="1168.5,505.6719,1158.5,509.6719,1168.5,513.6719,1164.5,509.6719" style="stroke:#181818;stroke-width:1.0;"/><line style="stroke:#181818;stroke-width:1.0;stroke-dasharray:2.0,2.0;" x1="1162.5" x2="2705" y1="509.6719" y2="509.6719"/><text fill="#000000" font-family="sans-serif" font-size="20" font-weight="bold" lengthAdjust="spacing" textLength="28" x="1174.5" y="502.9551">10</text><text fill="#000000" font-family="sans-serif" font-size="20" lengthAdjust="spacing" textLength="186" x="1206.5" y="502.9551">StudentRepository</text><polygon fill="#181818" points="1478.5,542.9531,1488.5,546.9531,1478.5,550.9531,1482.5,546.9531" style="stroke:#181818;stroke-width:1.0;"/><line style="stroke:#181818;stroke-width:1.0;" x1="1157.5" x2="1484.5" y1="546.9531" y2="546.9531"/><text fill="#000000" font-family="sans-serif" font-size="20" font-weight="bold" lengthAdjust="spacing" textLength="28" x="1164.5" y="540.2363">11</text><text fill="#000000" font-family="sans-serif" font-size="20" lengthAdjust="spacing" textLength="227" x="1196.5" y="540.2363">listPendingApprovals()</text><polygon fill="#181818" points="1168.5,580.2344,1158.5,584.2344,1168.5,588.2344,1164.5,584.2344" style="stroke:#181818;stroke-width:1.0;"/><line style="stroke:#181818;stroke-width:1.0;stroke-dasharray:2.0,2.0;" x1="1162.5" x2="1494.5" y1="584.2344" y2="584.2344"/><text fill="#000000" font-family="sans-serif" font-size="20" font-weight="bold" lengthAdjust="spacing" textLength="28" x="1174.5" y="577.5176">12</text><text fill="#000000" font-family="sans-serif" font-size="20" lengthAdjust="spacing" textLength="247" x="1206.5" y="577.5176">list of pending approvals</text><polygon fill="#181818" points="740.5,617.5156,730.5,621.5156,740.5,625.5156,736.5,621.5156" style="stroke:#181818;stroke-width:1.0;"/><line style="stroke:#181818;stroke-width:1.0;stroke-dasharray:2.0,2.0;" x1="734.5" x2="1151.5" y1="621.5156" y2="621.5156"/><text fill="#000000" font-family="sans-serif" font-size="20" font-weight="bold" lengthAdjust="spacing" textLength="28" x="746.5" y="614.7988">13</text><text fill="#000000" font-family="sans-serif" font-size="20" lengthAdjust="spacing" textLength="247" x="778.5" y="614.7988">list of pending approvals</text><polygon fill="#181818" points="67.5,654.7969,57.5,658.7969,67.5,662.7969,63.5,658.7969" style="stroke:#181818;stroke-width:1.0;"/><line style="stroke:#181818;stroke-width:1.0;stroke-dasharray:2.0,2.0;" x1="61.5" x2="718.5" y1="658.7969" y2="658.7969"/><text fill="#000000" font-family="sans-serif" font-size="20" font-weight="bold" lengthAdjust="spacing" textLength="28" x="73.5" y="652.0801">14</text><text fill="#000000" font-family="sans-serif" font-size="20" lengthAdjust="spacing" textLength="243" x="105.5" y="652.0801">shows pending requests</text><polygon fill="#181818" points="707.5,692.0781,717.5,696.0781,707.5,700.0781,711.5,696.0781" style="stroke:#181818;stroke-width:1.0;"/><line style="stroke:#181818;stroke-width:1.0;" x1="56.5" x2="713.5" y1="696.0781" y2="696.0781"/><text fill="#000000" font-family="sans-serif" font-size="20" font-weight="bold" lengthAdjust="spacing" textLength="28" x="63.5" y="689.3613">15</text><text fill="#000000" font-family="sans-serif" font-size="20" lengthAdjust="spacing" textLength="151" x="95.5" y="689.3613">selects request</text><polygon fill="#181818" points="1135.5,729.3594,1145.5,733.3594,1135.5,737.3594,1139.5,733.3594" style="stroke:#181818;stroke-width:1.0;"/><line style="stroke:#181818;stroke-width:1.0;" x1="729.5" x2="1141.5" y1="733.3594" y2="733.3594"/><text fill="#000000" font-family="sans-serif" font-size="20" font-weight="bold" lengthAdjust="spacing" textLength="28" x="736.5" y="726.6426">16</text><text fill="#000000" font-family="sans-serif" font-size="20" lengthAdjust="spacing" textLength="232" x="768.5" y="726.6426">findRequest(requestId)</text><polygon fill="#181818" points="1478.5,766.6406,1488.5,770.6406,1478.5,774.6406,1482.5,770.6406" style="stroke:#181818;stroke-width:1.0;"/><line style="stroke:#181818;stroke-width:1.0;" x1="1157.5" x2="1484.5" y1="770.6406" y2="770.6406"/><text fill="#000000" font-family="sans-serif" font-size="20" font-weight="bold" lengthAdjust="spacing" textLength="28" x="1164.5" y="763.9238">17</text><text fill="#000000" font-family="sans-serif" font-size="20" lengthAdjust="spacing" textLength="232" x="1196.5" y="763.9238">findRequest(requestId)</text><polygon fill="#181818" points="1168.5,803.9219,1158.5,807.9219,1168.5,811.9219,1164.5,807.9219" style="stroke:#181818;stroke-width:1.0;"/><line style="stroke:#181818;stroke-width:1.0;stroke-dasharray:2.0,2.0;" x1="1162.5" x2="1494.5" y1="807.9219" y2="807.9219"/><text fill="#000000" font-family="sans-serif" font-size="20" font-weight="bold" lengthAdjust="spacing" textLength="28" x="1174.5" y="801.2051">18</text><text fill="#000000" font-family="sans-serif" font-size="20" lengthAdjust="spacing" textLength="110" x="1206.5" y="801.2051">enrollment</text><polygon fill="#181818" points="1825.5,841.2031,1835.5,845.2031,1825.5,849.2031,1829.5,845.2031" style="stroke:#181818;stroke-width:1.0;"/><line style="stroke:#181818;stroke-width:1.0;" x1="1157.5" x2="1831.5" y1="845.2031" y2="845.2031"/><text fill="#000000" font-family="sans-serif" font-size="20" font-weight="bold" lengthAdjust="spacing" textLength="28" x="1164.5" y="838.4863">19</text><text fill="#000000" font-family="sans-serif" font-size="20" lengthAdjust="spacing" textLength="209" x="1196.5" y="838.4863">findCourse(courseId)</text><polygon fill="#181818" points="1168.5,878.4844,1158.5,882.4844,1168.5,886.4844,1164.5,882.4844" style="stroke:#181818;stroke-width:1.0;"/><line style="stroke:#181818;stroke-width:1.0;stroke-dasharray:2.0,2.0;" x1="1162.5" x2="1841.5" y1="882.4844" y2="882.4844"/><text fill="#000000" font-family="sans-serif" font-size="20" font-weight="bold" lengthAdjust="spacing" textLength="28" x="1174.5" y="875.7676">20</text><text fill="#000000" font-family="sans-serif" font-size="20" lengthAdjust="spacing" textLength="66" x="1206.5" y="875.7676">course</text><polygon fill="#181818" points="2146,915.7656,2156,919.7656,2146,923.7656,2150,919.7656" style="stroke:#181818;stroke-width:1.0;"/><line style="stroke:#181818;stroke-width:1.0;" x1="1157.5" x2="2152" y1="919.7656" y2="919.7656"/><text fill="#000000" font-family="sans-serif" font-size="20" font-weight="bold" lengthAdjust="spacing" textLength="28" x="1164.5" y="913.0488">21</text><text fill="#000000" font-family="sans-serif" font-size="20" lengthAdjust="spacing" textLength="231" x="1196.5" y="913.0488">findStudent(studentId)</text><polygon fill="#181818" points="1168.5,953.0469,1158.5,957.0469,1168.5,961.0469,1164.5,957.0469" style="stroke:#181818;stroke-width:1.0;"/><line style="stroke:#181818;stroke-width:1.0;stroke-dasharray:2.0,2.0;" x1="1162.5" x2="2162" y1="957.0469" y2="957.0469"/><text fill="#000000" font-family="sans-serif" font-size="20" font-weight="bold" lengthAdjust="spacing" textLength="28" x="1174.5" y="950.3301">22</text><text fill="#000000" font-family="sans-serif" font-size="20" lengthAdjust="spacing" textLength="77" x="1206.5" y="950.3301">student</text><polygon fill="#181818" points="740.5,990.3281,730.5,994.3281,740.5,998.3281,736.5,994.3281" style="stroke:#181818;stroke-width:1.0;"/><line style="stroke:#181818;stroke-width:1.0;stroke-dasharray:2.0,2.0;" x1="734.5" x2="1151.5" y1="994.3281" y2="994.3281"/><text fill="#000000" font-family="sans-serif" font-size="20" font-weight="bold" lengthAdjust="spacing" textLength="28" x="746.5" y="987.6113">23</text><text fill="#000000" font-family="sans-serif" font-size="20" lengthAdjust="spacing" textLength="277" x="778.5" y="987.6113">enrollment, course, student</text><polygon fill="#181818" points="67.5,1027.6094,57.5,1031.6094,67.5,1035.6094,63.5,1031.6094" style="stroke:#181818;stroke-width:1.0;"/><line style="stroke:#181818;stroke-width:1.0;stroke-dasharray:2.0,2.0;" x1="61.5" x2="718.5" y1="1031.6094" y2="1031.6094"/><text fill="#000000" font-family="sans-serif" font-size="20" font-weight="bold" lengthAdjust="spacing" textLength="28" x="73.5" y="1024.8926">24</text><text fill="#000000" font-family="sans-serif" font-size="20" lengthAdjust="spacing" textLength="607" x="105.5" y="1024.8926">shows possible options (accept or reject) and request details</text><polygon fill="#181818" points="707.5,1064.8906,717.5,1068.8906,707.5,1072.8906,711.5,1068.8906" style="stroke:#181818;stroke-width:1.0;"/><line style="stroke:#181818;stroke-width:1.0;" x1="56.5" x2="713.5" y1="1068.8906" y2="1068.8906"/><text fill="#000000" font-family="sans-serif" font-size="20" font-weight="bold" lengthAdjust="spacing" textLength="28" x="63.5" y="1062.1738">25</text><text fill="#000000" font-family="sans-serif" font-size="20" lengthAdjust="spacing" textLength="139" x="95.5" y="1062.1738">selects option</text><polygon fill="#181818" points="1135.5,1102.1719,1145.5,1106.1719,1135.5,1110.1719,1139.5,1106.1719" style="stroke:#181818;stroke-width:1.0;"/><line style="stroke:#181818;stroke-width:1.0;" x1="729.5" x2="1141.5" y1="1106.1719" y2="1106.1719"/><text fill="#000000" font-family="sans-serif" font-size="20" font-weight="bold" lengthAdjust="spacing" textLength="28" x="736.5" y="1099.4551">26</text><text fill="#000000" font-family="sans-serif" font-size="20" lengthAdjust="spacing" textLength="367" x="768.5" y="1099.4551">processApproval(enrollment, option)</text><polygon fill="#181818" points="1662.5,1139.4531,1672.5,1143.4531,1662.5,1147.4531,1666.5,1143.4531" style="stroke:#181818;stroke-width:1.0;"/><line style="stroke:#181818;stroke-width:1.0;" x1="1157.5" x2="1668.5" y1="1143.4531" y2="1143.4531"/><text fill="#000000" font-family="sans-serif" font-size="20" font-weight="bold" lengthAdjust="spacing" textLength="28" x="1164.5" y="1136.7363">27</text><text fill="#000000" font-family="sans-serif" font-size="20" lengthAdjust="spacing" textLength="174" x="1196.5" y="1136.7363">setStatus(option)</text><polygon fill="#181818" points="1168.5,1176.7344,1158.5,1180.7344,1168.5,1184.7344,1164.5,1180.7344" style="stroke:#181818;stroke-width:1.0;"/><line style="stroke:#181818;stroke-width:1.0;stroke-dasharray:2.0,2.0;" x1="1162.5" x2="1678.5" y1="1180.7344" y2="1180.7344"/><text fill="#000000" font-family="sans-serif" font-size="20" font-weight="bold" lengthAdjust="spacing" textLength="28" x="1174.5" y="1174.0176">28</text><text fill="#000000" font-family="sans-serif" font-size="20" lengthAdjust="spacing" textLength="200" x="1206.5" y="1174.0176">updated enrollment</text><polygon fill="#181818" points="1478.5,1214.0156,1488.5,1218.0156,1478.5,1222.0156,1482.5,1218.0156" style="stroke:#181818;stroke-width:1.0;"/><line style="stroke:#181818;stroke-width:1.0;" x1="1157.5" x2="1484.5" y1="1218.0156" y2="1218.0156"/><text fill="#000000" font-family="sans-serif" font-size="20" font-weight="bold" lengthAdjust="spacing" textLength="28" x="1164.5" y="1211.2988">29</text><text fill="#000000" font-family="sans-serif" font-size="20" lengthAdjust="spacing" textLength="282" x="1196.5" y="1211.2988">saveEnrollment(enrollment)</text><polygon fill="#181818" points="1168.5,1251.2969,1158.5,1255.2969,1168.5,1259.2969,1164.5,1255.2969" style="stroke:#181818;stroke-width:1.0;"/><line style="stroke:#181818;stroke-width:1.0;stroke-dasharray:2.0,2.0;" x1="1162.5" x2="1494.5" y1="1255.2969" y2="1255.2969"/><text fill="#000000" font-family="sans-serif" font-size="20" font-weight="bold" lengthAdjust="spacing" textLength="28" x="1174.5" y="1248.5801">30</text><text fill="#000000" font-family="sans-serif" font-size="20" lengthAdjust="spacing" textLength="6" x="1206.5" y="1248.5801"> </text><polygon fill="#181818" points="740.5,1288.5781,730.5,1292.5781,740.5,1296.5781,736.5,1292.5781" style="stroke:#181818;stroke-width:1.0;"/><line style="stroke:#181818;stroke-width:1.0;stroke-dasharray:2.0,2.0;" x1="734.5" x2="1151.5" y1="1292.5781" y2="1292.5781"/><text fill="#000000" font-family="sans-serif" font-size="20" font-weight="bold" lengthAdjust="spacing" textLength="28" x="746.5" y="1285.8613">31</text><text fill="#000000" font-family="sans-serif" font-size="20" lengthAdjust="spacing" textLength="271" x="778.5" y="1285.8613">informs operations success</text><polygon fill="#181818" points="62.5,1325.8594,52.5,1329.8594,62.5,1333.8594,58.5,1329.8594" style="stroke:#181818;stroke-width:1.0;"/><line style="stroke:#181818;stroke-width:1.0;stroke-dasharray:2.0,2.0;" x1="56.5" x2="723.5" y1="1329.8594" y2="1329.8594"/><text fill="#000000" font-family="sans-serif" font-size="20" font-weight="bold" lengthAdjust="spacing" textLength="28" x="68.5" y="1323.1426">32</text><text fill="#000000" font-family="sans-serif" font-size="20" lengthAdjust="spacing" textLength="271" x="100.5" y="1323.1426">informs operations success</text><!--SRC=[bPRRZjem48RlynJMNcMbHQrwYH1IHNSHKf5Mq7q0amnRTuETUXnwUFgEOnix9vRUeCIUV_xn-8iDlWbPSyrFbIhUe6Gb77bJcISbpLxy1VRfOyOResHpEe3EZ30LiFqNDcEVwrghCp2bsGv-G67OtZGbI6DdAb5m8vH4PXHRgKOZO9Rnmb3qbal-2ffnPDjrHjv65ABcJaWfUVMoiPFqkrZK6f1ojicMoz7e5PMgLLMvbAjlkw-aux46afNSy0D7O8_IHfueumvgXOBg-MDLcjxY7Ec3ekUPn90AEWfrug9ZvjOzD7BZqoP-dgABI-GWkM_sC7lOXSdq8O3YCSO6WpJo6JGAD20Bi4s6twqeFDBcnFcUCfRrr6vwMrruN2oExeb4bWbnvWOi2zircorft-SCeIAYaAdQxY2xyx1zyAGzoefysyOJNzntx2ucUzbaX0ybipZCMQ61HlFx6637ivOL6-HMD6_xrvOj03lHBY0BIvzTCWyMcfKmb7aV7p9FmEdOX1IXKT5cZDlKAIW7JewW6rtwmDxau1cwqMA0xJMFxbSvPtRJdq6MGhw6ZxzZsutFUXzrBCBcOUh8QfUByP0iBQQNpDNayRmfGOkOfP14spKrwhlwXHU9XfyDeA5JSKYzd-iWV1IotBdntCzloYcW-urxJtnhuoAtxtPgcHnrhW3td3iY1_PkDalEnsZh97rBhqZjF5tEpx_a7j21ev_FqaCpUdfLtpI8EZZ4jZpuMX_6z1D0A4Hne5lLdNN8SbuKK1jxiUhskBjdN9O12hgW3HT4sjHXsQ66i2m0CNmjULgf2vz2219y4CoUhk06yu4c8GB6Y6bgkeNeRyKuEJ1EJOekyZF4zsG1_utl5MIxsodaKUcJxITe_oy6cyBsyTfktgQYYobvswx_0G00]--></g></svg>