<?xml version="1.0" encoding="us-ascii" standalone="no"?><svg xmlns="http://www.w3.org/2000/svg" xmlns:xlink="http://www.w3.org/1999/xlink" contentStyleType="text/css" height="1560px" preserveAspectRatio="none" style="width:2817px;height:1560px;background:#FFFFFF;" version="1.1" viewBox="0 0 2817 1560" width="2817px" zoomAndPan="magnify"><defs/><g><text fill="#000000" font-family="sans-serif" font-size="14" font-weight="bold" lengthAdjust="spacing" textLength="100" x="1351.5" y="35.1074">Domain Model</text><!--cluster eCourseUser--><g id="cluster_eCourseUser"><path d="M1098.5,567.1211 L1212.5,567.1211 A3.75,3.75 0 0 1 1215,569.6211 L1222,611.7422 L1993.5,611.7422 A2.5,2.5 0 0 1 1996,614.2422 L1996,962.1211 A2.5,2.5 0 0 1 1993.5,964.6211 L1098.5,964.6211 A2.5,2.5 0 0 1 1096,962.1211 L1096,569.6211 A2.5,2.5 0 0 1 1098.5,567.1211 " fill="#D3D3D3" style="stroke:#000000;stroke-width:1.5;"/><line style="stroke:#000000;stroke-width:1.5;" x1="1096" x2="1222" y1="611.7422" y2="611.7422"/><text fill="#000000" font-family="sans-serif" font-size="14" font-weight="bold" lengthAdjust="spacing" textLength="93" x="1110" y="594.2285">eCourseUser</text></g><!--cluster Teacher--><g id="cluster_Teacher"><path d="M1207.5,297.1211 L1285.5,297.1211 A3.75,3.75 0 0 1 1288,299.6211 L1295,341.7422 L1497.5,341.7422 A2.5,2.5 0 0 1 1500,344.2422 L1500,460.6211 A2.5,2.5 0 0 1 1497.5,463.1211 L1207.5,463.1211 A2.5,2.5 0 0 1 1205,460.6211 L1205,299.6211 A2.5,2.5 0 0 1 1207.5,297.1211 " fill="#D3D3D3" style="stroke:#000000;stroke-width:1.5;"/><line style="stroke:#000000;stroke-width:1.5;" x1="1205" x2="1295" y1="341.7422" y2="341.7422"/><text fill="#000000" font-family="sans-serif" font-size="14" font-weight="bold" lengthAdjust="spacing" textLength="57" x="1219" y="324.2285">Teacher</text></g><!--cluster Student--><g id="cluster_Student"><path d="M1526.5,65.6211 L1602.5,65.6211 A3.75,3.75 0 0 1 1605,68.1211 L1612,110.2422 L1733.5,110.2422 A2.5,2.5 0 0 1 1736,112.7422 L1736,460.6211 A2.5,2.5 0 0 1 1733.5,463.1211 L1526.5,463.1211 A2.5,2.5 0 0 1 1524,460.6211 L1524,68.1211 A2.5,2.5 0 0 1 1526.5,65.6211 " fill="#D3D3D3" style="stroke:#000000;stroke-width:1.5;"/><line style="stroke:#000000;stroke-width:1.5;" x1="1524" x2="1612" y1="110.2422" y2="110.2422"/><text fill="#000000" font-family="sans-serif" font-size="14" font-weight="bold" lengthAdjust="spacing" textLength="55" x="1538" y="92.7285">Student</text></g><!--cluster Board--><g id="cluster_Board"><path d="M2022.5,258.6211 L2085.5,258.6211 A3.75,3.75 0 0 1 2088,261.1211 L2095,303.2422 L2603.5,303.2422 A2.5,2.5 0 0 1 2606,305.7422 L2606,948.1211 A2.5,2.5 0 0 1 2603.5,950.6211 L2022.5,950.6211 A2.5,2.5 0 0 1 2020,948.1211 L2020,261.1211 A2.5,2.5 0 0 1 2022.5,258.6211 " fill="#D3D3D3" style="stroke:#000000;stroke-width:1.5;"/><line style="stroke:#000000;stroke-width:1.5;" x1="2020" x2="2095" y1="303.2422" y2="303.2422"/><text fill="#000000" font-family="sans-serif" font-size="14" font-weight="bold" lengthAdjust="spacing" textLength="42" x="2034" y="285.7285">Board</text></g><!--cluster BoardUpdate--><g id="cluster_BoardUpdate"><path d="M8.5,278.1211 L121.5,278.1211 A3.75,3.75 0 0 1 124,280.6211 L131,322.7422 L579.5,322.7422 A2.5,2.5 0 0 1 582,325.2422 L582,962.1211 A2.5,2.5 0 0 1 579.5,964.6211 L8.5,964.6211 A2.5,2.5 0 0 1 6,962.1211 L6,280.6211 A2.5,2.5 0 0 1 8.5,278.1211 " fill="#D3D3D3" style="stroke:#000000;stroke-width:1.5;"/><line style="stroke:#000000;stroke-width:1.5;" x1="6" x2="131" y1="322.7422" y2="322.7422"/><text fill="#000000" font-family="sans-serif" font-size="14" font-weight="bold" lengthAdjust="spacing" textLength="92" x="20" y="305.2285">BoardUpdate</text></g><!--cluster PostIt--><g id="cluster_PostIt"><path d="M770.5,798.6211 L831.5,798.6211 A3.75,3.75 0 0 1 834,801.1211 L841,843.2422 L907.5,843.2422 A2.5,2.5 0 0 1 910,845.7422 L910,1551.1211 A2.5,2.5 0 0 1 907.5,1553.6211 L770.5,1553.6211 A2.5,2.5 0 0 1 768,1551.1211 L768,801.1211 A2.5,2.5 0 0 1 770.5,798.6211 " fill="#D3D3D3" style="stroke:#000000;stroke-width:1.5;"/><line style="stroke:#000000;stroke-width:1.5;" x1="768" x2="841" y1="843.2422" y2="843.2422"/><text fill="#000000" font-family="sans-serif" font-size="14" font-weight="bold" lengthAdjust="spacing" textLength="40" x="782" y="825.7285">PostIt</text></g><!--cluster BoardShare--><g id="cluster_BoardShare"><path d="M2656.5,297.1211 L2760.5,297.1211 A3.75,3.75 0 0 1 2763,299.6211 L2770,341.7422 L2807.5,341.7422 A2.5,2.5 0 0 1 2810,344.2422 L2810,948.1211 A2.5,2.5 0 0 1 2807.5,950.6211 L2656.5,950.6211 A2.5,2.5 0 0 1 2654,948.1211 L2654,299.6211 A2.5,2.5 0 0 1 2656.5,297.1211 " fill="#D3D3D3" style="stroke:#000000;stroke-width:1.5;"/><line style="stroke:#000000;stroke-width:1.5;" x1="2654" x2="2770" y1="341.7422" y2="341.7422"/><text fill="#000000" font-family="sans-serif" font-size="14" font-weight="bold" lengthAdjust="spacing" textLength="83" x="2668" y="324.2285">BoardShare</text></g><!--class eCourseUser--><g id="elem_eCourseUser"><rect codeLine="20" fill="#F1F1F1" height="92.582" id="eCourseUser" rx="2.5" ry="2.5" style="stroke:#181818;stroke-width:0.5;" width="109" x="1475.5" y="624.1211"/><text fill="#000000" font-family="sans-serif" font-size="12" font-style="italic" lengthAdjust="spacing" textLength="35" x="1512.5" y="652.0703">&#171;root&#187;</text><text fill="#000000" font-family="sans-serif" font-size="14" lengthAdjust="spacing" textLength="83" x="1488.5" y="690.1895">eCourseUser</text><line style="stroke:#181818;stroke-width:0.5;" x1="1476.5" x2="1583.5" y1="708.7031" y2="708.7031"/></g><!--class ShortName--><g id="elem_ShortName"><rect codeLine="23" fill="#F1F1F1" height="92.582" id="ShortName" rx="2.5" ry="2.5" style="stroke:#181818;stroke-width:0.5;" width="103" x="1876.5" y="855.6211"/><text fill="#000000" font-family="sans-serif" font-size="12" font-style="italic" lengthAdjust="spacing" textLength="81" x="1887.5" y="883.5703">&#171;value object&#187;</text><text fill="#000000" font-family="sans-serif" font-size="14" lengthAdjust="spacing" textLength="70" x="1893" y="921.6895">ShortName</text><line style="stroke:#181818;stroke-width:0.5;" x1="1877.5" x2="1978.5" y1="940.2031" y2="940.2031"/></g><!--class FullName--><g id="elem_FullName"><rect codeLine="24" fill="#F1F1F1" height="92.582" id="FullName" rx="2.5" ry="2.5" style="stroke:#181818;stroke-width:0.5;" width="103" x="1112.5" y="855.6211"/><text fill="#000000" font-family="sans-serif" font-size="12" font-style="italic" lengthAdjust="spacing" textLength="81" x="1123.5" y="883.5703">&#171;value object&#187;</text><text fill="#000000" font-family="sans-serif" font-size="14" lengthAdjust="spacing" textLength="59" x="1134.5" y="921.6895">FullName</text><line style="stroke:#181818;stroke-width:0.5;" x1="1113.5" x2="1214.5" y1="940.2031" y2="940.2031"/></g><!--class BirthDate--><g id="elem_BirthDate"><rect codeLine="25" fill="#F1F1F1" height="92.582" id="BirthDate" rx="2.5" ry="2.5" style="stroke:#181818;stroke-width:0.5;" width="103" x="1295.5" y="855.6211"/><text fill="#000000" font-family="sans-serif" font-size="12" font-style="italic" lengthAdjust="spacing" textLength="81" x="1306.5" y="883.5703">&#171;value object&#187;</text><text fill="#000000" font-family="sans-serif" font-size="14" lengthAdjust="spacing" textLength="59" x="1317.5" y="921.6895">BirthDate</text><line style="stroke:#181818;stroke-width:0.5;" x1="1296.5" x2="1397.5" y1="940.2031" y2="940.2031"/></g><!--class Email--><g id="elem_Email"><rect codeLine="26" fill="#F1F1F1" height="92.582" id="Email" rx="2.5" ry="2.5" style="stroke:#181818;stroke-width:0.5;" width="103" x="1478.5" y="855.6211"/><text fill="#000000" font-family="sans-serif" font-size="12" font-style="italic" lengthAdjust="spacing" textLength="81" x="1489.5" y="883.5703">&#171;value object&#187;</text><text fill="#000000" font-family="sans-serif" font-size="14" lengthAdjust="spacing" textLength="34" x="1513" y="921.6895">Email</text><line style="stroke:#181818;stroke-width:0.5;" x1="1479.5" x2="1580.5" y1="940.2031" y2="940.2031"/></g><!--class TaxPayerNumber--><g id="elem_TaxPayerNumber"><rect codeLine="27" fill="#F1F1F1" height="92.582" id="TaxPayerNumber" rx="2.5" ry="2.5" style="stroke:#181818;stroke-width:0.5;" width="135" x="1661.5" y="855.6211"/><text fill="#000000" font-family="sans-serif" font-size="12" font-style="italic" lengthAdjust="spacing" textLength="81" x="1688.5" y="883.5703">&#171;value object&#187;</text><text fill="#000000" font-family="sans-serif" font-size="14" lengthAdjust="spacing" textLength="109" x="1674.5" y="921.6895">TaxPayerNumber</text><line style="stroke:#181818;stroke-width:0.5;" x1="1662.5" x2="1795.5" y1="940.2031" y2="940.2031"/></g><!--class Teacher--><g id="elem_Teacher"><rect codeLine="31" fill="#F1F1F1" height="92.582" id="Teacher" rx="2.5" ry="2.5" style="stroke:#181818;stroke-width:0.5;" width="79" x="1404.5" y="354.1211"/><text fill="#000000" font-family="sans-serif" font-size="12" font-style="italic" lengthAdjust="spacing" textLength="35" x="1426.5" y="382.0703">&#171;root&#187;</text><text fill="#000000" font-family="sans-serif" font-size="14" lengthAdjust="spacing" textLength="53" x="1417.5" y="420.1895">Teacher</text><line style="stroke:#181818;stroke-width:0.5;" x1="1405.5" x2="1482.5" y1="438.7031" y2="438.7031"/></g><!--class Acronym--><g id="elem_Acronym"><rect codeLine="34" fill="#F1F1F1" height="92.582" id="Acronym" rx="2.5" ry="2.5" style="stroke:#181818;stroke-width:0.5;" width="103" x="1221.5" y="354.1211"/><text fill="#000000" font-family="sans-serif" font-size="12" font-style="italic" lengthAdjust="spacing" textLength="81" x="1232.5" y="382.0703">&#171;value object&#187;</text><text fill="#000000" font-family="sans-serif" font-size="14" lengthAdjust="spacing" textLength="55" x="1245.5" y="420.1895">Acronym</text><line style="stroke:#181818;stroke-width:0.5;" x1="1222.5" x2="1323.5" y1="438.7031" y2="438.7031"/></g><!--class Student--><g id="elem_Student"><rect codeLine="38" fill="#F1F1F1" height="92.582" id="Student" rx="2.5" ry="2.5" style="stroke:#181818;stroke-width:0.5;" width="75" x="1577.5" y="354.1211"/><text fill="#000000" font-family="sans-serif" font-size="12" font-style="italic" lengthAdjust="spacing" textLength="43" x="1593.5" y="382.0703">&#171;entity&#187;</text><text fill="#000000" font-family="sans-serif" font-size="14" lengthAdjust="spacing" textLength="49" x="1590.5" y="420.1895">Student</text><line style="stroke:#181818;stroke-width:0.5;" x1="1578.5" x2="1651.5" y1="438.7031" y2="438.7031"/></g><!--class MechanographicNumber--><g id="elem_MechanographicNumber"><rect codeLine="41" fill="#F1F1F1" height="92.582" id="MechanographicNumber" rx="2.5" ry="2.5" style="stroke:#181818;stroke-width:0.5;" width="180" x="1540" y="122.6211"/><text fill="#000000" font-family="sans-serif" font-size="12" font-style="italic" lengthAdjust="spacing" textLength="81" x="1589.5" y="150.5703">&#171;value object&#187;</text><text fill="#000000" font-family="sans-serif" font-size="14" lengthAdjust="spacing" textLength="154" x="1553" y="188.6895">MechanographicNumber</text><line style="stroke:#181818;stroke-width:0.5;" x1="1541" x2="1719" y1="207.2031" y2="207.2031"/></g><!--class Board--><g id="elem_Board"><rect codeLine="45" fill="#F1F1F1" height="169.8242" id="Board" rx="2.5" ry="2.5" style="stroke:#181818;stroke-width:0.5;" width="126" x="2036" y="315.6211"/><text fill="#000000" font-family="sans-serif" font-size="12" font-style="italic" lengthAdjust="spacing" textLength="35" x="2081.5" y="343.5703">&#171;root&#187;</text><text fill="#000000" font-family="sans-serif" font-size="14" lengthAdjust="spacing" textLength="38" x="2080" y="381.6895">Board</text><line style="stroke:#181818;stroke-width:0.5;" x1="2037" x2="2161" y1="400.2031" y2="400.2031"/><rect fill="none" height="6" style="stroke:#C82930;stroke-width:1.0;" width="6" x="2044" y="422.0137"/><text fill="#000000" font-family="sans-serif" font-size="14" lengthAdjust="spacing" textLength="80" x="2066" y="429.3105">maxColumns</text><rect fill="none" height="6" style="stroke:#C82930;stroke-width:1.0;" width="6" x="2044" y="460.6348"/><text fill="#000000" font-family="sans-serif" font-size="14" lengthAdjust="spacing" textLength="59" x="2066" y="467.9316">maxRows</text></g><!--class Title--><g id="elem_Title"><rect codeLine="50" fill="#F1F1F1" height="92.582" id="Title" rx="2.5" ry="2.5" style="stroke:#181818;stroke-width:0.5;" width="103" x="2332.5" y="624.1211"/><text fill="#000000" font-family="sans-serif" font-size="12" font-style="italic" lengthAdjust="spacing" textLength="81" x="2343.5" y="652.0703">&#171;value object&#187;</text><text fill="#000000" font-family="sans-serif" font-size="14" lengthAdjust="spacing" textLength="27" x="2370.5" y="690.1895">Title</text><line style="stroke:#181818;stroke-width:0.5;" x1="2333.5" x2="2434.5" y1="708.7031" y2="708.7031"/></g><!--class Column--><g id="elem_Column"><rect codeLine="52" fill="#F1F1F1" height="169.8242" id="Column" rx="2.5" ry="2.5" style="stroke:#181818;stroke-width:0.5;" width="74" x="2516" y="585.6211"/><text fill="#000000" font-family="sans-serif" font-size="12" font-style="italic" lengthAdjust="spacing" textLength="43" x="2531.5" y="613.5703">&#171;entity&#187;</text><text fill="#000000" font-family="sans-serif" font-size="14" lengthAdjust="spacing" textLength="48" x="2529" y="651.6895">Column</text><line style="stroke:#181818;stroke-width:0.5;" x1="2517" x2="2589" y1="670.2031" y2="670.2031"/><rect fill="none" height="6" style="stroke:#C82930;stroke-width:1.0;" width="6" x="2524" y="692.0137"/><text fill="#000000" font-family="sans-serif" font-size="14" lengthAdjust="spacing" textLength="22" x="2546" y="699.3105">title</text><rect fill="none" height="6" style="stroke:#C82930;stroke-width:1.0;" width="6" x="2524" y="730.6348"/><text fill="#000000" font-family="sans-serif" font-size="14" lengthAdjust="spacing" textLength="11" x="2546" y="737.9316">id</text></g><!--class Row--><g id="elem_Row"><rect codeLine="57" fill="#F1F1F1" height="169.8242" id="Row" rx="2.5" ry="2.5" style="stroke:#181818;stroke-width:0.5;" width="68" x="2036" y="585.6211"/><text fill="#000000" font-family="sans-serif" font-size="12" font-style="italic" lengthAdjust="spacing" textLength="43" x="2048.5" y="613.5703">&#171;entity&#187;</text><text fill="#000000" font-family="sans-serif" font-size="14" lengthAdjust="spacing" textLength="27" x="2056.5" y="651.6895">Row</text><line style="stroke:#181818;stroke-width:0.5;" x1="2037" x2="2103" y1="670.2031" y2="670.2031"/><rect fill="none" height="6" style="stroke:#C82930;stroke-width:1.0;" width="6" x="2044" y="692.0137"/><text fill="#000000" font-family="sans-serif" font-size="14" lengthAdjust="spacing" textLength="22" x="2066" y="699.3105">title</text><rect fill="none" height="6" style="stroke:#C82930;stroke-width:1.0;" width="6" x="2044" y="730.6348"/><text fill="#000000" font-family="sans-serif" font-size="14" lengthAdjust="spacing" textLength="11" x="2066" y="737.9316">id</text></g><!--class State--><g id="elem_State"><rect codeLine="62" fill="#F1F1F1" height="92.582" id="State" rx="2.5" ry="2.5" style="stroke:#181818;stroke-width:0.5;" width="68" x="2184" y="624.1211"/><text fill="#000000" font-family="sans-serif" font-size="12" font-style="italic" lengthAdjust="spacing" textLength="46" x="2195" y="652.0703">&#171;enum&#187;</text><text fill="#000000" font-family="sans-serif" font-size="14" lengthAdjust="spacing" textLength="33" x="2201.5" y="690.1895">State</text><line style="stroke:#181818;stroke-width:0.5;" x1="2185" x2="2251" y1="708.7031" y2="708.7031"/></g><g id="elem_GMN21"><path d="M2174,869.6211 L2174,934.2031 A0,0 0 0 0 2174,934.2031 L2262,934.2031 A0,0 0 0 0 2262,934.2031 L2262,879.6211 L2252,869.6211 L2222,869.6211 L2218,717.1911 L2214,869.6211 L2174,869.6211 A0,0 0 0 0 2174,869.6211 " fill="#A9A9A9" style="stroke:#181818;stroke-width:0.5;"/><path d="M2252,869.6211 L2252,879.6211 L2262,879.6211 L2252,869.6211 " fill="#A9A9A9" style="stroke:#181818;stroke-width:0.5;"/><text fill="#000000" font-family="sans-serif" font-size="13" lengthAdjust="spacing" textLength="33" x="2190" y="898.6494">active</text><text fill="#000000" font-family="sans-serif" font-size="13" lengthAdjust="spacing" textLength="47" x="2190" y="915.9404">archived</text></g><!--class Update--><g id="elem_Update"><rect codeLine="71" fill="#F1F1F1" height="131.2031" id="Update" rx="2.5" ry="2.5" style="stroke:#181818;stroke-width:0.5;" width="110" x="456" y="335.1211"/><text fill="#000000" font-family="sans-serif" font-size="12" font-style="italic" lengthAdjust="spacing" textLength="35" x="493.5" y="363.0703">&#171;root&#187;</text><text fill="#000000" font-family="sans-serif" font-size="14" lengthAdjust="spacing" textLength="45" x="488.5" y="401.1895">Update</text><line style="stroke:#181818;stroke-width:0.5;" x1="457" x2="565" y1="419.7031" y2="419.7031"/><rect fill="none" height="6" style="stroke:#C82930;stroke-width:1.0;" width="6" x="464" y="441.5137"/><text fill="#000000" font-family="sans-serif" font-size="14" lengthAdjust="spacing" textLength="64" x="486" y="448.8105">timestamp</text></g><!--class BoardUpdate--><g id="elem_BoardUpdate"><rect codeLine="77" fill="#F1F1F1" height="92.582" id="BoardUpdate" rx="2.5" ry="2.5" style="stroke:#181818;stroke-width:0.5;" width="109" x="246.5" y="624.1211"/><text fill="#000000" font-family="sans-serif" font-size="12" font-style="italic" lengthAdjust="spacing" textLength="43" x="279.5" y="652.0703">&#171;entity&#187;</text><text fill="#000000" font-family="sans-serif" font-size="14" lengthAdjust="spacing" textLength="83" x="259.5" y="690.1895">BoardUpdate</text><line style="stroke:#181818;stroke-width:0.5;" x1="247.5" x2="354.5" y1="708.7031" y2="708.7031"/></g><!--class CellUpdate--><g id="elem_CellUpdate"><rect codeLine="79" fill="#F1F1F1" height="92.582" id="CellUpdate" rx="2.5" ry="2.5" style="stroke:#181818;stroke-width:0.5;" width="95" x="467.5" y="624.1211"/><text fill="#000000" font-family="sans-serif" font-size="12" font-style="italic" lengthAdjust="spacing" textLength="43" x="493.5" y="652.0703">&#171;entity&#187;</text><text fill="#000000" font-family="sans-serif" font-size="14" lengthAdjust="spacing" textLength="69" x="480.5" y="690.1895">CellUpdate</text><line style="stroke:#181818;stroke-width:0.5;" x1="468.5" x2="561.5" y1="708.7031" y2="708.7031"/></g><!--class BoardUpdateType--><g id="elem_BoardUpdateType"><rect codeLine="81" fill="#F1F1F1" height="92.582" id="BoardUpdateType" rx="2.5" ry="2.5" style="stroke:#181818;stroke-width:0.5;" width="141" x="22.5" y="855.6211"/><text fill="#000000" font-family="sans-serif" font-size="12" font-style="italic" lengthAdjust="spacing" textLength="46" x="70" y="883.5703">&#171;enum&#187;</text><text fill="#000000" font-family="sans-serif" font-size="14" lengthAdjust="spacing" textLength="115" x="35.5" y="921.6895">BoardUpdateType</text><line style="stroke:#181818;stroke-width:0.5;" x1="23.5" x2="162.5" y1="940.2031" y2="940.2031"/></g><!--class CellUpdateType--><g id="elem_CellUpdateType"><rect codeLine="83" fill="#F1F1F1" height="92.582" id="CellUpdateType" rx="2.5" ry="2.5" style="stroke:#181818;stroke-width:0.5;" width="127" x="438.5" y="855.6211"/><text fill="#000000" font-family="sans-serif" font-size="12" font-style="italic" lengthAdjust="spacing" textLength="46" x="479" y="883.5703">&#171;enum&#187;</text><text fill="#000000" font-family="sans-serif" font-size="14" lengthAdjust="spacing" textLength="101" x="451.5" y="921.6895">CellUpdateType</text><line style="stroke:#181818;stroke-width:0.5;" x1="439.5" x2="564.5" y1="940.2031" y2="940.2031"/></g><!--class BoardChange--><g id="elem_BoardChange"><rect codeLine="85" fill="#F1F1F1" height="92.582" id="BoardChange" rx="2.5" ry="2.5" style="stroke:#181818;stroke-width:0.5;" width="114" x="244" y="855.6211"/><text fill="#000000" font-family="sans-serif" font-size="12" font-style="italic" lengthAdjust="spacing" textLength="81" x="260.5" y="883.5703">&#171;value object&#187;</text><text fill="#000000" font-family="sans-serif" font-size="14" lengthAdjust="spacing" textLength="88" x="257" y="921.6895">BoardChange</text><line style="stroke:#181818;stroke-width:0.5;" x1="245" x2="357" y1="940.2031" y2="940.2031"/></g><!--class PostIt--><g id="elem_PostIt"><rect codeLine="90" fill="#F1F1F1" height="92.582" id="PostIt" rx="2.5" ry="2.5" style="stroke:#181818;stroke-width:0.5;" width="61" x="808.5" y="855.6211"/><text fill="#000000" font-family="sans-serif" font-size="12" font-style="italic" lengthAdjust="spacing" textLength="35" x="821.5" y="883.5703">&#171;root&#187;</text><text fill="#000000" font-family="sans-serif" font-size="14" lengthAdjust="spacing" textLength="35" x="821.5" y="921.6895">PostIt</text><line style="stroke:#181818;stroke-width:0.5;" x1="809.5" x2="868.5" y1="940.2031" y2="940.2031"/></g><!--class ContentType--><g id="elem_ContentType"><rect codeLine="92" fill="#F1F1F1" height="92.582" id="ContentType" rx="2.5" ry="2.5" style="stroke:#181818;stroke-width:0.5;" width="108" x="785" y="1279.6211"/><text fill="#000000" font-family="sans-serif" font-size="12" font-style="italic" lengthAdjust="spacing" textLength="46" x="816" y="1307.5703">&#171;enum&#187;</text><text fill="#000000" font-family="sans-serif" font-size="14" lengthAdjust="spacing" textLength="82" x="798" y="1345.6895">ContentType</text><line style="stroke:#181818;stroke-width:0.5;" x1="786" x2="892" y1="1364.2031" y2="1364.2031"/></g><g id="elem_GMN34"><path d="M801,1472.6211 L801,1537.2031 A0,0 0 0 0 801,1537.2031 L877,1537.2031 A0,0 0 0 0 877,1537.2031 L877,1482.6211 L867,1472.6211 L843,1472.6211 L839,1372.6811 L835,1472.6211 L801,1472.6211 A0,0 0 0 0 801,1472.6211 " fill="#A9A9A9" style="stroke:#181818;stroke-width:0.5;"/><path d="M867,1472.6211 L867,1482.6211 L877,1482.6211 L867,1472.6211 " fill="#A9A9A9" style="stroke:#181818;stroke-width:0.5;"/><text fill="#000000" font-family="sans-serif" font-size="13" lengthAdjust="spacing" textLength="22" x="817" y="1501.6494">text</text><text fill="#000000" font-family="sans-serif" font-size="13" lengthAdjust="spacing" textLength="35" x="817" y="1518.9404">image</text></g><!--class Content--><g id="elem_Content"><rect codeLine="99" fill="#F1F1F1" height="131.2031" id="Content" rx="2.5" ry="2.5" style="stroke:#181818;stroke-width:0.5;" width="110" x="784" y="1048.6211"/><text fill="#000000" font-family="sans-serif" font-size="12" font-style="italic" lengthAdjust="spacing" textLength="81" x="798.5" y="1076.5703">&#171;value object&#187;</text><text fill="#000000" font-family="sans-serif" font-size="14" lengthAdjust="spacing" textLength="50" x="814" y="1114.6895">Content</text><line style="stroke:#181818;stroke-width:0.5;" x1="785" x2="893" y1="1133.2031" y2="1133.2031"/><rect fill="none" height="6" style="stroke:#C82930;stroke-width:1.0;" width="6" x="792" y="1155.0137"/><text fill="#000000" font-family="sans-serif" font-size="14" lengthAdjust="spacing" textLength="64" x="814" y="1162.3105">timestamp</text></g><!--class BoardShare--><g id="elem_BoardShare"><rect codeLine="105" fill="#F1F1F1" height="92.582" id="BoardShare" rx="2.5" ry="2.5" style="stroke:#181818;stroke-width:0.5;" width="102" x="2670" y="354.1211"/><text fill="#000000" font-family="sans-serif" font-size="12" font-style="italic" lengthAdjust="spacing" textLength="35" x="2703.5" y="382.0703">&#171;root&#187;</text><text fill="#000000" font-family="sans-serif" font-size="14" lengthAdjust="spacing" textLength="76" x="2683" y="420.1895">BoardShare</text><line style="stroke:#181818;stroke-width:0.5;" x1="2671" x2="2771" y1="438.7031" y2="438.7031"/></g><!--class UserPermission--><g id="elem_UserPermission"><rect codeLine="107" fill="#F1F1F1" height="92.582" id="UserPermission" rx="2.5" ry="2.5" style="stroke:#181818;stroke-width:0.5;" width="124" x="2670" y="624.1211"/><text fill="#000000" font-family="sans-serif" font-size="12" font-style="italic" lengthAdjust="spacing" textLength="46" x="2709" y="652.0703">&#171;enum&#187;</text><text fill="#000000" font-family="sans-serif" font-size="14" lengthAdjust="spacing" textLength="98" x="2683" y="690.1895">UserPermission</text><line style="stroke:#181818;stroke-width:0.5;" x1="2671" x2="2793" y1="708.7031" y2="708.7031"/></g><g id="elem_GMN41"><path d="M2698,869.6211 L2698,934.2031 A0,0 0 0 0 2698,934.2031 L2766,934.2031 A0,0 0 0 0 2766,934.2031 L2766,879.6211 L2756,869.6211 L2736,869.6211 L2732,717.1911 L2728,869.6211 L2698,869.6211 A0,0 0 0 0 2698,869.6211 " fill="#A9A9A9" style="stroke:#181818;stroke-width:0.5;"/><path d="M2756,869.6211 L2756,879.6211 L2766,879.6211 L2756,869.6211 " fill="#A9A9A9" style="stroke:#181818;stroke-width:0.5;"/><text fill="#000000" font-family="sans-serif" font-size="13" lengthAdjust="spacing" textLength="25" x="2714" y="898.6494">read</text><text fill="#000000" font-family="sans-serif" font-size="13" lengthAdjust="spacing" textLength="27" x="2714" y="915.9404">write</text></g><!--reverse link MechanographicNumber to Student--><g id="link_MechanographicNumber_Student"><path codeLine="116" d="M1615,220.6911 C1615,220.6911 1615,353.7311 1615,353.7311 " fill="none" id="MechanographicNumber-backto-Student" style="stroke:#181818;stroke-width:1.0;"/><polygon fill="#181818" points="1615,215.6911,1611,224.6911,1615,220.6911,1619,224.6911,1615,215.6911" style="stroke:#181818;stroke-width:1.0;"/><text fill="#000000" font-family="sans-serif" font-size="13" lengthAdjust="spacing" textLength="21" x="1583" y="273.2394">has</text></g><!--link Teacher to eCourseUser--><g id="link_Teacher_eCourseUser"><path codeLine="118" d="M1480.83,447.3411 C1480.83,447.3411 1480.83,604.0211 1480.83,604.0211 " fill="none" id="Teacher-to-eCourseUser" style="stroke:#181818;stroke-width:1.0;"/><polygon fill="none" points="1487.83,604.0211,1480.83,624.0211,1473.83,604.0211,1487.83,604.0211" style="stroke:#181818;stroke-width:1.0;"/><text fill="#000000" font-family="sans-serif" font-size="13" lengthAdjust="spacing" textLength="21" x="1448.83" y="511.7094">is a</text></g><!--link Student to eCourseUser--><g id="link_Student_eCourseUser"><path codeLine="119" d="M1578.67,447.3411 C1578.67,447.3411 1578.67,604.0211 1578.67,604.0211 " fill="none" id="Student-to-eCourseUser" style="stroke:#181818;stroke-width:1.0;"/><polygon fill="none" points="1585.67,604.0211,1578.67,624.0211,1571.67,604.0211,1585.67,604.0211" style="stroke:#181818;stroke-width:1.0;"/><text fill="#000000" font-family="sans-serif" font-size="13" lengthAdjust="spacing" textLength="21" x="1546.67" y="511.7094">is a</text></g><!--link eCourseUser to ShortName--><g id="link_eCourseUser_ShortName"><path codeLine="121" d="M1584.51,655.6211 C1693.51,655.6211 1928,655.6211 1928,655.6211 C1928,655.6211 1928,850.4711 1928,850.4711 " fill="none" id="eCourseUser-to-ShortName" style="stroke:#181818;stroke-width:1.0;"/><polygon fill="#181818" points="1928,855.4711,1932,846.4711,1928,850.4711,1924,846.4711,1928,855.4711" style="stroke:#181818;stroke-width:1.0;"/><text fill="#000000" font-family="sans-serif" font-size="13" lengthAdjust="spacing" textLength="21" x="1821.68" y="641.6494">has</text></g><!--link eCourseUser to FullName--><g id="link_eCourseUser_FullName"><path codeLine="122" d="M1475.21,670.6211 C1373.1,670.6211 1164,670.6211 1164,670.6211 C1164,670.6211 1164,850.5511 1164,850.5511 " fill="none" id="eCourseUser-to-FullName" style="stroke:#181818;stroke-width:1.0;"/><polygon fill="#181818" points="1164,855.5511,1168,846.5511,1164,850.5511,1160,846.5511,1164,855.5511" style="stroke:#181818;stroke-width:1.0;"/><text fill="#000000" font-family="sans-serif" font-size="13" lengthAdjust="spacing" textLength="21" x="1197.64" y="656.6494">has</text></g><!--link eCourseUser to BirthDate--><g id="link_eCourseUser_BirthDate"><path codeLine="123" d="M1475.29,705.6211 C1426.09,705.6211 1361.5,705.6211 1361.5,705.6211 C1361.5,705.6211 1361.5,850.5511 1361.5,850.5511 " fill="none" id="eCourseUser-to-BirthDate" style="stroke:#181818;stroke-width:1.0;"/><polygon fill="#181818" points="1361.5,855.5511,1365.5,846.5511,1361.5,850.5511,1357.5,846.5511,1361.5,855.5511" style="stroke:#181818;stroke-width:1.0;"/><text fill="#000000" font-family="sans-serif" font-size="13" lengthAdjust="spacing" textLength="21" x="1329.5" y="707.2194">has</text></g><!--link eCourseUser to Email--><g id="link_eCourseUser_Email"><path codeLine="124" d="M1530,717.1911 C1530,717.1911 1530,850.2311 1530,850.2311 " fill="none" id="eCourseUser-to-Email" style="stroke:#181818;stroke-width:1.0;"/><polygon fill="#181818" points="1530,855.2311,1534,846.2311,1530,850.2311,1526,846.2311,1530,855.2311" style="stroke:#181818;stroke-width:1.0;"/><text fill="#000000" font-family="sans-serif" font-size="13" lengthAdjust="spacing" textLength="21" x="1498" y="769.7394">has</text></g><!--link eCourseUser to TaxPayerNumber--><g id="link_eCourseUser_TaxPayerNumber"><path codeLine="125" d="M1584.87,686.6211 C1631.44,686.6211 1690.75,686.6211 1690.75,686.6211 C1690.75,686.6211 1690.75,850.3611 1690.75,850.3611 " fill="none" id="eCourseUser-to-TaxPayerNumber" style="stroke:#181818;stroke-width:1.0;"/><polygon fill="#181818" points="1690.75,855.3611,1694.75,846.3611,1690.75,850.3611,1686.75,846.3611,1690.75,855.3611" style="stroke:#181818;stroke-width:1.0;"/><text fill="#000000" font-family="sans-serif" font-size="13" lengthAdjust="spacing" textLength="21" x="1658.75" y="701.5794">has</text></g><!--link eCourseUser to Board--><g id="link_eCourseUser_Board"><path codeLine="126" d="M1579.83,624.1011 C1579.83,561.6911 1579.83,458.6211 1579.83,458.6211 C1579.83,458.6211 2030.86,458.6211 2030.86,458.6211 " fill="none" id="eCourseUser-to-Board" style="stroke:#181818;stroke-width:1.0;stroke-dasharray:7.0,7.0;"/><polygon fill="#181818" points="2035.86,458.6211,2026.86,454.6211,2030.86,458.6211,2026.86,462.6211,2035.86,458.6211" style="stroke:#181818;stroke-width:1.0;"/><text fill="#000000" font-family="sans-serif" font-size="13" lengthAdjust="spacing" textLength="40" x="1671.61" y="444.6494">archive</text></g><!--link Board to eCourseUser--><g id="link_Board_eCourseUser"><path codeLine="135" d="M2035.77,481.6211 C1898.07,481.6211 1583.33,481.6211 1583.33,481.6211 C1583.33,481.6211 1583.33,618.9011 1583.33,618.9011 " fill="none" id="Board-to-eCourseUser" style="stroke:#181818;stroke-width:1.0;"/><polygon fill="#181818" points="1583.33,623.9011,1587.33,614.9011,1583.33,618.9011,1579.33,614.9011,1583.33,623.9011" style="stroke:#181818;stroke-width:1.0;"/><text fill="#000000" font-family="sans-serif" font-size="13" lengthAdjust="spacing" textLength="55" x="1674.91" y="506.6494">owned by</text></g><!--link Board to eCourseUser--><g id="link_Board_eCourseUser"><path codeLine="138" d="M2035.88,476.6211 C1898.01,476.6211 1582.17,476.6211 1582.17,476.6211 C1582.17,476.6211 1582.17,618.6611 1582.17,618.6611 " fill="none" id="Board-to-eCourseUser-1" style="stroke:#181818;stroke-width:1.0;stroke-dasharray:7.0,7.0;"/><polygon fill="#181818" points="1582.17,623.6611,1586.17,614.6611,1582.17,618.6611,1578.17,614.6611,1582.17,623.6611" style="stroke:#181818;stroke-width:1.0;"/><text fill="#000000" font-family="sans-serif" font-size="13" lengthAdjust="spacing" textLength="61" x="1749.01" y="462.6494">created by</text></g><!--link Board to eCourseUser--><g id="link_Board_eCourseUser"><path codeLine="139" d="M2035.74,462.6211 C1897.56,462.6211 1581,462.6211 1581,462.6211 C1581,462.6211 1581,618.9411 1581,618.9411 " fill="none" id="Board-to-eCourseUser-2" style="stroke:#181818;stroke-width:1.0;stroke-dasharray:7.0,7.0;"/><polygon fill="#181818" points="1581,623.9411,1585,614.9411,1581,618.9411,1577,614.9411,1581,623.9411" style="stroke:#181818;stroke-width:1.0;"/><text fill="#000000" font-family="sans-serif" font-size="13" lengthAdjust="spacing" textLength="56" x="1663.21" y="487.6494">viewed by</text></g><!--link eCourseUser to BoardShare--><g id="link_eCourseUser_BoardShare"><path codeLine="127" d="M1565,623.9811 C1565,591.0011 1565,552.6211 1565,552.6211 C1565,552.6211 2721,552.6211 2721,552.6211 C2721,552.6211 2721,452.4711 2721,452.4711 " fill="none" id="eCourseUser-to-BoardShare" style="stroke:#181818;stroke-width:1.0;stroke-dasharray:7.0,7.0;"/><polygon fill="#181818" points="2721,447.4711,2717,456.4711,2721,452.4711,2725,456.4711,2721,447.4711" style="stroke:#181818;stroke-width:1.0;"/><text fill="#000000" font-family="sans-serif" font-size="13" lengthAdjust="spacing" textLength="36" x="2168.4" y="538.6494">create</text></g><!--link BoardShare to eCourseUser--><g id="link_BoardShare_eCourseUser"><path codeLine="157" d="M2695.5,447.3111 C2695.5,480.6511 2695.5,519.6211 2695.5,519.6211 C2695.5,519.6211 1552.5,519.6211 1552.5,519.6211 C1552.5,519.6211 1552.5,619.0811 1552.5,619.0811 " fill="none" id="BoardShare-to-eCourseUser" style="stroke:#181818;stroke-width:1.0;"/><polygon fill="#181818" points="1552.5,624.0811,1556.5,615.0811,1552.5,619.0811,1548.5,615.0811,1552.5,624.0811" style="stroke:#181818;stroke-width:1.0;"/><text fill="#000000" font-family="sans-serif" font-size="13" lengthAdjust="spacing" textLength="21" x="2121.42" y="544.6494">has</text></g><!--link eCourseUser to PostIt--><g id="link_eCourseUser_PostIt"><path codeLine="128" d="M1475.4,636.6211 C1313.14,636.6211 845.1,636.6211 845.1,636.6211 C845.1,636.6211 845.1,850.5711 845.1,850.5711 " fill="none" id="eCourseUser-to-PostIt" style="stroke:#181818;stroke-width:1.0;stroke-dasharray:7.0,7.0;"/><polygon fill="#181818" points="845.1,855.5711,849.1,846.5711,845.1,850.5711,841.1,846.5711,845.1,855.5711" style="stroke:#181818;stroke-width:1.0;"/><text fill="#000000" font-family="sans-serif" font-size="13" lengthAdjust="spacing" textLength="36" x="1006.27" y="622.6494">create</text></g><!--link eCourseUser to PostIt--><g id="link_eCourseUser_PostIt"><path codeLine="129" d="M1475.24,647.6211 C1314.83,647.6211 857.3,647.6211 857.3,647.6211 C857.3,647.6211 857.3,850.4411 857.3,850.4411 " fill="none" id="eCourseUser-to-PostIt-1" style="stroke:#181818;stroke-width:1.0;stroke-dasharray:7.0,7.0;"/><polygon fill="#181818" points="857.3,855.4411,861.3,846.4411,857.3,850.4411,853.3,846.4411,857.3,855.4411" style="stroke:#181818;stroke-width:1.0;"/><text fill="#000000" font-family="sans-serif" font-size="13" lengthAdjust="spacing" textLength="39" x="1014.86" y="672.6494">update</text></g><!--link Board to Title--><g id="link_Board_Title"><path codeLine="131" d="M2162.25,460.6211 C2246.21,460.6211 2384,460.6211 2384,460.6211 C2384,460.6211 2384,619.0111 2384,619.0111 " fill="none" id="Board-to-Title" style="stroke:#181818;stroke-width:1.0;"/><polygon fill="#181818" points="2384,624.0111,2388,615.0111,2384,619.0111,2380,615.0111,2384,624.0111" style="stroke:#181818;stroke-width:1.0;"/><text fill="#000000" font-family="sans-serif" font-size="13" lengthAdjust="spacing" textLength="21" x="2320.32" y="446.6494">has</text></g><!--link Board to PostIt--><g id="link_Board_PostIt"><path codeLine="132" d="M2035.78,471.6211 C1779.67,471.6211 832.9,471.6211 832.9,471.6211 C832.9,471.6211 832.9,850.2311 832.9,850.2311 " fill="none" id="Board-to-PostIt" style="stroke:#181818;stroke-width:1.0;"/><polygon fill="#181818" points="832.9,855.2311,836.9,846.2311,832.9,850.2311,828.9,846.2311,832.9,855.2311" style="stroke:#181818;stroke-width:1.0;"/><text fill="#000000" font-family="sans-serif" font-size="13" lengthAdjust="spacing" textLength="21" x="1213.04" y="496.6494">has</text><text fill="#000000" font-family="sans-serif" font-size="13" lengthAdjust="spacing" textLength="5" x="815.6331" y="834.3332">*</text></g><!--link Board to Column--><g id="link_Board_Column"><path codeLine="133" d="M2133,485.7811 C2133,542.1011 2133,605.6211 2133,605.6211 C2133,605.6211 2510.73,605.6211 2510.73,605.6211 " fill="none" id="Board-to-Column" style="stroke:#181818;stroke-width:1.0;"/><polygon fill="#181818" points="2515.73,605.6211,2506.73,601.6211,2510.73,605.6211,2506.73,609.6211,2515.73,605.6211" style="stroke:#181818;stroke-width:1.0;"/><text fill="#000000" font-family="sans-serif" font-size="13" lengthAdjust="spacing" textLength="21" x="2229.94" y="591.6494">has</text><text fill="#000000" font-family="sans-serif" font-size="13" lengthAdjust="spacing" textLength="5" x="2493.109" y="579.8992">*</text></g><!--link Board to Row--><g id="link_Board_Row"><path codeLine="134" d="M2070,485.6811 C2070,485.6811 2070,580.5211 2070,580.5211 " fill="none" id="Board-to-Row" style="stroke:#181818;stroke-width:1.0;"/><polygon fill="#181818" points="2070,585.5211,2074,576.5211,2070,580.5211,2066,576.5211,2070,585.5211" style="stroke:#181818;stroke-width:1.0;"/><text fill="#000000" font-family="sans-serif" font-size="13" lengthAdjust="spacing" textLength="21" x="2038" y="519.1294">has</text><text fill="#000000" font-family="sans-serif" font-size="13" lengthAdjust="spacing" textLength="5" x="2054.0039" y="564.3124">*</text></g><!--link Board to State--><g id="link_Board_State"><path codeLine="136" d="M2162.33,473.6211 C2190.75,473.6211 2218,473.6211 2218,473.6211 C2218,473.6211 2218,618.9311 2218,618.9311 " fill="none" id="Board-to-State" style="stroke:#181818;stroke-width:1.0;"/><polygon fill="#181818" points="2218,623.9311,2222,614.9311,2218,618.9311,2214,614.9311,2218,623.9311" style="stroke:#181818;stroke-width:1.0;"/><text fill="#000000" font-family="sans-serif" font-size="13" lengthAdjust="spacing" textLength="21" x="2229" y="504.4694">has</text></g><!--link Board to BoardShare--><g id="link_Board_BoardShare"><path codeLine="137" d="M2162.06,416.6211 C2162.06,416.6211 2664.77,416.6211 2664.77,416.6211 " fill="none" id="Board-to-BoardShare" style="stroke:#181818;stroke-width:1.0;stroke-dasharray:7.0,7.0;"/><polygon fill="#181818" points="2669.77,416.6211,2660.77,412.6211,2664.77,416.6211,2660.77,420.6211,2669.77,416.6211" style="stroke:#181818;stroke-width:1.0;"/><text fill="#000000" font-family="sans-serif" font-size="13" lengthAdjust="spacing" textLength="70" x="2332.42" y="402.6494">notifies user</text></g><!--link BoardShare to Board--><g id="link_BoardShare_Board"><path codeLine="156" d="M2669.83,385.6211 C2669.83,385.6211 2167.43,385.6211 2167.43,385.6211 " fill="none" id="BoardShare-to-Board" style="stroke:#181818;stroke-width:1.0;"/><polygon fill="#181818" points="2162.43,385.6211,2171.43,389.6211,2167.43,385.6211,2171.43,381.6211,2162.43,385.6211" style="stroke:#181818;stroke-width:1.0;"/><text fill="#000000" font-family="sans-serif" font-size="13" lengthAdjust="spacing" textLength="39" x="2429.63" y="371.6494">shares</text><text fill="#000000" font-family="sans-serif" font-size="13" lengthAdjust="spacing" textLength="9" x="2642.8265" y="368.6098">N</text><text fill="#000000" font-family="sans-serif" font-size="13" lengthAdjust="spacing" textLength="7" x="2180.0028" y="369.3747">1</text></g><!--link PostIt to Content--><g id="link_PostIt_Content"><path codeLine="141" d="M839,948.6411 C839,948.6411 839,1043.4011 839,1043.4011 " fill="none" id="PostIt-to-Content" style="stroke:#181818;stroke-width:1.0;"/><polygon fill="#181818" points="839,1048.4011,843,1039.4011,839,1043.4011,835,1039.4011,839,1048.4011" style="stroke:#181818;stroke-width:1.0;"/><text fill="#000000" font-family="sans-serif" font-size="13" lengthAdjust="spacing" textLength="21" x="807" y="982.0494">has</text></g><!--link Content to ContentType--><g id="link_Content_ContentType"><path codeLine="142" d="M839,1179.7511 C839,1179.7511 839,1274.2911 839,1274.2911 " fill="none" id="Content-to-ContentType" style="stroke:#181818;stroke-width:1.0;"/><polygon fill="#181818" points="839,1279.2911,843,1270.2911,839,1274.2911,835,1270.2911,839,1279.2911" style="stroke:#181818;stroke-width:1.0;"/><text fill="#000000" font-family="sans-serif" font-size="13" lengthAdjust="spacing" textLength="21" x="807" y="1213.0494">has</text></g><!--link Content to eCourseUser--><g id="link_Content_eCourseUser"><path codeLine="143" d="M881.75,1048.5211 C881.75,922.6511 881.75,659.6211 881.75,659.6211 C881.75,659.6211 1470.29,659.6211 1470.29,659.6211 " fill="none" id="Content-to-eCourseUser" style="stroke:#181818;stroke-width:1.0;"/><polygon fill="#181818" points="1475.29,659.6211,1466.29,655.6211,1470.29,659.6211,1466.29,663.6211,1475.29,659.6211" style="stroke:#181818;stroke-width:1.0;"/><text fill="#000000" font-family="sans-serif" font-size="13" lengthAdjust="spacing" textLength="61" x="909.57" y="645.6494">created by</text><text fill="#000000" font-family="sans-serif" font-size="13" lengthAdjust="spacing" textLength="9" x="865.5309" y="1027.2751">N</text><text fill="#000000" font-family="sans-serif" font-size="13" lengthAdjust="spacing" textLength="7" x="1450.4032" y="643.2795">1</text></g><!--link Board to Update--><g id="link_Board_Update"><path codeLine="145" d="M2035.77,451.6211 C2035.77,451.6211 571.02,451.6211 571.02,451.6211 " fill="none" id="Board-to-Update" style="stroke:#181818;stroke-width:1.0;"/><polygon fill="#181818" points="566.02,451.6211,575.02,455.6211,571.02,451.6211,575.02,447.6211,566.02,451.6211" style="stroke:#181818;stroke-width:1.0;"/><text fill="#000000" font-family="sans-serif" font-size="13" lengthAdjust="spacing" textLength="21" x="1271.39" y="476.6494">has</text><text fill="#000000" font-family="sans-serif" font-size="13" lengthAdjust="spacing" textLength="5" x="583.827" y="442.4123">*</text></g><!--reverse link Update to CellUpdate--><g id="link_Update_CellUpdate"><path codeLine="146" d="M515,486.3211 C515,486.3211 515,623.7511 515,623.7511 " fill="none" id="Update-backto-CellUpdate" style="stroke:#181818;stroke-width:1.0;"/><polygon fill="none" points="508,486.3211,515,466.3211,522,486.3211,508,486.3211" style="stroke:#181818;stroke-width:1.0;"/><text fill="#000000" font-family="sans-serif" font-size="13" lengthAdjust="spacing" textLength="21" x="483" y="541.0694">is a</text></g><!--reverse link Update to BoardUpdate--><g id="link_Update_BoardUpdate"><path codeLine="147" d="M461.75,486.3211 C461.75,486.3211 461.75,670.6211 461.75,670.6211 C461.75,670.6211 402.44,670.6211 355.87,670.6211 " fill="none" id="Update-backto-BoardUpdate" style="stroke:#181818;stroke-width:1.0;"/><polygon fill="none" points="454.75,486.3211,461.75,466.3211,468.75,486.3211,454.75,486.3211" style="stroke:#181818;stroke-width:1.0;"/><text fill="#000000" font-family="sans-serif" font-size="13" lengthAdjust="spacing" textLength="21" x="429.75" y="617.4394">is a</text></g><!--link Update to eCourseUser--><g id="link_Update_eCourseUser"><path codeLine="148" d="M566.12,455.6211 C771.18,455.6211 1478.17,455.6211 1478.17,455.6211 C1478.17,455.6211 1478.17,618.9711 1478.17,618.9711 " fill="none" id="Update-to-eCourseUser" style="stroke:#181818;stroke-width:1.0;"/><polygon fill="#181818" points="1478.17,623.9711,1482.17,614.9711,1478.17,618.9711,1474.17,614.9711,1478.17,623.9711" style="stroke:#181818;stroke-width:1.0;"/><text fill="#000000" font-family="sans-serif" font-size="13" lengthAdjust="spacing" textLength="64" x="1028.82" y="441.6494">is made by</text></g><!--link CellUpdate to CellUpdateType--><g id="link_CellUpdate_CellUpdateType"><path codeLine="150" d="M515,717.1911 C515,717.1911 515,850.2311 515,850.2311 " fill="none" id="CellUpdate-to-CellUpdateType" style="stroke:#181818;stroke-width:1.0;"/><polygon fill="#181818" points="515,855.2311,519,846.2311,515,850.2311,511,846.2311,515,855.2311" style="stroke:#181818;stroke-width:1.0;"/><text fill="#000000" font-family="sans-serif" font-size="13" lengthAdjust="spacing" textLength="21" x="483" y="769.7394">has</text></g><!--link BoardUpdate to BoardUpdateType--><g id="link_BoardUpdate_BoardUpdateType"><path codeLine="151" d="M246.35,670.6211 C184.72,670.6211 93,670.6211 93,670.6211 C93,670.6211 93,850.5511 93,850.5511 " fill="none" id="BoardUpdate-to-BoardUpdateType" style="stroke:#181818;stroke-width:1.0;"/><polygon fill="#181818" points="93,855.5511,97,846.5511,93,850.5511,89,846.5511,93,855.5511" style="stroke:#181818;stroke-width:1.0;"/><text fill="#000000" font-family="sans-serif" font-size="13" lengthAdjust="spacing" textLength="21" x="61" y="669.9394">has</text></g><!--link BoardUpdate to BoardChange--><g id="link_BoardUpdate_BoardChange"><path codeLine="152" d="M301,717.1911 C301,717.1911 301,850.2311 301,850.2311 " fill="none" id="BoardUpdate-to-BoardChange" style="stroke:#181818;stroke-width:1.0;"/><polygon fill="#181818" points="301,855.2311,305,846.2311,301,850.2311,297,846.2311,301,855.2311" style="stroke:#181818;stroke-width:1.0;"/><text fill="#000000" font-family="sans-serif" font-size="13" lengthAdjust="spacing" textLength="21" x="269" y="769.7394">has</text></g><!--link CellUpdate to PostIt--><g id="link_CellUpdate_PostIt"><path codeLine="153" d="M562.77,682.6211 C648.74,682.6211 820.7,682.6211 820.7,682.6211 C820.7,682.6211 820.7,850.5711 820.7,850.5711 " fill="none" id="CellUpdate-to-PostIt" style="stroke:#181818;stroke-width:1.0;"/><polygon fill="#181818" points="820.7,855.5711,824.7,846.5711,820.7,850.5711,816.7,846.5711,820.7,855.5711" style="stroke:#181818;stroke-width:1.0;"/><text fill="#000000" font-family="sans-serif" font-size="13" lengthAdjust="spacing" textLength="69" x="695.71" y="668.6494">is relative to</text></g><!--link CellUpdate to Content--><g id="link_CellUpdate_Content"><path codeLine="154" d="M562.71,694.6211 C642.95,694.6211 796.25,694.6211 796.25,694.6211 C796.25,694.6211 796.25,1043.5711 796.25,1043.5711 " fill="none" id="CellUpdate-to-Content" style="stroke:#181818;stroke-width:1.0;"/><polygon fill="#181818" points="796.25,1048.5711,800.25,1039.5711,796.25,1043.5711,792.25,1039.5711,796.25,1048.5711" style="stroke:#181818;stroke-width:1.0;"/><text fill="#000000" font-family="sans-serif" font-size="13" lengthAdjust="spacing" textLength="21" x="764.25" y="738.3594">has</text></g><!--link BoardShare to UserPermission--><g id="link_BoardShare_UserPermission"><path codeLine="158" d="M2746.5,447.3411 C2746.5,447.3411 2746.5,619.0211 2746.5,619.0211 " fill="none" id="BoardShare-to-UserPermission" style="stroke:#181818;stroke-width:1.0;"/><polygon fill="#181818" points="2746.5,624.0211,2750.5,615.0211,2746.5,619.0211,2742.5,615.0211,2746.5,624.0211" style="stroke:#181818;stroke-width:1.0;"/><text fill="#000000" font-family="sans-serif" font-size="13" lengthAdjust="spacing" textLength="21" x="2714.5" y="519.2094">has</text></g><!--SRC=[dLVTRfim5BxdAQpiOj8aKAFTR54LgJ-hr8j6rT8zW0EdmGlOo3PDexRllcCCn9W0MK5AuFZxZi-_4yrq1cHsAtBAE7aG2MIp88DdJRGWacrJJH8c8TPCy42BmeWtGckHEtArOxoWakQae4d2-9RCBnmXHwqA2lB35KhATqOult2bModAufwd89ccF0OoTnOpna4V2Y12wbGu2wW7luqfHfshRoKqNDDuP_Jov4PaGf8lLp_DtR4wtj4jaBU0uDN3ttutTxLs9xXUwmE6R2Eo9FW8WfGbG68cumpiSmveNAA2eD4ADwAK2luea6Q3EADAkK9oUIc5qCkbMKMD3MITefyhcWC2NcXMej-RlnXn17wqeBioowOmrmpZTKlrAEWN5a0s1dYYhu_q079LvflAw1xou-Zp4z0uTVsj1Qsln7FsAfQ27_89jMjT9i3rKMqjG1f-Cdte1V41ufHoiPMqI5bybktNWihak4NrshMRa93az1NBeyovEWf-YxtgRlzKjPU_7tbp85QBvu5Hg0stVcP9Lo_kz9-CjRO50BpCMmiujaVJpkAvnbXj55lxnIgZCaxnsIhq0_MdI1gItQWMz0AcMGvAqxnexFhQ8JoPnlRCSnBGQcryxiOGicmSuIWPtkcePiAQ6wofxK1UdG0z2gNljHERMj0sVASCk4RBEnkVJ98BjB7LyAgh1vRZhjsqr-X-oTkiT9FYvtQTKkccrX6USi4CiqUGELFAZEAk5pq_FBGro5mIQDA-xF4Wi5LeGtkwdyEm7WHH_RqWASKHN4-Tg9a-OVY-T4Tlv8xX1M6AqC3JT1Od65eFmwKpnwrLOzXsd4z3ZrDz6ck7-pJEc_7ZX2XQseg8giz5CoUc2LK9HKurBKYCMTVZLDiyKTr3dwAKLNC7WMEsZMNrReUrTTf7pBxDUjg6S5PMp_Kfc9dafp73DIVs71AoEGpuOSTuN-bO_B4vsJC3HKhSeiSQDiKceMVCEEc5mTvoWcvCZG-rf1bSrWrFsCTLu_0aThQQ8NmsdvtdnN2gxCaGrUUC4zxkmkLx67O8pk5KZujpMEwfDqmRhnDavHH_ahPkzIrggwQtv4Hqo2wVx1-ods3N9skVwTdizoAwAY6ZvZSB_aKvWzcjh-1qNnnhnwsA1L5cLGsGndFI-dMIvwnuvsF5_0S0]--></g></svg>