<?xml version="1.0" encoding="UTF-8" standalone="no"?><svg xmlns="http://www.w3.org/2000/svg" xmlns:xlink="http://www.w3.org/1999/xlink" contentStyleType="text/css" height="680px" preserveAspectRatio="none" style="width:640px;height:680px;background:#FFFFFF;" version="1.1" viewBox="0 0 640 680" width="640px" zoomAndPan="magnify"><defs/><g><text fill="#000000" font-family="sans-serif" font-size="14" font-weight="bold" lengthAdjust="spacing" textLength="114" x="262" y="27.9951">Create PostIt -</text><polygon fill="#FFFFFF" points="25.5,135.5781,25.5,135.6482,27.5,135.44,29.5,135.6426,31.5,135.7114,33.5,135.3403,35.5,135.5781,35.4223,135.5781,35.0735,145.5639,35.1165,155.5497,35.4318,165.5355,34.8086,175.5213,36.0536,185.5071,34.8697,195.4929,35.3022,205.4787,35.9319,215.4645,35.4142,225.4503,35.5682,235.4361,35.4681,245.4219,35.6785,255.4077,35.7391,265.3935,36.0857,275.3793,36.1711,285.3651,36.1793,295.3509,35.7546,305.3366,35.9636,315.3224,36.2022,325.3082,34.7788,335.294,36.1785,345.2798,35.2035,355.2656,36.0338,365.2514,35.005,375.2372,35.4315,385.223,36.2416,395.2088,35.4513,405.1946,35.6053,415.1804,35.8386,425.1662,35.9162,435.152,35.4961,445.1378,35.7872,455.1236,34.9276,465.1094,35.7844,475.0952,36.0482,485.081,35.9445,495.0668,36.113,505.0526,35.0169,515.0384,34.8478,525.0241,34.8786,535.0099,35.4411,544.9957,35.3035,554.9815,36.1814,564.9673,35.5,574.9531,35.5,574.8949,33.5,574.8388,31.5,575.0292,29.5,574.7308,27.5,574.7801,25.5,574.9531,26.149,574.9531,25.9357,564.9673,26.2345,554.9815,25.1782,544.9957,25.8192,535.0099,26.0904,525.0241,25.0276,515.0384,25.4041,505.0526,25.626,495.0668,26.1518,485.081,25.4958,475.0952,25.9626,465.1094,24.9462,455.1236,24.8227,445.1378,26.0036,435.152,24.7831,425.1662,26.009,415.1804,25.7066,405.1946,25.2321,395.2088,25.1462,385.223,25.9588,375.2372,25.2007,365.2514,26.0919,355.2656,24.9473,345.2798,26.1174,335.294,25.9843,325.3082,25.745,315.3224,25.5472,305.3366,26.2266,295.3509,26.1136,285.3651,25.6693,275.3793,25.7682,265.3935,25.3697,255.4077,26.2165,245.4219,25.6549,235.4361,25.6726,225.4503,24.8916,215.4645,25.0948,205.4787,26.0307,195.4929,25.9298,185.5071,25.4571,175.5213,25.1778,165.5355,25.2811,155.5497,24.8138,145.5639,25.5,135.5781" style="stroke:#181818;stroke-width:1.0;"/><polygon fill="#FFFFFF" points="581.5,164.8594,581.5,164.9294,583.5,164.7213,585.5,164.9238,587.5,164.9926,589.5,164.6216,591.5,164.8594,591.4741,164.8594,591.3578,172.3156,591.3722,179.7719,591.4773,187.2281,591.2695,194.6844,591.5,202.1406,591.5,202.3252,589.5,201.9305,587.5,202.0747,585.5,202.2846,583.5,202.112,581.5,202.1406,581.5227,202.1406,581.4894,194.6844,581.5595,187.2281,581.5797,179.7719,581.6952,172.3156,581.5,164.8594" style="stroke:#181818;stroke-width:1.0;"/><polygon fill="#FFFFFF" points="581.5,239.4219,581.5,239.4919,583.5,239.2838,585.5,239.4863,587.5,239.5551,589.5,239.1841,591.5,239.4219,591.4741,239.4219,591.3578,246.8781,591.3722,254.3344,591.4773,261.7906,591.2695,269.2469,591.5,276.7031,591.5,276.8877,589.5,276.493,587.5,276.6372,585.5,276.8471,583.5,276.6745,581.5,276.7031,581.5227,276.7031,581.4894,269.2469,581.5595,261.7906,581.5797,254.3344,581.6952,246.8781,581.5,239.4219" style="stroke:#181818;stroke-width:1.0;"/><polygon fill="#FFFFFF" points="581.5,313.9844,581.5,314.0544,583.5,313.8463,585.5,314.0488,587.5,314.1176,589.5,313.7466,591.5,313.9844,591.4741,313.9844,591.3578,321.4406,591.3722,328.8969,591.4773,336.3531,591.2695,343.8094,591.5,351.2656,591.5,351.4502,589.5,351.0555,587.5,351.1997,585.5,351.4096,583.5,351.237,581.5,351.2656,581.5227,351.2656,581.4894,343.8094,581.5595,336.3531,581.5797,328.8969,581.6952,321.4406,581.5,313.9844" style="stroke:#181818;stroke-width:1.0;"/><polygon fill="#FFFFFF" points="581.5,388.5469,581.5,388.6169,583.5,388.4088,585.5,388.6113,587.5,388.6801,589.5,388.3091,591.5,388.5469,591.4741,388.5469,591.3578,396.0031,591.3722,403.4594,591.4773,410.9156,591.2695,418.3719,591.5,425.8281,591.5,426.0127,589.5,425.618,587.5,425.7622,585.5,425.9721,583.5,425.7995,581.5,425.8281,581.5227,425.8281,581.4894,418.3719,581.5595,410.9156,581.5797,403.4594,581.6952,396.0031,581.5,388.5469" style="stroke:#181818;stroke-width:1.0;"/><polygon fill="#FFFFFF" points="581.5,463.1094,581.5,463.1794,583.5,462.9713,585.5,463.1738,587.5,463.2426,589.5,462.8716,591.5,463.1094,591.4741,463.1094,591.3578,470.5656,591.3722,478.0219,591.4773,485.4781,591.2695,492.9344,591.5,500.3906,591.5,500.5752,589.5,500.1805,587.5,500.3247,585.5,500.5346,583.5,500.362,581.5,500.3906,581.5227,500.3906,581.4894,492.9344,581.5595,485.4781,581.5797,478.0219,581.6952,470.5656,581.5,463.1094" style="stroke:#181818;stroke-width:1.0;"/><polygon fill="#FFFFFF" points="581.5,537.6719,581.5,537.7419,583.5,537.5338,585.5,537.7363,587.5,537.8051,589.5,537.4341,591.5,537.6719,591.4741,537.6719,591.3578,545.1281,591.3722,552.5844,591.4773,560.0406,591.2695,567.4969,591.5,574.9531,591.5,575.1377,589.5,574.743,587.5,574.8872,585.5,575.0971,583.5,574.9245,581.5,574.9531,581.5227,574.9531,581.4894,567.4969,581.5595,560.0406,581.5797,552.5844,581.6952,545.1281,581.5,537.6719" style="stroke:#181818;stroke-width:1.0;"/><path d="M30,125.5781 L30.2802,125.5781 L29.4476,135.5223 L30.2577,145.4664 L30.5329,155.4106 L29.0488,165.3547 L29.8964,175.2989 L29.4313,185.243 L29.4887,195.1872 L29.9091,205.1313 L29.0782,215.0755 L30.7382,225.0196 L29.1596,234.9638 L29.7363,244.9079 L30.5759,254.8521 L29.8856,264.7962 L30.091,274.7404 L29.9574,284.6845 L30.238,294.6287 L30.3188,304.5728 L30.7809,314.517 L30.8947,324.4611 L30.9057,334.4053 L30.3395,344.3494 L30.6181,354.2936 L30.9363,364.2377 L29.0384,374.1818 L30.9047,384.126 L29.6047,394.0701 L30.7117,404.0143 L29.34,413.9584 L29.9087,423.9026 L30.9888,433.8467 L29.935,443.7909 L30.1404,453.735 L30.4515,463.6792 L30.555,473.6233 L29.9948,483.5675 L30.383,493.5116 L29.2368,503.4558 L30.3792,513.3999 L30.7309,523.3441 L30.5927,533.2882 L30.8174,543.2324 L29.3559,553.1765 L29.1304,563.1207 L29.1715,573.0648 L29.9215,583.009 L30,592.9531 " fill="none" style="stroke:#181818;stroke-width:0.5;stroke-dasharray:5.0,5.0;"/><path d="M586,125.5781 L586.2802,125.5781 L585.4476,135.5223 L586.2577,145.4664 L586.5329,155.4106 L585.0488,165.3547 L585.8964,175.2989 L585.4313,185.243 L585.4887,195.1872 L585.9091,205.1313 L585.0782,215.0755 L586.7382,225.0196 L585.1596,234.9638 L585.7363,244.9079 L586.5759,254.8521 L585.8856,264.7962 L586.091,274.7404 L585.9574,284.6845 L586.238,294.6287 L586.3188,304.5728 L586.7809,314.517 L586.8947,324.4611 L586.9057,334.4053 L586.3395,344.3494 L586.6181,354.2936 L586.9363,364.2377 L585.0384,374.1818 L586.9047,384.126 L585.6047,394.0701 L586.7117,404.0143 L585.34,413.9584 L585.9087,423.9026 L586.9888,433.8467 L585.935,443.7909 L586.1404,453.735 L586.4515,463.6792 L586.555,473.6233 L585.9948,483.5675 L586.383,493.5116 L585.2368,503.4558 L586.3792,513.3999 L586.7309,523.3441 L586.5927,533.2882 L586.8174,543.2324 L585.3559,553.1765 L585.1304,563.1207 L585.1715,573.0648 L585.9215,583.009 L586,592.9531 " fill="none" style="stroke:#181818;stroke-width:0.5;stroke-dasharray:5.0,5.0;"/><text fill="#000000" font-family="sans-serif" font-size="20" lengthAdjust="spacing" textLength="45" x="5" y="120.8613">User</text><polygon fill="#E3E3E3" points="38.5442,52.7428,37.3715,54.3451,35.9845,56.6919,34.0008,58.2735,31.9163,59.1384,30.2542,59.2135,28.118,58.1318,26.1023,57.4252,24.5724,55.9905,23.7699,54.348,23.2939,53.0402,22.8277,51.3319,22.0709,49.8619,22.6525,48.4267,23.162,46.8545,25.074,45.611,26.4192,43.9977,28.0843,43.4619,30.0637,43.0005,32.6021,43.2747,33.9924,43.9304,35.6089,44.2276,37.5743,46.2412,38.2595,48.367,38.5571,49.8175,38.22,52.2077" style="stroke:#181818;stroke-width:0.5;"/><path d="M30.5,58.7969 L30.6868,58.7969 L30.1317,64.1969 L30.6718,69.5969 L30.8553,74.9969 L29.8659,80.3969 L30.5,85.7969 M17.5,66.7969 L17.5,66.7278 L22.7,66.4178 L27.9,66.456 L33.1,66.7363 L38.3,66.1823 L43.5,66.7969 M30.5,85.7969 L30.8719,86.1192 L27.4766,88.43 L25.1672,91.6817 L22.9901,95.0483 L20.0424,97.7469 L17.5,100.7969 M30.5,85.7969 L30.5458,85.8366 L33.0785,88.7783 L35.8199,91.9008 L38.4606,94.9361 L41.2934,98.1378 L43.5,100.7969 " fill="none" style="stroke:#181818;stroke-width:0.5;"/><text fill="#000000" font-family="sans-serif" font-size="20" lengthAdjust="spacing" textLength="45" x="5" y="610.5176">User</text><polygon fill="#E3E3E3" points="38.5442,625.6803,37.3715,627.2826,35.9845,629.6294,34.0008,631.211,31.9163,632.0759,30.2542,632.151,28.118,631.0693,26.1023,630.3627,24.5724,628.928,23.7699,627.2855,23.2939,625.9777,22.8277,624.2694,22.0709,622.7994,22.6525,621.3642,23.162,619.792,25.074,618.5485,26.4192,616.9352,28.0843,616.3994,30.0637,615.938,32.6021,616.2122,33.9924,616.8679,35.6089,617.1651,37.5743,619.1787,38.2595,621.3045,38.5571,622.755,38.22,625.1452" style="stroke:#181818;stroke-width:0.5;"/><path d="M30.5,631.7344 L30.6868,631.7344 L30.1317,637.1344 L30.6718,642.5344 L30.8553,647.9344 L29.8659,653.3344 L30.5,658.7344 M17.5,639.7344 L17.5,639.6653 L22.7,639.3553 L27.9,639.3935 L33.1,639.6738 L38.3,639.1198 L43.5,639.7344 M30.5,658.7344 L30.8719,659.0567 L27.4766,661.3675 L25.1672,664.6192 L22.9901,667.9858 L20.0424,670.6844 L17.5,673.7344 M30.5,658.7344 L30.5458,658.7741 L33.0785,661.7158 L35.8199,664.8383 L38.4606,667.8736 L41.2934,671.0753 L43.5,673.7344 " fill="none" style="stroke:#181818;stroke-width:0.5;"/><polygon fill="#E3E3E3" points="541.5,87.2969,541.5,87.5071,551.5,86.8826,561.5,87.4902,571.5,87.6966,581.5,86.5835,591.5,87.2192,601.5,86.8704,611.5,86.9134,621.5,87.2287,631.5,87.2969,631.4118,87.084,631.9242,87.6138,632.1267,87.3957,632.5354,87.6753,632.9693,88.0157,633.2678,88.0291,633.2414,88.0182,633.4352,88.3914,633.5508,88.7321,633.7621,89.1125,633.9272,89.4738,634,89.7969,634.1952,89.7969,634.2237,96.2531,634.2264,102.7094,634.0849,109.1656,634.1545,115.6219,634,122.0781,634.2163,122.1677,633.6315,122.3397,633.9161,122.8718,633.4693,123.101,633.5786,123.5604,633.2678,123.8459,633.2046,123.6934,632.9055,123.9712,632.6553,124.3672,632.2009,124.2702,631.867,124.4641,631.5,124.5781,631.5,124.9168,621.5,124.9944,611.5,124.5742,601.5,124.8653,591.5,124.0057,581.5,124.8625,571.5,125.1263,561.5,125.0227,551.5,125.1911,541.5,124.5781,541.4384,124.4294,541.0633,124.2308,540.7136,124.0939,540.4318,124.1207,540.0607,123.9318,539.7322,123.8459,539.9421,123.9328,539.532,123.4701,539.3337,123.095,539.3632,122.8143,538.9411,122.3466,539,122.0781,538.827,122.0781,539.2163,115.6219,539.1452,109.1656,539.2448,102.7094,538.8927,96.2531,539,89.7969,539.0983,89.8376,539.3283,89.5186,539.1474,89.0295,539.4098,88.724,539.6246,88.3987,539.7322,88.0291,539.8154,88.2298,540.0853,87.8814,540.4983,87.8787,540.7223,87.4192,541.0601,87.2348,541.5,87.2969" style="stroke:#181818;stroke-width:0.5;"/><text fill="#000000" font-family="sans-serif" font-size="20" lengthAdjust="spacing" textLength="81" x="546" y="112.8613">:System</text><polygon fill="#E3E3E3" points="541.5,591.9531,541.5,592.1633,551.5,591.5388,561.5,592.1464,571.5,592.3528,581.5,591.2397,591.5,591.8754,601.5,591.5266,611.5,591.5696,621.5,591.885,631.5,591.9531,631.4118,591.7402,631.9242,592.2701,632.1267,592.0519,632.5354,592.3316,632.9693,592.6719,633.2678,592.6854,633.2414,592.6744,633.4352,593.0476,633.5508,593.3884,633.7621,593.7688,633.9272,594.1301,634,594.4531,634.1952,594.4531,634.2237,600.9094,634.2264,607.3656,634.0849,613.8219,634.1545,620.2781,634,626.7344,634.2163,626.824,633.6315,626.9959,633.9161,627.528,633.4693,627.7572,633.5786,628.2167,633.2678,628.5021,633.2046,628.3497,632.9055,628.6275,632.6553,629.0234,632.2009,628.9265,631.867,629.1204,631.5,629.2344,631.5,629.573,621.5,629.6506,611.5,629.2305,601.5,629.5216,591.5,628.662,581.5,629.5188,571.5,629.7826,561.5,629.6789,551.5,629.8474,541.5,629.2344,541.4384,629.0856,541.0633,628.8871,540.7136,628.7501,540.4318,628.7769,540.0607,628.5881,539.7322,628.5021,539.9421,628.5891,539.532,628.1263,539.3337,627.7513,539.3632,627.4706,538.9411,627.0029,539,626.7344,538.827,626.7344,539.2163,620.2781,539.1452,613.8219,539.2448,607.3656,538.8927,600.9094,539,594.4531,539.0983,594.4938,539.3283,594.1749,539.1474,593.6858,539.4098,593.3802,539.6246,593.055,539.7322,592.6854,539.8154,592.8861,540.0853,592.5376,540.4983,592.5349,540.7223,592.0755,541.0601,591.891,541.5,591.9531" style="stroke:#181818;stroke-width:0.5;"/><text fill="#000000" font-family="sans-serif" font-size="20" lengthAdjust="spacing" textLength="81" x="546" y="617.5176">:System</text><polygon fill="#FFFFFF" points="25.5,135.5781,25.5,135.6482,27.5,135.44,29.5,135.6426,31.5,135.7114,33.5,135.3403,35.5,135.5781,35.4223,135.5781,35.0735,145.5639,35.1165,155.5497,35.4318,165.5355,34.8086,175.5213,36.0536,185.5071,34.8697,195.4929,35.3022,205.4787,35.9319,215.4645,35.4142,225.4503,35.5682,235.4361,35.4681,245.4219,35.6785,255.4077,35.7391,265.3935,36.0857,275.3793,36.1711,285.3651,36.1793,295.3509,35.7546,305.3366,35.9636,315.3224,36.2022,325.3082,34.7788,335.294,36.1785,345.2798,35.2035,355.2656,36.0338,365.2514,35.005,375.2372,35.4315,385.223,36.2416,395.2088,35.4513,405.1946,35.6053,415.1804,35.8386,425.1662,35.9162,435.152,35.4961,445.1378,35.7872,455.1236,34.9276,465.1094,35.7844,475.0952,36.0482,485.081,35.9445,495.0668,36.113,505.0526,35.0169,515.0384,34.8478,525.0241,34.8786,535.0099,35.4411,544.9957,35.3035,554.9815,36.1814,564.9673,35.5,574.9531,35.5,574.8949,33.5,574.8388,31.5,575.0292,29.5,574.7308,27.5,574.7801,25.5,574.9531,26.149,574.9531,25.9357,564.9673,26.2345,554.9815,25.1782,544.9957,25.8192,535.0099,26.0904,525.0241,25.0276,515.0384,25.4041,505.0526,25.626,495.0668,26.1518,485.081,25.4958,475.0952,25.9626,465.1094,24.9462,455.1236,24.8227,445.1378,26.0036,435.152,24.7831,425.1662,26.009,415.1804,25.7066,405.1946,25.2321,395.2088,25.1462,385.223,25.9588,375.2372,25.2007,365.2514,26.0919,355.2656,24.9473,345.2798,26.1174,335.294,25.9843,325.3082,25.745,315.3224,25.5472,305.3366,26.2266,295.3509,26.1136,285.3651,25.6693,275.3793,25.7682,265.3935,25.3697,255.4077,26.2165,245.4219,25.6549,235.4361,25.6726,225.4503,24.8916,215.4645,25.0948,205.4787,26.0307,195.4929,25.9298,185.5071,25.4571,175.5213,25.1778,165.5355,25.2811,155.5497,24.8138,145.5639,25.5,135.5781" style="stroke:#181818;stroke-width:1.0;"/><polygon fill="#FFFFFF" points="581.5,164.8594,581.5,164.9294,583.5,164.7213,585.5,164.9238,587.5,164.9926,589.5,164.6216,591.5,164.8594,591.4741,164.8594,591.3578,172.3156,591.3722,179.7719,591.4773,187.2281,591.2695,194.6844,591.5,202.1406,591.5,202.3252,589.5,201.9305,587.5,202.0747,585.5,202.2846,583.5,202.112,581.5,202.1406,581.5227,202.1406,581.4894,194.6844,581.5595,187.2281,581.5797,179.7719,581.6952,172.3156,581.5,164.8594" style="stroke:#181818;stroke-width:1.0;"/><polygon fill="#FFFFFF" points="581.5,239.4219,581.5,239.4919,583.5,239.2838,585.5,239.4863,587.5,239.5551,589.5,239.1841,591.5,239.4219,591.4741,239.4219,591.3578,246.8781,591.3722,254.3344,591.4773,261.7906,591.2695,269.2469,591.5,276.7031,591.5,276.8877,589.5,276.493,587.5,276.6372,585.5,276.8471,583.5,276.6745,581.5,276.7031,581.5227,276.7031,581.4894,269.2469,581.5595,261.7906,581.5797,254.3344,581.6952,246.8781,581.5,239.4219" style="stroke:#181818;stroke-width:1.0;"/><polygon fill="#FFFFFF" points="581.5,313.9844,581.5,314.0544,583.5,313.8463,585.5,314.0488,587.5,314.1176,589.5,313.7466,591.5,313.9844,591.4741,313.9844,591.3578,321.4406,591.3722,328.8969,591.4773,336.3531,591.2695,343.8094,591.5,351.2656,591.5,351.4502,589.5,351.0555,587.5,351.1997,585.5,351.4096,583.5,351.237,581.5,351.2656,581.5227,351.2656,581.4894,343.8094,581.5595,336.3531,581.5797,328.8969,581.6952,321.4406,581.5,313.9844" style="stroke:#181818;stroke-width:1.0;"/><polygon fill="#FFFFFF" points="581.5,388.5469,581.5,388.6169,583.5,388.4088,585.5,388.6113,587.5,388.6801,589.5,388.3091,591.5,388.5469,591.4741,388.5469,591.3578,396.0031,591.3722,403.4594,591.4773,410.9156,591.2695,418.3719,591.5,425.8281,591.5,426.0127,589.5,425.618,587.5,425.7622,585.5,425.9721,583.5,425.7995,581.5,425.8281,581.5227,425.8281,581.4894,418.3719,581.5595,410.9156,581.5797,403.4594,581.6952,396.0031,581.5,388.5469" style="stroke:#181818;stroke-width:1.0;"/><polygon fill="#FFFFFF" points="581.5,463.1094,581.5,463.1794,583.5,462.9713,585.5,463.1738,587.5,463.2426,589.5,462.8716,591.5,463.1094,591.4741,463.1094,591.3578,470.5656,591.3722,478.0219,591.4773,485.4781,591.2695,492.9344,591.5,500.3906,591.5,500.5752,589.5,500.1805,587.5,500.3247,585.5,500.5346,583.5,500.362,581.5,500.3906,581.5227,500.3906,581.4894,492.9344,581.5595,485.4781,581.5797,478.0219,581.6952,470.5656,581.5,463.1094" style="stroke:#181818;stroke-width:1.0;"/><polygon fill="#FFFFFF" points="581.5,537.6719,581.5,537.7419,583.5,537.5338,585.5,537.7363,587.5,537.8051,589.5,537.4341,591.5,537.6719,591.4741,537.6719,591.3578,545.1281,591.3722,552.5844,591.4773,560.0406,591.2695,567.4969,591.5,574.9531,591.5,575.1377,589.5,574.743,587.5,574.8872,585.5,575.0971,583.5,574.9245,581.5,574.9531,581.5227,574.9531,581.4894,567.4969,581.5595,560.0406,581.5797,552.5844,581.6952,545.1281,581.5,537.6719" style="stroke:#181818;stroke-width:1.0;"/><polygon fill="#181818" points="569.5,160.8594,569.526,160.9244,571.4487,161.5311,573.5239,162.5192,575.5495,163.3831,577.4117,163.8386,579.5,164.8594,579.4904,164.8353,577.4472,165.5274,575.4525,166.3407,573.4916,167.2383,571.4144,167.8454,569.5,168.8594,569.6305,168.9899,570.1514,167.9108,571.0534,167.2128,572.0018,166.5612,572.6798,165.6392,573.5,164.8594,573.5161,164.8755,572.6925,164.0518,571.9421,163.3015,571.1564,162.5157,570.438,161.7974,569.5,160.8594" style="stroke:#181818;stroke-width:1.0;"/><path d="M35.5,164.8594 L35.5,165.1396 L45.5,164.3069 L55.5,165.1171 L65.5,165.3923 L75.5,163.9082 L85.5,164.7558 L95.5,164.2907 L105.5,164.348 L115.5,164.7685 L125.5,163.9375 L135.5,165.5976 L145.5,164.019 L155.5,164.5957 L165.5,165.4353 L175.5,164.745 L185.5,164.9504 L195.5,164.8168 L205.5,165.0974 L215.5,165.1782 L225.5,165.6403 L235.5,165.7541 L245.5,165.7651 L255.5,165.1989 L265.5,165.4775 L275.5,165.7957 L285.5,163.8978 L295.5,165.7641 L305.5,164.464 L315.5,165.5711 L325.5,164.1993 L335.5,164.768 L345.5,165.8482 L355.5,164.7944 L365.5,164.9998 L375.5,165.3109 L385.5,165.4144 L395.5,164.8542 L405.5,165.2423 L415.5,164.0962 L425.5,165.2386 L435.5,165.5903 L445.5,165.4521 L455.5,165.6767 L465.5,164.2153 L475.5,163.9898 L485.5,164.0308 L495.5,164.7809 L505.5,164.5973 L515.5,165.7679 L525.5,164.6265 L535.5,164.402 L545.5,165.1637 L555.5,163.9703 L565.5,164.1672 L575.5,164.8594 " fill="none" style="stroke:#181818;stroke-width:1.0;"/><text fill="#000000" font-family="sans-serif" font-size="20" font-weight="bold" lengthAdjust="spacing" textLength="14" x="42.5" y="158.1426">1</text><text fill="#000000" font-family="sans-serif" font-size="20" lengthAdjust="spacing" textLength="293" x="60.5" y="158.1426">selects option "Create PostIt"</text><polygon fill="#181818" points="46.5,198.1406,46.526,198.2057,44.4487,198.8124,42.5239,199.8004,40.5495,200.6643,38.4117,201.1198,36.5,202.1406,36.4904,202.1166,38.4472,202.8086,40.4525,203.6219,42.4916,204.5195,44.4144,205.1267,46.5,206.1406,46.6305,206.2711,45.5514,205.1921,44.8534,204.494,44.2018,203.8424,43.2798,202.9204,42.5,202.1406,42.5161,202.1567,43.2925,201.3331,44.1421,200.5827,44.9564,199.797,45.838,199.0787,46.5,198.1406" style="stroke:#181818;stroke-width:1.0;"/><path d="M40.5,202.1406 L40.5,202.4209 L50.4091,201.5882 L60.3182,202.3983 L70.2273,202.6735 L80.1364,201.1894 L90.0455,202.037 L99.9545,201.572 L109.8636,201.6293 L119.7727,202.0497 L129.6818,201.2188 L139.5909,202.8788 L149.5,201.3003 L159.4091,201.8769 L169.3182,202.7166 L179.2273,202.0263 L189.1364,202.2316 L199.0455,202.098 L208.9545,202.3787 L218.8636,202.4595 L228.7727,202.9215 L238.6818,203.0354 L248.5909,203.0463 L258.5,202.4801 L268.4091,202.7587 L278.3182,203.0769 L288.2273,201.179 L298.1364,203.0453 L308.0455,201.7453 L317.9545,202.8524 L327.8636,201.4806 L337.7727,202.0493 L347.6818,203.1294 L357.5909,202.0756 L367.5,202.281 L377.4091,202.5921 L387.3182,202.6956 L397.2273,202.1354 L407.1364,202.5236 L417.0455,201.3774 L426.9545,202.5198 L436.8636,202.8716 L446.7727,202.7333 L456.6818,202.958 L466.5909,201.4965 L476.5,201.271 L486.4091,201.3121 L496.3182,202.0621 L506.2273,201.8786 L516.1364,203.0492 L526.0455,201.9077 L535.9545,201.6832 L545.8636,202.445 L555.7727,201.2515 L565.6818,201.4485 L575.5909,203.0059 L585.5,202.1406 " fill="none" style="stroke:#181818;stroke-width:1.0;stroke-dasharray:2.0,2.0;"/><text fill="#000000" font-family="sans-serif" font-size="20" font-weight="bold" lengthAdjust="spacing" textLength="14" x="52.5" y="195.4238">2</text><text fill="#000000" font-family="sans-serif" font-size="20" lengthAdjust="spacing" textLength="504" x="70.5" y="195.4238">shows the list of Boards that the User can write on</text><polygon fill="#181818" points="569.5,235.4219,569.526,235.4869,571.4487,236.0936,573.5239,237.0817,575.5495,237.9456,577.4117,238.4011,579.5,239.4219,579.4904,239.3978,577.4472,240.0899,575.4525,240.9032,573.4916,241.8008,571.4144,242.4079,569.5,243.4219,569.6305,243.5524,570.1514,242.4733,571.0534,241.7753,572.0018,241.1237,572.6798,240.2017,573.5,239.4219,573.5161,239.438,572.6925,238.6143,571.9421,237.864,571.1564,237.0782,570.438,236.3599,569.5,235.4219" style="stroke:#181818;stroke-width:1.0;"/><path d="M35.5,239.4219 L35.5,239.7021 L45.5,238.8694 L55.5,239.6796 L65.5,239.9548 L75.5,238.4707 L85.5,239.3183 L95.5,238.8532 L105.5,238.9105 L115.5,239.331 L125.5,238.5 L135.5,240.1601 L145.5,238.5815 L155.5,239.1582 L165.5,239.9978 L175.5,239.3075 L185.5,239.5129 L195.5,239.3793 L205.5,239.6599 L215.5,239.7407 L225.5,240.2028 L235.5,240.3166 L245.5,240.3276 L255.5,239.7614 L265.5,240.04 L275.5,240.3582 L285.5,238.4603 L295.5,240.3266 L305.5,239.0265 L315.5,240.1336 L325.5,238.7618 L335.5,239.3305 L345.5,240.4107 L355.5,239.3569 L365.5,239.5623 L375.5,239.8734 L385.5,239.9769 L395.5,239.4167 L405.5,239.8048 L415.5,238.6587 L425.5,239.8011 L435.5,240.1528 L445.5,240.0146 L455.5,240.2392 L465.5,238.7778 L475.5,238.5523 L485.5,238.5933 L495.5,239.3434 L505.5,239.1598 L515.5,240.3304 L525.5,239.189 L535.5,238.9645 L545.5,239.7262 L555.5,238.5328 L565.5,238.7297 L575.5,239.4219 " fill="none" style="stroke:#181818;stroke-width:1.0;"/><text fill="#000000" font-family="sans-serif" font-size="20" font-weight="bold" lengthAdjust="spacing" textLength="14" x="42.5" y="232.7051">3</text><text fill="#000000" font-family="sans-serif" font-size="20" lengthAdjust="spacing" textLength="369" x="60.5" y="232.7051">selects the Board to create the PostIt</text><polygon fill="#181818" points="46.5,272.7031,46.526,272.7682,44.4487,273.3749,42.5239,274.3629,40.5495,275.2268,38.4117,275.6823,36.5,276.7031,36.4904,276.6791,38.4472,277.3711,40.4525,278.1844,42.4916,279.082,44.4144,279.6892,46.5,280.7031,46.6305,280.8336,45.5514,279.7546,44.8534,279.0565,44.2018,278.4049,43.2798,277.4829,42.5,276.7031,42.5161,276.7192,43.2925,275.8956,44.1421,275.1452,44.9564,274.3595,45.838,273.6412,46.5,272.7031" style="stroke:#181818;stroke-width:1.0;"/><path d="M40.5,276.7031 L40.5,276.9834 L50.4091,276.1507 L60.3182,276.9608 L70.2273,277.236 L80.1364,275.7519 L90.0455,276.5995 L99.9545,276.1345 L109.8636,276.1918 L119.7727,276.6122 L129.6818,275.7813 L139.5909,277.4413 L149.5,275.8628 L159.4091,276.4394 L169.3182,277.2791 L179.2273,276.5888 L189.1364,276.7941 L199.0455,276.6605 L208.9545,276.9412 L218.8636,277.022 L228.7727,277.484 L238.6818,277.5979 L248.5909,277.6088 L258.5,277.0426 L268.4091,277.3212 L278.3182,277.6394 L288.2273,275.7415 L298.1364,277.6078 L308.0455,276.3078 L317.9545,277.4149 L327.8636,276.0431 L337.7727,276.6118 L347.6818,277.6919 L357.5909,276.6381 L367.5,276.8435 L377.4091,277.1546 L387.3182,277.2581 L397.2273,276.6979 L407.1364,277.0861 L417.0455,275.9399 L426.9545,277.0823 L436.8636,277.4341 L446.7727,277.2958 L456.6818,277.5205 L466.5909,276.059 L476.5,275.8335 L486.4091,275.8746 L496.3182,276.6246 L506.2273,276.4411 L516.1364,277.6117 L526.0455,276.4702 L535.9545,276.2457 L545.8636,277.0075 L555.7727,275.814 L565.6818,276.011 L575.5909,277.5684 L585.5,276.7031 " fill="none" style="stroke:#181818;stroke-width:1.0;stroke-dasharray:2.0,2.0;"/><text fill="#000000" font-family="sans-serif" font-size="20" font-weight="bold" lengthAdjust="spacing" textLength="14" x="52.5" y="269.9863">4</text><text fill="#000000" font-family="sans-serif" font-size="20" lengthAdjust="spacing" textLength="454" x="70.5" y="269.9863">ask to insert the line the user intent to create</text><polygon fill="#181818" points="569.5,309.9844,569.526,310.0494,571.4487,310.6561,573.5239,311.6442,575.5495,312.5081,577.4117,312.9636,579.5,313.9844,579.4904,313.9603,577.4472,314.6524,575.4525,315.4657,573.4916,316.3633,571.4144,316.9704,569.5,317.9844,569.6305,318.1149,570.1514,317.0358,571.0534,316.3378,572.0018,315.6862,572.6798,314.7642,573.5,313.9844,573.5161,314.0005,572.6925,313.1768,571.9421,312.4265,571.1564,311.6407,570.438,310.9224,569.5,309.9844" style="stroke:#181818;stroke-width:1.0;"/><path d="M35.5,313.9844 L35.5,314.2646 L45.5,313.4319 L55.5,314.2421 L65.5,314.5173 L75.5,313.0332 L85.5,313.8808 L95.5,313.4157 L105.5,313.473 L115.5,313.8935 L125.5,313.0625 L135.5,314.7226 L145.5,313.144 L155.5,313.7207 L165.5,314.5603 L175.5,313.87 L185.5,314.0754 L195.5,313.9418 L205.5,314.2224 L215.5,314.3032 L225.5,314.7653 L235.5,314.8791 L245.5,314.8901 L255.5,314.3239 L265.5,314.6025 L275.5,314.9207 L285.5,313.0228 L295.5,314.8891 L305.5,313.589 L315.5,314.6961 L325.5,313.3243 L335.5,313.893 L345.5,314.9732 L355.5,313.9194 L365.5,314.1248 L375.5,314.4359 L385.5,314.5394 L395.5,313.9792 L405.5,314.3673 L415.5,313.2212 L425.5,314.3636 L435.5,314.7153 L445.5,314.5771 L455.5,314.8017 L465.5,313.3403 L475.5,313.1148 L485.5,313.1558 L495.5,313.9059 L505.5,313.7223 L515.5,314.8929 L525.5,313.7515 L535.5,313.527 L545.5,314.2887 L555.5,313.0953 L565.5,313.2922 L575.5,313.9844 " fill="none" style="stroke:#181818;stroke-width:1.0;"/><text fill="#000000" font-family="sans-serif" font-size="20" font-weight="bold" lengthAdjust="spacing" textLength="14" x="42.5" y="307.2676">5</text><text fill="#000000" font-family="sans-serif" font-size="20" lengthAdjust="spacing" textLength="145" x="60.5" y="307.2676">inputs the line</text><polygon fill="#181818" points="46.5,347.2656,46.526,347.3307,44.4487,347.9374,42.5239,348.9254,40.5495,349.7893,38.4117,350.2448,36.5,351.2656,36.4904,351.2416,38.4472,351.9336,40.4525,352.7469,42.4916,353.6445,44.4144,354.2517,46.5,355.2656,46.6305,355.3961,45.5514,354.3171,44.8534,353.619,44.2018,352.9674,43.2798,352.0454,42.5,351.2656,42.5161,351.2817,43.2925,350.4581,44.1421,349.7077,44.9564,348.922,45.838,348.2037,46.5,347.2656" style="stroke:#181818;stroke-width:1.0;"/><path d="M40.5,351.2656 L40.5,351.5459 L50.4091,350.7132 L60.3182,351.5233 L70.2273,351.7985 L80.1364,350.3144 L90.0455,351.162 L99.9545,350.697 L109.8636,350.7543 L119.7727,351.1747 L129.6818,350.3438 L139.5909,352.0038 L149.5,350.4253 L159.4091,351.0019 L169.3182,351.8416 L179.2273,351.1513 L189.1364,351.3566 L199.0455,351.223 L208.9545,351.5037 L218.8636,351.5845 L228.7727,352.0465 L238.6818,352.1604 L248.5909,352.1713 L258.5,351.6051 L268.4091,351.8837 L278.3182,352.2019 L288.2273,350.304 L298.1364,352.1703 L308.0455,350.8703 L317.9545,351.9774 L327.8636,350.6056 L337.7727,351.1743 L347.6818,352.2544 L357.5909,351.2006 L367.5,351.406 L377.4091,351.7171 L387.3182,351.8206 L397.2273,351.2604 L407.1364,351.6486 L417.0455,350.5024 L426.9545,351.6448 L436.8636,351.9966 L446.7727,351.8583 L456.6818,352.083 L466.5909,350.6215 L476.5,350.396 L486.4091,350.4371 L496.3182,351.1871 L506.2273,351.0036 L516.1364,352.1742 L526.0455,351.0327 L535.9545,350.8082 L545.8636,351.57 L555.7727,350.3765 L565.6818,350.5735 L575.5909,352.1309 L585.5,351.2656 " fill="none" style="stroke:#181818;stroke-width:1.0;stroke-dasharray:2.0,2.0;"/><text fill="#000000" font-family="sans-serif" font-size="20" font-weight="bold" lengthAdjust="spacing" textLength="14" x="52.5" y="344.5488">6</text><text fill="#000000" font-family="sans-serif" font-size="20" lengthAdjust="spacing" textLength="492" x="70.5" y="344.5488">ask to insert the column the user intent to create</text><polygon fill="#181818" points="569.5,384.5469,569.526,384.6119,571.4487,385.2186,573.5239,386.2067,575.5495,387.0706,577.4117,387.5261,579.5,388.5469,579.4904,388.5228,577.4472,389.2149,575.4525,390.0282,573.4916,390.9258,571.4144,391.5329,569.5,392.5469,569.6305,392.6774,570.1514,391.5983,571.0534,390.9003,572.0018,390.2487,572.6798,389.3267,573.5,388.5469,573.5161,388.563,572.6925,387.7393,571.9421,386.989,571.1564,386.2032,570.438,385.4849,569.5,384.5469" style="stroke:#181818;stroke-width:1.0;"/><path d="M35.5,388.5469 L35.5,388.8271 L45.5,387.9944 L55.5,388.8046 L65.5,389.0798 L75.5,387.5957 L85.5,388.4433 L95.5,387.9782 L105.5,388.0355 L115.5,388.456 L125.5,387.625 L135.5,389.2851 L145.5,387.7065 L155.5,388.2832 L165.5,389.1228 L175.5,388.4325 L185.5,388.6379 L195.5,388.5043 L205.5,388.7849 L215.5,388.8657 L225.5,389.3278 L235.5,389.4416 L245.5,389.4526 L255.5,388.8864 L265.5,389.165 L275.5,389.4832 L285.5,387.5853 L295.5,389.4516 L305.5,388.1515 L315.5,389.2586 L325.5,387.8868 L335.5,388.4555 L345.5,389.5357 L355.5,388.4819 L365.5,388.6873 L375.5,388.9984 L385.5,389.1019 L395.5,388.5417 L405.5,388.9298 L415.5,387.7837 L425.5,388.9261 L435.5,389.2778 L445.5,389.1396 L455.5,389.3642 L465.5,387.9028 L475.5,387.6773 L485.5,387.7183 L495.5,388.4684 L505.5,388.2848 L515.5,389.4554 L525.5,388.314 L535.5,388.0895 L545.5,388.8512 L555.5,387.6578 L565.5,387.8547 L575.5,388.5469 " fill="none" style="stroke:#181818;stroke-width:1.0;"/><text fill="#000000" font-family="sans-serif" font-size="20" font-weight="bold" lengthAdjust="spacing" textLength="14" x="42.5" y="381.8301">7</text><text fill="#000000" font-family="sans-serif" font-size="20" lengthAdjust="spacing" textLength="183" x="60.5" y="381.8301">inputs the column</text><polygon fill="#181818" points="46.5,421.8281,46.526,421.8932,44.4487,422.4999,42.5239,423.4879,40.5495,424.3518,38.4117,424.8073,36.5,425.8281,36.4904,425.8041,38.4472,426.4961,40.4525,427.3094,42.4916,428.207,44.4144,428.8142,46.5,429.8281,46.6305,429.9586,45.5514,428.8796,44.8534,428.1815,44.2018,427.5299,43.2798,426.6079,42.5,425.8281,42.5161,425.8442,43.2925,425.0206,44.1421,424.2702,44.9564,423.4845,45.838,422.7662,46.5,421.8281" style="stroke:#181818;stroke-width:1.0;"/><path d="M40.5,425.8281 L40.5,426.1084 L50.4091,425.2757 L60.3182,426.0858 L70.2273,426.361 L80.1364,424.8769 L90.0455,425.7245 L99.9545,425.2595 L109.8636,425.3168 L119.7727,425.7372 L129.6818,424.9063 L139.5909,426.5663 L149.5,424.9878 L159.4091,425.5644 L169.3182,426.4041 L179.2273,425.7138 L189.1364,425.9191 L199.0455,425.7855 L208.9545,426.0662 L218.8636,426.147 L228.7727,426.609 L238.6818,426.7229 L248.5909,426.7338 L258.5,426.1676 L268.4091,426.4462 L278.3182,426.7644 L288.2273,424.8665 L298.1364,426.7328 L308.0455,425.4328 L317.9545,426.5399 L327.8636,425.1681 L337.7727,425.7368 L347.6818,426.8169 L357.5909,425.7631 L367.5,425.9685 L377.4091,426.2796 L387.3182,426.3831 L397.2273,425.8229 L407.1364,426.2111 L417.0455,425.0649 L426.9545,426.2073 L436.8636,426.5591 L446.7727,426.4208 L456.6818,426.6455 L466.5909,425.184 L476.5,424.9585 L486.4091,424.9996 L496.3182,425.7496 L506.2273,425.5661 L516.1364,426.7367 L526.0455,425.5952 L535.9545,425.3707 L545.8636,426.1325 L555.7727,424.939 L565.6818,425.136 L575.5909,426.6934 L585.5,425.8281 " fill="none" style="stroke:#181818;stroke-width:1.0;stroke-dasharray:2.0,2.0;"/><text fill="#000000" font-family="sans-serif" font-size="20" font-weight="bold" lengthAdjust="spacing" textLength="14" x="52.5" y="419.1113">8</text><text fill="#000000" font-family="sans-serif" font-size="20" lengthAdjust="spacing" textLength="281" x="70.5" y="419.1113">shows list of type of content</text><polygon fill="#181818" points="569.5,459.1094,569.526,459.1744,571.4487,459.7811,573.5239,460.7692,575.5495,461.6331,577.4117,462.0886,579.5,463.1094,579.4904,463.0853,577.4472,463.7774,575.4525,464.5907,573.4916,465.4883,571.4144,466.0954,569.5,467.1094,569.6305,467.2399,570.1514,466.1608,571.0534,465.4628,572.0018,464.8112,572.6798,463.8892,573.5,463.1094,573.5161,463.1255,572.6925,462.3018,571.9421,461.5515,571.1564,460.7657,570.438,460.0474,569.5,459.1094" style="stroke:#181818;stroke-width:1.0;"/><path d="M35.5,463.1094 L35.5,463.3896 L45.5,462.5569 L55.5,463.3671 L65.5,463.6423 L75.5,462.1582 L85.5,463.0058 L95.5,462.5407 L105.5,462.598 L115.5,463.0185 L125.5,462.1875 L135.5,463.8476 L145.5,462.269 L155.5,462.8457 L165.5,463.6853 L175.5,462.995 L185.5,463.2004 L195.5,463.0668 L205.5,463.3474 L215.5,463.4282 L225.5,463.8903 L235.5,464.0041 L245.5,464.0151 L255.5,463.4489 L265.5,463.7275 L275.5,464.0457 L285.5,462.1478 L295.5,464.0141 L305.5,462.714 L315.5,463.8211 L325.5,462.4493 L335.5,463.018 L345.5,464.0982 L355.5,463.0444 L365.5,463.2498 L375.5,463.5609 L385.5,463.6644 L395.5,463.1042 L405.5,463.4923 L415.5,462.3462 L425.5,463.4886 L435.5,463.8403 L445.5,463.7021 L455.5,463.9267 L465.5,462.4653 L475.5,462.2398 L485.5,462.2808 L495.5,463.0309 L505.5,462.8473 L515.5,464.0179 L525.5,462.8765 L535.5,462.652 L545.5,463.4137 L555.5,462.2203 L565.5,462.4172 L575.5,463.1094 " fill="none" style="stroke:#181818;stroke-width:1.0;"/><text fill="#000000" font-family="sans-serif" font-size="20" font-weight="bold" lengthAdjust="spacing" textLength="14" x="42.5" y="456.3926">9</text><text fill="#000000" font-family="sans-serif" font-size="20" lengthAdjust="spacing" textLength="266" x="60.5" y="456.3926">selects the type of content</text><polygon fill="#181818" points="46.5,496.3906,46.526,496.4557,44.4487,497.0624,42.5239,498.0504,40.5495,498.9143,38.4117,499.3698,36.5,500.3906,36.4904,500.3666,38.4472,501.0586,40.4525,501.8719,42.4916,502.7695,44.4144,503.3767,46.5,504.3906,46.6305,504.5211,45.5514,503.4421,44.8534,502.744,44.2018,502.0924,43.2798,501.1704,42.5,500.3906,42.5161,500.4067,43.2925,499.5831,44.1421,498.8327,44.9564,498.047,45.838,497.3287,46.5,496.3906" style="stroke:#181818;stroke-width:1.0;"/><path d="M40.5,500.3906 L40.5,500.6709 L50.4091,499.8382 L60.3182,500.6483 L70.2273,500.9235 L80.1364,499.4394 L90.0455,500.287 L99.9545,499.822 L109.8636,499.8793 L119.7727,500.2997 L129.6818,499.4688 L139.5909,501.1288 L149.5,499.5503 L159.4091,500.1269 L169.3182,500.9666 L179.2273,500.2763 L189.1364,500.4816 L199.0455,500.348 L208.9545,500.6287 L218.8636,500.7095 L228.7727,501.1715 L238.6818,501.2854 L248.5909,501.2963 L258.5,500.7301 L268.4091,501.0087 L278.3182,501.3269 L288.2273,499.429 L298.1364,501.2953 L308.0455,499.9953 L317.9545,501.1024 L327.8636,499.7306 L337.7727,500.2993 L347.6818,501.3794 L357.5909,500.3256 L367.5,500.531 L377.4091,500.8421 L387.3182,500.9456 L397.2273,500.3854 L407.1364,500.7736 L417.0455,499.6274 L426.9545,500.7698 L436.8636,501.1216 L446.7727,500.9833 L456.6818,501.208 L466.5909,499.7465 L476.5,499.521 L486.4091,499.5621 L496.3182,500.3121 L506.2273,500.1286 L516.1364,501.2992 L526.0455,500.1577 L535.9545,499.9332 L545.8636,500.695 L555.7727,499.5015 L565.6818,499.6985 L575.5909,501.2559 L585.5,500.3906 " fill="none" style="stroke:#181818;stroke-width:1.0;stroke-dasharray:2.0,2.0;"/><text fill="#000000" font-family="sans-serif" font-size="20" font-weight="bold" lengthAdjust="spacing" textLength="28" x="52.5" y="493.6738">10</text><text fill="#000000" font-family="sans-serif" font-size="20" lengthAdjust="spacing" textLength="160" x="84.5" y="493.6738">asks for content</text><polygon fill="#181818" points="569.5,533.6719,569.526,533.7369,571.4487,534.3436,573.5239,535.3317,575.5495,536.1956,577.4117,536.6511,579.5,537.6719,579.4904,537.6478,577.4472,538.3399,575.4525,539.1532,573.4916,540.0508,571.4144,540.6579,569.5,541.6719,569.6305,541.8024,570.1514,540.7233,571.0534,540.0253,572.0018,539.3737,572.6798,538.4517,573.5,537.6719,573.5161,537.688,572.6925,536.8643,571.9421,536.114,571.1564,535.3282,570.438,534.6099,569.5,533.6719" style="stroke:#181818;stroke-width:1.0;"/><path d="M35.5,537.6719 L35.5,537.9521 L45.5,537.1194 L55.5,537.9296 L65.5,538.2048 L75.5,536.7207 L85.5,537.5683 L95.5,537.1032 L105.5,537.1605 L115.5,537.581 L125.5,536.75 L135.5,538.4101 L145.5,536.8315 L155.5,537.4082 L165.5,538.2478 L175.5,537.5575 L185.5,537.7629 L195.5,537.6293 L205.5,537.9099 L215.5,537.9907 L225.5,538.4528 L235.5,538.5666 L245.5,538.5776 L255.5,538.0114 L265.5,538.29 L275.5,538.6082 L285.5,536.7103 L295.5,538.5766 L305.5,537.2765 L315.5,538.3836 L325.5,537.0118 L335.5,537.5805 L345.5,538.6607 L355.5,537.6069 L365.5,537.8123 L375.5,538.1234 L385.5,538.2269 L395.5,537.6667 L405.5,538.0548 L415.5,536.9087 L425.5,538.0511 L435.5,538.4028 L445.5,538.2646 L455.5,538.4892 L465.5,537.0278 L475.5,536.8023 L485.5,536.8433 L495.5,537.5934 L505.5,537.4098 L515.5,538.5804 L525.5,537.439 L535.5,537.2145 L545.5,537.9762 L555.5,536.7828 L565.5,536.9797 L575.5,537.6719 " fill="none" style="stroke:#181818;stroke-width:1.0;"/><text fill="#000000" font-family="sans-serif" font-size="20" font-weight="bold" lengthAdjust="spacing" textLength="28" x="42.5" y="530.9551">11</text><text fill="#000000" font-family="sans-serif" font-size="20" lengthAdjust="spacing" textLength="146" x="74.5" y="530.9551">inputs content</text><polygon fill="#181818" points="41.5,570.9531,41.526,571.0182,39.4487,571.6249,37.5239,572.6129,35.5495,573.4768,33.4117,573.9323,31.5,574.9531,31.4904,574.9291,33.4472,575.6211,35.4525,576.4344,37.4916,577.332,39.4144,577.9392,41.5,578.9531,41.6305,579.0836,40.5514,578.0046,39.8534,577.3065,39.2018,576.6549,38.2798,575.7329,37.5,574.9531,37.5161,574.9692,38.2925,574.1456,39.1421,573.3952,39.9564,572.6095,40.838,571.8912,41.5,570.9531" style="stroke:#181818;stroke-width:1.0;"/><path d="M35.5,574.9531 L35.5,575.2334 L45.5,574.4007 L55.5,575.2108 L65.5,575.486 L75.5,574.0019 L85.5,574.8495 L95.5,574.3845 L105.5,574.4418 L115.5,574.8622 L125.5,574.0313 L135.5,575.6913 L145.5,574.1128 L155.5,574.6894 L165.5,575.5291 L175.5,574.8388 L185.5,575.0441 L195.5,574.9105 L205.5,575.1912 L215.5,575.272 L225.5,575.734 L235.5,575.8479 L245.5,575.8588 L255.5,575.2926 L265.5,575.5712 L275.5,575.8894 L285.5,573.9915 L295.5,575.8578 L305.5,574.5578 L315.5,575.6649 L325.5,574.2931 L335.5,574.8618 L345.5,575.9419 L355.5,574.8881 L365.5,575.0935 L375.5,575.4046 L385.5,575.5081 L395.5,574.9479 L405.5,575.3361 L415.5,574.1899 L425.5,575.3323 L435.5,575.6841 L445.5,575.5458 L455.5,575.7705 L465.5,574.309 L475.5,574.0835 L485.5,574.1246 L495.5,574.8746 L505.5,574.6911 L515.5,575.8617 L525.5,574.7202 L535.5,574.4957 L545.5,575.2575 L555.5,574.064 L565.5,574.261 L575.5,575.8184 L585.5,574.9531 " fill="none" style="stroke:#181818;stroke-width:1.0;stroke-dasharray:2.0,2.0;"/><text fill="#000000" font-family="sans-serif" font-size="20" font-weight="bold" lengthAdjust="spacing" textLength="28" x="47.5" y="568.2363">12</text><text fill="#000000" font-family="sans-serif" font-size="20" lengthAdjust="spacing" textLength="330" x="79.5" y="568.2363">shows the confirmation message</text><!--SRC=[hPF1QiCm38RlUGgHUs7isCCE6mns6sHz0CrH5jDOAfQyqZtzxAHjkh52MtOooFf_VP9iNNlUOCGmY5jJ2orrc0Px5hR6Vn7StrMOJ3Y5TugL7hAXHswtqPiHWyL49rT1M5mV9T1qWyuaGhrIYZMWmggfthmD14juYeH6y2fgBmQBgkJwpnBAIQi65WzGBvkT6eKwfoiDv4n1DkQ5eVuXhsVnKLFDwaNsoexPf9UjWlK4WrS3wU1HCBObX3R62oauP2WD4WXNBVtXVPwlc8ocO09kWYon2VH2JjHraNlEDBRdvSad5K3FUVOsLxWKCgyfcHuDRwPnCgJ0_yepMLwrnyCERRUXSZePCMxPs6-BYmUZqEK7VcNbVTlN5PlVRjPrFWOSFq8WLVmuC_6JOFvKtm00]--></g></svg>