<?xml version="1.0" encoding="UTF-8" standalone="no"?><svg xmlns="http://www.w3.org/2000/svg" xmlns:xlink="http://www.w3.org/1999/xlink" contentStyleType="text/css" height="1079px" preserveAspectRatio="none" style="width:1923px;height:1079px;background:#FFFFFF;" version="1.1" viewBox="0 0 1923 1079" width="1923px" zoomAndPan="magnify"><defs/><g><text fill="#000000" font-family="sans-serif" font-size="14" font-weight="bold" lengthAdjust="spacing" textLength="239" x="841.25" y="27.9951">SD - Set Teachers to a Course</text><rect fill="#FFFFFF" height="838.1875" style="stroke:#181818;stroke-width:1.0;" width="10" x="46.5" y="135.5781"/><rect fill="#FFFFFF" height="808.9063" style="stroke:#181818;stroke-width:1.0;" width="10" x="382.5" y="164.8594"/><rect fill="#FFFFFF" height="186.4063" style="stroke:#181818;stroke-width:1.0;" width="10" x="778.5" y="202.1406"/><rect fill="#FFFFFF" height="186.4063" style="stroke:#181818;stroke-width:1.0;" width="10" x="778.5" y="550.6719"/><rect fill="#FFFFFF" height="74.5625" style="stroke:#181818;stroke-width:1.0;" width="10" x="778.5" y="861.9219"/><rect fill="#FFFFFF" height="111.8438" style="stroke:#181818;stroke-width:1.0;" width="10" x="1087.5" y="239.4219"/><rect fill="#FFFFFF" height="111.8438" style="stroke:#181818;stroke-width:1.0;" width="10" x="1301" y="587.9531"/><rect fill="#FFFFFF" height="37.2813" style="stroke:#181818;stroke-width:1.0;" width="10" x="1509.5" y="276.7031"/><rect fill="#FFFFFF" height="37.2813" style="stroke:#181818;stroke-width:1.0;" width="10" x="1713" y="625.2344"/><line style="stroke:#181818;stroke-width:0.5;stroke-dasharray:5.0,5.0;" x1="51" x2="51" y1="125.5781" y2="991.7656"/><line style="stroke:#181818;stroke-width:0.5;stroke-dasharray:5.0,5.0;" x1="387" x2="387" y1="125.5781" y2="991.7656"/><line style="stroke:#181818;stroke-width:0.5;stroke-dasharray:5.0,5.0;" x1="783" x2="783" y1="125.5781" y2="991.7656"/><line style="stroke:#181818;stroke-width:0.5;stroke-dasharray:5.0,5.0;" x1="1092.5" x2="1092.5" y1="125.5781" y2="991.7656"/><line style="stroke:#181818;stroke-width:0.5;stroke-dasharray:5.0,5.0;" x1="1305.5" x2="1305.5" y1="125.5781" y2="991.7656"/><line style="stroke:#181818;stroke-width:0.5;stroke-dasharray:5.0,5.0;" x1="1514.5" x2="1514.5" y1="125.5781" y2="991.7656"/><line style="stroke:#181818;stroke-width:0.5;stroke-dasharray:5.0,5.0;" x1="1717.5" x2="1717.5" y1="125.5781" y2="991.7656"/><line style="stroke:#181818;stroke-width:0.5;stroke-dasharray:5.0,5.0;" x1="1872.5" x2="1872.5" y1="125.5781" y2="991.7656"/><text fill="#000000" font-family="sans-serif" font-size="20" lengthAdjust="spacing" textLength="87" x="5" y="120.8613">Manager</text><ellipse cx="51.5" cy="50.7969" fill="#E2E2F0" rx="8" ry="8" style="stroke:#181818;stroke-width:0.5;"/><path d="M51.5,58.7969 L51.5,85.7969 M38.5,66.7969 L64.5,66.7969 M51.5,85.7969 L38.5,100.7969 M51.5,85.7969 L64.5,100.7969 " fill="none" style="stroke:#181818;stroke-width:0.5;"/><text fill="#000000" font-family="sans-serif" font-size="20" lengthAdjust="spacing" textLength="87" x="5" y="1009.3301">Manager</text><ellipse cx="51.5" cy="1022.5469" fill="#E2E2F0" rx="8" ry="8" style="stroke:#181818;stroke-width:0.5;"/><path d="M51.5,1030.5469 L51.5,1057.5469 M38.5,1038.5469 L64.5,1038.5469 M51.5,1057.5469 L38.5,1072.5469 M51.5,1057.5469 L64.5,1072.5469 " fill="none" style="stroke:#181818;stroke-width:0.5;"/><rect fill="#E2E2F0" height="37.2813" rx="2.5" ry="2.5" style="stroke:#181818;stroke-width:0.5;" width="165" x="305" y="87.2969"/><text fill="#000000" font-family="sans-serif" font-size="20" lengthAdjust="spacing" textLength="151" x="312" y="112.8613">:SetTeachersUI</text><rect fill="#E2E2F0" height="37.2813" rx="2.5" ry="2.5" style="stroke:#181818;stroke-width:0.5;" width="165" x="305" y="990.7656"/><text fill="#000000" font-family="sans-serif" font-size="20" lengthAdjust="spacing" textLength="151" x="312" y="1016.3301">:SetTeachersUI</text><rect fill="#E2E2F0" height="37.2813" rx="2.5" ry="2.5" style="stroke:#181818;stroke-width:0.5;" width="233" x="667" y="87.2969"/><text fill="#000000" font-family="sans-serif" font-size="20" lengthAdjust="spacing" textLength="219" x="674" y="112.8613">:SetTeacherController</text><rect fill="#E2E2F0" height="37.2813" rx="2.5" ry="2.5" style="stroke:#181818;stroke-width:0.5;" width="233" x="667" y="990.7656"/><text fill="#000000" font-family="sans-serif" font-size="20" lengthAdjust="spacing" textLength="219" x="674" y="1016.3301">:SetTeacherController</text><rect fill="#E2E2F0" height="37.2813" rx="2.5" ry="2.5" style="stroke:#181818;stroke-width:0.5;" width="198" x="993.5" y="87.2969"/><text fill="#000000" font-family="sans-serif" font-size="20" lengthAdjust="spacing" textLength="184" x="1000.5" y="112.8613">:ListCourseService</text><rect fill="#E2E2F0" height="37.2813" rx="2.5" ry="2.5" style="stroke:#181818;stroke-width:0.5;" width="198" x="993.5" y="990.7656"/><text fill="#000000" font-family="sans-serif" font-size="20" lengthAdjust="spacing" textLength="184" x="1000.5" y="1016.3301">:ListCourseService</text><rect fill="#E2E2F0" height="37.2813" rx="2.5" ry="2.5" style="stroke:#181818;stroke-width:0.5;" width="209" x="1201.5" y="87.2969"/><text fill="#000000" font-family="sans-serif" font-size="20" lengthAdjust="spacing" textLength="195" x="1208.5" y="112.8613">:ListTeacherService</text><rect fill="#E2E2F0" height="37.2813" rx="2.5" ry="2.5" style="stroke:#181818;stroke-width:0.5;" width="209" x="1201.5" y="990.7656"/><text fill="#000000" font-family="sans-serif" font-size="20" lengthAdjust="spacing" textLength="195" x="1208.5" y="1016.3301">:ListTeacherService</text><text fill="#000000" font-family="sans-serif" font-size="20" lengthAdjust="spacing" textLength="182" x="1420.5" y="120.8613">:CourseRepository</text><path d="M1496.5,66.2969 C1496.5,56.2969 1514.5,56.2969 1514.5,56.2969 C1514.5,56.2969 1532.5,56.2969 1532.5,66.2969 L1532.5,92.2969 C1532.5,102.2969 1514.5,102.2969 1514.5,102.2969 C1514.5,102.2969 1496.5,102.2969 1496.5,92.2969 L1496.5,66.2969 " fill="#E2E2F0" style="stroke:#181818;stroke-width:1.5;"/><path d="M1496.5,66.2969 C1496.5,76.2969 1514.5,76.2969 1514.5,76.2969 C1514.5,76.2969 1532.5,76.2969 1532.5,66.2969 " fill="none" style="stroke:#181818;stroke-width:1.5;"/><text fill="#000000" font-family="sans-serif" font-size="20" lengthAdjust="spacing" textLength="182" x="1420.5" y="1009.3301">:CourseRepository</text><path d="M1496.5,1024.0469 C1496.5,1014.0469 1514.5,1014.0469 1514.5,1014.0469 C1514.5,1014.0469 1532.5,1014.0469 1532.5,1024.0469 L1532.5,1050.0469 C1532.5,1060.0469 1514.5,1060.0469 1514.5,1060.0469 C1514.5,1060.0469 1496.5,1060.0469 1496.5,1050.0469 L1496.5,1024.0469 " fill="#E2E2F0" style="stroke:#181818;stroke-width:1.5;"/><path d="M1496.5,1024.0469 C1496.5,1034.0469 1514.5,1034.0469 1514.5,1034.0469 C1514.5,1034.0469 1532.5,1034.0469 1532.5,1024.0469 " fill="none" style="stroke:#181818;stroke-width:1.5;"/><text fill="#000000" font-family="sans-serif" font-size="20" lengthAdjust="spacing" textLength="193" x="1618.5" y="120.8613">:TeacherRepository</text><path d="M1700,66.2969 C1700,56.2969 1718,56.2969 1718,56.2969 C1718,56.2969 1736,56.2969 1736,66.2969 L1736,92.2969 C1736,102.2969 1718,102.2969 1718,102.2969 C1718,102.2969 1700,102.2969 1700,92.2969 L1700,66.2969 " fill="#E2E2F0" style="stroke:#181818;stroke-width:1.5;"/><path d="M1700,66.2969 C1700,76.2969 1718,76.2969 1718,76.2969 C1718,76.2969 1736,76.2969 1736,66.2969 " fill="none" style="stroke:#181818;stroke-width:1.5;"/><text fill="#000000" font-family="sans-serif" font-size="20" lengthAdjust="spacing" textLength="193" x="1618.5" y="1009.3301">:TeacherRepository</text><path d="M1700,1024.0469 C1700,1014.0469 1718,1014.0469 1718,1014.0469 C1718,1014.0469 1736,1014.0469 1736,1024.0469 L1736,1050.0469 C1736,1060.0469 1718,1060.0469 1718,1060.0469 C1718,1060.0469 1700,1060.0469 1700,1050.0469 L1700,1024.0469 " fill="#E2E2F0" style="stroke:#181818;stroke-width:1.5;"/><path d="M1700,1024.0469 C1700,1034.0469 1718,1034.0469 1718,1034.0469 C1718,1034.0469 1736,1034.0469 1736,1024.0469 " fill="none" style="stroke:#181818;stroke-width:1.5;"/><rect fill="#E2E2F0" height="37.2813" rx="2.5" ry="2.5" style="stroke:#181818;stroke-width:0.5;" width="90" x="1827.5" y="87.2969"/><text fill="#000000" font-family="sans-serif" font-size="20" lengthAdjust="spacing" textLength="76" x="1834.5" y="112.8613">:Course</text><rect fill="#E2E2F0" height="37.2813" rx="2.5" ry="2.5" style="stroke:#181818;stroke-width:0.5;" width="90" x="1827.5" y="990.7656"/><text fill="#000000" font-family="sans-serif" font-size="20" lengthAdjust="spacing" textLength="76" x="1834.5" y="1016.3301">:Course</text><rect fill="#FFFFFF" height="838.1875" style="stroke:#181818;stroke-width:1.0;" width="10" x="46.5" y="135.5781"/><rect fill="#FFFFFF" height="808.9063" style="stroke:#181818;stroke-width:1.0;" width="10" x="382.5" y="164.8594"/><rect fill="#FFFFFF" height="186.4063" style="stroke:#181818;stroke-width:1.0;" width="10" x="778.5" y="202.1406"/><rect fill="#FFFFFF" height="186.4063" style="stroke:#181818;stroke-width:1.0;" width="10" x="778.5" y="550.6719"/><rect fill="#FFFFFF" height="74.5625" style="stroke:#181818;stroke-width:1.0;" width="10" x="778.5" y="861.9219"/><rect fill="#FFFFFF" height="111.8438" style="stroke:#181818;stroke-width:1.0;" width="10" x="1087.5" y="239.4219"/><rect fill="#FFFFFF" height="111.8438" style="stroke:#181818;stroke-width:1.0;" width="10" x="1301" y="587.9531"/><rect fill="#FFFFFF" height="37.2813" style="stroke:#181818;stroke-width:1.0;" width="10" x="1509.5" y="276.7031"/><rect fill="#FFFFFF" height="37.2813" style="stroke:#181818;stroke-width:1.0;" width="10" x="1713" y="625.2344"/><polygon fill="#181818" points="370.5,160.8594,380.5,164.8594,370.5,168.8594,374.5,164.8594" style="stroke:#181818;stroke-width:1.0;"/><line style="stroke:#181818;stroke-width:1.0;" x1="56.5" x2="376.5" y1="164.8594" y2="164.8594"/><text fill="#000000" font-family="sans-serif" font-size="20" font-weight="bold" lengthAdjust="spacing" textLength="14" x="63.5" y="158.1426">1</text><text fill="#000000" font-family="sans-serif" font-size="20" lengthAdjust="spacing" textLength="247" x="81.5" y="158.1426">select set teacher option</text><polygon fill="#181818" points="766.5,198.1406,776.5,202.1406,766.5,206.1406,770.5,202.1406" style="stroke:#181818;stroke-width:1.0;"/><line style="stroke:#181818;stroke-width:1.0;" x1="392.5" x2="772.5" y1="202.1406" y2="202.1406"/><text fill="#000000" font-family="sans-serif" font-size="20" font-weight="bold" lengthAdjust="spacing" textLength="14" x="399.5" y="195.4238">2</text><text fill="#000000" font-family="sans-serif" font-size="20" lengthAdjust="spacing" textLength="185" x="417.5" y="195.4238">availableCourses()</text><polygon fill="#181818" points="1075.5,235.4219,1085.5,239.4219,1075.5,243.4219,1079.5,239.4219" style="stroke:#181818;stroke-width:1.0;"/><line style="stroke:#181818;stroke-width:1.0;" x1="788.5" x2="1081.5" y1="239.4219" y2="239.4219"/><text fill="#000000" font-family="sans-serif" font-size="20" font-weight="bold" lengthAdjust="spacing" textLength="14" x="795.5" y="232.7051">3</text><text fill="#000000" font-family="sans-serif" font-size="20" lengthAdjust="spacing" textLength="185" x="813.5" y="232.7051">availableCourses()</text><polygon fill="#181818" points="1497.5,272.7031,1507.5,276.7031,1497.5,280.7031,1501.5,276.7031" style="stroke:#181818;stroke-width:1.0;"/><line style="stroke:#181818;stroke-width:1.0;" x1="1097.5" x2="1503.5" y1="276.7031" y2="276.7031"/><text fill="#000000" font-family="sans-serif" font-size="20" font-weight="bold" lengthAdjust="spacing" textLength="14" x="1104.5" y="269.9863">4</text><text fill="#000000" font-family="sans-serif" font-size="20" lengthAdjust="spacing" textLength="185" x="1122.5" y="269.9863">availableCourses()</text><polygon fill="#181818" points="1108.5,309.9844,1098.5,313.9844,1108.5,317.9844,1104.5,313.9844" style="stroke:#181818;stroke-width:1.0;"/><line style="stroke:#181818;stroke-width:1.0;stroke-dasharray:2.0,2.0;" x1="1102.5" x2="1513.5" y1="313.9844" y2="313.9844"/><text fill="#000000" font-family="sans-serif" font-size="20" font-weight="bold" lengthAdjust="spacing" textLength="14" x="1114.5" y="307.2676">5</text><text fill="#000000" font-family="sans-serif" font-size="20" lengthAdjust="spacing" textLength="259" x="1132.5" y="307.2676">courses that are Available</text><polygon fill="#181818" points="799.5,347.2656,789.5,351.2656,799.5,355.2656,795.5,351.2656" style="stroke:#181818;stroke-width:1.0;"/><line style="stroke:#181818;stroke-width:1.0;stroke-dasharray:2.0,2.0;" x1="793.5" x2="1091.5" y1="351.2656" y2="351.2656"/><text fill="#000000" font-family="sans-serif" font-size="20" font-weight="bold" lengthAdjust="spacing" textLength="14" x="805.5" y="344.5488">6</text><text fill="#000000" font-family="sans-serif" font-size="20" lengthAdjust="spacing" textLength="257" x="823.5" y="344.5488">courses that are available</text><polygon fill="#181818" points="403.5,384.5469,393.5,388.5469,403.5,392.5469,399.5,388.5469" style="stroke:#181818;stroke-width:1.0;"/><line style="stroke:#181818;stroke-width:1.0;stroke-dasharray:2.0,2.0;" x1="397.5" x2="782.5" y1="388.5469" y2="388.5469"/><text fill="#000000" font-family="sans-serif" font-size="20" font-weight="bold" lengthAdjust="spacing" textLength="14" x="409.5" y="381.8301">7</text><text fill="#000000" font-family="sans-serif" font-size="20" lengthAdjust="spacing" textLength="257" x="427.5" y="381.8301">courses that are available</text><line style="stroke:#181818;stroke-width:1.0;" x1="392.5" x2="434.5" y1="425.8281" y2="425.8281"/><line style="stroke:#181818;stroke-width:1.0;" x1="434.5" x2="434.5" y1="425.8281" y2="438.8281"/><line style="stroke:#181818;stroke-width:1.0;" x1="393.5" x2="434.5" y1="438.8281" y2="438.8281"/><polygon fill="#181818" points="403.5,434.8281,393.5,438.8281,403.5,442.8281,399.5,438.8281" style="stroke:#181818;stroke-width:1.0;"/><text fill="#000000" font-family="sans-serif" font-size="20" font-weight="bold" lengthAdjust="spacing" textLength="14" x="399.5" y="419.1113">8</text><text fill="#000000" font-family="sans-serif" font-size="20" lengthAdjust="spacing" textLength="152" x="417.5" y="419.1113">output Courses</text><polygon fill="#181818" points="67.5,472.1094,57.5,476.1094,67.5,480.1094,63.5,476.1094" style="stroke:#181818;stroke-width:1.0;"/><line style="stroke:#181818;stroke-width:1.0;stroke-dasharray:2.0,2.0;" x1="61.5" x2="381.5" y1="476.1094" y2="476.1094"/><text fill="#000000" font-family="sans-serif" font-size="20" font-weight="bold" lengthAdjust="spacing" textLength="14" x="73.5" y="469.3926">9</text><text fill="#000000" font-family="sans-serif" font-size="20" lengthAdjust="spacing" textLength="267" x="91.5" y="469.3926">ask user to select a Course</text><polygon fill="#181818" points="370.5,509.3906,380.5,513.3906,370.5,517.3906,374.5,513.3906" style="stroke:#181818;stroke-width:1.0;"/><line style="stroke:#181818;stroke-width:1.0;stroke-dasharray:2.0,2.0;" x1="56.5" x2="376.5" y1="513.3906" y2="513.3906"/><text fill="#000000" font-family="sans-serif" font-size="20" font-weight="bold" lengthAdjust="spacing" textLength="28" x="63.5" y="506.6738">10</text><text fill="#000000" font-family="sans-serif" font-size="20" lengthAdjust="spacing" textLength="134" x="95.5" y="506.6738">select Course</text><polygon fill="#181818" points="766.5,546.6719,776.5,550.6719,766.5,554.6719,770.5,550.6719" style="stroke:#181818;stroke-width:1.0;"/><line style="stroke:#181818;stroke-width:1.0;" x1="392.5" x2="772.5" y1="550.6719" y2="550.6719"/><text fill="#000000" font-family="sans-serif" font-size="20" font-weight="bold" lengthAdjust="spacing" textLength="28" x="399.5" y="543.9551">11</text><text fill="#000000" font-family="sans-serif" font-size="20" lengthAdjust="spacing" textLength="196" x="431.5" y="543.9551">availableTeachers()</text><polygon fill="#181818" points="1289,583.9531,1299,587.9531,1289,591.9531,1293,587.9531" style="stroke:#181818;stroke-width:1.0;"/><line style="stroke:#181818;stroke-width:1.0;" x1="788.5" x2="1295" y1="587.9531" y2="587.9531"/><text fill="#000000" font-family="sans-serif" font-size="20" font-weight="bold" lengthAdjust="spacing" textLength="28" x="795.5" y="581.2363">12</text><text fill="#000000" font-family="sans-serif" font-size="20" lengthAdjust="spacing" textLength="196" x="827.5" y="581.2363">availableTeachers()</text><polygon fill="#181818" points="1701,621.2344,1711,625.2344,1701,629.2344,1705,625.2344" style="stroke:#181818;stroke-width:1.0;"/><line style="stroke:#181818;stroke-width:1.0;" x1="1311" x2="1707" y1="625.2344" y2="625.2344"/><text fill="#000000" font-family="sans-serif" font-size="20" font-weight="bold" lengthAdjust="spacing" textLength="28" x="1318" y="618.5176">13</text><text fill="#000000" font-family="sans-serif" font-size="20" lengthAdjust="spacing" textLength="196" x="1350" y="618.5176">availableTeachers()</text><polygon fill="#181818" points="1322,658.5156,1312,662.5156,1322,666.5156,1318,662.5156" style="stroke:#181818;stroke-width:1.0;"/><line style="stroke:#181818;stroke-width:1.0;stroke-dasharray:2.0,2.0;" x1="1316" x2="1717" y1="662.5156" y2="662.5156"/><text fill="#000000" font-family="sans-serif" font-size="20" font-weight="bold" lengthAdjust="spacing" textLength="28" x="1328" y="655.7988">14</text><text fill="#000000" font-family="sans-serif" font-size="20" lengthAdjust="spacing" textLength="269" x="1360" y="655.7988">teachers that are Available</text><polygon fill="#181818" points="799.5,695.7969,789.5,699.7969,799.5,703.7969,795.5,699.7969" style="stroke:#181818;stroke-width:1.0;"/><line style="stroke:#181818;stroke-width:1.0;stroke-dasharray:2.0,2.0;" x1="793.5" x2="1305" y1="699.7969" y2="699.7969"/><text fill="#000000" font-family="sans-serif" font-size="20" font-weight="bold" lengthAdjust="spacing" textLength="28" x="805.5" y="693.0801">15</text><text fill="#000000" font-family="sans-serif" font-size="20" lengthAdjust="spacing" textLength="271" x="837.5" y="693.0801">Teachers that are available</text><polygon fill="#181818" points="403.5,733.0781,393.5,737.0781,403.5,741.0781,399.5,737.0781" style="stroke:#181818;stroke-width:1.0;"/><line style="stroke:#181818;stroke-width:1.0;stroke-dasharray:2.0,2.0;" x1="397.5" x2="782.5" y1="737.0781" y2="737.0781"/><text fill="#000000" font-family="sans-serif" font-size="20" font-weight="bold" lengthAdjust="spacing" textLength="28" x="409.5" y="730.3613">16</text><text fill="#000000" font-family="sans-serif" font-size="20" lengthAdjust="spacing" textLength="271" x="441.5" y="730.3613">Teachers that are available</text><line style="stroke:#181818;stroke-width:1.0;" x1="392.5" x2="434.5" y1="774.3594" y2="774.3594"/><line style="stroke:#181818;stroke-width:1.0;" x1="434.5" x2="434.5" y1="774.3594" y2="787.3594"/><line style="stroke:#181818;stroke-width:1.0;" x1="393.5" x2="434.5" y1="787.3594" y2="787.3594"/><polygon fill="#181818" points="403.5,783.3594,393.5,787.3594,403.5,791.3594,399.5,787.3594" style="stroke:#181818;stroke-width:1.0;"/><text fill="#000000" font-family="sans-serif" font-size="20" font-weight="bold" lengthAdjust="spacing" textLength="28" x="399.5" y="767.6426">17</text><text fill="#000000" font-family="sans-serif" font-size="20" lengthAdjust="spacing" textLength="163" x="431.5" y="767.6426">output Teachers</text><polygon fill="#181818" points="67.5,820.6406,57.5,824.6406,67.5,828.6406,63.5,824.6406" style="stroke:#181818;stroke-width:1.0;"/><line style="stroke:#181818;stroke-width:1.0;stroke-dasharray:2.0,2.0;" x1="61.5" x2="381.5" y1="824.6406" y2="824.6406"/><text fill="#000000" font-family="sans-serif" font-size="20" font-weight="bold" lengthAdjust="spacing" textLength="28" x="73.5" y="817.9238">18</text><text fill="#000000" font-family="sans-serif" font-size="20" lengthAdjust="spacing" textLength="270" x="105.5" y="817.9238">ask user to select Teachers</text><polygon fill="#181818" points="766.5,857.9219,776.5,861.9219,766.5,865.9219,770.5,861.9219" style="stroke:#181818;stroke-width:1.0;"/><line style="stroke:#181818;stroke-width:1.0;" x1="392.5" x2="772.5" y1="861.9219" y2="861.9219"/><text fill="#000000" font-family="sans-serif" font-size="20" font-weight="bold" lengthAdjust="spacing" textLength="28" x="399.5" y="855.2051">19</text><text fill="#000000" font-family="sans-serif" font-size="20" lengthAdjust="spacing" textLength="335" x="431.5" y="855.2051">addTeachers(course,teachersSet)</text><polygon fill="#181818" points="1860.5,895.2031,1870.5,899.2031,1860.5,903.2031,1864.5,899.2031" style="stroke:#181818;stroke-width:1.0;"/><line style="stroke:#181818;stroke-width:1.0;" x1="788.5" x2="1866.5" y1="899.2031" y2="899.2031"/><text fill="#000000" font-family="sans-serif" font-size="20" font-weight="bold" lengthAdjust="spacing" textLength="28" x="795.5" y="892.4863">20</text><text fill="#000000" font-family="sans-serif" font-size="20" lengthAdjust="spacing" textLength="230" x="827.5" y="892.4863">addTeachers(teachers)</text><polygon fill="#181818" points="1502.5,932.4844,1512.5,936.4844,1502.5,940.4844,1506.5,936.4844" style="stroke:#181818;stroke-width:1.0;"/><line style="stroke:#181818;stroke-width:1.0;" x1="783.5" x2="1508.5" y1="936.4844" y2="936.4844"/><text fill="#000000" font-family="sans-serif" font-size="20" font-weight="bold" lengthAdjust="spacing" textLength="28" x="790.5" y="929.7676">21</text><text fill="#000000" font-family="sans-serif" font-size="20" lengthAdjust="spacing" textLength="127" x="822.5" y="929.7676">save(course)</text><polygon fill="#181818" points="62.5,969.7656,52.5,973.7656,62.5,977.7656,58.5,973.7656" style="stroke:#181818;stroke-width:1.0;"/><line style="stroke:#181818;stroke-width:1.0;stroke-dasharray:2.0,2.0;" x1="56.5" x2="386.5" y1="973.7656" y2="973.7656"/><text fill="#000000" font-family="sans-serif" font-size="20" font-weight="bold" lengthAdjust="spacing" textLength="28" x="68.5" y="967.0488">22</text><text fill="#000000" font-family="sans-serif" font-size="20" lengthAdjust="spacing" textLength="138" x="100.5" y="967.0488">back to menu</text><!--SRC=[bLLDZzCm4BtdLups0fKeHHnxG4ABa93WGfSVC7M6hLKd3lOu4lnwdFgZpiTsKr-Qn6_UpBnvTkrPjXqQR9GMPwgXfj_e57_LBH_aFuAF7wet9-RExdUxJc7Bhb7lXMvsbluuQWLjQudFFhwgqB5kNNCaKx5aHN3u0biu4CCJeJYHiS0Q41wrCvOg5AmD_C0Mdya0McZ2O-NBOIbavvF1mzx7f_1Vtnu6d9ClGXvzsKOhHUQ256pK1FjTMWu57CZqKj05Q7iHgvgZ8_K47hzMDJ8UqP871uQVr6ahVMj_Br3ZNoDr0OtH2zZ4EwuZC8IU0jaWd-oHASi6a1vX-ycBj0TBYWJx7mOEjA0xbheTi909l9uGbvD3x23R7h17gV2eA2ItRpSPbaCl0aEnXWy3HHRq9i-8wpe3cAoyCp1V1NsLUaHV308MrdKRjgFwWzxUkYTaG4FmEIMTyTIq9blHJTPwbWGNanG9bjKAyeVnh-0i-4QJ33OOBAGTTuxZaRKZW4T4l_b1s3Cuw_tb3tXqNJxdAIQRCr17M0JTTc2w0EwrO8oxpJGrOJg1IowvRYShhaunC-EjFAKhSy9nJvplrBkD-LBcihiyXATPdZNUN4fHcdCDwsft9h9xxBaOaurNrtcAuHYzItBx_vfxJ2ZIJLKm9ghDOaHvlrdiAHQmMILBsVGHnNbekA7MLPD0V-KNRp7aFm00]--></g></svg>