<?xml version="1.0" encoding="UTF-8" standalone="no"?><svg xmlns="http://www.w3.org/2000/svg" xmlns:xlink="http://www.w3.org/1999/xlink" contentStyleType="text/css" height="270px" preserveAspectRatio="none" style="width:425px;height:270px;background:#FFFFFF;" version="1.1" viewBox="0 0 425 270" width="425px" zoomAndPan="magnify"><defs/><g><rect fill="#FFFFFF" height="66.5625" style="stroke:#181818;stroke-width:1.0;" width="10" x="43" y="98.2813"/><rect fill="#FFFFFF" height="37.2813" style="stroke:#181818;stroke-width:1.0;" width="10" x="367" y="127.5625"/><line style="stroke:#181818;stroke-width:0.5;stroke-dasharray:5.0,5.0;" x1="48" x2="48" y1="88.2813" y2="182.8438"/><line style="stroke:#181818;stroke-width:0.5;stroke-dasharray:5.0,5.0;" x1="371.5" x2="371.5" y1="88.2813" y2="182.8438"/><text fill="#000000" font-family="sans-serif" font-size="20" lengthAdjust="spacing" textLength="80" x="5" y="83.5645">Student</text><ellipse cx="48" cy="13.5" fill="#E2E2F0" rx="8" ry="8" style="stroke:#181818;stroke-width:0.5;"/><path d="M48,21.5 L48,48.5 M35,29.5 L61,29.5 M48,48.5 L35,63.5 M48,48.5 L61,63.5 " fill="none" style="stroke:#181818;stroke-width:0.5;"/><text fill="#000000" font-family="sans-serif" font-size="20" lengthAdjust="spacing" textLength="80" x="5" y="200.4082">Student</text><ellipse cx="48" cy="213.625" fill="#E2E2F0" rx="8" ry="8" style="stroke:#181818;stroke-width:0.5;"/><path d="M48,221.625 L48,248.625 M35,229.625 L61,229.625 M48,248.625 L35,263.625 M48,248.625 L61,263.625 " fill="none" style="stroke:#181818;stroke-width:0.5;"/><rect fill="#E2E2F0" height="37.2813" rx="2.5" ry="2.5" style="stroke:#181818;stroke-width:0.5;" width="95" x="324.5" y="50"/><text fill="#000000" font-family="sans-serif" font-size="20" lengthAdjust="spacing" textLength="81" x="331.5" y="75.5645">:System</text><rect fill="#E2E2F0" height="37.2813" rx="2.5" ry="2.5" style="stroke:#181818;stroke-width:0.5;" width="95" x="324.5" y="181.8438"/><text fill="#000000" font-family="sans-serif" font-size="20" lengthAdjust="spacing" textLength="81" x="331.5" y="207.4082">:System</text><rect fill="#FFFFFF" height="66.5625" style="stroke:#181818;stroke-width:1.0;" width="10" x="43" y="98.2813"/><rect fill="#FFFFFF" height="37.2813" style="stroke:#181818;stroke-width:1.0;" width="10" x="367" y="127.5625"/><polygon fill="#181818" points="355,123.5625,365,127.5625,355,131.5625,359,127.5625" style="stroke:#181818;stroke-width:1.0;"/><line style="stroke:#181818;stroke-width:1.0;" x1="53" x2="361" y1="127.5625" y2="127.5625"/><text fill="#000000" font-family="sans-serif" font-size="20" font-weight="bold" lengthAdjust="spacing" textLength="14" x="60" y="120.8457">1</text><text fill="#000000" font-family="sans-serif" font-size="20" lengthAdjust="spacing" textLength="277" x="78" y="120.8457">selects option "List Grades"</text><polygon fill="#181818" points="59,160.8438,49,164.8438,59,168.8438,55,164.8438" style="stroke:#181818;stroke-width:1.0;"/><line style="stroke:#181818;stroke-width:1.0;stroke-dasharray:2.0,2.0;" x1="53" x2="371" y1="164.8438" y2="164.8438"/><text fill="#000000" font-family="sans-serif" font-size="20" font-weight="bold" lengthAdjust="spacing" textLength="14" x="65" y="158.127">2</text><text fill="#000000" font-family="sans-serif" font-size="20" lengthAdjust="spacing" textLength="197" x="83" y="158.127">shows list of grades</text><!--SRC=[RSun3i8m38NXFQUmibT2Z1qOOM5BBs0Q5wAcSHKx83Wz2GDbOFIJlb-MEQGLCowHnvayU9gmH3roKXTU1FkTmQASodAXR71Kpc2T5az9BQ206qoRmnsLsk46w0vWU_SKfSL23qAHHXNWLGCdiESW2gUCdiHkz2lCPhjQghsQkF5383R84rm_rdZwWt_6-imR]--></g></svg>