<?xml version="1.0" encoding="UTF-8" standalone="no"?><svg xmlns="http://www.w3.org/2000/svg" xmlns:xlink="http://www.w3.org/1999/xlink" contentStyleType="text/css" height="1547px" preserveAspectRatio="none" style="width:1991px;height:1547px;background:#FFFFFF;" version="1.1" viewBox="0 0 1991 1547" width="1991px" zoomAndPan="magnify"><defs/><g><text fill="#000000" font-family="sans-serif" font-size="14" font-weight="bold" lengthAdjust="spacing" textLength="293" x="842.25" y="22.9951">Student Lists Grades - Class Diagram</text><!--cluster Domain--><g id="cluster_Domain"><path d="M693.5,1003.5137 L781.5,1003.5137 A3.75,3.75 0 0 1 784,1006.0137 L791,1032.7949 L1633.5,1032.7949 A2.5,2.5 0 0 1 1636,1035.2949 L1636,1538.0137 A2.5,2.5 0 0 1 1633.5,1540.5137 L693.5,1540.5137 A2.5,2.5 0 0 1 691,1538.0137 L691,1006.0137 A2.5,2.5 0 0 1 693.5,1003.5137 " fill="#D3D3D3" style="stroke:#000000;stroke-width:1.5;"/><line style="stroke:#000000;stroke-width:1.5;" x1="691" x2="791" y1="1032.7949" y2="1032.7949"/><text fill="#000000" font-family="sans-serif" font-size="20" font-weight="bold" lengthAdjust="spacing" textLength="87" x="695" y="1024.0781">Domain</text></g><!--cluster Repositories--><g id="cluster_Repositories"><path d="M8.5,830.5137 L152.5,830.5137 A3.75,3.75 0 0 1 155,833.0137 L162,859.7949 L1818.5,859.7949 A2.5,2.5 0 0 1 1821,862.2949 L1821,959.0137 A2.5,2.5 0 0 1 1818.5,961.5137 L8.5,961.5137 A2.5,2.5 0 0 1 6,959.0137 L6,833.0137 A2.5,2.5 0 0 1 8.5,830.5137 " fill="#D3D3D3" style="stroke:#000000;stroke-width:1.5;"/><line style="stroke:#000000;stroke-width:1.5;" x1="6" x2="162" y1="859.7949" y2="859.7949"/><text fill="#000000" font-family="sans-serif" font-size="20" font-weight="bold" lengthAdjust="spacing" textLength="143" x="10" y="851.0781">Repositories</text></g><!--cluster Application--><g id="cluster_Application"><path d="M867.5,241.5137 L996.5,241.5137 A3.75,3.75 0 0 1 999,244.0137 L1006,270.7949 L1398.5,270.7949 A2.5,2.5 0 0 1 1401,273.2949 L1401,370.0137 A2.5,2.5 0 0 1 1398.5,372.5137 L867.5,372.5137 A2.5,2.5 0 0 1 865,370.0137 L865,244.0137 A2.5,2.5 0 0 1 867.5,241.5137 " fill="#D3D3D3" style="stroke:#000000;stroke-width:1.5;"/><line style="stroke:#000000;stroke-width:1.5;" x1="865" x2="1006" y1="270.7949" y2="270.7949"/><text fill="#000000" font-family="sans-serif" font-size="20" font-weight="bold" lengthAdjust="spacing" textLength="128" x="869" y="262.0781">Application</text></g><!--cluster Presentation--><g id="cluster_Presentation"><path d="M1314.5,44.5137 L1463.5,44.5137 A3.75,3.75 0 0 1 1466,47.0137 L1473,73.7949 L1583.5,73.7949 A2.5,2.5 0 0 1 1586,76.2949 L1586,197.0137 A2.5,2.5 0 0 1 1583.5,199.5137 L1314.5,199.5137 A2.5,2.5 0 0 1 1312,197.0137 L1312,47.0137 A2.5,2.5 0 0 1 1314.5,44.5137 " fill="#D3D3D3" style="stroke:#000000;stroke-width:1.5;"/><line style="stroke:#000000;stroke-width:1.5;" x1="1312" x2="1473" y1="73.7949" y2="73.7949"/><text fill="#000000" font-family="sans-serif" font-size="20" font-weight="bold" lengthAdjust="spacing" textLength="148" x="1316" y="65.0781">Presentation</text></g><!--cluster Persistence--><g id="cluster_Persistence"><path d="M279.5,414.5137 L414.5,414.5137 A3.75,3.75 0 0 1 417,417.0137 L424,443.7949 L644.5,443.7949 A2.5,2.5 0 0 1 647,446.2949 L647,543.0137 A2.5,2.5 0 0 1 644.5,545.5137 L279.5,545.5137 A2.5,2.5 0 0 1 277,543.0137 L277,417.0137 A2.5,2.5 0 0 1 279.5,414.5137 " fill="#D3D3D3" style="stroke:#000000;stroke-width:1.5;"/><line style="stroke:#000000;stroke-width:1.5;" x1="277" x2="424" y1="443.7949" y2="443.7949"/><text fill="#000000" font-family="sans-serif" font-size="20" font-weight="bold" lengthAdjust="spacing" textLength="134" x="281" y="435.0781">Persistence</text></g><!--cluster Factory--><g id="cluster_Factory"><path d="M418.5,587.5137 L506.5,587.5137 A3.75,3.75 0 0 1 509,590.0137 L516,616.7949 L927.5,616.7949 A2.5,2.5 0 0 1 930,619.2949 L930,786.0137 A2.5,2.5 0 0 1 927.5,788.5137 L418.5,788.5137 A2.5,2.5 0 0 1 416,786.0137 L416,590.0137 A2.5,2.5 0 0 1 418.5,587.5137 " fill="#D3D3D3" style="stroke:#000000;stroke-width:1.5;"/><line style="stroke:#000000;stroke-width:1.5;" x1="416" x2="516" y1="616.7949" y2="616.7949"/><text fill="#000000" font-family="sans-serif" font-size="20" font-weight="bold" lengthAdjust="spacing" textLength="87" x="420" y="608.0781">Factory</text></g><!--class Student--><g id="elem_Student"><rect codeLine="17" fill="#F1F1F1" height="212.9688" id="Student" rx="2.5" ry="2.5" style="stroke:#181818;stroke-width:0.5;" width="537" x="1082.5" y="1311.5137"/><ellipse cx="1306.5" cy="1328.5137" fill="#ADD1B2" rx="12" ry="12" style="stroke:#181818;stroke-width:1.0;"/><path d="M1309.5625,1335.5918 Q1308.875,1335.9512 1308.125,1336.123 Q1307.375,1336.2949 1306.5469,1336.2949 Q1303.5938,1336.2949 1302.0313,1334.3574 Q1300.4844,1332.4043 1300.4844,1328.7324 Q1300.4844,1325.0605 1302.0313,1323.123 Q1303.5938,1321.1699 1306.5469,1321.1699 Q1307.375,1321.1699 1308.125,1321.3418 Q1308.8906,1321.5137 1309.5625,1321.873 L1309.5625,1325.0762 Q1308.8125,1324.3887 1308.1094,1324.0762 Q1307.4219,1323.7637 1306.6719,1323.7637 Q1305.0938,1323.7637 1304.2813,1325.0137 Q1303.4844,1326.2637 1303.4844,1328.7324 Q1303.4844,1331.2012 1304.2813,1332.4512 Q1305.0938,1333.7012 1306.6719,1333.7012 Q1307.4219,1333.7012 1308.1094,1333.3887 Q1308.8125,1333.0762 1309.5625,1332.3887 L1309.5625,1335.5918 Z " fill="#000000"/><text fill="#000000" font-family="sans-serif" font-size="20" lengthAdjust="spacing" textLength="80" x="1328.5" y="1335.4375">Student</text><line style="stroke:#181818;stroke-width:0.5;" x1="1083.5" x2="1618.5" y1="1345.5137" y2="1345.5137"/><rect fill="none" height="6" style="stroke:#C82930;stroke-width:1.0;" width="6" x="1090.5" y="1359.6543"/><text fill="#000000" font-family="sans-serif" font-size="20" lengthAdjust="spacing" textLength="134" x="1103.5" y="1368.0781">version: Long</text><rect fill="none" height="6" style="stroke:#C82930;stroke-width:1.0;" width="6" x="1090.5" y="1382.9355"/><text fill="#000000" font-family="sans-serif" font-size="20" lengthAdjust="spacing" textLength="286" x="1103.5" y="1391.3594">emailAddress: EmailAddress</text><rect fill="none" height="6" style="stroke:#C82930;stroke-width:1.0;" width="6" x="1090.5" y="1406.2168"/><text fill="#000000" font-family="sans-serif" font-size="20" lengthAdjust="spacing" textLength="219" x="1103.5" y="1414.6406">taxPayerNumber: TPN</text><rect fill="none" height="6" style="stroke:#C82930;stroke-width:1.0;" width="6" x="1090.5" y="1429.498"/><text fill="#000000" font-family="sans-serif" font-size="20" lengthAdjust="spacing" textLength="165" x="1103.5" y="1437.9219">fullName: String</text><rect fill="none" height="6" style="stroke:#C82930;stroke-width:1.0;" width="6" x="1090.5" y="1452.7793"/><text fill="#000000" font-family="sans-serif" font-size="20" lengthAdjust="spacing" textLength="184" x="1103.5" y="1461.2031">shortName: String</text><rect fill="none" height="6" style="stroke:#C82930;stroke-width:1.0;" width="6" x="1090.5" y="1476.0605"/><text fill="#000000" font-family="sans-serif" font-size="20" lengthAdjust="spacing" textLength="153" x="1103.5" y="1484.4844">birthdate: Date</text><rect fill="none" height="6" style="stroke:#C82930;stroke-width:1.0;" width="6" x="1090.5" y="1499.3418"/><text fill="#000000" font-family="sans-serif" font-size="20" lengthAdjust="spacing" textLength="510" x="1103.5" y="1507.7656">mechanographicNumber: MechanographicNumber</text><line style="stroke:#181818;stroke-width:0.5;" x1="1083.5" x2="1618.5" y1="1516.4824" y2="1516.4824"/></g><!--class CourseEnrollment--><g id="elem_CourseEnrollment"><rect codeLine="27" fill="#F1F1F1" height="119.8438" id="CourseEnrollment" rx="2.5" ry="2.5" style="stroke:#181818;stroke-width:0.5;" width="566" x="707" y="1068.5137"/><ellipse cx="895.5" cy="1085.5137" fill="#ADD1B2" rx="12" ry="12" style="stroke:#181818;stroke-width:1.0;"/><path d="M898.5625,1092.5918 Q897.875,1092.9512 897.125,1093.123 Q896.375,1093.2949 895.5469,1093.2949 Q892.5938,1093.2949 891.0313,1091.3574 Q889.4844,1089.4043 889.4844,1085.7324 Q889.4844,1082.0605 891.0313,1080.123 Q892.5938,1078.1699 895.5469,1078.1699 Q896.375,1078.1699 897.125,1078.3418 Q897.8906,1078.5137 898.5625,1078.873 L898.5625,1082.0762 Q897.8125,1081.3887 897.1094,1081.0762 Q896.4219,1080.7637 895.6719,1080.7637 Q894.0938,1080.7637 893.2813,1082.0137 Q892.4844,1083.2637 892.4844,1085.7324 Q892.4844,1088.2012 893.2813,1089.4512 Q894.0938,1090.7012 895.6719,1090.7012 Q896.4219,1090.7012 897.1094,1090.3887 Q897.8125,1090.0762 898.5625,1089.3887 L898.5625,1092.5918 Z " fill="#000000"/><text fill="#000000" font-family="sans-serif" font-size="20" lengthAdjust="spacing" textLength="180" x="917.5" y="1092.4375">CourseEnrollment</text><line style="stroke:#181818;stroke-width:0.5;" x1="708" x2="1272" y1="1102.5137" y2="1102.5137"/><rect fill="none" height="6" style="stroke:#C82930;stroke-width:1.0;" width="6" x="715" y="1116.6543"/><text fill="#000000" font-family="sans-serif" font-size="20" lengthAdjust="spacing" textLength="258" x="728" y="1125.0781">courseEnrollmentId: Long</text><rect fill="none" height="6" style="stroke:#C82930;stroke-width:1.0;" width="6" x="715" y="1139.9355"/><text fill="#000000" font-family="sans-serif" font-size="20" lengthAdjust="spacing" textLength="539" x="728" y="1148.3594">enrollmentApplications: Set&lt;EnrollmentApplication&gt;</text><rect fill="none" height="6" style="stroke:#C82930;stroke-width:1.0;" width="6" x="715" y="1163.2168"/><text fill="#000000" font-family="sans-serif" font-size="20" lengthAdjust="spacing" textLength="148" x="728" y="1171.6406">course: Course</text><line style="stroke:#181818;stroke-width:0.5;" x1="708" x2="1272" y1="1180.3574" y2="1180.3574"/></g><!--class Exam--><g id="elem_Exam"><rect codeLine="33" fill="#F1F1F1" height="166.4063" id="Exam" rx="2.5" ry="2.5" style="stroke:#181818;stroke-width:0.5;" width="295" x="707.5" y="1335.0137"/><ellipse cx="822.5" cy="1352.0137" fill="#ADD1B2" rx="12" ry="12" style="stroke:#181818;stroke-width:1.0;"/><path d="M825.5625,1359.0918 Q824.875,1359.4512 824.125,1359.623 Q823.375,1359.7949 822.5469,1359.7949 Q819.5938,1359.7949 818.0313,1357.8574 Q816.4844,1355.9043 816.4844,1352.2324 Q816.4844,1348.5605 818.0313,1346.623 Q819.5938,1344.6699 822.5469,1344.6699 Q823.375,1344.6699 824.125,1344.8418 Q824.8906,1345.0137 825.5625,1345.373 L825.5625,1348.5762 Q824.8125,1347.8887 824.1094,1347.5762 Q823.4219,1347.2637 822.6719,1347.2637 Q821.0938,1347.2637 820.2813,1348.5137 Q819.4844,1349.7637 819.4844,1352.2324 Q819.4844,1354.7012 820.2813,1355.9512 Q821.0938,1357.2012 822.6719,1357.2012 Q823.4219,1357.2012 824.1094,1356.8887 Q824.8125,1356.5762 825.5625,1355.8887 L825.5625,1359.0918 Z " fill="#000000"/><text fill="#000000" font-family="sans-serif" font-size="20" lengthAdjust="spacing" textLength="56" x="844.5" y="1358.9375">Exam</text><line style="stroke:#181818;stroke-width:0.5;" x1="708.5" x2="1001.5" y1="1369.0137" y2="1369.0137"/><rect fill="none" height="6" style="stroke:#C82930;stroke-width:1.0;" width="6" x="715.5" y="1383.1543"/><text fill="#000000" font-family="sans-serif" font-size="20" lengthAdjust="spacing" textLength="81" x="728.5" y="1391.5781">id: Long</text><rect fill="none" height="6" style="stroke:#C82930;stroke-width:1.0;" width="6" x="715.5" y="1406.4355"/><text fill="#000000" font-family="sans-serif" font-size="20" lengthAdjust="spacing" textLength="173" x="728.5" y="1414.8594">examTitle: String</text><rect fill="none" height="6" style="stroke:#C82930;stroke-width:1.0;" width="6" x="715.5" y="1429.7168"/><text fill="#000000" font-family="sans-serif" font-size="20" lengthAdjust="spacing" textLength="148" x="728.5" y="1438.1406">course: Course</text><rect fill="none" height="6" style="stroke:#C82930;stroke-width:1.0;" width="6" x="715.5" y="1452.998"/><text fill="#000000" font-family="sans-serif" font-size="20" lengthAdjust="spacing" textLength="268" x="728.5" y="1461.4219">examHeader: ExamHeader</text><rect fill="none" height="6" style="stroke:#C82930;stroke-width:1.0;" width="6" x="715.5" y="1476.2793"/><text fill="#000000" font-family="sans-serif" font-size="20" lengthAdjust="spacing" textLength="237" x="728.5" y="1484.7031">sections: Set&lt;Section&gt;</text><line style="stroke:#181818;stroke-width:0.5;" x1="708.5" x2="1001.5" y1="1493.4199" y2="1493.4199"/></g><!--class ExamExecution--><g id="elem_ExamExecution"><rect codeLine="41" fill="#F1F1F1" height="166.4063" id="ExamExecution" rx="2.5" ry="2.5" style="stroke:#181818;stroke-width:0.5;" width="262" x="1356" y="1045.5137"/><ellipse cx="1405" cy="1062.5137" fill="#ADD1B2" rx="12" ry="12" style="stroke:#181818;stroke-width:1.0;"/><path d="M1408.0625,1069.5918 Q1407.375,1069.9512 1406.625,1070.123 Q1405.875,1070.2949 1405.0469,1070.2949 Q1402.0938,1070.2949 1400.5313,1068.3574 Q1398.9844,1066.4043 1398.9844,1062.7324 Q1398.9844,1059.0605 1400.5313,1057.123 Q1402.0938,1055.1699 1405.0469,1055.1699 Q1405.875,1055.1699 1406.625,1055.3418 Q1407.3906,1055.5137 1408.0625,1055.873 L1408.0625,1059.0762 Q1407.3125,1058.3887 1406.6094,1058.0762 Q1405.9219,1057.7637 1405.1719,1057.7637 Q1403.5938,1057.7637 1402.7813,1059.0137 Q1401.9844,1060.2637 1401.9844,1062.7324 Q1401.9844,1065.2012 1402.7813,1066.4512 Q1403.5938,1067.7012 1405.1719,1067.7012 Q1405.9219,1067.7012 1406.6094,1067.3887 Q1407.3125,1067.0762 1408.0625,1066.3887 L1408.0625,1069.5918 Z " fill="#000000"/><text fill="#000000" font-family="sans-serif" font-size="20" lengthAdjust="spacing" textLength="155" x="1427" y="1069.4375">ExamExecution</text><line style="stroke:#181818;stroke-width:0.5;" x1="1357" x2="1617" y1="1079.5137" y2="1079.5137"/><rect fill="none" height="6" style="stroke:#C82930;stroke-width:1.0;" width="6" x="1364" y="1093.6543"/><text fill="#000000" font-family="sans-serif" font-size="20" lengthAdjust="spacing" textLength="235" x="1377" y="1102.0781">examExecutionId: Long</text><rect fill="none" height="6" style="stroke:#C82930;stroke-width:1.0;" width="6" x="1364" y="1116.9355"/><text fill="#000000" font-family="sans-serif" font-size="20" lengthAdjust="spacing" textLength="207" x="1377" y="1125.3594">beginDate: Calendar</text><rect fill="none" height="6" style="stroke:#C82930;stroke-width:1.0;" width="6" x="1364" y="1140.2168"/><text fill="#000000" font-family="sans-serif" font-size="20" lengthAdjust="spacing" textLength="170" x="1377" y="1148.6406">student: Student</text><rect fill="none" height="6" style="stroke:#C82930;stroke-width:1.0;" width="6" x="1364" y="1163.498"/><text fill="#000000" font-family="sans-serif" font-size="20" lengthAdjust="spacing" textLength="124" x="1377" y="1171.9219">exam: Exam</text><rect fill="none" height="6" style="stroke:#C82930;stroke-width:1.0;" width="6" x="1364" y="1186.7793"/><text fill="#000000" font-family="sans-serif" font-size="20" lengthAdjust="spacing" textLength="121" x="1377" y="1195.2031">grade: Float</text><line style="stroke:#181818;stroke-width:0.5;" x1="1357" x2="1617" y1="1203.9199" y2="1203.9199"/></g><!--class StudentRepository--><g id="elem_StudentRepository"><rect codeLine="51" fill="#F1F1F1" height="73.2813" id="StudentRepository" rx="2.5" ry="2.5" style="stroke:#181818;stroke-width:0.5;" width="387" x="300.5" y="872.5137"/><ellipse cx="396" cy="889.5137" fill="#B4A7E5" rx="12" ry="12" style="stroke:#181818;stroke-width:1.0;"/><path d="M391.1875,884.9668 L391.1875,882.4355 L399.8594,882.4355 L399.8594,884.9668 L396.9688,884.9668 L396.9688,894.4668 L399.8594,894.4668 L399.8594,897.0137 L391.1875,897.0137 L391.1875,894.4668 L394.0781,894.4668 L394.0781,884.9668 L391.1875,884.9668 Z " fill="#000000"/><text fill="#000000" font-family="sans-serif" font-size="20" font-style="italic" lengthAdjust="spacing" textLength="187" x="418" y="896.4375">StudentRepository</text><line style="stroke:#181818;stroke-width:0.5;" x1="301.5" x2="686.5" y1="906.5137" y2="906.5137"/><line style="stroke:#181818;stroke-width:0.5;" x1="301.5" x2="686.5" y1="914.5137" y2="914.5137"/><ellipse cx="311.5" cy="931.6543" fill="#84BE84" rx="3" ry="3" style="stroke:#038048;stroke-width:1.0;"/><text fill="#000000" font-family="sans-serif" font-size="20" lengthAdjust="spacing" textLength="360" x="321.5" y="937.0781">findByEmail(email: String): Student</text></g><!--class CourseEnrollmentRepository--><g id="elem_CourseEnrollmentRepository"><rect codeLine="55" fill="#F1F1F1" height="50" id="CourseEnrollmentRepository" rx="2.5" ry="2.5" style="stroke:#181818;stroke-width:0.5;" width="321" x="767.5" y="884.0137"/><ellipse cx="783.5" cy="901.0137" fill="#B4A7E5" rx="12" ry="12" style="stroke:#181818;stroke-width:1.0;"/><path d="M778.6875,896.4668 L778.6875,893.9355 L787.3594,893.9355 L787.3594,896.4668 L784.4688,896.4668 L784.4688,905.9668 L787.3594,905.9668 L787.3594,908.5137 L778.6875,908.5137 L778.6875,905.9668 L781.5781,905.9668 L781.5781,896.4668 L778.6875,896.4668 Z " fill="#000000"/><text fill="#000000" font-family="sans-serif" font-size="20" font-style="italic" lengthAdjust="spacing" textLength="287" x="798.5" y="907.9375">CourseEnrollmentRepository</text><line style="stroke:#181818;stroke-width:0.5;" x1="768.5" x2="1087.5" y1="918.0137" y2="918.0137"/><line style="stroke:#181818;stroke-width:0.5;" x1="768.5" x2="1087.5" y1="926.0137" y2="926.0137"/></g><!--class ExamRepository--><g id="elem_ExamRepository"><rect codeLine="58" fill="#F1F1F1" height="50" id="ExamRepository" rx="2.5" ry="2.5" style="stroke:#181818;stroke-width:0.5;" width="198" x="22" y="884.0137"/><ellipse cx="38" cy="901.0137" fill="#B4A7E5" rx="12" ry="12" style="stroke:#181818;stroke-width:1.0;"/><path d="M33.1875,896.4668 L33.1875,893.9355 L41.8594,893.9355 L41.8594,896.4668 L38.9688,896.4668 L38.9688,905.9668 L41.8594,905.9668 L41.8594,908.5137 L33.1875,908.5137 L33.1875,905.9668 L36.0781,905.9668 L36.0781,896.4668 L33.1875,896.4668 Z " fill="#000000"/><text fill="#000000" font-family="sans-serif" font-size="20" font-style="italic" lengthAdjust="spacing" textLength="164" x="53" y="907.9375">ExamRepository</text><line style="stroke:#181818;stroke-width:0.5;" x1="23" x2="219" y1="918.0137" y2="918.0137"/><line style="stroke:#181818;stroke-width:0.5;" x1="23" x2="219" y1="926.0137" y2="926.0137"/></g><!--class ExamExecutionRepository--><g id="elem_ExamExecutionRepository"><rect codeLine="61" fill="#F1F1F1" height="73.2813" id="ExamExecutionRepository" rx="2.5" ry="2.5" style="stroke:#181818;stroke-width:0.5;" width="636" x="1169" y="872.5137"/><ellipse cx="1350.5" cy="889.5137" fill="#B4A7E5" rx="12" ry="12" style="stroke:#181818;stroke-width:1.0;"/><path d="M1345.6875,884.9668 L1345.6875,882.4355 L1354.3594,882.4355 L1354.3594,884.9668 L1351.4688,884.9668 L1351.4688,894.4668 L1354.3594,894.4668 L1354.3594,897.0137 L1345.6875,897.0137 L1345.6875,894.4668 L1348.5781,894.4668 L1348.5781,884.9668 L1345.6875,884.9668 Z " fill="#000000"/><text fill="#000000" font-family="sans-serif" font-size="20" font-style="italic" lengthAdjust="spacing" textLength="264" x="1372.5" y="896.4375">ExamExecutionRepository</text><line style="stroke:#181818;stroke-width:0.5;" x1="1170" x2="1804" y1="906.5137" y2="906.5137"/><line style="stroke:#181818;stroke-width:0.5;" x1="1170" x2="1804" y1="914.5137" y2="914.5137"/><ellipse cx="1180" cy="931.6543" fill="#84BE84" rx="3" ry="3" style="stroke:#038048;stroke-width:1.0;"/><text fill="#000000" font-family="sans-serif" font-size="20" lengthAdjust="spacing" textLength="609" x="1190" y="937.0781">findByStudent(student: Student): Iterable&lt;ExamExecution&gt;</text></g><!--class ListStudentGradesController--><g id="elem_ListStudentGradesController"><rect codeLine="71" fill="#F1F1F1" height="73.2813" id="ListStudentGradesController" rx="2.5" ry="2.5" style="stroke:#181818;stroke-width:0.5;" width="503" x="881.5" y="283.5137"/><ellipse cx="986" cy="300.5137" fill="#ADD1B2" rx="12" ry="12" style="stroke:#181818;stroke-width:1.0;"/><path d="M989.0625,307.5918 Q988.375,307.9512 987.625,308.123 Q986.875,308.2949 986.0469,308.2949 Q983.0938,308.2949 981.5313,306.3574 Q979.9844,304.4043 979.9844,300.7324 Q979.9844,297.0605 981.5313,295.123 Q983.0938,293.1699 986.0469,293.1699 Q986.875,293.1699 987.625,293.3418 Q988.3906,293.5137 989.0625,293.873 L989.0625,297.0762 Q988.3125,296.3887 987.6094,296.0762 Q986.9219,295.7637 986.1719,295.7637 Q984.5938,295.7637 983.7813,297.0137 Q982.9844,298.2637 982.9844,300.7324 Q982.9844,303.2012 983.7813,304.4512 Q984.5938,305.7012 986.1719,305.7012 Q986.9219,305.7012 987.6094,305.3887 Q988.3125,305.0762 989.0625,304.3887 L989.0625,307.5918 Z " fill="#000000"/><text fill="#000000" font-family="sans-serif" font-size="20" lengthAdjust="spacing" textLength="285" x="1008" y="307.4375">ListStudentGradesController</text><line style="stroke:#181818;stroke-width:0.5;" x1="882.5" x2="1383.5" y1="317.5137" y2="317.5137"/><line style="stroke:#181818;stroke-width:0.5;" x1="882.5" x2="1383.5" y1="325.5137" y2="325.5137"/><ellipse cx="892.5" cy="342.6543" fill="#84BE84" rx="3" ry="3" style="stroke:#038048;stroke-width:1.0;"/><text fill="#000000" font-family="sans-serif" font-size="20" lengthAdjust="spacing" textLength="476" x="902.5" y="348.0781">listStudentGrades(): Iterable&lt;ExamExecution&gt;</text></g><!--class ListStudentGradesUI--><g id="elem_ListStudentGradesUI"><rect codeLine="76" fill="#F1F1F1" height="96.5625" id="ListStudentGradesUI" rx="2.5" ry="2.5" style="stroke:#181818;stroke-width:0.5;" width="241" x="1328.5" y="86.5137"/><ellipse cx="1344.5" cy="103.5137" fill="#ADD1B2" rx="12" ry="12" style="stroke:#181818;stroke-width:1.0;"/><path d="M1347.5625,110.5918 Q1346.875,110.9512 1346.125,111.123 Q1345.375,111.2949 1344.5469,111.2949 Q1341.5938,111.2949 1340.0313,109.3574 Q1338.4844,107.4043 1338.4844,103.7324 Q1338.4844,100.0605 1340.0313,98.123 Q1341.5938,96.1699 1344.5469,96.1699 Q1345.375,96.1699 1346.125,96.3418 Q1346.8906,96.5137 1347.5625,96.873 L1347.5625,100.0762 Q1346.8125,99.3887 1346.1094,99.0762 Q1345.4219,98.7637 1344.6719,98.7637 Q1343.0938,98.7637 1342.2813,100.0137 Q1341.4844,101.2637 1341.4844,103.7324 Q1341.4844,106.2012 1342.2813,107.4512 Q1343.0938,108.7012 1344.6719,108.7012 Q1345.4219,108.7012 1346.1094,108.3887 Q1346.8125,108.0762 1347.5625,107.3887 L1347.5625,110.5918 Z " fill="#000000"/><text fill="#000000" font-family="sans-serif" font-size="20" lengthAdjust="spacing" textLength="207" x="1359.5" y="110.4375">ListStudentGradesUI</text><line style="stroke:#181818;stroke-width:0.5;" x1="1329.5" x2="1568.5" y1="120.5137" y2="120.5137"/><ellipse cx="1339.5" cy="137.6543" fill="none" rx="3" ry="3" style="stroke:#038048;stroke-width:1.0;"/><text fill="#000000" font-family="sans-serif" font-size="20" lengthAdjust="spacing" textLength="161" x="1349.5" y="143.0781">headline: String</text><line style="stroke:#181818;stroke-width:0.5;" x1="1329.5" x2="1568.5" y1="151.7949" y2="151.7949"/><ellipse cx="1339.5" cy="168.9355" fill="#84BE84" rx="3" ry="3" style="stroke:#038048;stroke-width:1.0;"/><text fill="#000000" font-family="sans-serif" font-size="20" lengthAdjust="spacing" textLength="189" x="1349.5" y="174.3594">doShow(): boolean</text></g><!--class PersistenceContext--><g id="elem_PersistenceContext"><rect codeLine="82" fill="#F1F1F1" height="73.2813" id="PersistenceContext" rx="2.5" ry="2.5" style="stroke:#181818;stroke-width:0.5;" width="337" x="293.5" y="456.5137"/><ellipse cx="361.5" cy="473.5137" fill="#ADD1B2" rx="12" ry="12" style="stroke:#181818;stroke-width:1.0;"/><path d="M364.5625,480.5918 Q363.875,480.9512 363.125,481.123 Q362.375,481.2949 361.5469,481.2949 Q358.5938,481.2949 357.0313,479.3574 Q355.4844,477.4043 355.4844,473.7324 Q355.4844,470.0605 357.0313,468.123 Q358.5938,466.1699 361.5469,466.1699 Q362.375,466.1699 363.125,466.3418 Q363.8906,466.5137 364.5625,466.873 L364.5625,470.0762 Q363.8125,469.3887 363.1094,469.0762 Q362.4219,468.7637 361.6719,468.7637 Q360.0938,468.7637 359.2813,470.0137 Q358.4844,471.2637 358.4844,473.7324 Q358.4844,476.2012 359.2813,477.4512 Q360.0938,478.7012 361.6719,478.7012 Q362.4219,478.7012 363.1094,478.3887 Q363.8125,478.0762 364.5625,477.3887 L364.5625,480.5918 Z " fill="#000000"/><text fill="#000000" font-family="sans-serif" font-size="20" lengthAdjust="spacing" textLength="192" x="383.5" y="480.4375">PersistenceContext</text><line style="stroke:#181818;stroke-width:0.5;" x1="294.5" x2="629.5" y1="490.5137" y2="490.5137"/><ellipse cx="304.5" cy="507.6543" fill="none" rx="3" ry="3" style="stroke:#038048;stroke-width:1.0;"/><text fill="#000000" font-family="sans-serif" font-size="20" lengthAdjust="spacing" textLength="310" x="314.5" y="513.0781">repositories: RepositoryFactory</text><line style="stroke:#181818;stroke-width:0.5;" x1="294.5" x2="629.5" y1="521.7949" y2="521.7949"/></g><!--class RepositoryFactory--><g id="elem_RepositoryFactory"><rect codeLine="87" fill="#F1F1F1" height="143.125" id="RepositoryFactory" rx="2.5" ry="2.5" style="stroke:#181818;stroke-width:0.5;" width="481" x="432.5" y="629.5137"/><ellipse cx="578.5" cy="646.5137" fill="#ADD1B2" rx="12" ry="12" style="stroke:#181818;stroke-width:1.0;"/><path d="M581.5625,653.5918 Q580.875,653.9512 580.125,654.123 Q579.375,654.2949 578.5469,654.2949 Q575.5938,654.2949 574.0313,652.3574 Q572.4844,650.4043 572.4844,646.7324 Q572.4844,643.0605 574.0313,641.123 Q575.5938,639.1699 578.5469,639.1699 Q579.375,639.1699 580.125,639.3418 Q580.8906,639.5137 581.5625,639.873 L581.5625,643.0762 Q580.8125,642.3887 580.1094,642.0762 Q579.4219,641.7637 578.6719,641.7637 Q577.0938,641.7637 576.2813,643.0137 Q575.4844,644.2637 575.4844,646.7324 Q575.4844,649.2012 576.2813,650.4512 Q577.0938,651.7012 578.6719,651.7012 Q579.4219,651.7012 580.1094,651.3887 Q580.8125,651.0762 581.5625,650.3887 L581.5625,653.5918 Z " fill="#000000"/><text fill="#000000" font-family="sans-serif" font-size="20" lengthAdjust="spacing" textLength="180" x="600.5" y="653.4375">RepositoryFactory</text><line style="stroke:#181818;stroke-width:0.5;" x1="433.5" x2="912.5" y1="663.5137" y2="663.5137"/><line style="stroke:#181818;stroke-width:0.5;" x1="433.5" x2="912.5" y1="671.5137" y2="671.5137"/><ellipse cx="443.5" cy="688.6543" fill="#84BE84" rx="3" ry="3" style="stroke:#038048;stroke-width:1.0;"/><text fill="#000000" font-family="sans-serif" font-size="20" lengthAdjust="spacing" textLength="454" x="453.5" y="694.0781">examExecutions(): ExamExecutionRepository</text><ellipse cx="443.5" cy="711.9355" fill="#84BE84" rx="3" ry="3" style="stroke:#038048;stroke-width:1.0;"/><text fill="#000000" font-family="sans-serif" font-size="20" lengthAdjust="spacing" textLength="256" x="453.5" y="717.3594">exams(): ExamRepository</text><ellipse cx="443.5" cy="735.2168" fill="#84BE84" rx="3" ry="3" style="stroke:#038048;stroke-width:1.0;"/><text fill="#000000" font-family="sans-serif" font-size="20" lengthAdjust="spacing" textLength="435" x="453.5" y="740.6406">enrollments(): CourseEnrollmentRepository</text><ellipse cx="443.5" cy="758.498" fill="#84BE84" rx="3" ry="3" style="stroke:#038048;stroke-width:1.0;"/><text fill="#000000" font-family="sans-serif" font-size="20" lengthAdjust="spacing" textLength="302" x="453.5" y="763.9219">students(): StudentRepository</text></g><!--class ListExamsService--><g id="elem_ListExamsService"><rect codeLine="66" fill="#F1F1F1" height="73.2813" id="ListExamsService" rx="2.5" ry="2.5" style="stroke:#181818;stroke-width:0.5;" width="631" x="1335.5" y="664.5137"/><ellipse cx="1559.5" cy="681.5137" fill="#ADD1B2" rx="12" ry="12" style="stroke:#181818;stroke-width:1.0;"/><path d="M1562.5625,688.5918 Q1561.875,688.9512 1561.125,689.123 Q1560.375,689.2949 1559.5469,689.2949 Q1556.5938,689.2949 1555.0313,687.3574 Q1553.4844,685.4043 1553.4844,681.7324 Q1553.4844,678.0605 1555.0313,676.123 Q1556.5938,674.1699 1559.5469,674.1699 Q1560.375,674.1699 1561.125,674.3418 Q1561.8906,674.5137 1562.5625,674.873 L1562.5625,678.0762 Q1561.8125,677.3887 1561.1094,677.0762 Q1560.4219,676.7637 1559.6719,676.7637 Q1558.0938,676.7637 1557.2813,678.0137 Q1556.4844,679.2637 1556.4844,681.7324 Q1556.4844,684.2012 1557.2813,685.4512 Q1558.0938,686.7012 1559.6719,686.7012 Q1560.4219,686.7012 1561.1094,686.3887 Q1561.8125,686.0762 1562.5625,685.3887 L1562.5625,688.5918 Z " fill="#000000"/><text fill="#000000" font-family="sans-serif" font-size="20" lengthAdjust="spacing" textLength="174" x="1581.5" y="688.4375">ListExamsService</text><line style="stroke:#181818;stroke-width:0.5;" x1="1336.5" x2="1965.5" y1="698.5137" y2="698.5137"/><line style="stroke:#181818;stroke-width:0.5;" x1="1336.5" x2="1965.5" y1="706.5137" y2="706.5137"/><ellipse cx="1346.5" cy="723.6543" fill="#84BE84" rx="3" ry="3" style="stroke:#038048;stroke-width:1.0;"/><text fill="#000000" font-family="sans-serif" font-size="20" lengthAdjust="spacing" textLength="604" x="1356.5" y="729.0781">listStudentGrades(student: Student): List&lt;ExamExecution&gt;</text></g><!--class TeacherRepository--><g id="elem_TeacherRepository"><rect fill="#F1F1F1" height="50" id="TeacherRepository" rx="2.5" ry="2.5" style="stroke:#181818;stroke-width:0.5;" width="220" x="711" y="468.0137"/><ellipse cx="727" cy="485.0137" fill="#ADD1B2" rx="12" ry="12" style="stroke:#181818;stroke-width:1.0;"/><path d="M730.0625,492.0918 Q729.375,492.4512 728.625,492.623 Q727.875,492.7949 727.0469,492.7949 Q724.0938,492.7949 722.5313,490.8574 Q720.9844,488.9043 720.9844,485.2324 Q720.9844,481.5605 722.5313,479.623 Q724.0938,477.6699 727.0469,477.6699 Q727.875,477.6699 728.625,477.8418 Q729.3906,478.0137 730.0625,478.373 L730.0625,481.5762 Q729.3125,480.8887 728.6094,480.5762 Q727.9219,480.2637 727.1719,480.2637 Q725.5938,480.2637 724.7813,481.5137 Q723.9844,482.7637 723.9844,485.2324 Q723.9844,487.7012 724.7813,488.9512 Q725.5938,490.2012 727.1719,490.2012 Q727.9219,490.2012 728.6094,489.8887 Q729.3125,489.5762 730.0625,488.8887 L730.0625,492.0918 Z " fill="#000000"/><text fill="#000000" font-family="sans-serif" font-size="20" lengthAdjust="spacing" textLength="186" x="742" y="491.9375">TeacherRepository</text><line style="stroke:#181818;stroke-width:0.5;" x1="712" x2="930" y1="502.0137" y2="502.0137"/><line style="stroke:#181818;stroke-width:0.5;" x1="712" x2="930" y1="510.0137" y2="510.0137"/></g><!--link ListStudentGradesUI to ListStudentGradesController--><g id="link_ListStudentGradesUI_ListStudentGradesController"><path codeLine="95" d="M1356.5,183.6237 C1356.5,183.6237 1356.5,278.4237 1356.5,278.4237 " fill="none" id="ListStudentGradesUI-to-ListStudentGradesController" style="stroke:#181818;stroke-width:1.0;stroke-dasharray:7.0,7.0;"/><polygon fill="#181818" points="1356.5,283.4237,1360.5,274.4237,1356.5,278.4237,1352.5,274.4237,1356.5,283.4237" style="stroke:#181818;stroke-width:1.0;"/></g><!--link ListStudentGradesUI to ExamExecution--><g id="link_ListStudentGradesUI_ExamExecution"><path codeLine="96" d="M1569.51,135.5137 C1727.42,135.5137 1984.5,135.5137 1984.5,135.5137 C1984.5,135.5137 1984.5,1156.5137 1984.5,1156.5137 C1984.5,1156.5137 1623.04,1156.5137 1623.04,1156.5137 " fill="none" id="ListStudentGradesUI-to-ExamExecution" style="stroke:#181818;stroke-width:1.0;stroke-dasharray:7.0,7.0;"/><polygon fill="#181818" points="1618.04,1156.5137,1627.04,1160.5137,1623.04,1156.5137,1627.04,1152.5137,1618.04,1156.5137" style="stroke:#181818;stroke-width:1.0;"/></g><!--link ListStudentGradesController to PersistenceContext--><g id="link_ListStudentGradesController_PersistenceContext"><path codeLine="98" d="M898,356.7137 C898,398.9337 898,462.5137 898,462.5137 C898,462.5137 635.57,462.5137 635.57,462.5137 " fill="none" id="ListStudentGradesController-to-PersistenceContext" style="stroke:#181818;stroke-width:1.0;stroke-dasharray:7.0,7.0;"/><polygon fill="#181818" points="630.57,462.5137,639.57,466.5137,635.57,462.5137,639.57,458.5137,630.57,462.5137" style="stroke:#181818;stroke-width:1.0;"/></g><!--link ListStudentGradesController to RepositoryFactory--><g id="link_ListStudentGradesController_RepositoryFactory"><path codeLine="99" d="M983.5,356.6337 C983.5,442.0937 983.5,647.5137 983.5,647.5137 C983.5,647.5137 918.82,647.5137 918.82,647.5137 " fill="none" id="ListStudentGradesController-to-RepositoryFactory" style="stroke:#181818;stroke-width:1.0;stroke-dasharray:7.0,7.0;"/><polygon fill="#181818" points="913.82,647.5137,922.82,651.5137,918.82,647.5137,922.82,643.5137,913.82,647.5137" style="stroke:#181818;stroke-width:1.0;"/></g><!--link ListStudentGradesController to TeacherRepository--><g id="link_ListStudentGradesController_TeacherRepository"><path codeLine="100" d="M914.5,356.7037 C914.5,356.7037 914.5,462.8437 914.5,462.8437 " fill="none" id="ListStudentGradesController-to-TeacherRepository" style="stroke:#181818;stroke-width:1.0;stroke-dasharray:7.0,7.0;"/><polygon fill="#181818" points="914.5,467.8437,918.5,458.8437,914.5,462.8437,910.5,458.8437,914.5,467.8437" style="stroke:#181818;stroke-width:1.0;"/></g><!--link ListStudentGradesController to CourseEnrollmentRepository--><g id="link_ListStudentGradesController_CourseEnrollmentRepository"><path codeLine="101" d="M1036,356.8537 C1036,356.8537 1036,878.7037 1036,878.7037 " fill="none" id="ListStudentGradesController-to-CourseEnrollmentRepository" style="stroke:#181818;stroke-width:1.0;stroke-dasharray:7.0,7.0;"/><polygon fill="#181818" points="1036,883.7037,1040,874.7037,1036,878.7037,1032,874.7037,1036,883.7037" style="stroke:#181818;stroke-width:1.0;"/></g><!--link ListStudentGradesController to ListExamsService--><g id="link_ListStudentGradesController_ListExamsService"><path codeLine="102" d="M1360,356.5437 C1360,356.5437 1360,659.3137 1360,659.3137 " fill="none" id="ListStudentGradesController-to-ListExamsService" style="stroke:#181818;stroke-width:1.0;stroke-dasharray:7.0,7.0;"/><polygon fill="#181818" points="1360,664.3137,1364,655.3137,1360,659.3137,1356,655.3137,1360,664.3137" style="stroke:#181818;stroke-width:1.0;"/></g><!--link ListExamsService to ExamExecution--><g id="link_ListExamsService_ExamExecution"><path codeLine="104" d="M1858.83,737.6137 C1858.83,836.4837 1858.83,1101.5137 1858.83,1101.5137 C1858.83,1101.5137 1623.09,1101.5137 1623.09,1101.5137 " fill="none" id="ListExamsService-to-ExamExecution" style="stroke:#181818;stroke-width:1.0;stroke-dasharray:7.0,7.0;"/><polygon fill="#181818" points="1618.09,1101.5137,1627.09,1105.5137,1623.09,1101.5137,1627.09,1097.5137,1618.09,1101.5137" style="stroke:#181818;stroke-width:1.0;"/></g><!--link ListExamsService to Student--><g id="link_ListExamsService_Student"><path codeLine="105" d="M1912.67,737.5837 C1912.67,883.7937 1912.67,1418.5137 1912.67,1418.5137 C1912.67,1418.5137 1624.91,1418.5137 1624.91,1418.5137 " fill="none" id="ListExamsService-to-Student" style="stroke:#181818;stroke-width:1.0;stroke-dasharray:7.0,7.0;"/><polygon fill="#181818" points="1619.91,1418.5137,1628.91,1422.5137,1624.91,1418.5137,1628.91,1414.5137,1619.91,1418.5137" style="stroke:#181818;stroke-width:1.0;"/></g><!--link ListExamsService to ExamExecutionRepository--><g id="link_ListExamsService_ExamExecutionRepository"><path codeLine="106" d="M1570.25,737.7237 C1570.25,737.7237 1570.25,867.3237 1570.25,867.3237 " fill="none" id="ListExamsService-to-ExamExecutionRepository" style="stroke:#181818;stroke-width:1.0;stroke-dasharray:7.0,7.0;"/><polygon fill="#181818" points="1570.25,872.3237,1574.25,863.3237,1570.25,867.3237,1566.25,863.3237,1570.25,872.3237" style="stroke:#181818;stroke-width:1.0;"/></g><!--link PersistenceContext to RepositoryFactory--><g id="link_PersistenceContext_RepositoryFactory"><path codeLine="108" d="M531.5,529.7237 C531.5,529.7237 531.5,624.3437 531.5,624.3437 " fill="none" id="PersistenceContext-to-RepositoryFactory" style="stroke:#181818;stroke-width:1.0;"/><polygon fill="#181818" points="531.5,629.3437,535.5,620.3437,531.5,624.3437,527.5,620.3437,531.5,629.3437" style="stroke:#181818;stroke-width:1.0;"/></g><!--link RepositoryFactory to StudentRepository--><g id="link_RepositoryFactory_StudentRepository"><path codeLine="109" d="M560,772.5937 C560,772.5937 560,867.3837 560,867.3837 " fill="none" id="RepositoryFactory-to-StudentRepository" style="stroke:#181818;stroke-width:1.0;"/><polygon fill="#181818" points="560,872.3837,564,863.3837,560,867.3837,556,863.3837,560,872.3837" style="stroke:#181818;stroke-width:1.0;"/></g><!--link RepositoryFactory to ExamExecutionRepository--><g id="link_RepositoryFactory_ExamExecutionRepository"><path codeLine="110" d="M864.83,772.6937 C864.83,821.9637 864.83,878.5137 864.83,878.5137 C864.83,878.5137 1163.63,878.5137 1163.63,878.5137 " fill="none" id="RepositoryFactory-to-ExamExecutionRepository" style="stroke:#181818;stroke-width:1.0;"/><polygon fill="#181818" points="1168.63,878.5137,1159.63,874.5137,1163.63,878.5137,1159.63,882.5137,1168.63,878.5137" style="stroke:#181818;stroke-width:1.0;"/></g><!--link RepositoryFactory to ExamRepository--><g id="link_RepositoryFactory_ExamRepository"><path codeLine="111" d="M432.49,701.5137 C283.74,701.5137 121,701.5137 121,701.5137 C121,701.5137 121,878.9837 121,878.9837 " fill="none" id="RepositoryFactory-to-ExamRepository" style="stroke:#181818;stroke-width:1.0;"/><polygon fill="#181818" points="121,883.9837,125,874.9837,121,878.9837,117,874.9837,121,883.9837" style="stroke:#181818;stroke-width:1.0;"/></g><!--link RepositoryFactory to CourseEnrollmentRepository--><g id="link_RepositoryFactory_CourseEnrollmentRepository"><path codeLine="112" d="M816.17,772.5937 C816.17,772.5937 816.17,878.7537 816.17,878.7537 " fill="none" id="RepositoryFactory-to-CourseEnrollmentRepository" style="stroke:#181818;stroke-width:1.0;"/><polygon fill="#181818" points="816.17,883.7537,820.17,874.7537,816.17,878.7537,812.17,874.7537,816.17,883.7537" style="stroke:#181818;stroke-width:1.0;"/></g><!--link StudentRepository to Student--><g id="link_StudentRepository_Student"><path codeLine="114" d="M494,945.7937 C494,1047.2437 494,1323.5137 494,1323.5137 C494,1323.5137 1077.48,1323.5137 1077.48,1323.5137 " fill="none" id="StudentRepository-to-Student" style="stroke:#181818;stroke-width:1.0;"/><polygon fill="#181818" points="1082.48,1323.5137,1073.48,1319.5137,1077.48,1323.5137,1073.48,1327.5137,1082.48,1323.5137" style="stroke:#181818;stroke-width:1.0;"/></g><!--link CourseEnrollmentRepository to CourseEnrollment--><g id="link_CourseEnrollmentRepository_CourseEnrollment"><path codeLine="115" d="M928,934.1937 C928,934.1937 928,1063.1037 928,1063.1037 " fill="none" id="CourseEnrollmentRepository-to-CourseEnrollment" style="stroke:#181818;stroke-width:1.0;"/><polygon fill="#181818" points="928,1068.1037,932.0257,1059.1151,928.0143,1063.1037,924.0257,1059.0923,928,1068.1037" style="stroke:#181818;stroke-width:1.0;"/></g><!--link ExamRepository to Exam--><g id="link_ExamRepository_Exam"><path codeLine="116" d="M121,934.2837 C121,1037.0837 121,1418.5137 121,1418.5137 C121,1418.5137 702.35,1418.5137 702.35,1418.5137 " fill="none" id="ExamRepository-to-Exam" style="stroke:#181818;stroke-width:1.0;"/><polygon fill="#181818" points="707.35,1418.5137,698.35,1414.5137,702.35,1418.5137,698.35,1422.5137,707.35,1418.5137" style="stroke:#181818;stroke-width:1.0;"/></g><!--link ExamExecutionRepository to ExamExecution--><g id="link_ExamExecutionRepository_ExamExecution"><path codeLine="117" d="M1487,945.7537 C1487,945.7537 1487,1040.1137 1487,1040.1137 " fill="none" id="ExamExecutionRepository-to-ExamExecution" style="stroke:#181818;stroke-width:1.0;"/><polygon fill="#181818" points="1487,1045.1137,1491,1036.1137,1487,1040.1137,1483,1036.1137,1487,1045.1137" style="stroke:#181818;stroke-width:1.0;"/></g><!--link ExamExecution to Exam--><g id="link_ExamExecution_Exam"><path codeLine="119" d="M1355.67,1200.5137 C1170.5,1200.5137 855,1200.5137 855,1200.5137 C855,1200.5137 855,1329.8537 855,1329.8537 " fill="none" id="ExamExecution-to-Exam" style="stroke:#181818;stroke-width:1.0;"/><polygon fill="#181818" points="855,1334.8537,859,1325.8537,855,1329.8537,851,1325.8537,855,1334.8537" style="stroke:#181818;stroke-width:1.0;"/></g><!--link ExamExecution to Student--><g id="link_ExamExecution_Student"><path codeLine="120" d="M1487,1211.8637 C1487,1211.8637 1487,1306.5037 1487,1306.5037 " fill="none" id="ExamExecution-to-Student" style="stroke:#181818;stroke-width:1.0;"/><polygon fill="#181818" points="1487,1311.5037,1491,1302.5037,1487,1306.5037,1483,1302.5037,1487,1311.5037" style="stroke:#181818;stroke-width:1.0;"/></g><!--SRC=[XLLjRzem4FxkNs5fNpfLLEtsPOkgIYtG3Qb3rUX-W9CSnCBOaMqw6Ef_trr2WlC6804vdv-xU-wvmwsbpeKL6sMIDQGyXQNOAlzij5_8Vy2_t3BcfLV05twRWlRyHJhl-0yhKd1ynCTAECSdKgmGX2bOUkuDjtALUPvA2ucNHZDlSZB7ndkp2Uok2i-rGJp8-RVRm6Y5NfFnxZQqhgpPvZETWPLUw0JuNN2ef0Q_pu4RwpCJ720EVbDKWWlnviR3aqZMXAlJiL76ya-Ft-aTUENe8LR03upZg-C_-KhlugmWp- -HizYeb7qmLjsTc8sG-i2IWhIAKK8SlODrc5l4NunUaG7GLJscgGNd8ZuDdkZKYzshs8ETRpSns8Y_lSx9lDmgDHSRY13SoXB8PKX5snXBf2SL7eqJ_2JJ1f9CQ8Dzp3EPLC2_UgnKKbd2s6ojWwcsHgbDNKlIiixIeApQ-fZdIYP5Hx301VZxQT_PmmanEiOxnP_ki3D5J1d6GEiRYJQik0LnTFi9g6CiSrh_BYWhvNbCQr4-FJJ3JdUGR0iv7IgmsXGM7CDAwad1z5WeqAaeGvJDZoeLL1XbAlIqeX6B-BCombFeZrf6lo4tJdfZ9RW3azg3NOga7j7wU5-aThsKEdtQ5mgwAbHLqVBv51tnJpZjhZO06vwKw_dJcfF-h8xnhzfqO6epX16nWli637MXxWFj8Zfr2x3lCYc7yrgXzGXJhga-TBhQHQuf3WHu288rOCSuvqGHsA6u5wgeWhtYLEEbyz7-pCeegLbavYz1nyOe49gC6KgNDbyj-0OyhHRd0LTbXHwOg0hObPDxRGDbHIUTxPz5GbyDsAEjWkmubuYDkIWO6L15vLpxj8vgDHOEmn8bvsE_2y_EK9G2wkFtvkRXN9S7xpGgwe4EX4BkNV8lNkbsujADDn09_aC6PL-wSORIIrVRSrXoq9ZCBa-zBjK-kdm_I8_ro7aqwcEjArBowqgatsye_h3tHQSpfBFkEW-IPMUMT1ymQwtgAaCsjAGx1REcwm128yV_]--></g></svg>