<?xml version="1.0" encoding="UTF-8" standalone="no"?><svg xmlns="http://www.w3.org/2000/svg" xmlns:xlink="http://www.w3.org/1999/xlink" contentStyleType="text/css" height="1126px" preserveAspectRatio="none" style="width:4286px;height:1126px;background:#FFFFFF;" version="1.1" viewBox="0 0 4286 1126" width="4286px" zoomAndPan="magnify"><defs/><g><text fill="#000000" font-family="sans-serif" font-size="14" font-weight="bold" lengthAdjust="spacing" textLength="240" x="2022" y="27.9951">SD - List Student Exam Grades</text><rect fill="#FFFFFF" height="855.4688" style="stroke:#181818;stroke-width:1.0;" width="10" x="43" y="144.8594"/><rect fill="#FFFFFF" height="826.1875" style="stroke:#181818;stroke-width:1.0;" width="10" x="367" y="174.1406"/><rect fill="#FFFFFF" height="527.9375" style="stroke:#181818;stroke-width:1.0;" width="10" x="869" y="211.4219"/><rect fill="#FFFFFF" height="186.4063" style="stroke:#181818;stroke-width:1.0;" width="10" x="869" y="776.6406"/><rect fill="#FFFFFF" height="111.8438" style="stroke:#181818;stroke-width:1.0;" width="10" x="1371" y="813.9219"/><rect fill="#FFFFFF" height="37.2813" style="stroke:#181818;stroke-width:1.0;" width="10" x="2909" y="248.7031"/><rect fill="#FFFFFF" height="37.2813" style="stroke:#181818;stroke-width:1.0;" width="10" x="3119" y="323.2656"/><rect fill="#FFFFFF" height="37.2813" style="stroke:#181818;stroke-width:1.0;" width="10" x="3119" y="397.8281"/><rect fill="#FFFFFF" height="37.2813" style="stroke:#181818;stroke-width:1.0;" width="10" x="3119" y="472.3906"/><rect fill="#FFFFFF" height="37.2813" style="stroke:#181818;stroke-width:1.0;" width="10" x="3119" y="546.9531"/><rect fill="#FFFFFF" height="37.2813" style="stroke:#181818;stroke-width:1.0;" width="10" x="3119" y="621.5156"/><rect fill="#FFFFFF" height="37.2813" style="stroke:#181818;stroke-width:1.0;" width="10" x="4137.5" y="851.2031"/><line style="stroke:#181818;stroke-width:0.5;stroke-dasharray:5.0,5.0;" x1="48" x2="48" y1="134.8594" y2="1018.3281"/><line style="stroke:#181818;stroke-width:0.5;stroke-dasharray:5.0,5.0;" x1="371.5" x2="371.5" y1="134.8594" y2="1018.3281"/><line style="stroke:#181818;stroke-width:0.5;stroke-dasharray:5.0,5.0;" x1="873.5" x2="873.5" y1="134.8594" y2="1018.3281"/><line style="stroke:#181818;stroke-width:0.5;stroke-dasharray:5.0,5.0;" x1="1376" x2="1376" y1="134.8594" y2="1018.3281"/><line style="stroke:#181818;stroke-width:0.5;stroke-dasharray:5.0,5.0;" x1="1636" x2="1636" y1="134.8594" y2="1018.3281"/><line style="stroke:#181818;stroke-width:0.5;stroke-dasharray:5.0,5.0;" x1="1913" x2="1913" y1="134.8594" y2="1018.3281"/><line style="stroke:#181818;stroke-width:0.5;stroke-dasharray:5.0,5.0;" x1="2097" x2="2097" y1="134.8594" y2="1018.3281"/><line style="stroke:#181818;stroke-width:0.5;stroke-dasharray:5.0,5.0;" x1="2260" x2="2260" y1="134.8594" y2="1018.3281"/><line style="stroke:#181818;stroke-width:0.5;stroke-dasharray:5.0,5.0;" x1="2418" x2="2418" y1="134.8594" y2="1018.3281"/><line style="stroke:#181818;stroke-width:0.5;stroke-dasharray:5.0,5.0;" x1="2581" x2="2581" y1="134.8594" y2="1018.3281"/><line style="stroke:#181818;stroke-width:0.5;stroke-dasharray:5.0,5.0;" x1="2744" x2="2744" y1="134.8594" y2="1018.3281"/><line style="stroke:#181818;stroke-width:0.5;stroke-dasharray:5.0,5.0;" x1="2914" x2="2914" y1="134.8594" y2="1018.3281"/><line style="stroke:#181818;stroke-width:0.5;stroke-dasharray:5.0,5.0;" x1="3124" x2="3124" y1="134.8594" y2="1018.3281"/><line style="stroke:#181818;stroke-width:0.5;stroke-dasharray:5.0,5.0;" x1="3288" x2="3288" y1="134.8594" y2="1018.3281"/><line style="stroke:#181818;stroke-width:0.5;stroke-dasharray:5.0,5.0;" x1="3443" x2="3443" y1="134.8594" y2="1018.3281"/><line style="stroke:#181818;stroke-width:0.5;stroke-dasharray:5.0,5.0;" x1="3625" x2="3625" y1="134.8594" y2="1018.3281"/><line style="stroke:#181818;stroke-width:0.5;stroke-dasharray:5.0,5.0;" x1="3857" x2="3857" y1="134.8594" y2="1018.3281"/><line style="stroke:#181818;stroke-width:0.5;stroke-dasharray:5.0,5.0;" x1="4142" x2="4142" y1="134.8594" y2="1018.3281"/><text fill="#000000" font-family="sans-serif" font-size="20" lengthAdjust="spacing" textLength="80" x="5" y="130.1426">Student</text><ellipse cx="48" cy="60.0781" fill="#E2E2F0" rx="8" ry="8" style="stroke:#181818;stroke-width:0.5;"/><path d="M48,68.0781 L48,95.0781 M35,76.0781 L61,76.0781 M48,95.0781 L35,110.0781 M48,95.0781 L61,110.0781 " fill="none" style="stroke:#181818;stroke-width:0.5;"/><text fill="#000000" font-family="sans-serif" font-size="20" lengthAdjust="spacing" textLength="80" x="5" y="1035.8926">Student</text><ellipse cx="48" cy="1049.1094" fill="#E2E2F0" rx="8" ry="8" style="stroke:#181818;stroke-width:0.5;"/><path d="M48,1057.1094 L48,1084.1094 M35,1065.1094 L61,1065.1094 M48,1084.1094 L35,1099.1094 M48,1084.1094 L61,1099.1094 " fill="none" style="stroke:#181818;stroke-width:0.5;"/><rect fill="#E2E2F0" height="60.5625" rx="2.5" ry="2.5" style="stroke:#181818;stroke-width:0.5;" width="221" x="261.5" y="73.2969"/><text fill="#000000" font-family="sans-serif" font-size="20" font-style="italic" lengthAdjust="spacing" textLength="151" x="296.5" y="98.8613">«presentation»</text><text fill="#000000" font-family="sans-serif" font-size="20" lengthAdjust="spacing" textLength="207" x="268.5" y="122.1426">ListStudentGradesUI</text><rect fill="#E2E2F0" height="60.5625" rx="2.5" ry="2.5" style="stroke:#181818;stroke-width:0.5;" width="221" x="261.5" y="1017.3281"/><text fill="#000000" font-family="sans-serif" font-size="20" font-style="italic" lengthAdjust="spacing" textLength="151" x="296.5" y="1042.8926">«presentation»</text><text fill="#000000" font-family="sans-serif" font-size="20" lengthAdjust="spacing" textLength="207" x="268.5" y="1066.1738">ListStudentGradesUI</text><rect fill="#E2E2F0" height="60.5625" rx="2.5" ry="2.5" style="stroke:#181818;stroke-width:0.5;" width="299" x="724.5" y="73.2969"/><text fill="#000000" font-family="sans-serif" font-size="20" font-style="italic" lengthAdjust="spacing" textLength="136" x="806" y="98.8613">«application»</text><text fill="#000000" font-family="sans-serif" font-size="20" lengthAdjust="spacing" textLength="285" x="731.5" y="122.1426">ListStudentGradesController</text><rect fill="#E2E2F0" height="60.5625" rx="2.5" ry="2.5" style="stroke:#181818;stroke-width:0.5;" width="299" x="724.5" y="1017.3281"/><text fill="#000000" font-family="sans-serif" font-size="20" font-style="italic" lengthAdjust="spacing" textLength="136" x="806" y="1042.8926">«application»</text><text fill="#000000" font-family="sans-serif" font-size="20" lengthAdjust="spacing" textLength="285" x="731.5" y="1066.1738">ListStudentGradesController</text><rect fill="#E2E2F0" height="60.5625" rx="2.5" ry="2.5" style="stroke:#181818;stroke-width:0.5;" width="188" x="1282" y="73.2969"/><text fill="#000000" font-family="sans-serif" font-size="20" font-style="italic" lengthAdjust="spacing" textLength="95" x="1328.5" y="98.8613">«service»</text><text fill="#000000" font-family="sans-serif" font-size="20" lengthAdjust="spacing" textLength="174" x="1289" y="122.1426">ListExamsService</text><rect fill="#E2E2F0" height="60.5625" rx="2.5" ry="2.5" style="stroke:#181818;stroke-width:0.5;" width="188" x="1282" y="1017.3281"/><text fill="#000000" font-family="sans-serif" font-size="20" font-style="italic" lengthAdjust="spacing" textLength="95" x="1328.5" y="1042.8926">«service»</text><text fill="#000000" font-family="sans-serif" font-size="20" lengthAdjust="spacing" textLength="174" x="1289" y="1066.1738">ListExamsService</text><rect fill="#E2E2F0" height="60.5625" rx="2.5" ry="2.5" style="stroke:#181818;stroke-width:0.5;" width="312" x="1480" y="73.2969"/><text fill="#000000" font-family="sans-serif" font-size="20" font-style="italic" lengthAdjust="spacing" textLength="95" x="1588.5" y="98.8613">«service»</text><text fill="#000000" font-family="sans-serif" font-size="20" lengthAdjust="spacing" textLength="298" x="1487" y="122.1426">ListCourseEnrollmentsService</text><rect fill="#E2E2F0" height="60.5625" rx="2.5" ry="2.5" style="stroke:#181818;stroke-width:0.5;" width="312" x="1480" y="1017.3281"/><text fill="#000000" font-family="sans-serif" font-size="20" font-style="italic" lengthAdjust="spacing" textLength="95" x="1588.5" y="1042.8926">«service»</text><text fill="#000000" font-family="sans-serif" font-size="20" lengthAdjust="spacing" textLength="298" x="1487" y="1066.1738">ListCourseEnrollmentsService</text><text fill="#000000" font-family="sans-serif" font-size="20" font-style="italic" lengthAdjust="spacing" textLength="116" x="1852.5" y="106.8613">«database»</text><text fill="#000000" font-family="sans-serif" font-size="20" lengthAdjust="spacing" textLength="217" x="1802" y="130.1426">EnrollmentRepository</text><path d="M1895.5,52.2969 C1895.5,42.2969 1913.5,42.2969 1913.5,42.2969 C1913.5,42.2969 1931.5,42.2969 1931.5,52.2969 L1931.5,78.2969 C1931.5,88.2969 1913.5,88.2969 1913.5,88.2969 C1913.5,88.2969 1895.5,88.2969 1895.5,78.2969 L1895.5,52.2969 " fill="#E2E2F0" style="stroke:#181818;stroke-width:1.5;"/><path d="M1895.5,52.2969 C1895.5,62.2969 1913.5,62.2969 1913.5,62.2969 C1913.5,62.2969 1931.5,62.2969 1931.5,52.2969 " fill="none" style="stroke:#181818;stroke-width:1.5;"/><text fill="#000000" font-family="sans-serif" font-size="20" font-style="italic" lengthAdjust="spacing" textLength="116" x="1852.5" y="1035.8926">«database»</text><text fill="#000000" font-family="sans-serif" font-size="20" lengthAdjust="spacing" textLength="217" x="1802" y="1059.1738">EnrollmentRepository</text><path d="M1895.5,1073.8906 C1895.5,1063.8906 1913.5,1063.8906 1913.5,1063.8906 C1913.5,1063.8906 1931.5,1063.8906 1931.5,1073.8906 L1931.5,1099.8906 C1931.5,1109.8906 1913.5,1109.8906 1913.5,1109.8906 C1913.5,1109.8906 1895.5,1109.8906 1895.5,1099.8906 L1895.5,1073.8906 " fill="#E2E2F0" style="stroke:#181818;stroke-width:1.5;"/><path d="M1895.5,1073.8906 C1895.5,1083.8906 1913.5,1083.8906 1913.5,1083.8906 C1913.5,1083.8906 1931.5,1083.8906 1931.5,1073.8906 " fill="none" style="stroke:#181818;stroke-width:1.5;"/><rect fill="#E2E2F0" height="60.5625" rx="2.5" ry="2.5" style="stroke:#181818;stroke-width:0.5;" width="125" x="2035" y="73.2969"/><text fill="#000000" font-family="sans-serif" font-size="20" font-style="italic" lengthAdjust="spacing" textLength="100" x="2047.5" y="98.8613">«domain»</text><text fill="#000000" font-family="sans-serif" font-size="20" lengthAdjust="spacing" textLength="111" x="2042" y="122.1426">Enrollment</text><rect fill="#E2E2F0" height="60.5625" rx="2.5" ry="2.5" style="stroke:#181818;stroke-width:0.5;" width="125" x="2035" y="1017.3281"/><text fill="#000000" font-family="sans-serif" font-size="20" font-style="italic" lengthAdjust="spacing" textLength="100" x="2047.5" y="1042.8926">«domain»</text><text fill="#000000" font-family="sans-serif" font-size="20" lengthAdjust="spacing" textLength="111" x="2042" y="1066.1738">Enrollment</text><text fill="#000000" font-family="sans-serif" font-size="20" font-style="italic" lengthAdjust="spacing" textLength="116" x="2199.5" y="106.8613">«database»</text><text fill="#000000" font-family="sans-serif" font-size="20" lengthAdjust="spacing" textLength="175" x="2170" y="130.1426">CourseRepository</text><path d="M2242.5,52.2969 C2242.5,42.2969 2260.5,42.2969 2260.5,42.2969 C2260.5,42.2969 2278.5,42.2969 2278.5,52.2969 L2278.5,78.2969 C2278.5,88.2969 2260.5,88.2969 2260.5,88.2969 C2260.5,88.2969 2242.5,88.2969 2242.5,78.2969 L2242.5,52.2969 " fill="#E2E2F0" style="stroke:#181818;stroke-width:1.5;"/><path d="M2242.5,52.2969 C2242.5,62.2969 2260.5,62.2969 2260.5,62.2969 C2260.5,62.2969 2278.5,62.2969 2278.5,52.2969 " fill="none" style="stroke:#181818;stroke-width:1.5;"/><text fill="#000000" font-family="sans-serif" font-size="20" font-style="italic" lengthAdjust="spacing" textLength="116" x="2199.5" y="1035.8926">«database»</text><text fill="#000000" font-family="sans-serif" font-size="20" lengthAdjust="spacing" textLength="175" x="2170" y="1059.1738">CourseRepository</text><path d="M2242.5,1073.8906 C2242.5,1063.8906 2260.5,1063.8906 2260.5,1063.8906 C2260.5,1063.8906 2278.5,1063.8906 2278.5,1073.8906 L2278.5,1099.8906 C2278.5,1109.8906 2260.5,1109.8906 2260.5,1109.8906 C2260.5,1109.8906 2242.5,1109.8906 2242.5,1099.8906 L2242.5,1073.8906 " fill="#E2E2F0" style="stroke:#181818;stroke-width:1.5;"/><path d="M2242.5,1073.8906 C2242.5,1083.8906 2260.5,1083.8906 2260.5,1083.8906 C2260.5,1083.8906 2278.5,1083.8906 2278.5,1073.8906 " fill="none" style="stroke:#181818;stroke-width:1.5;"/><rect fill="#E2E2F0" height="60.5625" rx="2.5" ry="2.5" style="stroke:#181818;stroke-width:0.5;" width="114" x="2361" y="73.2969"/><text fill="#000000" font-family="sans-serif" font-size="20" font-style="italic" lengthAdjust="spacing" textLength="100" x="2368" y="98.8613">«domain»</text><text fill="#000000" font-family="sans-serif" font-size="20" lengthAdjust="spacing" textLength="69" x="2383.5" y="122.1426">Course</text><rect fill="#E2E2F0" height="60.5625" rx="2.5" ry="2.5" style="stroke:#181818;stroke-width:0.5;" width="114" x="2361" y="1017.3281"/><text fill="#000000" font-family="sans-serif" font-size="20" font-style="italic" lengthAdjust="spacing" textLength="100" x="2368" y="1042.8926">«domain»</text><text fill="#000000" font-family="sans-serif" font-size="20" lengthAdjust="spacing" textLength="69" x="2383.5" y="1066.1738">Course</text><text fill="#000000" font-family="sans-serif" font-size="20" font-style="italic" lengthAdjust="spacing" textLength="116" x="2520" y="106.8613">«database»</text><text fill="#000000" font-family="sans-serif" font-size="20" lengthAdjust="spacing" textLength="186" x="2485" y="130.1426">StudentRepository</text><path d="M2563,52.2969 C2563,42.2969 2581,42.2969 2581,42.2969 C2581,42.2969 2599,42.2969 2599,52.2969 L2599,78.2969 C2599,88.2969 2581,88.2969 2581,88.2969 C2581,88.2969 2563,88.2969 2563,78.2969 L2563,52.2969 " fill="#E2E2F0" style="stroke:#181818;stroke-width:1.5;"/><path d="M2563,52.2969 C2563,62.2969 2581,62.2969 2581,62.2969 C2581,62.2969 2599,62.2969 2599,52.2969 " fill="none" style="stroke:#181818;stroke-width:1.5;"/><text fill="#000000" font-family="sans-serif" font-size="20" font-style="italic" lengthAdjust="spacing" textLength="116" x="2520" y="1035.8926">«database»</text><text fill="#000000" font-family="sans-serif" font-size="20" lengthAdjust="spacing" textLength="186" x="2485" y="1059.1738">StudentRepository</text><path d="M2563,1073.8906 C2563,1063.8906 2581,1063.8906 2581,1063.8906 C2581,1063.8906 2599,1063.8906 2599,1073.8906 L2599,1099.8906 C2599,1109.8906 2581,1109.8906 2581,1109.8906 C2581,1109.8906 2563,1109.8906 2563,1099.8906 L2563,1073.8906 " fill="#E2E2F0" style="stroke:#181818;stroke-width:1.5;"/><path d="M2563,1073.8906 C2563,1083.8906 2581,1083.8906 2581,1083.8906 C2581,1083.8906 2599,1083.8906 2599,1073.8906 " fill="none" style="stroke:#181818;stroke-width:1.5;"/><rect fill="#E2E2F0" height="60.5625" rx="2.5" ry="2.5" style="stroke:#181818;stroke-width:0.5;" width="114" x="2687" y="73.2969"/><text fill="#000000" font-family="sans-serif" font-size="20" font-style="italic" lengthAdjust="spacing" textLength="100" x="2694" y="98.8613">«domain»</text><text fill="#000000" font-family="sans-serif" font-size="20" lengthAdjust="spacing" textLength="80" x="2704" y="122.1426">Student</text><rect fill="#E2E2F0" height="60.5625" rx="2.5" ry="2.5" style="stroke:#181818;stroke-width:0.5;" width="114" x="2687" y="1017.3281"/><text fill="#000000" font-family="sans-serif" font-size="20" font-style="italic" lengthAdjust="spacing" textLength="100" x="2694" y="1042.8926">«domain»</text><text fill="#000000" font-family="sans-serif" font-size="20" lengthAdjust="spacing" textLength="80" x="2704" y="1066.1738">Student</text><rect fill="#E2E2F0" height="60.5625" rx="2.5" ry="2.5" style="stroke:#181818;stroke-width:0.5;" width="206" x="2811" y="73.2969"/><text fill="#000000" font-family="sans-serif" font-size="20" font-style="italic" lengthAdjust="spacing" textLength="139" x="2844.5" y="98.8613">«persistence»</text><text fill="#000000" font-family="sans-serif" font-size="20" lengthAdjust="spacing" textLength="192" x="2818" y="122.1426">PersistenceContext</text><rect fill="#E2E2F0" height="60.5625" rx="2.5" ry="2.5" style="stroke:#181818;stroke-width:0.5;" width="206" x="2811" y="1017.3281"/><text fill="#000000" font-family="sans-serif" font-size="20" font-style="italic" lengthAdjust="spacing" textLength="139" x="2844.5" y="1042.8926">«persistence»</text><text fill="#000000" font-family="sans-serif" font-size="20" lengthAdjust="spacing" textLength="192" x="2818" y="1066.1738">PersistenceContext</text><rect fill="#E2E2F0" height="60.5625" rx="2.5" ry="2.5" style="stroke:#181818;stroke-width:0.5;" width="194" x="3027" y="73.2969"/><text fill="#000000" font-family="sans-serif" font-size="20" font-style="italic" lengthAdjust="spacing" textLength="94" x="3077" y="98.8613">«factory»</text><text fill="#000000" font-family="sans-serif" font-size="20" lengthAdjust="spacing" textLength="180" x="3034" y="122.1426">RepositoryFactory</text><rect fill="#E2E2F0" height="60.5625" rx="2.5" ry="2.5" style="stroke:#181818;stroke-width:0.5;" width="194" x="3027" y="1017.3281"/><text fill="#000000" font-family="sans-serif" font-size="20" font-style="italic" lengthAdjust="spacing" textLength="94" x="3077" y="1042.8926">«factory»</text><text fill="#000000" font-family="sans-serif" font-size="20" lengthAdjust="spacing" textLength="180" x="3034" y="1066.1738">RepositoryFactory</text><rect fill="#E2E2F0" height="60.5625" rx="2.5" ry="2.5" style="stroke:#181818;stroke-width:0.5;" width="114" x="3231" y="73.2969"/><text fill="#000000" font-family="sans-serif" font-size="20" font-style="italic" lengthAdjust="spacing" textLength="100" x="3238" y="98.8613">«domain»</text><text fill="#000000" font-family="sans-serif" font-size="20" lengthAdjust="spacing" textLength="56" x="3260" y="122.1426">Exam</text><rect fill="#E2E2F0" height="60.5625" rx="2.5" ry="2.5" style="stroke:#181818;stroke-width:0.5;" width="114" x="3231" y="1017.3281"/><text fill="#000000" font-family="sans-serif" font-size="20" font-style="italic" lengthAdjust="spacing" textLength="100" x="3238" y="1042.8926">«domain»</text><text fill="#000000" font-family="sans-serif" font-size="20" lengthAdjust="spacing" textLength="56" x="3260" y="1066.1738">Exam</text><rect fill="#E2E2F0" height="60.5625" rx="2.5" ry="2.5" style="stroke:#181818;stroke-width:0.5;" width="176" x="3355" y="73.2969"/><text fill="#000000" font-family="sans-serif" font-size="20" font-style="italic" lengthAdjust="spacing" textLength="116" x="3385" y="98.8613">«database»</text><text fill="#000000" font-family="sans-serif" font-size="20" lengthAdjust="spacing" textLength="162" x="3362" y="122.1426">ExamRepository</text><rect fill="#E2E2F0" height="60.5625" rx="2.5" ry="2.5" style="stroke:#181818;stroke-width:0.5;" width="176" x="3355" y="1017.3281"/><text fill="#000000" font-family="sans-serif" font-size="20" font-style="italic" lengthAdjust="spacing" textLength="116" x="3385" y="1042.8926">«database»</text><text fill="#000000" font-family="sans-serif" font-size="20" lengthAdjust="spacing" textLength="162" x="3362" y="1066.1738">ExamRepository</text><rect fill="#E2E2F0" height="60.5625" rx="2.5" ry="2.5" style="stroke:#181818;stroke-width:0.5;" width="169" x="3541" y="73.2969"/><text fill="#000000" font-family="sans-serif" font-size="20" font-style="italic" lengthAdjust="spacing" textLength="100" x="3575.5" y="98.8613">«domain»</text><text fill="#000000" font-family="sans-serif" font-size="20" lengthAdjust="spacing" textLength="155" x="3548" y="122.1426">ExamExecution</text><rect fill="#E2E2F0" height="60.5625" rx="2.5" ry="2.5" style="stroke:#181818;stroke-width:0.5;" width="169" x="3541" y="1017.3281"/><text fill="#000000" font-family="sans-serif" font-size="20" font-style="italic" lengthAdjust="spacing" textLength="100" x="3575.5" y="1042.8926">«domain»</text><text fill="#000000" font-family="sans-serif" font-size="20" lengthAdjust="spacing" textLength="155" x="3548" y="1066.1738">ExamExecution</text><rect fill="#E2E2F0" height="60.5625" rx="2.5" ry="2.5" style="stroke:#181818;stroke-width:0.5;" width="275" x="3720" y="73.2969"/><text fill="#000000" font-family="sans-serif" font-size="20" font-style="italic" lengthAdjust="spacing" textLength="116" x="3799.5" y="98.8613">«database»</text><text fill="#000000" font-family="sans-serif" font-size="20" lengthAdjust="spacing" textLength="261" x="3727" y="122.1426">ExamExecutionRepository</text><rect fill="#E2E2F0" height="60.5625" rx="2.5" ry="2.5" style="stroke:#181818;stroke-width:0.5;" width="275" x="3720" y="1017.3281"/><text fill="#000000" font-family="sans-serif" font-size="20" font-style="italic" lengthAdjust="spacing" textLength="116" x="3799.5" y="1042.8926">«database»</text><text fill="#000000" font-family="sans-serif" font-size="20" lengthAdjust="spacing" textLength="261" x="3727" y="1066.1738">ExamExecutionRepository</text><rect fill="#E2E2F0" height="37.2813" rx="2.5" ry="2.5" style="stroke:#181818;stroke-width:0.5;" width="275" x="4005" y="96.5781"/><text fill="#000000" font-family="sans-serif" font-size="20" lengthAdjust="spacing" textLength="261" x="4012" y="122.1426">ExamExecutionRepository</text><rect fill="#E2E2F0" height="37.2813" rx="2.5" ry="2.5" style="stroke:#181818;stroke-width:0.5;" width="275" x="4005" y="1017.3281"/><text fill="#000000" font-family="sans-serif" font-size="20" lengthAdjust="spacing" textLength="261" x="4012" y="1042.8926">ExamExecutionRepository</text><rect fill="#FFFFFF" height="855.4688" style="stroke:#181818;stroke-width:1.0;" width="10" x="43" y="144.8594"/><rect fill="#FFFFFF" height="826.1875" style="stroke:#181818;stroke-width:1.0;" width="10" x="367" y="174.1406"/><rect fill="#FFFFFF" height="527.9375" style="stroke:#181818;stroke-width:1.0;" width="10" x="869" y="211.4219"/><rect fill="#FFFFFF" height="186.4063" style="stroke:#181818;stroke-width:1.0;" width="10" x="869" y="776.6406"/><rect fill="#FFFFFF" height="111.8438" style="stroke:#181818;stroke-width:1.0;" width="10" x="1371" y="813.9219"/><rect fill="#FFFFFF" height="37.2813" style="stroke:#181818;stroke-width:1.0;" width="10" x="2909" y="248.7031"/><rect fill="#FFFFFF" height="37.2813" style="stroke:#181818;stroke-width:1.0;" width="10" x="3119" y="323.2656"/><rect fill="#FFFFFF" height="37.2813" style="stroke:#181818;stroke-width:1.0;" width="10" x="3119" y="397.8281"/><rect fill="#FFFFFF" height="37.2813" style="stroke:#181818;stroke-width:1.0;" width="10" x="3119" y="472.3906"/><rect fill="#FFFFFF" height="37.2813" style="stroke:#181818;stroke-width:1.0;" width="10" x="3119" y="546.9531"/><rect fill="#FFFFFF" height="37.2813" style="stroke:#181818;stroke-width:1.0;" width="10" x="3119" y="621.5156"/><rect fill="#FFFFFF" height="37.2813" style="stroke:#181818;stroke-width:1.0;" width="10" x="4137.5" y="851.2031"/><polygon fill="#181818" points="355,170.1406,365,174.1406,355,178.1406,359,174.1406" style="stroke:#181818;stroke-width:1.0;"/><line style="stroke:#181818;stroke-width:1.0;" x1="53" x2="361" y1="174.1406" y2="174.1406"/><text fill="#000000" font-family="sans-serif" font-size="20" font-weight="bold" lengthAdjust="spacing" textLength="14" x="60" y="167.4238">1</text><text fill="#000000" font-family="sans-serif" font-size="20" lengthAdjust="spacing" textLength="277" x="78" y="167.4238">selects option "List Grades"</text><polygon fill="#181818" points="857,207.4219,867,211.4219,857,215.4219,861,211.4219" style="stroke:#181818;stroke-width:1.0;"/><line style="stroke:#181818;stroke-width:1.0;" x1="377" x2="863" y1="211.4219" y2="211.4219"/><text fill="#000000" font-family="sans-serif" font-size="20" font-weight="bold" lengthAdjust="spacing" textLength="14" x="384" y="204.7051">2</text><text fill="#000000" font-family="sans-serif" font-size="20" lengthAdjust="spacing" textLength="79" x="402" y="204.7051">create()</text><polygon fill="#181818" points="2897,244.7031,2907,248.7031,2897,252.7031,2901,248.7031" style="stroke:#181818;stroke-width:1.0;"/><line style="stroke:#181818;stroke-width:1.0;" x1="879" x2="2903" y1="248.7031" y2="248.7031"/><text fill="#000000" font-family="sans-serif" font-size="20" font-weight="bold" lengthAdjust="spacing" textLength="14" x="886" y="241.9863">3</text><text fill="#000000" font-family="sans-serif" font-size="20" lengthAdjust="spacing" textLength="133" x="904" y="241.9863">repositories()</text><polygon fill="#181818" points="890,281.9844,880,285.9844,890,289.9844,886,285.9844" style="stroke:#181818;stroke-width:1.0;"/><line style="stroke:#181818;stroke-width:1.0;stroke-dasharray:2.0,2.0;" x1="884" x2="2913" y1="285.9844" y2="285.9844"/><text fill="#000000" font-family="sans-serif" font-size="20" font-weight="bold" lengthAdjust="spacing" textLength="14" x="896" y="279.2676">4</text><text fill="#000000" font-family="sans-serif" font-size="20" lengthAdjust="spacing" textLength="180" x="914" y="279.2676">RepositoryFactory</text><polygon fill="#181818" points="3107,319.2656,3117,323.2656,3107,327.2656,3111,323.2656" style="stroke:#181818;stroke-width:1.0;"/><line style="stroke:#181818;stroke-width:1.0;" x1="879" x2="3113" y1="323.2656" y2="323.2656"/><text fill="#000000" font-family="sans-serif" font-size="20" font-weight="bold" lengthAdjust="spacing" textLength="14" x="886" y="316.5488">5</text><text fill="#000000" font-family="sans-serif" font-size="20" lengthAdjust="spacing" textLength="180" x="904" y="316.5488">examExecutions()</text><polygon fill="#181818" points="890,356.5469,880,360.5469,890,364.5469,886,360.5469" style="stroke:#181818;stroke-width:1.0;"/><line style="stroke:#181818;stroke-width:1.0;stroke-dasharray:2.0,2.0;" x1="884" x2="3123" y1="360.5469" y2="360.5469"/><text fill="#000000" font-family="sans-serif" font-size="20" font-weight="bold" lengthAdjust="spacing" textLength="14" x="896" y="353.8301">6</text><text fill="#000000" font-family="sans-serif" font-size="20" lengthAdjust="spacing" textLength="261" x="914" y="353.8301">ExamExecutionRepository</text><polygon fill="#181818" points="3107,393.8281,3117,397.8281,3107,401.8281,3111,397.8281" style="stroke:#181818;stroke-width:1.0;"/><line style="stroke:#181818;stroke-width:1.0;" x1="879" x2="3113" y1="397.8281" y2="397.8281"/><text fill="#000000" font-family="sans-serif" font-size="20" font-weight="bold" lengthAdjust="spacing" textLength="14" x="886" y="391.1113">7</text><text fill="#000000" font-family="sans-serif" font-size="20" lengthAdjust="spacing" textLength="81" x="904" y="391.1113">exams()</text><polygon fill="#181818" points="890,431.1094,880,435.1094,890,439.1094,886,435.1094" style="stroke:#181818;stroke-width:1.0;"/><line style="stroke:#181818;stroke-width:1.0;stroke-dasharray:2.0,2.0;" x1="884" x2="3123" y1="435.1094" y2="435.1094"/><text fill="#000000" font-family="sans-serif" font-size="20" font-weight="bold" lengthAdjust="spacing" textLength="14" x="896" y="428.3926">8</text><text fill="#000000" font-family="sans-serif" font-size="20" lengthAdjust="spacing" textLength="162" x="914" y="428.3926">ExamRepository</text><polygon fill="#181818" points="3107,468.3906,3117,472.3906,3107,476.3906,3111,472.3906" style="stroke:#181818;stroke-width:1.0;"/><line style="stroke:#181818;stroke-width:1.0;" x1="879" x2="3113" y1="472.3906" y2="472.3906"/><text fill="#000000" font-family="sans-serif" font-size="20" font-weight="bold" lengthAdjust="spacing" textLength="14" x="886" y="465.6738">9</text><text fill="#000000" font-family="sans-serif" font-size="20" lengthAdjust="spacing" textLength="92" x="904" y="465.6738">courses()</text><polygon fill="#181818" points="890,505.6719,880,509.6719,890,513.6719,886,509.6719" style="stroke:#181818;stroke-width:1.0;"/><line style="stroke:#181818;stroke-width:1.0;stroke-dasharray:2.0,2.0;" x1="884" x2="3123" y1="509.6719" y2="509.6719"/><text fill="#000000" font-family="sans-serif" font-size="20" font-weight="bold" lengthAdjust="spacing" textLength="28" x="896" y="502.9551">10</text><text fill="#000000" font-family="sans-serif" font-size="20" lengthAdjust="spacing" textLength="175" x="928" y="502.9551">CourseRepository</text><polygon fill="#181818" points="3107,542.9531,3117,546.9531,3107,550.9531,3111,546.9531" style="stroke:#181818;stroke-width:1.0;"/><line style="stroke:#181818;stroke-width:1.0;" x1="879" x2="3113" y1="546.9531" y2="546.9531"/><text fill="#000000" font-family="sans-serif" font-size="20" font-weight="bold" lengthAdjust="spacing" textLength="28" x="886" y="540.2363">11</text><text fill="#000000" font-family="sans-serif" font-size="20" lengthAdjust="spacing" textLength="136" x="918" y="540.2363">enrollments()</text><polygon fill="#181818" points="890,580.2344,880,584.2344,890,588.2344,886,584.2344" style="stroke:#181818;stroke-width:1.0;"/><line style="stroke:#181818;stroke-width:1.0;stroke-dasharray:2.0,2.0;" x1="884" x2="3123" y1="584.2344" y2="584.2344"/><text fill="#000000" font-family="sans-serif" font-size="20" font-weight="bold" lengthAdjust="spacing" textLength="28" x="896" y="577.5176">12</text><text fill="#000000" font-family="sans-serif" font-size="20" lengthAdjust="spacing" textLength="217" x="928" y="577.5176">EnrollmentRepository</text><polygon fill="#181818" points="3107,617.5156,3117,621.5156,3107,625.5156,3111,621.5156" style="stroke:#181818;stroke-width:1.0;"/><line style="stroke:#181818;stroke-width:1.0;" x1="879" x2="3113" y1="621.5156" y2="621.5156"/><text fill="#000000" font-family="sans-serif" font-size="20" font-weight="bold" lengthAdjust="spacing" textLength="28" x="886" y="614.7988">13</text><text fill="#000000" font-family="sans-serif" font-size="20" lengthAdjust="spacing" textLength="103" x="918" y="614.7988">students()</text><polygon fill="#181818" points="890,654.7969,880,658.7969,890,662.7969,886,658.7969" style="stroke:#181818;stroke-width:1.0;"/><line style="stroke:#181818;stroke-width:1.0;stroke-dasharray:2.0,2.0;" x1="884" x2="3123" y1="658.7969" y2="658.7969"/><text fill="#000000" font-family="sans-serif" font-size="20" font-weight="bold" lengthAdjust="spacing" textLength="28" x="896" y="652.0801">14</text><text fill="#000000" font-family="sans-serif" font-size="20" lengthAdjust="spacing" textLength="186" x="928" y="652.0801">StudentRepository</text><path d="M884,671.7969 L884,704.7969 L1196,704.7969 L1196,681.7969 L1186,671.7969 L884,671.7969 " fill="#FEFFDD" style="stroke:#181818;stroke-width:0.5;"/><path d="M1186,671.7969 L1186,681.7969 L1196,681.7969 L1186,671.7969 " fill="#FEFFDD" style="stroke:#181818;stroke-width:0.5;"/><text fill="#000000" font-family="sans-serif" font-size="20" lengthAdjust="spacing" textLength="291" x="890" y="695.3613">user is authenticated (authz)</text><polygon fill="#181818" points="1364,735.3594,1374,739.3594,1364,743.3594,1368,739.3594" style="stroke:#181818;stroke-width:1.0;"/><line style="stroke:#181818;stroke-width:1.0;" x1="874" x2="1370" y1="739.3594" y2="739.3594"/><text fill="#000000" font-family="sans-serif" font-size="20" font-weight="bold" lengthAdjust="spacing" textLength="28" x="881" y="732.6426">15</text><text fill="#000000" font-family="sans-serif" font-size="20" lengthAdjust="spacing" textLength="412" x="913" y="732.6426">create(authz, courseEnrollments, exams)</text><polygon fill="#181818" points="857,772.6406,867,776.6406,857,780.6406,861,776.6406" style="stroke:#181818;stroke-width:1.0;"/><line style="stroke:#181818;stroke-width:1.0;" x1="377" x2="863" y1="776.6406" y2="776.6406"/><text fill="#000000" font-family="sans-serif" font-size="20" font-weight="bold" lengthAdjust="spacing" textLength="28" x="384" y="769.9238">16</text><text fill="#000000" font-family="sans-serif" font-size="20" lengthAdjust="spacing" textLength="197" x="416" y="769.9238">listStudentGrades()</text><polygon fill="#181818" points="1359,809.9219,1369,813.9219,1359,817.9219,1363,813.9219" style="stroke:#181818;stroke-width:1.0;"/><line style="stroke:#181818;stroke-width:1.0;" x1="879" x2="1365" y1="813.9219" y2="813.9219"/><text fill="#000000" font-family="sans-serif" font-size="20" font-weight="bold" lengthAdjust="spacing" textLength="28" x="886" y="807.2051">17</text><text fill="#000000" font-family="sans-serif" font-size="20" lengthAdjust="spacing" textLength="274" x="918" y="807.2051">listStudentGrades(student)</text><polygon fill="#181818" points="4125.5,847.2031,4135.5,851.2031,4125.5,855.2031,4129.5,851.2031" style="stroke:#181818;stroke-width:1.0;"/><line style="stroke:#181818;stroke-width:1.0;" x1="1381" x2="4131.5" y1="851.2031" y2="851.2031"/><text fill="#000000" font-family="sans-serif" font-size="20" font-weight="bold" lengthAdjust="spacing" textLength="28" x="1388" y="844.4863">18</text><text fill="#000000" font-family="sans-serif" font-size="20" lengthAdjust="spacing" textLength="237" x="1420" y="844.4863">findByStudent(student)</text><polygon fill="#181818" points="1392,884.4844,1382,888.4844,1392,892.4844,1388,888.4844" style="stroke:#181818;stroke-width:1.0;"/><line style="stroke:#181818;stroke-width:1.0;stroke-dasharray:2.0,2.0;" x1="1386" x2="4141.5" y1="888.4844" y2="888.4844"/><text fill="#000000" font-family="sans-serif" font-size="20" font-weight="bold" lengthAdjust="spacing" textLength="28" x="1398" y="881.7676">19</text><text fill="#000000" font-family="sans-serif" font-size="20" lengthAdjust="spacing" textLength="436" x="1430" y="881.7676">Iterable&lt;ExamExecution&gt; examExecutions</text><polygon fill="#181818" points="890,921.7656,880,925.7656,890,929.7656,886,925.7656" style="stroke:#181818;stroke-width:1.0;"/><line style="stroke:#181818;stroke-width:1.0;stroke-dasharray:2.0,2.0;" x1="884" x2="1375" y1="925.7656" y2="925.7656"/><text fill="#000000" font-family="sans-serif" font-size="20" font-weight="bold" lengthAdjust="spacing" textLength="28" x="896" y="919.0488">20</text><text fill="#000000" font-family="sans-serif" font-size="20" lengthAdjust="spacing" textLength="436" x="928" y="919.0488">Iterable&lt;ExamExecution&gt; examExecutions</text><polygon fill="#181818" points="388,959.0469,378,963.0469,388,967.0469,384,963.0469" style="stroke:#181818;stroke-width:1.0;"/><line style="stroke:#181818;stroke-width:1.0;stroke-dasharray:2.0,2.0;" x1="382" x2="873" y1="963.0469" y2="963.0469"/><text fill="#000000" font-family="sans-serif" font-size="20" font-weight="bold" lengthAdjust="spacing" textLength="28" x="394" y="956.3301">21</text><text fill="#000000" font-family="sans-serif" font-size="20" lengthAdjust="spacing" textLength="436" x="426" y="956.3301">Iterable&lt;ExamExecution&gt; examExecutions</text><polygon fill="#181818" points="59,996.3281,49,1000.3281,59,1004.3281,55,1000.3281" style="stroke:#181818;stroke-width:1.0;"/><line style="stroke:#181818;stroke-width:1.0;" x1="53" x2="371" y1="1000.3281" y2="1000.3281"/><text fill="#000000" font-family="sans-serif" font-size="20" font-weight="bold" lengthAdjust="spacing" textLength="28" x="65" y="993.6113">22</text><text fill="#000000" font-family="sans-serif" font-size="20" lengthAdjust="spacing" textLength="197" x="97" y="993.6113">shows list of grades</text><!--SRC=[dLN9Rjim4BthAuYSOY06YXuDmOUwJc4WXo9oFe2MnZ4HMHH8AdNozPqXHObQ6DYvs5pclJUQZVfDL3LN_5pA_0qALi2HDwLvb9N9n2UmdpyItXXPDUS3gCG8KmBBVhCbUnBQiCmq1LI6RI_ypFueNe1E4fuRgRehhbcsJr32Y5pK74y8sTuwoCkEhF0tJMi56i-v4R9Qhx-6RT179SiI5C4t- -Sd9E1rNOeyXYS_TGRgNUH0e5TBv0_ILBlL378Z6wLXMv7W6Lq8MM1w6b8LtF03ry1wz3FKKWiCqmVX5UxwEyHwnCYFm6QWIWXvvg8AnPp3Ko5t7XTfxz4wxomdv6qUfkm-wr7we2nqR-i5Gik_e3G67geSADDmiI2_n5BfxqV8tgr7MulMExzCqwDRZODB9KnXfV-8IsGpaxeM4KaQtcula3TKabwWF_X2gJEQbnnmzDgs_yGxDq1zb-tPSasjjM8QIiYDPhAse3lRmAwJxdhCoov1QyHGFwrOhW1FxnUz0Pqdjjd8o6LZPPsoBWhG0sjdaFYqBJlcIPAI0gQmLgSrMGs3Dr3oB3xFlL8abg6U1y_gtI1p8xlhi2lvnmrzdV_zQBhoAsPcr5LARJTVAJCP87CQbSID4gydm-In1JOuLvdG31-b4nBGgCTNwvwsdulEgy5SxwhO6ZsqKGz6-ODBys9GWLJcOIUKu-SdsXGZyIcm3LM07q2IuQk4Z94ANh6Zg8fV7otx36-iz6FZPJbrVsT0yKC9wG2p7dLY6BgOwEYpkiZUhZ0Cbukx7NFV8GioZTCI2_aa_scRDQew9nNQuuGCTjd-Fm00]--></g></svg>