<?xml version="1.0" encoding="UTF-8" standalone="no"?><svg xmlns="http://www.w3.org/2000/svg" xmlns:xlink="http://www.w3.org/1999/xlink" contentStyleType="text/css" height="680px" preserveAspectRatio="none" style="width:632px;height:680px;background:#FFFFFF;" version="1.1" viewBox="0 0 632 680" width="632px" zoomAndPan="magnify"><defs/><g><text fill="#000000" font-family="sans-serif" font-size="14" font-weight="bold" lengthAdjust="spacing" textLength="205" x="212.5" y="27.9951">Change PostIt - Edit PostIt</text><rect fill="#FFFFFF" height="439.375" style="stroke:#181818;stroke-width:1.0;" width="10" x="25.5" y="135.5781"/><rect fill="#FFFFFF" height="37.2813" style="stroke:#181818;stroke-width:1.0;" width="10" x="573.5" y="164.8594"/><rect fill="#FFFFFF" height="37.2813" style="stroke:#181818;stroke-width:1.0;" width="10" x="573.5" y="239.4219"/><rect fill="#FFFFFF" height="37.2813" style="stroke:#181818;stroke-width:1.0;" width="10" x="573.5" y="313.9844"/><rect fill="#FFFFFF" height="37.2813" style="stroke:#181818;stroke-width:1.0;" width="10" x="573.5" y="388.5469"/><rect fill="#FFFFFF" height="37.2813" style="stroke:#181818;stroke-width:1.0;" width="10" x="573.5" y="463.1094"/><rect fill="#FFFFFF" height="37.2813" style="stroke:#181818;stroke-width:1.0;" width="10" x="573.5" y="537.6719"/><line style="stroke:#181818;stroke-width:0.5;stroke-dasharray:5.0,5.0;" x1="30" x2="30" y1="125.5781" y2="592.9531"/><line style="stroke:#181818;stroke-width:0.5;stroke-dasharray:5.0,5.0;" x1="578" x2="578" y1="125.5781" y2="592.9531"/><text fill="#000000" font-family="sans-serif" font-size="20" lengthAdjust="spacing" textLength="45" x="5" y="120.8613">User</text><ellipse cx="30.5" cy="50.7969" fill="#E2E2F0" rx="8" ry="8" style="stroke:#181818;stroke-width:0.5;"/><path d="M30.5,58.7969 L30.5,85.7969 M17.5,66.7969 L43.5,66.7969 M30.5,85.7969 L17.5,100.7969 M30.5,85.7969 L43.5,100.7969 " fill="none" style="stroke:#181818;stroke-width:0.5;"/><text fill="#000000" font-family="sans-serif" font-size="20" lengthAdjust="spacing" textLength="45" x="5" y="610.5176">User</text><ellipse cx="30.5" cy="623.7344" fill="#E2E2F0" rx="8" ry="8" style="stroke:#181818;stroke-width:0.5;"/><path d="M30.5,631.7344 L30.5,658.7344 M17.5,639.7344 L43.5,639.7344 M30.5,658.7344 L17.5,673.7344 M30.5,658.7344 L43.5,673.7344 " fill="none" style="stroke:#181818;stroke-width:0.5;"/><rect fill="#E2E2F0" height="37.2813" rx="2.5" ry="2.5" style="stroke:#181818;stroke-width:0.5;" width="95" x="531" y="87.2969"/><text fill="#000000" font-family="sans-serif" font-size="20" lengthAdjust="spacing" textLength="81" x="538" y="112.8613">:System</text><rect fill="#E2E2F0" height="37.2813" rx="2.5" ry="2.5" style="stroke:#181818;stroke-width:0.5;" width="95" x="531" y="591.9531"/><text fill="#000000" font-family="sans-serif" font-size="20" lengthAdjust="spacing" textLength="81" x="538" y="617.5176">:System</text><rect fill="#FFFFFF" height="439.375" style="stroke:#181818;stroke-width:1.0;" width="10" x="25.5" y="135.5781"/><rect fill="#FFFFFF" height="37.2813" style="stroke:#181818;stroke-width:1.0;" width="10" x="573.5" y="164.8594"/><rect fill="#FFFFFF" height="37.2813" style="stroke:#181818;stroke-width:1.0;" width="10" x="573.5" y="239.4219"/><rect fill="#FFFFFF" height="37.2813" style="stroke:#181818;stroke-width:1.0;" width="10" x="573.5" y="313.9844"/><rect fill="#FFFFFF" height="37.2813" style="stroke:#181818;stroke-width:1.0;" width="10" x="573.5" y="388.5469"/><rect fill="#FFFFFF" height="37.2813" style="stroke:#181818;stroke-width:1.0;" width="10" x="573.5" y="463.1094"/><rect fill="#FFFFFF" height="37.2813" style="stroke:#181818;stroke-width:1.0;" width="10" x="573.5" y="537.6719"/><polygon fill="#181818" points="561.5,160.8594,571.5,164.8594,561.5,168.8594,565.5,164.8594" style="stroke:#181818;stroke-width:1.0;"/><line style="stroke:#181818;stroke-width:1.0;" x1="35.5" x2="567.5" y1="164.8594" y2="164.8594"/><text fill="#000000" font-family="sans-serif" font-size="20" font-weight="bold" lengthAdjust="spacing" textLength="14" x="42.5" y="158.1426">1</text><text fill="#000000" font-family="sans-serif" font-size="20" lengthAdjust="spacing" textLength="304" x="60.5" y="158.1426">selects option "Change PostIt"</text><polygon fill="#181818" points="46.5,198.1406,36.5,202.1406,46.5,206.1406,42.5,202.1406" style="stroke:#181818;stroke-width:1.0;"/><line style="stroke:#181818;stroke-width:1.0;stroke-dasharray:2.0,2.0;" x1="40.5" x2="577.5" y1="202.1406" y2="202.1406"/><text fill="#000000" font-family="sans-serif" font-size="20" font-weight="bold" lengthAdjust="spacing" textLength="14" x="52.5" y="195.4238">2</text><text fill="#000000" font-family="sans-serif" font-size="20" lengthAdjust="spacing" textLength="496" x="70.5" y="195.4238">shows the list of Boards that the User can change</text><polygon fill="#181818" points="561.5,235.4219,571.5,239.4219,561.5,243.4219,565.5,239.4219" style="stroke:#181818;stroke-width:1.0;"/><line style="stroke:#181818;stroke-width:1.0;" x1="35.5" x2="567.5" y1="239.4219" y2="239.4219"/><text fill="#000000" font-family="sans-serif" font-size="20" font-weight="bold" lengthAdjust="spacing" textLength="14" x="42.5" y="232.7051">3</text><text fill="#000000" font-family="sans-serif" font-size="20" lengthAdjust="spacing" textLength="279" x="60.5" y="232.7051">selects the Board to change</text><polygon fill="#181818" points="46.5,272.7031,36.5,276.7031,46.5,280.7031,42.5,276.7031" style="stroke:#181818;stroke-width:1.0;"/><line style="stroke:#181818;stroke-width:1.0;stroke-dasharray:2.0,2.0;" x1="40.5" x2="577.5" y1="276.7031" y2="276.7031"/><text fill="#000000" font-family="sans-serif" font-size="20" font-weight="bold" lengthAdjust="spacing" textLength="14" x="52.5" y="269.9863">4</text><text fill="#000000" font-family="sans-serif" font-size="20" lengthAdjust="spacing" textLength="486" x="70.5" y="269.9863">shows list of change options (Move, Edit, Delete)</text><polygon fill="#181818" points="561.5,309.9844,571.5,313.9844,561.5,317.9844,565.5,313.9844" style="stroke:#181818;stroke-width:1.0;"/><line style="stroke:#181818;stroke-width:1.0;" x1="35.5" x2="567.5" y1="313.9844" y2="313.9844"/><text fill="#000000" font-family="sans-serif" font-size="20" font-weight="bold" lengthAdjust="spacing" textLength="14" x="42.5" y="307.2676">5</text><text fill="#000000" font-family="sans-serif" font-size="20" lengthAdjust="spacing" textLength="205" x="60.5" y="307.2676">selects option "Edit"</text><polygon fill="#181818" points="46.5,347.2656,36.5,351.2656,46.5,355.2656,42.5,351.2656" style="stroke:#181818;stroke-width:1.0;"/><line style="stroke:#181818;stroke-width:1.0;stroke-dasharray:2.0,2.0;" x1="40.5" x2="577.5" y1="351.2656" y2="351.2656"/><text fill="#000000" font-family="sans-serif" font-size="20" font-weight="bold" lengthAdjust="spacing" textLength="14" x="52.5" y="344.5488">6</text><text fill="#000000" font-family="sans-serif" font-size="20" lengthAdjust="spacing" textLength="411" x="70.5" y="344.5488">asks for the postIt position (row, column)</text><polygon fill="#181818" points="561.5,384.5469,571.5,388.5469,561.5,392.5469,565.5,388.5469" style="stroke:#181818;stroke-width:1.0;"/><line style="stroke:#181818;stroke-width:1.0;" x1="35.5" x2="567.5" y1="388.5469" y2="388.5469"/><text fill="#000000" font-family="sans-serif" font-size="20" font-weight="bold" lengthAdjust="spacing" textLength="14" x="42.5" y="381.8301">7</text><text fill="#000000" font-family="sans-serif" font-size="20" lengthAdjust="spacing" textLength="149" x="60.5" y="381.8301">inputs position</text><polygon fill="#181818" points="46.5,421.8281,36.5,425.8281,46.5,429.8281,42.5,425.8281" style="stroke:#181818;stroke-width:1.0;"/><line style="stroke:#181818;stroke-width:1.0;stroke-dasharray:2.0,2.0;" x1="40.5" x2="577.5" y1="425.8281" y2="425.8281"/><text fill="#000000" font-family="sans-serif" font-size="20" font-weight="bold" lengthAdjust="spacing" textLength="14" x="52.5" y="419.1113">8</text><text fill="#000000" font-family="sans-serif" font-size="20" lengthAdjust="spacing" textLength="437" x="70.5" y="419.1113">asks for the new content type (Text, Image)</text><polygon fill="#181818" points="561.5,459.1094,571.5,463.1094,561.5,467.1094,565.5,463.1094" style="stroke:#181818;stroke-width:1.0;"/><line style="stroke:#181818;stroke-width:1.0;" x1="35.5" x2="567.5" y1="463.1094" y2="463.1094"/><text fill="#000000" font-family="sans-serif" font-size="20" font-weight="bold" lengthAdjust="spacing" textLength="14" x="42.5" y="456.3926">9</text><text fill="#000000" font-family="sans-serif" font-size="20" lengthAdjust="spacing" textLength="196" x="60.5" y="456.3926">inputs content type</text><polygon fill="#181818" points="46.5,496.3906,36.5,500.3906,46.5,504.3906,42.5,500.3906" style="stroke:#181818;stroke-width:1.0;"/><line style="stroke:#181818;stroke-width:1.0;stroke-dasharray:2.0,2.0;" x1="40.5" x2="577.5" y1="500.3906" y2="500.3906"/><text fill="#000000" font-family="sans-serif" font-size="20" font-weight="bold" lengthAdjust="spacing" textLength="28" x="52.5" y="493.6738">10</text><text fill="#000000" font-family="sans-serif" font-size="20" lengthAdjust="spacing" textLength="455" x="84.5" y="493.6738">asks for the new content (text or image path)</text><polygon fill="#181818" points="561.5,533.6719,571.5,537.6719,561.5,541.6719,565.5,537.6719" style="stroke:#181818;stroke-width:1.0;"/><line style="stroke:#181818;stroke-width:1.0;" x1="35.5" x2="567.5" y1="537.6719" y2="537.6719"/><text fill="#000000" font-family="sans-serif" font-size="20" font-weight="bold" lengthAdjust="spacing" textLength="28" x="42.5" y="530.9551">11</text><text fill="#000000" font-family="sans-serif" font-size="20" lengthAdjust="spacing" textLength="146" x="74.5" y="530.9551">inputs content</text><polygon fill="#181818" points="41.5,570.9531,31.5,574.9531,41.5,578.9531,37.5,574.9531" style="stroke:#181818;stroke-width:1.0;"/><line style="stroke:#181818;stroke-width:1.0;stroke-dasharray:2.0,2.0;" x1="35.5" x2="577.5" y1="574.9531" y2="574.9531"/><text fill="#000000" font-family="sans-serif" font-size="20" font-weight="bold" lengthAdjust="spacing" textLength="28" x="47.5" y="568.2363">12</text><text fill="#000000" font-family="sans-serif" font-size="20" lengthAdjust="spacing" textLength="330" x="79.5" y="568.2363">shows the confirmation message</text><!--SRC=[fPFFQi9048VlUOeXfnGKIeyUUkWVmKEX47s0QJ8nYzcTi3lHsgVlR3JLGWLZJo4JVjz-EpC96-DQz6WRBZPKGaaLTetCsKbklWWUxXFiX5rdFyWdM0XxI5U1V0eOO9KdIoCDmGoUQtHhWdSEiX2OmcjfvFYMn9pPeb0Ch7AOFa8wo_T1oAOQ3THG8G6u5SCEqb-ez1J-oIIdz5HPIbH8pRi0KXCq9WXm1K-ClembbBuUhQ501qNFJqhwWtpPBY9w90WFY35gWzOXUhniWEoDjpJfspM15prBw6wisj2u2BcsNnWs0IgTPhnNUvYQFanFoZpl9b1mqrbtjOqkKgSo0-GM3qSxFTK9EHtPlYN8blIfVLbONDDOaNFGVsKoKG_G3oQQG8jItwWpUfqrLnbliH-CfH3mqkwU5VK_-mO0]--></g></svg>