<?xml version="1.0" encoding="UTF-8" standalone="no"?><svg xmlns="http://www.w3.org/2000/svg" xmlns:xlink="http://www.w3.org/1999/xlink" contentStyleType="text/css" height="531px" preserveAspectRatio="none" style="width:632px;height:531px;background:#FFFFFF;" version="1.1" viewBox="0 0 632 531" width="632px" zoomAndPan="magnify"><defs/><g><text fill="#000000" font-family="sans-serif" font-size="14" font-weight="bold" lengthAdjust="spacing" textLength="227" x="201.5" y="27.9951">Change PostIt - Delete PostIt</text><rect fill="#FFFFFF" height="290.25" style="stroke:#181818;stroke-width:1.0;" width="10" x="25.5" y="135.5781"/><rect fill="#FFFFFF" height="37.2813" style="stroke:#181818;stroke-width:1.0;" width="10" x="573.5" y="164.8594"/><rect fill="#FFFFFF" height="37.2813" style="stroke:#181818;stroke-width:1.0;" width="10" x="573.5" y="239.4219"/><rect fill="#FFFFFF" height="37.2813" style="stroke:#181818;stroke-width:1.0;" width="10" x="573.5" y="313.9844"/><rect fill="#FFFFFF" height="37.2813" style="stroke:#181818;stroke-width:1.0;" width="10" x="573.5" y="388.5469"/><line style="stroke:#181818;stroke-width:0.5;stroke-dasharray:5.0,5.0;" x1="30" x2="30" y1="125.5781" y2="443.8281"/><line style="stroke:#181818;stroke-width:0.5;stroke-dasharray:5.0,5.0;" x1="578" x2="578" y1="125.5781" y2="443.8281"/><text fill="#000000" font-family="sans-serif" font-size="20" lengthAdjust="spacing" textLength="45" x="5" y="120.8613">User</text><ellipse cx="30.5" cy="50.7969" fill="#E2E2F0" rx="8" ry="8" style="stroke:#181818;stroke-width:0.5;"/><path d="M30.5,58.7969 L30.5,85.7969 M17.5,66.7969 L43.5,66.7969 M30.5,85.7969 L17.5,100.7969 M30.5,85.7969 L43.5,100.7969 " fill="none" style="stroke:#181818;stroke-width:0.5;"/><text fill="#000000" font-family="sans-serif" font-size="20" lengthAdjust="spacing" textLength="45" x="5" y="461.3926">User</text><ellipse cx="30.5" cy="474.6094" fill="#E2E2F0" rx="8" ry="8" style="stroke:#181818;stroke-width:0.5;"/><path d="M30.5,482.6094 L30.5,509.6094 M17.5,490.6094 L43.5,490.6094 M30.5,509.6094 L17.5,524.6094 M30.5,509.6094 L43.5,524.6094 " fill="none" style="stroke:#181818;stroke-width:0.5;"/><rect fill="#E2E2F0" height="37.2813" rx="2.5" ry="2.5" style="stroke:#181818;stroke-width:0.5;" width="95" x="531" y="87.2969"/><text fill="#000000" font-family="sans-serif" font-size="20" lengthAdjust="spacing" textLength="81" x="538" y="112.8613">:System</text><rect fill="#E2E2F0" height="37.2813" rx="2.5" ry="2.5" style="stroke:#181818;stroke-width:0.5;" width="95" x="531" y="442.8281"/><text fill="#000000" font-family="sans-serif" font-size="20" lengthAdjust="spacing" textLength="81" x="538" y="468.3926">:System</text><rect fill="#FFFFFF" height="290.25" style="stroke:#181818;stroke-width:1.0;" width="10" x="25.5" y="135.5781"/><rect fill="#FFFFFF" height="37.2813" style="stroke:#181818;stroke-width:1.0;" width="10" x="573.5" y="164.8594"/><rect fill="#FFFFFF" height="37.2813" style="stroke:#181818;stroke-width:1.0;" width="10" x="573.5" y="239.4219"/><rect fill="#FFFFFF" height="37.2813" style="stroke:#181818;stroke-width:1.0;" width="10" x="573.5" y="313.9844"/><rect fill="#FFFFFF" height="37.2813" style="stroke:#181818;stroke-width:1.0;" width="10" x="573.5" y="388.5469"/><polygon fill="#181818" points="561.5,160.8594,571.5,164.8594,561.5,168.8594,565.5,164.8594" style="stroke:#181818;stroke-width:1.0;"/><line style="stroke:#181818;stroke-width:1.0;" x1="35.5" x2="567.5" y1="164.8594" y2="164.8594"/><text fill="#000000" font-family="sans-serif" font-size="20" font-weight="bold" lengthAdjust="spacing" textLength="14" x="42.5" y="158.1426">1</text><text fill="#000000" font-family="sans-serif" font-size="20" lengthAdjust="spacing" textLength="304" x="60.5" y="158.1426">selects option "Change PostIt"</text><polygon fill="#181818" points="46.5,198.1406,36.5,202.1406,46.5,206.1406,42.5,202.1406" style="stroke:#181818;stroke-width:1.0;"/><line style="stroke:#181818;stroke-width:1.0;stroke-dasharray:2.0,2.0;" x1="40.5" x2="577.5" y1="202.1406" y2="202.1406"/><text fill="#000000" font-family="sans-serif" font-size="20" font-weight="bold" lengthAdjust="spacing" textLength="14" x="52.5" y="195.4238">2</text><text fill="#000000" font-family="sans-serif" font-size="20" lengthAdjust="spacing" textLength="496" x="70.5" y="195.4238">shows the list of Boards that the User can change</text><polygon fill="#181818" points="561.5,235.4219,571.5,239.4219,561.5,243.4219,565.5,239.4219" style="stroke:#181818;stroke-width:1.0;"/><line style="stroke:#181818;stroke-width:1.0;" x1="35.5" x2="567.5" y1="239.4219" y2="239.4219"/><text fill="#000000" font-family="sans-serif" font-size="20" font-weight="bold" lengthAdjust="spacing" textLength="14" x="42.5" y="232.7051">3</text><text fill="#000000" font-family="sans-serif" font-size="20" lengthAdjust="spacing" textLength="279" x="60.5" y="232.7051">selects the Board to change</text><polygon fill="#181818" points="46.5,272.7031,36.5,276.7031,46.5,280.7031,42.5,276.7031" style="stroke:#181818;stroke-width:1.0;"/><line style="stroke:#181818;stroke-width:1.0;stroke-dasharray:2.0,2.0;" x1="40.5" x2="577.5" y1="276.7031" y2="276.7031"/><text fill="#000000" font-family="sans-serif" font-size="20" font-weight="bold" lengthAdjust="spacing" textLength="14" x="52.5" y="269.9863">4</text><text fill="#000000" font-family="sans-serif" font-size="20" lengthAdjust="spacing" textLength="486" x="70.5" y="269.9863">shows list of change options (Move, Edit, Delete)</text><polygon fill="#181818" points="561.5,309.9844,571.5,313.9844,561.5,317.9844,565.5,313.9844" style="stroke:#181818;stroke-width:1.0;"/><line style="stroke:#181818;stroke-width:1.0;" x1="35.5" x2="567.5" y1="313.9844" y2="313.9844"/><text fill="#000000" font-family="sans-serif" font-size="20" font-weight="bold" lengthAdjust="spacing" textLength="14" x="42.5" y="307.2676">5</text><text fill="#000000" font-family="sans-serif" font-size="20" lengthAdjust="spacing" textLength="230" x="60.5" y="307.2676">selects option "Delete"</text><polygon fill="#181818" points="46.5,347.2656,36.5,351.2656,46.5,355.2656,42.5,351.2656" style="stroke:#181818;stroke-width:1.0;"/><line style="stroke:#181818;stroke-width:1.0;stroke-dasharray:2.0,2.0;" x1="40.5" x2="577.5" y1="351.2656" y2="351.2656"/><text fill="#000000" font-family="sans-serif" font-size="20" font-weight="bold" lengthAdjust="spacing" textLength="14" x="52.5" y="344.5488">6</text><text fill="#000000" font-family="sans-serif" font-size="20" lengthAdjust="spacing" textLength="411" x="70.5" y="344.5488">asks for the postIt position (row, column)</text><polygon fill="#181818" points="561.5,384.5469,571.5,388.5469,561.5,392.5469,565.5,388.5469" style="stroke:#181818;stroke-width:1.0;"/><line style="stroke:#181818;stroke-width:1.0;" x1="35.5" x2="567.5" y1="388.5469" y2="388.5469"/><text fill="#000000" font-family="sans-serif" font-size="20" font-weight="bold" lengthAdjust="spacing" textLength="14" x="42.5" y="381.8301">7</text><text fill="#000000" font-family="sans-serif" font-size="20" lengthAdjust="spacing" textLength="149" x="60.5" y="381.8301">inputs position</text><polygon fill="#181818" points="41.5,421.8281,31.5,425.8281,41.5,429.8281,37.5,425.8281" style="stroke:#181818;stroke-width:1.0;"/><line style="stroke:#181818;stroke-width:1.0;stroke-dasharray:2.0,2.0;" x1="35.5" x2="577.5" y1="425.8281" y2="425.8281"/><text fill="#000000" font-family="sans-serif" font-size="20" font-weight="bold" lengthAdjust="spacing" textLength="14" x="47.5" y="419.1113">8</text><text fill="#000000" font-family="sans-serif" font-size="20" lengthAdjust="spacing" textLength="330" x="65.5" y="419.1113">shows the confirmation message</text><!--SRC=[bPBDQiCm48JlVeh1fnGIA3tcq4F_e8T2mVK3RELr8snhZNQTq3vzPITkMcWWEGaDce_P7MdZGq-HkbPSmnKghcbexKc25VwBSNETqM0IXkwTOqRE928lbMCEKfH5zkQjPQnnlw7mmNWLjMV32W_SiittR7JwBIKXMSe2grlaw-9JZRiycJKzTgQGthm4v7zW-T7yuycExbLY9MA2R6Idi0sZzMgG6dT2iHebiaaVSyDHW9luMSN_a4-d6n4J4YOpuf9eSwozzJ2iOl4YMrxYiVAsFApjwj9ey-BszdCtHjeewjJeE5c_RouTVc8jekoMSD8ENJWxJ_fCGuepGovkpaceVUneIj2nAfsgwPUOljGt]--></g></svg>